<svg xmlns="http://www.w3.org/2000/svg" xmlns:xlink="http://www.w3.org/1999/xlink" id="body_20" preserveAspectRatio="xMinYMin meet" viewBox="0 0 793 1123"><defs><clipPath id="1"><path d="M0 842L0 0L0 0L595 0L595 0L595 842L595 842L0 842z" /></clipPath><clipPath id="2"><path d="M56 56L539.3 56L539.3 56L539.3 780.278L539.3 780.278L56 780.278L56 780.278L56 56z" /></clipPath><clipPath id="3"><path d="M56 56L539.3 56L539.3 56L539.3 780.278L539.3 780.278L56 780.278L56 780.278L56 56z" /></clipPath><clipPath id="4"><path d="M56 56L539.3 56L539.3 56L539.3 780.278L539.3 780.278L56 780.278L56 780.278L56 56z" /></clipPath><clipPath id="5"><path d="M56 56.01837L539.3 56.01837L539.3 56.01837L539.3 780.2784L539.3 780.2784L56 780.2784L56 780.2784L56 56.01837z" /></clipPath><clipPath id="6"><path d="M56 56L539.3 56L539.3 56L539.3 780.278L539.3 780.278L56 780.278L56 780.278L56 56z" /></clipPath><clipPath id="7"><path d="M56 56.01837L539.3 56.01837L539.3 56.01837L539.3 780.2784L539.3 780.2784L56 780.2784L56 780.2784L56 56.01837z" /></clipPath><clipPath id="8"><path d="M56 56L539.3 56L539.3 56L539.3 780.278L539.3 780.278L56 780.278L56 780.278L56 56z" /></clipPath><clipPath id="9"><path d="M56 56.01837L539.3 56.01837L539.3 56.01837L539.3 780.2784L539.3 780.2784L56 780.2784L56 780.2784L56 56.01837z" /></clipPath><clipPath id="10"><path d="M56 56L539.3 56L539.3 56L539.3 780.278L539.3 780.278L56 780.278L56 780.278L56 56z" /></clipPath><clipPath id="11"><path d="M56 56L539.3 56L539.3 56L539.3 780.278L539.3 780.278L56 780.278L56 780.278L56 56z" /></clipPath></defs><g transform="matrix(1.333333 0 0 1.333333 0 0)"><g><g clip-path="url(#1)"><g clip-path="url(#2)"></g><g clip-path="url(#3)"><path transform="matrix(1 0 0 -1 0 842)" d="M59 13747.6L536.3 13747.6L536.3 13747.6L536.3 -1588.64L536.3 -1588.64L59 -1588.64z" stroke="none" fill="#FFFFFF" fill-rule="winding" /><g transform="matrix(0.4799025 0 0 0.4801905 58.99999 56.00104)"><g transform="matrix(1 0 0 1 0 0)"><image x="0" y="0" xlink:href="img_35.png" width="827" height="551" /></g></g></g><g clip-path="url(#4)"><path transform="matrix(1 0 0 -1 0 842)" d="M59.39685 465.082L690.5032 465.082L690.5032 465.082L690.5032 425.7266L690.5032 425.7266L59.39685 425.7266z" stroke="none" fill="#FFFF99" fill-rule="winding" /><path transform="matrix(1 0 0 -1 0 842)" d="M59 465.4795L59.39685 465.4795L59.39685 465.4795L59.39685 425.3301L59.39685 425.3301L59 425.3301z" stroke="none" fill="#C0C0C0" fill-rule="winding" /><path transform="matrix(1 0 0 -1 0 842)" d="M59.39685 465.4795L690.9 465.4795L690.9 465.4795L690.9 465.083L690.9 465.083L59.39685 465.083z" stroke="none" fill="#C0C0C0" fill-rule="winding" /><path transform="matrix(1 0 0 -1 0 842)" d="M690.5032 465.082L690.9 465.082L690.9 465.082L690.9 425.7266L690.9 425.7266L690.5032 425.7266z" stroke="none" fill="#808080" fill-rule="winding" /><path transform="matrix(1 0 0 -1 0 842)" d="M59.39685 425.7266L690.9 425.7266L690.9 425.7266L690.9 425.3301L690.9 425.3301L59.39685 425.3301z" stroke="none" fill="#808080" fill-rule="winding" /></g><g clip-path="url(#5)"></g><g clip-path="url(#6)"></g><g clip-path="url(#7)"></g><g clip-path="url(#8)"></g><g clip-path="url(#9)"></g><g clip-path="url(#10)"></g><g clip-path="url(#11)"><path transform="matrix(1 0 0 -1 0 842)" d="M59 367.8076L59.39685 367.8076L59.39685 367.8076L59.39685 344.4072L59.39685 344.4072L59 344.4072z" stroke="none" fill="#808080" fill-rule="winding" /><path transform="matrix(1 0 0 -1 0 842)" d="M59 367.8076L62.75 367.8076L62.75 367.8076L62.75 367.4102L62.75 367.4102L59 367.4102z" stroke="none" fill="#808080" fill-rule="winding" /><path transform="matrix(1 0 0 -1 0 842)" d="M59 344.4072L59.39685 344.4072L59.39685 344.4072L59.39685 117.6074L59.39685 117.6074L59 117.6074z" stroke="none" fill="#808080" fill-rule="winding" /><path transform="matrix(1 0 0 -1 0 842)" d="M59 344.4072L61.8125 344.4072L61.8125 344.4072L61.8125 344.0107L61.8125 344.0107L59 344.0107z" stroke="none" fill="#808080" fill-rule="winding" /><path transform="matrix(1 0 0 -1 0 842)" d="M59 118.0039L62.75 118.0039L62.75 118.0039L62.75 117.6074L62.75 117.6074L59 117.6074z" stroke="none" fill="#808080" fill-rule="winding" /><g transform="matrix(0.4798307 0 0 0.4794926 65.09374 497.5928)"><g transform="matrix(1 0 0 1 0 0)"><image x="0" y="0" xlink:href="img_36.png" width="709" height="473" /></g></g><path transform="matrix(1 0 0 -1 0 842)" d="M59 73.4209L59.39685 73.4209L59.39685 73.4209L59.39685 14.9209L59.39685 14.9209L59 14.9209z" stroke="none" fill="#808080" fill-rule="winding" /><path transform="matrix(1 0 0 -1 0 842)" d="M59 73.4209L62.75 73.4209L62.75 73.4209L62.75 73.02441L62.75 73.02441L59 73.02441z" stroke="none" fill="#808080" fill-rule="winding" /></g></g></g></g></svg>