<svg xmlns="http://www.w3.org/2000/svg" xmlns:xlink="http://www.w3.org/1999/xlink" id="body_18" preserveAspectRatio="xMinYMin meet" viewBox="0 0 793 1123"><defs><clipPath id="1"><path d="M0 842L0 0L0 0L595 0L595 0L595 842L595 842L0 842z" /></clipPath><clipPath id="2"><path d="M56 56L539.3 56L539.3 56L539.3 664.4L539.3 664.4L56 664.4L56 664.4L56 56z" /></clipPath><clipPath id="3"><path d="M56 56L539.3 56L539.3 56L539.3 664.4L539.3 664.4L56 664.4L56 664.4L56 56z" /></clipPath></defs><g transform="matrix(1.333333 0 0 1.333333 0 0)"><g><g clip-path="url(#1)"><g clip-path="url(#2)"></g><g clip-path="url(#3)"><path transform="matrix(1 0 0 -1 0 842)" d="M59 12629.49L536.3 12629.49L536.3 12629.49L536.3 -2706.748L536.3 -2706.748L59 -2706.748z" stroke="none" fill="#FFFFFF" fill-rule="winding" /><path transform="matrix(1 0 0 -1 0 842)" d="M59 1172.1L59.39685 1172.1L59.39685 1172.1L59.39685 177.5996L59.39685 177.5996L59 177.5996z" stroke="none" fill="#808080" fill-rule="winding" /><path transform="matrix(1 0 0 -1 0 842)" d="M59 1172.1L62.75 1172.1L62.75 1172.1L62.75 1171.703L62.75 1171.703L59 1171.703z" stroke="none" fill="#808080" fill-rule="winding" /><path transform="matrix(1 0 0 -1 0 842)" d="M59 177.5996L59.39685 177.5996L59.39685 177.5996L59.39685 -87L59.39685 -87L59 -87z" stroke="none" fill="#808080" fill-rule="winding" /><path transform="matrix(1 0 0 -1 0 842)" d="M59 177.5996L61.8125 177.5996L61.8125 177.5996L61.8125 177.2031L61.8125 177.2031L59 177.2031z" stroke="none" fill="#808080" fill-rule="winding" /><path transform="matrix(1 0 0 -1 0 842)" d="M59 -86.60352L62.75 -86.60352L62.75 -86.60352L62.75 -87L62.75 -87L59 -87z" stroke="none" fill="#808080" fill-rule="winding" /></g></g></g></g></svg>