<svg xmlns="http://www.w3.org/2000/svg" xmlns:xlink="http://www.w3.org/1999/xlink" id="body_16" preserveAspectRatio="xMinYMin meet" viewBox="0 0 793 1123"><defs><clipPath id="1"><path d="M0 842L0 0L0 0L595 0L595 0L595 842L595 842L0 842z" /></clipPath><clipPath id="2"><path d="M56 56L539.3 56L539.3 56L539.3 748.4089L539.3 748.4089L56 748.4089L56 748.4089L56 56z" /></clipPath><clipPath id="3"><path d="M56 56L539.3 56L539.3 56L539.3 748.4089L539.3 748.4089L56 748.4089L56 748.4089L56 56z" /></clipPath></defs><g transform="matrix(1.333333 0 0 1.333333 0 0)"><g><g clip-path="url(#1)"><g clip-path="url(#2)"></g><g clip-path="url(#3)"><path transform="matrix(1 0 0 -1 0 842)" d="M59 11211.64L536.3 11211.64L536.3 11211.64L536.3 -4124.601L536.3 -4124.601L59 -4124.601z" stroke="none" fill="#FFFFFF" fill-rule="winding" /><path transform="matrix(1 0 0 -1 0 842)" d="M59 903L59.39685 903L59.39685 903L59.39685 786L59.39685 786L59 786z" stroke="none" fill="#808080" fill-rule="winding" /><path transform="matrix(1 0 0 -1 0 842)" d="M59 903L62.75 903L62.75 903L62.75 902.6025L62.75 902.6025L59 902.6025z" stroke="none" fill="#808080" fill-rule="winding" /><path transform="matrix(1 0 0 -1 0 842)" d="M59 786L59.39685 786L59.39685 786L59.39685 585.1797L59.39685 585.1797L59 585.1797z" stroke="none" fill="#808080" fill-rule="winding" /><path transform="matrix(1 0 0 -1 0 842)" d="M59 786L61.8125 786L61.8125 786L61.8125 785.6025L61.8125 785.6025L59 785.6025z" stroke="none" fill="#808080" fill-rule="winding" /><path transform="matrix(1 0 0 -1 0 842)" d="M59 585.5762L62.75 585.5762L62.75 585.5762L62.75 585.1797L62.75 585.1797L59 585.1797z" stroke="none" fill="#808080" fill-rule="winding" /><g transform="matrix(0.4799981 0 0 0.480397 65.09374 56.00098)"><g transform="matrix(1 0 0 1 0 0)"><image x="0" y="0" xlink:href="img_26.png" width="1004" height="418" /></g></g><path transform="matrix(1 0 0 -1 0 842)" d="M59 565.4736L59.39685 565.4736L59.39685 565.4736L59.39685 436.7734L59.39685 436.7734L59 436.7734z" stroke="none" fill="#808080" fill-rule="winding" /><path transform="matrix(1 0 0 -1 0 842)" d="M59 565.4736L62.75 565.4736L62.75 565.4736L62.75 565.0771L62.75 565.0771L59 565.0771z" stroke="none" fill="#808080" fill-rule="winding" /><path transform="matrix(1 0 0 -1 0 842)" d="M59 437.1699L62.75 437.1699L62.75 437.1699L62.75 436.7734L62.75 436.7734L59 436.7734z" stroke="none" fill="#808080" fill-rule="winding" /><g transform="matrix(0.4795982 0 0 0.480527 58.99999 408.0889)"><g transform="matrix(1 0 0 1 0 0)"><image x="0" y="0" xlink:href="img_27.png" width="532" height="354" /></g></g><g transform="matrix(0.4795982 0 0 0.480527 58.99999 578.249)"><g transform="matrix(1 0 0 1 0 0)"><image x="0" y="0" xlink:href="img_28.png" width="532" height="354" /></g></g></g></g></g></g></svg>