<svg xmlns="http://www.w3.org/2000/svg" xmlns:xlink="http://www.w3.org/1999/xlink" id="body_13" preserveAspectRatio="xMinYMin meet" viewBox="0 0 793 1123"><defs><clipPath id="1"><path d="M0 842L0 0L0 0L595 0L595 0L595 842L595 842L0 842z" /></clipPath><clipPath id="2"><path d="M56 56L539.3 56L539.3 56L539.3 780.226L539.3 780.226L56 780.226L56 780.226L56 56z" /></clipPath><clipPath id="3"><path d="M56 56L539.3 56L539.3 56L539.3 780.226L539.3 780.226L56 780.226L56 780.226L56 56z" /></clipPath></defs><g transform="matrix(1.333333 0 0 1.333333 0 0)"><g><g clip-path="url(#1)"><g clip-path="url(#2)"></g><g clip-path="url(#3)"><path transform="matrix(1 0 0 -1 0 842)" d="M59 9068.173L536.3 9068.173L536.3 9068.173L536.3 -6268.067L536.3 -6268.067L59 -6268.067z" stroke="none" fill="#FFFFFF" fill-rule="winding" /><path transform="matrix(1 0 0 -1 0 842)" d="M59 973.1987L59.39685 973.1987L59.39685 973.1987L59.39685 750.8994L59.39685 750.8994L59 750.8994z" stroke="none" fill="#808080" fill-rule="winding" /><path transform="matrix(1 0 0 -1 0 842)" d="M59 973.1987L62.75 973.1987L62.75 973.1987L62.75 972.8022L62.75 972.8022L59 972.8022z" stroke="none" fill="#808080" fill-rule="winding" /><path transform="matrix(1 0 0 -1 0 842)" d="M59 751.2969L62.75 751.2969L62.75 751.2969L62.75 750.9004L62.75 750.9004L59 750.9004z" stroke="none" fill="#808080" fill-rule="winding" /><g transform="matrix(0.4795982 0 0 0.480527 58.99999 93.96387)"><g transform="matrix(1 0 0 1 0 0)"><image x="0" y="0" xlink:href="img_17.png" width="532" height="354" /></g></g><g transform="matrix(0.4795982 0 0 0.480527 58.99999 264.124)"><g transform="matrix(1 0 0 1 0 0)"><image x="0" y="0" xlink:href="img_18.png" width="532" height="354" /></g></g><g transform="matrix(0.4795982 0 0 0.480527 58.99999 434.2842)"><g transform="matrix(1 0 0 1 0 0)"><image x="0" y="0" xlink:href="img_19.png" width="532" height="354" /></g></g><path transform="matrix(1 0 0 -1 0 842)" d="M59 167.0732L59.39685 167.0732L59.39685 167.0732L59.39685 -300.9268L59.39685 -300.9268L59 -300.9268z" stroke="none" fill="#808080" fill-rule="winding" /><path transform="matrix(1 0 0 -1 0 842)" d="M59 167.0732L62.75 167.0732L62.75 167.0732L62.75 166.6768L62.75 166.6768L59 166.6768z" stroke="none" fill="#808080" fill-rule="winding" /></g></g></g></g></svg>