<svg xmlns="http://www.w3.org/2000/svg" xmlns:xlink="http://www.w3.org/1999/xlink" id="body_17" preserveAspectRatio="xMinYMin meet" viewBox="0 0 793 1123"><defs><clipPath id="1"><path d="M0 842L0 0L0 0L595 0L595 0L595 842L595 842L0 842z" /></clipPath><clipPath id="2"><path d="M56 56L539.3 56L539.3 56L539.3 781.443L539.3 781.443L56 781.443L56 781.443L56 56z" /></clipPath><clipPath id="3"><path d="M56 56L539.3 56L539.3 56L539.3 781.443L539.3 781.443L56 781.443L56 781.443L56 56z" /></clipPath><clipPath id="4"><path d="M56 56.01031L539.3 56.01031L539.3 56.01031L539.3 781.4703L539.3 781.4703L56 781.4703L56 781.4703L56 56.01031z" /></clipPath><clipPath id="5"><path d="M56 56L539.3 56L539.3 56L539.3 781.443L539.3 781.443L56 781.443L56 781.443L56 56z" /></clipPath><clipPath id="6"><path d="M56 56L539.3 56L539.3 56L539.3 781.443L539.3 781.443L56 781.443L56 781.443L56 56z" /></clipPath></defs><g transform="matrix(1.333333 0 0 1.333333 0 0)"><g><g clip-path="url(#1)"><g clip-path="url(#2)"></g><g clip-path="url(#3)"><path transform="matrix(1 0 0 -1 0 842)" d="M59 11904.05L536.3 11904.05L536.3 11904.05L536.3 -3432.191L536.3 -3432.191L59 -3432.191z" stroke="none" fill="#FFFFFF" fill-rule="winding" /><g transform="matrix(0.4795982 0 0 0.480527 58.99999 56)"><g transform="matrix(1 0 0 1 0 0)"><image x="0" y="0" xlink:href="img_30.png" width="532" height="354" /></g></g></g><g clip-path="url(#4)"></g><g clip-path="url(#5)"></g><g clip-path="url(#6)"><path transform="matrix(1 0 0 -1 0 842)" d="M59 446.6563L59.39685 446.6563L59.39685 446.6563L59.39685 -547.8438L59.39685 -547.8438L59 -547.8438z" stroke="none" fill="#808080" fill-rule="winding" /><path transform="matrix(1 0 0 -1 0 842)" d="M59 446.6563L62.75 446.6563L62.75 446.6563L62.75 446.2598L62.75 446.2598L59 446.2598z" stroke="none" fill="#808080" fill-rule="winding" /></g></g></g></g></svg>