<svg xmlns="http://www.w3.org/2000/svg" xmlns:xlink="http://www.w3.org/1999/xlink" id="body_4" preserveAspectRatio="xMinYMin meet" viewBox="0 0 793 1123"><defs><clipPath id="1"><path d="M0 842L0 0L0 0L595 0L595 0L595 842L595 842L0 842z" /></clipPath><clipPath id="2"><path d="M56 56L539.3 56L539.3 56L539.3 773.296L539.3 773.296L56 773.296L56 773.296L56 56z" /></clipPath><clipPath id="3"><path d="M56 56L539.3 56L539.3 56L539.3 773.296L539.3 773.296L56 773.296L56 773.296L56 56z" /></clipPath><clipPath id="4"><path d="M56 56.021L539.3 56.021L539.3 56.021L539.3 773.321L539.3 773.321L56 773.321L56 773.321L56 56.021z" /></clipPath><clipPath id="5"><path d="M56 56L539.3 56L539.3 56L539.3 773.296L539.3 773.296L56 773.296L56 773.296L56 56z" /></clipPath><clipPath id="6"><path d="M56 56L539.3 56L539.3 56L539.3 773.296L539.3 773.296L56 773.296L56 773.296L56 56z" /></clipPath><clipPath id="7"><path d="M56 56.021L539.3 56.021L539.3 56.021L539.3 773.321L539.3 773.321L56 773.321L56 773.321L56 56.021z" /></clipPath><clipPath id="8"><path d="M56 56L539.3 56L539.3 56L539.3 773.296L539.3 773.296L56 773.296L56 773.296L56 56z" /></clipPath><clipPath id="9"><path d="M56 56L539.3 56L539.3 56L539.3 773.296L539.3 773.296L56 773.296L56 773.296L56 56z" /></clipPath></defs><g transform="matrix(1.333333 0 0 1.333333 0 0)"><g><g clip-path="url(#1)"><g clip-path="url(#2)"></g><g clip-path="url(#3)"><path transform="matrix(1 0 0 -1 0 842)" d="M59 2946.939L536.3 2946.939L536.3 2946.939L536.3 -12389.3L536.3 -12389.3L59 -12389.3z" stroke="none" fill="#FFFFFF" fill-rule="winding" /><path transform="matrix(1 0 0 -1 0 842)" d="M59 809.3999L59.4 809.3999L59.4 809.3999L59.4 587.0999L59.4 587.0999L59 587.0999z" stroke="none" fill="#808080" fill-rule="winding" /><path transform="matrix(1 0 0 -1 0 842)" d="M59 809.3999L62.75 809.3999L62.75 809.3999L62.75 808.9998L62.75 808.9998L59 808.9998z" stroke="none" fill="#808080" fill-rule="winding" /><path transform="matrix(1 0 0 -1 0 842)" d="M59 587.0999L59.4 587.0999L59.4 587.0999L59.4 331.9199L59.4 331.9199L59 331.9199z" stroke="none" fill="#808080" fill-rule="winding" /><path transform="matrix(1 0 0 -1 0 842)" d="M59 587.0999L61.8125 587.0999L61.8125 587.0999L61.8125 586.6997L61.8125 586.6997L59 586.6997z" stroke="none" fill="#808080" fill-rule="winding" /><path transform="matrix(1 0 0 -1 0 842)" d="M59 332.3198L62.75 332.3198L62.75 332.3198L62.75 331.9197L62.75 331.9197L59 331.9197z" stroke="none" fill="#808080" fill-rule="winding" /><g transform="matrix(0.48 0 0 0.4796053 65.09937 254.8999)"><g transform="matrix(1 0 0 1 0 0)"><image x="0" y="0" xlink:href="img_06.png" width="945" height="532" /></g></g></g><g clip-path="url(#4)"></g><g clip-path="url(#5)"></g><g clip-path="url(#6)"><path transform="matrix(1 0 0 -1 0 842)" d="M59 169.3066L59.39685 169.3066L59.39685 169.3066L59.39685 110.8066L59.39685 110.8066L59 110.8066z" stroke="none" fill="#808080" fill-rule="winding" /><path transform="matrix(1 0 0 -1 0 842)" d="M59 169.3066L62.75 169.3066L62.75 169.3066L62.75 168.9099L62.75 168.9099L59 168.9099z" stroke="none" fill="#808080" fill-rule="winding" /><path transform="matrix(1 0 0 -1 0 842)" d="M59 110.8066L59.39685 110.8066L59.39685 110.8066L59.39685 85.54688L59.39685 85.54688L59 85.54688z" stroke="none" fill="#808080" fill-rule="winding" /><path transform="matrix(1 0 0 -1 0 842)" d="M59 110.8066L61.8125 110.8066L61.8125 110.8066L61.8125 110.4099L61.8125 110.4099L59 110.4099z" stroke="none" fill="#808080" fill-rule="winding" /><path transform="matrix(1 0 0 -1 0 842)" d="M59 85.9436L62.75 85.9436L62.75 85.9436L62.75 85.54688L62.75 85.54688L59 85.54688z" stroke="none" fill="#808080" fill-rule="winding" /></g><g clip-path="url(#7)"></g><g clip-path="url(#8)"></g><g clip-path="url(#9)"></g></g></g></g></svg>