<svg xmlns="http://www.w3.org/2000/svg" xmlns:xlink="http://www.w3.org/1999/xlink" id="body_12" preserveAspectRatio="xMinYMin meet" viewBox="0 0 793 1123"><defs><clipPath id="1"><path d="M0 842L0 0L0 0L595 0L595 0L595 842L595 842L0 842z" /></clipPath><clipPath id="2"><path d="M56 56L539.3 56L539.3 56L539.3 776.095L539.3 776.095L56 776.095L56 776.095L56 56z" /></clipPath><clipPath id="3"><path d="M56 56L539.3 56L539.3 56L539.3 776.095L539.3 776.095L56 776.095L56 776.095L56 56z" /></clipPath><clipPath id="4"><path d="M55.97375 55.99963L539.2737 55.99963L539.2737 55.99963L539.2737 776.1196L539.2737 776.1196L55.97375 776.1196L55.97375 776.1196L55.97375 55.99963z" /></clipPath><clipPath id="5"><path d="M55.97375 55.99963L539.2737 55.99963L539.2737 55.99963L539.2737 776.1196L539.2737 776.1196L55.97375 776.1196L55.97375 776.1196L55.97375 55.99963z" /></clipPath><clipPath id="6"><path d="M95.21375 144.7396L385.7938 144.7396L385.7938 144.7396L385.7938 322.6396L385.7938 322.6396L95.21375 322.6396L95.21375 322.6396L95.21375 144.7396z" /></clipPath><clipPath id="7"><path d="M55.97375 55.99963L539.2737 55.99963L539.2737 55.99963L539.2737 776.1196L539.2737 776.1196L55.97375 776.1196L55.97375 776.1196L55.97375 55.99963z" /></clipPath><clipPath id="8"><path d="M95.21375 144.7396L385.7938 144.7396L385.7938 144.7396L385.7938 322.6396L385.7938 322.6396L95.21375 322.6396L95.21375 322.6396L95.21375 144.7396z" /></clipPath><clipPath id="9"><path d="M55.97375 55.99963L539.2737 55.99963L539.2737 55.99963L539.2737 776.1196L539.2737 776.1196L55.97375 776.1196L55.97375 776.1196L55.97375 55.99963z" /></clipPath><clipPath id="10"><path d="M95.21375 144.7396L385.7938 144.7396L385.7938 144.7396L385.7938 322.6396L385.7938 322.6396L95.21375 322.6396L95.21375 322.6396L95.21375 144.7396z" /></clipPath><clipPath id="11"><path d="M55.97375 55.99963L539.2737 55.99963L539.2737 55.99963L539.2737 776.1196L539.2737 776.1196L55.97375 776.1196L55.97375 776.1196L55.97375 55.99963z" /></clipPath><clipPath id="12"><path d="M95.21375 144.7396L385.7938 144.7396L385.7938 144.7396L385.7938 322.6396L385.7938 322.6396L95.21375 322.6396L95.21375 322.6396L95.21375 144.7396z" /></clipPath><clipPath id="13"><path d="M55.97375 55.99963L539.2737 55.99963L539.2737 55.99963L539.2737 776.1196L539.2737 776.1196L55.97375 776.1196L55.97375 776.1196L55.97375 55.99963z" /></clipPath><clipPath id="14"><path d="M95.21375 144.7396L385.7938 144.7396L385.7938 144.7396L385.7938 322.6396L385.7938 322.6396L95.21375 322.6396L95.21375 322.6396L95.21375 144.7396z" /></clipPath><clipPath id="15"><path d="M55.97375 55.99963L539.2737 55.99963L539.2737 55.99963L539.2737 776.1196L539.2737 776.1196L55.97375 776.1196L55.97375 776.1196L55.97375 55.99963z" /></clipPath><clipPath id="16"><path d="M95.21375 144.7396L385.7938 144.7396L385.7938 144.7396L385.7938 322.6396L385.7938 322.6396L95.21375 322.6396L95.21375 322.6396L95.21375 144.7396z" /></clipPath><clipPath id="17"><path d="M55.97375 55.99963L539.2737 55.99963L539.2737 55.99963L539.2737 776.1196L539.2737 776.1196L55.97375 776.1196L55.97375 776.1196L55.97375 55.99963z" /></clipPath><clipPath id="18"><path d="M95.21375 144.7396L385.7938 144.7396L385.7938 144.7396L385.7938 322.6396L385.7938 322.6396L95.21375 322.6396L95.21375 322.6396L95.21375 144.7396z" /></clipPath><clipPath id="19"><path d="M55.97375 55.99963L539.2737 55.99963L539.2737 55.99963L539.2737 776.1196L539.2737 776.1196L55.97375 776.1196L55.97375 776.1196L55.97375 55.99963z" /></clipPath><clipPath id="20"><path d="M95.21375 144.7396L385.7938 144.7396L385.7938 144.7396L385.7938 322.6396L385.7938 322.6396L95.21375 322.6396L95.21375 322.6396L95.21375 144.7396z" /></clipPath><clipPath id="21"><path d="M55.97375 55.99963L539.2737 55.99963L539.2737 55.99963L539.2737 776.1196L539.2737 776.1196L55.97375 776.1196L55.97375 776.1196L55.97375 55.99963z" /></clipPath><clipPath id="22"><path d="M95.21375 144.7396L385.7938 144.7396L385.7938 144.7396L385.7938 322.6396L385.7938 322.6396L95.21375 322.6396L95.21375 322.6396L95.21375 144.7396z" /></clipPath><clipPath id="23"><path d="M55.97375 55.99963L539.2737 55.99963L539.2737 55.99963L539.2737 776.1196L539.2737 776.1196L55.97375 776.1196L55.97375 776.1196L55.97375 55.99963z" /></clipPath><clipPath id="24"><path d="M95.21375 144.7396L385.7938 144.7396L385.7938 144.7396L385.7938 322.6396L385.7938 322.6396L95.21375 322.6396L95.21375 322.6396L95.21375 144.7396z" /></clipPath><clipPath id="25"><path d="M55.97375 55.99963L539.2737 55.99963L539.2737 55.99963L539.2737 776.1196L539.2737 776.1196L55.97375 776.1196L55.97375 776.1196L55.97375 55.99963z" /></clipPath><clipPath id="26"><path d="M55.97375 55.99963L539.2737 55.99963L539.2737 55.99963L539.2737 776.1196L539.2737 776.1196L55.97375 776.1196L55.97375 776.1196L55.97375 55.99963z" /></clipPath><clipPath id="27"><path d="M55.97375 55.99963L539.2737 55.99963L539.2737 55.99963L539.2737 776.1196L539.2737 776.1196L55.97375 776.1196L55.97375 776.1196L55.97375 55.99963z" /></clipPath><clipPath id="28"><path d="M55.97375 55.99963L539.2737 55.99963L539.2737 55.99963L539.2737 776.1196L539.2737 776.1196L55.97375 776.1196L55.97375 776.1196L55.97375 55.99963z" /></clipPath><clipPath id="29"><path d="M55.97375 55.99963L539.2737 55.99963L539.2737 55.99963L539.2737 776.1196L539.2737 776.1196L55.97375 776.1196L55.97375 776.1196L55.97375 55.99963z" /></clipPath><clipPath id="30"><path d="M55.97375 55.99963L539.2737 55.99963L539.2737 55.99963L539.2737 776.1196L539.2737 776.1196L55.97375 776.1196L55.97375 776.1196L55.97375 55.99963z" /></clipPath><clipPath id="31"><path d="M55.97375 55.99963L539.2737 55.99963L539.2737 55.99963L539.2737 776.1196L539.2737 776.1196L55.97375 776.1196L55.97375 776.1196L55.97375 55.99963z" /></clipPath><clipPath id="32"><path d="M56 56L539.3 56L539.3 56L539.3 776.095L539.3 776.095L56 776.095L56 776.095L56 56z" /></clipPath><clipPath id="33"><path d="M56 56.02118L539.3 56.02118L539.3 56.02118L539.3 776.0812L539.3 776.0812L56 776.0812L56 776.0812L56 56.02118z" /></clipPath><clipPath id="34"><path d="M56 56L539.3 56L539.3 56L539.3 776.095L539.3 776.095L56 776.095L56 776.095L56 56z" /></clipPath><clipPath id="35"><path d="M56 56L539.3 56L539.3 56L539.3 776.095L539.3 776.095L56 776.095L56 776.095L56 56z" /></clipPath><clipPath id="36"><path d="M56 56L539.3 56L539.3 56L539.3 776.095L539.3 776.095L56 776.095L56 776.095L56 56z" /></clipPath></defs><g transform="matrix(1.333333 0 0 1.333333 0 0)"><g><g clip-path="url(#1)"><g clip-path="url(#2)"></g><g clip-path="url(#3)"><path transform="matrix(1 0 0 -1 0 842)" d="M59 8348.078L536.3 8348.078L536.3 8348.078L536.3 -6988.162L536.3 -6988.162L59 -6988.162z" stroke="none" fill="#FFFFFF" fill-rule="winding" /><path transform="matrix(1 0 0 -1 0 842)" d="M59 844.4995L59.39685 844.4995L59.39685 844.4995L59.39685 715.7993L59.39685 715.7993L59 715.7993z" stroke="none" fill="#808080" fill-rule="winding" /><path transform="matrix(1 0 0 -1 0 842)" d="M59 844.4995L62.75 844.4995L62.75 844.4995L62.75 844.1025L62.75 844.1025L59 844.1025z" stroke="none" fill="#808080" fill-rule="winding" /><path transform="matrix(1 0 0 -1 0 842)" d="M59 715.7993L59.39685 715.7993L59.39685 715.7993L59.39685 488.9995L59.39685 488.9995L59 488.9995z" stroke="none" fill="#808080" fill-rule="winding" /><path transform="matrix(1 0 0 -1 0 842)" d="M59 715.7993L61.8125 715.7993L61.8125 715.7993L61.8125 715.4023L61.8125 715.4023L59 715.4023z" stroke="none" fill="#808080" fill-rule="winding" /><path transform="matrix(1 0 0 -1 0 842)" d="M59 489.3965L62.75 489.3965L62.75 489.3965L62.75 488.9995L62.75 488.9995L59 488.9995z" stroke="none" fill="#808080" fill-rule="winding" /></g><g clip-path="url(#4)"><path transform="matrix(1 0 0 -1 0 842)" d="M65.09375 715.8004L405.2937 715.8004L405.2937 715.8004L405.2937 489.0004L405.2937 489.0004L65.09375 489.0004z" stroke="none" fill="#FFFFFF" fill-rule="winding" /><path transform="matrix(1 0 0 -1 0 842)" d="M65.09375 715.8004L405.2937 715.8004L405.2937 715.8004L405.2937 489.0004L405.2937 489.0004L65.09375 489.0004z" stroke="none" fill="#FFFFFF" fill-rule="winding" /></g><g clip-path="url(#5)"><path transform="matrix(1 0 0 -1 0 842)" d="M67.91375 712.9803L402.4738 712.9803L402.4738 712.9803L402.4738 491.8204L402.4738 491.8204L67.91375 491.8204z" stroke="none" fill="#FFFFFF" fill-rule="winding" /><path transform="matrix(1 0 0 -1 0 842)" d="M95.21375 520.3204L385.7937 520.3204" stroke="#000000" stroke-width="0.48" stroke-linecap="round" fill="none" /><path transform="matrix(1 0 0 -1 0 842)" d="M399.6537 520.3204L388.6137 522.6604L388.6137 522.6604L388.6137 517.9803L388.6137 517.9803L399.6537 520.3204z" stroke="none" fill="#000000" fill-rule="winding" /><path transform="matrix(1 0 0 -1 0 842)" d="M399.6537 520.3204L388.6137 522.6603" stroke="#000000" stroke-width="0.48" stroke-linecap="round" fill="none" /><path transform="matrix(1 0 0 -1 0 842)" d="M399.6537 520.3204L388.6137 517.9803" stroke="#000000" stroke-width="0.48" stroke-linecap="round" fill="none" /><path transform="matrix(1 0 0 -1 0 842)" d="M388.6137 522.6603L388.6137 517.9803" stroke="#000000" stroke-width="0.48" stroke-linecap="round" fill="none" /><path transform="matrix(1 0 0 -1 0 842)" d="M385.7937 520.3204L399.6537 520.3204" stroke="#000000" stroke-width="0.48" stroke-linecap="round" fill="none" /><path transform="matrix(1 0 0 -1 0 842)" d="M95.2428 520.3204L95.2428 696.3004" stroke="#000000" stroke-width="0.48" stroke-linecap="round" fill="none" /><path transform="matrix(1 0 0 -1 0 842)" d="M95.2428 710.1603L97.5828 699.1204L97.5828 699.1204L92.9028 699.1204L92.9028 699.1204L95.2428 710.1603z" stroke="none" fill="#000000" fill-rule="winding" /><path transform="matrix(1 0 0 -1 0 842)" d="M95.2428 710.1603L97.5828 699.1204" stroke="#000000" stroke-width="0.48" stroke-linecap="round" fill="none" /><path transform="matrix(1 0 0 -1 0 842)" d="M95.2428 710.1603L92.9028 699.1204" stroke="#000000" stroke-width="0.48" stroke-linecap="round" fill="none" /><path transform="matrix(1 0 0 -1 0 842)" d="M97.5828 699.1204L92.9028 699.1204" stroke="#000000" stroke-width="0.48" stroke-linecap="round" fill="none" /><path transform="matrix(1 0 0 -1 0 842)" d="M95.2428 696.3004L95.2428 710.1603" stroke="#000000" stroke-width="0.48" stroke-linecap="round" fill="none" /><path transform="matrix(1 0 0 -1 0 842)" d="M95.21375 517.5004L95.21375 523.1404" stroke="#000000" stroke-width="0.48" stroke-linecap="round" fill="none" /><path transform="matrix(1 0 0 -1 0 842)" d="M121.6738 517.5004L121.6738 523.1404" stroke="#000000" stroke-width="0.48" stroke-linecap="round" fill="none" /><path transform="matrix(1 0 0 -1 0 842)" d="M108.4737 518.9404L108.4737 521.7004" stroke="#000000" stroke-width="0.48" stroke-linecap="round" fill="none" /><path transform="matrix(1 0 0 -1 0 842)" d="M148.0737 517.5004L148.0737 523.1404" stroke="#000000" stroke-width="0.48" stroke-linecap="round" fill="none" /><path transform="matrix(1 0 0 -1 0 842)" d="M134.8737 518.9404L134.8737 521.7004" stroke="#000000" stroke-width="0.48" stroke-linecap="round" fill="none" /><path transform="matrix(1 0 0 -1 0 842)" d="M174.4738 517.5004L174.4738 523.1404" stroke="#000000" stroke-width="0.48" stroke-linecap="round" fill="none" /><path transform="matrix(1 0 0 -1 0 842)" d="M161.2737 518.9404L161.2737 521.7004" stroke="#000000" stroke-width="0.48" stroke-linecap="round" fill="none" /><path transform="matrix(1 0 0 -1 0 842)" d="M200.8737 517.5004L200.8737 523.1404" stroke="#000000" stroke-width="0.48" stroke-linecap="round" fill="none" /><path transform="matrix(1 0 0 -1 0 842)" d="M187.6737 518.9404L187.6737 521.7004" stroke="#000000" stroke-width="0.48" stroke-linecap="round" fill="none" /><path transform="matrix(1 0 0 -1 0 842)" d="M227.2737 517.5004L227.2737 523.1404" stroke="#000000" stroke-width="0.48" stroke-linecap="round" fill="none" /><path transform="matrix(1 0 0 -1 0 842)" d="M214.0737 518.9404L214.0737 521.7004" stroke="#000000" stroke-width="0.48" stroke-linecap="round" fill="none" /><path transform="matrix(1 0 0 -1 0 842)" d="M253.7337 517.5004L253.7337 523.1404" stroke="#000000" stroke-width="0.48" stroke-linecap="round" fill="none" /><path transform="matrix(1 0 0 -1 0 842)" d="M240.5338 518.9404L240.5338 521.7004" stroke="#000000" stroke-width="0.48" stroke-linecap="round" fill="none" /><path transform="matrix(1 0 0 -1 0 842)" d="M280.1337 517.5004L280.1337 523.1404" stroke="#000000" stroke-width="0.48" stroke-linecap="round" fill="none" /><path transform="matrix(1 0 0 -1 0 842)" d="M266.9337 518.9404L266.9337 521.7004" stroke="#000000" stroke-width="0.48" stroke-linecap="round" fill="none" /><path transform="matrix(1 0 0 -1 0 842)" d="M306.5338 517.5004L306.5338 523.1404" stroke="#000000" stroke-width="0.48" stroke-linecap="round" fill="none" /><path transform="matrix(1 0 0 -1 0 842)" d="M293.3337 518.9404L293.3337 521.7004" stroke="#000000" stroke-width="0.48" stroke-linecap="round" fill="none" /><path transform="matrix(1 0 0 -1 0 842)" d="M332.9337 517.5004L332.9337 523.1404" stroke="#000000" stroke-width="0.48" stroke-linecap="round" fill="none" /><path transform="matrix(1 0 0 -1 0 842)" d="M319.7338 518.9404L319.7338 521.7004" stroke="#000000" stroke-width="0.48" stroke-linecap="round" fill="none" /><path transform="matrix(1 0 0 -1 0 842)" d="M359.3337 517.5004L359.3337 523.1404" stroke="#000000" stroke-width="0.48" stroke-linecap="round" fill="none" /><path transform="matrix(1 0 0 -1 0 842)" d="M346.1338 518.9404L346.1338 521.7004" stroke="#000000" stroke-width="0.48" stroke-linecap="round" fill="none" /><path transform="matrix(1 0 0 -1 0 842)" d="M385.7937 517.5004L385.7937 523.1404" stroke="#000000" stroke-width="0.48" stroke-linecap="round" fill="none" /><path transform="matrix(1 0 0 -1 0 842)" d="M372.5338 518.9404L372.5338 521.7004" stroke="#000000" stroke-width="0.48" stroke-linecap="round" fill="none" /><path transform="matrix(1 0 0 -1 0 842)" d="M98.06281 520.338L92.4228 520.338" stroke="#000000" stroke-width="0.48" stroke-linecap="round" fill="none" /><path transform="matrix(1 0 0 -1 0 842)" d="M98.06281 552.3279L92.4228 552.3279" stroke="#000000" stroke-width="0.48" stroke-linecap="round" fill="none" /><path transform="matrix(1 0 0 -1 0 842)" d="M96.6228 536.3329L93.8628 536.3329" stroke="#000000" stroke-width="0.48" stroke-linecap="round" fill="none" /><path transform="matrix(1 0 0 -1 0 842)" d="M98.06281 584.3179L92.4228 584.3179" stroke="#000000" stroke-width="0.48" stroke-linecap="round" fill="none" /><path transform="matrix(1 0 0 -1 0 842)" d="M96.6228 568.3229L93.8628 568.3229" stroke="#000000" stroke-width="0.48" stroke-linecap="round" fill="none" /><path transform="matrix(1 0 0 -1 0 842)" d="M98.06281 616.3079L92.4228 616.3079" stroke="#000000" stroke-width="0.48" stroke-linecap="round" fill="none" /><path transform="matrix(1 0 0 -1 0 842)" d="M96.6228 600.3129L93.8628 600.3129" stroke="#000000" stroke-width="0.48" stroke-linecap="round" fill="none" /><path transform="matrix(1 0 0 -1 0 842)" d="M98.06281 648.2978L92.4228 648.2978" stroke="#000000" stroke-width="0.48" stroke-linecap="round" fill="none" /><path transform="matrix(1 0 0 -1 0 842)" d="M96.6228 632.3029L93.8628 632.3029" stroke="#000000" stroke-width="0.48" stroke-linecap="round" fill="none" /><path transform="matrix(1 0 0 -1 0 842)" d="M98.06281 680.2878L92.4228 680.2878" stroke="#000000" stroke-width="0.48" stroke-linecap="round" fill="none" /><path transform="matrix(1 0 0 -1 0 842)" d="M96.6228 664.2928L93.8628 664.2928" stroke="#000000" stroke-width="0.48" stroke-linecap="round" fill="none" /><path transform="matrix(1 0 0 -1 0 842)" d="M96.6228 696.2828L93.8628 696.2828" stroke="#000000" stroke-width="0.48" stroke-linecap="round" fill="none" /><path transform="matrix(1 0 0 -1 0 842)" d="M121.6539 520.338L138.9443 530.8093" stroke="#0000FF" stroke-width="0.96" stroke-linecap="round" fill="none" /><path transform="matrix(1 0 0 -1 0 842)" d="M143.6631 533.6671L138.3368 531.8123" stroke="#0000FF" stroke-width="0.96" stroke-linecap="round" fill="none" /><path transform="matrix(1 0 0 -1 0 842)" d="M143.6631 533.6671L139.5517 529.8063" stroke="#0000FF" stroke-width="0.96" stroke-linecap="round" fill="none" /><path transform="matrix(1 0 0 -1 0 842)" d="M138.3368 531.8123L143.6631 533.6671L143.6631 533.6671L139.5517 529.8063L139.5517 529.8063L138.3368 531.8123z" stroke="none" fill="#0000FF" fill-rule="winding" /><path transform="matrix(1 0 0 -1 0 842)" d="M148.065 520.338L165.3553 530.8093" stroke="#0000FF" stroke-width="0.96" stroke-linecap="round" fill="none" /><path transform="matrix(1 0 0 -1 0 842)" d="M170.0742 533.6671L164.7479 531.8123" stroke="#0000FF" stroke-width="0.96" stroke-linecap="round" fill="none" /><path transform="matrix(1 0 0 -1 0 842)" d="M170.0742 533.6671L165.9628 529.8063" stroke="#0000FF" stroke-width="0.96" stroke-linecap="round" fill="none" /><path transform="matrix(1 0 0 -1 0 842)" d="M164.7479 531.8123L170.0742 533.6671L170.0742 533.6671L165.9628 529.8063L165.9628 529.8063L164.7479 531.8123z" stroke="none" fill="#0000FF" fill-rule="winding" /><path transform="matrix(1 0 0 -1 0 842)" d="M174.476 520.338L191.7664 530.8093" stroke="#0000FF" stroke-width="0.96" stroke-linecap="round" fill="none" /><path transform="matrix(1 0 0 -1 0 842)" d="M196.4853 533.6671L191.159 531.8123" stroke="#0000FF" stroke-width="0.96" stroke-linecap="round" fill="none" /><path transform="matrix(1 0 0 -1 0 842)" d="M196.4853 533.6671L192.3739 529.8063" stroke="#0000FF" stroke-width="0.96" stroke-linecap="round" fill="none" /><path transform="matrix(1 0 0 -1 0 842)" d="M191.159 531.8123L196.4853 533.6671L196.4853 533.6671L192.3739 529.8063L192.3739 529.8063L191.159 531.8123z" stroke="none" fill="#0000FF" fill-rule="winding" /><path transform="matrix(1 0 0 -1 0 842)" d="M200.8871 520.338L218.1775 530.8093" stroke="#0000FF" stroke-width="0.96" stroke-linecap="round" fill="none" /><path transform="matrix(1 0 0 -1 0 842)" d="M222.8963 533.6671L217.5701 531.8123" stroke="#0000FF" stroke-width="0.96" stroke-linecap="round" fill="none" /><path transform="matrix(1 0 0 -1 0 842)" d="M222.8963 533.6671L218.785 529.8063" stroke="#0000FF" stroke-width="0.96" stroke-linecap="round" fill="none" /><path transform="matrix(1 0 0 -1 0 842)" d="M217.5701 531.8123L222.8964 533.6671L222.8964 533.6671L218.785 529.8063L218.785 529.8063L217.5701 531.8123z" stroke="none" fill="#0000FF" fill-rule="winding" /><path transform="matrix(1 0 0 -1 0 842)" d="M227.2982 520.338L244.5886 530.8093" stroke="#0000FF" stroke-width="0.96" stroke-linecap="round" fill="none" /><path transform="matrix(1 0 0 -1 0 842)" d="M249.3074 533.6671L243.9812 531.8123" stroke="#0000FF" stroke-width="0.96" stroke-linecap="round" fill="none" /><path transform="matrix(1 0 0 -1 0 842)" d="M249.3074 533.6671L245.196 529.8063" stroke="#0000FF" stroke-width="0.96" stroke-linecap="round" fill="none" /><path transform="matrix(1 0 0 -1 0 842)" d="M243.9811 531.8123L249.3074 533.6671L249.3074 533.6671L245.196 529.8063L245.196 529.8063L243.9811 531.8123z" stroke="none" fill="#0000FF" fill-rule="winding" /><path transform="matrix(1 0 0 -1 0 842)" d="M253.7093 520.338L270.9997 530.8093" stroke="#0000FF" stroke-width="0.96" stroke-linecap="round" fill="none" /><path transform="matrix(1 0 0 -1 0 842)" d="M275.7185 533.6671L270.3922 531.8123" stroke="#0000FF" stroke-width="0.96" stroke-linecap="round" fill="none" /><path transform="matrix(1 0 0 -1 0 842)" d="M275.7185 533.6671L271.6071 529.8063" stroke="#0000FF" stroke-width="0.96" stroke-linecap="round" fill="none" /><path transform="matrix(1 0 0 -1 0 842)" d="M270.3922 531.8123L275.7185 533.6671L275.7185 533.6671L271.6071 529.8063L271.6071 529.8063L270.3922 531.8123z" stroke="none" fill="#0000FF" fill-rule="winding" /><path transform="matrix(1 0 0 -1 0 842)" d="M280.1204 520.338L297.4108 530.8093" stroke="#0000FF" stroke-width="0.96" stroke-linecap="round" fill="none" /><path transform="matrix(1 0 0 -1 0 842)" d="M302.1296 533.6671L296.8033 531.8123" stroke="#0000FF" stroke-width="0.96" stroke-linecap="round" fill="none" /><path transform="matrix(1 0 0 -1 0 842)" d="M302.1296 533.6671L298.0182 529.8063" stroke="#0000FF" stroke-width="0.96" stroke-linecap="round" fill="none" /><path transform="matrix(1 0 0 -1 0 842)" d="M296.8033 531.8123L302.1296 533.6671L302.1296 533.6671L298.0182 529.8063L298.0182 529.8063L296.8033 531.8123z" stroke="none" fill="#0000FF" fill-rule="winding" /><path transform="matrix(1 0 0 -1 0 842)" d="M306.5314 520.338L323.8218 530.8093" stroke="#0000FF" stroke-width="0.96" stroke-linecap="round" fill="none" /><path transform="matrix(1 0 0 -1 0 842)" d="M328.5407 533.6671L323.2144 531.8123" stroke="#0000FF" stroke-width="0.96" stroke-linecap="round" fill="none" /><path transform="matrix(1 0 0 -1 0 842)" d="M328.5407 533.6671L324.4293 529.8063" stroke="#0000FF" stroke-width="0.96" stroke-linecap="round" fill="none" /><path transform="matrix(1 0 0 -1 0 842)" d="M323.2144 531.8123L328.5407 533.6671L328.5407 533.6671L324.4293 529.8063L324.4293 529.8063L323.2144 531.8123z" stroke="none" fill="#0000FF" fill-rule="winding" /><path transform="matrix(1 0 0 -1 0 842)" d="M332.9425 520.338L350.2329 530.8093" stroke="#0000FF" stroke-width="0.96" stroke-linecap="round" fill="none" /><path transform="matrix(1 0 0 -1 0 842)" d="M354.9518 533.6671L349.6255 531.8123" stroke="#0000FF" stroke-width="0.96" stroke-linecap="round" fill="none" /><path transform="matrix(1 0 0 -1 0 842)" d="M354.9518 533.6671L350.8404 529.8063" stroke="#0000FF" stroke-width="0.96" stroke-linecap="round" fill="none" /><path transform="matrix(1 0 0 -1 0 842)" d="M349.6255 531.8123L354.9518 533.6671L354.9518 533.6671L350.8404 529.8063L350.8404 529.8063L349.6255 531.8123z" stroke="none" fill="#0000FF" fill-rule="winding" /><path transform="matrix(1 0 0 -1 0 842)" d="M359.3536 520.338L376.644 530.8093" stroke="#0000FF" stroke-width="0.96" stroke-linecap="round" fill="none" /><path transform="matrix(1 0 0 -1 0 842)" d="M381.3629 533.6671L376.0366 531.8123" stroke="#0000FF" stroke-width="0.96" stroke-linecap="round" fill="none" /><path transform="matrix(1 0 0 -1 0 842)" d="M381.3629 533.6671L377.2514 529.8063" stroke="#0000FF" stroke-width="0.96" stroke-linecap="round" fill="none" /><path transform="matrix(1 0 0 -1 0 842)" d="M376.0365 531.8123L381.3628 533.6671L381.3628 533.6671L377.2515 529.8063L377.2515 529.8063L376.0365 531.8123z" stroke="none" fill="#0000FF" fill-rule="winding" /></g><g clip-path="url(#6)"><path transform="matrix(1 0 0 -1 0 842)" d="M121.6738 520.3204L121.6738 526.3204" stroke="#0000FF" stroke-width="0.96" stroke-linecap="round" fill="none" /><path transform="matrix(1 0 0 -1 0 842)" d="M121.6738 532.3204L121.6738 538.3204" stroke="#0000FF" stroke-width="0.96" stroke-linecap="round" fill="none" /><path transform="matrix(1 0 0 -1 0 842)" d="M121.6738 544.3204L121.6738 550.3204" stroke="#0000FF" stroke-width="0.96" stroke-linecap="round" fill="none" /><path transform="matrix(1 0 0 -1 0 842)" d="M121.6738 556.3204L121.6738 562.3204" stroke="#0000FF" stroke-width="0.96" stroke-linecap="round" fill="none" /><path transform="matrix(1 0 0 -1 0 842)" d="M121.6738 568.3204L121.6738 574.3204" stroke="#0000FF" stroke-width="0.96" stroke-linecap="round" fill="none" /><path transform="matrix(1 0 0 -1 0 842)" d="M121.6738 580.3204L121.6738 586.3204" stroke="#0000FF" stroke-width="0.96" stroke-linecap="round" fill="none" /><path transform="matrix(1 0 0 -1 0 842)" d="M121.6738 592.3204L121.6738 598.3204" stroke="#0000FF" stroke-width="0.96" stroke-linecap="round" fill="none" /><path transform="matrix(1 0 0 -1 0 842)" d="M121.6738 604.3204L121.6738 610.3204" stroke="#0000FF" stroke-width="0.96" stroke-linecap="round" fill="none" /><path transform="matrix(1 0 0 -1 0 842)" d="M121.6738 616.3204L121.6738 622.3204" stroke="#0000FF" stroke-width="0.96" stroke-linecap="round" fill="none" /><path transform="matrix(1 0 0 -1 0 842)" d="M121.6738 628.3204L121.6738 634.3204" stroke="#0000FF" stroke-width="0.96" stroke-linecap="round" fill="none" /><path transform="matrix(1 0 0 -1 0 842)" d="M121.6738 640.3204L121.6738 646.3204" stroke="#0000FF" stroke-width="0.96" stroke-linecap="round" fill="none" /><path transform="matrix(1 0 0 -1 0 842)" d="M121.6738 652.3204L121.6738 658.3204" stroke="#0000FF" stroke-width="0.96" stroke-linecap="round" fill="none" /><path transform="matrix(1 0 0 -1 0 842)" d="M121.6738 664.3204L121.6738 670.3204" stroke="#0000FF" stroke-width="0.96" stroke-linecap="round" fill="none" /><path transform="matrix(1 0 0 -1 0 842)" d="M121.6738 676.3204L121.6738 682.3204" stroke="#0000FF" stroke-width="0.96" stroke-linecap="round" fill="none" /><path transform="matrix(1 0 0 -1 0 842)" d="M121.6738 688.3204L121.6738 694.3204" stroke="#0000FF" stroke-width="0.96" stroke-linecap="round" fill="none" /></g><g clip-path="url(#7)"></g><g clip-path="url(#8)"><path transform="matrix(1 0 0 -1 0 842)" d="M148.0737 520.3204L148.0737 526.3204" stroke="#0000FF" stroke-width="0.96" stroke-linecap="round" fill="none" /><path transform="matrix(1 0 0 -1 0 842)" d="M148.0737 532.3204L148.0737 538.3204" stroke="#0000FF" stroke-width="0.96" stroke-linecap="round" fill="none" /><path transform="matrix(1 0 0 -1 0 842)" d="M148.0737 544.3204L148.0737 550.3204" stroke="#0000FF" stroke-width="0.96" stroke-linecap="round" fill="none" /><path transform="matrix(1 0 0 -1 0 842)" d="M148.0737 556.3204L148.0737 562.3204" stroke="#0000FF" stroke-width="0.96" stroke-linecap="round" fill="none" /><path transform="matrix(1 0 0 -1 0 842)" d="M148.0737 568.3204L148.0737 574.3204" stroke="#0000FF" stroke-width="0.96" stroke-linecap="round" fill="none" /><path transform="matrix(1 0 0 -1 0 842)" d="M148.0737 580.3204L148.0737 586.3204" stroke="#0000FF" stroke-width="0.96" stroke-linecap="round" fill="none" /><path transform="matrix(1 0 0 -1 0 842)" d="M148.0737 592.3204L148.0737 598.3204" stroke="#0000FF" stroke-width="0.96" stroke-linecap="round" fill="none" /><path transform="matrix(1 0 0 -1 0 842)" d="M148.0737 604.3204L148.0737 610.3204" stroke="#0000FF" stroke-width="0.96" stroke-linecap="round" fill="none" /><path transform="matrix(1 0 0 -1 0 842)" d="M148.0737 616.3204L148.0737 622.3204" stroke="#0000FF" stroke-width="0.96" stroke-linecap="round" fill="none" /><path transform="matrix(1 0 0 -1 0 842)" d="M148.0737 628.3204L148.0737 634.3204" stroke="#0000FF" stroke-width="0.96" stroke-linecap="round" fill="none" /><path transform="matrix(1 0 0 -1 0 842)" d="M148.0737 640.3204L148.0737 646.3204" stroke="#0000FF" stroke-width="0.96" stroke-linecap="round" fill="none" /><path transform="matrix(1 0 0 -1 0 842)" d="M148.0737 652.3204L148.0737 658.3204" stroke="#0000FF" stroke-width="0.96" stroke-linecap="round" fill="none" /><path transform="matrix(1 0 0 -1 0 842)" d="M148.0737 664.3204L148.0737 670.3204" stroke="#0000FF" stroke-width="0.96" stroke-linecap="round" fill="none" /><path transform="matrix(1 0 0 -1 0 842)" d="M148.0737 676.3204L148.0737 682.3204" stroke="#0000FF" stroke-width="0.96" stroke-linecap="round" fill="none" /><path transform="matrix(1 0 0 -1 0 842)" d="M148.0737 688.3204L148.0737 694.3204" stroke="#0000FF" stroke-width="0.96" stroke-linecap="round" fill="none" /></g><g clip-path="url(#9)"></g><g clip-path="url(#10)"><path transform="matrix(1 0 0 -1 0 842)" d="M174.4738 520.3204L174.4738 526.3204" stroke="#0000FF" stroke-width="0.96" stroke-linecap="round" fill="none" /><path transform="matrix(1 0 0 -1 0 842)" d="M174.4738 532.3204L174.4738 538.3204" stroke="#0000FF" stroke-width="0.96" stroke-linecap="round" fill="none" /><path transform="matrix(1 0 0 -1 0 842)" d="M174.4738 544.3204L174.4738 550.3204" stroke="#0000FF" stroke-width="0.96" stroke-linecap="round" fill="none" /><path transform="matrix(1 0 0 -1 0 842)" d="M174.4738 556.3204L174.4738 562.3204" stroke="#0000FF" stroke-width="0.96" stroke-linecap="round" fill="none" /><path transform="matrix(1 0 0 -1 0 842)" d="M174.4738 568.3204L174.4738 574.3204" stroke="#0000FF" stroke-width="0.96" stroke-linecap="round" fill="none" /><path transform="matrix(1 0 0 -1 0 842)" d="M174.4738 580.3204L174.4738 586.3204" stroke="#0000FF" stroke-width="0.96" stroke-linecap="round" fill="none" /><path transform="matrix(1 0 0 -1 0 842)" d="M174.4738 592.3204L174.4738 598.3204" stroke="#0000FF" stroke-width="0.96" stroke-linecap="round" fill="none" /><path transform="matrix(1 0 0 -1 0 842)" d="M174.4738 604.3204L174.4738 610.3204" stroke="#0000FF" stroke-width="0.96" stroke-linecap="round" fill="none" /><path transform="matrix(1 0 0 -1 0 842)" d="M174.4738 616.3204L174.4738 622.3204" stroke="#0000FF" stroke-width="0.96" stroke-linecap="round" fill="none" /><path transform="matrix(1 0 0 -1 0 842)" d="M174.4738 628.3204L174.4738 634.3204" stroke="#0000FF" stroke-width="0.96" stroke-linecap="round" fill="none" /><path transform="matrix(1 0 0 -1 0 842)" d="M174.4738 640.3204L174.4738 646.3204" stroke="#0000FF" stroke-width="0.96" stroke-linecap="round" fill="none" /><path transform="matrix(1 0 0 -1 0 842)" d="M174.4738 652.3204L174.4738 658.3204" stroke="#0000FF" stroke-width="0.96" stroke-linecap="round" fill="none" /><path transform="matrix(1 0 0 -1 0 842)" d="M174.4738 664.3204L174.4738 670.3204" stroke="#0000FF" stroke-width="0.96" stroke-linecap="round" fill="none" /><path transform="matrix(1 0 0 -1 0 842)" d="M174.4738 676.3204L174.4738 682.3204" stroke="#0000FF" stroke-width="0.96" stroke-linecap="round" fill="none" /><path transform="matrix(1 0 0 -1 0 842)" d="M174.4738 688.3204L174.4738 694.3204" stroke="#0000FF" stroke-width="0.96" stroke-linecap="round" fill="none" /></g><g clip-path="url(#11)"></g><g clip-path="url(#12)"><path transform="matrix(1 0 0 -1 0 842)" d="M200.8737 520.3204L200.8737 526.3204" stroke="#0000FF" stroke-width="0.96" stroke-linecap="round" fill="none" /><path transform="matrix(1 0 0 -1 0 842)" d="M200.8737 532.3204L200.8737 538.3204" stroke="#0000FF" stroke-width="0.96" stroke-linecap="round" fill="none" /><path transform="matrix(1 0 0 -1 0 842)" d="M200.8737 544.3204L200.8737 550.3204" stroke="#0000FF" stroke-width="0.96" stroke-linecap="round" fill="none" /><path transform="matrix(1 0 0 -1 0 842)" d="M200.8737 556.3204L200.8737 562.3204" stroke="#0000FF" stroke-width="0.96" stroke-linecap="round" fill="none" /><path transform="matrix(1 0 0 -1 0 842)" d="M200.8737 568.3204L200.8737 574.3204" stroke="#0000FF" stroke-width="0.96" stroke-linecap="round" fill="none" /><path transform="matrix(1 0 0 -1 0 842)" d="M200.8737 580.3204L200.8737 586.3204" stroke="#0000FF" stroke-width="0.96" stroke-linecap="round" fill="none" /><path transform="matrix(1 0 0 -1 0 842)" d="M200.8737 592.3204L200.8737 598.3204" stroke="#0000FF" stroke-width="0.96" stroke-linecap="round" fill="none" /><path transform="matrix(1 0 0 -1 0 842)" d="M200.8737 604.3204L200.8737 610.3204" stroke="#0000FF" stroke-width="0.96" stroke-linecap="round" fill="none" /><path transform="matrix(1 0 0 -1 0 842)" d="M200.8737 616.3204L200.8737 622.3204" stroke="#0000FF" stroke-width="0.96" stroke-linecap="round" fill="none" /><path transform="matrix(1 0 0 -1 0 842)" d="M200.8737 628.3204L200.8737 634.3204" stroke="#0000FF" stroke-width="0.96" stroke-linecap="round" fill="none" /><path transform="matrix(1 0 0 -1 0 842)" d="M200.8737 640.3204L200.8737 646.3204" stroke="#0000FF" stroke-width="0.96" stroke-linecap="round" fill="none" /><path transform="matrix(1 0 0 -1 0 842)" d="M200.8737 652.3204L200.8737 658.3204" stroke="#0000FF" stroke-width="0.96" stroke-linecap="round" fill="none" /><path transform="matrix(1 0 0 -1 0 842)" d="M200.8737 664.3204L200.8737 670.3204" stroke="#0000FF" stroke-width="0.96" stroke-linecap="round" fill="none" /><path transform="matrix(1 0 0 -1 0 842)" d="M200.8737 676.3204L200.8737 682.3204" stroke="#0000FF" stroke-width="0.96" stroke-linecap="round" fill="none" /><path transform="matrix(1 0 0 -1 0 842)" d="M200.8737 688.3204L200.8737 694.3204" stroke="#0000FF" stroke-width="0.96" stroke-linecap="round" fill="none" /></g><g clip-path="url(#13)"></g><g clip-path="url(#14)"><path transform="matrix(1 0 0 -1 0 842)" d="M227.2737 520.3204L227.2737 526.3204" stroke="#0000FF" stroke-width="0.96" stroke-linecap="round" fill="none" /><path transform="matrix(1 0 0 -1 0 842)" d="M227.2737 532.3204L227.2737 538.3204" stroke="#0000FF" stroke-width="0.96" stroke-linecap="round" fill="none" /><path transform="matrix(1 0 0 -1 0 842)" d="M227.2737 544.3204L227.2737 550.3204" stroke="#0000FF" stroke-width="0.96" stroke-linecap="round" fill="none" /><path transform="matrix(1 0 0 -1 0 842)" d="M227.2737 556.3204L227.2737 562.3204" stroke="#0000FF" stroke-width="0.96" stroke-linecap="round" fill="none" /><path transform="matrix(1 0 0 -1 0 842)" d="M227.2737 568.3204L227.2737 574.3204" stroke="#0000FF" stroke-width="0.96" stroke-linecap="round" fill="none" /><path transform="matrix(1 0 0 -1 0 842)" d="M227.2737 580.3204L227.2737 586.3204" stroke="#0000FF" stroke-width="0.96" stroke-linecap="round" fill="none" /><path transform="matrix(1 0 0 -1 0 842)" d="M227.2737 592.3204L227.2737 598.3204" stroke="#0000FF" stroke-width="0.96" stroke-linecap="round" fill="none" /><path transform="matrix(1 0 0 -1 0 842)" d="M227.2737 604.3204L227.2737 610.3204" stroke="#0000FF" stroke-width="0.96" stroke-linecap="round" fill="none" /><path transform="matrix(1 0 0 -1 0 842)" d="M227.2737 616.3204L227.2737 622.3204" stroke="#0000FF" stroke-width="0.96" stroke-linecap="round" fill="none" /><path transform="matrix(1 0 0 -1 0 842)" d="M227.2737 628.3204L227.2737 634.3204" stroke="#0000FF" stroke-width="0.96" stroke-linecap="round" fill="none" /><path transform="matrix(1 0 0 -1 0 842)" d="M227.2737 640.3204L227.2737 646.3204" stroke="#0000FF" stroke-width="0.96" stroke-linecap="round" fill="none" /><path transform="matrix(1 0 0 -1 0 842)" d="M227.2737 652.3204L227.2737 658.3204" stroke="#0000FF" stroke-width="0.96" stroke-linecap="round" fill="none" /><path transform="matrix(1 0 0 -1 0 842)" d="M227.2737 664.3204L227.2737 670.3204" stroke="#0000FF" stroke-width="0.96" stroke-linecap="round" fill="none" /><path transform="matrix(1 0 0 -1 0 842)" d="M227.2737 676.3204L227.2737 682.3204" stroke="#0000FF" stroke-width="0.96" stroke-linecap="round" fill="none" /><path transform="matrix(1 0 0 -1 0 842)" d="M227.2737 688.3204L227.2737 694.3204" stroke="#0000FF" stroke-width="0.96" stroke-linecap="round" fill="none" /></g><g clip-path="url(#15)"></g><g clip-path="url(#16)"><path transform="matrix(1 0 0 -1 0 842)" d="M253.7337 520.3204L253.7337 526.3204" stroke="#0000FF" stroke-width="0.96" stroke-linecap="round" fill="none" /><path transform="matrix(1 0 0 -1 0 842)" d="M253.7337 532.3204L253.7337 538.3204" stroke="#0000FF" stroke-width="0.96" stroke-linecap="round" fill="none" /><path transform="matrix(1 0 0 -1 0 842)" d="M253.7337 544.3204L253.7337 550.3204" stroke="#0000FF" stroke-width="0.96" stroke-linecap="round" fill="none" /><path transform="matrix(1 0 0 -1 0 842)" d="M253.7337 556.3204L253.7337 562.3204" stroke="#0000FF" stroke-width="0.96" stroke-linecap="round" fill="none" /><path transform="matrix(1 0 0 -1 0 842)" d="M253.7337 568.3204L253.7337 574.3204" stroke="#0000FF" stroke-width="0.96" stroke-linecap="round" fill="none" /><path transform="matrix(1 0 0 -1 0 842)" d="M253.7337 580.3204L253.7337 586.3204" stroke="#0000FF" stroke-width="0.96" stroke-linecap="round" fill="none" /><path transform="matrix(1 0 0 -1 0 842)" d="M253.7337 592.3204L253.7337 598.3204" stroke="#0000FF" stroke-width="0.96" stroke-linecap="round" fill="none" /><path transform="matrix(1 0 0 -1 0 842)" d="M253.7337 604.3204L253.7337 610.3204" stroke="#0000FF" stroke-width="0.96" stroke-linecap="round" fill="none" /><path transform="matrix(1 0 0 -1 0 842)" d="M253.7337 616.3204L253.7337 622.3204" stroke="#0000FF" stroke-width="0.96" stroke-linecap="round" fill="none" /><path transform="matrix(1 0 0 -1 0 842)" d="M253.7337 628.3204L253.7337 634.3204" stroke="#0000FF" stroke-width="0.96" stroke-linecap="round" fill="none" /><path transform="matrix(1 0 0 -1 0 842)" d="M253.7337 640.3204L253.7337 646.3204" stroke="#0000FF" stroke-width="0.96" stroke-linecap="round" fill="none" /><path transform="matrix(1 0 0 -1 0 842)" d="M253.7337 652.3204L253.7337 658.3204" stroke="#0000FF" stroke-width="0.96" stroke-linecap="round" fill="none" /><path transform="matrix(1 0 0 -1 0 842)" d="M253.7337 664.3204L253.7337 670.3204" stroke="#0000FF" stroke-width="0.96" stroke-linecap="round" fill="none" /><path transform="matrix(1 0 0 -1 0 842)" d="M253.7337 676.3204L253.7337 682.3204" stroke="#0000FF" stroke-width="0.96" stroke-linecap="round" fill="none" /><path transform="matrix(1 0 0 -1 0 842)" d="M253.7337 688.3204L253.7337 694.3204" stroke="#0000FF" stroke-width="0.96" stroke-linecap="round" fill="none" /></g><g clip-path="url(#17)"></g><g clip-path="url(#18)"><path transform="matrix(1 0 0 -1 0 842)" d="M280.1337 520.3204L280.1337 526.3204" stroke="#0000FF" stroke-width="0.96" stroke-linecap="round" fill="none" /><path transform="matrix(1 0 0 -1 0 842)" d="M280.1337 532.3204L280.1337 538.3204" stroke="#0000FF" stroke-width="0.96" stroke-linecap="round" fill="none" /><path transform="matrix(1 0 0 -1 0 842)" d="M280.1337 544.3204L280.1337 550.3204" stroke="#0000FF" stroke-width="0.96" stroke-linecap="round" fill="none" /><path transform="matrix(1 0 0 -1 0 842)" d="M280.1337 556.3204L280.1337 562.3204" stroke="#0000FF" stroke-width="0.96" stroke-linecap="round" fill="none" /><path transform="matrix(1 0 0 -1 0 842)" d="M280.1337 568.3204L280.1337 574.3204" stroke="#0000FF" stroke-width="0.96" stroke-linecap="round" fill="none" /><path transform="matrix(1 0 0 -1 0 842)" d="M280.1337 580.3204L280.1337 586.3204" stroke="#0000FF" stroke-width="0.96" stroke-linecap="round" fill="none" /><path transform="matrix(1 0 0 -1 0 842)" d="M280.1337 592.3204L280.1337 598.3204" stroke="#0000FF" stroke-width="0.96" stroke-linecap="round" fill="none" /><path transform="matrix(1 0 0 -1 0 842)" d="M280.1337 604.3204L280.1337 610.3204" stroke="#0000FF" stroke-width="0.96" stroke-linecap="round" fill="none" /><path transform="matrix(1 0 0 -1 0 842)" d="M280.1337 616.3204L280.1337 622.3204" stroke="#0000FF" stroke-width="0.96" stroke-linecap="round" fill="none" /><path transform="matrix(1 0 0 -1 0 842)" d="M280.1337 628.3204L280.1337 634.3204" stroke="#0000FF" stroke-width="0.96" stroke-linecap="round" fill="none" /><path transform="matrix(1 0 0 -1 0 842)" d="M280.1337 640.3204L280.1337 646.3204" stroke="#0000FF" stroke-width="0.96" stroke-linecap="round" fill="none" /><path transform="matrix(1 0 0 -1 0 842)" d="M280.1337 652.3204L280.1337 658.3204" stroke="#0000FF" stroke-width="0.96" stroke-linecap="round" fill="none" /><path transform="matrix(1 0 0 -1 0 842)" d="M280.1337 664.3204L280.1337 670.3204" stroke="#0000FF" stroke-width="0.96" stroke-linecap="round" fill="none" /><path transform="matrix(1 0 0 -1 0 842)" d="M280.1337 676.3204L280.1337 682.3204" stroke="#0000FF" stroke-width="0.96" stroke-linecap="round" fill="none" /><path transform="matrix(1 0 0 -1 0 842)" d="M280.1337 688.3204L280.1337 694.3204" stroke="#0000FF" stroke-width="0.96" stroke-linecap="round" fill="none" /></g><g clip-path="url(#19)"></g><g clip-path="url(#20)"><path transform="matrix(1 0 0 -1 0 842)" d="M306.5338 520.3204L306.5338 526.3204" stroke="#0000FF" stroke-width="0.96" stroke-linecap="round" fill="none" /><path transform="matrix(1 0 0 -1 0 842)" d="M306.5338 532.3204L306.5338 538.3204" stroke="#0000FF" stroke-width="0.96" stroke-linecap="round" fill="none" /><path transform="matrix(1 0 0 -1 0 842)" d="M306.5338 544.3204L306.5338 550.3204" stroke="#0000FF" stroke-width="0.96" stroke-linecap="round" fill="none" /><path transform="matrix(1 0 0 -1 0 842)" d="M306.5338 556.3204L306.5338 562.3204" stroke="#0000FF" stroke-width="0.96" stroke-linecap="round" fill="none" /><path transform="matrix(1 0 0 -1 0 842)" d="M306.5338 568.3204L306.5338 574.3204" stroke="#0000FF" stroke-width="0.96" stroke-linecap="round" fill="none" /><path transform="matrix(1 0 0 -1 0 842)" d="M306.5338 580.3204L306.5338 586.3204" stroke="#0000FF" stroke-width="0.96" stroke-linecap="round" fill="none" /><path transform="matrix(1 0 0 -1 0 842)" d="M306.5338 592.3204L306.5338 598.3204" stroke="#0000FF" stroke-width="0.96" stroke-linecap="round" fill="none" /><path transform="matrix(1 0 0 -1 0 842)" d="M306.5338 604.3204L306.5338 610.3204" stroke="#0000FF" stroke-width="0.96" stroke-linecap="round" fill="none" /><path transform="matrix(1 0 0 -1 0 842)" d="M306.5338 616.3204L306.5338 622.3204" stroke="#0000FF" stroke-width="0.96" stroke-linecap="round" fill="none" /><path transform="matrix(1 0 0 -1 0 842)" d="M306.5338 628.3204L306.5338 634.3204" stroke="#0000FF" stroke-width="0.96" stroke-linecap="round" fill="none" /><path transform="matrix(1 0 0 -1 0 842)" d="M306.5338 640.3204L306.5338 646.3204" stroke="#0000FF" stroke-width="0.96" stroke-linecap="round" fill="none" /><path transform="matrix(1 0 0 -1 0 842)" d="M306.5338 652.3204L306.5338 658.3204" stroke="#0000FF" stroke-width="0.96" stroke-linecap="round" fill="none" /><path transform="matrix(1 0 0 -1 0 842)" d="M306.5338 664.3204L306.5338 670.3204" stroke="#0000FF" stroke-width="0.96" stroke-linecap="round" fill="none" /><path transform="matrix(1 0 0 -1 0 842)" d="M306.5338 676.3204L306.5338 682.3204" stroke="#0000FF" stroke-width="0.96" stroke-linecap="round" fill="none" /><path transform="matrix(1 0 0 -1 0 842)" d="M306.5338 688.3204L306.5338 694.3204" stroke="#0000FF" stroke-width="0.96" stroke-linecap="round" fill="none" /></g><g clip-path="url(#21)"></g><g clip-path="url(#22)"><path transform="matrix(1 0 0 -1 0 842)" d="M332.9337 520.3204L332.9337 526.3204" stroke="#0000FF" stroke-width="0.96" stroke-linecap="round" fill="none" /><path transform="matrix(1 0 0 -1 0 842)" d="M332.9337 532.3204L332.9337 538.3204" stroke="#0000FF" stroke-width="0.96" stroke-linecap="round" fill="none" /><path transform="matrix(1 0 0 -1 0 842)" d="M332.9337 544.3204L332.9337 550.3204" stroke="#0000FF" stroke-width="0.96" stroke-linecap="round" fill="none" /><path transform="matrix(1 0 0 -1 0 842)" d="M332.9337 556.3204L332.9337 562.3204" stroke="#0000FF" stroke-width="0.96" stroke-linecap="round" fill="none" /><path transform="matrix(1 0 0 -1 0 842)" d="M332.9337 568.3204L332.9337 574.3204" stroke="#0000FF" stroke-width="0.96" stroke-linecap="round" fill="none" /><path transform="matrix(1 0 0 -1 0 842)" d="M332.9337 580.3204L332.9337 586.3204" stroke="#0000FF" stroke-width="0.96" stroke-linecap="round" fill="none" /><path transform="matrix(1 0 0 -1 0 842)" d="M332.9337 592.3204L332.9337 598.3204" stroke="#0000FF" stroke-width="0.96" stroke-linecap="round" fill="none" /><path transform="matrix(1 0 0 -1 0 842)" d="M332.9337 604.3204L332.9337 610.3204" stroke="#0000FF" stroke-width="0.96" stroke-linecap="round" fill="none" /><path transform="matrix(1 0 0 -1 0 842)" d="M332.9337 616.3204L332.9337 622.3204" stroke="#0000FF" stroke-width="0.96" stroke-linecap="round" fill="none" /><path transform="matrix(1 0 0 -1 0 842)" d="M332.9337 628.3204L332.9337 634.3204" stroke="#0000FF" stroke-width="0.96" stroke-linecap="round" fill="none" /><path transform="matrix(1 0 0 -1 0 842)" d="M332.9337 640.3204L332.9337 646.3204" stroke="#0000FF" stroke-width="0.96" stroke-linecap="round" fill="none" /><path transform="matrix(1 0 0 -1 0 842)" d="M332.9337 652.3204L332.9337 658.3204" stroke="#0000FF" stroke-width="0.96" stroke-linecap="round" fill="none" /><path transform="matrix(1 0 0 -1 0 842)" d="M332.9337 664.3204L332.9337 670.3204" stroke="#0000FF" stroke-width="0.96" stroke-linecap="round" fill="none" /><path transform="matrix(1 0 0 -1 0 842)" d="M332.9337 676.3204L332.9337 682.3204" stroke="#0000FF" stroke-width="0.96" stroke-linecap="round" fill="none" /><path transform="matrix(1 0 0 -1 0 842)" d="M332.9337 688.3204L332.9337 694.3204" stroke="#0000FF" stroke-width="0.96" stroke-linecap="round" fill="none" /></g><g clip-path="url(#23)"></g><g clip-path="url(#24)"><path transform="matrix(1 0 0 -1 0 842)" d="M359.3337 520.3204L359.3337 526.3204" stroke="#0000FF" stroke-width="0.96" stroke-linecap="round" fill="none" /><path transform="matrix(1 0 0 -1 0 842)" d="M359.3337 532.3204L359.3337 538.3204" stroke="#0000FF" stroke-width="0.96" stroke-linecap="round" fill="none" /><path transform="matrix(1 0 0 -1 0 842)" d="M359.3337 544.3204L359.3337 550.3204" stroke="#0000FF" stroke-width="0.96" stroke-linecap="round" fill="none" /><path transform="matrix(1 0 0 -1 0 842)" d="M359.3337 556.3204L359.3337 562.3204" stroke="#0000FF" stroke-width="0.96" stroke-linecap="round" fill="none" /><path transform="matrix(1 0 0 -1 0 842)" d="M359.3337 568.3204L359.3337 574.3204" stroke="#0000FF" stroke-width="0.96" stroke-linecap="round" fill="none" /><path transform="matrix(1 0 0 -1 0 842)" d="M359.3337 580.3204L359.3337 586.3204" stroke="#0000FF" stroke-width="0.96" stroke-linecap="round" fill="none" /><path transform="matrix(1 0 0 -1 0 842)" d="M359.3337 592.3204L359.3337 598.3204" stroke="#0000FF" stroke-width="0.96" stroke-linecap="round" fill="none" /><path transform="matrix(1 0 0 -1 0 842)" d="M359.3337 604.3204L359.3337 610.3204" stroke="#0000FF" stroke-width="0.96" stroke-linecap="round" fill="none" /><path transform="matrix(1 0 0 -1 0 842)" d="M359.3337 616.3204L359.3337 622.3204" stroke="#0000FF" stroke-width="0.96" stroke-linecap="round" fill="none" /><path transform="matrix(1 0 0 -1 0 842)" d="M359.3337 628.3204L359.3337 634.3204" stroke="#0000FF" stroke-width="0.96" stroke-linecap="round" fill="none" /><path transform="matrix(1 0 0 -1 0 842)" d="M359.3337 640.3204L359.3337 646.3204" stroke="#0000FF" stroke-width="0.96" stroke-linecap="round" fill="none" /><path transform="matrix(1 0 0 -1 0 842)" d="M359.3337 652.3204L359.3337 658.3204" stroke="#0000FF" stroke-width="0.96" stroke-linecap="round" fill="none" /><path transform="matrix(1 0 0 -1 0 842)" d="M359.3337 664.3204L359.3337 670.3204" stroke="#0000FF" stroke-width="0.96" stroke-linecap="round" fill="none" /><path transform="matrix(1 0 0 -1 0 842)" d="M359.3337 676.3204L359.3337 682.3204" stroke="#0000FF" stroke-width="0.96" stroke-linecap="round" fill="none" /><path transform="matrix(1 0 0 -1 0 842)" d="M359.3337 688.3204L359.3337 694.3204" stroke="#0000FF" stroke-width="0.96" stroke-linecap="round" fill="none" /></g><g clip-path="url(#25)"></g><g clip-path="url(#26)"><path transform="matrix(1 0 0 -1 0 842)" d="M95.2428 520.338L359.3536 520.338" stroke="#0000FF" stroke-width="0.96" stroke-linecap="round" fill="none" /><path transform="matrix(1 0 0 -1 0 842)" d="M359.3536 520.338L359.3536 680.2878" stroke="#0000FF" stroke-width="0.96" stroke-linecap="round" fill="none" /></g><g clip-path="url(#27)"></g><g clip-path="url(#28)"></g><g clip-path="url(#29)"></g><g clip-path="url(#30)"></g><g clip-path="url(#31)"></g><g clip-path="url(#32)"><path transform="matrix(1 0 0 -1 0 842)" d="M59 469.3066L59.4 469.3066L59.4 469.3066L59.4 375.7065L59.4 375.7065L59 375.7065z" stroke="none" fill="#808080" fill-rule="winding" /><path transform="matrix(1 0 0 -1 0 842)" d="M59 469.3066L62.75 469.3066L62.75 469.3066L62.75 468.9063L62.75 468.9063L59 468.9063z" stroke="none" fill="#808080" fill-rule="winding" /><path transform="matrix(1 0 0 -1 0 842)" d="M59 375.7065L59.4 375.7065L59.4 375.7065L59.4 356.627L59.4 356.627L59 356.627z" stroke="none" fill="#808080" fill-rule="winding" /><path transform="matrix(1 0 0 -1 0 842)" d="M59 375.7065L61.8125 375.7065L61.8125 375.7065L61.8125 375.3066L61.8125 375.3066L59 375.3066z" stroke="none" fill="#808080" fill-rule="winding" /><path transform="matrix(1 0 0 -1 0 842)" d="M59 357.0259L62.75 357.0259L62.75 357.0259L62.75 356.626L62.75 356.626L59 356.626z" stroke="none" fill="#808080" fill-rule="winding" /></g><g clip-path="url(#33)"></g><g clip-path="url(#34)"></g><g clip-path="url(#35)"></g><g clip-path="url(#36)"><path transform="matrix(1 0 0 -1 0 842)" d="M59.39685 323.6792L690.5032 323.6792L690.5032 323.6792L690.5032 298.3037L690.5032 298.3037L59.39685 298.3037z" stroke="none" fill="#FFFF99" fill-rule="winding" /><path transform="matrix(1 0 0 -1 0 842)" d="M59 324.0767L59.39685 324.0767L59.39685 324.0767L59.39685 297.9072L59.39685 297.9072L59 297.9072z" stroke="none" fill="#C0C0C0" fill-rule="winding" /><path transform="matrix(1 0 0 -1 0 842)" d="M59.39685 324.0767L690.9 324.0767L690.9 324.0767L690.9 323.6802L690.9 323.6802L59.39685 323.6802z" stroke="none" fill="#C0C0C0" fill-rule="winding" /><path transform="matrix(1 0 0 -1 0 842)" d="M690.5032 323.6792L690.9 323.6792L690.9 323.6792L690.9 298.3037L690.9 298.3037L690.5032 298.3037z" stroke="none" fill="#808080" fill-rule="winding" /><path transform="matrix(1 0 0 -1 0 842)" d="M59.39685 298.3047L690.9 298.3047L690.9 298.3047L690.9 297.9082L690.9 297.9082L59.39685 297.9082z" stroke="none" fill="#808080" fill-rule="winding" /><path transform="matrix(1 0 0 -1 0 842)" d="M59 253.104L59.39685 253.104L59.39685 253.104L59.39685 30.80469L59.39685 30.80469L59 30.80469z" stroke="none" fill="#808080" fill-rule="winding" /><path transform="matrix(1 0 0 -1 0 842)" d="M59 253.104L62.75 253.104L62.75 253.104L62.75 252.7075L62.75 252.7075L59 252.7075z" stroke="none" fill="#808080" fill-rule="winding" /><path transform="matrix(1 0 0 -1 0 842)" d="M59 31.20215L62.75 31.20215L62.75 31.20215L62.75 30.80566L62.75 30.80566L59 30.80566z" stroke="none" fill="#808080" fill-rule="winding" /></g></g></g></g></svg>