<svg xmlns="http://www.w3.org/2000/svg" xmlns:xlink="http://www.w3.org/1999/xlink" id="body_3" preserveAspectRatio="xMinYMin meet" viewBox="0 0 793 1123"><defs><clipPath id="1"><path d="M0 842L0 0L0 0L595 0L595 0L595 842L595 842L0 842z" /></clipPath><clipPath id="2"><path d="M56 56L539.3 56L539.3 56L539.3 783.14L539.3 783.14L56 783.14L56 783.14L56 56z" /></clipPath><clipPath id="3"><path d="M56 56L539.3 56L539.3 56L539.3 783.14L539.3 783.14L56 783.14L56 783.14L56 56z" /></clipPath><clipPath id="4"><path d="M56 56.021L539.3 56.021L539.3 56.021L539.3 783.161L539.3 783.161L56 783.161L56 783.161L56 56.021z" /></clipPath><clipPath id="5"><path d="M56 56L539.3 56L539.3 56L539.3 783.14L539.3 783.14L56 783.14L56 783.14L56 56z" /></clipPath><clipPath id="6"><path d="M56 56.021L539.3 56.021L539.3 56.021L539.3 783.161L539.3 783.161L56 783.161L56 783.161L56 56.021z" /></clipPath><clipPath id="7"><path d="M56 56L539.3 56L539.3 56L539.3 783.14L539.3 783.14L56 783.14L56 783.14L56 56z" /></clipPath><clipPath id="8"><path d="M56 56.021L539.3 56.021L539.3 56.021L539.3 783.161L539.3 783.161L56 783.161L56 783.161L56 56.021z" /></clipPath><clipPath id="9"><path d="M56 56L539.3 56L539.3 56L539.3 783.14L539.3 783.14L56 783.14L56 783.14L56 56z" /></clipPath><clipPath id="10"><path d="M56 56.021L539.3 56.021L539.3 56.021L539.3 783.161L539.3 783.161L56 783.161L56 783.161L56 56.021z" /></clipPath><clipPath id="11"><path d="M56 56L539.3 56L539.3 56L539.3 783.14L539.3 783.14L56 783.14L56 783.14L56 56z" /></clipPath><clipPath id="12"><path d="M56 56.021L539.3 56.021L539.3 56.021L539.3 783.161L539.3 783.161L56 783.161L56 783.161L56 56.021z" /></clipPath><clipPath id="13"><path d="M56 56L539.3 56L539.3 56L539.3 783.14L539.3 783.14L56 783.14L56 783.14L56 56z" /></clipPath><clipPath id="14"><path d="M56 56.021L539.3 56.021L539.3 56.021L539.3 783.161L539.3 783.161L56 783.161L56 783.161L56 56.021z" /></clipPath><clipPath id="15"><path d="M56 56L539.3 56L539.3 56L539.3 783.14L539.3 783.14L56 783.14L56 783.14L56 56z" /></clipPath><clipPath id="16"><path d="M56 56.021L539.3 56.021L539.3 56.021L539.3 783.161L539.3 783.161L56 783.161L56 783.161L56 56.021z" /></clipPath><clipPath id="17"><path d="M56 56L539.3 56L539.3 56L539.3 783.14L539.3 783.14L56 783.14L56 783.14L56 56z" /></clipPath><clipPath id="18"><path d="M56 56.021L539.3 56.021L539.3 56.021L539.3 783.161L539.3 783.161L56 783.161L56 783.161L56 56.021z" /></clipPath><clipPath id="19"><path d="M56 56L539.3 56L539.3 56L539.3 783.14L539.3 783.14L56 783.14L56 783.14L56 56z" /></clipPath><clipPath id="20"><path d="M56 56.021L539.3 56.021L539.3 56.021L539.3 783.161L539.3 783.161L56 783.161L56 783.161L56 56.021z" /></clipPath><clipPath id="21"><path d="M56 56L539.3 56L539.3 56L539.3 783.14L539.3 783.14L56 783.14L56 783.14L56 56z" /></clipPath><clipPath id="22"><path d="M56 56.021L539.3 56.021L539.3 56.021L539.3 783.161L539.3 783.161L56 783.161L56 783.161L56 56.021z" /></clipPath><clipPath id="23"><path d="M56 56L539.3 56L539.3 56L539.3 783.14L539.3 783.14L56 783.14L56 783.14L56 56z" /></clipPath><clipPath id="24"><path d="M56 56.021L539.3 56.021L539.3 56.021L539.3 783.161L539.3 783.161L56 783.161L56 783.161L56 56.021z" /></clipPath><clipPath id="25"><path d="M56 56L539.3 56L539.3 56L539.3 783.14L539.3 783.14L56 783.14L56 783.14L56 56z" /></clipPath><clipPath id="26"><path d="M56 56.021L539.3 56.021L539.3 56.021L539.3 783.161L539.3 783.161L56 783.161L56 783.161L56 56.021z" /></clipPath><clipPath id="27"><path d="M56 56L539.3 56L539.3 56L539.3 783.14L539.3 783.14L56 783.14L56 783.14L56 56z" /></clipPath><clipPath id="28"><path d="M56 56.021L539.3 56.021L539.3 56.021L539.3 783.161L539.3 783.161L56 783.161L56 783.161L56 56.021z" /></clipPath><clipPath id="29"><path d="M56 56L539.3 56L539.3 56L539.3 783.14L539.3 783.14L56 783.14L56 783.14L56 56z" /></clipPath><clipPath id="30"><path d="M56 56.021L539.3 56.021L539.3 56.021L539.3 783.161L539.3 783.161L56 783.161L56 783.161L56 56.021z" /></clipPath><clipPath id="31"><path d="M56 56L539.3 56L539.3 56L539.3 783.14L539.3 783.14L56 783.14L56 783.14L56 56z" /></clipPath><clipPath id="32"><path d="M56 56.021L539.3 56.021L539.3 56.021L539.3 783.161L539.3 783.161L56 783.161L56 783.161L56 56.021z" /></clipPath><clipPath id="33"><path d="M56 56L539.3 56L539.3 56L539.3 783.14L539.3 783.14L56 783.14L56 783.14L56 56z" /></clipPath><clipPath id="34"><path d="M56 56L539.3 56L539.3 56L539.3 783.14L539.3 783.14L56 783.14L56 783.14L56 56z" /></clipPath></defs><g transform="matrix(1.333333 0 0 1.333333 0 0)"><g><g clip-path="url(#1)"><g clip-path="url(#2)"></g><g clip-path="url(#3)"><path transform="matrix(1 0 0 -1 0 842)" d="M59 2219.799L536.3 2219.799L536.3 2219.799L536.3 -13116.44L536.3 -13116.44L59 -13116.44z" stroke="none" fill="#FFFFFF" fill-rule="winding" /><path transform="matrix(1 0 0 -1 0 842)" d="M59 1043.4L59.4 1043.4L59.4 1043.4L59.4 610.4999L59.4 610.4999L59 610.4999z" stroke="none" fill="#808080" fill-rule="winding" /><path transform="matrix(1 0 0 -1 0 842)" d="M59 1043.4L62.75 1043.4L62.75 1043.4L62.75 1043L62.75 1043L59 1043z" stroke="none" fill="#808080" fill-rule="winding" /><path transform="matrix(1 0 0 -1 0 842)" d="M59 610.4999L59.4 610.4999L59.4 610.4999L59.4 411.9598L59.4 411.9598L59 411.9598z" stroke="none" fill="#808080" fill-rule="winding" /><path transform="matrix(1 0 0 -1 0 842)" d="M59 610.4999L61.8125 610.4999L61.8125 610.4999L61.8125 610.0999L61.8125 610.0999L59 610.0999z" stroke="none" fill="#808080" fill-rule="winding" /><path transform="matrix(1 0 0 -1 0 842)" d="M59 412.3599L62.75 412.3599L62.75 412.3599L62.75 411.96L62.75 411.96L59 411.96z" stroke="none" fill="#808080" fill-rule="winding" /><g transform="matrix(0.4799682 0 0 0.4794226 65.09937 231.4996)"><g transform="matrix(1 0 0 1 0 0)"><image x="0" y="0" xlink:href="img_04.png" width="827" height="414" /></g></g></g><g clip-path="url(#4)"></g><g clip-path="url(#5)"></g><g clip-path="url(#6)"></g><g clip-path="url(#7)"></g><g clip-path="url(#8)"></g><g clip-path="url(#9)"></g><g clip-path="url(#10)"></g><g clip-path="url(#11)"></g><g clip-path="url(#12)"></g><g clip-path="url(#13)"></g><g clip-path="url(#14)"></g><g clip-path="url(#15)"></g><g clip-path="url(#16)"></g><g clip-path="url(#17)"></g><g clip-path="url(#18)"></g><g clip-path="url(#19)"></g><g clip-path="url(#20)"></g><g clip-path="url(#21)"></g><g clip-path="url(#22)"></g><g clip-path="url(#23)"></g><g clip-path="url(#24)"></g><g clip-path="url(#25)"></g><g clip-path="url(#26)"></g><g clip-path="url(#27)"></g><g clip-path="url(#28)"></g><g clip-path="url(#29)"></g><g clip-path="url(#30)"></g><g clip-path="url(#31)"></g><g clip-path="url(#32)"></g><g clip-path="url(#33)"></g><g clip-path="url(#34)"><path transform="matrix(1 0 0 -1 0 842)" d="M59 82.26001L59.4 82.26001L59.4 82.26001L59.4 -140.04L59.4 -140.04L59 -140.04z" stroke="none" fill="#808080" fill-rule="winding" /><path transform="matrix(1 0 0 -1 0 842)" d="M59 82.26001L62.75 82.26001L62.75 82.26001L62.75 81.85986L62.75 81.85986L59 81.85986z" stroke="none" fill="#808080" fill-rule="winding" /></g></g></g></g></svg>