<svg xmlns="http://www.w3.org/2000/svg" xmlns:xlink="http://www.w3.org/1999/xlink" id="body_23" preserveAspectRatio="xMinYMin meet" viewBox="0 0 793 1123"><defs><clipPath id="1"><path d="M0 842L0 0L0 0L595 0L595 0L595 842L595 842L0 842z" /></clipPath><clipPath id="2"><path d="M56 56L539.3 56L539.3 56L539.3 785.9L539.3 785.9L56 785.9L56 785.9L56 56z" /></clipPath><clipPath id="3"><path d="M56 56L539.3 56L539.3 56L539.3 785.9L539.3 785.9L56 785.9L56 785.9L56 56z" /></clipPath></defs><g transform="matrix(1.333333 0 0 1.333333 0 0)"><g><g clip-path="url(#1)"><g clip-path="url(#2)"></g><g clip-path="url(#3)"><path transform="matrix(1 0 0 -1 0 842)" d="M59 15702.74L536.3 15702.74L536.3 15702.74L536.3 366.4961L536.3 366.4961L59 366.4961z" stroke="none" fill="#FFFFFF" fill-rule="winding" /><path transform="matrix(1 0 0 -1 0 842)" d="M59 809.3984L59.39685 809.3984L59.39685 809.3984L59.39685 785.999L59.39685 785.999L59 785.999z" stroke="none" fill="#808080" fill-rule="winding" /><path transform="matrix(1 0 0 -1 0 842)" d="M59 809.3984L62.75 809.3984L62.75 809.3984L62.75 809.002L62.75 809.002L59 809.002z" stroke="none" fill="#808080" fill-rule="winding" /><path transform="matrix(1 0 0 -1 0 842)" d="M59 785.999L59.39685 785.999L59.39685 785.999L59.39685 521.3984L59.39685 521.3984L59 521.3984z" stroke="none" fill="#808080" fill-rule="winding" /><path transform="matrix(1 0 0 -1 0 842)" d="M59 785.999L61.8125 785.999L61.8125 785.999L61.8125 785.6025L61.8125 785.6025L59 785.6025z" stroke="none" fill="#808080" fill-rule="winding" /><path transform="matrix(1 0 0 -1 0 842)" d="M59 521.7959L62.75 521.7959L62.75 521.7959L62.75 521.3994L62.75 521.3994L59 521.3994z" stroke="none" fill="#808080" fill-rule="winding" /><g transform="matrix(0.4799025 0 0 0.4801905 65.09374 56.00104)"><g transform="matrix(1 0 0 1 0 0)"><image x="0" y="0" xlink:href="img_43.png" width="827" height="551" /></g></g></g></g></g></g></svg>