<svg xmlns="http://www.w3.org/2000/svg" xmlns:xlink="http://www.w3.org/1999/xlink" id="body_6" preserveAspectRatio="xMinYMin meet" viewBox="0 0 793 1123"><defs><clipPath id="1"><path d="M0 842L0 0L0 0L595 0L595 0L595 842L595 842L0 842z" /></clipPath><clipPath id="2"><path d="M56 56L539.3 56L539.3 56L539.3 659.6349L539.3 659.6349L56 659.6349L56 659.6349L56 56z" /></clipPath><clipPath id="3"><path d="M56 56L539.3 56L539.3 56L539.3 659.6349L539.3 659.6349L56 659.6349L56 659.6349L56 56z" /></clipPath><clipPath id="4"><path d="M56 55.99005L539.3 55.99005L539.3 55.99005L539.3 659.65L539.3 659.65L56 659.65L56 659.65L56 55.99005z" /></clipPath><clipPath id="5"><path d="M56 56L539.3 56L539.3 56L539.3 659.6349L539.3 659.6349L56 659.6349L56 659.6349L56 56z" /></clipPath><clipPath id="6"><path d="M56 55.99005L539.3 55.99005L539.3 55.99005L539.3 659.65L539.3 659.65L56 659.65L56 659.65L56 55.99005z" /></clipPath><clipPath id="7"><path d="M56 56L539.3 56L539.3 56L539.3 659.6349L539.3 659.6349L56 659.6349L56 659.6349L56 56z" /></clipPath><clipPath id="8"><path d="M56 56L539.3 56L539.3 56L539.3 659.6349L539.3 659.6349L56 659.6349L56 659.6349L56 56z" /></clipPath><clipPath id="9"><path d="M56 55.99005L539.3 55.99005L539.3 55.99005L539.3 659.65L539.3 659.65L56 659.65L56 659.65L56 55.99005z" /></clipPath><clipPath id="10"><path d="M56 56L539.3 56L539.3 56L539.3 659.6349L539.3 659.6349L56 659.6349L56 659.6349L56 56z" /></clipPath><clipPath id="11"><path d="M56 56L539.3 56L539.3 56L539.3 659.6349L539.3 659.6349L56 659.6349L56 659.6349L56 56z" /></clipPath><clipPath id="12"><path d="M56 55.99005L539.3 55.99005L539.3 55.99005L539.3 659.65L539.3 659.65L56 659.65L56 659.65L56 55.99005z" /></clipPath><clipPath id="13"><path d="M56 56L539.3 56L539.3 56L539.3 659.6349L539.3 659.6349L56 659.6349L56 659.6349L56 56z" /></clipPath><clipPath id="14"><path d="M56 56L539.3 56L539.3 56L539.3 659.6349L539.3 659.6349L56 659.6349L56 659.6349L56 56z" /></clipPath><clipPath id="15"><path d="M55.97375 56.00879L539.2737 56.00879L539.2737 56.00879L539.2737 659.6088L539.2737 659.6088L55.97375 659.6088L55.97375 659.6088L55.97375 56.00879z" /></clipPath><clipPath id="16"><path d="M55.97375 56.00879L539.2737 56.00879L539.2737 56.00879L539.2737 659.6088L539.2737 659.6088L55.97375 659.6088L55.97375 659.6088L55.97375 56.00879z" /></clipPath><clipPath id="17"><path d="M55.97375 56.00879L539.2737 56.00879L539.2737 56.00879L539.2737 659.6088L539.2737 659.6088L55.97375 659.6088L55.97375 659.6088L55.97375 56.00879z" /></clipPath><clipPath id="18"><path d="M55.97375 56.00879L539.2737 56.00879L539.2737 56.00879L539.2737 659.6088L539.2737 659.6088L55.97375 659.6088L55.97375 659.6088L55.97375 56.00879z" /></clipPath><clipPath id="19"><path d="M55.97375 56.00879L539.2737 56.00879L539.2737 56.00879L539.2737 659.6088L539.2737 659.6088L55.97375 659.6088L55.97375 659.6088L55.97375 56.00879z" /></clipPath><clipPath id="20"><path d="M55.97375 56.00879L539.2737 56.00879L539.2737 56.00879L539.2737 659.6088L539.2737 659.6088L55.97375 659.6088L55.97375 659.6088L55.97375 56.00879z" /></clipPath><clipPath id="21"><path d="M55.97375 56.00879L539.2737 56.00879L539.2737 56.00879L539.2737 659.6088L539.2737 659.6088L55.97375 659.6088L55.97375 659.6088L55.97375 56.00879z" /></clipPath><clipPath id="22"><path d="M55.97375 56.00879L539.2737 56.00879L539.2737 56.00879L539.2737 659.6088L539.2737 659.6088L55.97375 659.6088L55.97375 659.6088L55.97375 56.00879z" /></clipPath><clipPath id="23"><path d="M56 56L539.3 56L539.3 56L539.3 659.6349L539.3 659.6349L56 659.6349L56 659.6349L56 56z" /></clipPath></defs><g transform="matrix(1.333333 0 0 1.333333 0 0)"><g><g clip-path="url(#1)"><g clip-path="url(#2)"></g><g clip-path="url(#3)"><path transform="matrix(1 0 0 -1 0 842)" d="M59 4367.35L536.3 4367.35L536.3 4367.35L536.3 -10968.89L536.3 -10968.89L59 -10968.89z" stroke="none" fill="#FFFFFF" fill-rule="winding" /></g><g clip-path="url(#4)"></g><g clip-path="url(#5)"></g><g clip-path="url(#6)"></g><g clip-path="url(#7)"></g><g clip-path="url(#8)"></g><g clip-path="url(#9)"></g><g clip-path="url(#10)"></g><g clip-path="url(#11)"><path transform="matrix(1 0 0 -1 0 842)" d="M59 647.7766L59.39685 647.7766L59.39685 647.7766L59.39685 624.3767L59.39685 624.3767L59 624.3767z" stroke="none" fill="#808080" fill-rule="winding" /><path transform="matrix(1 0 0 -1 0 842)" d="M59 647.7766L62.75 647.7766L62.75 647.7766L62.75 647.3799L62.75 647.3799L59 647.3799z" stroke="none" fill="#808080" fill-rule="winding" /><path transform="matrix(1 0 0 -1 0 842)" d="M59 624.3767L59.39685 624.3767L59.39685 624.3767L59.39685 576.1367L59.39685 576.1367L59 576.1367z" stroke="none" fill="#808080" fill-rule="winding" /><path transform="matrix(1 0 0 -1 0 842)" d="M59 624.3767L61.8125 624.3767L61.8125 624.3767L61.8125 623.98L61.8125 623.98L59 623.98z" stroke="none" fill="#808080" fill-rule="winding" /><path transform="matrix(1 0 0 -1 0 842)" d="M59 576.5334L62.75 576.5334L62.75 576.5334L62.75 576.1367L62.75 576.1367L59 576.1367z" stroke="none" fill="#808080" fill-rule="winding" /></g><g clip-path="url(#12)"></g><g clip-path="url(#13)"></g><g clip-path="url(#14)"><path transform="matrix(1 0 0 -1 0 842)" d="M59 542.4507L59.39685 542.4507L59.39685 542.4507L59.39685 530.7507L59.39685 530.7507L59 530.7507z" stroke="none" fill="#808080" fill-rule="winding" /><path transform="matrix(1 0 0 -1 0 842)" d="M59 542.4507L62.75 542.4507L62.75 542.4507L62.75 542.054L62.75 542.054L59 542.054z" stroke="none" fill="#808080" fill-rule="winding" /><path transform="matrix(1 0 0 -1 0 842)" d="M59 530.7507L59.39685 530.7507L59.39685 530.7507L59.39685 303.9509L59.39685 303.9509L59 303.9509z" stroke="none" fill="#808080" fill-rule="winding" /><path transform="matrix(1 0 0 -1 0 842)" d="M59 530.7507L61.8125 530.7507L61.8125 530.7507L61.8125 530.354L61.8125 530.354L59 530.354z" stroke="none" fill="#808080" fill-rule="winding" /><path transform="matrix(1 0 0 -1 0 842)" d="M59 304.3474L62.75 304.3474L62.75 304.3474L62.75 303.9504L62.75 303.9504L59 303.9504z" stroke="none" fill="#808080" fill-rule="winding" /></g><g clip-path="url(#15)"><path transform="matrix(1 0 0 -1 0 842)" d="M65.09375 530.7512L405.2937 530.7512L405.2937 530.7512L405.2937 303.9512L405.2937 303.9512L65.09375 303.9512z" stroke="none" fill="#FFFFFF" fill-rule="winding" /><path transform="matrix(1 0 0 -1 0 842)" d="M65.09375 530.7512L405.2937 530.7512L405.2937 530.7512L405.2937 303.9512L405.2937 303.9512L65.09375 303.9512z" stroke="none" fill="#FFFFFF" fill-rule="winding" /></g><g clip-path="url(#16)"><path transform="matrix(1 0 0 -1 0 842)" d="M67.91375 527.9312L402.4738 527.9312L402.4738 527.9312L402.4738 306.7712L402.4738 306.7712L67.91375 306.7712z" stroke="none" fill="#FFFFFF" fill-rule="winding" /><path transform="matrix(1 0 0 -1 0 842)" d="M116.7538 440.0912L340.1938 440.0912" stroke="#000000" stroke-width="0.48" stroke-linecap="round" fill="none" /><path transform="matrix(1 0 0 -1 0 842)" d="M354.0537 440.0912L343.0138 442.4312L343.0138 442.4312L343.0138 437.7512L343.0138 437.7512L354.0537 440.0912z" stroke="none" fill="#000000" fill-rule="winding" /><path transform="matrix(1 0 0 -1 0 842)" d="M354.0537 440.0912L343.0137 442.4312" stroke="#000000" stroke-width="0.48" stroke-linecap="round" fill="none" /><path transform="matrix(1 0 0 -1 0 842)" d="M354.0537 440.0912L343.0137 437.7512" stroke="#000000" stroke-width="0.48" stroke-linecap="round" fill="none" /><path transform="matrix(1 0 0 -1 0 842)" d="M343.0137 442.4312L343.0137 437.7512" stroke="#000000" stroke-width="0.48" stroke-linecap="round" fill="none" /><path transform="matrix(1 0 0 -1 0 842)" d="M340.1938 440.0912L354.0537 440.0912" stroke="#000000" stroke-width="0.48" stroke-linecap="round" fill="none" /><path transform="matrix(1 0 0 -1 0 842)" d="M228.4737 313.1312L228.4737 511.2512" stroke="#000000" stroke-width="0.48" stroke-linecap="round" fill="none" /><path transform="matrix(1 0 0 -1 0 842)" d="M228.4737 525.1112L230.8137 514.0712L230.8137 514.0712L226.1337 514.0712L226.1337 514.0712L228.4737 525.1112z" stroke="none" fill="#000000" fill-rule="winding" /><path transform="matrix(1 0 0 -1 0 842)" d="M228.4737 525.1111L230.8138 514.0712" stroke="#000000" stroke-width="0.48" stroke-linecap="round" fill="none" /><path transform="matrix(1 0 0 -1 0 842)" d="M228.4737 525.1111L226.1337 514.0712" stroke="#000000" stroke-width="0.48" stroke-linecap="round" fill="none" /><path transform="matrix(1 0 0 -1 0 842)" d="M230.8138 514.0712L226.1337 514.0712" stroke="#000000" stroke-width="0.48" stroke-linecap="round" fill="none" /><path transform="matrix(1 0 0 -1 0 842)" d="M228.4737 511.2512L228.4737 525.1111" stroke="#000000" stroke-width="0.48" stroke-linecap="round" fill="none" /><path transform="matrix(1 0 0 -1 0 842)" d="M126.9538 437.2712L126.9538 442.9112" stroke="#000000" stroke-width="0.48" stroke-linecap="round" fill="none" /><path transform="matrix(1 0 0 -1 0 842)" d="M152.3337 437.2712L152.3337 442.9112" stroke="#000000" stroke-width="0.48" stroke-linecap="round" fill="none" /><path transform="matrix(1 0 0 -1 0 842)" d="M139.6137 438.7112L139.6137 441.4712" stroke="#000000" stroke-width="0.48" stroke-linecap="round" fill="none" /><path transform="matrix(1 0 0 -1 0 842)" d="M177.7137 437.2712L177.7137 442.9112" stroke="#000000" stroke-width="0.48" stroke-linecap="round" fill="none" /><path transform="matrix(1 0 0 -1 0 842)" d="M164.9937 438.7112L164.9937 441.4712" stroke="#000000" stroke-width="0.48" stroke-linecap="round" fill="none" /><path transform="matrix(1 0 0 -1 0 842)" d="M203.0938 437.2712L203.0938 442.9112" stroke="#000000" stroke-width="0.48" stroke-linecap="round" fill="none" /><path transform="matrix(1 0 0 -1 0 842)" d="M190.3737 438.7112L190.3737 441.4712" stroke="#000000" stroke-width="0.48" stroke-linecap="round" fill="none" /><path transform="matrix(1 0 0 -1 0 842)" d="M228.4737 437.2712L228.4737 442.9112" stroke="#000000" stroke-width="0.48" stroke-linecap="round" fill="none" /><path transform="matrix(1 0 0 -1 0 842)" d="M215.7538 438.7112L215.7538 441.4712" stroke="#000000" stroke-width="0.48" stroke-linecap="round" fill="none" /><path transform="matrix(1 0 0 -1 0 842)" d="M253.8537 437.2712L253.8537 442.9112" stroke="#000000" stroke-width="0.48" stroke-linecap="round" fill="none" /><path transform="matrix(1 0 0 -1 0 842)" d="M241.1937 438.7112L241.1937 441.4712" stroke="#000000" stroke-width="0.48" stroke-linecap="round" fill="none" /><path transform="matrix(1 0 0 -1 0 842)" d="M279.2338 437.2712L279.2338 442.9112" stroke="#000000" stroke-width="0.48" stroke-linecap="round" fill="none" /><path transform="matrix(1 0 0 -1 0 842)" d="M266.5737 438.7112L266.5737 441.4712" stroke="#000000" stroke-width="0.48" stroke-linecap="round" fill="none" /><path transform="matrix(1 0 0 -1 0 842)" d="M304.6137 437.2712L304.6137 442.9112" stroke="#000000" stroke-width="0.48" stroke-linecap="round" fill="none" /><path transform="matrix(1 0 0 -1 0 842)" d="M291.9537 438.7112L291.9537 441.4712" stroke="#000000" stroke-width="0.48" stroke-linecap="round" fill="none" /><path transform="matrix(1 0 0 -1 0 842)" d="M329.9937 437.2712L329.9937 442.9112" stroke="#000000" stroke-width="0.48" stroke-linecap="round" fill="none" /><path transform="matrix(1 0 0 -1 0 842)" d="M317.3337 438.7112L317.3337 441.4712" stroke="#000000" stroke-width="0.48" stroke-linecap="round" fill="none" /><path transform="matrix(1 0 0 -1 0 842)" d="M231.2937 313.151L225.6537 313.151" stroke="#000000" stroke-width="0.48" stroke-linecap="round" fill="none" /><path transform="matrix(1 0 0 -1 0 842)" d="M231.2937 338.5341L225.6537 338.5341" stroke="#000000" stroke-width="0.48" stroke-linecap="round" fill="none" /><path transform="matrix(1 0 0 -1 0 842)" d="M229.8537 325.8425L227.0938 325.8425" stroke="#000000" stroke-width="0.48" stroke-linecap="round" fill="none" /><path transform="matrix(1 0 0 -1 0 842)" d="M231.2937 363.9171L225.6537 363.9171" stroke="#000000" stroke-width="0.48" stroke-linecap="round" fill="none" /><path transform="matrix(1 0 0 -1 0 842)" d="M229.8537 351.2256L227.0938 351.2256" stroke="#000000" stroke-width="0.48" stroke-linecap="round" fill="none" /><path transform="matrix(1 0 0 -1 0 842)" d="M231.2937 389.3002L225.6537 389.3002" stroke="#000000" stroke-width="0.48" stroke-linecap="round" fill="none" /><path transform="matrix(1 0 0 -1 0 842)" d="M229.8537 376.6086L227.0938 376.6086" stroke="#000000" stroke-width="0.48" stroke-linecap="round" fill="none" /><path transform="matrix(1 0 0 -1 0 842)" d="M231.2937 414.6832L225.6537 414.6832" stroke="#000000" stroke-width="0.48" stroke-linecap="round" fill="none" /><path transform="matrix(1 0 0 -1 0 842)" d="M229.8537 401.9917L227.0938 401.9917" stroke="#000000" stroke-width="0.48" stroke-linecap="round" fill="none" /><path transform="matrix(1 0 0 -1 0 842)" d="M231.2937 440.0663L225.6537 440.0663" stroke="#000000" stroke-width="0.48" stroke-linecap="round" fill="none" /><path transform="matrix(1 0 0 -1 0 842)" d="M229.8537 427.3748L227.0938 427.3748" stroke="#000000" stroke-width="0.48" stroke-linecap="round" fill="none" /><path transform="matrix(1 0 0 -1 0 842)" d="M231.2937 465.4494L225.6537 465.4494" stroke="#000000" stroke-width="0.48" stroke-linecap="round" fill="none" /><path transform="matrix(1 0 0 -1 0 842)" d="M229.8537 452.7578L227.0938 452.7578" stroke="#000000" stroke-width="0.48" stroke-linecap="round" fill="none" /><path transform="matrix(1 0 0 -1 0 842)" d="M231.2937 490.8324L225.6537 490.8324" stroke="#000000" stroke-width="0.48" stroke-linecap="round" fill="none" /><path transform="matrix(1 0 0 -1 0 842)" d="M229.8537 478.1409L227.0938 478.1409" stroke="#000000" stroke-width="0.48" stroke-linecap="round" fill="none" /><path transform="matrix(1 0 0 -1 0 842)" d="M229.8537 503.524L227.0938 503.524" stroke="#000000" stroke-width="0.48" stroke-linecap="round" fill="none" /></g><g clip-path="url(#17)"><path transform="matrix(1 0 0 -1 0 842)" d="M228.4737 440.0663L248.3018 441.1054" stroke="#0000FF" stroke-width="0.96" stroke-linecap="round" fill="none" /><path transform="matrix(1 0 0 -1 0 842)" d="M248.3018 441.1054L267.4805 444.1658" stroke="#0000FF" stroke-width="0.96" stroke-linecap="round" fill="none" /><path transform="matrix(1 0 0 -1 0 842)" d="M267.4805 444.1658L285.3865 449.0798" stroke="#0000FF" stroke-width="0.96" stroke-linecap="round" fill="none" /><path transform="matrix(1 0 0 -1 0 842)" d="M285.3865 449.0798L301.4474 455.5763" stroke="#0000FF" stroke-width="0.96" stroke-linecap="round" fill="none" /><path transform="matrix(1 0 0 -1 0 842)" d="M301.4474 455.5763L315.1643 463.2934" stroke="#0000FF" stroke-width="0.96" stroke-linecap="round" fill="none" /><path transform="matrix(1 0 0 -1 0 842)" d="M315.1643 463.2934L326.1316 471.7951" stroke="#0000FF" stroke-width="0.96" stroke-linecap="round" fill="none" /><path transform="matrix(1 0 0 -1 0 842)" d="M326.1316 471.7951L334.0523 480.5914" stroke="#0000FF" stroke-width="0.96" stroke-linecap="round" fill="none" /><path transform="matrix(1 0 0 -1 0 842)" d="M334.0523 480.5914L338.7495 489.1609" stroke="#0000FF" stroke-width="0.96" stroke-linecap="round" fill="none" /><path transform="matrix(1 0 0 -1 0 842)" d="M338.7495 489.1609L340.1714 496.9753" stroke="#0000FF" stroke-width="0.96" stroke-linecap="round" fill="none" /><path transform="matrix(1 0 0 -1 0 842)" d="M340.1714 496.9753L338.393 503.524" stroke="#0000FF" stroke-width="0.96" stroke-linecap="round" fill="none" /><path transform="matrix(1 0 0 -1 0 842)" d="M338.393 503.524L333.6105 508.3383" stroke="#0000FF" stroke-width="0.96" stroke-linecap="round" fill="none" /><path transform="matrix(1 0 0 -1 0 842)" d="M333.6105 508.3383L326.1316 511.0141" stroke="#0000FF" stroke-width="0.96" stroke-linecap="round" fill="none" /><path transform="matrix(1 0 0 -1 0 842)" d="M326.1316 511.0141L316.3612 511.2314" stroke="#0000FF" stroke-width="0.96" stroke-linecap="round" fill="none" /><path transform="matrix(1 0 0 -1 0 842)" d="M316.3612 511.2314L304.7825 508.7704" stroke="#0000FF" stroke-width="0.96" stroke-linecap="round" fill="none" /><path transform="matrix(1 0 0 -1 0 842)" d="M304.7825 508.7704L291.9357 503.524" stroke="#0000FF" stroke-width="0.96" stroke-linecap="round" fill="none" /><path transform="matrix(1 0 0 -1 0 842)" d="M291.9357 503.524L278.3936 495.5041" stroke="#0000FF" stroke-width="0.96" stroke-linecap="round" fill="none" /><path transform="matrix(1 0 0 -1 0 842)" d="M278.3936 495.5041L264.7366 484.8442" stroke="#0000FF" stroke-width="0.96" stroke-linecap="round" fill="none" /><path transform="matrix(1 0 0 -1 0 842)" d="M264.7366 484.8442L251.5276 471.7951" stroke="#0000FF" stroke-width="0.96" stroke-linecap="round" fill="none" /><path transform="matrix(1 0 0 -1 0 842)" d="M251.5276 471.7951L239.2877 456.7172" stroke="#0000FF" stroke-width="0.96" stroke-linecap="round" fill="none" /><path transform="matrix(1 0 0 -1 0 842)" d="M239.2877 456.7172L228.4737 440.0663" stroke="#0000FF" stroke-width="0.96" stroke-linecap="round" fill="none" /><path transform="matrix(1 0 0 -1 0 842)" d="M228.4737 440.0663L219.4596 422.3763" stroke="#0000FF" stroke-width="0.96" stroke-linecap="round" fill="none" /><path transform="matrix(1 0 0 -1 0 842)" d="M219.4596 422.3763L212.5209 404.238" stroke="#0000FF" stroke-width="0.96" stroke-linecap="round" fill="none" /><path transform="matrix(1 0 0 -1 0 842)" d="M212.5209 404.238L207.8238 386.2749" stroke="#0000FF" stroke-width="0.96" stroke-linecap="round" fill="none" /><path transform="matrix(1 0 0 -1 0 842)" d="M207.8238 386.2749L205.4198 369.1185" stroke="#0000FF" stroke-width="0.96" stroke-linecap="round" fill="none" /><path transform="matrix(1 0 0 -1 0 842)" d="M205.4198 369.1185L205.2451 353.3815" stroke="#0000FF" stroke-width="0.96" stroke-linecap="round" fill="none" /><path transform="matrix(1 0 0 -1 0 842)" d="M205.2451 353.3815L207.1246 339.6334" stroke="#0000FF" stroke-width="0.96" stroke-linecap="round" fill="none" /><path transform="matrix(1 0 0 -1 0 842)" d="M207.1246 339.6334L210.7826 328.3762" stroke="#0000FF" stroke-width="0.96" stroke-linecap="round" fill="none" /><path transform="matrix(1 0 0 -1 0 842)" d="M210.7826 328.3762L215.8559 320.0239" stroke="#0000FF" stroke-width="0.96" stroke-linecap="round" fill="none" /><path transform="matrix(1 0 0 -1 0 842)" d="M215.8559 320.0239L221.9128 314.8853" stroke="#0000FF" stroke-width="0.96" stroke-linecap="round" fill="none" /><path transform="matrix(1 0 0 -1 0 842)" d="M221.9128 314.8853L228.4737 313.151" stroke="#0000FF" stroke-width="0.96" stroke-linecap="round" fill="none" /><path transform="matrix(1 0 0 -1 0 842)" d="M228.4737 313.151L235.0347 314.8853" stroke="#0000FF" stroke-width="0.96" stroke-linecap="round" fill="none" /><path transform="matrix(1 0 0 -1 0 842)" d="M235.0347 314.8853L241.0916 320.0239" stroke="#0000FF" stroke-width="0.96" stroke-linecap="round" fill="none" /><path transform="matrix(1 0 0 -1 0 842)" d="M241.0916 320.0239L246.1649 328.3762" stroke="#0000FF" stroke-width="0.96" stroke-linecap="round" fill="none" /><path transform="matrix(1 0 0 -1 0 842)" d="M246.1649 328.3762L249.8229 339.6334" stroke="#0000FF" stroke-width="0.96" stroke-linecap="round" fill="none" /><path transform="matrix(1 0 0 -1 0 842)" d="M249.8229 339.6334L251.7024 353.3815" stroke="#0000FF" stroke-width="0.96" stroke-linecap="round" fill="none" /><path transform="matrix(1 0 0 -1 0 842)" d="M251.7024 353.3815L251.5276 369.1185" stroke="#0000FF" stroke-width="0.96" stroke-linecap="round" fill="none" /><path transform="matrix(1 0 0 -1 0 842)" d="M251.5276 369.1185L249.1237 386.2749" stroke="#0000FF" stroke-width="0.96" stroke-linecap="round" fill="none" /><path transform="matrix(1 0 0 -1 0 842)" d="M249.1237 386.2749L244.4266 404.238" stroke="#0000FF" stroke-width="0.96" stroke-linecap="round" fill="none" /><path transform="matrix(1 0 0 -1 0 842)" d="M244.4266 404.238L237.4879 422.3763" stroke="#0000FF" stroke-width="0.96" stroke-linecap="round" fill="none" /><path transform="matrix(1 0 0 -1 0 842)" d="M237.4879 422.3763L228.4737 440.0663" stroke="#0000FF" stroke-width="0.96" stroke-linecap="round" fill="none" /><path transform="matrix(1 0 0 -1 0 842)" d="M228.4737 440.0663L217.6598 456.7172" stroke="#0000FF" stroke-width="0.96" stroke-linecap="round" fill="none" /><path transform="matrix(1 0 0 -1 0 842)" d="M217.6598 456.7172L205.4198 471.7951" stroke="#0000FF" stroke-width="0.96" stroke-linecap="round" fill="none" /><path transform="matrix(1 0 0 -1 0 842)" d="M205.4198 471.7951L192.2109 484.8442" stroke="#0000FF" stroke-width="0.96" stroke-linecap="round" fill="none" /><path transform="matrix(1 0 0 -1 0 842)" d="M192.2109 484.8442L178.554 495.5041" stroke="#0000FF" stroke-width="0.96" stroke-linecap="round" fill="none" /><path transform="matrix(1 0 0 -1 0 842)" d="M178.554 495.5041L165.0118 503.524" stroke="#0000FF" stroke-width="0.96" stroke-linecap="round" fill="none" /><path transform="matrix(1 0 0 -1 0 842)" d="M165.0118 503.524L152.165 508.7704" stroke="#0000FF" stroke-width="0.96" stroke-linecap="round" fill="none" /><path transform="matrix(1 0 0 -1 0 842)" d="M152.165 508.7704L140.5863 511.2314" stroke="#0000FF" stroke-width="0.96" stroke-linecap="round" fill="none" /><path transform="matrix(1 0 0 -1 0 842)" d="M140.5863 511.2314L130.8159 511.0141" stroke="#0000FF" stroke-width="0.96" stroke-linecap="round" fill="none" /><path transform="matrix(1 0 0 -1 0 842)" d="M130.8159 511.0141L123.337 508.3383" stroke="#0000FF" stroke-width="0.96" stroke-linecap="round" fill="none" /><path transform="matrix(1 0 0 -1 0 842)" d="M123.337 508.3383L118.5545 503.524" stroke="#0000FF" stroke-width="0.96" stroke-linecap="round" fill="none" /><path transform="matrix(1 0 0 -1 0 842)" d="M118.5545 503.524L116.7761 496.9753" stroke="#0000FF" stroke-width="0.96" stroke-linecap="round" fill="none" /><path transform="matrix(1 0 0 -1 0 842)" d="M116.7761 496.9753L118.1981 489.1609" stroke="#0000FF" stroke-width="0.96" stroke-linecap="round" fill="none" /><path transform="matrix(1 0 0 -1 0 842)" d="M118.1981 489.1609L122.8951 480.5914" stroke="#0000FF" stroke-width="0.96" stroke-linecap="round" fill="none" /><path transform="matrix(1 0 0 -1 0 842)" d="M122.8951 480.5914L130.8159 471.7951" stroke="#0000FF" stroke-width="0.96" stroke-linecap="round" fill="none" /><path transform="matrix(1 0 0 -1 0 842)" d="M130.8159 471.7951L141.7831 463.2934" stroke="#0000FF" stroke-width="0.96" stroke-linecap="round" fill="none" /><path transform="matrix(1 0 0 -1 0 842)" d="M141.7831 463.2934L155.5001 455.5763" stroke="#0000FF" stroke-width="0.96" stroke-linecap="round" fill="none" /><path transform="matrix(1 0 0 -1 0 842)" d="M155.5001 455.5763L171.5609 449.0798" stroke="#0000FF" stroke-width="0.96" stroke-linecap="round" fill="none" /><path transform="matrix(1 0 0 -1 0 842)" d="M171.5609 449.0798L189.467 444.1658" stroke="#0000FF" stroke-width="0.96" stroke-linecap="round" fill="none" /><path transform="matrix(1 0 0 -1 0 842)" d="M189.467 444.1658L208.6457 441.1054" stroke="#0000FF" stroke-width="0.96" stroke-linecap="round" fill="none" /><path transform="matrix(1 0 0 -1 0 842)" d="M208.6457 441.1054L228.4737 440.0663" stroke="#0000FF" stroke-width="0.96" stroke-linecap="round" fill="none" /><path transform="matrix(1 0 0 -1 0 842)" d="M228.4737 440.0663L248.3018 441.1054" stroke="#0000FF" stroke-width="0.96" stroke-linecap="round" fill="none" /><path transform="matrix(1 0 0 -1 0 842)" d="M248.3018 441.1054L267.4805 444.1658" stroke="#0000FF" stroke-width="0.96" stroke-linecap="round" fill="none" /><path transform="matrix(1 0 0 -1 0 842)" d="M267.4805 444.1658L285.3865 449.0798" stroke="#0000FF" stroke-width="0.96" stroke-linecap="round" fill="none" /><path transform="matrix(1 0 0 -1 0 842)" d="M285.3865 449.0798L301.4474 455.5763" stroke="#0000FF" stroke-width="0.96" stroke-linecap="round" fill="none" /><path transform="matrix(1 0 0 -1 0 842)" d="M301.4474 455.5763L315.1643 463.2934" stroke="#0000FF" stroke-width="0.96" stroke-linecap="round" fill="none" /><path transform="matrix(1 0 0 -1 0 842)" d="M315.1643 463.2934L326.1316 471.7951" stroke="#0000FF" stroke-width="0.96" stroke-linecap="round" fill="none" /><path transform="matrix(1 0 0 -1 0 842)" d="M326.1316 471.7951L334.0523 480.5914" stroke="#0000FF" stroke-width="0.96" stroke-linecap="round" fill="none" /><path transform="matrix(1 0 0 -1 0 842)" d="M334.0523 480.5914L338.7495 489.1609" stroke="#0000FF" stroke-width="0.96" stroke-linecap="round" fill="none" /><path transform="matrix(1 0 0 -1 0 842)" d="M338.7495 489.1609L340.1714 496.9753" stroke="#0000FF" stroke-width="0.96" stroke-linecap="round" fill="none" /><path transform="matrix(1 0 0 -1 0 842)" d="M340.1714 496.9753L338.393 503.524" stroke="#0000FF" stroke-width="0.96" stroke-linecap="round" fill="none" /><path transform="matrix(1 0 0 -1 0 842)" d="M338.393 503.524L333.6105 508.3383" stroke="#0000FF" stroke-width="0.96" stroke-linecap="round" fill="none" /><path transform="matrix(1 0 0 -1 0 842)" d="M333.6105 508.3383L326.1316 511.0141" stroke="#0000FF" stroke-width="0.96" stroke-linecap="round" fill="none" /><path transform="matrix(1 0 0 -1 0 842)" d="M326.1316 511.0141L316.3612 511.2314" stroke="#0000FF" stroke-width="0.96" stroke-linecap="round" fill="none" /><path transform="matrix(1 0 0 -1 0 842)" d="M316.3612 511.2314L304.7825 508.7704" stroke="#0000FF" stroke-width="0.96" stroke-linecap="round" fill="none" /><path transform="matrix(1 0 0 -1 0 842)" d="M304.7825 508.7704L291.9357 503.524" stroke="#0000FF" stroke-width="0.96" stroke-linecap="round" fill="none" /><path transform="matrix(1 0 0 -1 0 842)" d="M291.9357 503.524L278.3936 495.5041" stroke="#0000FF" stroke-width="0.96" stroke-linecap="round" fill="none" /><path transform="matrix(1 0 0 -1 0 842)" d="M278.3936 495.5041L264.7366 484.8442" stroke="#0000FF" stroke-width="0.96" stroke-linecap="round" fill="none" /><path transform="matrix(1 0 0 -1 0 842)" d="M264.7366 484.8442L251.5276 471.7951" stroke="#0000FF" stroke-width="0.96" stroke-linecap="round" fill="none" /><path transform="matrix(1 0 0 -1 0 842)" d="M251.5276 471.7951L239.2877 456.7172" stroke="#0000FF" stroke-width="0.96" stroke-linecap="round" fill="none" /><path transform="matrix(1 0 0 -1 0 842)" d="M239.2877 456.7172L228.4737 440.0663" stroke="#0000FF" stroke-width="0.96" stroke-linecap="round" fill="none" /><path transform="matrix(1 0 0 -1 0 842)" d="M228.4737 440.0663L219.4596 422.3763" stroke="#0000FF" stroke-width="0.96" stroke-linecap="round" fill="none" /><path transform="matrix(1 0 0 -1 0 842)" d="M219.4596 422.3763L212.5209 404.238" stroke="#0000FF" stroke-width="0.96" stroke-linecap="round" fill="none" /><path transform="matrix(1 0 0 -1 0 842)" d="M212.5209 404.238L207.8238 386.2749" stroke="#0000FF" stroke-width="0.96" stroke-linecap="round" fill="none" /><path transform="matrix(1 0 0 -1 0 842)" d="M207.8238 386.2749L205.4198 369.1185" stroke="#0000FF" stroke-width="0.96" stroke-linecap="round" fill="none" /><path transform="matrix(1 0 0 -1 0 842)" d="M205.4198 369.1185L205.2451 353.3815" stroke="#0000FF" stroke-width="0.96" stroke-linecap="round" fill="none" /><path transform="matrix(1 0 0 -1 0 842)" d="M205.2451 353.3815L207.1246 339.6334" stroke="#0000FF" stroke-width="0.96" stroke-linecap="round" fill="none" /><path transform="matrix(1 0 0 -1 0 842)" d="M207.1246 339.6334L210.7826 328.3762" stroke="#0000FF" stroke-width="0.96" stroke-linecap="round" fill="none" /><path transform="matrix(1 0 0 -1 0 842)" d="M210.7826 328.3762L215.8559 320.0239" stroke="#0000FF" stroke-width="0.96" stroke-linecap="round" fill="none" /><path transform="matrix(1 0 0 -1 0 842)" d="M215.8559 320.0239L221.9128 314.8853" stroke="#0000FF" stroke-width="0.96" stroke-linecap="round" fill="none" /><path transform="matrix(1 0 0 -1 0 842)" d="M221.9128 314.8853L228.4737 313.151" stroke="#0000FF" stroke-width="0.96" stroke-linecap="round" fill="none" /><path transform="matrix(1 0 0 -1 0 842)" d="M228.4737 313.151L235.0347 314.8853" stroke="#0000FF" stroke-width="0.96" stroke-linecap="round" fill="none" /><path transform="matrix(1 0 0 -1 0 842)" d="M235.0347 314.8853L241.0916 320.0239" stroke="#0000FF" stroke-width="0.96" stroke-linecap="round" fill="none" /><path transform="matrix(1 0 0 -1 0 842)" d="M241.0916 320.0239L246.1649 328.3762" stroke="#0000FF" stroke-width="0.96" stroke-linecap="round" fill="none" /><path transform="matrix(1 0 0 -1 0 842)" d="M246.1649 328.3762L249.8229 339.6334" stroke="#0000FF" stroke-width="0.96" stroke-linecap="round" fill="none" /><path transform="matrix(1 0 0 -1 0 842)" d="M249.8229 339.6334L251.7024 353.3815" stroke="#0000FF" stroke-width="0.96" stroke-linecap="round" fill="none" /><path transform="matrix(1 0 0 -1 0 842)" d="M251.7024 353.3815L251.5276 369.1185" stroke="#0000FF" stroke-width="0.96" stroke-linecap="round" fill="none" /><path transform="matrix(1 0 0 -1 0 842)" d="M251.5276 369.1185L249.1237 386.2749" stroke="#0000FF" stroke-width="0.96" stroke-linecap="round" fill="none" /><path transform="matrix(1 0 0 -1 0 842)" d="M249.1237 386.2749L244.4266 404.238" stroke="#0000FF" stroke-width="0.96" stroke-linecap="round" fill="none" /><path transform="matrix(1 0 0 -1 0 842)" d="M244.4266 404.238L237.4879 422.3763" stroke="#0000FF" stroke-width="0.96" stroke-linecap="round" fill="none" /><path transform="matrix(1 0 0 -1 0 842)" d="M237.4879 422.3763L228.4737 440.0663" stroke="#0000FF" stroke-width="0.96" stroke-linecap="round" fill="none" /><path transform="matrix(1 0 0 -1 0 842)" d="M228.4737 440.0663L217.6598 456.7172" stroke="#0000FF" stroke-width="0.96" stroke-linecap="round" fill="none" /><path transform="matrix(1 0 0 -1 0 842)" d="M217.6598 456.7172L205.4198 471.7951" stroke="#0000FF" stroke-width="0.96" stroke-linecap="round" fill="none" /><path transform="matrix(1 0 0 -1 0 842)" d="M205.4198 471.7951L192.2109 484.8442" stroke="#0000FF" stroke-width="0.96" stroke-linecap="round" fill="none" /><path transform="matrix(1 0 0 -1 0 842)" d="M192.2109 484.8442L178.554 495.5041" stroke="#0000FF" stroke-width="0.96" stroke-linecap="round" fill="none" /><path transform="matrix(1 0 0 -1 0 842)" d="M178.554 495.5041L165.0118 503.524" stroke="#0000FF" stroke-width="0.96" stroke-linecap="round" fill="none" /><path transform="matrix(1 0 0 -1 0 842)" d="M165.0118 503.524L152.165 508.7704" stroke="#0000FF" stroke-width="0.96" stroke-linecap="round" fill="none" /><path transform="matrix(1 0 0 -1 0 842)" d="M152.165 508.7704L140.5863 511.2314" stroke="#0000FF" stroke-width="0.96" stroke-linecap="round" fill="none" /><path transform="matrix(1 0 0 -1 0 842)" d="M140.5863 511.2314L130.8159 511.0141" stroke="#0000FF" stroke-width="0.96" stroke-linecap="round" fill="none" /><path transform="matrix(1 0 0 -1 0 842)" d="M130.8159 511.0141L123.337 508.3383" stroke="#0000FF" stroke-width="0.96" stroke-linecap="round" fill="none" /><path transform="matrix(1 0 0 -1 0 842)" d="M123.337 508.3383L118.5545 503.524" stroke="#0000FF" stroke-width="0.96" stroke-linecap="round" fill="none" /><path transform="matrix(1 0 0 -1 0 842)" d="M118.5545 503.524L116.7761 496.9753" stroke="#0000FF" stroke-width="0.96" stroke-linecap="round" fill="none" /><path transform="matrix(1 0 0 -1 0 842)" d="M116.7761 496.9753L118.1981 489.1609" stroke="#0000FF" stroke-width="0.96" stroke-linecap="round" fill="none" /><path transform="matrix(1 0 0 -1 0 842)" d="M118.1981 489.1609L122.8951 480.5914" stroke="#0000FF" stroke-width="0.96" stroke-linecap="round" fill="none" /><path transform="matrix(1 0 0 -1 0 842)" d="M122.8951 480.5914L130.8159 471.7951" stroke="#0000FF" stroke-width="0.96" stroke-linecap="round" fill="none" /><path transform="matrix(1 0 0 -1 0 842)" d="M130.8159 471.7951L141.7831 463.2934" stroke="#0000FF" stroke-width="0.96" stroke-linecap="round" fill="none" /><path transform="matrix(1 0 0 -1 0 842)" d="M141.7831 463.2934L155.5001 455.5763" stroke="#0000FF" stroke-width="0.96" stroke-linecap="round" fill="none" /><path transform="matrix(1 0 0 -1 0 842)" d="M155.5001 455.5763L171.5609 449.0798" stroke="#0000FF" stroke-width="0.96" stroke-linecap="round" fill="none" /><path transform="matrix(1 0 0 -1 0 842)" d="M171.5609 449.0798L189.467 444.1658" stroke="#0000FF" stroke-width="0.96" stroke-linecap="round" fill="none" /><path transform="matrix(1 0 0 -1 0 842)" d="M189.467 444.1658L208.6457 441.1054" stroke="#0000FF" stroke-width="0.96" stroke-linecap="round" fill="none" /><path transform="matrix(1 0 0 -1 0 842)" d="M208.6457 441.1054L228.4737 440.0663" stroke="#0000FF" stroke-width="0.96" stroke-linecap="round" fill="none" /></g><g clip-path="url(#18)"></g><g clip-path="url(#19)"></g><g clip-path="url(#20)"></g><g clip-path="url(#21)"></g><g clip-path="url(#22)"></g><g clip-path="url(#23)"><path transform="matrix(1 0 0 -1 0 842)" d="M59 242.3047L59.39685 242.3047L59.39685 242.3047L59.39685 182.3647L59.39685 182.3647L59 182.3647z" stroke="none" fill="#808080" fill-rule="winding" /><path transform="matrix(1 0 0 -1 0 842)" d="M59 242.3047L62.75 242.3047L62.75 242.3047L62.75 241.9077L62.75 241.9077L59 241.9077z" stroke="none" fill="#808080" fill-rule="winding" /><path transform="matrix(1 0 0 -1 0 842)" d="M59 182.3647L59.39685 182.3647L59.39685 182.3647L59.39685 -101.1353L59.39685 -101.1353L59 -101.1353z" stroke="none" fill="#808080" fill-rule="winding" /><path transform="matrix(1 0 0 -1 0 842)" d="M59 182.3647L61.8125 182.3647L61.8125 182.3647L61.8125 181.9678L61.8125 181.9678L59 181.9678z" stroke="none" fill="#808080" fill-rule="winding" /><path transform="matrix(1 0 0 -1 0 842)" d="M59 -100.7383L62.75 -100.7383L62.75 -100.7383L62.75 -101.1353L62.75 -101.1353L59 -101.1353z" stroke="none" fill="#808080" fill-rule="winding" /></g></g></g></g></svg>