<svg xmlns="http://www.w3.org/2000/svg" xmlns:xlink="http://www.w3.org/1999/xlink" id="body_15" preserveAspectRatio="xMinYMin meet" viewBox="0 0 793 1123"><defs><clipPath id="1"><path d="M0 842L0 0L0 0L595 0L595 0L595 842L595 842L0 842z" /></clipPath><clipPath id="2"><path d="M56 56L539.3 56L539.3 56L539.3 755.7549L539.3 755.7549L56 755.7549L56 755.7549L56 56z" /></clipPath><clipPath id="3"><path d="M56 56L539.3 56L539.3 56L539.3 755.7549L539.3 755.7549L56 755.7549L56 755.7549L56 56z" /></clipPath><clipPath id="4"><path d="M56 56L539.3 56L539.3 56L539.3 755.7549L539.3 755.7549L56 755.7549L56 755.7549L56 56z" /></clipPath><clipPath id="5"><path d="M56 55.99426L539.3 55.99426L539.3 55.99426L539.3 755.7742L539.3 755.7742L56 755.7742L56 755.7742L56 55.99426z" /></clipPath><clipPath id="6"><path d="M56 56L539.3 56L539.3 56L539.3 755.7549L539.3 755.7549L56 755.7549L56 755.7549L56 56z" /></clipPath><clipPath id="7"><path d="M56 55.99426L539.3 55.99426L539.3 55.99426L539.3 755.7742L539.3 755.7742L56 755.7742L56 755.7742L56 55.99426z" /></clipPath><clipPath id="8"><path d="M56 56L539.3 56L539.3 56L539.3 755.7549L539.3 755.7549L56 755.7549L56 755.7549L56 56z" /></clipPath><clipPath id="9"><path d="M56 55.99426L539.3 55.99426L539.3 55.99426L539.3 755.7742L539.3 755.7742L56 755.7742L56 755.7742L56 55.99426z" /></clipPath><clipPath id="10"><path d="M56 56L539.3 56L539.3 56L539.3 755.7549L539.3 755.7549L56 755.7549L56 755.7549L56 56z" /></clipPath><clipPath id="11"><path d="M56 55.99426L539.3 55.99426L539.3 55.99426L539.3 755.7742L539.3 755.7742L56 755.7742L56 755.7742L56 55.99426z" /></clipPath><clipPath id="12"><path d="M56 56L539.3 56L539.3 56L539.3 755.7549L539.3 755.7549L56 755.7549L56 755.7549L56 56z" /></clipPath><clipPath id="13"><path d="M56 55.99426L539.3 55.99426L539.3 55.99426L539.3 755.7742L539.3 755.7742L56 755.7742L56 755.7742L56 55.99426z" /></clipPath><clipPath id="14"><path d="M56 56L539.3 56L539.3 56L539.3 755.7549L539.3 755.7549L56 755.7549L56 755.7549L56 56z" /></clipPath><clipPath id="15"><path d="M56 55.99426L539.3 55.99426L539.3 55.99426L539.3 755.7742L539.3 755.7742L56 755.7742L56 755.7742L56 55.99426z" /></clipPath><clipPath id="16"><path d="M56 56L539.3 56L539.3 56L539.3 755.7549L539.3 755.7549L56 755.7549L56 755.7549L56 56z" /></clipPath><clipPath id="17"><path d="M56 55.99426L539.3 55.99426L539.3 55.99426L539.3 755.7742L539.3 755.7742L56 755.7742L56 755.7742L56 55.99426z" /></clipPath><clipPath id="18"><path d="M56 56L539.3 56L539.3 56L539.3 755.7549L539.3 755.7549L56 755.7549L56 755.7549L56 56z" /></clipPath><clipPath id="19"><path d="M56 55.99426L539.3 55.99426L539.3 55.99426L539.3 755.7742L539.3 755.7742L56 755.7742L56 755.7742L56 55.99426z" /></clipPath><clipPath id="20"><path d="M56 56L539.3 56L539.3 56L539.3 755.7549L539.3 755.7549L56 755.7549L56 755.7549L56 56z" /></clipPath><clipPath id="21"><path d="M56 55.99426L539.3 55.99426L539.3 55.99426L539.3 755.7742L539.3 755.7742L56 755.7742L56 755.7742L56 55.99426z" /></clipPath><clipPath id="22"><path d="M56 56L539.3 56L539.3 56L539.3 755.7549L539.3 755.7549L56 755.7549L56 755.7549L56 56z" /></clipPath><clipPath id="23"><path d="M56 55.99426L539.3 55.99426L539.3 55.99426L539.3 755.7742L539.3 755.7742L56 755.7742L56 755.7742L56 55.99426z" /></clipPath><clipPath id="24"><path d="M56 56L539.3 56L539.3 56L539.3 755.7549L539.3 755.7549L56 755.7549L56 755.7549L56 56z" /></clipPath><clipPath id="25"><path d="M56 55.99426L539.3 55.99426L539.3 55.99426L539.3 755.7742L539.3 755.7742L56 755.7742L56 755.7742L56 55.99426z" /></clipPath><clipPath id="26"><path d="M56 56L539.3 56L539.3 56L539.3 755.7549L539.3 755.7549L56 755.7549L56 755.7549L56 56z" /></clipPath><clipPath id="27"><path d="M56 55.99426L539.3 55.99426L539.3 55.99426L539.3 755.7742L539.3 755.7742L56 755.7742L56 755.7742L56 55.99426z" /></clipPath><clipPath id="28"><path d="M56 56L539.3 56L539.3 56L539.3 755.7549L539.3 755.7549L56 755.7549L56 755.7549L56 56z" /></clipPath><clipPath id="29"><path d="M56 55.99426L539.3 55.99426L539.3 55.99426L539.3 755.7742L539.3 755.7742L56 755.7742L56 755.7742L56 55.99426z" /></clipPath><clipPath id="30"><path d="M56 56L539.3 56L539.3 56L539.3 755.7549L539.3 755.7549L56 755.7549L56 755.7549L56 56z" /></clipPath><clipPath id="31"><path d="M56 55.99426L539.3 55.99426L539.3 55.99426L539.3 755.7742L539.3 755.7742L56 755.7742L56 755.7742L56 55.99426z" /></clipPath><clipPath id="32"><path d="M56 56L539.3 56L539.3 56L539.3 755.7549L539.3 755.7549L56 755.7549L56 755.7549L56 56z" /></clipPath><clipPath id="33"><path d="M56 55.99426L539.3 55.99426L539.3 55.99426L539.3 755.7742L539.3 755.7742L56 755.7742L56 755.7742L56 55.99426z" /></clipPath><clipPath id="34"><path d="M56 56L539.3 56L539.3 56L539.3 755.7549L539.3 755.7549L56 755.7549L56 755.7549L56 56z" /></clipPath><clipPath id="35"><path d="M56 55.99426L539.3 55.99426L539.3 55.99426L539.3 755.7742L539.3 755.7742L56 755.7742L56 755.7742L56 55.99426z" /></clipPath><clipPath id="36"><path d="M56 56L539.3 56L539.3 56L539.3 755.7549L539.3 755.7549L56 755.7549L56 755.7549L56 56z" /></clipPath><clipPath id="37"><path d="M56 56L539.3 56L539.3 56L539.3 755.7549L539.3 755.7549L56 755.7549L56 755.7549L56 56z" /></clipPath></defs><g transform="matrix(1.333333 0 0 1.333333 0 0)"><g><g clip-path="url(#1)"><g clip-path="url(#2)"></g><g clip-path="url(#3)"><path transform="matrix(1 0 0 -1 0 842)" d="M59 10511.88L536.3 10511.88L536.3 10511.88L536.3 -4824.355L536.3 -4824.355L59 -4824.355z" stroke="none" fill="#FFFFFF" fill-rule="winding" /><path transform="matrix(1 0 0 -1 0 842)" d="M59 844.499L59.39685 844.499L59.39685 844.499L59.39685 680.6992L59.39685 680.6992L59 680.6992z" stroke="none" fill="#808080" fill-rule="winding" /><path transform="matrix(1 0 0 -1 0 842)" d="M59 844.499L62.75 844.499L62.75 844.499L62.75 844.1025L62.75 844.1025L59 844.1025z" stroke="none" fill="#808080" fill-rule="winding" /><path transform="matrix(1 0 0 -1 0 842)" d="M59 681.0957L62.75 681.0957L62.75 681.0957L62.75 680.6992L62.75 680.6992L59 680.6992z" stroke="none" fill="#808080" fill-rule="winding" /><g transform="matrix(0.4805084 0 0 0.4802823 58.99999 164.1631)"><g transform="matrix(1 0 0 1 0 0)"><image x="0" y="0" xlink:href="img_23.png" width="354" height="425" /></g></g><g transform="matrix(0.4805084 0 0 0.4802823 229.1 164.1631)"><g transform="matrix(1 0 0 1 0 0)"><image x="0" y="0" xlink:href="img_24.png" width="354" height="425" /></g></g></g><g clip-path="url(#4)"><path transform="matrix(1 0 0 -1 0 842)" d="M59.39685 403.1797L690.5032 403.1797L690.5032 403.1797L690.5032 377.8047L690.5032 377.8047L59.39685 377.8047z" stroke="none" fill="#FFFF99" fill-rule="winding" /><path transform="matrix(1 0 0 -1 0 842)" d="M59 403.5762L59.39685 403.5762L59.39685 403.5762L59.39685 377.4072L59.39685 377.4072L59 377.4072z" stroke="none" fill="#C0C0C0" fill-rule="winding" /><path transform="matrix(1 0 0 -1 0 842)" d="M59.39685 403.5762L690.9 403.5762L690.9 403.5762L690.9 403.1797L690.9 403.1797L59.39685 403.1797z" stroke="none" fill="#C0C0C0" fill-rule="winding" /><path transform="matrix(1 0 0 -1 0 842)" d="M690.5032 403.1797L690.9 403.1797L690.9 403.1797L690.9 377.8047L690.9 377.8047L690.5032 377.8047z" stroke="none" fill="#808080" fill-rule="winding" /><path transform="matrix(1 0 0 -1 0 842)" d="M59.39685 377.8047L690.9 377.8047L690.9 377.8047L690.9 377.4082L690.9 377.4082L59.39685 377.4082z" stroke="none" fill="#808080" fill-rule="winding" /></g><g clip-path="url(#5)"></g><g clip-path="url(#6)"></g><g clip-path="url(#7)"></g><g clip-path="url(#8)"></g><g clip-path="url(#9)"></g><g clip-path="url(#10)"></g><g clip-path="url(#11)"></g><g clip-path="url(#12)"></g><g clip-path="url(#13)"></g><g clip-path="url(#14)"></g><g clip-path="url(#15)"></g><g clip-path="url(#16)"></g><g clip-path="url(#17)"></g><g clip-path="url(#18)"></g><g clip-path="url(#19)"></g><g clip-path="url(#20)"></g><g clip-path="url(#21)"></g><g clip-path="url(#22)"></g><g clip-path="url(#23)"></g><g clip-path="url(#24)"></g><g clip-path="url(#25)"></g><g clip-path="url(#26)"></g><g clip-path="url(#27)"></g><g clip-path="url(#28)"></g><g clip-path="url(#29)"></g><g clip-path="url(#30)"></g><g clip-path="url(#31)"></g><g clip-path="url(#32)"></g><g clip-path="url(#33)"></g><g clip-path="url(#34)"></g><g clip-path="url(#35)"></g><g clip-path="url(#36)"></g><g clip-path="url(#37)"><path transform="matrix(1 0 0 -1 0 842)" d="M59 203.2451L59.39685 203.2451L59.39685 203.2451L59.39685 86.24512L59.39685 86.24512L59 86.24512z" stroke="none" fill="#808080" fill-rule="winding" /><path transform="matrix(1 0 0 -1 0 842)" d="M59 203.2451L62.75 203.2451L62.75 203.2451L62.75 202.8477L62.75 202.8477L59 202.8477z" stroke="none" fill="#808080" fill-rule="winding" /><path transform="matrix(1 0 0 -1 0 842)" d="M59 86.24512L59.39685 86.24512L59.39685 86.24512L59.39685 -114.5752L59.39685 -114.5752L59 -114.5752z" stroke="none" fill="#808080" fill-rule="winding" /><path transform="matrix(1 0 0 -1 0 842)" d="M59 86.24512L61.8125 86.24512L61.8125 86.24512L61.8125 85.84766L61.8125 85.84766L59 85.84766z" stroke="none" fill="#808080" fill-rule="winding" /><path transform="matrix(1 0 0 -1 0 842)" d="M59 -114.1787L62.75 -114.1787L62.75 -114.1787L62.75 -114.5752L62.75 -114.5752L59 -114.5752z" stroke="none" fill="#808080" fill-rule="winding" /></g></g></g></g></svg>