<svg xmlns="http://www.w3.org/2000/svg" xmlns:xlink="http://www.w3.org/1999/xlink" id="body_14" preserveAspectRatio="xMinYMin meet" viewBox="0 0 793 1123"><defs><clipPath id="1"><path d="M0 842L0 0L0 0L595 0L595 0L595 842L595 842L0 842z" /></clipPath><clipPath id="2"><path d="M56 56L539.3 56L539.3 56L539.3 775.486L539.3 775.486L56 775.486L56 775.486L56 56z" /></clipPath><clipPath id="3"><path d="M56 56L539.3 56L539.3 56L539.3 775.486L539.3 775.486L56 775.486L56 775.486L56 56z" /></clipPath></defs><g transform="matrix(1.333333 0 0 1.333333 0 0)"><g><g clip-path="url(#1)"><g clip-path="url(#2)"></g><g clip-path="url(#3)"><path transform="matrix(1 0 0 -1 0 842)" d="M59 9792.399L536.3 9792.399L536.3 9792.399L536.3 -5543.841L536.3 -5543.841L59 -5543.841z" stroke="none" fill="#FFFFFF" fill-rule="winding" /><path transform="matrix(1 0 0 -1 0 842)" d="M59 891.2998L59.39685 891.2998L59.39685 891.2998L59.39685 423.2998L59.39685 423.2998L59 423.2998z" stroke="none" fill="#808080" fill-rule="winding" /><path transform="matrix(1 0 0 -1 0 842)" d="M59 891.2998L62.75 891.2998L62.75 891.2998L62.75 890.9033L62.75 890.9033L59 890.9033z" stroke="none" fill="#808080" fill-rule="winding" /><path transform="matrix(1 0 0 -1 0 842)" d="M59 423.2998L59.39685 423.2998L59.39685 423.2998L59.39685 158.7002L59.39685 158.7002L59 158.7002z" stroke="none" fill="#808080" fill-rule="winding" /><path transform="matrix(1 0 0 -1 0 842)" d="M59 423.2998L61.8125 423.2998L61.8125 423.2998L61.8125 422.9033L61.8125 422.9033L59 422.9033z" stroke="none" fill="#808080" fill-rule="winding" /><path transform="matrix(1 0 0 -1 0 842)" d="M59 159.0967L62.75 159.0967L62.75 159.0967L62.75 158.7002L62.75 158.7002L59 158.7002z" stroke="none" fill="#808080" fill-rule="winding" /><g transform="matrix(0.4799025 0 0 0.4801905 65.09374 418.7002)"><g transform="matrix(1 0 0 1 0 0)"><image x="0" y="0" xlink:href="img_21.png" width="827" height="551" /></g></g><path transform="matrix(1 0 0 -1 0 842)" d="M59 125.0137L59.39685 125.0137L59.39685 125.0137L59.39685 -38.78613L59.39685 -38.78613L59 -38.78613z" stroke="none" fill="#808080" fill-rule="winding" /><path transform="matrix(1 0 0 -1 0 842)" d="M59 125.0137L62.75 125.0137L62.75 125.0137L62.75 124.6172L62.75 124.6172L59 124.6172z" stroke="none" fill="#808080" fill-rule="winding" /><path transform="matrix(1 0 0 -1 0 842)" d="M59 -38.38965L62.75 -38.38965L62.75 -38.38965L62.75 -38.78613L62.75 -38.78613L59 -38.78613z" stroke="none" fill="#808080" fill-rule="winding" /></g></g></g></g></svg>