<svg xmlns="http://www.w3.org/2000/svg" xmlns:xlink="http://www.w3.org/1999/xlink" id="body_7" preserveAspectRatio="xMinYMin meet" viewBox="0 0 793 1123"><defs><clipPath id="1"><path d="M0 842L0 0L0 0L595 0L595 0L595 842L595 842L0 842z" /></clipPath><clipPath id="2"><path d="M56 56L539.3 56L539.3 56L539.3 658.7349L539.3 658.7349L56 658.7349L56 658.7349L56 56z" /></clipPath><clipPath id="3"><path d="M56 56L539.3 56L539.3 56L539.3 658.7349L539.3 658.7349L56 658.7349L56 658.7349L56 56z" /></clipPath><clipPath id="4"><path d="M55.97375 55.99915L539.2737 55.99915L539.2737 55.99915L539.2737 658.7592L539.2737 658.7592L55.97375 658.7592L55.97375 658.7592L55.97375 55.99915z" /></clipPath><clipPath id="5"><path d="M55.97375 55.99915L539.2737 55.99915L539.2737 55.99915L539.2737 658.7592L539.2737 658.7592L55.97375 658.7592L55.97375 658.7592L55.97375 55.99915z" /></clipPath><clipPath id="6"><path d="M55.97375 55.99915L539.2737 55.99915L539.2737 55.99915L539.2737 658.7592L539.2737 658.7592L55.97375 658.7592L55.97375 658.7592L55.97375 55.99915z" /></clipPath><clipPath id="7"><path d="M55.97375 55.99915L539.2737 55.99915L539.2737 55.99915L539.2737 658.7592L539.2737 658.7592L55.97375 658.7592L55.97375 658.7592L55.97375 55.99915z" /></clipPath><clipPath id="8"><path d="M55.97375 55.99915L539.2737 55.99915L539.2737 55.99915L539.2737 658.7592L539.2737 658.7592L55.97375 658.7592L55.97375 658.7592L55.97375 55.99915z" /></clipPath><clipPath id="9"><path d="M55.97375 55.99915L539.2737 55.99915L539.2737 55.99915L539.2737 658.7592L539.2737 658.7592L55.97375 658.7592L55.97375 658.7592L55.97375 55.99915z" /></clipPath><clipPath id="10"><path d="M55.97375 55.99915L539.2737 55.99915L539.2737 55.99915L539.2737 658.7592L539.2737 658.7592L55.97375 658.7592L55.97375 658.7592L55.97375 55.99915z" /></clipPath><clipPath id="11"><path d="M55.97375 55.99915L539.2737 55.99915L539.2737 55.99915L539.2737 658.7592L539.2737 658.7592L55.97375 658.7592L55.97375 658.7592L55.97375 55.99915z" /></clipPath><clipPath id="12"><path d="M55.97375 55.99915L539.2737 55.99915L539.2737 55.99915L539.2737 658.7592L539.2737 658.7592L55.97375 658.7592L55.97375 658.7592L55.97375 55.99915z" /></clipPath><clipPath id="13"><path d="M55.97375 55.99915L539.2737 55.99915L539.2737 55.99915L539.2737 658.7592L539.2737 658.7592L55.97375 658.7592L55.97375 658.7592L55.97375 55.99915z" /></clipPath><clipPath id="14"><path d="M56 56L539.3 56L539.3 56L539.3 658.7349L539.3 658.7349L56 658.7349L56 658.7349L56 56z" /></clipPath><clipPath id="15"><path d="M56 56L539.3 56L539.3 56L539.3 658.7349L539.3 658.7349L56 658.7349L56 658.7349L56 56z" /></clipPath></defs><g transform="matrix(1.333333 0 0 1.333333 0 0)"><g><g clip-path="url(#1)"><g clip-path="url(#2)"></g><g clip-path="url(#3)"><path transform="matrix(1 0 0 -1 0 842)" d="M59 4970.984L536.3 4970.984L536.3 4970.984L536.3 -10365.26L536.3 -10365.26L59 -10365.26z" stroke="none" fill="#FFFFFF" fill-rule="winding" /><path transform="matrix(1 0 0 -1 0 842)" d="M59 845.9395L59.39685 845.9395L59.39685 845.9395L59.39685 785.9995L59.39685 785.9995L59 785.9995z" stroke="none" fill="#808080" fill-rule="winding" /><path transform="matrix(1 0 0 -1 0 842)" d="M59 845.9395L62.75 845.9395L62.75 845.9395L62.75 845.5425L62.75 845.5425L59 845.5425z" stroke="none" fill="#808080" fill-rule="winding" /><path transform="matrix(1 0 0 -1 0 842)" d="M59 785.9995L59.39685 785.9995L59.39685 785.9995L59.39685 502.4995L59.39685 502.4995L59 502.4995z" stroke="none" fill="#808080" fill-rule="winding" /><path transform="matrix(1 0 0 -1 0 842)" d="M59 785.9995L61.8125 785.9995L61.8125 785.9995L61.8125 785.6025L61.8125 785.6025L59 785.6025z" stroke="none" fill="#808080" fill-rule="winding" /><path transform="matrix(1 0 0 -1 0 842)" d="M59 502.8965L62.75 502.8965L62.75 502.8965L62.75 502.4995L62.75 502.4995L59 502.4995z" stroke="none" fill="#808080" fill-rule="winding" /></g><g clip-path="url(#4)"><path transform="matrix(1 0 0 -1 0 842)" d="M65.09375 786.0008L490.3138 786.0008L490.3138 786.0008L490.3138 502.5008L490.3138 502.5008L65.09375 502.5008z" stroke="none" fill="#FFFFFF" fill-rule="winding" /><path transform="matrix(1 0 0 -1 0 842)" d="M65.09375 786.0008L490.3138 786.0008L490.3138 786.0008L490.3138 502.5608L490.3138 502.5608L65.09375 502.5608z" stroke="none" fill="#FFFFFF" fill-rule="winding" /></g><g clip-path="url(#5)"><path transform="matrix(1 0 0 -1 0 842)" d="M67.91375 783.1808L276.2938 783.1808L276.2938 783.1808L276.2938 505.3808L276.2938 505.3808L67.91375 505.3808z" stroke="none" fill="#FFFFFF" fill-rule="winding" /><path transform="matrix(1 0 0 -1 0 842)" d="M71.21375 662.5208L259.6137 662.5208" stroke="#000000" stroke-width="0.48" stroke-linecap="round" fill="none" /><path transform="matrix(1 0 0 -1 0 842)" d="M273.4738 662.5209L262.4337 664.8608L262.4337 664.8608L262.4337 660.1808L262.4337 660.1808L273.4738 662.5209z" stroke="none" fill="#000000" fill-rule="winding" /><path transform="matrix(1 0 0 -1 0 842)" d="M273.4738 662.5208L262.4337 664.8608" stroke="#000000" stroke-width="0.48" stroke-linecap="round" fill="none" /><path transform="matrix(1 0 0 -1 0 842)" d="M273.4738 662.5208L262.4337 660.1808" stroke="#000000" stroke-width="0.48" stroke-linecap="round" fill="none" /><path transform="matrix(1 0 0 -1 0 842)" d="M262.4337 664.8608L262.4337 660.1808" stroke="#000000" stroke-width="0.48" stroke-linecap="round" fill="none" /><path transform="matrix(1 0 0 -1 0 842)" d="M259.6137 662.5208L273.4738 662.5208" stroke="#000000" stroke-width="0.48" stroke-linecap="round" fill="none" /><path transform="matrix(1 0 0 -1 0 842)" d="M165.4134 555.4808L165.4134 722.7608" stroke="#000000" stroke-width="0.48" stroke-linecap="round" fill="none" /><path transform="matrix(1 0 0 -1 0 842)" d="M165.4134 736.6208L167.7534 725.5809L167.7534 725.5809L163.0734 725.5809L163.0734 725.5809L165.4134 736.6208z" stroke="none" fill="#000000" fill-rule="winding" /><path transform="matrix(1 0 0 -1 0 842)" d="M165.4134 736.6208L167.7534 725.5808" stroke="#000000" stroke-width="0.48" stroke-linecap="round" fill="none" /><path transform="matrix(1 0 0 -1 0 842)" d="M165.4134 736.6208L163.0734 725.5808" stroke="#000000" stroke-width="0.48" stroke-linecap="round" fill="none" /><path transform="matrix(1 0 0 -1 0 842)" d="M167.7534 725.5808L163.0734 725.5808" stroke="#000000" stroke-width="0.48" stroke-linecap="round" fill="none" /><path transform="matrix(1 0 0 -1 0 842)" d="M165.4134 722.7608L165.4134 736.6208" stroke="#000000" stroke-width="0.48" stroke-linecap="round" fill="none" /><path transform="matrix(1 0 0 -1 0 842)" d="M79.79375 659.7008L79.79375 665.3408" stroke="#000000" stroke-width="0.48" stroke-linecap="round" fill="none" /><path transform="matrix(1 0 0 -1 0 842)" d="M101.2137 659.7008L101.2137 665.3408" stroke="#000000" stroke-width="0.48" stroke-linecap="round" fill="none" /><path transform="matrix(1 0 0 -1 0 842)" d="M90.47375 661.1408L90.47375 663.9008" stroke="#000000" stroke-width="0.48" stroke-linecap="round" fill="none" /><path transform="matrix(1 0 0 -1 0 842)" d="M122.6337 659.7008L122.6337 665.3408" stroke="#000000" stroke-width="0.48" stroke-linecap="round" fill="none" /><path transform="matrix(1 0 0 -1 0 842)" d="M111.8938 661.1408L111.8938 663.9008" stroke="#000000" stroke-width="0.48" stroke-linecap="round" fill="none" /><path transform="matrix(1 0 0 -1 0 842)" d="M143.9937 659.7008L143.9937 665.3408" stroke="#000000" stroke-width="0.48" stroke-linecap="round" fill="none" /><path transform="matrix(1 0 0 -1 0 842)" d="M133.3138 661.1408L133.3138 663.9008" stroke="#000000" stroke-width="0.48" stroke-linecap="round" fill="none" /><path transform="matrix(1 0 0 -1 0 842)" d="M165.4138 659.7008L165.4138 665.3408" stroke="#000000" stroke-width="0.48" stroke-linecap="round" fill="none" /><path transform="matrix(1 0 0 -1 0 842)" d="M154.7337 661.1408L154.7337 663.9008" stroke="#000000" stroke-width="0.48" stroke-linecap="round" fill="none" /><path transform="matrix(1 0 0 -1 0 842)" d="M186.8337 659.7008L186.8337 665.3408" stroke="#000000" stroke-width="0.48" stroke-linecap="round" fill="none" /><path transform="matrix(1 0 0 -1 0 842)" d="M176.0938 661.1408L176.0938 663.9008" stroke="#000000" stroke-width="0.48" stroke-linecap="round" fill="none" /><path transform="matrix(1 0 0 -1 0 842)" d="M208.1937 659.7008L208.1937 665.3408" stroke="#000000" stroke-width="0.48" stroke-linecap="round" fill="none" /><path transform="matrix(1 0 0 -1 0 842)" d="M197.5137 661.1408L197.5137 663.9008" stroke="#000000" stroke-width="0.48" stroke-linecap="round" fill="none" /><path transform="matrix(1 0 0 -1 0 842)" d="M229.6137 659.7008L229.6137 665.3408" stroke="#000000" stroke-width="0.48" stroke-linecap="round" fill="none" /><path transform="matrix(1 0 0 -1 0 842)" d="M218.9337 661.1408L218.9337 663.9008" stroke="#000000" stroke-width="0.48" stroke-linecap="round" fill="none" /><path transform="matrix(1 0 0 -1 0 842)" d="M251.0338 659.7008L251.0338 665.3408" stroke="#000000" stroke-width="0.48" stroke-linecap="round" fill="none" /><path transform="matrix(1 0 0 -1 0 842)" d="M240.2937 661.1408L240.2937 663.9008" stroke="#000000" stroke-width="0.48" stroke-linecap="round" fill="none" /><path transform="matrix(1 0 0 -1 0 842)" d="M168.2334 555.4976L162.5934 555.4976" stroke="#000000" stroke-width="0.48" stroke-linecap="round" fill="none" /><path transform="matrix(1 0 0 -1 0 842)" d="M168.2334 609.0164L162.5934 609.0164" stroke="#000000" stroke-width="0.48" stroke-linecap="round" fill="none" /><path transform="matrix(1 0 0 -1 0 842)" d="M166.7934 582.257L164.0334 582.257" stroke="#000000" stroke-width="0.48" stroke-linecap="round" fill="none" /><path transform="matrix(1 0 0 -1 0 842)" d="M168.2334 662.5353L162.5934 662.5353" stroke="#000000" stroke-width="0.48" stroke-linecap="round" fill="none" /><path transform="matrix(1 0 0 -1 0 842)" d="M166.7934 635.7759L164.0334 635.7759" stroke="#000000" stroke-width="0.48" stroke-linecap="round" fill="none" /><path transform="matrix(1 0 0 -1 0 842)" d="M168.2334 716.0542L162.5934 716.0542" stroke="#000000" stroke-width="0.48" stroke-linecap="round" fill="none" /><path transform="matrix(1 0 0 -1 0 842)" d="M166.7934 689.2947L164.0334 689.2947" stroke="#000000" stroke-width="0.48" stroke-linecap="round" fill="none" /></g><g clip-path="url(#6)"><path transform="matrix(1 0 0 -1 0 842)" d="M165.4134 662.5353L171.9261 662.6676" stroke="#0000FF" stroke-width="0.96" stroke-linecap="round" fill="none" /><path transform="matrix(1 0 0 -1 0 842)" d="M171.9261 662.6676L178.4066 663.0633" stroke="#0000FF" stroke-width="0.96" stroke-linecap="round" fill="none" /><path transform="matrix(1 0 0 -1 0 842)" d="M178.4066 663.0633L184.8229 663.7192" stroke="#0000FF" stroke-width="0.96" stroke-linecap="round" fill="none" /><path transform="matrix(1 0 0 -1 0 842)" d="M184.8229 663.7192L191.1434 664.6299" stroke="#0000FF" stroke-width="0.96" stroke-linecap="round" fill="none" /><path transform="matrix(1 0 0 -1 0 842)" d="M191.1434 664.6299L197.3371 665.7879" stroke="#0000FF" stroke-width="0.96" stroke-linecap="round" fill="none" /><path transform="matrix(1 0 0 -1 0 842)" d="M197.3371 665.7879L203.3736 667.1835" stroke="#0000FF" stroke-width="0.96" stroke-linecap="round" fill="none" /><path transform="matrix(1 0 0 -1 0 842)" d="M203.3736 667.1835L209.2238 668.8053" stroke="#0000FF" stroke-width="0.96" stroke-linecap="round" fill="none" /><path transform="matrix(1 0 0 -1 0 842)" d="M209.2238 668.8053L214.8593 670.6396" stroke="#0000FF" stroke-width="0.96" stroke-linecap="round" fill="none" /><path transform="matrix(1 0 0 -1 0 842)" d="M214.8593 670.6396L220.2534 672.6713" stroke="#0000FF" stroke-width="0.96" stroke-linecap="round" fill="none" /><path transform="matrix(1 0 0 -1 0 842)" d="M220.2534 672.6713L225.3804 674.8831" stroke="#0000FF" stroke-width="0.96" stroke-linecap="round" fill="none" /><path transform="matrix(1 0 0 -1 0 842)" d="M225.3804 674.8831L230.2166 677.2567" stroke="#0000FF" stroke-width="0.96" stroke-linecap="round" fill="none" /><path transform="matrix(1 0 0 -1 0 842)" d="M230.2166 677.2567L234.74 679.7717" stroke="#0000FF" stroke-width="0.96" stroke-linecap="round" fill="none" /><path transform="matrix(1 0 0 -1 0 842)" d="M234.74 679.7717L238.9302 682.407" stroke="#0000FF" stroke-width="0.96" stroke-linecap="round" fill="none" /><path transform="matrix(1 0 0 -1 0 842)" d="M238.9302 682.407L242.769 685.1398" stroke="#0000FF" stroke-width="0.96" stroke-linecap="round" fill="none" /><path transform="matrix(1 0 0 -1 0 842)" d="M242.769 685.1398L246.2403 687.9465" stroke="#0000FF" stroke-width="0.96" stroke-linecap="round" fill="none" /><path transform="matrix(1 0 0 -1 0 842)" d="M246.2403 687.9465L249.3301 690.8027" stroke="#0000FF" stroke-width="0.96" stroke-linecap="round" fill="none" /><path transform="matrix(1 0 0 -1 0 842)" d="M249.3301 690.8027L252.0268 693.6832" stroke="#0000FF" stroke-width="0.96" stroke-linecap="round" fill="none" /><path transform="matrix(1 0 0 -1 0 842)" d="M252.0268 693.6832L254.3209 696.5623" stroke="#0000FF" stroke-width="0.96" stroke-linecap="round" fill="none" /><path transform="matrix(1 0 0 -1 0 842)" d="M254.3209 696.5623L256.2057 699.4142" stroke="#0000FF" stroke-width="0.96" stroke-linecap="round" fill="none" /><path transform="matrix(1 0 0 -1 0 842)" d="M256.2057 699.4142L257.6764 702.2126" stroke="#0000FF" stroke-width="0.96" stroke-linecap="round" fill="none" /><path transform="matrix(1 0 0 -1 0 842)" d="M257.6764 702.2126L258.7308 704.9315" stroke="#0000FF" stroke-width="0.96" stroke-linecap="round" fill="none" /><path transform="matrix(1 0 0 -1 0 842)" d="M258.7308 704.9315L259.3692 707.5449" stroke="#0000FF" stroke-width="0.96" stroke-linecap="round" fill="none" /><path transform="matrix(1 0 0 -1 0 842)" d="M259.3692 707.5449L259.5945 710.0275" stroke="#0000FF" stroke-width="0.96" stroke-linecap="round" fill="none" /><path transform="matrix(1 0 0 -1 0 842)" d="M259.5945 710.0275L259.4115 712.3544" stroke="#0000FF" stroke-width="0.96" stroke-linecap="round" fill="none" /><path transform="matrix(1 0 0 -1 0 842)" d="M259.4115 712.3544L258.8278 714.5014" stroke="#0000FF" stroke-width="0.96" stroke-linecap="round" fill="none" /><path transform="matrix(1 0 0 -1 0 842)" d="M258.8278 714.5014L257.853 716.4456" stroke="#0000FF" stroke-width="0.96" stroke-linecap="round" fill="none" /><path transform="matrix(1 0 0 -1 0 842)" d="M257.853 716.4456L256.4992 718.1644" stroke="#0000FF" stroke-width="0.96" stroke-linecap="round" fill="none" /><path transform="matrix(1 0 0 -1 0 842)" d="M256.4992 718.1644L254.7801 719.6376" stroke="#0000FF" stroke-width="0.96" stroke-linecap="round" fill="none" /><path transform="matrix(1 0 0 -1 0 842)" d="M254.7801 719.6376L252.712 720.8456" stroke="#0000FF" stroke-width="0.96" stroke-linecap="round" fill="none" /><path transform="matrix(1 0 0 -1 0 842)" d="M252.712 720.8456L250.3127 721.7707" stroke="#0000FF" stroke-width="0.96" stroke-linecap="round" fill="none" /><path transform="matrix(1 0 0 -1 0 842)" d="M250.3127 721.7707L247.6021 722.3965" stroke="#0000FF" stroke-width="0.96" stroke-linecap="round" fill="none" /><path transform="matrix(1 0 0 -1 0 842)" d="M247.6021 722.3965L244.6014 722.709" stroke="#0000FF" stroke-width="0.96" stroke-linecap="round" fill="none" /><path transform="matrix(1 0 0 -1 0 842)" d="M244.6014 722.709L241.3335 722.6958" stroke="#0000FF" stroke-width="0.96" stroke-linecap="round" fill="none" /><path transform="matrix(1 0 0 -1 0 842)" d="M241.3335 722.6958L237.8227 722.3466" stroke="#0000FF" stroke-width="0.96" stroke-linecap="round" fill="none" /><path transform="matrix(1 0 0 -1 0 842)" d="M237.8227 722.3466L234.0942 721.6531" stroke="#0000FF" stroke-width="0.96" stroke-linecap="round" fill="none" /><path transform="matrix(1 0 0 -1 0 842)" d="M234.0942 721.6531L230.1746 720.6093" stroke="#0000FF" stroke-width="0.96" stroke-linecap="round" fill="none" /><path transform="matrix(1 0 0 -1 0 842)" d="M230.1746 720.6093L226.0911 719.2116" stroke="#0000FF" stroke-width="0.96" stroke-linecap="round" fill="none" /><path transform="matrix(1 0 0 -1 0 842)" d="M226.0911 719.2116L221.8714 717.4583" stroke="#0000FF" stroke-width="0.96" stroke-linecap="round" fill="none" /><path transform="matrix(1 0 0 -1 0 842)" d="M221.8714 717.4583L217.5439 715.3503" stroke="#0000FF" stroke-width="0.96" stroke-linecap="round" fill="none" /><path transform="matrix(1 0 0 -1 0 842)" d="M217.5439 715.3503L213.1374 712.8909" stroke="#0000FF" stroke-width="0.96" stroke-linecap="round" fill="none" /><path transform="matrix(1 0 0 -1 0 842)" d="M213.1374 712.8909L208.6802 710.0853" stroke="#0000FF" stroke-width="0.96" stroke-linecap="round" fill="none" /><path transform="matrix(1 0 0 -1 0 842)" d="M208.6802 710.0853L204.2013 706.9415" stroke="#0000FF" stroke-width="0.96" stroke-linecap="round" fill="none" /><path transform="matrix(1 0 0 -1 0 842)" d="M204.2013 706.9415L199.7288 703.4695" stroke="#0000FF" stroke-width="0.96" stroke-linecap="round" fill="none" /><path transform="matrix(1 0 0 -1 0 842)" d="M199.7288 703.4695L195.2905 699.6815" stroke="#0000FF" stroke-width="0.96" stroke-linecap="round" fill="none" /><path transform="matrix(1 0 0 -1 0 842)" d="M195.2905 699.6815L190.9137 695.592" stroke="#0000FF" stroke-width="0.96" stroke-linecap="round" fill="none" /><path transform="matrix(1 0 0 -1 0 842)" d="M190.9137 695.592L186.6245 691.2175" stroke="#0000FF" stroke-width="0.96" stroke-linecap="round" fill="none" /><path transform="matrix(1 0 0 -1 0 842)" d="M186.6245 691.2175L182.4485 686.5765" stroke="#0000FF" stroke-width="0.96" stroke-linecap="round" fill="none" /><path transform="matrix(1 0 0 -1 0 842)" d="M182.4485 686.5765L178.4097 681.6894" stroke="#0000FF" stroke-width="0.96" stroke-linecap="round" fill="none" /><path transform="matrix(1 0 0 -1 0 842)" d="M178.4097 681.6894L174.531 676.5784" stroke="#0000FF" stroke-width="0.96" stroke-linecap="round" fill="none" /><path transform="matrix(1 0 0 -1 0 842)" d="M174.531 676.5784L170.8339 671.2671" stroke="#0000FF" stroke-width="0.96" stroke-linecap="round" fill="none" /><path transform="matrix(1 0 0 -1 0 842)" d="M170.8339 671.2671L167.3381 665.781" stroke="#0000FF" stroke-width="0.96" stroke-linecap="round" fill="none" /><path transform="matrix(1 0 0 -1 0 842)" d="M167.3381 665.781L164.0617 660.1467" stroke="#0000FF" stroke-width="0.96" stroke-linecap="round" fill="none" /><path transform="matrix(1 0 0 -1 0 842)" d="M164.0617 660.1467L161.021 654.3918" stroke="#0000FF" stroke-width="0.96" stroke-linecap="round" fill="none" /><path transform="matrix(1 0 0 -1 0 842)" d="M161.021 654.3918L158.2303 648.5455" stroke="#0000FF" stroke-width="0.96" stroke-linecap="round" fill="none" /><path transform="matrix(1 0 0 -1 0 842)" d="M158.2303 648.5455L155.7019 642.6372" stroke="#0000FF" stroke-width="0.96" stroke-linecap="round" fill="none" /><path transform="matrix(1 0 0 -1 0 842)" d="M155.7019 642.6372L153.446 636.6974" stroke="#0000FF" stroke-width="0.96" stroke-linecap="round" fill="none" /><path transform="matrix(1 0 0 -1 0 842)" d="M153.446 636.6974L151.4708 630.7568" stroke="#0000FF" stroke-width="0.96" stroke-linecap="round" fill="none" /><path transform="matrix(1 0 0 -1 0 842)" d="M151.4708 630.7568L149.7821 624.8466" stroke="#0000FF" stroke-width="0.96" stroke-linecap="round" fill="none" /><path transform="matrix(1 0 0 -1 0 842)" d="M149.7821 624.8466L148.3838 618.9979" stroke="#0000FF" stroke-width="0.96" stroke-linecap="round" fill="none" /><path transform="matrix(1 0 0 -1 0 842)" d="M148.3838 618.9979L147.277 613.2419" stroke="#0000FF" stroke-width="0.96" stroke-linecap="round" fill="none" /><path transform="matrix(1 0 0 -1 0 842)" d="M147.277 613.2419L146.4614 607.6095" stroke="#0000FF" stroke-width="0.96" stroke-linecap="round" fill="none" /><path transform="matrix(1 0 0 -1 0 842)" d="M146.4614 607.6095L145.9338 602.1308" stroke="#0000FF" stroke-width="0.96" stroke-linecap="round" fill="none" /><path transform="matrix(1 0 0 -1 0 842)" d="M145.9338 602.1308L145.6891 596.8356" stroke="#0000FF" stroke-width="0.96" stroke-linecap="round" fill="none" /><path transform="matrix(1 0 0 -1 0 842)" d="M145.6891 596.8356L145.7202 591.7527" stroke="#0000FF" stroke-width="0.96" stroke-linecap="round" fill="none" /><path transform="matrix(1 0 0 -1 0 842)" d="M145.7202 591.7527L146.0177 586.9099" stroke="#0000FF" stroke-width="0.96" stroke-linecap="round" fill="none" /><path transform="matrix(1 0 0 -1 0 842)" d="M146.0177 586.9099L146.5703 582.3336" stroke="#0000FF" stroke-width="0.96" stroke-linecap="round" fill="none" /><path transform="matrix(1 0 0 -1 0 842)" d="M146.5703 582.3336L147.365 578.0492" stroke="#0000FF" stroke-width="0.96" stroke-linecap="round" fill="none" /><path transform="matrix(1 0 0 -1 0 842)" d="M147.365 578.0492L148.3867 574.0803" stroke="#0000FF" stroke-width="0.96" stroke-linecap="round" fill="none" /><path transform="matrix(1 0 0 -1 0 842)" d="M148.3867 574.0803L149.6189 570.4487" stroke="#0000FF" stroke-width="0.96" stroke-linecap="round" fill="none" /><path transform="matrix(1 0 0 -1 0 842)" d="M149.6189 570.4487L151.0434 567.1747" stroke="#0000FF" stroke-width="0.96" stroke-linecap="round" fill="none" /><path transform="matrix(1 0 0 -1 0 842)" d="M151.0434 567.1747L152.6405 564.2766" stroke="#0000FF" stroke-width="0.96" stroke-linecap="round" fill="none" /><path transform="matrix(1 0 0 -1 0 842)" d="M152.6405 564.2766L154.3894 561.7704" stroke="#0000FF" stroke-width="0.96" stroke-linecap="round" fill="none" /><path transform="matrix(1 0 0 -1 0 842)" d="M154.3894 561.7704L156.2682 559.6699" stroke="#0000FF" stroke-width="0.96" stroke-linecap="round" fill="none" /><path transform="matrix(1 0 0 -1 0 842)" d="M156.2682 559.6699L158.254 557.9873" stroke="#0000FF" stroke-width="0.96" stroke-linecap="round" fill="none" /><path transform="matrix(1 0 0 -1 0 842)" d="M158.254 557.9873L160.323 556.7318" stroke="#0000FF" stroke-width="0.96" stroke-linecap="round" fill="none" /><path transform="matrix(1 0 0 -1 0 842)" d="M160.323 556.7318L162.451 555.9103" stroke="#0000FF" stroke-width="0.96" stroke-linecap="round" fill="none" /><path transform="matrix(1 0 0 -1 0 842)" d="M162.451 555.9103L164.6132 555.5275" stroke="#0000FF" stroke-width="0.96" stroke-linecap="round" fill="none" /><path transform="matrix(1 0 0 -1 0 842)" d="M164.6132 555.5275L166.7846 555.5855" stroke="#0000FF" stroke-width="0.96" stroke-linecap="round" fill="none" /><path transform="matrix(1 0 0 -1 0 842)" d="M166.7846 555.5855L168.9402 556.0841" stroke="#0000FF" stroke-width="0.96" stroke-linecap="round" fill="none" /><path transform="matrix(1 0 0 -1 0 842)" d="M168.9402 556.0841L171.0551 557.0204" stroke="#0000FF" stroke-width="0.96" stroke-linecap="round" fill="none" /><path transform="matrix(1 0 0 -1 0 842)" d="M171.0551 557.0204L173.1045 558.389" stroke="#0000FF" stroke-width="0.96" stroke-linecap="round" fill="none" /><path transform="matrix(1 0 0 -1 0 842)" d="M173.1045 558.389L175.0644 560.1827" stroke="#0000FF" stroke-width="0.96" stroke-linecap="round" fill="none" /><path transform="matrix(1 0 0 -1 0 842)" d="M175.0644 560.1827L176.9112 562.3911" stroke="#0000FF" stroke-width="0.96" stroke-linecap="round" fill="none" /><path transform="matrix(1 0 0 -1 0 842)" d="M176.9112 562.3911L178.6223 565.0018" stroke="#0000FF" stroke-width="0.96" stroke-linecap="round" fill="none" /><path transform="matrix(1 0 0 -1 0 842)" d="M178.6223 565.0018L180.1759 568.0006" stroke="#0000FF" stroke-width="0.96" stroke-linecap="round" fill="none" /><path transform="matrix(1 0 0 -1 0 842)" d="M180.1759 568.0006L181.5517 571.3705" stroke="#0000FF" stroke-width="0.96" stroke-linecap="round" fill="none" /><path transform="matrix(1 0 0 -1 0 842)" d="M181.5517 571.3705L182.7301 575.0928" stroke="#0000FF" stroke-width="0.96" stroke-linecap="round" fill="none" /><path transform="matrix(1 0 0 -1 0 842)" d="M182.7301 575.0928L183.6937 579.147" stroke="#0000FF" stroke-width="0.96" stroke-linecap="round" fill="none" /><path transform="matrix(1 0 0 -1 0 842)" d="M183.6937 579.147L184.426 583.5106" stroke="#0000FF" stroke-width="0.96" stroke-linecap="round" fill="none" /><path transform="matrix(1 0 0 -1 0 842)" d="M184.426 583.5106L184.9128 588.1595" stroke="#0000FF" stroke-width="0.96" stroke-linecap="round" fill="none" /><path transform="matrix(1 0 0 -1 0 842)" d="M184.9128 588.1595L185.1411 593.0681" stroke="#0000FF" stroke-width="0.96" stroke-linecap="round" fill="none" /><path transform="matrix(1 0 0 -1 0 842)" d="M185.1411 593.0681L185.1005 598.2097" stroke="#0000FF" stroke-width="0.96" stroke-linecap="round" fill="none" /><path transform="matrix(1 0 0 -1 0 842)" d="M185.1005 598.2097L184.7819 603.556" stroke="#0000FF" stroke-width="0.96" stroke-linecap="round" fill="none" /><path transform="matrix(1 0 0 -1 0 842)" d="M184.7819 603.556L184.1789 609.078" stroke="#0000FF" stroke-width="0.96" stroke-linecap="round" fill="none" /><path transform="matrix(1 0 0 -1 0 842)" d="M184.1789 609.078L183.2869 614.746" stroke="#0000FF" stroke-width="0.96" stroke-linecap="round" fill="none" /><path transform="matrix(1 0 0 -1 0 842)" d="M183.2869 614.746L182.1034 620.5293" stroke="#0000FF" stroke-width="0.96" stroke-linecap="round" fill="none" /><path transform="matrix(1 0 0 -1 0 842)" d="M182.1034 620.5293L180.6284 626.3972" stroke="#0000FF" stroke-width="0.96" stroke-linecap="round" fill="none" /><path transform="matrix(1 0 0 -1 0 842)" d="M180.6284 626.3972L178.8639 632.3185" stroke="#0000FF" stroke-width="0.96" stroke-linecap="round" fill="none" /><path transform="matrix(1 0 0 -1 0 842)" d="M178.8639 632.3185L176.8141 638.2618" stroke="#0000FF" stroke-width="0.96" stroke-linecap="round" fill="none" /><path transform="matrix(1 0 0 -1 0 842)" d="M176.8141 638.2618L174.4857 644.1963" stroke="#0000FF" stroke-width="0.96" stroke-linecap="round" fill="none" /><path transform="matrix(1 0 0 -1 0 842)" d="M174.4857 644.1963L171.8871 650.0912" stroke="#0000FF" stroke-width="0.96" stroke-linecap="round" fill="none" /><path transform="matrix(1 0 0 -1 0 842)" d="M171.8871 650.0912L169.0294 655.9164" stroke="#0000FF" stroke-width="0.96" stroke-linecap="round" fill="none" /><path transform="matrix(1 0 0 -1 0 842)" d="M169.0294 655.9164L165.9251 661.6422" stroke="#0000FF" stroke-width="0.96" stroke-linecap="round" fill="none" /><path transform="matrix(1 0 0 -1 0 842)" d="M165.9251 661.6422L162.5894 667.2402" stroke="#0000FF" stroke-width="0.96" stroke-linecap="round" fill="none" /><path transform="matrix(1 0 0 -1 0 842)" d="M162.5894 667.2402L159.0388 672.6828" stroke="#0000FF" stroke-width="0.96" stroke-linecap="round" fill="none" /><path transform="matrix(1 0 0 -1 0 842)" d="M159.0388 672.6828L155.2919 677.9437" stroke="#0000FF" stroke-width="0.96" stroke-linecap="round" fill="none" /><path transform="matrix(1 0 0 -1 0 842)" d="M155.2919 677.9437L151.3689 682.9982" stroke="#0000FF" stroke-width="0.96" stroke-linecap="round" fill="none" /><path transform="matrix(1 0 0 -1 0 842)" d="M151.3689 682.9982L147.2918 687.8226" stroke="#0000FF" stroke-width="0.96" stroke-linecap="round" fill="none" /><path transform="matrix(1 0 0 -1 0 842)" d="M147.2918 687.8226L143.0836 692.3953" stroke="#0000FF" stroke-width="0.96" stroke-linecap="round" fill="none" /><path transform="matrix(1 0 0 -1 0 842)" d="M143.0836 692.3953L138.7689 696.6965" stroke="#0000FF" stroke-width="0.96" stroke-linecap="round" fill="none" /><path transform="matrix(1 0 0 -1 0 842)" d="M138.7689 696.6965L134.3733 700.7082" stroke="#0000FF" stroke-width="0.96" stroke-linecap="round" fill="none" /><path transform="matrix(1 0 0 -1 0 842)" d="M134.3733 700.7082L129.9233 704.4144" stroke="#0000FF" stroke-width="0.96" stroke-linecap="round" fill="none" /><path transform="matrix(1 0 0 -1 0 842)" d="M129.9233 704.4144L125.4463 707.8011" stroke="#0000FF" stroke-width="0.96" stroke-linecap="round" fill="none" /><path transform="matrix(1 0 0 -1 0 842)" d="M125.4463 707.8011L120.9704 710.8568" stroke="#0000FF" stroke-width="0.96" stroke-linecap="round" fill="none" /><path transform="matrix(1 0 0 -1 0 842)" d="M120.9704 710.8568L116.5238 713.5719" stroke="#0000FF" stroke-width="0.96" stroke-linecap="round" fill="none" /><path transform="matrix(1 0 0 -1 0 842)" d="M116.5238 713.5719L112.1352 715.9393" stroke="#0000FF" stroke-width="0.96" stroke-linecap="round" fill="none" /><path transform="matrix(1 0 0 -1 0 842)" d="M112.1352 715.9393L107.8334 717.9541" stroke="#0000FF" stroke-width="0.96" stroke-linecap="round" fill="none" /><path transform="matrix(1 0 0 -1 0 842)" d="M107.8334 717.9541L103.6468 719.6138" stroke="#0000FF" stroke-width="0.96" stroke-linecap="round" fill="none" /><path transform="matrix(1 0 0 -1 0 842)" d="M103.6468 719.6138L99.6037 720.9182" stroke="#0000FF" stroke-width="0.96" stroke-linecap="round" fill="none" /><path transform="matrix(1 0 0 -1 0 842)" d="M99.6037 720.9182L95.73183 721.8694" stroke="#0000FF" stroke-width="0.96" stroke-linecap="round" fill="none" /></g><g clip-path="url(#7)"><path transform="matrix(1 0 0 -1 0 842)" d="M279.1137 783.1808L487.4937 783.1808L487.4937 783.1808L487.4937 505.3808L487.4937 505.3808L279.1137 505.3808z" stroke="none" fill="#FFFFFF" fill-rule="winding" /><path transform="matrix(1 0 0 -1 0 842)" d="M282.4138 662.6408L470.8138 662.6408" stroke="#000000" stroke-width="0.48" stroke-linecap="round" fill="none" /><path transform="matrix(1 0 0 -1 0 842)" d="M484.6737 662.6409L473.6338 664.9808L473.6338 664.9808L473.6338 660.3008L473.6338 660.3008L484.6737 662.6409z" stroke="none" fill="#000000" fill-rule="winding" /><path transform="matrix(1 0 0 -1 0 842)" d="M484.6737 662.6408L473.6337 664.9808" stroke="#000000" stroke-width="0.48" stroke-linecap="round" fill="none" /><path transform="matrix(1 0 0 -1 0 842)" d="M484.6737 662.6408L473.6337 660.3008" stroke="#000000" stroke-width="0.48" stroke-linecap="round" fill="none" /><path transform="matrix(1 0 0 -1 0 842)" d="M473.6337 664.9808L473.6337 660.3008" stroke="#000000" stroke-width="0.48" stroke-linecap="round" fill="none" /><path transform="matrix(1 0 0 -1 0 842)" d="M470.8138 662.6408L484.6737 662.6408" stroke="#000000" stroke-width="0.48" stroke-linecap="round" fill="none" /><path transform="matrix(1 0 0 -1 0 842)" d="M376.6137 555.6008L376.6137 722.6408" stroke="#000000" stroke-width="0.48" stroke-linecap="round" fill="none" /><path transform="matrix(1 0 0 -1 0 842)" d="M376.6137 736.5009L378.9538 725.4609L378.9538 725.4609L374.2737 725.4609L374.2737 725.4609L376.6137 736.5009z" stroke="none" fill="#000000" fill-rule="winding" /><path transform="matrix(1 0 0 -1 0 842)" d="M376.6137 736.5008L378.9537 725.4608" stroke="#000000" stroke-width="0.48" stroke-linecap="round" fill="none" /><path transform="matrix(1 0 0 -1 0 842)" d="M376.6137 736.5008L374.2737 725.4608" stroke="#000000" stroke-width="0.48" stroke-linecap="round" fill="none" /><path transform="matrix(1 0 0 -1 0 842)" d="M378.9537 725.4608L374.2737 725.4608" stroke="#000000" stroke-width="0.48" stroke-linecap="round" fill="none" /><path transform="matrix(1 0 0 -1 0 842)" d="M376.6137 722.6408L376.6137 736.5008" stroke="#000000" stroke-width="0.48" stroke-linecap="round" fill="none" /><path transform="matrix(1 0 0 -1 0 842)" d="M287.4537 661.2608L287.4537 664.0208" stroke="#000000" stroke-width="0.48" stroke-linecap="round" fill="none" /><path transform="matrix(1 0 0 -1 0 842)" d="M305.2737 659.8208L305.2737 665.4608" stroke="#000000" stroke-width="0.48" stroke-linecap="round" fill="none" /><path transform="matrix(1 0 0 -1 0 842)" d="M287.4537 661.2608L287.4537 664.0208" stroke="#000000" stroke-width="0.48" stroke-linecap="round" fill="none" /><path transform="matrix(1 0 0 -1 0 842)" d="M340.9138 659.8208L340.9138 665.4608" stroke="#000000" stroke-width="0.48" stroke-linecap="round" fill="none" /><path transform="matrix(1 0 0 -1 0 842)" d="M323.0938 661.2608L323.0938 664.0208" stroke="#000000" stroke-width="0.48" stroke-linecap="round" fill="none" /><path transform="matrix(1 0 0 -1 0 842)" d="M376.6137 659.8208L376.6137 665.4608" stroke="#000000" stroke-width="0.48" stroke-linecap="round" fill="none" /><path transform="matrix(1 0 0 -1 0 842)" d="M358.7937 661.2608L358.7937 664.0208" stroke="#000000" stroke-width="0.48" stroke-linecap="round" fill="none" /><path transform="matrix(1 0 0 -1 0 842)" d="M412.3138 659.8208L412.3138 665.4608" stroke="#000000" stroke-width="0.48" stroke-linecap="round" fill="none" /><path transform="matrix(1 0 0 -1 0 842)" d="M394.4337 661.2608L394.4337 664.0208" stroke="#000000" stroke-width="0.48" stroke-linecap="round" fill="none" /><path transform="matrix(1 0 0 -1 0 842)" d="M447.9537 659.8208L447.9537 665.4608" stroke="#000000" stroke-width="0.48" stroke-linecap="round" fill="none" /><path transform="matrix(1 0 0 -1 0 842)" d="M430.1337 661.2608L430.1337 664.0208" stroke="#000000" stroke-width="0.48" stroke-linecap="round" fill="none" /><path transform="matrix(1 0 0 -1 0 842)" d="M465.7737 661.2608L465.7737 664.0208" stroke="#000000" stroke-width="0.48" stroke-linecap="round" fill="none" /><path transform="matrix(1 0 0 -1 0 842)" d="M379.4337 555.6175L373.7937 555.6175" stroke="#000000" stroke-width="0.48" stroke-linecap="round" fill="none" /><path transform="matrix(1 0 0 -1 0 842)" d="M379.4337 591.286L373.7937 591.286" stroke="#000000" stroke-width="0.48" stroke-linecap="round" fill="none" /><path transform="matrix(1 0 0 -1 0 842)" d="M377.9937 573.4517L375.2337 573.4517" stroke="#000000" stroke-width="0.48" stroke-linecap="round" fill="none" /><path transform="matrix(1 0 0 -1 0 842)" d="M379.4337 626.9545L373.7937 626.9545" stroke="#000000" stroke-width="0.48" stroke-linecap="round" fill="none" /><path transform="matrix(1 0 0 -1 0 842)" d="M377.9937 609.1202L375.2337 609.1202" stroke="#000000" stroke-width="0.48" stroke-linecap="round" fill="none" /><path transform="matrix(1 0 0 -1 0 842)" d="M379.4337 662.6229L373.7937 662.6229" stroke="#000000" stroke-width="0.48" stroke-linecap="round" fill="none" /><path transform="matrix(1 0 0 -1 0 842)" d="M377.9937 644.7887L375.2337 644.7887" stroke="#000000" stroke-width="0.48" stroke-linecap="round" fill="none" /><path transform="matrix(1 0 0 -1 0 842)" d="M379.4337 698.2914L373.7937 698.2914" stroke="#000000" stroke-width="0.48" stroke-linecap="round" fill="none" /><path transform="matrix(1 0 0 -1 0 842)" d="M377.9937 680.4572L375.2337 680.4572" stroke="#000000" stroke-width="0.48" stroke-linecap="round" fill="none" /><path transform="matrix(1 0 0 -1 0 842)" d="M377.9937 716.1257L375.2337 716.1257" stroke="#000000" stroke-width="0.48" stroke-linecap="round" fill="none" /></g><g clip-path="url(#8)"><path transform="matrix(1 0 0 -1 0 842)" d="M376.6137 662.6229L386.5084 663.1414" stroke="#0000FF" stroke-width="0.96" stroke-linecap="round" fill="none" /><path transform="matrix(1 0 0 -1 0 842)" d="M386.5084 663.1414L396.0791 664.6686" stroke="#0000FF" stroke-width="0.96" stroke-linecap="round" fill="none" /><path transform="matrix(1 0 0 -1 0 842)" d="M396.0791 664.6686L405.0146 667.1206" stroke="#0000FF" stroke-width="0.96" stroke-linecap="round" fill="none" /><path transform="matrix(1 0 0 -1 0 842)" d="M405.0146 667.1206L413.0293 670.3623" stroke="#0000FF" stroke-width="0.96" stroke-linecap="round" fill="none" /><path transform="matrix(1 0 0 -1 0 842)" d="M413.0293 670.3623L419.8746 674.2131" stroke="#0000FF" stroke-width="0.96" stroke-linecap="round" fill="none" /><path transform="matrix(1 0 0 -1 0 842)" d="M419.8746 674.2131L425.3473 678.4554" stroke="#0000FF" stroke-width="0.96" stroke-linecap="round" fill="none" /><path transform="matrix(1 0 0 -1 0 842)" d="M425.3473 678.4554L429.3002 682.8447" stroke="#0000FF" stroke-width="0.96" stroke-linecap="round" fill="none" /><path transform="matrix(1 0 0 -1 0 842)" d="M429.3002 682.8447L431.644 687.1207" stroke="#0000FF" stroke-width="0.96" stroke-linecap="round" fill="none" /><path transform="matrix(1 0 0 -1 0 842)" d="M431.644 687.1207L432.3535 691.0201" stroke="#0000FF" stroke-width="0.96" stroke-linecap="round" fill="none" /><path transform="matrix(1 0 0 -1 0 842)" d="M432.3535 691.0201L431.4663 694.2878" stroke="#0000FF" stroke-width="0.96" stroke-linecap="round" fill="none" /><path transform="matrix(1 0 0 -1 0 842)" d="M431.4663 694.2878L429.0797 696.6901" stroke="#0000FF" stroke-width="0.96" stroke-linecap="round" fill="none" /><path transform="matrix(1 0 0 -1 0 842)" d="M429.0797 696.6901L425.3473 698.0253" stroke="#0000FF" stroke-width="0.96" stroke-linecap="round" fill="none" /><path transform="matrix(1 0 0 -1 0 842)" d="M425.3473 698.0253L420.4718 698.1337" stroke="#0000FF" stroke-width="0.96" stroke-linecap="round" fill="none" /><path transform="matrix(1 0 0 -1 0 842)" d="M420.4718 698.1337L414.6938 696.9058" stroke="#0000FF" stroke-width="0.96" stroke-linecap="round" fill="none" /><path transform="matrix(1 0 0 -1 0 842)" d="M414.6938 696.9058L408.2828 694.2878" stroke="#0000FF" stroke-width="0.96" stroke-linecap="round" fill="none" /><path transform="matrix(1 0 0 -1 0 842)" d="M408.2828 694.2878L401.5249 690.286" stroke="#0000FF" stroke-width="0.96" stroke-linecap="round" fill="none" /><path transform="matrix(1 0 0 -1 0 842)" d="M401.5249 690.286L394.7098 684.9667" stroke="#0000FF" stroke-width="0.96" stroke-linecap="round" fill="none" /><path transform="matrix(1 0 0 -1 0 842)" d="M394.7098 684.9667L388.1182 678.4554" stroke="#0000FF" stroke-width="0.96" stroke-linecap="round" fill="none" /><path transform="matrix(1 0 0 -1 0 842)" d="M388.1182 678.4554L382.0102 670.9316" stroke="#0000FF" stroke-width="0.96" stroke-linecap="round" fill="none" /><path transform="matrix(1 0 0 -1 0 842)" d="M382.0102 670.9316L376.6137 662.6229" stroke="#0000FF" stroke-width="0.96" stroke-linecap="round" fill="none" /><path transform="matrix(1 0 0 -1 0 842)" d="M376.6137 662.6229L372.1155 653.7958" stroke="#0000FF" stroke-width="0.96" stroke-linecap="round" fill="none" /><path transform="matrix(1 0 0 -1 0 842)" d="M372.1155 653.7958L368.6529 644.7449" stroke="#0000FF" stroke-width="0.96" stroke-linecap="round" fill="none" /><path transform="matrix(1 0 0 -1 0 842)" d="M368.6529 644.7449L366.3089 635.7815" stroke="#0000FF" stroke-width="0.96" stroke-linecap="round" fill="none" /><path transform="matrix(1 0 0 -1 0 842)" d="M366.3089 635.7815L365.1093 627.2205" stroke="#0000FF" stroke-width="0.96" stroke-linecap="round" fill="none" /><path transform="matrix(1 0 0 -1 0 842)" d="M365.1093 627.2205L365.0221 619.3678" stroke="#0000FF" stroke-width="0.96" stroke-linecap="round" fill="none" /><path transform="matrix(1 0 0 -1 0 842)" d="M365.0221 619.3678L365.96 612.5076" stroke="#0000FF" stroke-width="0.96" stroke-linecap="round" fill="none" /><path transform="matrix(1 0 0 -1 0 842)" d="M365.96 612.5076L367.7854 606.8906" stroke="#0000FF" stroke-width="0.96" stroke-linecap="round" fill="none" /><path transform="matrix(1 0 0 -1 0 842)" d="M367.7854 606.8906L370.3171 602.7227" stroke="#0000FF" stroke-width="0.96" stroke-linecap="round" fill="none" /><path transform="matrix(1 0 0 -1 0 842)" d="M370.3171 602.7227L373.3397 600.1585" stroke="#0000FF" stroke-width="0.96" stroke-linecap="round" fill="none" /><path transform="matrix(1 0 0 -1 0 842)" d="M373.3397 600.1585L376.6137 599.2932" stroke="#0000FF" stroke-width="0.96" stroke-linecap="round" fill="none" /><path transform="matrix(1 0 0 -1 0 842)" d="M376.6137 599.2932L379.8878 600.1585" stroke="#0000FF" stroke-width="0.96" stroke-linecap="round" fill="none" /><path transform="matrix(1 0 0 -1 0 842)" d="M379.8878 600.1585L382.9103 602.7227" stroke="#0000FF" stroke-width="0.96" stroke-linecap="round" fill="none" /><path transform="matrix(1 0 0 -1 0 842)" d="M382.9103 602.7227L385.4421 606.8906" stroke="#0000FF" stroke-width="0.96" stroke-linecap="round" fill="none" /><path transform="matrix(1 0 0 -1 0 842)" d="M385.4421 606.8906L387.2675 612.5076" stroke="#0000FF" stroke-width="0.96" stroke-linecap="round" fill="none" /><path transform="matrix(1 0 0 -1 0 842)" d="M387.2675 612.5076L388.2054 619.3678" stroke="#0000FF" stroke-width="0.96" stroke-linecap="round" fill="none" /><path transform="matrix(1 0 0 -1 0 842)" d="M388.2054 619.3678L388.1182 627.2205" stroke="#0000FF" stroke-width="0.96" stroke-linecap="round" fill="none" /><path transform="matrix(1 0 0 -1 0 842)" d="M388.1182 627.2205L386.9186 635.7815" stroke="#0000FF" stroke-width="0.96" stroke-linecap="round" fill="none" /><path transform="matrix(1 0 0 -1 0 842)" d="M386.9186 635.7815L384.5746 644.7449" stroke="#0000FF" stroke-width="0.96" stroke-linecap="round" fill="none" /><path transform="matrix(1 0 0 -1 0 842)" d="M384.5746 644.7449L381.112 653.7958" stroke="#0000FF" stroke-width="0.96" stroke-linecap="round" fill="none" /><path transform="matrix(1 0 0 -1 0 842)" d="M381.112 653.7958L376.6137 662.6229" stroke="#0000FF" stroke-width="0.96" stroke-linecap="round" fill="none" /><path transform="matrix(1 0 0 -1 0 842)" d="M376.6137 662.6229L371.2173 670.9316" stroke="#0000FF" stroke-width="0.96" stroke-linecap="round" fill="none" /><path transform="matrix(1 0 0 -1 0 842)" d="M371.2173 670.9316L365.1093 678.4554" stroke="#0000FF" stroke-width="0.96" stroke-linecap="round" fill="none" /><path transform="matrix(1 0 0 -1 0 842)" d="M365.1093 678.4554L358.5177 684.9667" stroke="#0000FF" stroke-width="0.96" stroke-linecap="round" fill="none" /><path transform="matrix(1 0 0 -1 0 842)" d="M358.5177 684.9667L351.7025 690.286" stroke="#0000FF" stroke-width="0.96" stroke-linecap="round" fill="none" /><path transform="matrix(1 0 0 -1 0 842)" d="M351.7025 690.286L344.9447 694.2878" stroke="#0000FF" stroke-width="0.96" stroke-linecap="round" fill="none" /><path transform="matrix(1 0 0 -1 0 842)" d="M344.9447 694.2878L338.5337 696.9058" stroke="#0000FF" stroke-width="0.96" stroke-linecap="round" fill="none" /><path transform="matrix(1 0 0 -1 0 842)" d="M338.5337 696.9058L332.7557 698.1337" stroke="#0000FF" stroke-width="0.96" stroke-linecap="round" fill="none" /><path transform="matrix(1 0 0 -1 0 842)" d="M332.7557 698.1337L327.8802 698.0253" stroke="#0000FF" stroke-width="0.96" stroke-linecap="round" fill="none" /><path transform="matrix(1 0 0 -1 0 842)" d="M327.8802 698.0253L324.1478 696.6901" stroke="#0000FF" stroke-width="0.96" stroke-linecap="round" fill="none" /><path transform="matrix(1 0 0 -1 0 842)" d="M324.1478 696.6901L321.7612 694.2878" stroke="#0000FF" stroke-width="0.96" stroke-linecap="round" fill="none" /><path transform="matrix(1 0 0 -1 0 842)" d="M321.7612 694.2878L320.874 691.0201" stroke="#0000FF" stroke-width="0.96" stroke-linecap="round" fill="none" /><path transform="matrix(1 0 0 -1 0 842)" d="M320.874 691.0201L321.5836 687.1207" stroke="#0000FF" stroke-width="0.96" stroke-linecap="round" fill="none" /><path transform="matrix(1 0 0 -1 0 842)" d="M321.5836 687.1207L323.9273 682.8447" stroke="#0000FF" stroke-width="0.96" stroke-linecap="round" fill="none" /><path transform="matrix(1 0 0 -1 0 842)" d="M323.9273 682.8447L327.8802 678.4554" stroke="#0000FF" stroke-width="0.96" stroke-linecap="round" fill="none" /><path transform="matrix(1 0 0 -1 0 842)" d="M327.8802 678.4554L333.3529 674.2131" stroke="#0000FF" stroke-width="0.96" stroke-linecap="round" fill="none" /><path transform="matrix(1 0 0 -1 0 842)" d="M333.3529 674.2131L340.1982 670.3623" stroke="#0000FF" stroke-width="0.96" stroke-linecap="round" fill="none" /><path transform="matrix(1 0 0 -1 0 842)" d="M340.1982 670.3623L348.2129 667.1206" stroke="#0000FF" stroke-width="0.96" stroke-linecap="round" fill="none" /><path transform="matrix(1 0 0 -1 0 842)" d="M348.2129 667.1206L357.1484 664.6686" stroke="#0000FF" stroke-width="0.96" stroke-linecap="round" fill="none" /><path transform="matrix(1 0 0 -1 0 842)" d="M357.1484 664.6686L366.7191 663.1414" stroke="#0000FF" stroke-width="0.96" stroke-linecap="round" fill="none" /><path transform="matrix(1 0 0 -1 0 842)" d="M366.7191 663.1414L376.6137 662.6229" stroke="#0000FF" stroke-width="0.96" stroke-linecap="round" fill="none" /><path transform="matrix(1 0 0 -1 0 842)" d="M376.6137 662.6229L386.5084 663.1414" stroke="#0000FF" stroke-width="0.96" stroke-linecap="round" fill="none" /><path transform="matrix(1 0 0 -1 0 842)" d="M386.5084 663.1414L396.0791 664.6686" stroke="#0000FF" stroke-width="0.96" stroke-linecap="round" fill="none" /><path transform="matrix(1 0 0 -1 0 842)" d="M396.0791 664.6686L405.0146 667.1206" stroke="#0000FF" stroke-width="0.96" stroke-linecap="round" fill="none" /><path transform="matrix(1 0 0 -1 0 842)" d="M405.0146 667.1206L413.0293 670.3623" stroke="#0000FF" stroke-width="0.96" stroke-linecap="round" fill="none" /><path transform="matrix(1 0 0 -1 0 842)" d="M413.0293 670.3623L419.8746 674.2131" stroke="#0000FF" stroke-width="0.96" stroke-linecap="round" fill="none" /><path transform="matrix(1 0 0 -1 0 842)" d="M419.8746 674.2131L425.3473 678.4554" stroke="#0000FF" stroke-width="0.96" stroke-linecap="round" fill="none" /><path transform="matrix(1 0 0 -1 0 842)" d="M425.3473 678.4554L429.3002 682.8447" stroke="#0000FF" stroke-width="0.96" stroke-linecap="round" fill="none" /><path transform="matrix(1 0 0 -1 0 842)" d="M429.3002 682.8447L431.644 687.1207" stroke="#0000FF" stroke-width="0.96" stroke-linecap="round" fill="none" /><path transform="matrix(1 0 0 -1 0 842)" d="M431.644 687.1207L432.3535 691.0201" stroke="#0000FF" stroke-width="0.96" stroke-linecap="round" fill="none" /><path transform="matrix(1 0 0 -1 0 842)" d="M432.3535 691.0201L431.4663 694.2878" stroke="#0000FF" stroke-width="0.96" stroke-linecap="round" fill="none" /><path transform="matrix(1 0 0 -1 0 842)" d="M431.4663 694.2878L429.0797 696.6901" stroke="#0000FF" stroke-width="0.96" stroke-linecap="round" fill="none" /><path transform="matrix(1 0 0 -1 0 842)" d="M429.0797 696.6901L425.3473 698.0253" stroke="#0000FF" stroke-width="0.96" stroke-linecap="round" fill="none" /><path transform="matrix(1 0 0 -1 0 842)" d="M425.3473 698.0253L420.4718 698.1337" stroke="#0000FF" stroke-width="0.96" stroke-linecap="round" fill="none" /><path transform="matrix(1 0 0 -1 0 842)" d="M420.4718 698.1337L414.6938 696.9058" stroke="#0000FF" stroke-width="0.96" stroke-linecap="round" fill="none" /><path transform="matrix(1 0 0 -1 0 842)" d="M414.6938 696.9058L408.2828 694.2878" stroke="#0000FF" stroke-width="0.96" stroke-linecap="round" fill="none" /><path transform="matrix(1 0 0 -1 0 842)" d="M408.2828 694.2878L401.5249 690.286" stroke="#0000FF" stroke-width="0.96" stroke-linecap="round" fill="none" /><path transform="matrix(1 0 0 -1 0 842)" d="M401.5249 690.286L394.7098 684.9667" stroke="#0000FF" stroke-width="0.96" stroke-linecap="round" fill="none" /><path transform="matrix(1 0 0 -1 0 842)" d="M394.7098 684.9667L388.1182 678.4554" stroke="#0000FF" stroke-width="0.96" stroke-linecap="round" fill="none" /><path transform="matrix(1 0 0 -1 0 842)" d="M388.1182 678.4554L382.0102 670.9316" stroke="#0000FF" stroke-width="0.96" stroke-linecap="round" fill="none" /><path transform="matrix(1 0 0 -1 0 842)" d="M382.0102 670.9316L376.6137 662.6229" stroke="#0000FF" stroke-width="0.96" stroke-linecap="round" fill="none" /><path transform="matrix(1 0 0 -1 0 842)" d="M376.6137 662.6229L372.1155 653.7958" stroke="#0000FF" stroke-width="0.96" stroke-linecap="round" fill="none" /><path transform="matrix(1 0 0 -1 0 842)" d="M372.1155 653.7958L368.6529 644.7449" stroke="#0000FF" stroke-width="0.96" stroke-linecap="round" fill="none" /><path transform="matrix(1 0 0 -1 0 842)" d="M368.6529 644.7449L366.3089 635.7815" stroke="#0000FF" stroke-width="0.96" stroke-linecap="round" fill="none" /><path transform="matrix(1 0 0 -1 0 842)" d="M366.3089 635.7815L365.1093 627.2205" stroke="#0000FF" stroke-width="0.96" stroke-linecap="round" fill="none" /><path transform="matrix(1 0 0 -1 0 842)" d="M365.1093 627.2205L365.0221 619.3678" stroke="#0000FF" stroke-width="0.96" stroke-linecap="round" fill="none" /><path transform="matrix(1 0 0 -1 0 842)" d="M365.0221 619.3678L365.96 612.5076" stroke="#0000FF" stroke-width="0.96" stroke-linecap="round" fill="none" /><path transform="matrix(1 0 0 -1 0 842)" d="M365.96 612.5076L367.7854 606.8906" stroke="#0000FF" stroke-width="0.96" stroke-linecap="round" fill="none" /><path transform="matrix(1 0 0 -1 0 842)" d="M367.7854 606.8906L370.3171 602.7227" stroke="#0000FF" stroke-width="0.96" stroke-linecap="round" fill="none" /><path transform="matrix(1 0 0 -1 0 842)" d="M370.3171 602.7227L373.3397 600.1585" stroke="#0000FF" stroke-width="0.96" stroke-linecap="round" fill="none" /><path transform="matrix(1 0 0 -1 0 842)" d="M373.3397 600.1585L376.6137 599.2932" stroke="#0000FF" stroke-width="0.96" stroke-linecap="round" fill="none" /><path transform="matrix(1 0 0 -1 0 842)" d="M376.6137 599.2932L379.8878 600.1585" stroke="#0000FF" stroke-width="0.96" stroke-linecap="round" fill="none" /><path transform="matrix(1 0 0 -1 0 842)" d="M379.8878 600.1585L382.9103 602.7227" stroke="#0000FF" stroke-width="0.96" stroke-linecap="round" fill="none" /><path transform="matrix(1 0 0 -1 0 842)" d="M382.9103 602.7227L385.4421 606.8906" stroke="#0000FF" stroke-width="0.96" stroke-linecap="round" fill="none" /><path transform="matrix(1 0 0 -1 0 842)" d="M385.4421 606.8906L387.2675 612.5076" stroke="#0000FF" stroke-width="0.96" stroke-linecap="round" fill="none" /><path transform="matrix(1 0 0 -1 0 842)" d="M387.2675 612.5076L388.2054 619.3678" stroke="#0000FF" stroke-width="0.96" stroke-linecap="round" fill="none" /><path transform="matrix(1 0 0 -1 0 842)" d="M388.2054 619.3678L388.1182 627.2205" stroke="#0000FF" stroke-width="0.96" stroke-linecap="round" fill="none" /><path transform="matrix(1 0 0 -1 0 842)" d="M388.1182 627.2205L386.9186 635.7815" stroke="#0000FF" stroke-width="0.96" stroke-linecap="round" fill="none" /><path transform="matrix(1 0 0 -1 0 842)" d="M386.9186 635.7815L384.5746 644.7449" stroke="#0000FF" stroke-width="0.96" stroke-linecap="round" fill="none" /><path transform="matrix(1 0 0 -1 0 842)" d="M384.5746 644.7449L381.112 653.7958" stroke="#0000FF" stroke-width="0.96" stroke-linecap="round" fill="none" /><path transform="matrix(1 0 0 -1 0 842)" d="M381.112 653.7958L376.6137 662.6229" stroke="#0000FF" stroke-width="0.96" stroke-linecap="round" fill="none" /><path transform="matrix(1 0 0 -1 0 842)" d="M376.6137 662.6229L371.2173 670.9316" stroke="#0000FF" stroke-width="0.96" stroke-linecap="round" fill="none" /><path transform="matrix(1 0 0 -1 0 842)" d="M371.2173 670.9316L365.1093 678.4554" stroke="#0000FF" stroke-width="0.96" stroke-linecap="round" fill="none" /><path transform="matrix(1 0 0 -1 0 842)" d="M365.1093 678.4554L358.5177 684.9667" stroke="#0000FF" stroke-width="0.96" stroke-linecap="round" fill="none" /><path transform="matrix(1 0 0 -1 0 842)" d="M358.5177 684.9667L351.7025 690.286" stroke="#0000FF" stroke-width="0.96" stroke-linecap="round" fill="none" /><path transform="matrix(1 0 0 -1 0 842)" d="M351.7025 690.286L344.9447 694.2878" stroke="#0000FF" stroke-width="0.96" stroke-linecap="round" fill="none" /><path transform="matrix(1 0 0 -1 0 842)" d="M344.9447 694.2878L338.5337 696.9058" stroke="#0000FF" stroke-width="0.96" stroke-linecap="round" fill="none" /><path transform="matrix(1 0 0 -1 0 842)" d="M338.5337 696.9058L332.7557 698.1337" stroke="#0000FF" stroke-width="0.96" stroke-linecap="round" fill="none" /><path transform="matrix(1 0 0 -1 0 842)" d="M332.7557 698.1337L327.8802 698.0253" stroke="#0000FF" stroke-width="0.96" stroke-linecap="round" fill="none" /><path transform="matrix(1 0 0 -1 0 842)" d="M327.8802 698.0253L324.1478 696.6901" stroke="#0000FF" stroke-width="0.96" stroke-linecap="round" fill="none" /><path transform="matrix(1 0 0 -1 0 842)" d="M324.1478 696.6901L321.7612 694.2878" stroke="#0000FF" stroke-width="0.96" stroke-linecap="round" fill="none" /><path transform="matrix(1 0 0 -1 0 842)" d="M321.7612 694.2878L320.874 691.0201" stroke="#0000FF" stroke-width="0.96" stroke-linecap="round" fill="none" /><path transform="matrix(1 0 0 -1 0 842)" d="M320.874 691.0201L321.5836 687.1207" stroke="#0000FF" stroke-width="0.96" stroke-linecap="round" fill="none" /><path transform="matrix(1 0 0 -1 0 842)" d="M321.5836 687.1207L323.9273 682.8447" stroke="#0000FF" stroke-width="0.96" stroke-linecap="round" fill="none" /><path transform="matrix(1 0 0 -1 0 842)" d="M323.9273 682.8447L327.8802 678.4554" stroke="#0000FF" stroke-width="0.96" stroke-linecap="round" fill="none" /><path transform="matrix(1 0 0 -1 0 842)" d="M327.8802 678.4554L333.3529 674.2131" stroke="#0000FF" stroke-width="0.96" stroke-linecap="round" fill="none" /><path transform="matrix(1 0 0 -1 0 842)" d="M333.3529 674.2131L340.1982 670.3623" stroke="#0000FF" stroke-width="0.96" stroke-linecap="round" fill="none" /><path transform="matrix(1 0 0 -1 0 842)" d="M340.1982 670.3623L348.2129 667.1206" stroke="#0000FF" stroke-width="0.96" stroke-linecap="round" fill="none" /><path transform="matrix(1 0 0 -1 0 842)" d="M348.2129 667.1206L357.1484 664.6686" stroke="#0000FF" stroke-width="0.96" stroke-linecap="round" fill="none" /><path transform="matrix(1 0 0 -1 0 842)" d="M357.1484 664.6686L366.7191 663.1414" stroke="#0000FF" stroke-width="0.96" stroke-linecap="round" fill="none" /><path transform="matrix(1 0 0 -1 0 842)" d="M366.7191 663.1414L376.6137 662.6229" stroke="#0000FF" stroke-width="0.96" stroke-linecap="round" fill="none" /></g><g clip-path="url(#9)"></g><g clip-path="url(#10)"></g><g clip-path="url(#11)"></g><g clip-path="url(#12)"></g><g clip-path="url(#13)"></g><g clip-path="url(#14)"></g><g clip-path="url(#15)"><path transform="matrix(1 0 0 -1 0 842)" d="M59.39685 443.3198L690.5032 443.3198L690.5032 443.3198L690.5032 417.9443L690.5032 417.9443L59.39685 417.9443z" stroke="none" fill="#FFFF99" fill-rule="winding" /><path transform="matrix(1 0 0 -1 0 842)" d="M59 443.7163L59.39685 443.7163L59.39685 443.7163L59.39685 417.5474L59.39685 417.5474L59 417.5474z" stroke="none" fill="#C0C0C0" fill-rule="winding" /><path transform="matrix(1 0 0 -1 0 842)" d="M59.39685 443.7163L690.9 443.7163L690.9 443.7163L690.9 443.3193L690.9 443.3193L59.39685 443.3193z" stroke="none" fill="#C0C0C0" fill-rule="winding" /><path transform="matrix(1 0 0 -1 0 842)" d="M690.5032 443.3198L690.9 443.3198L690.9 443.3198L690.9 417.9443L690.9 417.9443L690.5032 417.9443z" stroke="none" fill="#808080" fill-rule="winding" /><path transform="matrix(1 0 0 -1 0 842)" d="M59.39685 417.9443L690.9 417.9443L690.9 417.9443L690.9 417.5474L690.9 417.5474L59.39685 417.5474z" stroke="none" fill="#808080" fill-rule="winding" /><path transform="matrix(1 0 0 -1 0 842)" d="M59 358.7646L59.39685 358.7646L59.39685 358.7646L59.39685 183.2646L59.39685 183.2646L59 183.2646z" stroke="none" fill="#808080" fill-rule="winding" /><path transform="matrix(1 0 0 -1 0 842)" d="M59 358.7646L62.75 358.7646L62.75 358.7646L62.75 358.3677L62.75 358.3677L59 358.3677z" stroke="none" fill="#808080" fill-rule="winding" /><path transform="matrix(1 0 0 -1 0 842)" d="M59 183.2646L59.39685 183.2646L59.39685 183.2646L59.39685 -156.9351L59.39685 -156.9351L59 -156.9351z" stroke="none" fill="#808080" fill-rule="winding" /><path transform="matrix(1 0 0 -1 0 842)" d="M59 183.2646L61.8125 183.2646L61.8125 183.2646L61.8125 182.8677L61.8125 182.8677L59 182.8677z" stroke="none" fill="#808080" fill-rule="winding" /><path transform="matrix(1 0 0 -1 0 842)" d="M59 -156.5386L62.75 -156.5386L62.75 -156.5386L62.75 -156.9355L62.75 -156.9355L59 -156.9355z" stroke="none" fill="#808080" fill-rule="winding" /></g></g></g></g></svg>