<svg xmlns="http://www.w3.org/2000/svg" xmlns:xlink="http://www.w3.org/1999/xlink" id="body_5" preserveAspectRatio="xMinYMin meet" viewBox="0 0 793 1123"><defs><clipPath id="1"><path d="M0 842L0 0L0 0L595 0L595 0L595 842L595 842L0 842z" /></clipPath><clipPath id="2"><path d="M56 56L539.3 56L539.3 56L539.3 759.1149L539.3 759.1149L56 759.1149L56 759.1149L56 56z" /></clipPath><clipPath id="3"><path d="M56 56L539.3 56L539.3 56L539.3 759.1149L539.3 759.1149L56 759.1149L56 759.1149L56 56z" /></clipPath><clipPath id="4"><path d="M56 56L539.3 56L539.3 56L539.3 759.1149L539.3 759.1149L56 759.1149L56 759.1149L56 56z" /></clipPath><clipPath id="5"><path d="M56 56.02502L539.3 56.02502L539.3 56.02502L539.3 759.105L539.3 759.105L56 759.105L56 759.105L56 56.02502z" /></clipPath><clipPath id="6"><path d="M56 56L539.3 56L539.3 56L539.3 759.1149L539.3 759.1149L56 759.1149L56 759.1149L56 56z" /></clipPath><clipPath id="7"><path d="M56 56.02502L539.3 56.02502L539.3 56.02502L539.3 759.105L539.3 759.105L56 759.105L56 759.105L56 56.02502z" /></clipPath><clipPath id="8"><path d="M56 56L539.3 56L539.3 56L539.3 759.1149L539.3 759.1149L56 759.1149L56 759.1149L56 56z" /></clipPath><clipPath id="9"><path d="M56 56L539.3 56L539.3 56L539.3 759.1149L539.3 759.1149L56 759.1149L56 759.1149L56 56z" /></clipPath><clipPath id="10"><path d="M56 56L539.3 56L539.3 56L539.3 759.1149L539.3 759.1149L56 759.1149L56 759.1149L56 56z" /></clipPath></defs><g transform="matrix(1.333333 0 0 1.333333 0 0)"><g><g clip-path="url(#1)"><g clip-path="url(#2)"></g><g clip-path="url(#3)"><path transform="matrix(1 0 0 -1 0 842)" d="M59 3664.235L536.3 3664.235L536.3 3664.235L536.3 -11672.01L536.3 -11672.01L59 -11672.01z" stroke="none" fill="#FFFFFF" fill-rule="winding" /><path transform="matrix(1 0 0 -1 0 842)" d="M59 671.2969L59.39685 671.2969L59.39685 671.2969L59.39685 472.397L59.39685 472.397L59 472.397z" stroke="none" fill="#808080" fill-rule="winding" /><path transform="matrix(1 0 0 -1 0 842)" d="M59 671.2969L62.75 671.2969L62.75 671.2969L62.75 670.9001L62.75 670.9001L59 670.9001z" stroke="none" fill="#808080" fill-rule="winding" /><path transform="matrix(1 0 0 -1 0 842)" d="M59 472.7939L62.75 472.7939L62.75 472.7939L62.75 472.3972L62.75 472.3972L59 472.3972z" stroke="none" fill="#808080" fill-rule="winding" /><g transform="matrix(0.4798307 0 0 0.4794926 58.99999 398.1462)"><g transform="matrix(1 0 0 1 0 0)"><image x="0" y="0" xlink:href="img_08.png" width="709" height="473" /></g></g></g><g clip-path="url(#4)"><path transform="matrix(1 0 0 -1 0 842)" d="M59.39685 159.2971L690.5032 159.2971L690.5032 159.2971L690.5032 125.2219L690.5032 125.2219L59.39685 125.2219z" stroke="none" fill="#FFFF99" fill-rule="winding" /><path transform="matrix(1 0 0 -1 0 842)" d="M59 159.6941L59.39685 159.6941L59.39685 159.6941L59.39685 124.8252L59.39685 124.8252L59 124.8252z" stroke="none" fill="#C0C0C0" fill-rule="winding" /><path transform="matrix(1 0 0 -1 0 842)" d="M59.39685 159.6941L690.9 159.6941L690.9 159.6941L690.9 159.2971L690.9 159.2971L59.39685 159.2971z" stroke="none" fill="#C0C0C0" fill-rule="winding" /><path transform="matrix(1 0 0 -1 0 842)" d="M690.5032 159.2971L690.9 159.2971L690.9 159.2971L690.9 125.2219L690.9 125.2219L690.5032 125.2219z" stroke="none" fill="#808080" fill-rule="winding" /><path transform="matrix(1 0 0 -1 0 842)" d="M59.39685 125.2219L690.9 125.2219L690.9 125.2219L690.9 124.8252L690.9 124.8252L59.39685 124.8252z" stroke="none" fill="#808080" fill-rule="winding" /></g><g clip-path="url(#5)"></g><g clip-path="url(#6)"></g><g clip-path="url(#7)"></g><g clip-path="url(#8)"></g><g clip-path="url(#9)"></g><g clip-path="url(#10)"></g></g></g></g></svg>