<svg xmlns="http://www.w3.org/2000/svg" xmlns:xlink="http://www.w3.org/1999/xlink" id="body_21" preserveAspectRatio="xMinYMin meet" viewBox="0 0 793 1123"><defs><clipPath id="1"><path d="M0 842L0 0L0 0L595 0L595 0L595 842L595 842L0 842z" /></clipPath><clipPath id="2"><path d="M56 56L539.3 56L539.3 56L539.3 735.929L539.3 735.929L56 735.929L56 735.929L56 56z" /></clipPath><clipPath id="3"><path d="M56 56L539.3 56L539.3 56L539.3 735.929L539.3 735.929L56 735.929L56 735.929L56 56z" /></clipPath></defs><g transform="matrix(1.333333 0 0 1.333333 0 0)"><g><g clip-path="url(#1)"><g clip-path="url(#2)"></g><g clip-path="url(#3)"><path transform="matrix(1 0 0 -1 0 842)" d="M59 14471.88L536.3 14471.88L536.3 14471.88L536.3 -864.3613L536.3 -864.3613L59 -864.3613z" stroke="none" fill="#FFFFFF" fill-rule="winding" /><path transform="matrix(1 0 0 -1 0 842)" d="M59 797.6992L59.39685 797.6992L59.39685 797.6992L59.39685 739.1992L59.39685 739.1992L59 739.1992z" stroke="none" fill="#808080" fill-rule="winding" /><path transform="matrix(1 0 0 -1 0 842)" d="M59 797.6992L62.75 797.6992L62.75 797.6992L62.75 797.3027L62.75 797.3027L59 797.3027z" stroke="none" fill="#808080" fill-rule="winding" /><path transform="matrix(1 0 0 -1 0 842)" d="M59 739.1992L59.39685 739.1992L59.39685 739.1992L59.39685 474.5996L59.39685 474.5996L59 474.5996z" stroke="none" fill="#808080" fill-rule="winding" /><path transform="matrix(1 0 0 -1 0 842)" d="M59 739.1992L61.8125 739.1992L61.8125 739.1992L61.8125 738.8027L61.8125 738.8027L59 738.8027z" stroke="none" fill="#808080" fill-rule="winding" /><path transform="matrix(1 0 0 -1 0 842)" d="M59 474.9971L62.75 474.9971L62.75 474.9971L62.75 474.6006L62.75 474.6006L59 474.6006z" stroke="none" fill="#808080" fill-rule="winding" /><g transform="matrix(0.4799025 0 0 0.4801905 65.09374 102.8008)"><g transform="matrix(1 0 0 1 0 0)"><image x="0" y="0" xlink:href="img_38.png" width="827" height="551" /></g></g><path transform="matrix(1 0 0 -1 0 842)" d="M59 430.4141L59.39685 430.4141L59.39685 430.4141L59.39685 360.2139L59.39685 360.2139L59 360.2139z" stroke="none" fill="#808080" fill-rule="winding" /><path transform="matrix(1 0 0 -1 0 842)" d="M59 430.4141L62.75 430.4141L62.75 430.4141L62.75 430.0176L62.75 430.0176L59 430.0176z" stroke="none" fill="#808080" fill-rule="winding" /><path transform="matrix(1 0 0 -1 0 842)" d="M59 360.2139L59.39685 360.2139L59.39685 360.2139L59.39685 133.4141L59.39685 133.4141L59 133.4141z" stroke="none" fill="#808080" fill-rule="winding" /><path transform="matrix(1 0 0 -1 0 842)" d="M59 360.2139L61.8125 360.2139L61.8125 360.2139L61.8125 359.8174L61.8125 359.8174L59 359.8174z" stroke="none" fill="#808080" fill-rule="winding" /><path transform="matrix(1 0 0 -1 0 842)" d="M59 133.8105L62.75 133.8105L62.75 133.8105L62.75 133.4141L62.75 133.4141L59 133.4141z" stroke="none" fill="#808080" fill-rule="winding" /><g transform="matrix(0.4798307 0 0 0.4794926 65.09374 481.7861)"><g transform="matrix(1 0 0 1 0 0)"><image x="0" y="0" xlink:href="img_39.png" width="709" height="473" /></g></g></g></g></g></g></svg>