<svg xmlns="http://www.w3.org/2000/svg" xmlns:xlink="http://www.w3.org/1999/xlink" id="body_19" preserveAspectRatio="xMinYMin meet" viewBox="0 0 793 1123"><defs><clipPath id="1"><path d="M0 842L0 0L0 0L595 0L595 0L595 842L595 842L0 842z" /></clipPath><clipPath id="2"><path d="M56 56L539.3 56L539.3 56L539.3 565.7089L539.3 565.7089L56 565.7089L56 565.7089L56 56z" /></clipPath><clipPath id="3"><path d="M56 56L539.3 56L539.3 56L539.3 565.7089L539.3 565.7089L56 565.7089L56 565.7089L56 56z" /></clipPath><clipPath id="4"><path d="M56 56.02734L539.3 56.02734L539.3 56.02734L539.3 565.7274L539.3 565.7274L56 565.7274L56 565.7274L56 56.02734z" /></clipPath><clipPath id="5"><path d="M56 56L539.3 56L539.3 56L539.3 565.7089L539.3 565.7089L56 565.7089L56 565.7089L56 56z" /></clipPath><clipPath id="6"><path d="M56 56.02734L539.3 56.02734L539.3 56.02734L539.3 565.7274L539.3 565.7274L56 565.7274L56 565.7274L56 56.02734z" /></clipPath><clipPath id="7"><path d="M56 56L539.3 56L539.3 56L539.3 565.7089L539.3 565.7089L56 565.7089L56 565.7089L56 56z" /></clipPath><clipPath id="8"><path d="M56 56L539.3 56L539.3 56L539.3 565.7089L539.3 565.7089L56 565.7089L56 565.7089L56 56z" /></clipPath><clipPath id="9"><path d="M56 56.02734L539.3 56.02734L539.3 56.02734L539.3 565.7274L539.3 565.7274L56 565.7274L56 565.7274L56 56.02734z" /></clipPath><clipPath id="10"><path d="M56 56L539.3 56L539.3 56L539.3 565.7089L539.3 565.7089L56 565.7089L56 565.7089L56 56z" /></clipPath><clipPath id="11"><path d="M56 56L539.3 56L539.3 56L539.3 565.7089L539.3 565.7089L56 565.7089L56 565.7089L56 56z" /></clipPath><clipPath id="12"><path d="M56 56.02734L539.3 56.02734L539.3 56.02734L539.3 565.7274L539.3 565.7274L56 565.7274L56 565.7274L56 56.02734z" /></clipPath><clipPath id="13"><path d="M56 56L539.3 56L539.3 56L539.3 565.7089L539.3 565.7089L56 565.7089L56 565.7089L56 56z" /></clipPath><clipPath id="14"><path d="M56 56L539.3 56L539.3 56L539.3 565.7089L539.3 565.7089L56 565.7089L56 565.7089L56 56z" /></clipPath></defs><g transform="matrix(1.333333 0 0 1.333333 0 0)"><g><g clip-path="url(#1)"><g clip-path="url(#2)"></g><g clip-path="url(#3)"><path transform="matrix(1 0 0 -1 0 842)" d="M59 13237.89L536.3 13237.89L536.3 13237.89L536.3 -2098.348L536.3 -2098.348L59 -2098.348z" stroke="none" fill="#FFFFFF" fill-rule="winding" /><path transform="matrix(1 0 0 -1 0 842)" d="M59 1780.5L59.39685 1780.5L59.39685 1780.5L59.39685 786L59.39685 786L59 786z" stroke="none" fill="#808080" fill-rule="winding" /><path transform="matrix(1 0 0 -1 0 842)" d="M59 1780.5L62.75 1780.5L62.75 1780.5L62.75 1780.104L62.75 1780.104L59 1780.104z" stroke="none" fill="#808080" fill-rule="winding" /><path transform="matrix(1 0 0 -1 0 842)" d="M59 786L59.39685 786L59.39685 786L59.39685 521.4004L59.39685 521.4004L59 521.4004z" stroke="none" fill="#808080" fill-rule="winding" /><path transform="matrix(1 0 0 -1 0 842)" d="M59 786L61.8125 786L61.8125 786L61.8125 785.6035L61.8125 785.6035L59 785.6035z" stroke="none" fill="#808080" fill-rule="winding" /><path transform="matrix(1 0 0 -1 0 842)" d="M59 521.7969L62.75 521.7969L62.75 521.7969L62.75 521.4004L62.75 521.4004L59 521.4004z" stroke="none" fill="#808080" fill-rule="winding" /><g transform="matrix(0.4799025 0 0 0.4801905 65.09374 55.99908)"><g transform="matrix(1 0 0 1 0 0)"><image x="0" y="0" xlink:href="img_33.png" width="827" height="551" /></g></g></g><g clip-path="url(#4)"></g><g clip-path="url(#5)"></g><g clip-path="url(#6)"></g><g clip-path="url(#7)"></g><g clip-path="url(#8)"></g><g clip-path="url(#9)"></g><g clip-path="url(#10)"></g><g clip-path="url(#11)"><path transform="matrix(1 0 0 -1 0 842)" d="M59 364.7734L59.39685 364.7734L59.39685 364.7734L59.39685 341.374L59.39685 341.374L59 341.374z" stroke="none" fill="#808080" fill-rule="winding" /><path transform="matrix(1 0 0 -1 0 842)" d="M59 364.7734L62.75 364.7734L62.75 364.7734L62.75 364.377L62.75 364.377L59 364.377z" stroke="none" fill="#808080" fill-rule="winding" /><path transform="matrix(1 0 0 -1 0 842)" d="M59 341.374L59.39685 341.374L59.39685 341.374L59.39685 319.3535L59.39685 319.3535L59 319.3535z" stroke="none" fill="#808080" fill-rule="winding" /><path transform="matrix(1 0 0 -1 0 842)" d="M59 341.374L61.8125 341.374L61.8125 341.374L61.8125 340.9775L61.8125 340.9775L59 340.9775z" stroke="none" fill="#808080" fill-rule="winding" /><path transform="matrix(1 0 0 -1 0 842)" d="M59 319.751L62.75 319.751L62.75 319.751L62.75 319.3545L62.75 319.3545L59 319.3545z" stroke="none" fill="#808080" fill-rule="winding" /></g><g clip-path="url(#12)"></g><g clip-path="url(#13)"></g><g clip-path="url(#14)"></g></g></g></g></svg>