<svg xmlns="http://www.w3.org/2000/svg" xmlns:xlink="http://www.w3.org/1999/xlink" id="body_8" preserveAspectRatio="xMinYMin meet" viewBox="0 0 793 1123"><defs><clipPath id="1"><path d="M0 842L0 0L0 0L595 0L595 0L595 842L595 842L0 842z" /></clipPath><clipPath id="2"><path d="M56 56L539.3 56L539.3 56L539.3 784.726L539.3 784.726L56 784.726L56 784.726L56 56z" /></clipPath><clipPath id="3"><path d="M56 56L539.3 56L539.3 56L539.3 784.726L539.3 784.726L56 784.726L56 784.726L56 56z" /></clipPath><clipPath id="4"><path d="M55.97375 55.99982L539.2737 55.99982L539.2737 55.99982L539.2737 784.6998L539.2737 784.6998L55.97375 784.6998L55.97375 784.6998L55.97375 55.99982z" /></clipPath><clipPath id="5"><path d="M55.97375 55.99982L539.2737 55.99982L539.2737 55.99982L539.2737 784.6998L539.2737 784.6998L55.97375 784.6998L55.97375 784.6998L55.97375 55.99982z" /></clipPath><clipPath id="6"><path d="M55.97375 55.99982L539.2737 55.99982L539.2737 55.99982L539.2737 784.6998L539.2737 784.6998L55.97375 784.6998L55.97375 784.6998L55.97375 55.99982z" /></clipPath><clipPath id="7"><path d="M55.97375 55.99982L539.2737 55.99982L539.2737 55.99982L539.2737 784.6998L539.2737 784.6998L55.97375 784.6998L55.97375 784.6998L55.97375 55.99982z" /></clipPath><clipPath id="8"><path d="M55.97375 55.99982L539.2737 55.99982L539.2737 55.99982L539.2737 784.6998L539.2737 784.6998L55.97375 784.6998L55.97375 784.6998L55.97375 55.99982z" /></clipPath><clipPath id="9"><path d="M55.97375 55.99982L539.2737 55.99982L539.2737 55.99982L539.2737 784.6998L539.2737 784.6998L55.97375 784.6998L55.97375 784.6998L55.97375 55.99982z" /></clipPath><clipPath id="10"><path d="M55.97375 55.99982L539.2737 55.99982L539.2737 55.99982L539.2737 784.6998L539.2737 784.6998L55.97375 784.6998L55.97375 784.6998L55.97375 55.99982z" /></clipPath><clipPath id="11"><path d="M55.97375 55.99982L539.2737 55.99982L539.2737 55.99982L539.2737 784.6998L539.2737 784.6998L55.97375 784.6998L55.97375 784.6998L55.97375 55.99982z" /></clipPath><clipPath id="12"><path d="M55.97375 55.99982L539.2737 55.99982L539.2737 55.99982L539.2737 784.6998L539.2737 784.6998L55.97375 784.6998L55.97375 784.6998L55.97375 55.99982z" /></clipPath><clipPath id="13"><path d="M55.97375 55.99982L539.2737 55.99982L539.2737 55.99982L539.2737 784.6998L539.2737 784.6998L55.97375 784.6998L55.97375 784.6998L55.97375 55.99982z" /></clipPath><clipPath id="14"><path d="M56 56L539.3 56L539.3 56L539.3 784.726L539.3 784.726L56 784.726L56 784.726L56 56z" /></clipPath></defs><g transform="matrix(1.333333 0 0 1.333333 0 0)"><g><g clip-path="url(#1)"><g clip-path="url(#2)"></g><g clip-path="url(#3)"><path transform="matrix(1 0 0 -1 0 842)" d="M59 5573.72L536.3 5573.72L536.3 5573.72L536.3 -9762.521L536.3 -9762.521L59 -9762.521z" stroke="none" fill="#FFFFFF" fill-rule="winding" /><path transform="matrix(1 0 0 -1 0 842)" d="M59 961.5L59.39685 961.5L59.39685 961.5L59.39685 786L59.39685 786L59 786z" stroke="none" fill="#808080" fill-rule="winding" /><path transform="matrix(1 0 0 -1 0 842)" d="M59 961.5L62.75 961.5L62.75 961.5L62.75 961.103L62.75 961.103L59 961.103z" stroke="none" fill="#808080" fill-rule="winding" /><path transform="matrix(1 0 0 -1 0 842)" d="M59 786L59.39685 786L59.39685 786L59.39685 445.8003L59.39685 445.8003L59 445.8003z" stroke="none" fill="#808080" fill-rule="winding" /><path transform="matrix(1 0 0 -1 0 842)" d="M59 786L61.8125 786L61.8125 786L61.8125 785.603L61.8125 785.603L59 785.603z" stroke="none" fill="#808080" fill-rule="winding" /><path transform="matrix(1 0 0 -1 0 842)" d="M59 446.1968L62.75 446.1968L62.75 446.1968L62.75 445.7998L62.75 445.7998L59 445.7998z" stroke="none" fill="#808080" fill-rule="winding" /></g><g clip-path="url(#4)"><path transform="matrix(1 0 0 -1 0 842)" d="M65.09375 786.0002L575.3337 786.0002L575.3337 786.0002L575.3337 445.8002L575.3337 445.8002L65.09375 445.8002z" stroke="none" fill="#FFFFFF" fill-rule="winding" /><path transform="matrix(1 0 0 -1 0 842)" d="M65.09375 786.0002L575.3337 786.0002L575.3337 786.0002L575.3337 445.8602L575.3337 445.8602L65.09375 445.8602z" stroke="none" fill="#FFFFFF" fill-rule="winding" /></g><g clip-path="url(#5)"><path transform="matrix(1 0 0 -1 0 842)" d="M67.91375 783.1802L572.5137 783.1802L572.5137 783.1802L572.5137 448.6802L572.5137 448.6802L67.91375 448.6802z" stroke="none" fill="#FFFFFF" fill-rule="winding" /><path transform="matrix(1 0 0 -1 0 842)" d="M74.21375 588.7202L555.8337 588.7202" stroke="#000000" stroke-width="0.48" stroke-linecap="round" fill="none" /><path transform="matrix(1 0 0 -1 0 842)" d="M569.6937 588.7202L558.6537 591.0602L558.6537 591.0602L558.6537 586.3802L558.6537 586.3802L569.6937 588.7202z" stroke="none" fill="#000000" fill-rule="winding" /><path transform="matrix(1 0 0 -1 0 842)" d="M569.6937 588.7202L558.6537 591.0602" stroke="#000000" stroke-width="0.48" stroke-linecap="round" fill="none" /><path transform="matrix(1 0 0 -1 0 842)" d="M569.6937 588.7202L558.6537 586.3802" stroke="#000000" stroke-width="0.48" stroke-linecap="round" fill="none" /><path transform="matrix(1 0 0 -1 0 842)" d="M558.6537 591.0602L558.6537 586.3802" stroke="#000000" stroke-width="0.48" stroke-linecap="round" fill="none" /><path transform="matrix(1 0 0 -1 0 842)" d="M555.8337 588.7202L569.6937 588.7202" stroke="#000000" stroke-width="0.48" stroke-linecap="round" fill="none" /><path transform="matrix(1 0 0 -1 0 842)" d="M107.3191 588.7202L107.3191 654.9002" stroke="#000000" stroke-width="0.48" stroke-linecap="round" fill="none" /><path transform="matrix(1 0 0 -1 0 842)" d="M107.3191 668.7602L109.659 657.7202L109.659 657.7202L104.979 657.7202L104.979 657.7202L107.3191 668.7602z" stroke="none" fill="#000000" fill-rule="winding" /><path transform="matrix(1 0 0 -1 0 842)" d="M107.3191 668.7602L109.6591 657.7202" stroke="#000000" stroke-width="0.48" stroke-linecap="round" fill="none" /><path transform="matrix(1 0 0 -1 0 842)" d="M107.3191 668.7602L104.979 657.7202" stroke="#000000" stroke-width="0.48" stroke-linecap="round" fill="none" /><path transform="matrix(1 0 0 -1 0 842)" d="M109.6591 657.7202L104.979 657.7202" stroke="#000000" stroke-width="0.48" stroke-linecap="round" fill="none" /><path transform="matrix(1 0 0 -1 0 842)" d="M107.3191 654.9002L107.3191 668.7602" stroke="#000000" stroke-width="0.48" stroke-linecap="round" fill="none" /><path transform="matrix(1 0 0 -1 0 842)" d="M74.27375 585.9002L74.27375 591.5402" stroke="#000000" stroke-width="0.48" stroke-linecap="round" fill="none" /><path transform="matrix(1 0 0 -1 0 842)" d="M107.3337 585.9002L107.3337 591.5402" stroke="#000000" stroke-width="0.48" stroke-linecap="round" fill="none" /><path transform="matrix(1 0 0 -1 0 842)" d="M90.77375 587.3402L90.77375 590.1002" stroke="#000000" stroke-width="0.48" stroke-linecap="round" fill="none" /><path transform="matrix(1 0 0 -1 0 842)" d="M140.3937 585.9002L140.3937 591.5402" stroke="#000000" stroke-width="0.48" stroke-linecap="round" fill="none" /><path transform="matrix(1 0 0 -1 0 842)" d="M123.8337 587.3402L123.8337 590.1002" stroke="#000000" stroke-width="0.48" stroke-linecap="round" fill="none" /><path transform="matrix(1 0 0 -1 0 842)" d="M173.4538 585.9002L173.4538 591.5402" stroke="#000000" stroke-width="0.48" stroke-linecap="round" fill="none" /><path transform="matrix(1 0 0 -1 0 842)" d="M156.8937 587.3402L156.8937 590.1002" stroke="#000000" stroke-width="0.48" stroke-linecap="round" fill="none" /><path transform="matrix(1 0 0 -1 0 842)" d="M206.5137 585.9002L206.5137 591.5402" stroke="#000000" stroke-width="0.48" stroke-linecap="round" fill="none" /><path transform="matrix(1 0 0 -1 0 842)" d="M189.9538 587.3402L189.9538 590.1002" stroke="#000000" stroke-width="0.48" stroke-linecap="round" fill="none" /><path transform="matrix(1 0 0 -1 0 842)" d="M239.5737 585.9002L239.5737 591.5402" stroke="#000000" stroke-width="0.48" stroke-linecap="round" fill="none" /><path transform="matrix(1 0 0 -1 0 842)" d="M223.0137 587.3402L223.0137 590.1002" stroke="#000000" stroke-width="0.48" stroke-linecap="round" fill="none" /><path transform="matrix(1 0 0 -1 0 842)" d="M272.6337 585.9002L272.6337 591.5402" stroke="#000000" stroke-width="0.48" stroke-linecap="round" fill="none" /><path transform="matrix(1 0 0 -1 0 842)" d="M256.0737 587.3402L256.0737 590.1002" stroke="#000000" stroke-width="0.48" stroke-linecap="round" fill="none" /><path transform="matrix(1 0 0 -1 0 842)" d="M305.6337 585.9002L305.6337 591.5402" stroke="#000000" stroke-width="0.48" stroke-linecap="round" fill="none" /><path transform="matrix(1 0 0 -1 0 842)" d="M289.1337 587.3402L289.1337 590.1002" stroke="#000000" stroke-width="0.48" stroke-linecap="round" fill="none" /><path transform="matrix(1 0 0 -1 0 842)" d="M338.6938 585.9002L338.6938 591.5402" stroke="#000000" stroke-width="0.48" stroke-linecap="round" fill="none" /><path transform="matrix(1 0 0 -1 0 842)" d="M322.1938 587.3402L322.1938 590.1002" stroke="#000000" stroke-width="0.48" stroke-linecap="round" fill="none" /><path transform="matrix(1 0 0 -1 0 842)" d="M371.7538 585.9002L371.7538 591.5402" stroke="#000000" stroke-width="0.48" stroke-linecap="round" fill="none" /><path transform="matrix(1 0 0 -1 0 842)" d="M355.2538 587.3402L355.2538 590.1002" stroke="#000000" stroke-width="0.48" stroke-linecap="round" fill="none" /><path transform="matrix(1 0 0 -1 0 842)" d="M404.8138 585.9002L404.8138 591.5402" stroke="#000000" stroke-width="0.48" stroke-linecap="round" fill="none" /><path transform="matrix(1 0 0 -1 0 842)" d="M388.3138 587.3402L388.3138 590.1002" stroke="#000000" stroke-width="0.48" stroke-linecap="round" fill="none" /><path transform="matrix(1 0 0 -1 0 842)" d="M437.8737 585.9002L437.8737 591.5402" stroke="#000000" stroke-width="0.48" stroke-linecap="round" fill="none" /><path transform="matrix(1 0 0 -1 0 842)" d="M421.3737 587.3402L421.3737 590.1002" stroke="#000000" stroke-width="0.48" stroke-linecap="round" fill="none" /><path transform="matrix(1 0 0 -1 0 842)" d="M470.9337 585.9002L470.9337 591.5402" stroke="#000000" stroke-width="0.48" stroke-linecap="round" fill="none" /><path transform="matrix(1 0 0 -1 0 842)" d="M454.4337 587.3402L454.4337 590.1002" stroke="#000000" stroke-width="0.48" stroke-linecap="round" fill="none" /><path transform="matrix(1 0 0 -1 0 842)" d="M503.9937 585.9002L503.9937 591.5402" stroke="#000000" stroke-width="0.48" stroke-linecap="round" fill="none" /><path transform="matrix(1 0 0 -1 0 842)" d="M487.4937 587.3402L487.4937 590.1002" stroke="#000000" stroke-width="0.48" stroke-linecap="round" fill="none" /><path transform="matrix(1 0 0 -1 0 842)" d="M537.0537 585.9002L537.0537 591.5402" stroke="#000000" stroke-width="0.48" stroke-linecap="round" fill="none" /><path transform="matrix(1 0 0 -1 0 842)" d="M520.5537 587.3402L520.5537 590.1002" stroke="#000000" stroke-width="0.48" stroke-linecap="round" fill="none" /><path transform="matrix(1 0 0 -1 0 842)" d="M553.6138 587.3402L553.6138 590.1002" stroke="#000000" stroke-width="0.48" stroke-linecap="round" fill="none" /><path transform="matrix(1 0 0 -1 0 842)" d="M110.1391 588.7268L104.4991 588.7268" stroke="#000000" stroke-width="0.48" stroke-linecap="round" fill="none" /><path transform="matrix(1 0 0 -1 0 842)" d="M110.1391 621.8102L104.4991 621.8102" stroke="#000000" stroke-width="0.48" stroke-linecap="round" fill="none" /><path transform="matrix(1 0 0 -1 0 842)" d="M108.6991 605.2685L105.9391 605.2685" stroke="#000000" stroke-width="0.48" stroke-linecap="round" fill="none" /><path transform="matrix(1 0 0 -1 0 842)" d="M110.1391 654.8936L104.4991 654.8936" stroke="#000000" stroke-width="0.48" stroke-linecap="round" fill="none" /><path transform="matrix(1 0 0 -1 0 842)" d="M108.6991 638.3519L105.9391 638.3519" stroke="#000000" stroke-width="0.48" stroke-linecap="round" fill="none" /></g><g clip-path="url(#6)"><path transform="matrix(1 0 0 -1 0 842)" d="M521.8723 621.8102L521.807 623.8875" stroke="#000000" stroke-width="0.96" stroke-linecap="round" fill="none" /><path transform="matrix(1 0 0 -1 0 842)" d="M521.807 623.8875L521.6116 625.9567" stroke="#000000" stroke-width="0.96" stroke-linecap="round" fill="none" /><path transform="matrix(1 0 0 -1 0 842)" d="M521.6116 625.9567L521.2867 628.0094" stroke="#000000" stroke-width="0.96" stroke-linecap="round" fill="none" /><path transform="matrix(1 0 0 -1 0 842)" d="M521.2867 628.0094L520.8337 630.0377" stroke="#000000" stroke-width="0.96" stroke-linecap="round" fill="none" /><path transform="matrix(1 0 0 -1 0 842)" d="M520.8337 630.0377L520.2543 632.0335" stroke="#000000" stroke-width="0.96" stroke-linecap="round" fill="none" /><path transform="matrix(1 0 0 -1 0 842)" d="M520.2543 632.0335L519.5508 633.989" stroke="#000000" stroke-width="0.96" stroke-linecap="round" fill="none" /><path transform="matrix(1 0 0 -1 0 842)" d="M519.5508 633.989L518.7261 635.8964" stroke="#000000" stroke-width="0.96" stroke-linecap="round" fill="none" /><path transform="matrix(1 0 0 -1 0 842)" d="M518.7261 635.8964L517.7833 637.7482" stroke="#000000" stroke-width="0.96" stroke-linecap="round" fill="none" /><path transform="matrix(1 0 0 -1 0 842)" d="M517.7833 637.7482L516.7262 639.5372" stroke="#000000" stroke-width="0.96" stroke-linecap="round" fill="none" /><path transform="matrix(1 0 0 -1 0 842)" d="M516.7262 639.5372L515.5589 641.2561" stroke="#000000" stroke-width="0.96" stroke-linecap="round" fill="none" /><path transform="matrix(1 0 0 -1 0 842)" d="M515.5589 641.2561L514.286 642.8983" stroke="#000000" stroke-width="0.96" stroke-linecap="round" fill="none" /><path transform="matrix(1 0 0 -1 0 842)" d="M514.286 642.8983L512.9127 644.4573" stroke="#000000" stroke-width="0.96" stroke-linecap="round" fill="none" /><path transform="matrix(1 0 0 -1 0 842)" d="M512.9127 644.4573L511.4442 645.9269" stroke="#000000" stroke-width="0.96" stroke-linecap="round" fill="none" /><path transform="matrix(1 0 0 -1 0 842)" d="M511.4442 645.9269L509.8865 647.3014" stroke="#000000" stroke-width="0.96" stroke-linecap="round" fill="none" /><path transform="matrix(1 0 0 -1 0 842)" d="M509.8865 647.3014L508.2456 648.5752" stroke="#000000" stroke-width="0.96" stroke-linecap="round" fill="none" /><path transform="matrix(1 0 0 -1 0 842)" d="M508.2456 648.5752L506.528 649.7434" stroke="#000000" stroke-width="0.96" stroke-linecap="round" fill="none" /><path transform="matrix(1 0 0 -1 0 842)" d="M506.528 649.7434L504.7405 650.8014" stroke="#000000" stroke-width="0.96" stroke-linecap="round" fill="none" /><path transform="matrix(1 0 0 -1 0 842)" d="M504.7405 650.8014L502.8901 651.7449" stroke="#000000" stroke-width="0.96" stroke-linecap="round" fill="none" /><path transform="matrix(1 0 0 -1 0 842)" d="M502.8901 651.7449L500.9842 652.5704" stroke="#000000" stroke-width="0.96" stroke-linecap="round" fill="none" /><path transform="matrix(1 0 0 -1 0 842)" d="M500.9842 652.5704L499.0303 653.2744" stroke="#000000" stroke-width="0.96" stroke-linecap="round" fill="none" /><path transform="matrix(1 0 0 -1 0 842)" d="M499.0303 653.2744L497.036 653.8542" stroke="#000000" stroke-width="0.96" stroke-linecap="round" fill="none" /><path transform="matrix(1 0 0 -1 0 842)" d="M497.036 653.8542L495.0094 654.3076" stroke="#000000" stroke-width="0.96" stroke-linecap="round" fill="none" /><path transform="matrix(1 0 0 -1 0 842)" d="M495.0094 654.3076L492.9582 654.6327" stroke="#000000" stroke-width="0.96" stroke-linecap="round" fill="none" /><path transform="matrix(1 0 0 -1 0 842)" d="M492.9582 654.6327L490.8907 654.8283" stroke="#000000" stroke-width="0.96" stroke-linecap="round" fill="none" /><path transform="matrix(1 0 0 -1 0 842)" d="M490.8907 654.8283L488.8151 654.8936" stroke="#000000" stroke-width="0.96" stroke-linecap="round" fill="none" /><path transform="matrix(1 0 0 -1 0 842)" d="M488.8151 654.8936L486.7394 654.8283" stroke="#000000" stroke-width="0.96" stroke-linecap="round" fill="none" /><path transform="matrix(1 0 0 -1 0 842)" d="M486.7394 654.8283L484.6719 654.6327" stroke="#000000" stroke-width="0.96" stroke-linecap="round" fill="none" /><path transform="matrix(1 0 0 -1 0 842)" d="M484.6719 654.6327L482.6208 654.3076" stroke="#000000" stroke-width="0.96" stroke-linecap="round" fill="none" /><path transform="matrix(1 0 0 -1 0 842)" d="M482.6208 654.3076L480.5941 653.8542" stroke="#000000" stroke-width="0.96" stroke-linecap="round" fill="none" /><path transform="matrix(1 0 0 -1 0 842)" d="M480.5941 653.8542L478.5998 653.2744" stroke="#000000" stroke-width="0.96" stroke-linecap="round" fill="none" /><path transform="matrix(1 0 0 -1 0 842)" d="M478.5998 653.2744L476.6459 652.5703" stroke="#000000" stroke-width="0.96" stroke-linecap="round" fill="none" /><path transform="matrix(1 0 0 -1 0 842)" d="M476.6459 652.5703L474.74 651.7449" stroke="#000000" stroke-width="0.96" stroke-linecap="round" fill="none" /><path transform="matrix(1 0 0 -1 0 842)" d="M474.74 651.7449L472.8896 650.8013" stroke="#000000" stroke-width="0.96" stroke-linecap="round" fill="none" /><path transform="matrix(1 0 0 -1 0 842)" d="M472.8896 650.8013L471.1021 649.7434" stroke="#000000" stroke-width="0.96" stroke-linecap="round" fill="none" /><path transform="matrix(1 0 0 -1 0 842)" d="M471.1021 649.7434L469.3846 648.5752" stroke="#000000" stroke-width="0.96" stroke-linecap="round" fill="none" /><path transform="matrix(1 0 0 -1 0 842)" d="M469.3846 648.5752L467.7436 647.3013" stroke="#000000" stroke-width="0.96" stroke-linecap="round" fill="none" /><path transform="matrix(1 0 0 -1 0 842)" d="M467.7436 647.3013L466.1859 645.9269" stroke="#000000" stroke-width="0.96" stroke-linecap="round" fill="none" /><path transform="matrix(1 0 0 -1 0 842)" d="M466.1859 645.9269L464.7174 644.4573" stroke="#000000" stroke-width="0.96" stroke-linecap="round" fill="none" /><path transform="matrix(1 0 0 -1 0 842)" d="M464.7174 644.4573L463.3441 642.8983" stroke="#000000" stroke-width="0.96" stroke-linecap="round" fill="none" /><path transform="matrix(1 0 0 -1 0 842)" d="M463.3441 642.8983L462.0713 641.256" stroke="#000000" stroke-width="0.96" stroke-linecap="round" fill="none" /><path transform="matrix(1 0 0 -1 0 842)" d="M462.0713 641.256L460.904 639.5371" stroke="#000000" stroke-width="0.96" stroke-linecap="round" fill="none" /><path transform="matrix(1 0 0 -1 0 842)" d="M460.904 639.5371L459.8469 637.7482" stroke="#000000" stroke-width="0.96" stroke-linecap="round" fill="none" /><path transform="matrix(1 0 0 -1 0 842)" d="M459.8469 637.7482L458.9041 635.8964" stroke="#000000" stroke-width="0.96" stroke-linecap="round" fill="none" /><path transform="matrix(1 0 0 -1 0 842)" d="M458.9041 635.8964L458.0793 633.9889" stroke="#000000" stroke-width="0.96" stroke-linecap="round" fill="none" /><path transform="matrix(1 0 0 -1 0 842)" d="M458.0793 633.9889L457.3759 632.0334" stroke="#000000" stroke-width="0.96" stroke-linecap="round" fill="none" /><path transform="matrix(1 0 0 -1 0 842)" d="M457.3759 632.0334L456.7965 630.0376" stroke="#000000" stroke-width="0.96" stroke-linecap="round" fill="none" /><path transform="matrix(1 0 0 -1 0 842)" d="M456.7965 630.0376L456.3434 628.0093" stroke="#000000" stroke-width="0.96" stroke-linecap="round" fill="none" /><path transform="matrix(1 0 0 -1 0 842)" d="M456.3434 628.0093L456.0186 625.9565" stroke="#000000" stroke-width="0.96" stroke-linecap="round" fill="none" /><path transform="matrix(1 0 0 -1 0 842)" d="M456.0186 625.9565L455.8232 623.8875" stroke="#000000" stroke-width="0.96" stroke-linecap="round" fill="none" /><path transform="matrix(1 0 0 -1 0 842)" d="M455.8232 623.8875L455.758 621.8101" stroke="#000000" stroke-width="0.96" stroke-linecap="round" fill="none" /><path transform="matrix(1 0 0 -1 0 842)" d="M455.758 621.8101L455.8232 619.7328" stroke="#000000" stroke-width="0.96" stroke-linecap="round" fill="none" /><path transform="matrix(1 0 0 -1 0 842)" d="M455.8232 619.7328L456.0186 617.6636" stroke="#000000" stroke-width="0.96" stroke-linecap="round" fill="none" /><path transform="matrix(1 0 0 -1 0 842)" d="M456.0186 617.6636L456.3435 615.6109" stroke="#000000" stroke-width="0.96" stroke-linecap="round" fill="none" /><path transform="matrix(1 0 0 -1 0 842)" d="M456.3435 615.6109L456.7965 613.5826" stroke="#000000" stroke-width="0.96" stroke-linecap="round" fill="none" /><path transform="matrix(1 0 0 -1 0 842)" d="M456.7965 613.5826L457.3759 611.5868" stroke="#000000" stroke-width="0.96" stroke-linecap="round" fill="none" /><path transform="matrix(1 0 0 -1 0 842)" d="M457.3759 611.5868L458.0794 609.6313" stroke="#000000" stroke-width="0.96" stroke-linecap="round" fill="none" /><path transform="matrix(1 0 0 -1 0 842)" d="M458.0794 609.6313L458.9041 607.7239" stroke="#000000" stroke-width="0.96" stroke-linecap="round" fill="none" /><path transform="matrix(1 0 0 -1 0 842)" d="M458.9041 607.7239L459.847 605.8721" stroke="#000000" stroke-width="0.96" stroke-linecap="round" fill="none" /><path transform="matrix(1 0 0 -1 0 842)" d="M459.847 605.8721L460.9041 604.0831" stroke="#000000" stroke-width="0.96" stroke-linecap="round" fill="none" /><path transform="matrix(1 0 0 -1 0 842)" d="M460.9041 604.0831L462.0714 602.3642" stroke="#000000" stroke-width="0.96" stroke-linecap="round" fill="none" /><path transform="matrix(1 0 0 -1 0 842)" d="M462.0714 602.3642L463.3442 600.722" stroke="#000000" stroke-width="0.96" stroke-linecap="round" fill="none" /><path transform="matrix(1 0 0 -1 0 842)" d="M463.3442 600.722L464.7175 599.163" stroke="#000000" stroke-width="0.96" stroke-linecap="round" fill="none" /><path transform="matrix(1 0 0 -1 0 842)" d="M464.7175 599.163L466.186 597.6934" stroke="#000000" stroke-width="0.96" stroke-linecap="round" fill="none" /><path transform="matrix(1 0 0 -1 0 842)" d="M466.186 597.6934L467.7437 596.319" stroke="#000000" stroke-width="0.96" stroke-linecap="round" fill="none" /><path transform="matrix(1 0 0 -1 0 842)" d="M467.7437 596.319L469.3847 595.0451" stroke="#000000" stroke-width="0.96" stroke-linecap="round" fill="none" /><path transform="matrix(1 0 0 -1 0 842)" d="M469.3847 595.0451L471.1023 593.8769" stroke="#000000" stroke-width="0.96" stroke-linecap="round" fill="none" /><path transform="matrix(1 0 0 -1 0 842)" d="M471.1023 593.8769L472.8898 592.819" stroke="#000000" stroke-width="0.96" stroke-linecap="round" fill="none" /><path transform="matrix(1 0 0 -1 0 842)" d="M472.8898 592.819L474.7401 591.8754" stroke="#000000" stroke-width="0.96" stroke-linecap="round" fill="none" /><path transform="matrix(1 0 0 -1 0 842)" d="M474.7401 591.8754L476.6461 591.05" stroke="#000000" stroke-width="0.96" stroke-linecap="round" fill="none" /><path transform="matrix(1 0 0 -1 0 842)" d="M476.6461 591.05L478.6 590.346" stroke="#000000" stroke-width="0.96" stroke-linecap="round" fill="none" /><path transform="matrix(1 0 0 -1 0 842)" d="M478.6 590.346L480.5942 589.7662" stroke="#000000" stroke-width="0.96" stroke-linecap="round" fill="none" /><path transform="matrix(1 0 0 -1 0 842)" d="M480.5942 589.7662L482.6209 589.3127" stroke="#000000" stroke-width="0.96" stroke-linecap="round" fill="none" /><path transform="matrix(1 0 0 -1 0 842)" d="M482.6209 589.3127L484.6721 588.9877" stroke="#000000" stroke-width="0.96" stroke-linecap="round" fill="none" /><path transform="matrix(1 0 0 -1 0 842)" d="M484.6721 588.9877L486.7396 588.7921" stroke="#000000" stroke-width="0.96" stroke-linecap="round" fill="none" /><path transform="matrix(1 0 0 -1 0 842)" d="M486.7396 588.7921L488.8152 588.7268" stroke="#000000" stroke-width="0.96" stroke-linecap="round" fill="none" /><path transform="matrix(1 0 0 -1 0 842)" d="M488.8152 588.7268L490.8909 588.7921" stroke="#000000" stroke-width="0.96" stroke-linecap="round" fill="none" /><path transform="matrix(1 0 0 -1 0 842)" d="M490.8909 588.7921L492.9584 588.9877" stroke="#000000" stroke-width="0.96" stroke-linecap="round" fill="none" /><path transform="matrix(1 0 0 -1 0 842)" d="M492.9584 588.9877L495.0095 589.3128" stroke="#000000" stroke-width="0.96" stroke-linecap="round" fill="none" /><path transform="matrix(1 0 0 -1 0 842)" d="M495.0095 589.3128L497.0362 589.7662" stroke="#000000" stroke-width="0.96" stroke-linecap="round" fill="none" /><path transform="matrix(1 0 0 -1 0 842)" d="M497.0362 589.7662L499.0304 590.3461" stroke="#000000" stroke-width="0.96" stroke-linecap="round" fill="none" /><path transform="matrix(1 0 0 -1 0 842)" d="M499.0304 590.3461L500.9844 591.05" stroke="#000000" stroke-width="0.96" stroke-linecap="round" fill="none" /><path transform="matrix(1 0 0 -1 0 842)" d="M500.9844 591.05L502.8903 591.8755" stroke="#000000" stroke-width="0.96" stroke-linecap="round" fill="none" /><path transform="matrix(1 0 0 -1 0 842)" d="M502.8903 591.8755L504.7406 592.8191" stroke="#000000" stroke-width="0.96" stroke-linecap="round" fill="none" /><path transform="matrix(1 0 0 -1 0 842)" d="M504.7406 592.8191L506.5281 593.8771" stroke="#000000" stroke-width="0.96" stroke-linecap="round" fill="none" /><path transform="matrix(1 0 0 -1 0 842)" d="M506.5281 593.8771L508.2457 595.0453" stroke="#000000" stroke-width="0.96" stroke-linecap="round" fill="none" /><path transform="matrix(1 0 0 -1 0 842)" d="M508.2457 595.0453L509.8866 596.3191" stroke="#000000" stroke-width="0.96" stroke-linecap="round" fill="none" /><path transform="matrix(1 0 0 -1 0 842)" d="M509.8866 596.3191L511.4444 597.6935" stroke="#000000" stroke-width="0.96" stroke-linecap="round" fill="none" /><path transform="matrix(1 0 0 -1 0 842)" d="M511.4444 597.6935L512.9128 599.1631" stroke="#000000" stroke-width="0.96" stroke-linecap="round" fill="none" /><path transform="matrix(1 0 0 -1 0 842)" d="M512.9128 599.1631L514.2861 600.7222" stroke="#000000" stroke-width="0.96" stroke-linecap="round" fill="none" /><path transform="matrix(1 0 0 -1 0 842)" d="M514.2861 600.7222L515.559 602.3644" stroke="#000000" stroke-width="0.96" stroke-linecap="round" fill="none" /><path transform="matrix(1 0 0 -1 0 842)" d="M515.559 602.3644L516.7263 604.0834" stroke="#000000" stroke-width="0.96" stroke-linecap="round" fill="none" /><path transform="matrix(1 0 0 -1 0 842)" d="M516.7263 604.0834L517.7833 605.8723" stroke="#000000" stroke-width="0.96" stroke-linecap="round" fill="none" /><path transform="matrix(1 0 0 -1 0 842)" d="M517.7833 605.8723L518.7262 607.7241" stroke="#000000" stroke-width="0.96" stroke-linecap="round" fill="none" /><path transform="matrix(1 0 0 -1 0 842)" d="M518.7262 607.7241L519.5509 609.6315" stroke="#000000" stroke-width="0.96" stroke-linecap="round" fill="none" /><path transform="matrix(1 0 0 -1 0 842)" d="M519.5509 609.6315L520.2544 611.587" stroke="#000000" stroke-width="0.96" stroke-linecap="round" fill="none" /><path transform="matrix(1 0 0 -1 0 842)" d="M520.2544 611.587L520.8337 613.5828" stroke="#000000" stroke-width="0.96" stroke-linecap="round" fill="none" /><path transform="matrix(1 0 0 -1 0 842)" d="M520.8337 613.5828L521.2867 615.6111" stroke="#000000" stroke-width="0.96" stroke-linecap="round" fill="none" /><path transform="matrix(1 0 0 -1 0 842)" d="M521.2867 615.6111L521.6116 617.6639" stroke="#000000" stroke-width="0.96" stroke-linecap="round" fill="none" /><path transform="matrix(1 0 0 -1 0 842)" d="M521.6116 617.6639L521.807 619.733" stroke="#000000" stroke-width="0.96" stroke-linecap="round" fill="none" /><path transform="matrix(1 0 0 -1 0 842)" d="M521.807 619.733L521.8723 621.8104" stroke="#000000" stroke-width="0.96" stroke-linecap="round" fill="none" /></g><g clip-path="url(#7)"><path transform="matrix(1 0 0 -1 0 842)" d="M463.4337 638.8802C 463.4337 637.3228 462.1712 636.0602 460.6137 636.0602C 459.0563 636.0602 457.7938 637.3228 457.7938 638.8802C 457.7938 640.4376 459.0563 641.7002 460.6137 641.7002C 462.1712 641.7002 463.4337 640.4376 463.4337 638.8802z" stroke="none" fill="#0000FF" fill-rule="evenodd" /></g><g clip-path="url(#8)"><path transform="matrix(1 0 0 -1 0 842)" d="M107.3191 654.8936L113.6724 654.7407" stroke="#00FF00" stroke-width="0.96" stroke-linecap="round" fill="none" /><path transform="matrix(1 0 0 -1 0 842)" d="M113.6724 654.7407L119.9965 654.2835" stroke="#00FF00" stroke-width="0.96" stroke-linecap="round" fill="none" /><path transform="matrix(1 0 0 -1 0 842)" d="M119.9965 654.2835L126.2622 653.5262" stroke="#00FF00" stroke-width="0.96" stroke-linecap="round" fill="none" /><path transform="matrix(1 0 0 -1 0 842)" d="M126.2622 653.5262L132.4409 652.4758" stroke="#00FF00" stroke-width="0.96" stroke-linecap="round" fill="none" /><path transform="matrix(1 0 0 -1 0 842)" d="M132.4409 652.4758L138.505 651.1419" stroke="#00FF00" stroke-width="0.96" stroke-linecap="round" fill="none" /><path transform="matrix(1 0 0 -1 0 842)" d="M138.505 651.1419L144.4277 649.537" stroke="#00FF00" stroke-width="0.96" stroke-linecap="round" fill="none" /><path transform="matrix(1 0 0 -1 0 842)" d="M144.4277 649.537L150.1839 647.6758" stroke="#00FF00" stroke-width="0.96" stroke-linecap="round" fill="none" /><path transform="matrix(1 0 0 -1 0 842)" d="M150.1839 647.6758L155.7494 645.5756" stroke="#00FF00" stroke-width="0.96" stroke-linecap="round" fill="none" /><path transform="matrix(1 0 0 -1 0 842)" d="M155.7494 645.5756L161.1027 643.2558" stroke="#00FF00" stroke-width="0.96" stroke-linecap="round" fill="none" /><path transform="matrix(1 0 0 -1 0 842)" d="M161.1027 643.2558L166.2229 640.7379" stroke="#00FF00" stroke-width="0.96" stroke-linecap="round" fill="none" /><path transform="matrix(1 0 0 -1 0 842)" d="M166.2229 640.7379L171.0929 638.0449" stroke="#00FF00" stroke-width="0.96" stroke-linecap="round" fill="none" /><path transform="matrix(1 0 0 -1 0 842)" d="M171.0929 638.0449L175.6968 635.2017" stroke="#00FF00" stroke-width="0.96" stroke-linecap="round" fill="none" /><path transform="matrix(1 0 0 -1 0 842)" d="M175.6968 635.2017L180.021 632.2351" stroke="#00FF00" stroke-width="0.96" stroke-linecap="round" fill="none" /><path transform="matrix(1 0 0 -1 0 842)" d="M180.021 632.2351L184.0553 629.1719" stroke="#00FF00" stroke-width="0.96" stroke-linecap="round" fill="none" /><path transform="matrix(1 0 0 -1 0 842)" d="M184.0553 629.1719L187.7921 626.0409" stroke="#00FF00" stroke-width="0.96" stroke-linecap="round" fill="none" /><path transform="matrix(1 0 0 -1 0 842)" d="M187.7921 626.0409L191.2257 622.8705" stroke="#00FF00" stroke-width="0.96" stroke-linecap="round" fill="none" /><path transform="matrix(1 0 0 -1 0 842)" d="M191.2257 622.8705L194.3539 619.6906" stroke="#00FF00" stroke-width="0.96" stroke-linecap="round" fill="none" /><path transform="matrix(1 0 0 -1 0 842)" d="M194.3539 619.6906L197.177 616.5301" stroke="#00FF00" stroke-width="0.96" stroke-linecap="round" fill="none" /><path transform="matrix(1 0 0 -1 0 842)" d="M197.177 616.5301L199.6989 613.4185" stroke="#00FF00" stroke-width="0.96" stroke-linecap="round" fill="none" /><path transform="matrix(1 0 0 -1 0 842)" d="M199.6989 613.4185L201.925 610.3843" stroke="#00FF00" stroke-width="0.96" stroke-linecap="round" fill="none" /><path transform="matrix(1 0 0 -1 0 842)" d="M201.925 610.3843L203.8644 607.4558" stroke="#00FF00" stroke-width="0.96" stroke-linecap="round" fill="none" /><path transform="matrix(1 0 0 -1 0 842)" d="M203.8644 607.4558L205.5289 604.66" stroke="#00FF00" stroke-width="0.96" stroke-linecap="round" fill="none" /><path transform="matrix(1 0 0 -1 0 842)" d="M205.5289 604.66L206.9318 602.0226" stroke="#00FF00" stroke-width="0.96" stroke-linecap="round" fill="none" /><path transform="matrix(1 0 0 -1 0 842)" d="M206.9318 602.0226L208.0901 599.5682" stroke="#00FF00" stroke-width="0.96" stroke-linecap="round" fill="none" /><path transform="matrix(1 0 0 -1 0 842)" d="M208.0901 599.5682L209.022 597.3193" stroke="#00FF00" stroke-width="0.96" stroke-linecap="round" fill="none" /><path transform="matrix(1 0 0 -1 0 842)" d="M209.022 597.3193L209.7486 595.2967" stroke="#00FF00" stroke-width="0.96" stroke-linecap="round" fill="none" /><path transform="matrix(1 0 0 -1 0 842)" d="M209.7486 595.2967L210.2927 593.5192" stroke="#00FF00" stroke-width="0.96" stroke-linecap="round" fill="none" /><path transform="matrix(1 0 0 -1 0 842)" d="M210.2927 593.5192L210.6782 592.0031" stroke="#00FF00" stroke-width="0.96" stroke-linecap="round" fill="none" /><path transform="matrix(1 0 0 -1 0 842)" d="M210.6782 592.0031L210.9311 590.7625" stroke="#00FF00" stroke-width="0.96" stroke-linecap="round" fill="none" /><path transform="matrix(1 0 0 -1 0 842)" d="M210.9311 590.7625L211.0785 589.8088" stroke="#00FF00" stroke-width="0.96" stroke-linecap="round" fill="none" /><path transform="matrix(1 0 0 -1 0 842)" d="M211.0785 589.8088L211.1486 589.1509" stroke="#00FF00" stroke-width="0.96" stroke-linecap="round" fill="none" /><path transform="matrix(1 0 0 -1 0 842)" d="M211.1486 589.1509L211.1698 588.7948" stroke="#00FF00" stroke-width="0.96" stroke-linecap="round" fill="none" /><path transform="matrix(1 0 0 -1 0 842)" d="M211.1698 588.7948L211.1714 588.7438" stroke="#00FF00" stroke-width="0.96" stroke-linecap="round" fill="none" /><path transform="matrix(1 0 0 -1 0 842)" d="M211.1714 588.7438L211.1826 588.9984" stroke="#00FF00" stroke-width="0.96" stroke-linecap="round" fill="none" /><path transform="matrix(1 0 0 -1 0 842)" d="M211.1826 588.9984L211.2332 589.5563" stroke="#00FF00" stroke-width="0.96" stroke-linecap="round" fill="none" /><path transform="matrix(1 0 0 -1 0 842)" d="M211.2332 589.5563L211.3519 590.4122" stroke="#00FF00" stroke-width="0.96" stroke-linecap="round" fill="none" /><path transform="matrix(1 0 0 -1 0 842)" d="M211.3519 590.4122L211.5664 591.5583" stroke="#00FF00" stroke-width="0.96" stroke-linecap="round" fill="none" /><path transform="matrix(1 0 0 -1 0 842)" d="M211.5664 591.5583L211.9049 592.984" stroke="#00FF00" stroke-width="0.96" stroke-linecap="round" fill="none" /><path transform="matrix(1 0 0 -1 0 842)" d="M211.9049 592.984L212.3932 594.6761" stroke="#00FF00" stroke-width="0.96" stroke-linecap="round" fill="none" /><path transform="matrix(1 0 0 -1 0 842)" d="M212.3932 594.6761L213.0563 596.619" stroke="#00FF00" stroke-width="0.96" stroke-linecap="round" fill="none" /><path transform="matrix(1 0 0 -1 0 842)" d="M213.0563 596.619L213.9175 598.7946" stroke="#00FF00" stroke-width="0.96" stroke-linecap="round" fill="none" /><path transform="matrix(1 0 0 -1 0 842)" d="M213.9175 598.7946L214.9981 601.183" stroke="#00FF00" stroke-width="0.96" stroke-linecap="round" fill="none" /><path transform="matrix(1 0 0 -1 0 842)" d="M214.9981 601.183L216.3174 603.762" stroke="#00FF00" stroke-width="0.96" stroke-linecap="round" fill="none" /><path transform="matrix(1 0 0 -1 0 842)" d="M216.3174 603.762L217.8929 606.5079" stroke="#00FF00" stroke-width="0.96" stroke-linecap="round" fill="none" /><path transform="matrix(1 0 0 -1 0 842)" d="M217.8929 606.5079L219.7395 609.3951" stroke="#00FF00" stroke-width="0.96" stroke-linecap="round" fill="none" /><path transform="matrix(1 0 0 -1 0 842)" d="M219.7395 609.3951L221.869 612.397" stroke="#00FF00" stroke-width="0.96" stroke-linecap="round" fill="none" /><path transform="matrix(1 0 0 -1 0 842)" d="M221.869 612.397L224.2915 615.486" stroke="#00FF00" stroke-width="0.96" stroke-linecap="round" fill="none" /><path transform="matrix(1 0 0 -1 0 842)" d="M224.2915 615.486L227.0137 618.6334" stroke="#00FF00" stroke-width="0.96" stroke-linecap="round" fill="none" /><path transform="matrix(1 0 0 -1 0 842)" d="M227.0137 618.6334L230.0401 621.8102" stroke="#00FF00" stroke-width="0.96" stroke-linecap="round" fill="none" /><path transform="matrix(1 0 0 -1 0 842)" d="M230.0401 621.8102L233.3719 624.9868" stroke="#00FF00" stroke-width="0.96" stroke-linecap="round" fill="none" /><path transform="matrix(1 0 0 -1 0 842)" d="M233.3719 624.9868L237.0079 628.1344" stroke="#00FF00" stroke-width="0.96" stroke-linecap="round" fill="none" /><path transform="matrix(1 0 0 -1 0 842)" d="M237.0079 628.1344L240.9437 631.2234" stroke="#00FF00" stroke-width="0.96" stroke-linecap="round" fill="none" /><path transform="matrix(1 0 0 -1 0 842)" d="M240.9437 631.2234L245.1727 634.2254" stroke="#00FF00" stroke-width="0.96" stroke-linecap="round" fill="none" /><path transform="matrix(1 0 0 -1 0 842)" d="M245.1727 634.2254L249.6846 637.1125" stroke="#00FF00" stroke-width="0.96" stroke-linecap="round" fill="none" /><path transform="matrix(1 0 0 -1 0 842)" d="M249.6846 637.1125L254.4673 639.8582" stroke="#00FF00" stroke-width="0.96" stroke-linecap="round" fill="none" /><path transform="matrix(1 0 0 -1 0 842)" d="M254.4673 639.8582L259.5062 642.4373" stroke="#00FF00" stroke-width="0.96" stroke-linecap="round" fill="none" /><path transform="matrix(1 0 0 -1 0 842)" d="M259.5062 642.4373L264.7838 644.8256" stroke="#00FF00" stroke-width="0.96" stroke-linecap="round" fill="none" /><path transform="matrix(1 0 0 -1 0 842)" d="M264.7838 644.8256L270.2809 647.0015" stroke="#00FF00" stroke-width="0.96" stroke-linecap="round" fill="none" /><path transform="matrix(1 0 0 -1 0 842)" d="M270.2809 647.0015L275.976 648.9442" stroke="#00FF00" stroke-width="0.96" stroke-linecap="round" fill="none" /><path transform="matrix(1 0 0 -1 0 842)" d="M275.976 648.9442L281.8459 650.6364" stroke="#00FF00" stroke-width="0.96" stroke-linecap="round" fill="none" /><path transform="matrix(1 0 0 -1 0 842)" d="M281.8459 650.6364L287.866 652.062" stroke="#00FF00" stroke-width="0.96" stroke-linecap="round" fill="none" /><path transform="matrix(1 0 0 -1 0 842)" d="M287.866 652.062L294.0096 653.2083" stroke="#00FF00" stroke-width="0.96" stroke-linecap="round" fill="none" /><path transform="matrix(1 0 0 -1 0 842)" d="M294.0096 653.2083L300.2492 654.0641" stroke="#00FF00" stroke-width="0.96" stroke-linecap="round" fill="none" /><path transform="matrix(1 0 0 -1 0 842)" d="M300.2492 654.0641L306.5572 654.6219" stroke="#00FF00" stroke-width="0.96" stroke-linecap="round" fill="none" /><path transform="matrix(1 0 0 -1 0 842)" d="M306.5572 654.6219L312.9041 654.8767" stroke="#00FF00" stroke-width="0.96" stroke-linecap="round" fill="none" /><path transform="matrix(1 0 0 -1 0 842)" d="M312.9041 654.8767L319.2607 654.8257" stroke="#00FF00" stroke-width="0.96" stroke-linecap="round" fill="none" /><path transform="matrix(1 0 0 -1 0 842)" d="M319.2607 654.8257L325.5977 654.4694" stroke="#00FF00" stroke-width="0.96" stroke-linecap="round" fill="none" /><path transform="matrix(1 0 0 -1 0 842)" d="M325.5977 654.4694L331.8862 653.8114" stroke="#00FF00" stroke-width="0.96" stroke-linecap="round" fill="none" /><path transform="matrix(1 0 0 -1 0 842)" d="M331.8862 653.8114L338.097 652.8579" stroke="#00FF00" stroke-width="0.96" stroke-linecap="round" fill="none" /><path transform="matrix(1 0 0 -1 0 842)" d="M338.097 652.8579L344.2023 651.6173" stroke="#00FF00" stroke-width="0.96" stroke-linecap="round" fill="none" /><path transform="matrix(1 0 0 -1 0 842)" d="M344.2023 651.6173L350.1751 650.1011" stroke="#00FF00" stroke-width="0.96" stroke-linecap="round" fill="none" /><path transform="matrix(1 0 0 -1 0 842)" d="M350.1751 650.1011L355.9895 648.3235" stroke="#00FF00" stroke-width="0.96" stroke-linecap="round" fill="none" /><path transform="matrix(1 0 0 -1 0 842)" d="M355.9895 648.3235L361.6211 646.3011" stroke="#00FF00" stroke-width="0.96" stroke-linecap="round" fill="none" /><path transform="matrix(1 0 0 -1 0 842)" d="M361.6211 646.3011L367.0474 644.0521" stroke="#00FF00" stroke-width="0.96" stroke-linecap="round" fill="none" /><path transform="matrix(1 0 0 -1 0 842)" d="M367.0474 644.0521L372.2473 641.5977" stroke="#00FF00" stroke-width="0.96" stroke-linecap="round" fill="none" /><path transform="matrix(1 0 0 -1 0 842)" d="M372.2473 641.5977L377.2026 638.9603" stroke="#00FF00" stroke-width="0.96" stroke-linecap="round" fill="none" /><path transform="matrix(1 0 0 -1 0 842)" d="M377.2026 638.9603L381.8967 636.1644" stroke="#00FF00" stroke-width="0.96" stroke-linecap="round" fill="none" /><path transform="matrix(1 0 0 -1 0 842)" d="M381.8967 636.1644L386.3155 633.2362" stroke="#00FF00" stroke-width="0.96" stroke-linecap="round" fill="none" /><path transform="matrix(1 0 0 -1 0 842)" d="M386.3155 633.2362L390.4476 630.2018" stroke="#00FF00" stroke-width="0.96" stroke-linecap="round" fill="none" /><path transform="matrix(1 0 0 -1 0 842)" d="M390.4476 630.2018L394.2842 627.0903" stroke="#00FF00" stroke-width="0.96" stroke-linecap="round" fill="none" /><path transform="matrix(1 0 0 -1 0 842)" d="M394.2842 627.0903L397.819 623.9298" stroke="#00FF00" stroke-width="0.96" stroke-linecap="round" fill="none" /><path transform="matrix(1 0 0 -1 0 842)" d="M397.819 623.9298L401.049 620.7498" stroke="#00FF00" stroke-width="0.96" stroke-linecap="round" fill="none" /><path transform="matrix(1 0 0 -1 0 842)" d="M401.049 620.7498L403.9739 617.5796" stroke="#00FF00" stroke-width="0.96" stroke-linecap="round" fill="none" /><path transform="matrix(1 0 0 -1 0 842)" d="M403.9739 617.5796L406.5957 614.4484" stroke="#00FF00" stroke-width="0.96" stroke-linecap="round" fill="none" /><path transform="matrix(1 0 0 -1 0 842)" d="M406.5957 614.4484L408.9196 611.3854" stroke="#00FF00" stroke-width="0.96" stroke-linecap="round" fill="none" /><path transform="matrix(1 0 0 -1 0 842)" d="M408.9196 611.3854L410.9536 608.4186" stroke="#00FF00" stroke-width="0.96" stroke-linecap="round" fill="none" /><path transform="matrix(1 0 0 -1 0 842)" d="M410.9536 608.4186L412.7079 605.5756" stroke="#00FF00" stroke-width="0.96" stroke-linecap="round" fill="none" /><path transform="matrix(1 0 0 -1 0 842)" d="M412.7079 605.5756L414.1965 602.8826" stroke="#00FF00" stroke-width="0.96" stroke-linecap="round" fill="none" /><path transform="matrix(1 0 0 -1 0 842)" d="M414.1965 602.8826L415.4342 600.3646" stroke="#00FF00" stroke-width="0.96" stroke-linecap="round" fill="none" /><path transform="matrix(1 0 0 -1 0 842)" d="M415.4342 600.3646L416.4395 598.0448" stroke="#00FF00" stroke-width="0.96" stroke-linecap="round" fill="none" /><path transform="matrix(1 0 0 -1 0 842)" d="M416.4395 598.0448L417.2321 595.9446" stroke="#00FF00" stroke-width="0.96" stroke-linecap="round" fill="none" /><path transform="matrix(1 0 0 -1 0 842)" d="M417.2321 595.9446L417.8344 594.0834" stroke="#00FF00" stroke-width="0.96" stroke-linecap="round" fill="none" /><path transform="matrix(1 0 0 -1 0 842)" d="M417.8344 594.0834L418.2698 592.4785" stroke="#00FF00" stroke-width="0.96" stroke-linecap="round" fill="none" /><path transform="matrix(1 0 0 -1 0 842)" d="M418.2698 592.4785L418.564 591.1447" stroke="#00FF00" stroke-width="0.96" stroke-linecap="round" fill="none" /><path transform="matrix(1 0 0 -1 0 842)" d="M418.564 591.1447L418.7435 590.0942" stroke="#00FF00" stroke-width="0.96" stroke-linecap="round" fill="none" /><path transform="matrix(1 0 0 -1 0 842)" d="M418.7435 590.0942L418.8361 589.3369" stroke="#00FF00" stroke-width="0.96" stroke-linecap="round" fill="none" /><path transform="matrix(1 0 0 -1 0 842)" d="M418.8361 589.3369L418.8705 588.8797" stroke="#00FF00" stroke-width="0.96" stroke-linecap="round" fill="none" /><path transform="matrix(1 0 0 -1 0 842)" d="M418.8705 588.8797L418.8754 588.7268" stroke="#00FF00" stroke-width="0.96" stroke-linecap="round" fill="none" /><path transform="matrix(1 0 0 -1 0 842)" d="M418.8754 588.7268L418.8804 588.8797" stroke="#00FF00" stroke-width="0.96" stroke-linecap="round" fill="none" /><path transform="matrix(1 0 0 -1 0 842)" d="M418.8804 588.8797L418.9145 589.3369" stroke="#00FF00" stroke-width="0.96" stroke-linecap="round" fill="none" /><path transform="matrix(1 0 0 -1 0 842)" d="M418.9145 589.3369L419.007 590.0942" stroke="#00FF00" stroke-width="0.96" stroke-linecap="round" fill="none" /><path transform="matrix(1 0 0 -1 0 842)" d="M419.007 590.0942L419.1868 591.1447" stroke="#00FF00" stroke-width="0.96" stroke-linecap="round" fill="none" /><path transform="matrix(1 0 0 -1 0 842)" d="M419.1868 591.1447L419.481 592.4785" stroke="#00FF00" stroke-width="0.96" stroke-linecap="round" fill="none" /><path transform="matrix(1 0 0 -1 0 842)" d="M419.481 592.4785L419.9164 594.0834" stroke="#00FF00" stroke-width="0.96" stroke-linecap="round" fill="none" /><path transform="matrix(1 0 0 -1 0 842)" d="M419.9164 594.0834L420.5187 595.9446" stroke="#00FF00" stroke-width="0.96" stroke-linecap="round" fill="none" /><path transform="matrix(1 0 0 -1 0 842)" d="M420.5187 595.9446L421.3114 598.0448" stroke="#00FF00" stroke-width="0.96" stroke-linecap="round" fill="none" /><path transform="matrix(1 0 0 -1 0 842)" d="M421.3114 598.0448L422.3163 600.3646" stroke="#00FF00" stroke-width="0.96" stroke-linecap="round" fill="none" /><path transform="matrix(1 0 0 -1 0 842)" d="M422.3163 600.3646L423.5544 602.8826" stroke="#00FF00" stroke-width="0.96" stroke-linecap="round" fill="none" /><path transform="matrix(1 0 0 -1 0 842)" d="M423.5544 602.8826L425.0426 605.5756" stroke="#00FF00" stroke-width="0.96" stroke-linecap="round" fill="none" /><path transform="matrix(1 0 0 -1 0 842)" d="M425.0426 605.5756L426.7972 608.4186" stroke="#00FF00" stroke-width="0.96" stroke-linecap="round" fill="none" /><path transform="matrix(1 0 0 -1 0 842)" d="M426.7972 608.4186L428.8313 611.3854" stroke="#00FF00" stroke-width="0.96" stroke-linecap="round" fill="none" /><path transform="matrix(1 0 0 -1 0 842)" d="M428.8313 611.3854L431.1552 614.4484" stroke="#00FF00" stroke-width="0.96" stroke-linecap="round" fill="none" /><path transform="matrix(1 0 0 -1 0 842)" d="M431.1552 614.4484L433.7769 617.5796" stroke="#00FF00" stroke-width="0.96" stroke-linecap="round" fill="none" /><path transform="matrix(1 0 0 -1 0 842)" d="M433.7769 617.5796L436.7015 620.7498" stroke="#00FF00" stroke-width="0.96" stroke-linecap="round" fill="none" /><path transform="matrix(1 0 0 -1 0 842)" d="M436.7015 620.7498L439.9302 623.9298" stroke="#00FF00" stroke-width="0.96" stroke-linecap="round" fill="none" /><path transform="matrix(1 0 0 -1 0 842)" d="M439.9302 623.9298L443.4673 627.0903" stroke="#00FF00" stroke-width="0.96" stroke-linecap="round" fill="none" /><path transform="matrix(1 0 0 -1 0 842)" d="M443.4673 627.0903L447.3019 630.2018" stroke="#00FF00" stroke-width="0.96" stroke-linecap="round" fill="none" /><path transform="matrix(1 0 0 -1 0 842)" d="M447.3019 630.2018L451.4341 633.2362" stroke="#00FF00" stroke-width="0.96" stroke-linecap="round" fill="none" /><path transform="matrix(1 0 0 -1 0 842)" d="M451.4341 633.2362L455.8538 636.1644" stroke="#00FF00" stroke-width="0.96" stroke-linecap="round" fill="none" /><path transform="matrix(1 0 0 -1 0 842)" d="M455.8538 636.1644L460.5479 638.9603" stroke="#00FF00" stroke-width="0.96" stroke-linecap="round" fill="none" /></g><g clip-path="url(#9)"></g><g clip-path="url(#10)"></g><g clip-path="url(#11)"></g><g clip-path="url(#12)"></g><g clip-path="url(#13)"></g><g clip-path="url(#14)"><path transform="matrix(1 0 0 -1 0 842)" d="M59 326.374L59.39685 326.374L59.39685 326.374L59.39685 -12.92627L59.39685 -12.92627L59 -12.92627z" stroke="none" fill="#808080" fill-rule="winding" /><path transform="matrix(1 0 0 -1 0 842)" d="M59 326.374L62.75 326.374L62.75 326.374L62.75 325.9771L62.75 325.9771L59 325.9771z" stroke="none" fill="#808080" fill-rule="winding" /></g></g></g></g></svg>