<svg xmlns="http://www.w3.org/2000/svg" xmlns:xlink="http://www.w3.org/1999/xlink" id="body_2" preserveAspectRatio="xMinYMin meet" viewBox="0 0 793 1123"><defs><clipPath id="1"><path d="M0 842L0 0L0 0L595 0L595 0L595 842L595 842L0 842z" /></clipPath><clipPath id="2"><path d="M56 56L539.3 56L539.3 56L539.3 777.02L539.3 777.02L56 777.02L56 777.02L56 56z" /></clipPath><clipPath id="3"><path d="M56 56L539.3 56L539.3 56L539.3 777.02L539.3 777.02L56 777.02L56 777.02L56 56z" /></clipPath></defs><g transform="matrix(1.333333 0 0 1.333333 0 0)"><g><g clip-path="url(#1)"><g clip-path="url(#2)"></g><g clip-path="url(#3)"><path transform="matrix(1 0 0 -1 0 842)" d="M59 1498.779L536.3 1498.779L536.3 1498.779L536.3 -13837.46L536.3 -13837.46L59 -13837.46z" stroke="none" fill="#FFFFFF" fill-rule="winding" /><path transform="matrix(1 0 0 -1 0 842)" d="M59 962.9399L59.4 962.9399L59.4 962.9399L59.4 785.9999L59.4 785.9999L59 785.9999z" stroke="none" fill="#808080" fill-rule="winding" /><path transform="matrix(1 0 0 -1 0 842)" d="M59 962.9399L62.75 962.9399L62.75 962.9399L62.75 962.5399L62.75 962.5399L59 962.5399z" stroke="none" fill="#808080" fill-rule="winding" /><path transform="matrix(1 0 0 -1 0 842)" d="M59 785.9999L59.4 785.9999L59.4 785.9999L59.4 559.2L59.4 559.2L59 559.2z" stroke="none" fill="#808080" fill-rule="winding" /><path transform="matrix(1 0 0 -1 0 842)" d="M59 785.9999L61.8125 785.9999L61.8125 785.9999L61.8125 785.5999L61.8125 785.5999L59 785.5999z" stroke="none" fill="#808080" fill-rule="winding" /><path transform="matrix(1 0 0 -1 0 842)" d="M59 559.6L62.75 559.6L62.75 559.6L62.75 559.2L62.75 559.2L59 559.2z" stroke="none" fill="#808080" fill-rule="winding" /><g transform="matrix(0.4798307 0 0 0.4794926 65.09937 55.99957)"><g transform="matrix(1 0 0 1 0 0)"><image x="0" y="0" xlink:href="img_02.png" width="709" height="473" /></g></g><path transform="matrix(1 0 0 -1 0 842)" d="M59 322.3799L59.4 322.3799L59.4 322.3799L59.4 -110.52L59.4 -110.52L59 -110.52z" stroke="none" fill="#808080" fill-rule="winding" /><path transform="matrix(1 0 0 -1 0 842)" d="M59 322.3799L62.75 322.3799L62.75 322.3799L62.75 321.98L62.75 321.98L59 321.98z" stroke="none" fill="#808080" fill-rule="winding" /></g></g></g></g></svg>