<svg xmlns="http://www.w3.org/2000/svg" xmlns:xlink="http://www.w3.org/1999/xlink" id="body_1" preserveAspectRatio="xMinYMin meet" viewBox="0 0 793 1123"><defs><clipPath id="1"><path d="M0 842L0 0L0 0L595 0L595 0L595 842L595 842L0 842z" /></clipPath><clipPath id="2"><path d="M56 56L539.3 56L539.3 56L539.3 771.779L539.3 771.779L56 771.779L56 771.779L56 56z" /></clipPath><clipPath id="3"><path d="M56 56L539.3 56L539.3 56L539.3 771.779L539.3 771.779L56 771.779L56 771.779L56 56z" /></clipPath><clipPath id="4"><path d="M56 56L539.3 56L539.3 56L539.3 771.779L539.3 771.779L56 771.779L56 771.779L56 56z" /></clipPath><clipPath id="5"><path d="M56 56L539.3 56L539.3 56L539.3 771.8L539.3 771.8L56 771.8L56 771.8L56 56z" /></clipPath><clipPath id="6"><path d="M56 56L539.3 56L539.3 56L539.3 771.779L539.3 771.779L56 771.779L56 771.779L56 56z" /></clipPath><clipPath id="7"><path d="M56 56L539.3 56L539.3 56L539.3 771.8L539.3 771.8L56 771.8L56 771.8L56 56z" /></clipPath><clipPath id="8"><path d="M56 56L539.3 56L539.3 56L539.3 771.779L539.3 771.779L56 771.779L56 771.779L56 56z" /></clipPath><clipPath id="9"><path d="M56 56L539.3 56L539.3 56L539.3 771.8L539.3 771.8L56 771.8L56 771.8L56 56z" /></clipPath><clipPath id="10"><path d="M56 56L539.3 56L539.3 56L539.3 771.779L539.3 771.779L56 771.779L56 771.779L56 56z" /></clipPath><clipPath id="11"><path d="M56 56L539.3 56L539.3 56L539.3 771.779L539.3 771.779L56 771.779L56 771.779L56 56z" /></clipPath></defs><g transform="matrix(1.333333 0 0 1.333333 0 0)"><g><g clip-path="url(#1)"><g clip-path="url(#2)"></g><g clip-path="url(#3)"><path transform="matrix(1 0 0 -1 0 842)" d="M59 783L536.3 783L536.3 783L536.3 -14553.24L536.3 -14553.24L59 -14553.24z" stroke="none" fill="#FFFFFF" fill-rule="winding" /><path transform="matrix(1 0 0 -1 0 842)" d="M59 770.76L518.12 770.76L518.12 770.76L518.12 756.78L518.12 756.78L59 756.78z" stroke="none" fill="#00CCFF" fill-rule="winding" /></g><g clip-path="url(#4)"><path transform="matrix(1 0 0 -1 0 842)" d="M59.39685 386.7831L690.5032 386.7831L690.5032 386.7831L690.5032 305.0678L690.5032 305.0678L59.39685 305.0678z" stroke="none" fill="#FFFF99" fill-rule="winding" /><path transform="matrix(1 0 0 -1 0 842)" d="M59 387.18L59.39685 387.18L59.39685 387.18L59.39685 304.671L59.39685 304.671L59 304.671z" stroke="none" fill="#C0C0C0" fill-rule="winding" /><path transform="matrix(1 0 0 -1 0 842)" d="M59.39685 387.18L690.9 387.18L690.9 387.18L690.9 386.7831L690.9 386.7831L59.39685 386.7831z" stroke="none" fill="#C0C0C0" fill-rule="winding" /><path transform="matrix(1 0 0 -1 0 842)" d="M690.5032 386.7831L690.9 386.7831L690.9 386.7831L690.9 305.0678L690.9 305.0678L690.5032 305.0678z" stroke="none" fill="#808080" fill-rule="winding" /><path transform="matrix(1 0 0 -1 0 842)" d="M59.39685 305.0679L690.9 305.0679L690.9 305.0679L690.9 304.671L690.9 304.671L59.39685 304.671z" stroke="none" fill="#808080" fill-rule="winding" /></g><g clip-path="url(#5)"></g><g clip-path="url(#6)"></g><g clip-path="url(#7)"></g><g clip-path="url(#8)"></g><g clip-path="url(#9)"></g><g clip-path="url(#10)"></g><g clip-path="url(#11)"><path transform="matrix(1 0 0 -1 0 842)" d="M59 247.161L59.4 247.161L59.4 247.161L59.4 70.22101L59.4 70.22101L59 70.22101z" stroke="none" fill="#808080" fill-rule="winding" /><path transform="matrix(1 0 0 -1 0 842)" d="M59 247.161L62.75 247.161L62.75 247.161L62.75 246.761L62.75 246.761L59 246.761z" stroke="none" fill="#808080" fill-rule="winding" /><path transform="matrix(1 0 0 -1 0 842)" d="M59 70.22101L59.4 70.22101L59.4 70.22101L59.4 -156.579L59.4 -156.579L59 -156.579z" stroke="none" fill="#808080" fill-rule="winding" /><path transform="matrix(1 0 0 -1 0 842)" d="M59 70.22101L61.8125 70.22101L61.8125 70.22101L61.8125 69.82098L61.8125 69.82098L59 69.82098z" stroke="none" fill="#808080" fill-rule="winding" /><path transform="matrix(1 0 0 -1 0 842)" d="M59 -156.179L62.75 -156.179L62.75 -156.179L62.75 -156.579L62.75 -156.579L59 -156.579z" stroke="none" fill="#808080" fill-rule="winding" /></g></g></g></g></svg>