<svg xmlns="http://www.w3.org/2000/svg" xmlns:xlink="http://www.w3.org/1999/xlink" id="body_11" preserveAspectRatio="xMinYMin meet" viewBox="0 0 793 1121"><defs><clipPath id="1"><path d="M0 841L0 -0.8900146L0 -0.8900146L595.28 -0.8900146L595.28 -0.8900146L595.28 841L595.28 841L0 841z" /></clipPath><clipPath id="2"><path d="M172.16 615.33L2122.987 615.33L2122.987 615.33L2122.987 -2142.341L2122.987 -2142.341L172.16 -2142.341z" /></clipPath><clipPath id="3"><path d="M243.2541 142.4156L587.3342 142.4156L587.3342 142.4156L587.3342 400.4756L587.3342 400.4756L243.2541 400.4756z" /></clipPath></defs><g transform="matrix(1.333333 0 0 1.333333 0 0)"><g><g clip-path="url(#1)"><g clip-path="url(#2)"><g clip-path="url(#3)"><g transform="matrix(0.3927852 0 0 0.3927856 243.2541 142.4166)"><g transform="matrix(1 0 0 1 0 0)"><image x="0" y="0" xlink:href="img_17.png" width="876" height="190" /></g></g><g transform="matrix(0.3927852 0 0 0.3927856 243.2541 217.045)"><g transform="matrix(1 0 0 1 0 0)"><image x="0" y="0" xlink:href="img_18.png" width="876" height="190" /></g></g><g transform="matrix(0.3927852 0 0 0.3927856 243.2541 291.6752)"><g transform="matrix(1 0 0 1 0 0)"><image x="0" y="0" xlink:href="img_19.png" width="876" height="190" /></g></g><g transform="matrix(0.3927852 0 0 0.3927845 243.2541 366.3033)"><g transform="matrix(1 0 0 1 0 0)"><image x="0" y="0" xlink:href="img_20.png" width="876" height="87" /></g></g></g></g><path transform="matrix(1 0 0 -1 0 841)" d="M124.8 169.14L486.44 169.14L486.44 169.14L486.44 424.92L486.44 424.92L124.8 424.92z" stroke="none" fill="#EBEBEB" fill-rule="winding" /></g></g></g></svg>