<svg xmlns="http://www.w3.org/2000/svg" xmlns:xlink="http://www.w3.org/1999/xlink" id="body_9" preserveAspectRatio="xMinYMin meet" viewBox="0 0 793 1121"><defs><clipPath id="1"><path d="M0 841L0 -0.8900146L0 -0.8900146L595.28 -0.8900146L595.28 -0.8900146L595.28 841L595.28 841L0 841z" /></clipPath><clipPath id="2"><path d="M82.5 613.93L2033.327 613.93L2033.327 613.93L2033.327 -2143.741L2033.327 -2143.741L82.5 -2143.741z" /></clipPath><clipPath id="3"><path d="M153.5941 142.5873L497.6742 142.5873L497.6742 142.5873L497.6742 395.9344L497.6742 395.9344L153.5941 395.9344z" /></clipPath><clipPath id="4"><path d="M133.77 469.25L595.074 469.25L595.074 469.25L595.074 -182.845L595.074 -182.845L133.77 -182.845z" /></clipPath></defs><g transform="matrix(1.333333 0 0 1.333333 0 0)"><g><g clip-path="url(#1)"><g clip-path="url(#2)"><g clip-path="url(#3)"><g transform="matrix(0.3927852 0 0 0.3927856 153.5941 142.5882)"><g transform="matrix(1 0 0 1 0 0)"><image x="0" y="0" xlink:href="img_07.png" width="876" height="190" /></g></g><g transform="matrix(0.3927852 0 0 0.3927856 153.5941 217.2166)"><g transform="matrix(1 0 0 1 0 0)"><image x="0" y="0" xlink:href="img_13.png" width="876" height="190" /></g></g><g transform="matrix(0.3927852 0 0 0.3927856 153.5941 291.8467)"><g transform="matrix(1 0 0 1 0 0)"><image x="0" y="0" xlink:href="img_14.png" width="876" height="190" /></g></g><g transform="matrix(0.3927852 0 0 0.3927844 153.5941 366.4756)"><g transform="matrix(1 0 0 1 0 0)"><image x="0" y="0" xlink:href="img_10.png" width="876" height="75" /></g></g></g></g><g clip-path="url(#4)"><path transform="matrix(1 0 0 -1 0 841)" d="M133.77 371.75L205.7522 371.75L205.7522 371.75L205.7522 443.7322L205.7522 443.7322L133.77 443.7322z" stroke="none" fill="#FFFFFF" fill-rule="winding" /><path transform="matrix(1 0 0 -1 0 841)" d="M136.0919 439.088L138.4137 439.088L138.4137 439.088L138.4137 441.41L138.4137 441.41L136.0919 441.41z" stroke="none" fill="#000000" fill-rule="winding" /><path transform="matrix(1 0 0 -1 0 841)" d="M138.4137 439.088L140.7358 439.088L140.7358 439.088L140.7358 441.41L140.7358 441.41L138.4137 441.41z" stroke="none" fill="#000000" fill-rule="winding" /><path transform="matrix(1 0 0 -1 0 841)" d="M140.7358 439.088L143.0578 439.088L143.0578 439.088L143.0578 441.41L143.0578 441.41L140.7358 441.41z" stroke="none" fill="#000000" fill-rule="winding" /><path transform="matrix(1 0 0 -1 0 841)" d="M143.0578 439.088L145.3799 439.088L145.3799 439.088L145.3799 441.41L145.3799 441.41L143.0578 441.41z" stroke="none" fill="#000000" fill-rule="winding" /><path transform="matrix(1 0 0 -1 0 841)" d="M145.3799 439.088L147.7018 439.088L147.7018 439.088L147.7018 441.41L147.7018 441.41L145.3799 441.41z" stroke="none" fill="#000000" fill-rule="winding" /><path transform="matrix(1 0 0 -1 0 841)" d="M147.7017 439.088L150.0238 439.088L150.0238 439.088L150.0238 441.41L150.0238 441.41L147.7017 441.41z" stroke="none" fill="#000000" fill-rule="winding" /><path transform="matrix(1 0 0 -1 0 841)" d="M150.0238 439.088L152.3458 439.088L152.3458 439.088L152.3458 441.41L152.3458 441.41L150.0238 441.41z" stroke="none" fill="#000000" fill-rule="winding" /><path transform="matrix(1 0 0 -1 0 841)" d="M154.6679 439.088L156.9897 439.088L156.9897 439.088L156.9897 441.41L156.9897 441.41L154.6679 441.41z" stroke="none" fill="#000000" fill-rule="winding" /><path transform="matrix(1 0 0 -1 0 841)" d="M161.6338 439.088L163.9559 439.088L163.9559 439.088L163.9559 441.41L163.9559 441.41L161.6338 441.41z" stroke="none" fill="#000000" fill-rule="winding" /><path transform="matrix(1 0 0 -1 0 841)" d="M166.2779 439.088L168.5998 439.088L168.5998 439.088L168.5998 441.41L168.5998 441.41L166.2779 441.41z" stroke="none" fill="#000000" fill-rule="winding" /><path transform="matrix(1 0 0 -1 0 841)" d="M170.9218 439.088L173.2439 439.088L173.2439 439.088L173.2439 441.41L173.2439 441.41L170.9218 441.41z" stroke="none" fill="#000000" fill-rule="winding" /><path transform="matrix(1 0 0 -1 0 841)" d="M173.2439 439.088L175.5659 439.088L175.5659 439.088L175.5659 441.41L175.5659 441.41L173.2439 441.41z" stroke="none" fill="#000000" fill-rule="winding" /><path transform="matrix(1 0 0 -1 0 841)" d="M187.1757 439.088L189.4977 439.088L189.4977 439.088L189.4977 441.41L189.4977 441.41L187.1757 441.41z" stroke="none" fill="#000000" fill-rule="winding" /><path transform="matrix(1 0 0 -1 0 841)" d="M189.4978 439.088L191.8198 439.088L191.8198 439.088L191.8198 441.41L191.8198 441.41L189.4978 441.41z" stroke="none" fill="#000000" fill-rule="winding" /><path transform="matrix(1 0 0 -1 0 841)" d="M191.8199 439.088L194.1419 439.088L194.1419 439.088L194.1419 441.41L194.1419 441.41L191.8199 441.41z" stroke="none" fill="#000000" fill-rule="winding" /><path transform="matrix(1 0 0 -1 0 841)" d="M194.142 439.088L196.4641 439.088L196.4641 439.088L196.4641 441.41L196.4641 441.41L194.142 441.41z" stroke="none" fill="#000000" fill-rule="winding" /><path transform="matrix(1 0 0 -1 0 841)" d="M196.4641 439.088L198.786 439.088L198.786 439.088L198.786 441.41L198.786 441.41L196.4641 441.41z" stroke="none" fill="#000000" fill-rule="winding" /><path transform="matrix(1 0 0 -1 0 841)" d="M198.7858 439.088L201.1078 439.088L201.1078 439.088L201.1078 441.41L201.1078 441.41L198.7858 441.41z" stroke="none" fill="#000000" fill-rule="winding" /><path transform="matrix(1 0 0 -1 0 841)" d="M201.1079 439.088L203.43 439.088L203.43 439.088L203.43 441.41L203.43 441.41L201.1079 441.41z" stroke="none" fill="#000000" fill-rule="winding" /><path transform="matrix(1 0 0 -1 0 841)" d="M136.0919 436.7658L138.4137 436.7658L138.4137 436.7658L138.4137 439.0879L138.4137 439.0879L136.0919 439.0879z" stroke="none" fill="#000000" fill-rule="winding" /><path transform="matrix(1 0 0 -1 0 841)" d="M150.0238 436.7658L152.3458 436.7658L152.3458 436.7658L152.3458 439.0879L152.3458 439.0879L150.0238 439.0879z" stroke="none" fill="#000000" fill-rule="winding" /><path transform="matrix(1 0 0 -1 0 841)" d="M154.6679 436.7658L156.9897 436.7658L156.9897 436.7658L156.9897 439.0879L156.9897 439.0879L154.6679 439.0879z" stroke="none" fill="#000000" fill-rule="winding" /><path transform="matrix(1 0 0 -1 0 841)" d="M156.9897 436.7658L159.3118 436.7658L159.3118 436.7658L159.3118 439.0879L159.3118 439.0879L156.9897 439.0879z" stroke="none" fill="#000000" fill-rule="winding" /><path transform="matrix(1 0 0 -1 0 841)" d="M161.6338 436.7658L163.9559 436.7658L163.9559 436.7658L163.9559 439.0879L163.9559 439.0879L161.6338 439.0879z" stroke="none" fill="#000000" fill-rule="winding" /><path transform="matrix(1 0 0 -1 0 841)" d="M163.9559 436.7658L166.2779 436.7658L166.2779 436.7658L166.2779 439.0879L166.2779 439.0879L163.9559 439.0879z" stroke="none" fill="#000000" fill-rule="winding" /><path transform="matrix(1 0 0 -1 0 841)" d="M166.2779 436.7658L168.5998 436.7658L168.5998 436.7658L168.5998 439.0879L168.5998 439.0879L166.2779 439.0879z" stroke="none" fill="#000000" fill-rule="winding" /><path transform="matrix(1 0 0 -1 0 841)" d="M168.5998 436.7658L170.9218 436.7658L170.9218 436.7658L170.9218 439.0879L170.9218 439.0879L168.5998 439.0879z" stroke="none" fill="#000000" fill-rule="winding" /><path transform="matrix(1 0 0 -1 0 841)" d="M170.9218 436.7658L173.2439 436.7658L173.2439 436.7658L173.2439 439.0879L173.2439 439.0879L170.9218 439.0879z" stroke="none" fill="#000000" fill-rule="winding" /><path transform="matrix(1 0 0 -1 0 841)" d="M177.8878 436.7658L180.2098 436.7658L180.2098 436.7658L180.2098 439.0879L180.2098 439.0879L177.8878 439.0879z" stroke="none" fill="#000000" fill-rule="winding" /><path transform="matrix(1 0 0 -1 0 841)" d="M182.5319 436.7658L184.8539 436.7658L184.8539 436.7658L184.8539 439.0879L184.8539 439.0879L182.5319 439.0879z" stroke="none" fill="#000000" fill-rule="winding" /><path transform="matrix(1 0 0 -1 0 841)" d="M187.1757 436.7658L189.4977 436.7658L189.4977 436.7658L189.4977 439.0879L189.4977 439.0879L187.1757 439.0879z" stroke="none" fill="#000000" fill-rule="winding" /><path transform="matrix(1 0 0 -1 0 841)" d="M201.1079 436.7658L203.43 436.7658L203.43 436.7658L203.43 439.0879L203.43 439.0879L201.1079 439.0879z" stroke="none" fill="#000000" fill-rule="winding" /><path transform="matrix(1 0 0 -1 0 841)" d="M136.0919 434.4442L138.4137 434.4442L138.4137 434.4442L138.4137 436.766L138.4137 436.766L136.0919 436.766z" stroke="none" fill="#000000" fill-rule="winding" /><path transform="matrix(1 0 0 -1 0 841)" d="M140.7358 434.4442L143.0578 434.4442L143.0578 434.4442L143.0578 436.766L143.0578 436.766L140.7358 436.766z" stroke="none" fill="#000000" fill-rule="winding" /><path transform="matrix(1 0 0 -1 0 841)" d="M143.0578 434.4442L145.3799 434.4442L145.3799 434.4442L145.3799 436.766L145.3799 436.766L143.0578 436.766z" stroke="none" fill="#000000" fill-rule="winding" /><path transform="matrix(1 0 0 -1 0 841)" d="M145.3799 434.4442L147.7018 434.4442L147.7018 434.4442L147.7018 436.766L147.7018 436.766L145.3799 436.766z" stroke="none" fill="#000000" fill-rule="winding" /><path transform="matrix(1 0 0 -1 0 841)" d="M150.0238 434.4442L152.3458 434.4442L152.3458 434.4442L152.3458 436.766L152.3458 436.766L150.0238 436.766z" stroke="none" fill="#000000" fill-rule="winding" /><path transform="matrix(1 0 0 -1 0 841)" d="M154.6679 434.4442L156.9897 434.4442L156.9897 434.4442L156.9897 436.766L156.9897 436.766L154.6679 436.766z" stroke="none" fill="#000000" fill-rule="winding" /><path transform="matrix(1 0 0 -1 0 841)" d="M163.9559 434.4442L166.2779 434.4442L166.2779 434.4442L166.2779 436.766L166.2779 436.766L163.9559 436.766z" stroke="none" fill="#000000" fill-rule="winding" /><path transform="matrix(1 0 0 -1 0 841)" d="M166.2779 434.4442L168.5998 434.4442L168.5998 434.4442L168.5998 436.766L168.5998 436.766L166.2779 436.766z" stroke="none" fill="#000000" fill-rule="winding" /><path transform="matrix(1 0 0 -1 0 841)" d="M168.5998 434.4442L170.9218 434.4442L170.9218 434.4442L170.9218 436.766L170.9218 436.766L168.5998 436.766z" stroke="none" fill="#000000" fill-rule="winding" /><path transform="matrix(1 0 0 -1 0 841)" d="M170.9218 434.4442L173.2439 434.4442L173.2439 434.4442L173.2439 436.766L173.2439 436.766L170.9218 436.766z" stroke="none" fill="#000000" fill-rule="winding" /><path transform="matrix(1 0 0 -1 0 841)" d="M177.8878 434.4442L180.2098 434.4442L180.2098 434.4442L180.2098 436.766L180.2098 436.766L177.8878 436.766z" stroke="none" fill="#000000" fill-rule="winding" /><path transform="matrix(1 0 0 -1 0 841)" d="M187.1757 434.4442L189.4977 434.4442L189.4977 434.4442L189.4977 436.766L189.4977 436.766L187.1757 436.766z" stroke="none" fill="#000000" fill-rule="winding" /><path transform="matrix(1 0 0 -1 0 841)" d="M191.8199 434.4442L194.1419 434.4442L194.1419 434.4442L194.1419 436.766L194.1419 436.766L191.8199 436.766z" stroke="none" fill="#000000" fill-rule="winding" /><path transform="matrix(1 0 0 -1 0 841)" d="M194.142 434.4442L196.4641 434.4442L196.4641 434.4442L196.4641 436.766L196.4641 436.766L194.142 436.766z" stroke="none" fill="#000000" fill-rule="winding" /><path transform="matrix(1 0 0 -1 0 841)" d="M196.4641 434.4442L198.786 434.4442L198.786 434.4442L198.786 436.766L198.786 436.766L196.4641 436.766z" stroke="none" fill="#000000" fill-rule="winding" /><path transform="matrix(1 0 0 -1 0 841)" d="M201.1079 434.4442L203.43 434.4442L203.43 434.4442L203.43 436.766L203.43 436.766L201.1079 436.766z" stroke="none" fill="#000000" fill-rule="winding" /><path transform="matrix(1 0 0 -1 0 841)" d="M136.0919 432.122L138.4137 432.122L138.4137 432.122L138.4137 434.4441L138.4137 434.4441L136.0919 434.4441z" stroke="none" fill="#000000" fill-rule="winding" /><path transform="matrix(1 0 0 -1 0 841)" d="M140.7358 432.122L143.0578 432.122L143.0578 432.122L143.0578 434.4441L143.0578 434.4441L140.7358 434.4441z" stroke="none" fill="#000000" fill-rule="winding" /><path transform="matrix(1 0 0 -1 0 841)" d="M143.0578 432.122L145.3799 432.122L145.3799 432.122L145.3799 434.4441L145.3799 434.4441L143.0578 434.4441z" stroke="none" fill="#000000" fill-rule="winding" /><path transform="matrix(1 0 0 -1 0 841)" d="M145.3799 432.122L147.7018 432.122L147.7018 432.122L147.7018 434.4441L147.7018 434.4441L145.3799 434.4441z" stroke="none" fill="#000000" fill-rule="winding" /><path transform="matrix(1 0 0 -1 0 841)" d="M150.0238 432.122L152.3458 432.122L152.3458 432.122L152.3458 434.4441L152.3458 434.4441L150.0238 434.4441z" stroke="none" fill="#000000" fill-rule="winding" /><path transform="matrix(1 0 0 -1 0 841)" d="M156.9897 432.122L159.3118 432.122L159.3118 432.122L159.3118 434.4441L159.3118 434.4441L156.9897 434.4441z" stroke="none" fill="#000000" fill-rule="winding" /><path transform="matrix(1 0 0 -1 0 841)" d="M161.6338 432.122L163.9559 432.122L163.9559 432.122L163.9559 434.4441L163.9559 434.4441L161.6338 434.4441z" stroke="none" fill="#000000" fill-rule="winding" /><path transform="matrix(1 0 0 -1 0 841)" d="M170.9218 432.122L173.2439 432.122L173.2439 432.122L173.2439 434.4441L173.2439 434.4441L170.9218 434.4441z" stroke="none" fill="#000000" fill-rule="winding" /><path transform="matrix(1 0 0 -1 0 841)" d="M175.5659 432.122L177.8878 432.122L177.8878 432.122L177.8878 434.4441L177.8878 434.4441L175.5659 434.4441z" stroke="none" fill="#000000" fill-rule="winding" /><path transform="matrix(1 0 0 -1 0 841)" d="M177.8878 432.122L180.2098 432.122L180.2098 432.122L180.2098 434.4441L180.2098 434.4441L177.8878 434.4441z" stroke="none" fill="#000000" fill-rule="winding" /><path transform="matrix(1 0 0 -1 0 841)" d="M182.5319 432.122L184.8539 432.122L184.8539 432.122L184.8539 434.4441L184.8539 434.4441L182.5319 434.4441z" stroke="none" fill="#000000" fill-rule="winding" /><path transform="matrix(1 0 0 -1 0 841)" d="M187.1757 432.122L189.4977 432.122L189.4977 432.122L189.4977 434.4441L189.4977 434.4441L187.1757 434.4441z" stroke="none" fill="#000000" fill-rule="winding" /><path transform="matrix(1 0 0 -1 0 841)" d="M191.8199 432.122L194.1419 432.122L194.1419 432.122L194.1419 434.4441L194.1419 434.4441L191.8199 434.4441z" stroke="none" fill="#000000" fill-rule="winding" /><path transform="matrix(1 0 0 -1 0 841)" d="M194.142 432.122L196.4641 432.122L196.4641 432.122L196.4641 434.4441L196.4641 434.4441L194.142 434.4441z" stroke="none" fill="#000000" fill-rule="winding" /><path transform="matrix(1 0 0 -1 0 841)" d="M196.4641 432.122L198.786 432.122L198.786 432.122L198.786 434.4441L198.786 434.4441L196.4641 434.4441z" stroke="none" fill="#000000" fill-rule="winding" /><path transform="matrix(1 0 0 -1 0 841)" d="M201.1079 432.122L203.43 432.122L203.43 432.122L203.43 434.4441L203.43 434.4441L201.1079 434.4441z" stroke="none" fill="#000000" fill-rule="winding" /><path transform="matrix(1 0 0 -1 0 841)" d="M136.0919 429.7999L138.4137 429.7999L138.4137 429.7999L138.4137 432.1219L138.4137 432.1219L136.0919 432.1219z" stroke="none" fill="#000000" fill-rule="winding" /><path transform="matrix(1 0 0 -1 0 841)" d="M140.7358 429.7999L143.0578 429.7999L143.0578 429.7999L143.0578 432.1219L143.0578 432.1219L140.7358 432.1219z" stroke="none" fill="#000000" fill-rule="winding" /><path transform="matrix(1 0 0 -1 0 841)" d="M143.0578 429.7999L145.3799 429.7999L145.3799 429.7999L145.3799 432.1219L145.3799 432.1219L143.0578 432.1219z" stroke="none" fill="#000000" fill-rule="winding" /><path transform="matrix(1 0 0 -1 0 841)" d="M145.3799 429.7999L147.7018 429.7999L147.7018 429.7999L147.7018 432.1219L147.7018 432.1219L145.3799 432.1219z" stroke="none" fill="#000000" fill-rule="winding" /><path transform="matrix(1 0 0 -1 0 841)" d="M150.0238 429.7999L152.3458 429.7999L152.3458 429.7999L152.3458 432.1219L152.3458 432.1219L150.0238 432.1219z" stroke="none" fill="#000000" fill-rule="winding" /><path transform="matrix(1 0 0 -1 0 841)" d="M163.9559 429.7999L166.2779 429.7999L166.2779 429.7999L166.2779 432.1219L166.2779 432.1219L163.9559 432.1219z" stroke="none" fill="#000000" fill-rule="winding" /><path transform="matrix(1 0 0 -1 0 841)" d="M168.5998 429.7999L170.9218 429.7999L170.9218 429.7999L170.9218 432.1219L170.9218 432.1219L168.5998 432.1219z" stroke="none" fill="#000000" fill-rule="winding" /><path transform="matrix(1 0 0 -1 0 841)" d="M170.9218 429.7999L173.2439 429.7999L173.2439 429.7999L173.2439 432.1219L173.2439 432.1219L170.9218 432.1219z" stroke="none" fill="#000000" fill-rule="winding" /><path transform="matrix(1 0 0 -1 0 841)" d="M175.5659 429.7999L177.8878 429.7999L177.8878 429.7999L177.8878 432.1219L177.8878 432.1219L175.5659 432.1219z" stroke="none" fill="#000000" fill-rule="winding" /><path transform="matrix(1 0 0 -1 0 841)" d="M177.8878 429.7999L180.2098 429.7999L180.2098 429.7999L180.2098 432.1219L180.2098 432.1219L177.8878 432.1219z" stroke="none" fill="#000000" fill-rule="winding" /><path transform="matrix(1 0 0 -1 0 841)" d="M180.2097 429.7999L182.5318 429.7999L182.5318 429.7999L182.5318 432.1219L182.5318 432.1219L180.2097 432.1219z" stroke="none" fill="#000000" fill-rule="winding" /><path transform="matrix(1 0 0 -1 0 841)" d="M187.1757 429.7999L189.4977 429.7999L189.4977 429.7999L189.4977 432.1219L189.4977 432.1219L187.1757 432.1219z" stroke="none" fill="#000000" fill-rule="winding" /><path transform="matrix(1 0 0 -1 0 841)" d="M191.8199 429.7999L194.1419 429.7999L194.1419 429.7999L194.1419 432.1219L194.1419 432.1219L191.8199 432.1219z" stroke="none" fill="#000000" fill-rule="winding" /><path transform="matrix(1 0 0 -1 0 841)" d="M194.142 429.7999L196.4641 429.7999L196.4641 429.7999L196.4641 432.1219L196.4641 432.1219L194.142 432.1219z" stroke="none" fill="#000000" fill-rule="winding" /><path transform="matrix(1 0 0 -1 0 841)" d="M196.4641 429.7999L198.786 429.7999L198.786 429.7999L198.786 432.1219L198.786 432.1219L196.4641 432.1219z" stroke="none" fill="#000000" fill-rule="winding" /><path transform="matrix(1 0 0 -1 0 841)" d="M201.1079 429.7999L203.43 429.7999L203.43 429.7999L203.43 432.1219L203.43 432.1219L201.1079 432.1219z" stroke="none" fill="#000000" fill-rule="winding" /><path transform="matrix(1 0 0 -1 0 841)" d="M136.0919 427.4778L138.4137 427.4778L138.4137 427.4778L138.4137 429.7998L138.4137 429.7998L136.0919 429.7998z" stroke="none" fill="#000000" fill-rule="winding" /><path transform="matrix(1 0 0 -1 0 841)" d="M150.0238 427.4778L152.3458 427.4778L152.3458 427.4778L152.3458 429.7998L152.3458 429.7998L150.0238 429.7998z" stroke="none" fill="#000000" fill-rule="winding" /><path transform="matrix(1 0 0 -1 0 841)" d="M154.6679 427.4778L156.9897 427.4778L156.9897 427.4778L156.9897 429.7998L156.9897 429.7998L154.6679 429.7998z" stroke="none" fill="#000000" fill-rule="winding" /><path transform="matrix(1 0 0 -1 0 841)" d="M156.9897 427.4778L159.3118 427.4778L159.3118 427.4778L159.3118 429.7998L159.3118 429.7998L156.9897 429.7998z" stroke="none" fill="#000000" fill-rule="winding" /><path transform="matrix(1 0 0 -1 0 841)" d="M163.9559 427.4778L166.2779 427.4778L166.2779 427.4778L166.2779 429.7998L166.2779 429.7998L163.9559 429.7998z" stroke="none" fill="#000000" fill-rule="winding" /><path transform="matrix(1 0 0 -1 0 841)" d="M168.5998 427.4778L170.9218 427.4778L170.9218 427.4778L170.9218 429.7998L170.9218 429.7998L168.5998 429.7998z" stroke="none" fill="#000000" fill-rule="winding" /><path transform="matrix(1 0 0 -1 0 841)" d="M173.2439 427.4778L175.5659 427.4778L175.5659 427.4778L175.5659 429.7998L175.5659 429.7998L173.2439 429.7998z" stroke="none" fill="#000000" fill-rule="winding" /><path transform="matrix(1 0 0 -1 0 841)" d="M175.5659 427.4778L177.8878 427.4778L177.8878 427.4778L177.8878 429.7998L177.8878 429.7998L175.5659 429.7998z" stroke="none" fill="#000000" fill-rule="winding" /><path transform="matrix(1 0 0 -1 0 841)" d="M182.5319 427.4778L184.8539 427.4778L184.8539 427.4778L184.8539 429.7998L184.8539 429.7998L182.5319 429.7998z" stroke="none" fill="#000000" fill-rule="winding" /><path transform="matrix(1 0 0 -1 0 841)" d="M187.1757 427.4778L189.4977 427.4778L189.4977 427.4778L189.4977 429.7998L189.4977 429.7998L187.1757 429.7998z" stroke="none" fill="#000000" fill-rule="winding" /><path transform="matrix(1 0 0 -1 0 841)" d="M201.1079 427.4778L203.43 427.4778L203.43 427.4778L203.43 429.7998L203.43 429.7998L201.1079 429.7998z" stroke="none" fill="#000000" fill-rule="winding" /><path transform="matrix(1 0 0 -1 0 841)" d="M136.0919 425.1557L138.4137 425.1557L138.4137 425.1557L138.4137 427.4777L138.4137 427.4777L136.0919 427.4777z" stroke="none" fill="#000000" fill-rule="winding" /><path transform="matrix(1 0 0 -1 0 841)" d="M138.4137 425.1557L140.7358 425.1557L140.7358 425.1557L140.7358 427.4777L140.7358 427.4777L138.4137 427.4777z" stroke="none" fill="#000000" fill-rule="winding" /><path transform="matrix(1 0 0 -1 0 841)" d="M140.7358 425.1557L143.0578 425.1557L143.0578 425.1557L143.0578 427.4777L143.0578 427.4777L140.7358 427.4777z" stroke="none" fill="#000000" fill-rule="winding" /><path transform="matrix(1 0 0 -1 0 841)" d="M143.0578 425.1557L145.3799 425.1557L145.3799 425.1557L145.3799 427.4777L145.3799 427.4777L143.0578 427.4777z" stroke="none" fill="#000000" fill-rule="winding" /><path transform="matrix(1 0 0 -1 0 841)" d="M145.3799 425.1557L147.7018 425.1557L147.7018 425.1557L147.7018 427.4777L147.7018 427.4777L145.3799 427.4777z" stroke="none" fill="#000000" fill-rule="winding" /><path transform="matrix(1 0 0 -1 0 841)" d="M147.7017 425.1557L150.0238 425.1557L150.0238 425.1557L150.0238 427.4777L150.0238 427.4777L147.7017 427.4777z" stroke="none" fill="#000000" fill-rule="winding" /><path transform="matrix(1 0 0 -1 0 841)" d="M150.0238 425.1557L152.3458 425.1557L152.3458 425.1557L152.3458 427.4777L152.3458 427.4777L150.0238 427.4777z" stroke="none" fill="#000000" fill-rule="winding" /><path transform="matrix(1 0 0 -1 0 841)" d="M154.6679 425.1557L156.9897 425.1557L156.9897 425.1557L156.9897 427.4777L156.9897 427.4777L154.6679 427.4777z" stroke="none" fill="#000000" fill-rule="winding" /><path transform="matrix(1 0 0 -1 0 841)" d="M159.3118 425.1557L161.6338 425.1557L161.6338 425.1557L161.6338 427.4777L161.6338 427.4777L159.3118 427.4777z" stroke="none" fill="#000000" fill-rule="winding" /><path transform="matrix(1 0 0 -1 0 841)" d="M163.9559 425.1557L166.2779 425.1557L166.2779 425.1557L166.2779 427.4777L166.2779 427.4777L163.9559 427.4777z" stroke="none" fill="#000000" fill-rule="winding" /><path transform="matrix(1 0 0 -1 0 841)" d="M168.5998 425.1557L170.9218 425.1557L170.9218 425.1557L170.9218 427.4777L170.9218 427.4777L168.5998 427.4777z" stroke="none" fill="#000000" fill-rule="winding" /><path transform="matrix(1 0 0 -1 0 841)" d="M173.2439 425.1557L175.5659 425.1557L175.5659 425.1557L175.5659 427.4777L175.5659 427.4777L173.2439 427.4777z" stroke="none" fill="#000000" fill-rule="winding" /><path transform="matrix(1 0 0 -1 0 841)" d="M177.8878 425.1557L180.2098 425.1557L180.2098 425.1557L180.2098 427.4777L180.2098 427.4777L177.8878 427.4777z" stroke="none" fill="#000000" fill-rule="winding" /><path transform="matrix(1 0 0 -1 0 841)" d="M182.5319 425.1557L184.8539 425.1557L184.8539 425.1557L184.8539 427.4777L184.8539 427.4777L182.5319 427.4777z" stroke="none" fill="#000000" fill-rule="winding" /><path transform="matrix(1 0 0 -1 0 841)" d="M187.1757 425.1557L189.4977 425.1557L189.4977 425.1557L189.4977 427.4777L189.4977 427.4777L187.1757 427.4777z" stroke="none" fill="#000000" fill-rule="winding" /><path transform="matrix(1 0 0 -1 0 841)" d="M189.4978 425.1557L191.8198 425.1557L191.8198 425.1557L191.8198 427.4777L191.8198 427.4777L189.4978 427.4777z" stroke="none" fill="#000000" fill-rule="winding" /><path transform="matrix(1 0 0 -1 0 841)" d="M191.8199 425.1557L194.1419 425.1557L194.1419 425.1557L194.1419 427.4777L194.1419 427.4777L191.8199 427.4777z" stroke="none" fill="#000000" fill-rule="winding" /><path transform="matrix(1 0 0 -1 0 841)" d="M194.142 425.1557L196.4641 425.1557L196.4641 425.1557L196.4641 427.4777L196.4641 427.4777L194.142 427.4777z" stroke="none" fill="#000000" fill-rule="winding" /><path transform="matrix(1 0 0 -1 0 841)" d="M196.4641 425.1557L198.786 425.1557L198.786 425.1557L198.786 427.4777L198.786 427.4777L196.4641 427.4777z" stroke="none" fill="#000000" fill-rule="winding" /><path transform="matrix(1 0 0 -1 0 841)" d="M198.7858 425.1557L201.1078 425.1557L201.1078 425.1557L201.1078 427.4777L201.1078 427.4777L198.7858 427.4777z" stroke="none" fill="#000000" fill-rule="winding" /><path transform="matrix(1 0 0 -1 0 841)" d="M201.1079 425.1557L203.43 425.1557L203.43 425.1557L203.43 427.4777L203.43 427.4777L201.1079 427.4777z" stroke="none" fill="#000000" fill-rule="winding" /><path transform="matrix(1 0 0 -1 0 841)" d="M154.6679 422.834L156.9897 422.834L156.9897 422.834L156.9897 425.1559L156.9897 425.1559L154.6679 425.1559z" stroke="none" fill="#000000" fill-rule="winding" /><path transform="matrix(1 0 0 -1 0 841)" d="M159.3118 422.834L161.6338 422.834L161.6338 422.834L161.6338 425.1559L161.6338 425.1559L159.3118 425.1559z" stroke="none" fill="#000000" fill-rule="winding" /><path transform="matrix(1 0 0 -1 0 841)" d="M161.6338 422.834L163.9559 422.834L163.9559 422.834L163.9559 425.1559L163.9559 425.1559L161.6338 425.1559z" stroke="none" fill="#000000" fill-rule="winding" /><path transform="matrix(1 0 0 -1 0 841)" d="M163.9559 422.834L166.2779 422.834L166.2779 422.834L166.2779 425.1559L166.2779 425.1559L163.9559 425.1559z" stroke="none" fill="#000000" fill-rule="winding" /><path transform="matrix(1 0 0 -1 0 841)" d="M166.2779 422.834L168.5998 422.834L168.5998 422.834L168.5998 425.1559L168.5998 425.1559L166.2779 425.1559z" stroke="none" fill="#000000" fill-rule="winding" /><path transform="matrix(1 0 0 -1 0 841)" d="M170.9218 422.834L173.2439 422.834L173.2439 422.834L173.2439 425.1559L173.2439 425.1559L170.9218 425.1559z" stroke="none" fill="#000000" fill-rule="winding" /><path transform="matrix(1 0 0 -1 0 841)" d="M175.5659 422.834L177.8878 422.834L177.8878 422.834L177.8878 425.1559L177.8878 425.1559L175.5659 425.1559z" stroke="none" fill="#000000" fill-rule="winding" /><path transform="matrix(1 0 0 -1 0 841)" d="M177.8878 422.834L180.2098 422.834L180.2098 422.834L180.2098 425.1559L180.2098 425.1559L177.8878 425.1559z" stroke="none" fill="#000000" fill-rule="winding" /><path transform="matrix(1 0 0 -1 0 841)" d="M140.7358 420.5119L143.0578 420.5119L143.0578 420.5119L143.0578 422.8339L143.0578 422.8339L140.7358 422.8339z" stroke="none" fill="#000000" fill-rule="winding" /><path transform="matrix(1 0 0 -1 0 841)" d="M143.0578 420.5119L145.3799 420.5119L145.3799 420.5119L145.3799 422.8339L145.3799 422.8339L143.0578 422.8339z" stroke="none" fill="#000000" fill-rule="winding" /><path transform="matrix(1 0 0 -1 0 841)" d="M145.3799 420.5119L147.7018 420.5119L147.7018 420.5119L147.7018 422.8339L147.7018 422.8339L145.3799 422.8339z" stroke="none" fill="#000000" fill-rule="winding" /><path transform="matrix(1 0 0 -1 0 841)" d="M150.0238 420.5119L152.3458 420.5119L152.3458 420.5119L152.3458 422.8339L152.3458 422.8339L150.0238 422.8339z" stroke="none" fill="#000000" fill-rule="winding" /><path transform="matrix(1 0 0 -1 0 841)" d="M154.6679 420.5119L156.9897 420.5119L156.9897 420.5119L156.9897 422.8339L156.9897 422.8339L154.6679 422.8339z" stroke="none" fill="#000000" fill-rule="winding" /><path transform="matrix(1 0 0 -1 0 841)" d="M156.9897 420.5119L159.3118 420.5119L159.3118 420.5119L159.3118 422.8339L159.3118 422.8339L156.9897 422.8339z" stroke="none" fill="#000000" fill-rule="winding" /><path transform="matrix(1 0 0 -1 0 841)" d="M163.9559 420.5119L166.2779 420.5119L166.2779 420.5119L166.2779 422.8339L166.2779 422.8339L163.9559 422.8339z" stroke="none" fill="#000000" fill-rule="winding" /><path transform="matrix(1 0 0 -1 0 841)" d="M173.2439 420.5119L175.5659 420.5119L175.5659 420.5119L175.5659 422.8339L175.5659 422.8339L173.2439 422.8339z" stroke="none" fill="#000000" fill-rule="winding" /><path transform="matrix(1 0 0 -1 0 841)" d="M184.854 420.5119L187.1758 420.5119L187.1758 420.5119L187.1758 422.8339L187.1758 422.8339L184.854 422.8339z" stroke="none" fill="#000000" fill-rule="winding" /><path transform="matrix(1 0 0 -1 0 841)" d="M187.1757 420.5119L189.4977 420.5119L189.4977 420.5119L189.4977 422.8339L189.4977 422.8339L187.1757 422.8339z" stroke="none" fill="#000000" fill-rule="winding" /><path transform="matrix(1 0 0 -1 0 841)" d="M189.4978 420.5119L191.8198 420.5119L191.8198 420.5119L191.8198 422.8339L191.8198 422.8339L189.4978 422.8339z" stroke="none" fill="#000000" fill-rule="winding" /><path transform="matrix(1 0 0 -1 0 841)" d="M196.4641 420.5119L198.786 420.5119L198.786 420.5119L198.786 422.8339L198.786 422.8339L196.4641 422.8339z" stroke="none" fill="#000000" fill-rule="winding" /><path transform="matrix(1 0 0 -1 0 841)" d="M198.7858 420.5119L201.1078 420.5119L201.1078 420.5119L201.1078 422.8339L201.1078 422.8339L198.7858 422.8339z" stroke="none" fill="#000000" fill-rule="winding" /><path transform="matrix(1 0 0 -1 0 841)" d="M201.1079 420.5119L203.43 420.5119L203.43 420.5119L203.43 422.8339L203.43 422.8339L201.1079 422.8339z" stroke="none" fill="#000000" fill-rule="winding" /><path transform="matrix(1 0 0 -1 0 841)" d="M136.0919 418.1898L138.4137 418.1898L138.4137 418.1898L138.4137 420.5118L138.4137 420.5118L136.0919 420.5118z" stroke="none" fill="#000000" fill-rule="winding" /><path transform="matrix(1 0 0 -1 0 841)" d="M140.7358 418.1898L143.0578 418.1898L143.0578 418.1898L143.0578 420.5118L143.0578 420.5118L140.7358 420.5118z" stroke="none" fill="#000000" fill-rule="winding" /><path transform="matrix(1 0 0 -1 0 841)" d="M145.3799 418.1898L147.7018 418.1898L147.7018 418.1898L147.7018 420.5118L147.7018 420.5118L145.3799 420.5118z" stroke="none" fill="#000000" fill-rule="winding" /><path transform="matrix(1 0 0 -1 0 841)" d="M152.3458 418.1898L154.6679 418.1898L154.6679 418.1898L154.6679 420.5118L154.6679 420.5118L152.3458 420.5118z" stroke="none" fill="#000000" fill-rule="winding" /><path transform="matrix(1 0 0 -1 0 841)" d="M159.3118 418.1898L161.6338 418.1898L161.6338 418.1898L161.6338 420.5118L161.6338 420.5118L159.3118 420.5118z" stroke="none" fill="#000000" fill-rule="winding" /><path transform="matrix(1 0 0 -1 0 841)" d="M163.9559 418.1898L166.2779 418.1898L166.2779 418.1898L166.2779 420.5118L166.2779 420.5118L163.9559 420.5118z" stroke="none" fill="#000000" fill-rule="winding" /><path transform="matrix(1 0 0 -1 0 841)" d="M168.5998 418.1898L170.9218 418.1898L170.9218 418.1898L170.9218 420.5118L170.9218 420.5118L168.5998 420.5118z" stroke="none" fill="#000000" fill-rule="winding" /><path transform="matrix(1 0 0 -1 0 841)" d="M170.9218 418.1898L173.2439 418.1898L173.2439 418.1898L173.2439 420.5118L173.2439 420.5118L170.9218 420.5118z" stroke="none" fill="#000000" fill-rule="winding" /><path transform="matrix(1 0 0 -1 0 841)" d="M175.5659 418.1898L177.8878 418.1898L177.8878 418.1898L177.8878 420.5118L177.8878 420.5118L175.5659 420.5118z" stroke="none" fill="#000000" fill-rule="winding" /><path transform="matrix(1 0 0 -1 0 841)" d="M177.8878 418.1898L180.2098 418.1898L180.2098 418.1898L180.2098 420.5118L180.2098 420.5118L177.8878 420.5118z" stroke="none" fill="#000000" fill-rule="winding" /><path transform="matrix(1 0 0 -1 0 841)" d="M182.5319 418.1898L184.8539 418.1898L184.8539 418.1898L184.8539 420.5118L184.8539 420.5118L182.5319 420.5118z" stroke="none" fill="#000000" fill-rule="winding" /><path transform="matrix(1 0 0 -1 0 841)" d="M187.1757 418.1898L189.4977 418.1898L189.4977 418.1898L189.4977 420.5118L189.4977 420.5118L187.1757 420.5118z" stroke="none" fill="#000000" fill-rule="winding" /><path transform="matrix(1 0 0 -1 0 841)" d="M191.8199 418.1898L194.1419 418.1898L194.1419 418.1898L194.1419 420.5118L194.1419 420.5118L191.8199 420.5118z" stroke="none" fill="#000000" fill-rule="winding" /><path transform="matrix(1 0 0 -1 0 841)" d="M194.142 418.1898L196.4641 418.1898L196.4641 418.1898L196.4641 420.5118L196.4641 420.5118L194.142 420.5118z" stroke="none" fill="#000000" fill-rule="winding" /><path transform="matrix(1 0 0 -1 0 841)" d="M196.4641 418.1898L198.786 418.1898L198.786 418.1898L198.786 420.5118L198.786 420.5118L196.4641 420.5118z" stroke="none" fill="#000000" fill-rule="winding" /><path transform="matrix(1 0 0 -1 0 841)" d="M201.1079 418.1898L203.43 418.1898L203.43 418.1898L203.43 420.5118L203.43 420.5118L201.1079 420.5118z" stroke="none" fill="#000000" fill-rule="winding" /><path transform="matrix(1 0 0 -1 0 841)" d="M140.7358 415.8678L143.0578 415.8678L143.0578 415.8678L143.0578 418.1898L143.0578 418.1898L140.7358 418.1898z" stroke="none" fill="#000000" fill-rule="winding" /><path transform="matrix(1 0 0 -1 0 841)" d="M143.0578 415.8678L145.3799 415.8678L145.3799 415.8678L145.3799 418.1898L145.3799 418.1898L143.0578 418.1898z" stroke="none" fill="#000000" fill-rule="winding" /><path transform="matrix(1 0 0 -1 0 841)" d="M147.7017 415.8678L150.0238 415.8678L150.0238 415.8678L150.0238 418.1898L150.0238 418.1898L147.7017 418.1898z" stroke="none" fill="#000000" fill-rule="winding" /><path transform="matrix(1 0 0 -1 0 841)" d="M150.0238 415.8678L152.3458 415.8678L152.3458 415.8678L152.3458 418.1898L152.3458 418.1898L150.0238 418.1898z" stroke="none" fill="#000000" fill-rule="winding" /><path transform="matrix(1 0 0 -1 0 841)" d="M154.6679 415.8678L156.9897 415.8678L156.9897 415.8678L156.9897 418.1898L156.9897 418.1898L154.6679 418.1898z" stroke="none" fill="#000000" fill-rule="winding" /><path transform="matrix(1 0 0 -1 0 841)" d="M163.9559 415.8678L166.2779 415.8678L166.2779 415.8678L166.2779 418.1898L166.2779 418.1898L163.9559 418.1898z" stroke="none" fill="#000000" fill-rule="winding" /><path transform="matrix(1 0 0 -1 0 841)" d="M166.2779 415.8678L168.5998 415.8678L168.5998 415.8678L168.5998 418.1898L168.5998 418.1898L166.2779 418.1898z" stroke="none" fill="#000000" fill-rule="winding" /><path transform="matrix(1 0 0 -1 0 841)" d="M180.2097 415.8678L182.5318 415.8678L182.5318 415.8678L182.5318 418.1898L182.5318 418.1898L180.2097 418.1898z" stroke="none" fill="#000000" fill-rule="winding" /><path transform="matrix(1 0 0 -1 0 841)" d="M187.1757 415.8678L189.4977 415.8678L189.4977 415.8678L189.4977 418.1898L189.4977 418.1898L187.1757 418.1898z" stroke="none" fill="#000000" fill-rule="winding" /><path transform="matrix(1 0 0 -1 0 841)" d="M189.4978 415.8678L191.8198 415.8678L191.8198 415.8678L191.8198 418.1898L191.8198 418.1898L189.4978 418.1898z" stroke="none" fill="#000000" fill-rule="winding" /><path transform="matrix(1 0 0 -1 0 841)" d="M196.4641 415.8678L198.786 415.8678L198.786 415.8678L198.786 418.1898L198.786 418.1898L196.4641 418.1898z" stroke="none" fill="#000000" fill-rule="winding" /><path transform="matrix(1 0 0 -1 0 841)" d="M136.0919 413.546L138.4137 413.546L138.4137 413.546L138.4137 415.8678L138.4137 415.8678L136.0919 415.8678z" stroke="none" fill="#000000" fill-rule="winding" /><path transform="matrix(1 0 0 -1 0 841)" d="M138.4137 413.546L140.7358 413.546L140.7358 413.546L140.7358 415.8678L140.7358 415.8678L138.4137 415.8678z" stroke="none" fill="#000000" fill-rule="winding" /><path transform="matrix(1 0 0 -1 0 841)" d="M140.7358 413.546L143.0578 413.546L143.0578 413.546L143.0578 415.8678L143.0578 415.8678L140.7358 415.8678z" stroke="none" fill="#000000" fill-rule="winding" /><path transform="matrix(1 0 0 -1 0 841)" d="M147.7017 413.546L150.0238 413.546L150.0238 413.546L150.0238 415.8678L150.0238 415.8678L147.7017 415.8678z" stroke="none" fill="#000000" fill-rule="winding" /><path transform="matrix(1 0 0 -1 0 841)" d="M152.3458 413.546L154.6679 413.546L154.6679 413.546L154.6679 415.8678L154.6679 415.8678L152.3458 415.8678z" stroke="none" fill="#000000" fill-rule="winding" /><path transform="matrix(1 0 0 -1 0 841)" d="M154.6679 413.546L156.9897 413.546L156.9897 413.546L156.9897 415.8678L156.9897 415.8678L154.6679 415.8678z" stroke="none" fill="#000000" fill-rule="winding" /><path transform="matrix(1 0 0 -1 0 841)" d="M159.3118 413.546L161.6338 413.546L161.6338 413.546L161.6338 415.8678L161.6338 415.8678L159.3118 415.8678z" stroke="none" fill="#000000" fill-rule="winding" /><path transform="matrix(1 0 0 -1 0 841)" d="M166.2779 413.546L168.5998 413.546L168.5998 413.546L168.5998 415.8678L168.5998 415.8678L166.2779 415.8678z" stroke="none" fill="#000000" fill-rule="winding" /><path transform="matrix(1 0 0 -1 0 841)" d="M168.5998 413.546L170.9218 413.546L170.9218 413.546L170.9218 415.8678L170.9218 415.8678L168.5998 415.8678z" stroke="none" fill="#000000" fill-rule="winding" /><path transform="matrix(1 0 0 -1 0 841)" d="M170.9218 413.546L173.2439 413.546L173.2439 413.546L173.2439 415.8678L173.2439 415.8678L170.9218 415.8678z" stroke="none" fill="#000000" fill-rule="winding" /><path transform="matrix(1 0 0 -1 0 841)" d="M173.2439 413.546L175.5659 413.546L175.5659 413.546L175.5659 415.8678L175.5659 415.8678L173.2439 415.8678z" stroke="none" fill="#000000" fill-rule="winding" /><path transform="matrix(1 0 0 -1 0 841)" d="M177.8878 413.546L180.2098 413.546L180.2098 413.546L180.2098 415.8678L180.2098 415.8678L177.8878 415.8678z" stroke="none" fill="#000000" fill-rule="winding" /><path transform="matrix(1 0 0 -1 0 841)" d="M180.2097 413.546L182.5318 413.546L182.5318 413.546L182.5318 415.8678L182.5318 415.8678L180.2097 415.8678z" stroke="none" fill="#000000" fill-rule="winding" /><path transform="matrix(1 0 0 -1 0 841)" d="M182.5319 413.546L184.8539 413.546L184.8539 413.546L184.8539 415.8678L184.8539 415.8678L182.5319 415.8678z" stroke="none" fill="#000000" fill-rule="winding" /><path transform="matrix(1 0 0 -1 0 841)" d="M187.1757 413.546L189.4977 413.546L189.4977 413.546L189.4977 415.8678L189.4977 415.8678L187.1757 415.8678z" stroke="none" fill="#000000" fill-rule="winding" /><path transform="matrix(1 0 0 -1 0 841)" d="M191.8199 413.546L194.1419 413.546L194.1419 413.546L194.1419 415.8678L194.1419 415.8678L191.8199 415.8678z" stroke="none" fill="#000000" fill-rule="winding" /><path transform="matrix(1 0 0 -1 0 841)" d="M198.7858 413.546L201.1078 413.546L201.1078 413.546L201.1078 415.8678L201.1078 415.8678L198.7858 415.8678z" stroke="none" fill="#000000" fill-rule="winding" /><path transform="matrix(1 0 0 -1 0 841)" d="M136.0919 411.2239L138.4137 411.2239L138.4137 411.2239L138.4137 413.5459L138.4137 413.5459L136.0919 413.5459z" stroke="none" fill="#000000" fill-rule="winding" /><path transform="matrix(1 0 0 -1 0 841)" d="M143.0578 411.2239L145.3799 411.2239L145.3799 411.2239L145.3799 413.5459L145.3799 413.5459L143.0578 413.5459z" stroke="none" fill="#000000" fill-rule="winding" /><path transform="matrix(1 0 0 -1 0 841)" d="M147.7017 411.2239L150.0238 411.2239L150.0238 411.2239L150.0238 413.5459L150.0238 413.5459L147.7017 413.5459z" stroke="none" fill="#000000" fill-rule="winding" /><path transform="matrix(1 0 0 -1 0 841)" d="M150.0238 411.2239L152.3458 411.2239L152.3458 411.2239L152.3458 413.5459L152.3458 413.5459L150.0238 413.5459z" stroke="none" fill="#000000" fill-rule="winding" /><path transform="matrix(1 0 0 -1 0 841)" d="M156.9897 411.2239L159.3118 411.2239L159.3118 411.2239L159.3118 413.5459L159.3118 413.5459L156.9897 413.5459z" stroke="none" fill="#000000" fill-rule="winding" /><path transform="matrix(1 0 0 -1 0 841)" d="M161.6338 411.2239L163.9559 411.2239L163.9559 411.2239L163.9559 413.5459L163.9559 413.5459L161.6338 413.5459z" stroke="none" fill="#000000" fill-rule="winding" /><path transform="matrix(1 0 0 -1 0 841)" d="M163.9559 411.2239L166.2779 411.2239L166.2779 411.2239L166.2779 413.5459L166.2779 413.5459L163.9559 413.5459z" stroke="none" fill="#000000" fill-rule="winding" /><path transform="matrix(1 0 0 -1 0 841)" d="M166.2779 411.2239L168.5998 411.2239L168.5998 411.2239L168.5998 413.5459L168.5998 413.5459L166.2779 413.5459z" stroke="none" fill="#000000" fill-rule="winding" /><path transform="matrix(1 0 0 -1 0 841)" d="M168.5998 411.2239L170.9218 411.2239L170.9218 411.2239L170.9218 413.5459L170.9218 413.5459L168.5998 413.5459z" stroke="none" fill="#000000" fill-rule="winding" /><path transform="matrix(1 0 0 -1 0 841)" d="M170.9218 411.2239L173.2439 411.2239L173.2439 411.2239L173.2439 413.5459L173.2439 413.5459L170.9218 413.5459z" stroke="none" fill="#000000" fill-rule="winding" /><path transform="matrix(1 0 0 -1 0 841)" d="M177.8878 411.2239L180.2098 411.2239L180.2098 411.2239L180.2098 413.5459L180.2098 413.5459L177.8878 413.5459z" stroke="none" fill="#000000" fill-rule="winding" /><path transform="matrix(1 0 0 -1 0 841)" d="M180.2097 411.2239L182.5318 411.2239L182.5318 411.2239L182.5318 413.5459L182.5318 413.5459L180.2097 413.5459z" stroke="none" fill="#000000" fill-rule="winding" /><path transform="matrix(1 0 0 -1 0 841)" d="M182.5319 411.2239L184.8539 411.2239L184.8539 411.2239L184.8539 413.5459L184.8539 413.5459L182.5319 413.5459z" stroke="none" fill="#000000" fill-rule="winding" /><path transform="matrix(1 0 0 -1 0 841)" d="M184.854 411.2239L187.1758 411.2239L187.1758 411.2239L187.1758 413.5459L187.1758 413.5459L184.854 413.5459z" stroke="none" fill="#000000" fill-rule="winding" /><path transform="matrix(1 0 0 -1 0 841)" d="M196.4641 411.2239L198.786 411.2239L198.786 411.2239L198.786 413.5459L198.786 413.5459L196.4641 413.5459z" stroke="none" fill="#000000" fill-rule="winding" /><path transform="matrix(1 0 0 -1 0 841)" d="M198.7858 411.2239L201.1078 411.2239L201.1078 411.2239L201.1078 413.5459L201.1078 413.5459L198.7858 413.5459z" stroke="none" fill="#000000" fill-rule="winding" /><path transform="matrix(1 0 0 -1 0 841)" d="M201.1079 411.2239L203.43 411.2239L203.43 411.2239L203.43 413.5459L203.43 413.5459L201.1079 413.5459z" stroke="none" fill="#000000" fill-rule="winding" /><path transform="matrix(1 0 0 -1 0 841)" d="M140.7358 408.9019L143.0578 408.9019L143.0578 408.9019L143.0578 411.2239L143.0578 411.2239L140.7358 411.2239z" stroke="none" fill="#000000" fill-rule="winding" /><path transform="matrix(1 0 0 -1 0 841)" d="M143.0578 408.9019L145.3799 408.9019L145.3799 408.9019L145.3799 411.2239L145.3799 411.2239L143.0578 411.2239z" stroke="none" fill="#000000" fill-rule="winding" /><path transform="matrix(1 0 0 -1 0 841)" d="M145.3799 408.9019L147.7018 408.9019L147.7018 408.9019L147.7018 411.2239L147.7018 411.2239L145.3799 411.2239z" stroke="none" fill="#000000" fill-rule="winding" /><path transform="matrix(1 0 0 -1 0 841)" d="M156.9897 408.9019L159.3118 408.9019L159.3118 408.9019L159.3118 411.2239L159.3118 411.2239L156.9897 411.2239z" stroke="none" fill="#000000" fill-rule="winding" /><path transform="matrix(1 0 0 -1 0 841)" d="M161.6338 408.9019L163.9559 408.9019L163.9559 408.9019L163.9559 411.2239L163.9559 411.2239L161.6338 411.2239z" stroke="none" fill="#000000" fill-rule="winding" /><path transform="matrix(1 0 0 -1 0 841)" d="M166.2779 408.9019L168.5998 408.9019L168.5998 408.9019L168.5998 411.2239L168.5998 411.2239L166.2779 411.2239z" stroke="none" fill="#000000" fill-rule="winding" /><path transform="matrix(1 0 0 -1 0 841)" d="M168.5998 408.9019L170.9218 408.9019L170.9218 408.9019L170.9218 411.2239L170.9218 411.2239L168.5998 411.2239z" stroke="none" fill="#000000" fill-rule="winding" /><path transform="matrix(1 0 0 -1 0 841)" d="M173.2439 408.9019L175.5659 408.9019L175.5659 408.9019L175.5659 411.2239L175.5659 411.2239L173.2439 411.2239z" stroke="none" fill="#000000" fill-rule="winding" /><path transform="matrix(1 0 0 -1 0 841)" d="M175.5659 408.9019L177.8878 408.9019L177.8878 408.9019L177.8878 411.2239L177.8878 411.2239L175.5659 411.2239z" stroke="none" fill="#000000" fill-rule="winding" /><path transform="matrix(1 0 0 -1 0 841)" d="M180.2097 408.9019L182.5318 408.9019L182.5318 408.9019L182.5318 411.2239L182.5318 411.2239L180.2097 411.2239z" stroke="none" fill="#000000" fill-rule="winding" /><path transform="matrix(1 0 0 -1 0 841)" d="M184.854 408.9019L187.1758 408.9019L187.1758 408.9019L187.1758 411.2239L187.1758 411.2239L184.854 411.2239z" stroke="none" fill="#000000" fill-rule="winding" /><path transform="matrix(1 0 0 -1 0 841)" d="M187.1757 408.9019L189.4977 408.9019L189.4977 408.9019L189.4977 411.2239L189.4977 411.2239L187.1757 411.2239z" stroke="none" fill="#000000" fill-rule="winding" /><path transform="matrix(1 0 0 -1 0 841)" d="M191.8199 408.9019L194.1419 408.9019L194.1419 408.9019L194.1419 411.2239L194.1419 411.2239L191.8199 411.2239z" stroke="none" fill="#000000" fill-rule="winding" /><path transform="matrix(1 0 0 -1 0 841)" d="M194.142 408.9019L196.4641 408.9019L196.4641 408.9019L196.4641 411.2239L196.4641 411.2239L194.142 411.2239z" stroke="none" fill="#000000" fill-rule="winding" /><path transform="matrix(1 0 0 -1 0 841)" d="M198.7858 408.9019L201.1078 408.9019L201.1078 408.9019L201.1078 411.2239L201.1078 411.2239L198.7858 411.2239z" stroke="none" fill="#000000" fill-rule="winding" /><path transform="matrix(1 0 0 -1 0 841)" d="M201.1079 408.9019L203.43 408.9019L203.43 408.9019L203.43 411.2239L203.43 411.2239L201.1079 411.2239z" stroke="none" fill="#000000" fill-rule="winding" /><path transform="matrix(1 0 0 -1 0 841)" d="M136.0919 406.5798L138.4137 406.5798L138.4137 406.5798L138.4137 408.9019L138.4137 408.9019L136.0919 408.9019z" stroke="none" fill="#000000" fill-rule="winding" /><path transform="matrix(1 0 0 -1 0 841)" d="M138.4137 406.5798L140.7358 406.5798L140.7358 406.5798L140.7358 408.9019L140.7358 408.9019L138.4137 408.9019z" stroke="none" fill="#000000" fill-rule="winding" /><path transform="matrix(1 0 0 -1 0 841)" d="M140.7358 406.5798L143.0578 406.5798L143.0578 406.5798L143.0578 408.9019L143.0578 408.9019L140.7358 408.9019z" stroke="none" fill="#000000" fill-rule="winding" /><path transform="matrix(1 0 0 -1 0 841)" d="M147.7017 406.5798L150.0238 406.5798L150.0238 406.5798L150.0238 408.9019L150.0238 408.9019L147.7017 408.9019z" stroke="none" fill="#000000" fill-rule="winding" /><path transform="matrix(1 0 0 -1 0 841)" d="M150.0238 406.5798L152.3458 406.5798L152.3458 406.5798L152.3458 408.9019L152.3458 408.9019L150.0238 408.9019z" stroke="none" fill="#000000" fill-rule="winding" /><path transform="matrix(1 0 0 -1 0 841)" d="M154.6679 406.5798L156.9897 406.5798L156.9897 406.5798L156.9897 408.9019L156.9897 408.9019L154.6679 408.9019z" stroke="none" fill="#000000" fill-rule="winding" /><path transform="matrix(1 0 0 -1 0 841)" d="M166.2779 406.5798L168.5998 406.5798L168.5998 406.5798L168.5998 408.9019L168.5998 408.9019L166.2779 408.9019z" stroke="none" fill="#000000" fill-rule="winding" /><path transform="matrix(1 0 0 -1 0 841)" d="M170.9218 406.5798L173.2439 406.5798L173.2439 406.5798L173.2439 408.9019L173.2439 408.9019L170.9218 408.9019z" stroke="none" fill="#000000" fill-rule="winding" /><path transform="matrix(1 0 0 -1 0 841)" d="M173.2439 406.5798L175.5659 406.5798L175.5659 406.5798L175.5659 408.9019L175.5659 408.9019L173.2439 408.9019z" stroke="none" fill="#000000" fill-rule="winding" /><path transform="matrix(1 0 0 -1 0 841)" d="M140.7358 404.2579L143.0578 404.2579L143.0578 404.2579L143.0578 406.5798L143.0578 406.5798L140.7358 406.5798z" stroke="none" fill="#000000" fill-rule="winding" /><path transform="matrix(1 0 0 -1 0 841)" d="M143.0578 404.2579L145.3799 404.2579L145.3799 404.2579L145.3799 406.5798L145.3799 406.5798L143.0578 406.5798z" stroke="none" fill="#000000" fill-rule="winding" /><path transform="matrix(1 0 0 -1 0 841)" d="M147.7017 404.2579L150.0238 404.2579L150.0238 404.2579L150.0238 406.5798L150.0238 406.5798L147.7017 406.5798z" stroke="none" fill="#000000" fill-rule="winding" /><path transform="matrix(1 0 0 -1 0 841)" d="M156.9897 404.2579L159.3118 404.2579L159.3118 404.2579L159.3118 406.5798L159.3118 406.5798L156.9897 406.5798z" stroke="none" fill="#000000" fill-rule="winding" /><path transform="matrix(1 0 0 -1 0 841)" d="M159.3118 404.2579L161.6338 404.2579L161.6338 404.2579L161.6338 406.5798L161.6338 406.5798L159.3118 406.5798z" stroke="none" fill="#000000" fill-rule="winding" /><path transform="matrix(1 0 0 -1 0 841)" d="M166.2779 404.2579L168.5998 404.2579L168.5998 404.2579L168.5998 406.5798L168.5998 406.5798L166.2779 406.5798z" stroke="none" fill="#000000" fill-rule="winding" /><path transform="matrix(1 0 0 -1 0 841)" d="M168.5998 404.2579L170.9218 404.2579L170.9218 404.2579L170.9218 406.5798L170.9218 406.5798L168.5998 406.5798z" stroke="none" fill="#000000" fill-rule="winding" /><path transform="matrix(1 0 0 -1 0 841)" d="M170.9218 404.2579L173.2439 404.2579L173.2439 404.2579L173.2439 406.5798L173.2439 406.5798L170.9218 406.5798z" stroke="none" fill="#000000" fill-rule="winding" /><path transform="matrix(1 0 0 -1 0 841)" d="M175.5659 404.2579L177.8878 404.2579L177.8878 404.2579L177.8878 406.5798L177.8878 406.5798L175.5659 406.5798z" stroke="none" fill="#000000" fill-rule="winding" /><path transform="matrix(1 0 0 -1 0 841)" d="M180.2097 404.2579L182.5318 404.2579L182.5318 404.2579L182.5318 406.5798L182.5318 406.5798L180.2097 406.5798z" stroke="none" fill="#000000" fill-rule="winding" /><path transform="matrix(1 0 0 -1 0 841)" d="M184.854 404.2579L187.1758 404.2579L187.1758 404.2579L187.1758 406.5798L187.1758 406.5798L184.854 406.5798z" stroke="none" fill="#000000" fill-rule="winding" /><path transform="matrix(1 0 0 -1 0 841)" d="M187.1757 404.2579L189.4977 404.2579L189.4977 404.2579L189.4977 406.5798L189.4977 406.5798L187.1757 406.5798z" stroke="none" fill="#000000" fill-rule="winding" /><path transform="matrix(1 0 0 -1 0 841)" d="M194.142 404.2579L196.4641 404.2579L196.4641 404.2579L196.4641 406.5798L196.4641 406.5798L194.142 406.5798z" stroke="none" fill="#000000" fill-rule="winding" /><path transform="matrix(1 0 0 -1 0 841)" d="M201.1079 404.2579L203.43 404.2579L203.43 404.2579L203.43 406.5798L203.43 406.5798L201.1079 406.5798z" stroke="none" fill="#000000" fill-rule="winding" /><path transform="matrix(1 0 0 -1 0 841)" d="M143.0578 401.9359L145.3799 401.9359L145.3799 401.9359L145.3799 404.2579L145.3799 404.2579L143.0578 404.2579z" stroke="none" fill="#000000" fill-rule="winding" /><path transform="matrix(1 0 0 -1 0 841)" d="M150.0238 401.9359L152.3458 401.9359L152.3458 401.9359L152.3458 404.2579L152.3458 404.2579L150.0238 404.2579z" stroke="none" fill="#000000" fill-rule="winding" /><path transform="matrix(1 0 0 -1 0 841)" d="M152.3458 401.9359L154.6679 401.9359L154.6679 401.9359L154.6679 404.2579L154.6679 404.2579L152.3458 404.2579z" stroke="none" fill="#000000" fill-rule="winding" /><path transform="matrix(1 0 0 -1 0 841)" d="M156.9897 401.9359L159.3118 401.9359L159.3118 401.9359L159.3118 404.2579L159.3118 404.2579L156.9897 404.2579z" stroke="none" fill="#000000" fill-rule="winding" /><path transform="matrix(1 0 0 -1 0 841)" d="M159.3118 401.9359L161.6338 401.9359L161.6338 401.9359L161.6338 404.2579L161.6338 404.2579L159.3118 404.2579z" stroke="none" fill="#000000" fill-rule="winding" /><path transform="matrix(1 0 0 -1 0 841)" d="M163.9559 401.9359L166.2779 401.9359L166.2779 401.9359L166.2779 404.2579L166.2779 404.2579L163.9559 404.2579z" stroke="none" fill="#000000" fill-rule="winding" /><path transform="matrix(1 0 0 -1 0 841)" d="M166.2779 401.9359L168.5998 401.9359L168.5998 401.9359L168.5998 404.2579L168.5998 404.2579L166.2779 404.2579z" stroke="none" fill="#000000" fill-rule="winding" /><path transform="matrix(1 0 0 -1 0 841)" d="M170.9218 401.9359L173.2439 401.9359L173.2439 401.9359L173.2439 404.2579L173.2439 404.2579L170.9218 404.2579z" stroke="none" fill="#000000" fill-rule="winding" /><path transform="matrix(1 0 0 -1 0 841)" d="M173.2439 401.9359L175.5659 401.9359L175.5659 401.9359L175.5659 404.2579L175.5659 404.2579L173.2439 404.2579z" stroke="none" fill="#000000" fill-rule="winding" /><path transform="matrix(1 0 0 -1 0 841)" d="M175.5659 401.9359L177.8878 401.9359L177.8878 401.9359L177.8878 404.2579L177.8878 404.2579L175.5659 404.2579z" stroke="none" fill="#000000" fill-rule="winding" /><path transform="matrix(1 0 0 -1 0 841)" d="M177.8878 401.9359L180.2098 401.9359L180.2098 401.9359L180.2098 404.2579L180.2098 404.2579L177.8878 404.2579z" stroke="none" fill="#000000" fill-rule="winding" /><path transform="matrix(1 0 0 -1 0 841)" d="M194.142 401.9359L196.4641 401.9359L196.4641 401.9359L196.4641 404.2579L196.4641 404.2579L194.142 404.2579z" stroke="none" fill="#000000" fill-rule="winding" /><path transform="matrix(1 0 0 -1 0 841)" d="M196.4641 401.9359L198.786 401.9359L198.786 401.9359L198.786 404.2579L198.786 404.2579L196.4641 404.2579z" stroke="none" fill="#000000" fill-rule="winding" /><path transform="matrix(1 0 0 -1 0 841)" d="M198.7858 401.9359L201.1078 401.9359L201.1078 401.9359L201.1078 404.2579L201.1078 404.2579L198.7858 404.2579z" stroke="none" fill="#000000" fill-rule="winding" /><path transform="matrix(1 0 0 -1 0 841)" d="M136.0919 399.6139L138.4137 399.6139L138.4137 399.6139L138.4137 401.9359L138.4137 401.9359L136.0919 401.9359z" stroke="none" fill="#000000" fill-rule="winding" /><path transform="matrix(1 0 0 -1 0 841)" d="M140.7358 399.6139L143.0578 399.6139L143.0578 399.6139L143.0578 401.9359L143.0578 401.9359L140.7358 401.9359z" stroke="none" fill="#000000" fill-rule="winding" /><path transform="matrix(1 0 0 -1 0 841)" d="M143.0578 399.6139L145.3799 399.6139L145.3799 399.6139L145.3799 401.9359L145.3799 401.9359L143.0578 401.9359z" stroke="none" fill="#000000" fill-rule="winding" /><path transform="matrix(1 0 0 -1 0 841)" d="M145.3799 399.6139L147.7018 399.6139L147.7018 399.6139L147.7018 401.9359L147.7018 401.9359L145.3799 401.9359z" stroke="none" fill="#000000" fill-rule="winding" /><path transform="matrix(1 0 0 -1 0 841)" d="M147.7017 399.6139L150.0238 399.6139L150.0238 399.6139L150.0238 401.9359L150.0238 401.9359L147.7017 401.9359z" stroke="none" fill="#000000" fill-rule="winding" /><path transform="matrix(1 0 0 -1 0 841)" d="M156.9897 399.6139L159.3118 399.6139L159.3118 399.6139L159.3118 401.9359L159.3118 401.9359L156.9897 401.9359z" stroke="none" fill="#000000" fill-rule="winding" /><path transform="matrix(1 0 0 -1 0 841)" d="M159.3118 399.6139L161.6338 399.6139L161.6338 399.6139L161.6338 401.9359L161.6338 401.9359L159.3118 401.9359z" stroke="none" fill="#000000" fill-rule="winding" /><path transform="matrix(1 0 0 -1 0 841)" d="M163.9559 399.6139L166.2779 399.6139L166.2779 399.6139L166.2779 401.9359L166.2779 401.9359L163.9559 401.9359z" stroke="none" fill="#000000" fill-rule="winding" /><path transform="matrix(1 0 0 -1 0 841)" d="M166.2779 399.6139L168.5998 399.6139L168.5998 399.6139L168.5998 401.9359L168.5998 401.9359L166.2779 401.9359z" stroke="none" fill="#000000" fill-rule="winding" /><path transform="matrix(1 0 0 -1 0 841)" d="M168.5998 399.6139L170.9218 399.6139L170.9218 399.6139L170.9218 401.9359L170.9218 401.9359L168.5998 401.9359z" stroke="none" fill="#000000" fill-rule="winding" /><path transform="matrix(1 0 0 -1 0 841)" d="M173.2439 399.6139L175.5659 399.6139L175.5659 399.6139L175.5659 401.9359L175.5659 401.9359L173.2439 401.9359z" stroke="none" fill="#000000" fill-rule="winding" /><path transform="matrix(1 0 0 -1 0 841)" d="M177.8878 399.6139L180.2098 399.6139L180.2098 399.6139L180.2098 401.9359L180.2098 401.9359L177.8878 401.9359z" stroke="none" fill="#000000" fill-rule="winding" /><path transform="matrix(1 0 0 -1 0 841)" d="M187.1757 399.6139L189.4977 399.6139L189.4977 399.6139L189.4977 401.9359L189.4977 401.9359L187.1757 401.9359z" stroke="none" fill="#000000" fill-rule="winding" /><path transform="matrix(1 0 0 -1 0 841)" d="M189.4978 399.6139L191.8198 399.6139L191.8198 399.6139L191.8198 401.9359L191.8198 401.9359L189.4978 401.9359z" stroke="none" fill="#000000" fill-rule="winding" /><path transform="matrix(1 0 0 -1 0 841)" d="M191.8199 399.6139L194.1419 399.6139L194.1419 399.6139L194.1419 401.9359L194.1419 401.9359L191.8199 401.9359z" stroke="none" fill="#000000" fill-rule="winding" /><path transform="matrix(1 0 0 -1 0 841)" d="M194.142 399.6139L196.4641 399.6139L196.4641 399.6139L196.4641 401.9359L196.4641 401.9359L194.142 401.9359z" stroke="none" fill="#000000" fill-rule="winding" /><path transform="matrix(1 0 0 -1 0 841)" d="M196.4641 399.6139L198.786 399.6139L198.786 399.6139L198.786 401.9359L198.786 401.9359L196.4641 401.9359z" stroke="none" fill="#000000" fill-rule="winding" /><path transform="matrix(1 0 0 -1 0 841)" d="M198.7858 399.6139L201.1078 399.6139L201.1078 399.6139L201.1078 401.9359L201.1078 401.9359L198.7858 401.9359z" stroke="none" fill="#000000" fill-rule="winding" /><path transform="matrix(1 0 0 -1 0 841)" d="M201.1079 399.6139L203.43 399.6139L203.43 399.6139L203.43 401.9359L203.43 401.9359L201.1079 401.9359z" stroke="none" fill="#000000" fill-rule="winding" /><path transform="matrix(1 0 0 -1 0 841)" d="M136.0919 397.2918L138.4137 397.2918L138.4137 397.2918L138.4137 399.6138L138.4137 399.6138L136.0919 399.6138z" stroke="none" fill="#000000" fill-rule="winding" /><path transform="matrix(1 0 0 -1 0 841)" d="M147.7017 397.2918L150.0238 397.2918L150.0238 397.2918L150.0238 399.6138L150.0238 399.6138L147.7017 399.6138z" stroke="none" fill="#000000" fill-rule="winding" /><path transform="matrix(1 0 0 -1 0 841)" d="M150.0238 397.2918L152.3458 397.2918L152.3458 397.2918L152.3458 399.6138L152.3458 399.6138L150.0238 399.6138z" stroke="none" fill="#000000" fill-rule="winding" /><path transform="matrix(1 0 0 -1 0 841)" d="M156.9897 397.2918L159.3118 397.2918L159.3118 397.2918L159.3118 399.6138L159.3118 399.6138L156.9897 399.6138z" stroke="none" fill="#000000" fill-rule="winding" /><path transform="matrix(1 0 0 -1 0 841)" d="M159.3118 397.2918L161.6338 397.2918L161.6338 397.2918L161.6338 399.6138L161.6338 399.6138L159.3118 399.6138z" stroke="none" fill="#000000" fill-rule="winding" /><path transform="matrix(1 0 0 -1 0 841)" d="M170.9218 397.2918L173.2439 397.2918L173.2439 397.2918L173.2439 399.6138L173.2439 399.6138L170.9218 399.6138z" stroke="none" fill="#000000" fill-rule="winding" /><path transform="matrix(1 0 0 -1 0 841)" d="M175.5659 397.2918L177.8878 397.2918L177.8878 397.2918L177.8878 399.6138L177.8878 399.6138L175.5659 399.6138z" stroke="none" fill="#000000" fill-rule="winding" /><path transform="matrix(1 0 0 -1 0 841)" d="M187.1757 397.2918L189.4977 397.2918L189.4977 397.2918L189.4977 399.6138L189.4977 399.6138L187.1757 399.6138z" stroke="none" fill="#000000" fill-rule="winding" /><path transform="matrix(1 0 0 -1 0 841)" d="M191.8199 397.2918L194.1419 397.2918L194.1419 397.2918L194.1419 399.6138L194.1419 399.6138L191.8199 399.6138z" stroke="none" fill="#000000" fill-rule="winding" /><path transform="matrix(1 0 0 -1 0 841)" d="M194.142 397.2918L196.4641 397.2918L196.4641 397.2918L196.4641 399.6138L196.4641 399.6138L194.142 399.6138z" stroke="none" fill="#000000" fill-rule="winding" /><path transform="matrix(1 0 0 -1 0 841)" d="M196.4641 397.2918L198.786 397.2918L198.786 397.2918L198.786 399.6138L198.786 399.6138L196.4641 399.6138z" stroke="none" fill="#000000" fill-rule="winding" /><path transform="matrix(1 0 0 -1 0 841)" d="M136.0919 394.9697L138.4137 394.9697L138.4137 394.9697L138.4137 397.2918L138.4137 397.2918L136.0919 397.2918z" stroke="none" fill="#000000" fill-rule="winding" /><path transform="matrix(1 0 0 -1 0 841)" d="M140.7358 394.9697L143.0578 394.9697L143.0578 394.9697L143.0578 397.2918L143.0578 397.2918L140.7358 397.2918z" stroke="none" fill="#000000" fill-rule="winding" /><path transform="matrix(1 0 0 -1 0 841)" d="M143.0578 394.9697L145.3799 394.9697L145.3799 394.9697L145.3799 397.2918L145.3799 397.2918L143.0578 397.2918z" stroke="none" fill="#000000" fill-rule="winding" /><path transform="matrix(1 0 0 -1 0 841)" d="M145.3799 394.9697L147.7018 394.9697L147.7018 394.9697L147.7018 397.2918L147.7018 397.2918L145.3799 397.2918z" stroke="none" fill="#000000" fill-rule="winding" /><path transform="matrix(1 0 0 -1 0 841)" d="M147.7017 394.9697L150.0238 394.9697L150.0238 394.9697L150.0238 397.2918L150.0238 397.2918L147.7017 397.2918z" stroke="none" fill="#000000" fill-rule="winding" /><path transform="matrix(1 0 0 -1 0 841)" d="M152.3458 394.9697L154.6679 394.9697L154.6679 394.9697L154.6679 397.2918L154.6679 397.2918L152.3458 397.2918z" stroke="none" fill="#000000" fill-rule="winding" /><path transform="matrix(1 0 0 -1 0 841)" d="M156.9897 394.9697L159.3118 394.9697L159.3118 394.9697L159.3118 397.2918L159.3118 397.2918L156.9897 397.2918z" stroke="none" fill="#000000" fill-rule="winding" /><path transform="matrix(1 0 0 -1 0 841)" d="M159.3118 394.9697L161.6338 394.9697L161.6338 394.9697L161.6338 397.2918L161.6338 397.2918L159.3118 397.2918z" stroke="none" fill="#000000" fill-rule="winding" /><path transform="matrix(1 0 0 -1 0 841)" d="M161.6338 394.9697L163.9559 394.9697L163.9559 394.9697L163.9559 397.2918L163.9559 397.2918L161.6338 397.2918z" stroke="none" fill="#000000" fill-rule="winding" /><path transform="matrix(1 0 0 -1 0 841)" d="M163.9559 394.9697L166.2779 394.9697L166.2779 394.9697L166.2779 397.2918L166.2779 397.2918L163.9559 397.2918z" stroke="none" fill="#000000" fill-rule="winding" /><path transform="matrix(1 0 0 -1 0 841)" d="M166.2779 394.9697L168.5998 394.9697L168.5998 394.9697L168.5998 397.2918L168.5998 397.2918L166.2779 397.2918z" stroke="none" fill="#000000" fill-rule="winding" /><path transform="matrix(1 0 0 -1 0 841)" d="M170.9218 394.9697L173.2439 394.9697L173.2439 394.9697L173.2439 397.2918L173.2439 397.2918L170.9218 397.2918z" stroke="none" fill="#000000" fill-rule="winding" /><path transform="matrix(1 0 0 -1 0 841)" d="M173.2439 394.9697L175.5659 394.9697L175.5659 394.9697L175.5659 397.2918L175.5659 397.2918L173.2439 397.2918z" stroke="none" fill="#000000" fill-rule="winding" /><path transform="matrix(1 0 0 -1 0 841)" d="M175.5659 394.9697L177.8878 394.9697L177.8878 394.9697L177.8878 397.2918L177.8878 397.2918L175.5659 397.2918z" stroke="none" fill="#000000" fill-rule="winding" /><path transform="matrix(1 0 0 -1 0 841)" d="M182.5319 394.9697L184.8539 394.9697L184.8539 394.9697L184.8539 397.2918L184.8539 397.2918L182.5319 397.2918z" stroke="none" fill="#000000" fill-rule="winding" /><path transform="matrix(1 0 0 -1 0 841)" d="M187.1757 394.9697L189.4977 394.9697L189.4977 394.9697L189.4977 397.2918L189.4977 397.2918L187.1757 397.2918z" stroke="none" fill="#000000" fill-rule="winding" /><path transform="matrix(1 0 0 -1 0 841)" d="M189.4978 394.9697L191.8198 394.9697L191.8198 394.9697L191.8198 397.2918L191.8198 397.2918L189.4978 397.2918z" stroke="none" fill="#000000" fill-rule="winding" /><path transform="matrix(1 0 0 -1 0 841)" d="M191.8199 394.9697L194.1419 394.9697L194.1419 394.9697L194.1419 397.2918L194.1419 397.2918L191.8199 397.2918z" stroke="none" fill="#000000" fill-rule="winding" /><path transform="matrix(1 0 0 -1 0 841)" d="M194.142 394.9697L196.4641 394.9697L196.4641 394.9697L196.4641 397.2918L196.4641 397.2918L194.142 397.2918z" stroke="none" fill="#000000" fill-rule="winding" /><path transform="matrix(1 0 0 -1 0 841)" d="M136.0919 392.6479L138.4137 392.6479L138.4137 392.6479L138.4137 394.9698L138.4137 394.9698L136.0919 394.9698z" stroke="none" fill="#000000" fill-rule="winding" /><path transform="matrix(1 0 0 -1 0 841)" d="M140.7358 392.6479L143.0578 392.6479L143.0578 392.6479L143.0578 394.9698L143.0578 394.9698L140.7358 394.9698z" stroke="none" fill="#000000" fill-rule="winding" /><path transform="matrix(1 0 0 -1 0 841)" d="M150.0238 392.6479L152.3458 392.6479L152.3458 392.6479L152.3458 394.9698L152.3458 394.9698L150.0238 394.9698z" stroke="none" fill="#000000" fill-rule="winding" /><path transform="matrix(1 0 0 -1 0 841)" d="M154.6679 392.6479L156.9897 392.6479L156.9897 392.6479L156.9897 394.9698L156.9897 394.9698L154.6679 394.9698z" stroke="none" fill="#000000" fill-rule="winding" /><path transform="matrix(1 0 0 -1 0 841)" d="M177.8878 392.6479L180.2098 392.6479L180.2098 392.6479L180.2098 394.9698L180.2098 394.9698L177.8878 394.9698z" stroke="none" fill="#000000" fill-rule="winding" /><path transform="matrix(1 0 0 -1 0 841)" d="M182.5319 392.6479L184.8539 392.6479L184.8539 392.6479L184.8539 394.9698L184.8539 394.9698L182.5319 394.9698z" stroke="none" fill="#000000" fill-rule="winding" /><path transform="matrix(1 0 0 -1 0 841)" d="M184.854 392.6479L187.1758 392.6479L187.1758 392.6479L187.1758 394.9698L187.1758 394.9698L184.854 394.9698z" stroke="none" fill="#000000" fill-rule="winding" /><path transform="matrix(1 0 0 -1 0 841)" d="M187.1757 392.6479L189.4977 392.6479L189.4977 392.6479L189.4977 394.9698L189.4977 394.9698L187.1757 394.9698z" stroke="none" fill="#000000" fill-rule="winding" /><path transform="matrix(1 0 0 -1 0 841)" d="M189.4978 392.6479L191.8198 392.6479L191.8198 392.6479L191.8198 394.9698L191.8198 394.9698L189.4978 394.9698z" stroke="none" fill="#000000" fill-rule="winding" /><path transform="matrix(1 0 0 -1 0 841)" d="M191.8199 392.6479L194.1419 392.6479L194.1419 392.6479L194.1419 394.9698L194.1419 394.9698L191.8199 394.9698z" stroke="none" fill="#000000" fill-rule="winding" /><path transform="matrix(1 0 0 -1 0 841)" d="M154.6679 390.3259L156.9897 390.3259L156.9897 390.3259L156.9897 392.6479L156.9897 392.6479L154.6679 392.6479z" stroke="none" fill="#000000" fill-rule="winding" /><path transform="matrix(1 0 0 -1 0 841)" d="M159.3118 390.3259L161.6338 390.3259L161.6338 390.3259L161.6338 392.6479L161.6338 392.6479L159.3118 392.6479z" stroke="none" fill="#000000" fill-rule="winding" /><path transform="matrix(1 0 0 -1 0 841)" d="M166.2779 390.3259L168.5998 390.3259L168.5998 390.3259L168.5998 392.6479L168.5998 392.6479L166.2779 392.6479z" stroke="none" fill="#000000" fill-rule="winding" /><path transform="matrix(1 0 0 -1 0 841)" d="M168.5998 390.3259L170.9218 390.3259L170.9218 390.3259L170.9218 392.6479L170.9218 392.6479L168.5998 392.6479z" stroke="none" fill="#000000" fill-rule="winding" /><path transform="matrix(1 0 0 -1 0 841)" d="M175.5659 390.3259L177.8878 390.3259L177.8878 390.3259L177.8878 392.6479L177.8878 392.6479L175.5659 392.6479z" stroke="none" fill="#000000" fill-rule="winding" /><path transform="matrix(1 0 0 -1 0 841)" d="M180.2097 390.3259L182.5318 390.3259L182.5318 390.3259L182.5318 392.6479L182.5318 392.6479L180.2097 392.6479z" stroke="none" fill="#000000" fill-rule="winding" /><path transform="matrix(1 0 0 -1 0 841)" d="M182.5319 390.3259L184.8539 390.3259L184.8539 390.3259L184.8539 392.6479L184.8539 392.6479L182.5319 392.6479z" stroke="none" fill="#000000" fill-rule="winding" /><path transform="matrix(1 0 0 -1 0 841)" d="M191.8199 390.3259L194.1419 390.3259L194.1419 390.3259L194.1419 392.6479L194.1419 392.6479L191.8199 392.6479z" stroke="none" fill="#000000" fill-rule="winding" /><path transform="matrix(1 0 0 -1 0 841)" d="M194.142 390.3259L196.4641 390.3259L196.4641 390.3259L196.4641 392.6479L196.4641 392.6479L194.142 392.6479z" stroke="none" fill="#000000" fill-rule="winding" /><path transform="matrix(1 0 0 -1 0 841)" d="M198.7858 390.3259L201.1078 390.3259L201.1078 390.3259L201.1078 392.6479L201.1078 392.6479L198.7858 392.6479z" stroke="none" fill="#000000" fill-rule="winding" /><path transform="matrix(1 0 0 -1 0 841)" d="M201.1079 390.3259L203.43 390.3259L203.43 390.3259L203.43 392.6479L203.43 392.6479L201.1079 392.6479z" stroke="none" fill="#000000" fill-rule="winding" /><path transform="matrix(1 0 0 -1 0 841)" d="M136.0919 388.0038L138.4137 388.0038L138.4137 388.0038L138.4137 390.3258L138.4137 390.3258L136.0919 390.3258z" stroke="none" fill="#000000" fill-rule="winding" /><path transform="matrix(1 0 0 -1 0 841)" d="M138.4137 388.0038L140.7358 388.0038L140.7358 388.0038L140.7358 390.3258L140.7358 390.3258L138.4137 390.3258z" stroke="none" fill="#000000" fill-rule="winding" /><path transform="matrix(1 0 0 -1 0 841)" d="M140.7358 388.0038L143.0578 388.0038L143.0578 388.0038L143.0578 390.3258L143.0578 390.3258L140.7358 390.3258z" stroke="none" fill="#000000" fill-rule="winding" /><path transform="matrix(1 0 0 -1 0 841)" d="M143.0578 388.0038L145.3799 388.0038L145.3799 388.0038L145.3799 390.3258L145.3799 390.3258L143.0578 390.3258z" stroke="none" fill="#000000" fill-rule="winding" /><path transform="matrix(1 0 0 -1 0 841)" d="M145.3799 388.0038L147.7018 388.0038L147.7018 388.0038L147.7018 390.3258L147.7018 390.3258L145.3799 390.3258z" stroke="none" fill="#000000" fill-rule="winding" /><path transform="matrix(1 0 0 -1 0 841)" d="M147.7017 388.0038L150.0238 388.0038L150.0238 388.0038L150.0238 390.3258L150.0238 390.3258L147.7017 390.3258z" stroke="none" fill="#000000" fill-rule="winding" /><path transform="matrix(1 0 0 -1 0 841)" d="M150.0238 388.0038L152.3458 388.0038L152.3458 388.0038L152.3458 390.3258L152.3458 390.3258L150.0238 390.3258z" stroke="none" fill="#000000" fill-rule="winding" /><path transform="matrix(1 0 0 -1 0 841)" d="M159.3118 388.0038L161.6338 388.0038L161.6338 388.0038L161.6338 390.3258L161.6338 390.3258L159.3118 390.3258z" stroke="none" fill="#000000" fill-rule="winding" /><path transform="matrix(1 0 0 -1 0 841)" d="M161.6338 388.0038L163.9559 388.0038L163.9559 388.0038L163.9559 390.3258L163.9559 390.3258L161.6338 390.3258z" stroke="none" fill="#000000" fill-rule="winding" /><path transform="matrix(1 0 0 -1 0 841)" d="M170.9218 388.0038L173.2439 388.0038L173.2439 388.0038L173.2439 390.3258L173.2439 390.3258L170.9218 390.3258z" stroke="none" fill="#000000" fill-rule="winding" /><path transform="matrix(1 0 0 -1 0 841)" d="M173.2439 388.0038L175.5659 388.0038L175.5659 388.0038L175.5659 390.3258L175.5659 390.3258L173.2439 390.3258z" stroke="none" fill="#000000" fill-rule="winding" /><path transform="matrix(1 0 0 -1 0 841)" d="M177.8878 388.0038L180.2098 388.0038L180.2098 388.0038L180.2098 390.3258L180.2098 390.3258L177.8878 390.3258z" stroke="none" fill="#000000" fill-rule="winding" /><path transform="matrix(1 0 0 -1 0 841)" d="M180.2097 388.0038L182.5318 388.0038L182.5318 388.0038L182.5318 390.3258L182.5318 390.3258L180.2097 390.3258z" stroke="none" fill="#000000" fill-rule="winding" /><path transform="matrix(1 0 0 -1 0 841)" d="M182.5319 388.0038L184.8539 388.0038L184.8539 388.0038L184.8539 390.3258L184.8539 390.3258L182.5319 390.3258z" stroke="none" fill="#000000" fill-rule="winding" /><path transform="matrix(1 0 0 -1 0 841)" d="M187.1757 388.0038L189.4977 388.0038L189.4977 388.0038L189.4977 390.3258L189.4977 390.3258L187.1757 390.3258z" stroke="none" fill="#000000" fill-rule="winding" /><path transform="matrix(1 0 0 -1 0 841)" d="M191.8199 388.0038L194.1419 388.0038L194.1419 388.0038L194.1419 390.3258L194.1419 390.3258L191.8199 390.3258z" stroke="none" fill="#000000" fill-rule="winding" /><path transform="matrix(1 0 0 -1 0 841)" d="M136.0919 385.6817L138.4137 385.6817L138.4137 385.6817L138.4137 388.0038L138.4137 388.0038L136.0919 388.0038z" stroke="none" fill="#000000" fill-rule="winding" /><path transform="matrix(1 0 0 -1 0 841)" d="M150.0238 385.6817L152.3458 385.6817L152.3458 385.6817L152.3458 388.0038L152.3458 388.0038L150.0238 388.0038z" stroke="none" fill="#000000" fill-rule="winding" /><path transform="matrix(1 0 0 -1 0 841)" d="M156.9897 385.6817L159.3118 385.6817L159.3118 385.6817L159.3118 388.0038L159.3118 388.0038L156.9897 388.0038z" stroke="none" fill="#000000" fill-rule="winding" /><path transform="matrix(1 0 0 -1 0 841)" d="M159.3118 385.6817L161.6338 385.6817L161.6338 385.6817L161.6338 388.0038L161.6338 388.0038L159.3118 388.0038z" stroke="none" fill="#000000" fill-rule="winding" /><path transform="matrix(1 0 0 -1 0 841)" d="M161.6338 385.6817L163.9559 385.6817L163.9559 385.6817L163.9559 388.0038L163.9559 388.0038L161.6338 388.0038z" stroke="none" fill="#000000" fill-rule="winding" /><path transform="matrix(1 0 0 -1 0 841)" d="M163.9559 385.6817L166.2779 385.6817L166.2779 385.6817L166.2779 388.0038L166.2779 388.0038L163.9559 388.0038z" stroke="none" fill="#000000" fill-rule="winding" /><path transform="matrix(1 0 0 -1 0 841)" d="M166.2779 385.6817L168.5998 385.6817L168.5998 385.6817L168.5998 388.0038L168.5998 388.0038L166.2779 388.0038z" stroke="none" fill="#000000" fill-rule="winding" /><path transform="matrix(1 0 0 -1 0 841)" d="M168.5998 385.6817L170.9218 385.6817L170.9218 385.6817L170.9218 388.0038L170.9218 388.0038L168.5998 388.0038z" stroke="none" fill="#000000" fill-rule="winding" /><path transform="matrix(1 0 0 -1 0 841)" d="M173.2439 385.6817L175.5659 385.6817L175.5659 385.6817L175.5659 388.0038L175.5659 388.0038L173.2439 388.0038z" stroke="none" fill="#000000" fill-rule="winding" /><path transform="matrix(1 0 0 -1 0 841)" d="M175.5659 385.6817L177.8878 385.6817L177.8878 385.6817L177.8878 388.0038L177.8878 388.0038L175.5659 388.0038z" stroke="none" fill="#000000" fill-rule="winding" /><path transform="matrix(1 0 0 -1 0 841)" d="M177.8878 385.6817L180.2098 385.6817L180.2098 385.6817L180.2098 388.0038L180.2098 388.0038L177.8878 388.0038z" stroke="none" fill="#000000" fill-rule="winding" /><path transform="matrix(1 0 0 -1 0 841)" d="M180.2097 385.6817L182.5318 385.6817L182.5318 385.6817L182.5318 388.0038L182.5318 388.0038L180.2097 388.0038z" stroke="none" fill="#000000" fill-rule="winding" /><path transform="matrix(1 0 0 -1 0 841)" d="M182.5319 385.6817L184.8539 385.6817L184.8539 385.6817L184.8539 388.0038L184.8539 388.0038L182.5319 388.0038z" stroke="none" fill="#000000" fill-rule="winding" /><path transform="matrix(1 0 0 -1 0 841)" d="M191.8199 385.6817L194.1419 385.6817L194.1419 385.6817L194.1419 388.0038L194.1419 388.0038L191.8199 388.0038z" stroke="none" fill="#000000" fill-rule="winding" /><path transform="matrix(1 0 0 -1 0 841)" d="M194.142 385.6817L196.4641 385.6817L196.4641 385.6817L196.4641 388.0038L196.4641 388.0038L194.142 388.0038z" stroke="none" fill="#000000" fill-rule="winding" /><path transform="matrix(1 0 0 -1 0 841)" d="M198.7858 385.6817L201.1078 385.6817L201.1078 385.6817L201.1078 388.0038L201.1078 388.0038L198.7858 388.0038z" stroke="none" fill="#000000" fill-rule="winding" /><path transform="matrix(1 0 0 -1 0 841)" d="M201.1079 385.6817L203.43 385.6817L203.43 385.6817L203.43 388.0038L203.43 388.0038L201.1079 388.0038z" stroke="none" fill="#000000" fill-rule="winding" /><path transform="matrix(1 0 0 -1 0 841)" d="M136.0919 383.3599L138.4137 383.3599L138.4137 383.3599L138.4137 385.6818L138.4137 385.6818L136.0919 385.6818z" stroke="none" fill="#000000" fill-rule="winding" /><path transform="matrix(1 0 0 -1 0 841)" d="M140.7358 383.3599L143.0578 383.3599L143.0578 383.3599L143.0578 385.6818L143.0578 385.6818L140.7358 385.6818z" stroke="none" fill="#000000" fill-rule="winding" /><path transform="matrix(1 0 0 -1 0 841)" d="M143.0578 383.3599L145.3799 383.3599L145.3799 383.3599L145.3799 385.6818L145.3799 385.6818L143.0578 385.6818z" stroke="none" fill="#000000" fill-rule="winding" /><path transform="matrix(1 0 0 -1 0 841)" d="M145.3799 383.3599L147.7018 383.3599L147.7018 383.3599L147.7018 385.6818L147.7018 385.6818L145.3799 385.6818z" stroke="none" fill="#000000" fill-rule="winding" /><path transform="matrix(1 0 0 -1 0 841)" d="M150.0238 383.3599L152.3458 383.3599L152.3458 383.3599L152.3458 385.6818L152.3458 385.6818L150.0238 385.6818z" stroke="none" fill="#000000" fill-rule="winding" /><path transform="matrix(1 0 0 -1 0 841)" d="M154.6679 383.3599L156.9897 383.3599L156.9897 383.3599L156.9897 385.6818L156.9897 385.6818L154.6679 385.6818z" stroke="none" fill="#000000" fill-rule="winding" /><path transform="matrix(1 0 0 -1 0 841)" d="M161.6338 383.3599L163.9559 383.3599L163.9559 383.3599L163.9559 385.6818L163.9559 385.6818L161.6338 385.6818z" stroke="none" fill="#000000" fill-rule="winding" /><path transform="matrix(1 0 0 -1 0 841)" d="M163.9559 383.3599L166.2779 383.3599L166.2779 383.3599L166.2779 385.6818L166.2779 385.6818L163.9559 385.6818z" stroke="none" fill="#000000" fill-rule="winding" /><path transform="matrix(1 0 0 -1 0 841)" d="M170.9218 383.3599L173.2439 383.3599L173.2439 383.3599L173.2439 385.6818L173.2439 385.6818L170.9218 385.6818z" stroke="none" fill="#000000" fill-rule="winding" /><path transform="matrix(1 0 0 -1 0 841)" d="M173.2439 383.3599L175.5659 383.3599L175.5659 383.3599L175.5659 385.6818L175.5659 385.6818L173.2439 385.6818z" stroke="none" fill="#000000" fill-rule="winding" /><path transform="matrix(1 0 0 -1 0 841)" d="M175.5659 383.3599L177.8878 383.3599L177.8878 383.3599L177.8878 385.6818L177.8878 385.6818L175.5659 385.6818z" stroke="none" fill="#000000" fill-rule="winding" /><path transform="matrix(1 0 0 -1 0 841)" d="M177.8878 383.3599L180.2098 383.3599L180.2098 383.3599L180.2098 385.6818L180.2098 385.6818L177.8878 385.6818z" stroke="none" fill="#000000" fill-rule="winding" /><path transform="matrix(1 0 0 -1 0 841)" d="M182.5319 383.3599L184.8539 383.3599L184.8539 383.3599L184.8539 385.6818L184.8539 385.6818L182.5319 385.6818z" stroke="none" fill="#000000" fill-rule="winding" /><path transform="matrix(1 0 0 -1 0 841)" d="M184.854 383.3599L187.1758 383.3599L187.1758 383.3599L187.1758 385.6818L187.1758 385.6818L184.854 385.6818z" stroke="none" fill="#000000" fill-rule="winding" /><path transform="matrix(1 0 0 -1 0 841)" d="M187.1757 383.3599L189.4977 383.3599L189.4977 383.3599L189.4977 385.6818L189.4977 385.6818L187.1757 385.6818z" stroke="none" fill="#000000" fill-rule="winding" /><path transform="matrix(1 0 0 -1 0 841)" d="M189.4978 383.3599L191.8198 383.3599L191.8198 383.3599L191.8198 385.6818L191.8198 385.6818L189.4978 385.6818z" stroke="none" fill="#000000" fill-rule="winding" /><path transform="matrix(1 0 0 -1 0 841)" d="M191.8199 383.3599L194.1419 383.3599L194.1419 383.3599L194.1419 385.6818L194.1419 385.6818L191.8199 385.6818z" stroke="none" fill="#000000" fill-rule="winding" /><path transform="matrix(1 0 0 -1 0 841)" d="M194.142 383.3599L196.4641 383.3599L196.4641 383.3599L196.4641 385.6818L196.4641 385.6818L194.142 385.6818z" stroke="none" fill="#000000" fill-rule="winding" /><path transform="matrix(1 0 0 -1 0 841)" d="M196.4641 383.3599L198.786 383.3599L198.786 383.3599L198.786 385.6818L198.786 385.6818L196.4641 385.6818z" stroke="none" fill="#000000" fill-rule="winding" /><path transform="matrix(1 0 0 -1 0 841)" d="M201.1079 383.3599L203.43 383.3599L203.43 383.3599L203.43 385.6818L203.43 385.6818L201.1079 385.6818z" stroke="none" fill="#000000" fill-rule="winding" /><path transform="matrix(1 0 0 -1 0 841)" d="M136.0919 381.0378L138.4137 381.0378L138.4137 381.0378L138.4137 383.3599L138.4137 383.3599L136.0919 383.3599z" stroke="none" fill="#000000" fill-rule="winding" /><path transform="matrix(1 0 0 -1 0 841)" d="M140.7358 381.0378L143.0578 381.0378L143.0578 381.0378L143.0578 383.3599L143.0578 383.3599L140.7358 383.3599z" stroke="none" fill="#000000" fill-rule="winding" /><path transform="matrix(1 0 0 -1 0 841)" d="M143.0578 381.0378L145.3799 381.0378L145.3799 381.0378L145.3799 383.3599L145.3799 383.3599L143.0578 383.3599z" stroke="none" fill="#000000" fill-rule="winding" /><path transform="matrix(1 0 0 -1 0 841)" d="M145.3799 381.0378L147.7018 381.0378L147.7018 381.0378L147.7018 383.3599L147.7018 383.3599L145.3799 383.3599z" stroke="none" fill="#000000" fill-rule="winding" /><path transform="matrix(1 0 0 -1 0 841)" d="M150.0238 381.0378L152.3458 381.0378L152.3458 381.0378L152.3458 383.3599L152.3458 383.3599L150.0238 383.3599z" stroke="none" fill="#000000" fill-rule="winding" /><path transform="matrix(1 0 0 -1 0 841)" d="M154.6679 381.0378L156.9897 381.0378L156.9897 381.0378L156.9897 383.3599L156.9897 383.3599L154.6679 383.3599z" stroke="none" fill="#000000" fill-rule="winding" /><path transform="matrix(1 0 0 -1 0 841)" d="M156.9897 381.0378L159.3118 381.0378L159.3118 381.0378L159.3118 383.3599L159.3118 383.3599L156.9897 383.3599z" stroke="none" fill="#000000" fill-rule="winding" /><path transform="matrix(1 0 0 -1 0 841)" d="M161.6338 381.0378L163.9559 381.0378L163.9559 381.0378L163.9559 383.3599L163.9559 383.3599L161.6338 383.3599z" stroke="none" fill="#000000" fill-rule="winding" /><path transform="matrix(1 0 0 -1 0 841)" d="M168.5998 381.0378L170.9218 381.0378L170.9218 381.0378L170.9218 383.3599L170.9218 383.3599L168.5998 383.3599z" stroke="none" fill="#000000" fill-rule="winding" /><path transform="matrix(1 0 0 -1 0 841)" d="M170.9218 381.0378L173.2439 381.0378L173.2439 381.0378L173.2439 383.3599L173.2439 383.3599L170.9218 383.3599z" stroke="none" fill="#000000" fill-rule="winding" /><path transform="matrix(1 0 0 -1 0 841)" d="M173.2439 381.0378L175.5659 381.0378L175.5659 381.0378L175.5659 383.3599L175.5659 383.3599L173.2439 383.3599z" stroke="none" fill="#000000" fill-rule="winding" /><path transform="matrix(1 0 0 -1 0 841)" d="M177.8878 381.0378L180.2098 381.0378L180.2098 381.0378L180.2098 383.3599L180.2098 383.3599L177.8878 383.3599z" stroke="none" fill="#000000" fill-rule="winding" /><path transform="matrix(1 0 0 -1 0 841)" d="M180.2097 381.0378L182.5318 381.0378L182.5318 381.0378L182.5318 383.3599L182.5318 383.3599L180.2097 383.3599z" stroke="none" fill="#000000" fill-rule="winding" /><path transform="matrix(1 0 0 -1 0 841)" d="M189.4978 381.0378L191.8198 381.0378L191.8198 381.0378L191.8198 383.3599L191.8198 383.3599L189.4978 383.3599z" stroke="none" fill="#000000" fill-rule="winding" /><path transform="matrix(1 0 0 -1 0 841)" d="M136.0919 378.7158L138.4137 378.7158L138.4137 378.7158L138.4137 381.0378L138.4137 381.0378L136.0919 381.0378z" stroke="none" fill="#000000" fill-rule="winding" /><path transform="matrix(1 0 0 -1 0 841)" d="M140.7358 378.7158L143.0578 378.7158L143.0578 378.7158L143.0578 381.0378L143.0578 381.0378L140.7358 381.0378z" stroke="none" fill="#000000" fill-rule="winding" /><path transform="matrix(1 0 0 -1 0 841)" d="M143.0578 378.7158L145.3799 378.7158L145.3799 378.7158L145.3799 381.0378L145.3799 381.0378L143.0578 381.0378z" stroke="none" fill="#000000" fill-rule="winding" /><path transform="matrix(1 0 0 -1 0 841)" d="M145.3799 378.7158L147.7018 378.7158L147.7018 378.7158L147.7018 381.0378L147.7018 381.0378L145.3799 381.0378z" stroke="none" fill="#000000" fill-rule="winding" /><path transform="matrix(1 0 0 -1 0 841)" d="M150.0238 378.7158L152.3458 378.7158L152.3458 378.7158L152.3458 381.0378L152.3458 381.0378L150.0238 381.0378z" stroke="none" fill="#000000" fill-rule="winding" /><path transform="matrix(1 0 0 -1 0 841)" d="M154.6679 378.7158L156.9897 378.7158L156.9897 378.7158L156.9897 381.0378L156.9897 381.0378L154.6679 381.0378z" stroke="none" fill="#000000" fill-rule="winding" /><path transform="matrix(1 0 0 -1 0 841)" d="M159.3118 378.7158L161.6338 378.7158L161.6338 378.7158L161.6338 381.0378L161.6338 381.0378L159.3118 381.0378z" stroke="none" fill="#000000" fill-rule="winding" /><path transform="matrix(1 0 0 -1 0 841)" d="M163.9559 378.7158L166.2779 378.7158L166.2779 378.7158L166.2779 381.0378L166.2779 381.0378L163.9559 381.0378z" stroke="none" fill="#000000" fill-rule="winding" /><path transform="matrix(1 0 0 -1 0 841)" d="M166.2779 378.7158L168.5998 378.7158L168.5998 378.7158L168.5998 381.0378L168.5998 381.0378L166.2779 381.0378z" stroke="none" fill="#000000" fill-rule="winding" /><path transform="matrix(1 0 0 -1 0 841)" d="M170.9218 378.7158L173.2439 378.7158L173.2439 378.7158L173.2439 381.0378L173.2439 381.0378L170.9218 381.0378z" stroke="none" fill="#000000" fill-rule="winding" /><path transform="matrix(1 0 0 -1 0 841)" d="M173.2439 378.7158L175.5659 378.7158L175.5659 378.7158L175.5659 381.0378L175.5659 381.0378L173.2439 381.0378z" stroke="none" fill="#000000" fill-rule="winding" /><path transform="matrix(1 0 0 -1 0 841)" d="M175.5659 378.7158L177.8878 378.7158L177.8878 378.7158L177.8878 381.0378L177.8878 381.0378L175.5659 381.0378z" stroke="none" fill="#000000" fill-rule="winding" /><path transform="matrix(1 0 0 -1 0 841)" d="M187.1757 378.7158L189.4977 378.7158L189.4977 378.7158L189.4977 381.0378L189.4977 381.0378L187.1757 381.0378z" stroke="none" fill="#000000" fill-rule="winding" /><path transform="matrix(1 0 0 -1 0 841)" d="M191.8199 378.7158L194.1419 378.7158L194.1419 378.7158L194.1419 381.0378L194.1419 381.0378L191.8199 381.0378z" stroke="none" fill="#000000" fill-rule="winding" /><path transform="matrix(1 0 0 -1 0 841)" d="M194.142 378.7158L196.4641 378.7158L196.4641 378.7158L196.4641 381.0378L196.4641 381.0378L194.142 381.0378z" stroke="none" fill="#000000" fill-rule="winding" /><path transform="matrix(1 0 0 -1 0 841)" d="M198.7858 378.7158L201.1078 378.7158L201.1078 378.7158L201.1078 381.0378L201.1078 381.0378L198.7858 381.0378z" stroke="none" fill="#000000" fill-rule="winding" /><path transform="matrix(1 0 0 -1 0 841)" d="M136.0919 376.3937L138.4137 376.3937L138.4137 376.3937L138.4137 378.7158L138.4137 378.7158L136.0919 378.7158z" stroke="none" fill="#000000" fill-rule="winding" /><path transform="matrix(1 0 0 -1 0 841)" d="M150.0238 376.3937L152.3458 376.3937L152.3458 376.3937L152.3458 378.7158L152.3458 378.7158L150.0238 378.7158z" stroke="none" fill="#000000" fill-rule="winding" /><path transform="matrix(1 0 0 -1 0 841)" d="M159.3118 376.3937L161.6338 376.3937L161.6338 376.3937L161.6338 378.7158L161.6338 378.7158L159.3118 378.7158z" stroke="none" fill="#000000" fill-rule="winding" /><path transform="matrix(1 0 0 -1 0 841)" d="M161.6338 376.3937L163.9559 376.3937L163.9559 376.3937L163.9559 378.7158L163.9559 378.7158L161.6338 378.7158z" stroke="none" fill="#000000" fill-rule="winding" /><path transform="matrix(1 0 0 -1 0 841)" d="M166.2779 376.3937L168.5998 376.3937L168.5998 376.3937L168.5998 378.7158L168.5998 378.7158L166.2779 378.7158z" stroke="none" fill="#000000" fill-rule="winding" /><path transform="matrix(1 0 0 -1 0 841)" d="M168.5998 376.3937L170.9218 376.3937L170.9218 376.3937L170.9218 378.7158L170.9218 378.7158L168.5998 378.7158z" stroke="none" fill="#000000" fill-rule="winding" /><path transform="matrix(1 0 0 -1 0 841)" d="M170.9218 376.3937L173.2439 376.3937L173.2439 376.3937L173.2439 378.7158L173.2439 378.7158L170.9218 378.7158z" stroke="none" fill="#000000" fill-rule="winding" /><path transform="matrix(1 0 0 -1 0 841)" d="M177.8878 376.3937L180.2098 376.3937L180.2098 376.3937L180.2098 378.7158L180.2098 378.7158L177.8878 378.7158z" stroke="none" fill="#000000" fill-rule="winding" /><path transform="matrix(1 0 0 -1 0 841)" d="M191.8199 376.3937L194.1419 376.3937L194.1419 376.3937L194.1419 378.7158L194.1419 378.7158L191.8199 378.7158z" stroke="none" fill="#000000" fill-rule="winding" /><path transform="matrix(1 0 0 -1 0 841)" d="M194.142 376.3937L196.4641 376.3937L196.4641 376.3937L196.4641 378.7158L196.4641 378.7158L194.142 378.7158z" stroke="none" fill="#000000" fill-rule="winding" /><path transform="matrix(1 0 0 -1 0 841)" d="M198.7858 376.3937L201.1078 376.3937L201.1078 376.3937L201.1078 378.7158L201.1078 378.7158L198.7858 378.7158z" stroke="none" fill="#000000" fill-rule="winding" /><path transform="matrix(1 0 0 -1 0 841)" d="M136.0919 374.0719L138.4137 374.0719L138.4137 374.0719L138.4137 376.3937L138.4137 376.3937L136.0919 376.3937z" stroke="none" fill="#000000" fill-rule="winding" /><path transform="matrix(1 0 0 -1 0 841)" d="M138.4137 374.0719L140.7358 374.0719L140.7358 374.0719L140.7358 376.3937L140.7358 376.3937L138.4137 376.3937z" stroke="none" fill="#000000" fill-rule="winding" /><path transform="matrix(1 0 0 -1 0 841)" d="M140.7358 374.0719L143.0578 374.0719L143.0578 374.0719L143.0578 376.3937L143.0578 376.3937L140.7358 376.3937z" stroke="none" fill="#000000" fill-rule="winding" /><path transform="matrix(1 0 0 -1 0 841)" d="M143.0578 374.0719L145.3799 374.0719L145.3799 374.0719L145.3799 376.3937L145.3799 376.3937L143.0578 376.3937z" stroke="none" fill="#000000" fill-rule="winding" /><path transform="matrix(1 0 0 -1 0 841)" d="M145.3799 374.0719L147.7018 374.0719L147.7018 374.0719L147.7018 376.3937L147.7018 376.3937L145.3799 376.3937z" stroke="none" fill="#000000" fill-rule="winding" /><path transform="matrix(1 0 0 -1 0 841)" d="M147.7017 374.0719L150.0238 374.0719L150.0238 374.0719L150.0238 376.3937L150.0238 376.3937L147.7017 376.3937z" stroke="none" fill="#000000" fill-rule="winding" /><path transform="matrix(1 0 0 -1 0 841)" d="M150.0238 374.0719L152.3458 374.0719L152.3458 374.0719L152.3458 376.3937L152.3458 376.3937L150.0238 376.3937z" stroke="none" fill="#000000" fill-rule="winding" /><path transform="matrix(1 0 0 -1 0 841)" d="M156.9897 374.0719L159.3118 374.0719L159.3118 374.0719L159.3118 376.3937L159.3118 376.3937L156.9897 376.3937z" stroke="none" fill="#000000" fill-rule="winding" /><path transform="matrix(1 0 0 -1 0 841)" d="M159.3118 374.0719L161.6338 374.0719L161.6338 374.0719L161.6338 376.3937L161.6338 376.3937L159.3118 376.3937z" stroke="none" fill="#000000" fill-rule="winding" /><path transform="matrix(1 0 0 -1 0 841)" d="M168.5998 374.0719L170.9218 374.0719L170.9218 374.0719L170.9218 376.3937L170.9218 376.3937L168.5998 376.3937z" stroke="none" fill="#000000" fill-rule="winding" /><path transform="matrix(1 0 0 -1 0 841)" d="M180.2097 374.0719L182.5318 374.0719L182.5318 374.0719L182.5318 376.3937L182.5318 376.3937L180.2097 376.3937z" stroke="none" fill="#000000" fill-rule="winding" /><path transform="matrix(1 0 0 -1 0 841)" d="M184.854 374.0719L187.1758 374.0719L187.1758 374.0719L187.1758 376.3937L187.1758 376.3937L184.854 376.3937z" stroke="none" fill="#000000" fill-rule="winding" /><path transform="matrix(1 0 0 -1 0 841)" d="M187.1757 374.0719L189.4977 374.0719L189.4977 374.0719L189.4977 376.3937L189.4977 376.3937L187.1757 376.3937z" stroke="none" fill="#000000" fill-rule="winding" /><path transform="matrix(1 0 0 -1 0 841)" d="M191.8199 374.0719L194.1419 374.0719L194.1419 374.0719L194.1419 376.3937L194.1419 376.3937L191.8199 376.3937z" stroke="none" fill="#000000" fill-rule="winding" /><path transform="matrix(1 0 0 -1 0 841)" d="M196.4641 374.0719L198.786 374.0719L198.786 374.0719L198.786 376.3937L198.786 376.3937L196.4641 376.3937z" stroke="none" fill="#000000" fill-rule="winding" /></g><path transform="matrix(1 0 0 -1 0 841)" d="M124.8 169.14L486.44 169.14L486.44 169.14L486.44 357.4L486.44 357.4L124.8 357.4z" stroke="none" fill="#EBEBEB" fill-rule="winding" /></g></g></g></svg>