<svg xmlns="http://www.w3.org/2000/svg" xmlns:xlink="http://www.w3.org/1999/xlink" id="body_1" preserveAspectRatio="xMinYMin meet" viewBox="0 0 793 1121"><defs><clipPath id="1"><path d="M0 841L0 -0.8900146L0 -0.8900146L595.28 -0.8900146L595.28 -0.8900146L595.28 841L595.28 841L0 841z" /></clipPath><clipPath id="2"><path d="M82.5 674.94L2033.327 674.94L2033.327 674.94L2033.327 -2082.731L2033.327 -2082.731L82.5 -2082.731z" /></clipPath><clipPath id="3"><path d="M153.6926 201.9618L497.7193 201.9618L497.7193 201.9618L497.7193 459.8638L497.7193 459.8638L153.6926 459.8638z" /></clipPath><clipPath id="4"><path d="M198.426 221.3276L465.1253 221.3276L465.1253 221.3276L465.1253 431.5633L465.1253 431.5633L198.426 431.5633z" /></clipPath><clipPath id="5"><path d="M153.6926 201.9618L497.7193 201.9618L497.7193 201.9618L497.7193 459.8638L497.7193 459.8638L153.6926 459.8638z" /></clipPath><clipPath id="6"><path d="M133.77 533.53L595.074 533.53L595.074 533.53L595.074 -118.5649L595.074 -118.5649L133.77 -118.5649z" /></clipPath></defs><g transform="matrix(1.333333 0 0 1.333333 0 0)"><g><g clip-path="url(#1)"><g clip-path="url(#2)"><g clip-path="url(#3)"><path transform="matrix(1 0 0 -1 0 841)" d="M153.6926 381.1362L497.7198 381.1362L497.7198 381.1362L497.7198 639.0363L497.7198 639.0363L153.6926 639.0363z" stroke="none" fill="#FFFFFF" fill-rule="winding" /></g><g clip-path="url(#4)"><path transform="matrix(1 0 0 -1 0 841)" d="M440.7799 514.5894L440.1671 517.8621L440.1671 517.8621L438.3925 521.0671L438.3925 521.0671L435.4601 524.0673L435.4601 524.0673L431.4373 526.8626L431.4373 526.8626L426.3242 529.25L426.3242 529.25L420.1866 531.2275L420.1866 531.2275L413.0941 532.7276L413.0941 532.7276L405.2515 533.6825L405.2515 533.6825L396.659 534.0228L396.659 534.0228L387.4536 533.6825L387.4536 533.6825L377.703 532.7276L377.703 532.7276L367.678 531.0903L367.678 531.0903L357.3823 528.7725L357.3823 528.7725L346.9475 525.7723L346.9475 525.7723L336.5822 522.0897L336.5822 522.0897L326.3542 517.8621L326.3542 517.8621L316.3987 512.952L316.3987 512.952L306.8512 507.6322L306.8512 507.6322L297.7811 501.769L297.7811 501.769L289.3257 495.5638L289.3257 495.5638L281.6204 489.0841L281.6204 489.0841L274.6651 482.4014L274.6651 482.4014L268.5274 475.5833L268.5274 475.5833L263.2765 468.8311L263.2765 468.8311L259.0485 462.1484L259.0485 462.1484L255.7073 455.6706L255.7073 455.6706L253.3209 449.4653L253.3209 449.4653L251.8883 443.7375L251.8883 443.7375L251.411 438.4872L251.411 438.4872L251.8198 433.7821L251.8198 433.7821L253.116 429.827L253.116 429.827L255.1618 426.6219L255.1618 426.6219L257.8897 424.2346L257.8897 424.2346L261.299 422.7345L261.299 422.7345L265.1856 422.1198L265.1856 422.1198L269.5504 422.5295L269.5504 422.5295L274.2553 423.8924L274.2553 423.8924L279.1654 426.2121L279.1654 426.2121L284.2108 429.4848L284.2108 429.4848L289.2581 433.7125L289.2581 433.7125L294.1682 438.8952L294.1682 438.8952L298.941 444.8955L298.941 444.8955L303.3735 451.7154L303.3735 451.7154L307.3963 459.2854L307.3963 459.2854L310.9435 467.4682L310.9435 467.4682L314.0114 476.1962L314.0114 476.1962L316.3987 485.4016L316.3987 485.4016L318.1714 494.9491L318.1714 494.9491L319.194 504.6997L319.194 504.6997L319.6038 514.5894L319.6038 514.5894L319.2617 524.4752L319.2617 524.4752L318.1714 534.2277L318.1714 534.2277L316.3987 543.7733L316.3987 543.7733L314.0114 552.9807L314.0114 552.9807L311.0112 561.7086L311.0112 561.7086L307.4659 569.8914L307.4659 569.8914L303.3735 577.4614L303.3735 577.4614L298.941 584.2794L298.941 584.2794L294.2358 590.2816L294.2358 590.2816L289.3257 595.4642L289.3257 595.4642L284.2803 599.692L284.2803 599.692L279.2331 603.0323L279.2331 603.0323L274.323 605.3521L274.323 605.3521L269.6186 606.7149L269.6186 606.7149L265.2539 607.1248L265.2539 607.1248L261.299 606.5119L261.299 606.5119L257.9572 605.0099L257.9572 605.0099L255.1618 602.6244L255.1618 602.6244L253.116 599.4194L253.116 599.4194L251.8198 595.4642L251.8198 595.4642L251.411 590.8268L251.411 590.8268L251.8883 585.5765L251.8883 585.5765L253.3209 579.8488L253.3209 579.8488L255.639 573.6416L255.639 573.6416L258.98 567.1638L258.98 567.1638L263.2765 560.4811L263.2765 560.4811L268.4591 553.7307L268.4591 553.7307L274.5956 546.9108L274.5956 546.9108L281.5509 540.228L281.5509 540.228L289.2581 533.7502L289.2581 533.7502L297.7134 527.5449L297.7134 527.5449L306.714 521.68L306.714 521.68L316.2615 516.2925L316.2615 516.2925L326.2169 511.4519L326.2169 511.4519L336.4469 507.1547L336.4469 507.1547L346.8102 503.4722L346.8102 503.4722L357.2451 500.472L357.2451 500.472L367.5426 498.1542L367.5426 498.1542L377.6334 496.5169L377.6334 496.5169L387.3182 495.5638L387.3182 495.5638L396.5236 495.2217L396.5236 495.2217L405.1839 495.5638L405.1839 495.5638L413.0264 496.5169L413.0264 496.5169L420.1171 498.017L420.1171 498.017L426.2546 499.9945L426.2546 499.9945L431.3696 502.3819L431.3696 502.3819L435.4601 505.1095L435.4601 505.1095L438.3925 508.1096L438.3925 508.1096L440.1671 511.3147L440.1671 511.3147L440.7799 514.5894" stroke="#0000FF" stroke-width="0.4091512" fill="none" /></g><g clip-path="url(#5)"><path transform="matrix(1 0 0 -1 0 841)" d="M443.2349 514.5894C 443.2349 513.234 442.1353 512.1324 440.7799 512.1324C 439.4246 512.1324 438.3249 513.234 438.3249 514.5894C 438.3249 515.9447 439.4246 517.0444 440.7799 517.0444C 442.1353 517.0444 443.2349 515.9447 443.2349 514.5894" stroke="#0000FF" stroke-width="0.4091512" fill="none" /></g></g><g clip-path="url(#6)"><path transform="matrix(1 0 0 -1 0 841)" d="M133.77 307.47L205.7522 307.47L205.7522 307.47L205.7522 379.4522L205.7522 379.4522L133.77 379.4522z" stroke="none" fill="#FFFFFF" fill-rule="winding" /><path transform="matrix(1 0 0 -1 0 841)" d="M136.0919 374.808L138.4137 374.808L138.4137 374.808L138.4137 377.13L138.4137 377.13L136.0919 377.13z" stroke="none" fill="#000000" fill-rule="winding" /><path transform="matrix(1 0 0 -1 0 841)" d="M138.4137 374.808L140.7358 374.808L140.7358 374.808L140.7358 377.13L140.7358 377.13L138.4137 377.13z" stroke="none" fill="#000000" fill-rule="winding" /><path transform="matrix(1 0 0 -1 0 841)" d="M140.7358 374.808L143.0578 374.808L143.0578 374.808L143.0578 377.13L143.0578 377.13L140.7358 377.13z" stroke="none" fill="#000000" fill-rule="winding" /><path transform="matrix(1 0 0 -1 0 841)" d="M143.0578 374.808L145.3799 374.808L145.3799 374.808L145.3799 377.13L145.3799 377.13L143.0578 377.13z" stroke="none" fill="#000000" fill-rule="winding" /><path transform="matrix(1 0 0 -1 0 841)" d="M145.3799 374.808L147.7018 374.808L147.7018 374.808L147.7018 377.13L147.7018 377.13L145.3799 377.13z" stroke="none" fill="#000000" fill-rule="winding" /><path transform="matrix(1 0 0 -1 0 841)" d="M147.7017 374.808L150.0238 374.808L150.0238 374.808L150.0238 377.13L150.0238 377.13L147.7017 377.13z" stroke="none" fill="#000000" fill-rule="winding" /><path transform="matrix(1 0 0 -1 0 841)" d="M150.0238 374.808L152.3458 374.808L152.3458 374.808L152.3458 377.13L152.3458 377.13L150.0238 377.13z" stroke="none" fill="#000000" fill-rule="winding" /><path transform="matrix(1 0 0 -1 0 841)" d="M156.9897 374.808L159.3118 374.808L159.3118 374.808L159.3118 377.13L159.3118 377.13L156.9897 377.13z" stroke="none" fill="#000000" fill-rule="winding" /><path transform="matrix(1 0 0 -1 0 841)" d="M159.3118 374.808L161.6338 374.808L161.6338 374.808L161.6338 377.13L161.6338 377.13L159.3118 377.13z" stroke="none" fill="#000000" fill-rule="winding" /><path transform="matrix(1 0 0 -1 0 841)" d="M168.5998 374.808L170.9218 374.808L170.9218 374.808L170.9218 377.13L170.9218 377.13L168.5998 377.13z" stroke="none" fill="#000000" fill-rule="winding" /><path transform="matrix(1 0 0 -1 0 841)" d="M180.2097 374.808L182.5318 374.808L182.5318 374.808L182.5318 377.13L182.5318 377.13L180.2097 377.13z" stroke="none" fill="#000000" fill-rule="winding" /><path transform="matrix(1 0 0 -1 0 841)" d="M182.5319 374.808L184.8539 374.808L184.8539 374.808L184.8539 377.13L184.8539 377.13L182.5319 377.13z" stroke="none" fill="#000000" fill-rule="winding" /><path transform="matrix(1 0 0 -1 0 841)" d="M187.1757 374.808L189.4977 374.808L189.4977 374.808L189.4977 377.13L189.4977 377.13L187.1757 377.13z" stroke="none" fill="#000000" fill-rule="winding" /><path transform="matrix(1 0 0 -1 0 841)" d="M189.4978 374.808L191.8198 374.808L191.8198 374.808L191.8198 377.13L191.8198 377.13L189.4978 377.13z" stroke="none" fill="#000000" fill-rule="winding" /><path transform="matrix(1 0 0 -1 0 841)" d="M191.8199 374.808L194.1419 374.808L194.1419 374.808L194.1419 377.13L194.1419 377.13L191.8199 377.13z" stroke="none" fill="#000000" fill-rule="winding" /><path transform="matrix(1 0 0 -1 0 841)" d="M194.142 374.808L196.4641 374.808L196.4641 374.808L196.4641 377.13L196.4641 377.13L194.142 377.13z" stroke="none" fill="#000000" fill-rule="winding" /><path transform="matrix(1 0 0 -1 0 841)" d="M196.4641 374.808L198.786 374.808L198.786 374.808L198.786 377.13L198.786 377.13L196.4641 377.13z" stroke="none" fill="#000000" fill-rule="winding" /><path transform="matrix(1 0 0 -1 0 841)" d="M198.7858 374.808L201.1078 374.808L201.1078 374.808L201.1078 377.13L201.1078 377.13L198.7858 377.13z" stroke="none" fill="#000000" fill-rule="winding" /><path transform="matrix(1 0 0 -1 0 841)" d="M201.1079 374.808L203.43 374.808L203.43 374.808L203.43 377.13L203.43 377.13L201.1079 377.13z" stroke="none" fill="#000000" fill-rule="winding" /><path transform="matrix(1 0 0 -1 0 841)" d="M136.0919 372.4858L138.4137 372.4858L138.4137 372.4858L138.4137 374.8079L138.4137 374.8079L136.0919 374.8079z" stroke="none" fill="#000000" fill-rule="winding" /><path transform="matrix(1 0 0 -1 0 841)" d="M150.0238 372.4858L152.3458 372.4858L152.3458 372.4858L152.3458 374.8079L152.3458 374.8079L150.0238 374.8079z" stroke="none" fill="#000000" fill-rule="winding" /><path transform="matrix(1 0 0 -1 0 841)" d="M154.6679 372.4858L156.9897 372.4858L156.9897 372.4858L156.9897 374.8079L156.9897 374.8079L154.6679 374.8079z" stroke="none" fill="#000000" fill-rule="winding" /><path transform="matrix(1 0 0 -1 0 841)" d="M161.6338 372.4858L163.9559 372.4858L163.9559 372.4858L163.9559 374.8079L163.9559 374.8079L161.6338 374.8079z" stroke="none" fill="#000000" fill-rule="winding" /><path transform="matrix(1 0 0 -1 0 841)" d="M177.8878 372.4858L180.2098 372.4858L180.2098 372.4858L180.2098 374.8079L180.2098 374.8079L177.8878 374.8079z" stroke="none" fill="#000000" fill-rule="winding" /><path transform="matrix(1 0 0 -1 0 841)" d="M180.2097 372.4858L182.5318 372.4858L182.5318 372.4858L182.5318 374.8079L182.5318 374.8079L180.2097 374.8079z" stroke="none" fill="#000000" fill-rule="winding" /><path transform="matrix(1 0 0 -1 0 841)" d="M187.1757 372.4858L189.4977 372.4858L189.4977 372.4858L189.4977 374.8079L189.4977 374.8079L187.1757 374.8079z" stroke="none" fill="#000000" fill-rule="winding" /><path transform="matrix(1 0 0 -1 0 841)" d="M201.1079 372.4858L203.43 372.4858L203.43 372.4858L203.43 374.8079L203.43 374.8079L201.1079 374.8079z" stroke="none" fill="#000000" fill-rule="winding" /><path transform="matrix(1 0 0 -1 0 841)" d="M136.0919 370.1642L138.4137 370.1642L138.4137 370.1642L138.4137 372.486L138.4137 372.486L136.0919 372.486z" stroke="none" fill="#000000" fill-rule="winding" /><path transform="matrix(1 0 0 -1 0 841)" d="M140.7358 370.1642L143.0578 370.1642L143.0578 370.1642L143.0578 372.486L143.0578 372.486L140.7358 372.486z" stroke="none" fill="#000000" fill-rule="winding" /><path transform="matrix(1 0 0 -1 0 841)" d="M143.0578 370.1642L145.3799 370.1642L145.3799 370.1642L145.3799 372.486L145.3799 372.486L143.0578 372.486z" stroke="none" fill="#000000" fill-rule="winding" /><path transform="matrix(1 0 0 -1 0 841)" d="M145.3799 370.1642L147.7018 370.1642L147.7018 370.1642L147.7018 372.486L147.7018 372.486L145.3799 372.486z" stroke="none" fill="#000000" fill-rule="winding" /><path transform="matrix(1 0 0 -1 0 841)" d="M150.0238 370.1642L152.3458 370.1642L152.3458 370.1642L152.3458 372.486L152.3458 372.486L150.0238 372.486z" stroke="none" fill="#000000" fill-rule="winding" /><path transform="matrix(1 0 0 -1 0 841)" d="M159.3118 370.1642L161.6338 370.1642L161.6338 370.1642L161.6338 372.486L161.6338 372.486L159.3118 372.486z" stroke="none" fill="#000000" fill-rule="winding" /><path transform="matrix(1 0 0 -1 0 841)" d="M166.2779 370.1642L168.5998 370.1642L168.5998 370.1642L168.5998 372.486L168.5998 372.486L166.2779 372.486z" stroke="none" fill="#000000" fill-rule="winding" /><path transform="matrix(1 0 0 -1 0 841)" d="M168.5998 370.1642L170.9218 370.1642L170.9218 370.1642L170.9218 372.486L170.9218 372.486L168.5998 372.486z" stroke="none" fill="#000000" fill-rule="winding" /><path transform="matrix(1 0 0 -1 0 841)" d="M170.9218 370.1642L173.2439 370.1642L173.2439 370.1642L173.2439 372.486L173.2439 372.486L170.9218 372.486z" stroke="none" fill="#000000" fill-rule="winding" /><path transform="matrix(1 0 0 -1 0 841)" d="M175.5659 370.1642L177.8878 370.1642L177.8878 370.1642L177.8878 372.486L177.8878 372.486L175.5659 372.486z" stroke="none" fill="#000000" fill-rule="winding" /><path transform="matrix(1 0 0 -1 0 841)" d="M187.1757 370.1642L189.4977 370.1642L189.4977 370.1642L189.4977 372.486L189.4977 372.486L187.1757 372.486z" stroke="none" fill="#000000" fill-rule="winding" /><path transform="matrix(1 0 0 -1 0 841)" d="M191.8199 370.1642L194.1419 370.1642L194.1419 370.1642L194.1419 372.486L194.1419 372.486L191.8199 372.486z" stroke="none" fill="#000000" fill-rule="winding" /><path transform="matrix(1 0 0 -1 0 841)" d="M194.142 370.1642L196.4641 370.1642L196.4641 370.1642L196.4641 372.486L196.4641 372.486L194.142 372.486z" stroke="none" fill="#000000" fill-rule="winding" /><path transform="matrix(1 0 0 -1 0 841)" d="M196.4641 370.1642L198.786 370.1642L198.786 370.1642L198.786 372.486L198.786 372.486L196.4641 372.486z" stroke="none" fill="#000000" fill-rule="winding" /><path transform="matrix(1 0 0 -1 0 841)" d="M201.1079 370.1642L203.43 370.1642L203.43 370.1642L203.43 372.486L203.43 372.486L201.1079 372.486z" stroke="none" fill="#000000" fill-rule="winding" /><path transform="matrix(1 0 0 -1 0 841)" d="M136.0919 367.842L138.4137 367.842L138.4137 367.842L138.4137 370.1641L138.4137 370.1641L136.0919 370.1641z" stroke="none" fill="#000000" fill-rule="winding" /><path transform="matrix(1 0 0 -1 0 841)" d="M140.7358 367.842L143.0578 367.842L143.0578 367.842L143.0578 370.1641L143.0578 370.1641L140.7358 370.1641z" stroke="none" fill="#000000" fill-rule="winding" /><path transform="matrix(1 0 0 -1 0 841)" d="M143.0578 367.842L145.3799 367.842L145.3799 367.842L145.3799 370.1641L145.3799 370.1641L143.0578 370.1641z" stroke="none" fill="#000000" fill-rule="winding" /><path transform="matrix(1 0 0 -1 0 841)" d="M145.3799 367.842L147.7018 367.842L147.7018 367.842L147.7018 370.1641L147.7018 370.1641L145.3799 370.1641z" stroke="none" fill="#000000" fill-rule="winding" /><path transform="matrix(1 0 0 -1 0 841)" d="M150.0238 367.842L152.3458 367.842L152.3458 367.842L152.3458 370.1641L152.3458 370.1641L150.0238 370.1641z" stroke="none" fill="#000000" fill-rule="winding" /><path transform="matrix(1 0 0 -1 0 841)" d="M156.9897 367.842L159.3118 367.842L159.3118 367.842L159.3118 370.1641L159.3118 370.1641L156.9897 370.1641z" stroke="none" fill="#000000" fill-rule="winding" /><path transform="matrix(1 0 0 -1 0 841)" d="M159.3118 367.842L161.6338 367.842L161.6338 367.842L161.6338 370.1641L161.6338 370.1641L159.3118 370.1641z" stroke="none" fill="#000000" fill-rule="winding" /><path transform="matrix(1 0 0 -1 0 841)" d="M161.6338 367.842L163.9559 367.842L163.9559 367.842L163.9559 370.1641L163.9559 370.1641L161.6338 370.1641z" stroke="none" fill="#000000" fill-rule="winding" /><path transform="matrix(1 0 0 -1 0 841)" d="M163.9559 367.842L166.2779 367.842L166.2779 367.842L166.2779 370.1641L166.2779 370.1641L163.9559 370.1641z" stroke="none" fill="#000000" fill-rule="winding" /><path transform="matrix(1 0 0 -1 0 841)" d="M173.2439 367.842L175.5659 367.842L175.5659 367.842L175.5659 370.1641L175.5659 370.1641L173.2439 370.1641z" stroke="none" fill="#000000" fill-rule="winding" /><path transform="matrix(1 0 0 -1 0 841)" d="M182.5319 367.842L184.8539 367.842L184.8539 367.842L184.8539 370.1641L184.8539 370.1641L182.5319 370.1641z" stroke="none" fill="#000000" fill-rule="winding" /><path transform="matrix(1 0 0 -1 0 841)" d="M187.1757 367.842L189.4977 367.842L189.4977 367.842L189.4977 370.1641L189.4977 370.1641L187.1757 370.1641z" stroke="none" fill="#000000" fill-rule="winding" /><path transform="matrix(1 0 0 -1 0 841)" d="M191.8199 367.842L194.1419 367.842L194.1419 367.842L194.1419 370.1641L194.1419 370.1641L191.8199 370.1641z" stroke="none" fill="#000000" fill-rule="winding" /><path transform="matrix(1 0 0 -1 0 841)" d="M194.142 367.842L196.4641 367.842L196.4641 367.842L196.4641 370.1641L196.4641 370.1641L194.142 370.1641z" stroke="none" fill="#000000" fill-rule="winding" /><path transform="matrix(1 0 0 -1 0 841)" d="M196.4641 367.842L198.786 367.842L198.786 367.842L198.786 370.1641L198.786 370.1641L196.4641 370.1641z" stroke="none" fill="#000000" fill-rule="winding" /><path transform="matrix(1 0 0 -1 0 841)" d="M201.1079 367.842L203.43 367.842L203.43 367.842L203.43 370.1641L203.43 370.1641L201.1079 370.1641z" stroke="none" fill="#000000" fill-rule="winding" /><path transform="matrix(1 0 0 -1 0 841)" d="M136.0919 365.5199L138.4137 365.5199L138.4137 365.5199L138.4137 367.8419L138.4137 367.8419L136.0919 367.8419z" stroke="none" fill="#000000" fill-rule="winding" /><path transform="matrix(1 0 0 -1 0 841)" d="M140.7358 365.5199L143.0578 365.5199L143.0578 365.5199L143.0578 367.8419L143.0578 367.8419L140.7358 367.8419z" stroke="none" fill="#000000" fill-rule="winding" /><path transform="matrix(1 0 0 -1 0 841)" d="M143.0578 365.5199L145.3799 365.5199L145.3799 365.5199L145.3799 367.8419L145.3799 367.8419L143.0578 367.8419z" stroke="none" fill="#000000" fill-rule="winding" /><path transform="matrix(1 0 0 -1 0 841)" d="M145.3799 365.5199L147.7018 365.5199L147.7018 365.5199L147.7018 367.8419L147.7018 367.8419L145.3799 367.8419z" stroke="none" fill="#000000" fill-rule="winding" /><path transform="matrix(1 0 0 -1 0 841)" d="M150.0238 365.5199L152.3458 365.5199L152.3458 365.5199L152.3458 367.8419L152.3458 367.8419L150.0238 367.8419z" stroke="none" fill="#000000" fill-rule="winding" /><path transform="matrix(1 0 0 -1 0 841)" d="M163.9559 365.5199L166.2779 365.5199L166.2779 365.5199L166.2779 367.8419L166.2779 367.8419L163.9559 367.8419z" stroke="none" fill="#000000" fill-rule="winding" /><path transform="matrix(1 0 0 -1 0 841)" d="M166.2779 365.5199L168.5998 365.5199L168.5998 365.5199L168.5998 367.8419L168.5998 367.8419L166.2779 367.8419z" stroke="none" fill="#000000" fill-rule="winding" /><path transform="matrix(1 0 0 -1 0 841)" d="M175.5659 365.5199L177.8878 365.5199L177.8878 365.5199L177.8878 367.8419L177.8878 367.8419L175.5659 367.8419z" stroke="none" fill="#000000" fill-rule="winding" /><path transform="matrix(1 0 0 -1 0 841)" d="M177.8878 365.5199L180.2098 365.5199L180.2098 365.5199L180.2098 367.8419L180.2098 367.8419L177.8878 367.8419z" stroke="none" fill="#000000" fill-rule="winding" /><path transform="matrix(1 0 0 -1 0 841)" d="M182.5319 365.5199L184.8539 365.5199L184.8539 365.5199L184.8539 367.8419L184.8539 367.8419L182.5319 367.8419z" stroke="none" fill="#000000" fill-rule="winding" /><path transform="matrix(1 0 0 -1 0 841)" d="M187.1757 365.5199L189.4977 365.5199L189.4977 365.5199L189.4977 367.8419L189.4977 367.8419L187.1757 367.8419z" stroke="none" fill="#000000" fill-rule="winding" /><path transform="matrix(1 0 0 -1 0 841)" d="M191.8199 365.5199L194.1419 365.5199L194.1419 365.5199L194.1419 367.8419L194.1419 367.8419L191.8199 367.8419z" stroke="none" fill="#000000" fill-rule="winding" /><path transform="matrix(1 0 0 -1 0 841)" d="M194.142 365.5199L196.4641 365.5199L196.4641 365.5199L196.4641 367.8419L196.4641 367.8419L194.142 367.8419z" stroke="none" fill="#000000" fill-rule="winding" /><path transform="matrix(1 0 0 -1 0 841)" d="M196.4641 365.5199L198.786 365.5199L198.786 365.5199L198.786 367.8419L198.786 367.8419L196.4641 367.8419z" stroke="none" fill="#000000" fill-rule="winding" /><path transform="matrix(1 0 0 -1 0 841)" d="M201.1079 365.5199L203.43 365.5199L203.43 365.5199L203.43 367.8419L203.43 367.8419L201.1079 367.8419z" stroke="none" fill="#000000" fill-rule="winding" /><path transform="matrix(1 0 0 -1 0 841)" d="M136.0919 363.1978L138.4137 363.1978L138.4137 363.1978L138.4137 365.5198L138.4137 365.5198L136.0919 365.5198z" stroke="none" fill="#000000" fill-rule="winding" /><path transform="matrix(1 0 0 -1 0 841)" d="M150.0238 363.1978L152.3458 363.1978L152.3458 363.1978L152.3458 365.5198L152.3458 365.5198L150.0238 365.5198z" stroke="none" fill="#000000" fill-rule="winding" /><path transform="matrix(1 0 0 -1 0 841)" d="M154.6679 363.1978L156.9897 363.1978L156.9897 363.1978L156.9897 365.5198L156.9897 365.5198L154.6679 365.5198z" stroke="none" fill="#000000" fill-rule="winding" /><path transform="matrix(1 0 0 -1 0 841)" d="M156.9897 363.1978L159.3118 363.1978L159.3118 363.1978L159.3118 365.5198L159.3118 365.5198L156.9897 365.5198z" stroke="none" fill="#000000" fill-rule="winding" /><path transform="matrix(1 0 0 -1 0 841)" d="M159.3118 363.1978L161.6338 363.1978L161.6338 363.1978L161.6338 365.5198L161.6338 365.5198L159.3118 365.5198z" stroke="none" fill="#000000" fill-rule="winding" /><path transform="matrix(1 0 0 -1 0 841)" d="M163.9559 363.1978L166.2779 363.1978L166.2779 363.1978L166.2779 365.5198L166.2779 365.5198L163.9559 365.5198z" stroke="none" fill="#000000" fill-rule="winding" /><path transform="matrix(1 0 0 -1 0 841)" d="M166.2779 363.1978L168.5998 363.1978L168.5998 363.1978L168.5998 365.5198L168.5998 365.5198L166.2779 365.5198z" stroke="none" fill="#000000" fill-rule="winding" /><path transform="matrix(1 0 0 -1 0 841)" d="M168.5998 363.1978L170.9218 363.1978L170.9218 363.1978L170.9218 365.5198L170.9218 365.5198L168.5998 365.5198z" stroke="none" fill="#000000" fill-rule="winding" /><path transform="matrix(1 0 0 -1 0 841)" d="M170.9218 363.1978L173.2439 363.1978L173.2439 363.1978L173.2439 365.5198L173.2439 365.5198L170.9218 365.5198z" stroke="none" fill="#000000" fill-rule="winding" /><path transform="matrix(1 0 0 -1 0 841)" d="M173.2439 363.1978L175.5659 363.1978L175.5659 363.1978L175.5659 365.5198L175.5659 365.5198L173.2439 365.5198z" stroke="none" fill="#000000" fill-rule="winding" /><path transform="matrix(1 0 0 -1 0 841)" d="M175.5659 363.1978L177.8878 363.1978L177.8878 363.1978L177.8878 365.5198L177.8878 365.5198L175.5659 365.5198z" stroke="none" fill="#000000" fill-rule="winding" /><path transform="matrix(1 0 0 -1 0 841)" d="M180.2097 363.1978L182.5318 363.1978L182.5318 363.1978L182.5318 365.5198L182.5318 365.5198L180.2097 365.5198z" stroke="none" fill="#000000" fill-rule="winding" /><path transform="matrix(1 0 0 -1 0 841)" d="M187.1757 363.1978L189.4977 363.1978L189.4977 363.1978L189.4977 365.5198L189.4977 365.5198L187.1757 365.5198z" stroke="none" fill="#000000" fill-rule="winding" /><path transform="matrix(1 0 0 -1 0 841)" d="M201.1079 363.1978L203.43 363.1978L203.43 363.1978L203.43 365.5198L203.43 365.5198L201.1079 365.5198z" stroke="none" fill="#000000" fill-rule="winding" /><path transform="matrix(1 0 0 -1 0 841)" d="M136.0919 360.8757L138.4137 360.8757L138.4137 360.8757L138.4137 363.1977L138.4137 363.1977L136.0919 363.1977z" stroke="none" fill="#000000" fill-rule="winding" /><path transform="matrix(1 0 0 -1 0 841)" d="M138.4137 360.8757L140.7358 360.8757L140.7358 360.8757L140.7358 363.1977L140.7358 363.1977L138.4137 363.1977z" stroke="none" fill="#000000" fill-rule="winding" /><path transform="matrix(1 0 0 -1 0 841)" d="M140.7358 360.8757L143.0578 360.8757L143.0578 360.8757L143.0578 363.1977L143.0578 363.1977L140.7358 363.1977z" stroke="none" fill="#000000" fill-rule="winding" /><path transform="matrix(1 0 0 -1 0 841)" d="M143.0578 360.8757L145.3799 360.8757L145.3799 360.8757L145.3799 363.1977L145.3799 363.1977L143.0578 363.1977z" stroke="none" fill="#000000" fill-rule="winding" /><path transform="matrix(1 0 0 -1 0 841)" d="M145.3799 360.8757L147.7018 360.8757L147.7018 360.8757L147.7018 363.1977L147.7018 363.1977L145.3799 363.1977z" stroke="none" fill="#000000" fill-rule="winding" /><path transform="matrix(1 0 0 -1 0 841)" d="M147.7017 360.8757L150.0238 360.8757L150.0238 360.8757L150.0238 363.1977L150.0238 363.1977L147.7017 363.1977z" stroke="none" fill="#000000" fill-rule="winding" /><path transform="matrix(1 0 0 -1 0 841)" d="M150.0238 360.8757L152.3458 360.8757L152.3458 360.8757L152.3458 363.1977L152.3458 363.1977L150.0238 363.1977z" stroke="none" fill="#000000" fill-rule="winding" /><path transform="matrix(1 0 0 -1 0 841)" d="M154.6679 360.8757L156.9897 360.8757L156.9897 360.8757L156.9897 363.1977L156.9897 363.1977L154.6679 363.1977z" stroke="none" fill="#000000" fill-rule="winding" /><path transform="matrix(1 0 0 -1 0 841)" d="M159.3118 360.8757L161.6338 360.8757L161.6338 360.8757L161.6338 363.1977L161.6338 363.1977L159.3118 363.1977z" stroke="none" fill="#000000" fill-rule="winding" /><path transform="matrix(1 0 0 -1 0 841)" d="M163.9559 360.8757L166.2779 360.8757L166.2779 360.8757L166.2779 363.1977L166.2779 363.1977L163.9559 363.1977z" stroke="none" fill="#000000" fill-rule="winding" /><path transform="matrix(1 0 0 -1 0 841)" d="M168.5998 360.8757L170.9218 360.8757L170.9218 360.8757L170.9218 363.1977L170.9218 363.1977L168.5998 363.1977z" stroke="none" fill="#000000" fill-rule="winding" /><path transform="matrix(1 0 0 -1 0 841)" d="M173.2439 360.8757L175.5659 360.8757L175.5659 360.8757L175.5659 363.1977L175.5659 363.1977L173.2439 363.1977z" stroke="none" fill="#000000" fill-rule="winding" /><path transform="matrix(1 0 0 -1 0 841)" d="M177.8878 360.8757L180.2098 360.8757L180.2098 360.8757L180.2098 363.1977L180.2098 363.1977L177.8878 363.1977z" stroke="none" fill="#000000" fill-rule="winding" /><path transform="matrix(1 0 0 -1 0 841)" d="M182.5319 360.8757L184.8539 360.8757L184.8539 360.8757L184.8539 363.1977L184.8539 363.1977L182.5319 363.1977z" stroke="none" fill="#000000" fill-rule="winding" /><path transform="matrix(1 0 0 -1 0 841)" d="M187.1757 360.8757L189.4977 360.8757L189.4977 360.8757L189.4977 363.1977L189.4977 363.1977L187.1757 363.1977z" stroke="none" fill="#000000" fill-rule="winding" /><path transform="matrix(1 0 0 -1 0 841)" d="M189.4978 360.8757L191.8198 360.8757L191.8198 360.8757L191.8198 363.1977L191.8198 363.1977L189.4978 363.1977z" stroke="none" fill="#000000" fill-rule="winding" /><path transform="matrix(1 0 0 -1 0 841)" d="M191.8199 360.8757L194.1419 360.8757L194.1419 360.8757L194.1419 363.1977L194.1419 363.1977L191.8199 363.1977z" stroke="none" fill="#000000" fill-rule="winding" /><path transform="matrix(1 0 0 -1 0 841)" d="M194.142 360.8757L196.4641 360.8757L196.4641 360.8757L196.4641 363.1977L196.4641 363.1977L194.142 363.1977z" stroke="none" fill="#000000" fill-rule="winding" /><path transform="matrix(1 0 0 -1 0 841)" d="M196.4641 360.8757L198.786 360.8757L198.786 360.8757L198.786 363.1977L198.786 363.1977L196.4641 363.1977z" stroke="none" fill="#000000" fill-rule="winding" /><path transform="matrix(1 0 0 -1 0 841)" d="M198.7858 360.8757L201.1078 360.8757L201.1078 360.8757L201.1078 363.1977L201.1078 363.1977L198.7858 363.1977z" stroke="none" fill="#000000" fill-rule="winding" /><path transform="matrix(1 0 0 -1 0 841)" d="M201.1079 360.8757L203.43 360.8757L203.43 360.8757L203.43 363.1977L203.43 363.1977L201.1079 363.1977z" stroke="none" fill="#000000" fill-rule="winding" /><path transform="matrix(1 0 0 -1 0 841)" d="M154.6679 358.554L156.9897 358.554L156.9897 358.554L156.9897 360.8759L156.9897 360.8759L154.6679 360.8759z" stroke="none" fill="#000000" fill-rule="winding" /><path transform="matrix(1 0 0 -1 0 841)" d="M156.9897 358.554L159.3118 358.554L159.3118 358.554L159.3118 360.8759L159.3118 360.8759L156.9897 360.8759z" stroke="none" fill="#000000" fill-rule="winding" /><path transform="matrix(1 0 0 -1 0 841)" d="M159.3118 358.554L161.6338 358.554L161.6338 358.554L161.6338 360.8759L161.6338 360.8759L159.3118 360.8759z" stroke="none" fill="#000000" fill-rule="winding" /><path transform="matrix(1 0 0 -1 0 841)" d="M168.5998 358.554L170.9218 358.554L170.9218 358.554L170.9218 360.8759L170.9218 360.8759L168.5998 360.8759z" stroke="none" fill="#000000" fill-rule="winding" /><path transform="matrix(1 0 0 -1 0 841)" d="M170.9218 358.554L173.2439 358.554L173.2439 358.554L173.2439 360.8759L173.2439 360.8759L170.9218 360.8759z" stroke="none" fill="#000000" fill-rule="winding" /><path transform="matrix(1 0 0 -1 0 841)" d="M173.2439 358.554L175.5659 358.554L175.5659 358.554L175.5659 360.8759L175.5659 360.8759L173.2439 360.8759z" stroke="none" fill="#000000" fill-rule="winding" /><path transform="matrix(1 0 0 -1 0 841)" d="M145.3799 356.2319L147.7018 356.2319L147.7018 356.2319L147.7018 358.5539L147.7018 358.5539L145.3799 358.5539z" stroke="none" fill="#000000" fill-rule="winding" /><path transform="matrix(1 0 0 -1 0 841)" d="M147.7017 356.2319L150.0238 356.2319L150.0238 356.2319L150.0238 358.5539L150.0238 358.5539L147.7017 358.5539z" stroke="none" fill="#000000" fill-rule="winding" /><path transform="matrix(1 0 0 -1 0 841)" d="M150.0238 356.2319L152.3458 356.2319L152.3458 356.2319L152.3458 358.5539L152.3458 358.5539L150.0238 358.5539z" stroke="none" fill="#000000" fill-rule="winding" /><path transform="matrix(1 0 0 -1 0 841)" d="M152.3458 356.2319L154.6679 356.2319L154.6679 356.2319L154.6679 358.5539L154.6679 358.5539L152.3458 358.5539z" stroke="none" fill="#000000" fill-rule="winding" /><path transform="matrix(1 0 0 -1 0 841)" d="M156.9897 356.2319L159.3118 356.2319L159.3118 356.2319L159.3118 358.5539L159.3118 358.5539L156.9897 358.5539z" stroke="none" fill="#000000" fill-rule="winding" /><path transform="matrix(1 0 0 -1 0 841)" d="M168.5998 356.2319L170.9218 356.2319L170.9218 356.2319L170.9218 358.5539L170.9218 358.5539L168.5998 358.5539z" stroke="none" fill="#000000" fill-rule="winding" /><path transform="matrix(1 0 0 -1 0 841)" d="M170.9218 356.2319L173.2439 356.2319L173.2439 356.2319L173.2439 358.5539L173.2439 358.5539L170.9218 358.5539z" stroke="none" fill="#000000" fill-rule="winding" /><path transform="matrix(1 0 0 -1 0 841)" d="M180.2097 356.2319L182.5318 356.2319L182.5318 356.2319L182.5318 358.5539L182.5318 358.5539L180.2097 358.5539z" stroke="none" fill="#000000" fill-rule="winding" /><path transform="matrix(1 0 0 -1 0 841)" d="M182.5319 356.2319L184.8539 356.2319L184.8539 356.2319L184.8539 358.5539L184.8539 358.5539L182.5319 358.5539z" stroke="none" fill="#000000" fill-rule="winding" /><path transform="matrix(1 0 0 -1 0 841)" d="M187.1757 356.2319L189.4977 356.2319L189.4977 356.2319L189.4977 358.5539L189.4977 358.5539L187.1757 358.5539z" stroke="none" fill="#000000" fill-rule="winding" /><path transform="matrix(1 0 0 -1 0 841)" d="M189.4978 356.2319L191.8198 356.2319L191.8198 356.2319L191.8198 358.5539L191.8198 358.5539L189.4978 358.5539z" stroke="none" fill="#000000" fill-rule="winding" /><path transform="matrix(1 0 0 -1 0 841)" d="M198.7858 356.2319L201.1078 356.2319L201.1078 356.2319L201.1078 358.5539L201.1078 358.5539L198.7858 358.5539z" stroke="none" fill="#000000" fill-rule="winding" /><path transform="matrix(1 0 0 -1 0 841)" d="M136.0919 353.9098L138.4137 353.9098L138.4137 353.9098L138.4137 356.2318L138.4137 356.2318L136.0919 356.2318z" stroke="none" fill="#000000" fill-rule="winding" /><path transform="matrix(1 0 0 -1 0 841)" d="M138.4137 353.9098L140.7358 353.9098L140.7358 353.9098L140.7358 356.2318L140.7358 356.2318L138.4137 356.2318z" stroke="none" fill="#000000" fill-rule="winding" /><path transform="matrix(1 0 0 -1 0 841)" d="M145.3799 353.9098L147.7018 353.9098L147.7018 353.9098L147.7018 356.2318L147.7018 356.2318L145.3799 356.2318z" stroke="none" fill="#000000" fill-rule="winding" /><path transform="matrix(1 0 0 -1 0 841)" d="M154.6679 353.9098L156.9897 353.9098L156.9897 353.9098L156.9897 356.2318L156.9897 356.2318L154.6679 356.2318z" stroke="none" fill="#000000" fill-rule="winding" /><path transform="matrix(1 0 0 -1 0 841)" d="M156.9897 353.9098L159.3118 353.9098L159.3118 353.9098L159.3118 356.2318L159.3118 356.2318L156.9897 356.2318z" stroke="none" fill="#000000" fill-rule="winding" /><path transform="matrix(1 0 0 -1 0 841)" d="M159.3118 353.9098L161.6338 353.9098L161.6338 353.9098L161.6338 356.2318L161.6338 356.2318L159.3118 356.2318z" stroke="none" fill="#000000" fill-rule="winding" /><path transform="matrix(1 0 0 -1 0 841)" d="M161.6338 353.9098L163.9559 353.9098L163.9559 353.9098L163.9559 356.2318L163.9559 356.2318L161.6338 356.2318z" stroke="none" fill="#000000" fill-rule="winding" /><path transform="matrix(1 0 0 -1 0 841)" d="M166.2779 353.9098L168.5998 353.9098L168.5998 353.9098L168.5998 356.2318L168.5998 356.2318L166.2779 356.2318z" stroke="none" fill="#000000" fill-rule="winding" /><path transform="matrix(1 0 0 -1 0 841)" d="M170.9218 353.9098L173.2439 353.9098L173.2439 353.9098L173.2439 356.2318L173.2439 356.2318L170.9218 356.2318z" stroke="none" fill="#000000" fill-rule="winding" /><path transform="matrix(1 0 0 -1 0 841)" d="M173.2439 353.9098L175.5659 353.9098L175.5659 353.9098L175.5659 356.2318L175.5659 356.2318L173.2439 356.2318z" stroke="none" fill="#000000" fill-rule="winding" /><path transform="matrix(1 0 0 -1 0 841)" d="M175.5659 353.9098L177.8878 353.9098L177.8878 353.9098L177.8878 356.2318L177.8878 356.2318L175.5659 356.2318z" stroke="none" fill="#000000" fill-rule="winding" /><path transform="matrix(1 0 0 -1 0 841)" d="M177.8878 353.9098L180.2098 353.9098L180.2098 353.9098L180.2098 356.2318L180.2098 356.2318L177.8878 356.2318z" stroke="none" fill="#000000" fill-rule="winding" /><path transform="matrix(1 0 0 -1 0 841)" d="M180.2097 353.9098L182.5318 353.9098L182.5318 353.9098L182.5318 356.2318L182.5318 356.2318L180.2097 356.2318z" stroke="none" fill="#000000" fill-rule="winding" /><path transform="matrix(1 0 0 -1 0 841)" d="M184.854 353.9098L187.1758 353.9098L187.1758 353.9098L187.1758 356.2318L187.1758 356.2318L184.854 356.2318z" stroke="none" fill="#000000" fill-rule="winding" /><path transform="matrix(1 0 0 -1 0 841)" d="M189.4978 353.9098L191.8198 353.9098L191.8198 353.9098L191.8198 356.2318L191.8198 356.2318L189.4978 356.2318z" stroke="none" fill="#000000" fill-rule="winding" /><path transform="matrix(1 0 0 -1 0 841)" d="M191.8199 353.9098L194.1419 353.9098L194.1419 353.9098L194.1419 356.2318L194.1419 356.2318L191.8199 356.2318z" stroke="none" fill="#000000" fill-rule="winding" /><path transform="matrix(1 0 0 -1 0 841)" d="M198.7858 353.9098L201.1078 353.9098L201.1078 353.9098L201.1078 356.2318L201.1078 356.2318L198.7858 356.2318z" stroke="none" fill="#000000" fill-rule="winding" /><path transform="matrix(1 0 0 -1 0 841)" d="M201.1079 353.9098L203.43 353.9098L203.43 353.9098L203.43 356.2318L203.43 356.2318L201.1079 356.2318z" stroke="none" fill="#000000" fill-rule="winding" /><path transform="matrix(1 0 0 -1 0 841)" d="M136.0919 351.5878L138.4137 351.5878L138.4137 351.5878L138.4137 353.9099L138.4137 353.9099L136.0919 353.9099z" stroke="none" fill="#000000" fill-rule="winding" /><path transform="matrix(1 0 0 -1 0 841)" d="M140.7358 351.5878L143.0578 351.5878L143.0578 351.5878L143.0578 353.9099L143.0578 353.9099L140.7358 353.9099z" stroke="none" fill="#000000" fill-rule="winding" /><path transform="matrix(1 0 0 -1 0 841)" d="M143.0578 351.5878L145.3799 351.5878L145.3799 351.5878L145.3799 353.9099L145.3799 353.9099L143.0578 353.9099z" stroke="none" fill="#000000" fill-rule="winding" /><path transform="matrix(1 0 0 -1 0 841)" d="M145.3799 351.5878L147.7018 351.5878L147.7018 351.5878L147.7018 353.9099L147.7018 353.9099L145.3799 353.9099z" stroke="none" fill="#000000" fill-rule="winding" /><path transform="matrix(1 0 0 -1 0 841)" d="M150.0238 351.5878L152.3458 351.5878L152.3458 351.5878L152.3458 353.9099L152.3458 353.9099L150.0238 353.9099z" stroke="none" fill="#000000" fill-rule="winding" /><path transform="matrix(1 0 0 -1 0 841)" d="M152.3458 351.5878L154.6679 351.5878L154.6679 351.5878L154.6679 353.9099L154.6679 353.9099L152.3458 353.9099z" stroke="none" fill="#000000" fill-rule="winding" /><path transform="matrix(1 0 0 -1 0 841)" d="M154.6679 351.5878L156.9897 351.5878L156.9897 351.5878L156.9897 353.9099L156.9897 353.9099L154.6679 353.9099z" stroke="none" fill="#000000" fill-rule="winding" /><path transform="matrix(1 0 0 -1 0 841)" d="M159.3118 351.5878L161.6338 351.5878L161.6338 351.5878L161.6338 353.9099L161.6338 353.9099L159.3118 353.9099z" stroke="none" fill="#000000" fill-rule="winding" /><path transform="matrix(1 0 0 -1 0 841)" d="M161.6338 351.5878L163.9559 351.5878L163.9559 351.5878L163.9559 353.9099L163.9559 353.9099L161.6338 353.9099z" stroke="none" fill="#000000" fill-rule="winding" /><path transform="matrix(1 0 0 -1 0 841)" d="M163.9559 351.5878L166.2779 351.5878L166.2779 351.5878L166.2779 353.9099L166.2779 353.9099L163.9559 353.9099z" stroke="none" fill="#000000" fill-rule="winding" /><path transform="matrix(1 0 0 -1 0 841)" d="M166.2779 351.5878L168.5998 351.5878L168.5998 351.5878L168.5998 353.9099L168.5998 353.9099L166.2779 353.9099z" stroke="none" fill="#000000" fill-rule="winding" /><path transform="matrix(1 0 0 -1 0 841)" d="M173.2439 351.5878L175.5659 351.5878L175.5659 351.5878L175.5659 353.9099L175.5659 353.9099L173.2439 353.9099z" stroke="none" fill="#000000" fill-rule="winding" /><path transform="matrix(1 0 0 -1 0 841)" d="M175.5659 351.5878L177.8878 351.5878L177.8878 351.5878L177.8878 353.9099L177.8878 353.9099L175.5659 353.9099z" stroke="none" fill="#000000" fill-rule="winding" /><path transform="matrix(1 0 0 -1 0 841)" d="M177.8878 351.5878L180.2098 351.5878L180.2098 351.5878L180.2098 353.9099L180.2098 353.9099L177.8878 353.9099z" stroke="none" fill="#000000" fill-rule="winding" /><path transform="matrix(1 0 0 -1 0 841)" d="M180.2097 351.5878L182.5318 351.5878L182.5318 351.5878L182.5318 353.9099L182.5318 353.9099L180.2097 353.9099z" stroke="none" fill="#000000" fill-rule="winding" /><path transform="matrix(1 0 0 -1 0 841)" d="M189.4978 351.5878L191.8198 351.5878L191.8198 351.5878L191.8198 353.9099L191.8198 353.9099L189.4978 353.9099z" stroke="none" fill="#000000" fill-rule="winding" /><path transform="matrix(1 0 0 -1 0 841)" d="M191.8199 351.5878L194.1419 351.5878L194.1419 351.5878L194.1419 353.9099L194.1419 353.9099L191.8199 353.9099z" stroke="none" fill="#000000" fill-rule="winding" /><path transform="matrix(1 0 0 -1 0 841)" d="M196.4641 351.5878L198.786 351.5878L198.786 351.5878L198.786 353.9099L198.786 353.9099L196.4641 353.9099z" stroke="none" fill="#000000" fill-rule="winding" /><path transform="matrix(1 0 0 -1 0 841)" d="M201.1079 351.5878L203.43 351.5878L203.43 351.5878L203.43 353.9099L203.43 353.9099L201.1079 353.9099z" stroke="none" fill="#000000" fill-rule="winding" /><path transform="matrix(1 0 0 -1 0 841)" d="M138.4137 349.266L140.7358 349.266L140.7358 349.266L140.7358 351.5878L140.7358 351.5878L138.4137 351.5878z" stroke="none" fill="#000000" fill-rule="winding" /><path transform="matrix(1 0 0 -1 0 841)" d="M143.0578 349.266L145.3799 349.266L145.3799 349.266L145.3799 351.5878L145.3799 351.5878L143.0578 351.5878z" stroke="none" fill="#000000" fill-rule="winding" /><path transform="matrix(1 0 0 -1 0 841)" d="M145.3799 349.266L147.7018 349.266L147.7018 349.266L147.7018 351.5878L147.7018 351.5878L145.3799 351.5878z" stroke="none" fill="#000000" fill-rule="winding" /><path transform="matrix(1 0 0 -1 0 841)" d="M152.3458 349.266L154.6679 349.266L154.6679 349.266L154.6679 351.5878L154.6679 351.5878L152.3458 351.5878z" stroke="none" fill="#000000" fill-rule="winding" /><path transform="matrix(1 0 0 -1 0 841)" d="M163.9559 349.266L166.2779 349.266L166.2779 349.266L166.2779 351.5878L166.2779 351.5878L163.9559 351.5878z" stroke="none" fill="#000000" fill-rule="winding" /><path transform="matrix(1 0 0 -1 0 841)" d="M166.2779 349.266L168.5998 349.266L168.5998 349.266L168.5998 351.5878L168.5998 351.5878L166.2779 351.5878z" stroke="none" fill="#000000" fill-rule="winding" /><path transform="matrix(1 0 0 -1 0 841)" d="M168.5998 349.266L170.9218 349.266L170.9218 349.266L170.9218 351.5878L170.9218 351.5878L168.5998 351.5878z" stroke="none" fill="#000000" fill-rule="winding" /><path transform="matrix(1 0 0 -1 0 841)" d="M173.2439 349.266L175.5659 349.266L175.5659 349.266L175.5659 351.5878L175.5659 351.5878L173.2439 351.5878z" stroke="none" fill="#000000" fill-rule="winding" /><path transform="matrix(1 0 0 -1 0 841)" d="M175.5659 349.266L177.8878 349.266L177.8878 349.266L177.8878 351.5878L177.8878 351.5878L175.5659 351.5878z" stroke="none" fill="#000000" fill-rule="winding" /><path transform="matrix(1 0 0 -1 0 841)" d="M180.2097 349.266L182.5318 349.266L182.5318 349.266L182.5318 351.5878L182.5318 351.5878L180.2097 351.5878z" stroke="none" fill="#000000" fill-rule="winding" /><path transform="matrix(1 0 0 -1 0 841)" d="M182.5319 349.266L184.8539 349.266L184.8539 349.266L184.8539 351.5878L184.8539 351.5878L182.5319 351.5878z" stroke="none" fill="#000000" fill-rule="winding" /><path transform="matrix(1 0 0 -1 0 841)" d="M189.4978 349.266L191.8198 349.266L191.8198 349.266L191.8198 351.5878L191.8198 351.5878L189.4978 351.5878z" stroke="none" fill="#000000" fill-rule="winding" /><path transform="matrix(1 0 0 -1 0 841)" d="M198.7858 349.266L201.1078 349.266L201.1078 349.266L201.1078 351.5878L201.1078 351.5878L198.7858 351.5878z" stroke="none" fill="#000000" fill-rule="winding" /><path transform="matrix(1 0 0 -1 0 841)" d="M201.1079 349.266L203.43 349.266L203.43 349.266L203.43 351.5878L203.43 351.5878L201.1079 351.5878z" stroke="none" fill="#000000" fill-rule="winding" /><path transform="matrix(1 0 0 -1 0 841)" d="M136.0919 346.9439L138.4137 346.9439L138.4137 346.9439L138.4137 349.2659L138.4137 349.2659L136.0919 349.2659z" stroke="none" fill="#000000" fill-rule="winding" /><path transform="matrix(1 0 0 -1 0 841)" d="M138.4137 346.9439L140.7358 346.9439L140.7358 346.9439L140.7358 349.2659L140.7358 349.2659L138.4137 349.2659z" stroke="none" fill="#000000" fill-rule="winding" /><path transform="matrix(1 0 0 -1 0 841)" d="M140.7358 346.9439L143.0578 346.9439L143.0578 346.9439L143.0578 349.2659L143.0578 349.2659L140.7358 349.2659z" stroke="none" fill="#000000" fill-rule="winding" /><path transform="matrix(1 0 0 -1 0 841)" d="M147.7017 346.9439L150.0238 346.9439L150.0238 346.9439L150.0238 349.2659L150.0238 349.2659L147.7017 349.2659z" stroke="none" fill="#000000" fill-rule="winding" /><path transform="matrix(1 0 0 -1 0 841)" d="M150.0238 346.9439L152.3458 346.9439L152.3458 346.9439L152.3458 349.2659L152.3458 349.2659L150.0238 349.2659z" stroke="none" fill="#000000" fill-rule="winding" /><path transform="matrix(1 0 0 -1 0 841)" d="M152.3458 346.9439L154.6679 346.9439L154.6679 346.9439L154.6679 349.2659L154.6679 349.2659L152.3458 349.2659z" stroke="none" fill="#000000" fill-rule="winding" /><path transform="matrix(1 0 0 -1 0 841)" d="M154.6679 346.9439L156.9897 346.9439L156.9897 346.9439L156.9897 349.2659L156.9897 349.2659L154.6679 349.2659z" stroke="none" fill="#000000" fill-rule="winding" /><path transform="matrix(1 0 0 -1 0 841)" d="M161.6338 346.9439L163.9559 346.9439L163.9559 346.9439L163.9559 349.2659L163.9559 349.2659L161.6338 349.2659z" stroke="none" fill="#000000" fill-rule="winding" /><path transform="matrix(1 0 0 -1 0 841)" d="M163.9559 346.9439L166.2779 346.9439L166.2779 346.9439L166.2779 349.2659L166.2779 349.2659L163.9559 349.2659z" stroke="none" fill="#000000" fill-rule="winding" /><path transform="matrix(1 0 0 -1 0 841)" d="M177.8878 346.9439L180.2098 346.9439L180.2098 346.9439L180.2098 349.2659L180.2098 349.2659L177.8878 349.2659z" stroke="none" fill="#000000" fill-rule="winding" /><path transform="matrix(1 0 0 -1 0 841)" d="M194.142 346.9439L196.4641 346.9439L196.4641 346.9439L196.4641 349.2659L196.4641 349.2659L194.142 349.2659z" stroke="none" fill="#000000" fill-rule="winding" /><path transform="matrix(1 0 0 -1 0 841)" d="M201.1079 346.9439L203.43 346.9439L203.43 346.9439L203.43 349.2659L203.43 349.2659L201.1079 349.2659z" stroke="none" fill="#000000" fill-rule="winding" /><path transform="matrix(1 0 0 -1 0 841)" d="M138.4137 344.6219L140.7358 344.6219L140.7358 344.6219L140.7358 346.9439L140.7358 346.9439L138.4137 346.9439z" stroke="none" fill="#000000" fill-rule="winding" /><path transform="matrix(1 0 0 -1 0 841)" d="M145.3799 344.6219L147.7018 344.6219L147.7018 344.6219L147.7018 346.9439L147.7018 346.9439L145.3799 346.9439z" stroke="none" fill="#000000" fill-rule="winding" /><path transform="matrix(1 0 0 -1 0 841)" d="M152.3458 344.6219L154.6679 344.6219L154.6679 344.6219L154.6679 346.9439L154.6679 346.9439L152.3458 346.9439z" stroke="none" fill="#000000" fill-rule="winding" /><path transform="matrix(1 0 0 -1 0 841)" d="M154.6679 344.6219L156.9897 344.6219L156.9897 344.6219L156.9897 346.9439L156.9897 346.9439L154.6679 346.9439z" stroke="none" fill="#000000" fill-rule="winding" /><path transform="matrix(1 0 0 -1 0 841)" d="M161.6338 344.6219L163.9559 344.6219L163.9559 344.6219L163.9559 346.9439L163.9559 346.9439L161.6338 346.9439z" stroke="none" fill="#000000" fill-rule="winding" /><path transform="matrix(1 0 0 -1 0 841)" d="M170.9218 344.6219L173.2439 344.6219L173.2439 344.6219L173.2439 346.9439L173.2439 346.9439L170.9218 346.9439z" stroke="none" fill="#000000" fill-rule="winding" /><path transform="matrix(1 0 0 -1 0 841)" d="M173.2439 344.6219L175.5659 344.6219L175.5659 344.6219L175.5659 346.9439L175.5659 346.9439L173.2439 346.9439z" stroke="none" fill="#000000" fill-rule="winding" /><path transform="matrix(1 0 0 -1 0 841)" d="M182.5319 344.6219L184.8539 344.6219L184.8539 344.6219L184.8539 346.9439L184.8539 346.9439L182.5319 346.9439z" stroke="none" fill="#000000" fill-rule="winding" /><path transform="matrix(1 0 0 -1 0 841)" d="M187.1757 344.6219L189.4977 344.6219L189.4977 344.6219L189.4977 346.9439L189.4977 346.9439L187.1757 346.9439z" stroke="none" fill="#000000" fill-rule="winding" /><path transform="matrix(1 0 0 -1 0 841)" d="M191.8199 344.6219L194.1419 344.6219L194.1419 344.6219L194.1419 346.9439L194.1419 346.9439L191.8199 346.9439z" stroke="none" fill="#000000" fill-rule="winding" /><path transform="matrix(1 0 0 -1 0 841)" d="M196.4641 344.6219L198.786 344.6219L198.786 344.6219L198.786 346.9439L198.786 346.9439L196.4641 346.9439z" stroke="none" fill="#000000" fill-rule="winding" /><path transform="matrix(1 0 0 -1 0 841)" d="M201.1079 344.6219L203.43 344.6219L203.43 344.6219L203.43 346.9439L203.43 346.9439L201.1079 346.9439z" stroke="none" fill="#000000" fill-rule="winding" /><path transform="matrix(1 0 0 -1 0 841)" d="M136.0919 342.2998L138.4137 342.2998L138.4137 342.2998L138.4137 344.6219L138.4137 344.6219L136.0919 344.6219z" stroke="none" fill="#000000" fill-rule="winding" /><path transform="matrix(1 0 0 -1 0 841)" d="M138.4137 342.2998L140.7358 342.2998L140.7358 342.2998L140.7358 344.6219L140.7358 344.6219L138.4137 344.6219z" stroke="none" fill="#000000" fill-rule="winding" /><path transform="matrix(1 0 0 -1 0 841)" d="M140.7358 342.2998L143.0578 342.2998L143.0578 342.2998L143.0578 344.6219L143.0578 344.6219L140.7358 344.6219z" stroke="none" fill="#000000" fill-rule="winding" /><path transform="matrix(1 0 0 -1 0 841)" d="M145.3799 342.2998L147.7018 342.2998L147.7018 342.2998L147.7018 344.6219L147.7018 344.6219L145.3799 344.6219z" stroke="none" fill="#000000" fill-rule="winding" /><path transform="matrix(1 0 0 -1 0 841)" d="M147.7017 342.2998L150.0238 342.2998L150.0238 342.2998L150.0238 344.6219L150.0238 344.6219L147.7017 344.6219z" stroke="none" fill="#000000" fill-rule="winding" /><path transform="matrix(1 0 0 -1 0 841)" d="M150.0238 342.2998L152.3458 342.2998L152.3458 342.2998L152.3458 344.6219L152.3458 344.6219L150.0238 344.6219z" stroke="none" fill="#000000" fill-rule="winding" /><path transform="matrix(1 0 0 -1 0 841)" d="M154.6679 342.2998L156.9897 342.2998L156.9897 342.2998L156.9897 344.6219L156.9897 344.6219L154.6679 344.6219z" stroke="none" fill="#000000" fill-rule="winding" /><path transform="matrix(1 0 0 -1 0 841)" d="M156.9897 342.2998L159.3118 342.2998L159.3118 342.2998L159.3118 344.6219L159.3118 344.6219L156.9897 344.6219z" stroke="none" fill="#000000" fill-rule="winding" /><path transform="matrix(1 0 0 -1 0 841)" d="M159.3118 342.2998L161.6338 342.2998L161.6338 342.2998L161.6338 344.6219L161.6338 344.6219L159.3118 344.6219z" stroke="none" fill="#000000" fill-rule="winding" /><path transform="matrix(1 0 0 -1 0 841)" d="M161.6338 342.2998L163.9559 342.2998L163.9559 342.2998L163.9559 344.6219L163.9559 344.6219L161.6338 344.6219z" stroke="none" fill="#000000" fill-rule="winding" /><path transform="matrix(1 0 0 -1 0 841)" d="M163.9559 342.2998L166.2779 342.2998L166.2779 342.2998L166.2779 344.6219L166.2779 344.6219L163.9559 344.6219z" stroke="none" fill="#000000" fill-rule="winding" /><path transform="matrix(1 0 0 -1 0 841)" d="M166.2779 342.2998L168.5998 342.2998L168.5998 342.2998L168.5998 344.6219L168.5998 344.6219L166.2779 344.6219z" stroke="none" fill="#000000" fill-rule="winding" /><path transform="matrix(1 0 0 -1 0 841)" d="M170.9218 342.2998L173.2439 342.2998L173.2439 342.2998L173.2439 344.6219L173.2439 344.6219L170.9218 344.6219z" stroke="none" fill="#000000" fill-rule="winding" /><path transform="matrix(1 0 0 -1 0 841)" d="M187.1757 342.2998L189.4977 342.2998L189.4977 342.2998L189.4977 344.6219L189.4977 344.6219L187.1757 344.6219z" stroke="none" fill="#000000" fill-rule="winding" /><path transform="matrix(1 0 0 -1 0 841)" d="M189.4978 342.2998L191.8198 342.2998L191.8198 342.2998L191.8198 344.6219L191.8198 344.6219L189.4978 344.6219z" stroke="none" fill="#000000" fill-rule="winding" /><path transform="matrix(1 0 0 -1 0 841)" d="M191.8199 342.2998L194.1419 342.2998L194.1419 342.2998L194.1419 344.6219L194.1419 344.6219L191.8199 344.6219z" stroke="none" fill="#000000" fill-rule="winding" /><path transform="matrix(1 0 0 -1 0 841)" d="M201.1079 342.2998L203.43 342.2998L203.43 342.2998L203.43 344.6219L203.43 344.6219L201.1079 344.6219z" stroke="none" fill="#000000" fill-rule="winding" /><path transform="matrix(1 0 0 -1 0 841)" d="M136.0919 339.9779L138.4137 339.9779L138.4137 339.9779L138.4137 342.2998L138.4137 342.2998L136.0919 342.2998z" stroke="none" fill="#000000" fill-rule="winding" /><path transform="matrix(1 0 0 -1 0 841)" d="M138.4137 339.9779L140.7358 339.9779L140.7358 339.9779L140.7358 342.2998L140.7358 342.2998L138.4137 342.2998z" stroke="none" fill="#000000" fill-rule="winding" /><path transform="matrix(1 0 0 -1 0 841)" d="M140.7358 339.9779L143.0578 339.9779L143.0578 339.9779L143.0578 342.2998L143.0578 342.2998L140.7358 342.2998z" stroke="none" fill="#000000" fill-rule="winding" /><path transform="matrix(1 0 0 -1 0 841)" d="M143.0578 339.9779L145.3799 339.9779L145.3799 339.9779L145.3799 342.2998L145.3799 342.2998L143.0578 342.2998z" stroke="none" fill="#000000" fill-rule="winding" /><path transform="matrix(1 0 0 -1 0 841)" d="M145.3799 339.9779L147.7018 339.9779L147.7018 339.9779L147.7018 342.2998L147.7018 342.2998L145.3799 342.2998z" stroke="none" fill="#000000" fill-rule="winding" /><path transform="matrix(1 0 0 -1 0 841)" d="M159.3118 339.9779L161.6338 339.9779L161.6338 339.9779L161.6338 342.2998L161.6338 342.2998L159.3118 342.2998z" stroke="none" fill="#000000" fill-rule="winding" /><path transform="matrix(1 0 0 -1 0 841)" d="M161.6338 339.9779L163.9559 339.9779L163.9559 339.9779L163.9559 342.2998L163.9559 342.2998L161.6338 342.2998z" stroke="none" fill="#000000" fill-rule="winding" /><path transform="matrix(1 0 0 -1 0 841)" d="M163.9559 339.9779L166.2779 339.9779L166.2779 339.9779L166.2779 342.2998L166.2779 342.2998L163.9559 342.2998z" stroke="none" fill="#000000" fill-rule="winding" /><path transform="matrix(1 0 0 -1 0 841)" d="M170.9218 339.9779L173.2439 339.9779L173.2439 339.9779L173.2439 342.2998L173.2439 342.2998L170.9218 342.2998z" stroke="none" fill="#000000" fill-rule="winding" /><path transform="matrix(1 0 0 -1 0 841)" d="M173.2439 339.9779L175.5659 339.9779L175.5659 339.9779L175.5659 342.2998L175.5659 342.2998L173.2439 342.2998z" stroke="none" fill="#000000" fill-rule="winding" /><path transform="matrix(1 0 0 -1 0 841)" d="M175.5659 339.9779L177.8878 339.9779L177.8878 339.9779L177.8878 342.2998L177.8878 342.2998L175.5659 342.2998z" stroke="none" fill="#000000" fill-rule="winding" /><path transform="matrix(1 0 0 -1 0 841)" d="M180.2097 339.9779L182.5318 339.9779L182.5318 339.9779L182.5318 342.2998L182.5318 342.2998L180.2097 342.2998z" stroke="none" fill="#000000" fill-rule="winding" /><path transform="matrix(1 0 0 -1 0 841)" d="M189.4978 339.9779L191.8198 339.9779L191.8198 339.9779L191.8198 342.2998L191.8198 342.2998L189.4978 342.2998z" stroke="none" fill="#000000" fill-rule="winding" /><path transform="matrix(1 0 0 -1 0 841)" d="M191.8199 339.9779L194.1419 339.9779L194.1419 339.9779L194.1419 342.2998L194.1419 342.2998L191.8199 342.2998z" stroke="none" fill="#000000" fill-rule="winding" /><path transform="matrix(1 0 0 -1 0 841)" d="M194.142 339.9779L196.4641 339.9779L196.4641 339.9779L196.4641 342.2998L196.4641 342.2998L194.142 342.2998z" stroke="none" fill="#000000" fill-rule="winding" /><path transform="matrix(1 0 0 -1 0 841)" d="M136.0919 337.6559L138.4137 337.6559L138.4137 337.6559L138.4137 339.9779L138.4137 339.9779L136.0919 339.9779z" stroke="none" fill="#000000" fill-rule="winding" /><path transform="matrix(1 0 0 -1 0 841)" d="M138.4137 337.6559L140.7358 337.6559L140.7358 337.6559L140.7358 339.9779L140.7358 339.9779L138.4137 339.9779z" stroke="none" fill="#000000" fill-rule="winding" /><path transform="matrix(1 0 0 -1 0 841)" d="M140.7358 337.6559L143.0578 337.6559L143.0578 337.6559L143.0578 339.9779L143.0578 339.9779L140.7358 339.9779z" stroke="none" fill="#000000" fill-rule="winding" /><path transform="matrix(1 0 0 -1 0 841)" d="M147.7017 337.6559L150.0238 337.6559L150.0238 337.6559L150.0238 339.9779L150.0238 339.9779L147.7017 339.9779z" stroke="none" fill="#000000" fill-rule="winding" /><path transform="matrix(1 0 0 -1 0 841)" d="M150.0238 337.6559L152.3458 337.6559L152.3458 337.6559L152.3458 339.9779L152.3458 339.9779L150.0238 339.9779z" stroke="none" fill="#000000" fill-rule="winding" /><path transform="matrix(1 0 0 -1 0 841)" d="M159.3118 337.6559L161.6338 337.6559L161.6338 337.6559L161.6338 339.9779L161.6338 339.9779L159.3118 339.9779z" stroke="none" fill="#000000" fill-rule="winding" /><path transform="matrix(1 0 0 -1 0 841)" d="M163.9559 337.6559L166.2779 337.6559L166.2779 337.6559L166.2779 339.9779L166.2779 339.9779L163.9559 339.9779z" stroke="none" fill="#000000" fill-rule="winding" /><path transform="matrix(1 0 0 -1 0 841)" d="M166.2779 337.6559L168.5998 337.6559L168.5998 337.6559L168.5998 339.9779L168.5998 339.9779L166.2779 339.9779z" stroke="none" fill="#000000" fill-rule="winding" /><path transform="matrix(1 0 0 -1 0 841)" d="M177.8878 337.6559L180.2098 337.6559L180.2098 337.6559L180.2098 339.9779L180.2098 339.9779L177.8878 339.9779z" stroke="none" fill="#000000" fill-rule="winding" /><path transform="matrix(1 0 0 -1 0 841)" d="M180.2097 337.6559L182.5318 337.6559L182.5318 337.6559L182.5318 339.9779L182.5318 339.9779L180.2097 339.9779z" stroke="none" fill="#000000" fill-rule="winding" /><path transform="matrix(1 0 0 -1 0 841)" d="M182.5319 337.6559L184.8539 337.6559L184.8539 337.6559L184.8539 339.9779L184.8539 339.9779L182.5319 339.9779z" stroke="none" fill="#000000" fill-rule="winding" /><path transform="matrix(1 0 0 -1 0 841)" d="M184.854 337.6559L187.1758 337.6559L187.1758 337.6559L187.1758 339.9779L187.1758 339.9779L184.854 339.9779z" stroke="none" fill="#000000" fill-rule="winding" /><path transform="matrix(1 0 0 -1 0 841)" d="M189.4978 337.6559L191.8198 337.6559L191.8198 337.6559L191.8198 339.9779L191.8198 339.9779L189.4978 339.9779z" stroke="none" fill="#000000" fill-rule="winding" /><path transform="matrix(1 0 0 -1 0 841)" d="M136.0919 335.3339L138.4137 335.3339L138.4137 335.3339L138.4137 337.6559L138.4137 337.6559L136.0919 337.6559z" stroke="none" fill="#000000" fill-rule="winding" /><path transform="matrix(1 0 0 -1 0 841)" d="M140.7358 335.3339L143.0578 335.3339L143.0578 335.3339L143.0578 337.6559L143.0578 337.6559L140.7358 337.6559z" stroke="none" fill="#000000" fill-rule="winding" /><path transform="matrix(1 0 0 -1 0 841)" d="M143.0578 335.3339L145.3799 335.3339L145.3799 335.3339L145.3799 337.6559L145.3799 337.6559L143.0578 337.6559z" stroke="none" fill="#000000" fill-rule="winding" /><path transform="matrix(1 0 0 -1 0 841)" d="M145.3799 335.3339L147.7018 335.3339L147.7018 335.3339L147.7018 337.6559L147.7018 337.6559L145.3799 337.6559z" stroke="none" fill="#000000" fill-rule="winding" /><path transform="matrix(1 0 0 -1 0 841)" d="M152.3458 335.3339L154.6679 335.3339L154.6679 335.3339L154.6679 337.6559L154.6679 337.6559L152.3458 337.6559z" stroke="none" fill="#000000" fill-rule="winding" /><path transform="matrix(1 0 0 -1 0 841)" d="M154.6679 335.3339L156.9897 335.3339L156.9897 335.3339L156.9897 337.6559L156.9897 337.6559L154.6679 337.6559z" stroke="none" fill="#000000" fill-rule="winding" /><path transform="matrix(1 0 0 -1 0 841)" d="M159.3118 335.3339L161.6338 335.3339L161.6338 335.3339L161.6338 337.6559L161.6338 337.6559L159.3118 337.6559z" stroke="none" fill="#000000" fill-rule="winding" /><path transform="matrix(1 0 0 -1 0 841)" d="M161.6338 335.3339L163.9559 335.3339L163.9559 335.3339L163.9559 337.6559L163.9559 337.6559L161.6338 337.6559z" stroke="none" fill="#000000" fill-rule="winding" /><path transform="matrix(1 0 0 -1 0 841)" d="M168.5998 335.3339L170.9218 335.3339L170.9218 335.3339L170.9218 337.6559L170.9218 337.6559L168.5998 337.6559z" stroke="none" fill="#000000" fill-rule="winding" /><path transform="matrix(1 0 0 -1 0 841)" d="M170.9218 335.3339L173.2439 335.3339L173.2439 335.3339L173.2439 337.6559L173.2439 337.6559L170.9218 337.6559z" stroke="none" fill="#000000" fill-rule="winding" /><path transform="matrix(1 0 0 -1 0 841)" d="M173.2439 335.3339L175.5659 335.3339L175.5659 335.3339L175.5659 337.6559L175.5659 337.6559L173.2439 337.6559z" stroke="none" fill="#000000" fill-rule="winding" /><path transform="matrix(1 0 0 -1 0 841)" d="M180.2097 335.3339L182.5318 335.3339L182.5318 335.3339L182.5318 337.6559L182.5318 337.6559L180.2097 337.6559z" stroke="none" fill="#000000" fill-rule="winding" /><path transform="matrix(1 0 0 -1 0 841)" d="M182.5319 335.3339L184.8539 335.3339L184.8539 335.3339L184.8539 337.6559L184.8539 337.6559L182.5319 337.6559z" stroke="none" fill="#000000" fill-rule="winding" /><path transform="matrix(1 0 0 -1 0 841)" d="M187.1757 335.3339L189.4977 335.3339L189.4977 335.3339L189.4977 337.6559L189.4977 337.6559L187.1757 337.6559z" stroke="none" fill="#000000" fill-rule="winding" /><path transform="matrix(1 0 0 -1 0 841)" d="M191.8199 335.3339L194.1419 335.3339L194.1419 335.3339L194.1419 337.6559L194.1419 337.6559L191.8199 337.6559z" stroke="none" fill="#000000" fill-rule="winding" /><path transform="matrix(1 0 0 -1 0 841)" d="M201.1079 335.3339L203.43 335.3339L203.43 335.3339L203.43 337.6559L203.43 337.6559L201.1079 337.6559z" stroke="none" fill="#000000" fill-rule="winding" /><path transform="matrix(1 0 0 -1 0 841)" d="M145.3799 333.0118L147.7018 333.0118L147.7018 333.0118L147.7018 335.3338L147.7018 335.3338L145.3799 335.3338z" stroke="none" fill="#000000" fill-rule="winding" /><path transform="matrix(1 0 0 -1 0 841)" d="M150.0238 333.0118L152.3458 333.0118L152.3458 333.0118L152.3458 335.3338L152.3458 335.3338L150.0238 335.3338z" stroke="none" fill="#000000" fill-rule="winding" /><path transform="matrix(1 0 0 -1 0 841)" d="M152.3458 333.0118L154.6679 333.0118L154.6679 333.0118L154.6679 335.3338L154.6679 335.3338L152.3458 335.3338z" stroke="none" fill="#000000" fill-rule="winding" /><path transform="matrix(1 0 0 -1 0 841)" d="M154.6679 333.0118L156.9897 333.0118L156.9897 333.0118L156.9897 335.3338L156.9897 335.3338L154.6679 335.3338z" stroke="none" fill="#000000" fill-rule="winding" /><path transform="matrix(1 0 0 -1 0 841)" d="M156.9897 333.0118L159.3118 333.0118L159.3118 333.0118L159.3118 335.3338L159.3118 335.3338L156.9897 335.3338z" stroke="none" fill="#000000" fill-rule="winding" /><path transform="matrix(1 0 0 -1 0 841)" d="M170.9218 333.0118L173.2439 333.0118L173.2439 333.0118L173.2439 335.3338L173.2439 335.3338L170.9218 335.3338z" stroke="none" fill="#000000" fill-rule="winding" /><path transform="matrix(1 0 0 -1 0 841)" d="M177.8878 333.0118L180.2098 333.0118L180.2098 333.0118L180.2098 335.3338L180.2098 335.3338L177.8878 335.3338z" stroke="none" fill="#000000" fill-rule="winding" /><path transform="matrix(1 0 0 -1 0 841)" d="M182.5319 333.0118L184.8539 333.0118L184.8539 333.0118L184.8539 335.3338L184.8539 335.3338L182.5319 335.3338z" stroke="none" fill="#000000" fill-rule="winding" /><path transform="matrix(1 0 0 -1 0 841)" d="M194.142 333.0118L196.4641 333.0118L196.4641 333.0118L196.4641 335.3338L196.4641 335.3338L194.142 335.3338z" stroke="none" fill="#000000" fill-rule="winding" /><path transform="matrix(1 0 0 -1 0 841)" d="M196.4641 333.0118L198.786 333.0118L198.786 333.0118L198.786 335.3338L198.786 335.3338L196.4641 335.3338z" stroke="none" fill="#000000" fill-rule="winding" /><path transform="matrix(1 0 0 -1 0 841)" d="M201.1079 333.0118L203.43 333.0118L203.43 333.0118L203.43 335.3338L203.43 335.3338L201.1079 335.3338z" stroke="none" fill="#000000" fill-rule="winding" /><path transform="matrix(1 0 0 -1 0 841)" d="M140.7358 330.6897L143.0578 330.6897L143.0578 330.6897L143.0578 333.0118L143.0578 333.0118L140.7358 333.0118z" stroke="none" fill="#000000" fill-rule="winding" /><path transform="matrix(1 0 0 -1 0 841)" d="M143.0578 330.6897L145.3799 330.6897L145.3799 330.6897L145.3799 333.0118L145.3799 333.0118L143.0578 333.0118z" stroke="none" fill="#000000" fill-rule="winding" /><path transform="matrix(1 0 0 -1 0 841)" d="M156.9897 330.6897L159.3118 330.6897L159.3118 330.6897L159.3118 333.0118L159.3118 333.0118L156.9897 333.0118z" stroke="none" fill="#000000" fill-rule="winding" /><path transform="matrix(1 0 0 -1 0 841)" d="M163.9559 330.6897L166.2779 330.6897L166.2779 330.6897L166.2779 333.0118L166.2779 333.0118L163.9559 333.0118z" stroke="none" fill="#000000" fill-rule="winding" /><path transform="matrix(1 0 0 -1 0 841)" d="M166.2779 330.6897L168.5998 330.6897L168.5998 330.6897L168.5998 333.0118L168.5998 333.0118L166.2779 333.0118z" stroke="none" fill="#000000" fill-rule="winding" /><path transform="matrix(1 0 0 -1 0 841)" d="M177.8878 330.6897L180.2098 330.6897L180.2098 330.6897L180.2098 333.0118L180.2098 333.0118L177.8878 333.0118z" stroke="none" fill="#000000" fill-rule="winding" /><path transform="matrix(1 0 0 -1 0 841)" d="M180.2097 330.6897L182.5318 330.6897L182.5318 330.6897L182.5318 333.0118L182.5318 333.0118L180.2097 333.0118z" stroke="none" fill="#000000" fill-rule="winding" /><path transform="matrix(1 0 0 -1 0 841)" d="M182.5319 330.6897L184.8539 330.6897L184.8539 330.6897L184.8539 333.0118L184.8539 333.0118L182.5319 333.0118z" stroke="none" fill="#000000" fill-rule="winding" /><path transform="matrix(1 0 0 -1 0 841)" d="M189.4978 330.6897L191.8198 330.6897L191.8198 330.6897L191.8198 333.0118L191.8198 333.0118L189.4978 333.0118z" stroke="none" fill="#000000" fill-rule="winding" /><path transform="matrix(1 0 0 -1 0 841)" d="M194.142 330.6897L196.4641 330.6897L196.4641 330.6897L196.4641 333.0118L196.4641 333.0118L194.142 333.0118z" stroke="none" fill="#000000" fill-rule="winding" /><path transform="matrix(1 0 0 -1 0 841)" d="M201.1079 330.6897L203.43 330.6897L203.43 330.6897L203.43 333.0118L203.43 333.0118L201.1079 333.0118z" stroke="none" fill="#000000" fill-rule="winding" /><path transform="matrix(1 0 0 -1 0 841)" d="M136.0919 328.3679L138.4137 328.3679L138.4137 328.3679L138.4137 330.6898L138.4137 330.6898L136.0919 330.6898z" stroke="none" fill="#000000" fill-rule="winding" /><path transform="matrix(1 0 0 -1 0 841)" d="M138.4137 328.3679L140.7358 328.3679L140.7358 328.3679L140.7358 330.6898L140.7358 330.6898L138.4137 330.6898z" stroke="none" fill="#000000" fill-rule="winding" /><path transform="matrix(1 0 0 -1 0 841)" d="M143.0578 328.3679L145.3799 328.3679L145.3799 328.3679L145.3799 330.6898L145.3799 330.6898L143.0578 330.6898z" stroke="none" fill="#000000" fill-rule="winding" /><path transform="matrix(1 0 0 -1 0 841)" d="M150.0238 328.3679L152.3458 328.3679L152.3458 328.3679L152.3458 330.6898L152.3458 330.6898L150.0238 330.6898z" stroke="none" fill="#000000" fill-rule="winding" /><path transform="matrix(1 0 0 -1 0 841)" d="M152.3458 328.3679L154.6679 328.3679L154.6679 328.3679L154.6679 330.6898L154.6679 330.6898L152.3458 330.6898z" stroke="none" fill="#000000" fill-rule="winding" /><path transform="matrix(1 0 0 -1 0 841)" d="M156.9897 328.3679L159.3118 328.3679L159.3118 328.3679L159.3118 330.6898L159.3118 330.6898L156.9897 330.6898z" stroke="none" fill="#000000" fill-rule="winding" /><path transform="matrix(1 0 0 -1 0 841)" d="M166.2779 328.3679L168.5998 328.3679L168.5998 328.3679L168.5998 330.6898L168.5998 330.6898L166.2779 330.6898z" stroke="none" fill="#000000" fill-rule="winding" /><path transform="matrix(1 0 0 -1 0 841)" d="M168.5998 328.3679L170.9218 328.3679L170.9218 328.3679L170.9218 330.6898L170.9218 330.6898L168.5998 330.6898z" stroke="none" fill="#000000" fill-rule="winding" /><path transform="matrix(1 0 0 -1 0 841)" d="M177.8878 328.3679L180.2098 328.3679L180.2098 328.3679L180.2098 330.6898L180.2098 330.6898L177.8878 330.6898z" stroke="none" fill="#000000" fill-rule="winding" /><path transform="matrix(1 0 0 -1 0 841)" d="M180.2097 328.3679L182.5318 328.3679L182.5318 328.3679L182.5318 330.6898L182.5318 330.6898L180.2097 330.6898z" stroke="none" fill="#000000" fill-rule="winding" /><path transform="matrix(1 0 0 -1 0 841)" d="M182.5319 328.3679L184.8539 328.3679L184.8539 328.3679L184.8539 330.6898L184.8539 330.6898L182.5319 330.6898z" stroke="none" fill="#000000" fill-rule="winding" /><path transform="matrix(1 0 0 -1 0 841)" d="M184.854 328.3679L187.1758 328.3679L187.1758 328.3679L187.1758 330.6898L187.1758 330.6898L184.854 330.6898z" stroke="none" fill="#000000" fill-rule="winding" /><path transform="matrix(1 0 0 -1 0 841)" d="M187.1757 328.3679L189.4977 328.3679L189.4977 328.3679L189.4977 330.6898L189.4977 330.6898L187.1757 330.6898z" stroke="none" fill="#000000" fill-rule="winding" /><path transform="matrix(1 0 0 -1 0 841)" d="M189.4978 328.3679L191.8198 328.3679L191.8198 328.3679L191.8198 330.6898L191.8198 330.6898L189.4978 330.6898z" stroke="none" fill="#000000" fill-rule="winding" /><path transform="matrix(1 0 0 -1 0 841)" d="M191.8199 328.3679L194.1419 328.3679L194.1419 328.3679L194.1419 330.6898L194.1419 330.6898L191.8199 330.6898z" stroke="none" fill="#000000" fill-rule="winding" /><path transform="matrix(1 0 0 -1 0 841)" d="M194.142 328.3679L196.4641 328.3679L196.4641 328.3679L196.4641 330.6898L196.4641 330.6898L194.142 330.6898z" stroke="none" fill="#000000" fill-rule="winding" /><path transform="matrix(1 0 0 -1 0 841)" d="M196.4641 328.3679L198.786 328.3679L198.786 328.3679L198.786 330.6898L198.786 330.6898L196.4641 330.6898z" stroke="none" fill="#000000" fill-rule="winding" /><path transform="matrix(1 0 0 -1 0 841)" d="M198.7858 328.3679L201.1078 328.3679L201.1078 328.3679L201.1078 330.6898L201.1078 330.6898L198.7858 330.6898z" stroke="none" fill="#000000" fill-rule="winding" /><path transform="matrix(1 0 0 -1 0 841)" d="M154.6679 326.0459L156.9897 326.0459L156.9897 326.0459L156.9897 328.3679L156.9897 328.3679L154.6679 328.3679z" stroke="none" fill="#000000" fill-rule="winding" /><path transform="matrix(1 0 0 -1 0 841)" d="M156.9897 326.0459L159.3118 326.0459L159.3118 326.0459L159.3118 328.3679L159.3118 328.3679L156.9897 328.3679z" stroke="none" fill="#000000" fill-rule="winding" /><path transform="matrix(1 0 0 -1 0 841)" d="M159.3118 326.0459L161.6338 326.0459L161.6338 326.0459L161.6338 328.3679L161.6338 328.3679L159.3118 328.3679z" stroke="none" fill="#000000" fill-rule="winding" /><path transform="matrix(1 0 0 -1 0 841)" d="M170.9218 326.0459L173.2439 326.0459L173.2439 326.0459L173.2439 328.3679L173.2439 328.3679L170.9218 328.3679z" stroke="none" fill="#000000" fill-rule="winding" /><path transform="matrix(1 0 0 -1 0 841)" d="M182.5319 326.0459L184.8539 326.0459L184.8539 326.0459L184.8539 328.3679L184.8539 328.3679L182.5319 328.3679z" stroke="none" fill="#000000" fill-rule="winding" /><path transform="matrix(1 0 0 -1 0 841)" d="M191.8199 326.0459L194.1419 326.0459L194.1419 326.0459L194.1419 328.3679L194.1419 328.3679L191.8199 328.3679z" stroke="none" fill="#000000" fill-rule="winding" /><path transform="matrix(1 0 0 -1 0 841)" d="M196.4641 326.0459L198.786 326.0459L198.786 326.0459L198.786 328.3679L198.786 328.3679L196.4641 328.3679z" stroke="none" fill="#000000" fill-rule="winding" /><path transform="matrix(1 0 0 -1 0 841)" d="M201.1079 326.0459L203.43 326.0459L203.43 326.0459L203.43 328.3679L203.43 328.3679L201.1079 328.3679z" stroke="none" fill="#000000" fill-rule="winding" /><path transform="matrix(1 0 0 -1 0 841)" d="M136.0919 323.7238L138.4137 323.7238L138.4137 323.7238L138.4137 326.0458L138.4137 326.0458L136.0919 326.0458z" stroke="none" fill="#000000" fill-rule="winding" /><path transform="matrix(1 0 0 -1 0 841)" d="M138.4137 323.7238L140.7358 323.7238L140.7358 323.7238L140.7358 326.0458L140.7358 326.0458L138.4137 326.0458z" stroke="none" fill="#000000" fill-rule="winding" /><path transform="matrix(1 0 0 -1 0 841)" d="M140.7358 323.7238L143.0578 323.7238L143.0578 323.7238L143.0578 326.0458L143.0578 326.0458L140.7358 326.0458z" stroke="none" fill="#000000" fill-rule="winding" /><path transform="matrix(1 0 0 -1 0 841)" d="M143.0578 323.7238L145.3799 323.7238L145.3799 323.7238L145.3799 326.0458L145.3799 326.0458L143.0578 326.0458z" stroke="none" fill="#000000" fill-rule="winding" /><path transform="matrix(1 0 0 -1 0 841)" d="M145.3799 323.7238L147.7018 323.7238L147.7018 323.7238L147.7018 326.0458L147.7018 326.0458L145.3799 326.0458z" stroke="none" fill="#000000" fill-rule="winding" /><path transform="matrix(1 0 0 -1 0 841)" d="M147.7017 323.7238L150.0238 323.7238L150.0238 323.7238L150.0238 326.0458L150.0238 326.0458L147.7017 326.0458z" stroke="none" fill="#000000" fill-rule="winding" /><path transform="matrix(1 0 0 -1 0 841)" d="M150.0238 323.7238L152.3458 323.7238L152.3458 323.7238L152.3458 326.0458L152.3458 326.0458L150.0238 326.0458z" stroke="none" fill="#000000" fill-rule="winding" /><path transform="matrix(1 0 0 -1 0 841)" d="M154.6679 323.7238L156.9897 323.7238L156.9897 323.7238L156.9897 326.0458L156.9897 326.0458L154.6679 326.0458z" stroke="none" fill="#000000" fill-rule="winding" /><path transform="matrix(1 0 0 -1 0 841)" d="M156.9897 323.7238L159.3118 323.7238L159.3118 323.7238L159.3118 326.0458L159.3118 326.0458L156.9897 326.0458z" stroke="none" fill="#000000" fill-rule="winding" /><path transform="matrix(1 0 0 -1 0 841)" d="M163.9559 323.7238L166.2779 323.7238L166.2779 323.7238L166.2779 326.0458L166.2779 326.0458L163.9559 326.0458z" stroke="none" fill="#000000" fill-rule="winding" /><path transform="matrix(1 0 0 -1 0 841)" d="M166.2779 323.7238L168.5998 323.7238L168.5998 323.7238L168.5998 326.0458L168.5998 326.0458L166.2779 326.0458z" stroke="none" fill="#000000" fill-rule="winding" /><path transform="matrix(1 0 0 -1 0 841)" d="M170.9218 323.7238L173.2439 323.7238L173.2439 323.7238L173.2439 326.0458L173.2439 326.0458L170.9218 326.0458z" stroke="none" fill="#000000" fill-rule="winding" /><path transform="matrix(1 0 0 -1 0 841)" d="M175.5659 323.7238L177.8878 323.7238L177.8878 323.7238L177.8878 326.0458L177.8878 326.0458L175.5659 326.0458z" stroke="none" fill="#000000" fill-rule="winding" /><path transform="matrix(1 0 0 -1 0 841)" d="M180.2097 323.7238L182.5318 323.7238L182.5318 323.7238L182.5318 326.0458L182.5318 326.0458L180.2097 326.0458z" stroke="none" fill="#000000" fill-rule="winding" /><path transform="matrix(1 0 0 -1 0 841)" d="M182.5319 323.7238L184.8539 323.7238L184.8539 323.7238L184.8539 326.0458L184.8539 326.0458L182.5319 326.0458z" stroke="none" fill="#000000" fill-rule="winding" /><path transform="matrix(1 0 0 -1 0 841)" d="M187.1757 323.7238L189.4977 323.7238L189.4977 323.7238L189.4977 326.0458L189.4977 326.0458L187.1757 326.0458z" stroke="none" fill="#000000" fill-rule="winding" /><path transform="matrix(1 0 0 -1 0 841)" d="M191.8199 323.7238L194.1419 323.7238L194.1419 323.7238L194.1419 326.0458L194.1419 326.0458L191.8199 326.0458z" stroke="none" fill="#000000" fill-rule="winding" /><path transform="matrix(1 0 0 -1 0 841)" d="M201.1079 323.7238L203.43 323.7238L203.43 323.7238L203.43 326.0458L203.43 326.0458L201.1079 326.0458z" stroke="none" fill="#000000" fill-rule="winding" /><path transform="matrix(1 0 0 -1 0 841)" d="M136.0919 321.4017L138.4137 321.4017L138.4137 321.4017L138.4137 323.7238L138.4137 323.7238L136.0919 323.7238z" stroke="none" fill="#000000" fill-rule="winding" /><path transform="matrix(1 0 0 -1 0 841)" d="M150.0238 321.4017L152.3458 321.4017L152.3458 321.4017L152.3458 323.7238L152.3458 323.7238L150.0238 323.7238z" stroke="none" fill="#000000" fill-rule="winding" /><path transform="matrix(1 0 0 -1 0 841)" d="M154.6679 321.4017L156.9897 321.4017L156.9897 321.4017L156.9897 323.7238L156.9897 323.7238L154.6679 323.7238z" stroke="none" fill="#000000" fill-rule="winding" /><path transform="matrix(1 0 0 -1 0 841)" d="M156.9897 321.4017L159.3118 321.4017L159.3118 321.4017L159.3118 323.7238L159.3118 323.7238L156.9897 323.7238z" stroke="none" fill="#000000" fill-rule="winding" /><path transform="matrix(1 0 0 -1 0 841)" d="M175.5659 321.4017L177.8878 321.4017L177.8878 321.4017L177.8878 323.7238L177.8878 323.7238L175.5659 323.7238z" stroke="none" fill="#000000" fill-rule="winding" /><path transform="matrix(1 0 0 -1 0 841)" d="M180.2097 321.4017L182.5318 321.4017L182.5318 321.4017L182.5318 323.7238L182.5318 323.7238L180.2097 323.7238z" stroke="none" fill="#000000" fill-rule="winding" /><path transform="matrix(1 0 0 -1 0 841)" d="M182.5319 321.4017L184.8539 321.4017L184.8539 321.4017L184.8539 323.7238L184.8539 323.7238L182.5319 323.7238z" stroke="none" fill="#000000" fill-rule="winding" /><path transform="matrix(1 0 0 -1 0 841)" d="M191.8199 321.4017L194.1419 321.4017L194.1419 321.4017L194.1419 323.7238L194.1419 323.7238L191.8199 323.7238z" stroke="none" fill="#000000" fill-rule="winding" /><path transform="matrix(1 0 0 -1 0 841)" d="M194.142 321.4017L196.4641 321.4017L196.4641 321.4017L196.4641 323.7238L196.4641 323.7238L194.142 323.7238z" stroke="none" fill="#000000" fill-rule="winding" /><path transform="matrix(1 0 0 -1 0 841)" d="M198.7858 321.4017L201.1078 321.4017L201.1078 321.4017L201.1078 323.7238L201.1078 323.7238L198.7858 323.7238z" stroke="none" fill="#000000" fill-rule="winding" /><path transform="matrix(1 0 0 -1 0 841)" d="M136.0919 319.0799L138.4137 319.0799L138.4137 319.0799L138.4137 321.4018L138.4137 321.4018L136.0919 321.4018z" stroke="none" fill="#000000" fill-rule="winding" /><path transform="matrix(1 0 0 -1 0 841)" d="M140.7358 319.0799L143.0578 319.0799L143.0578 319.0799L143.0578 321.4018L143.0578 321.4018L140.7358 321.4018z" stroke="none" fill="#000000" fill-rule="winding" /><path transform="matrix(1 0 0 -1 0 841)" d="M143.0578 319.0799L145.3799 319.0799L145.3799 319.0799L145.3799 321.4018L145.3799 321.4018L143.0578 321.4018z" stroke="none" fill="#000000" fill-rule="winding" /><path transform="matrix(1 0 0 -1 0 841)" d="M145.3799 319.0799L147.7018 319.0799L147.7018 319.0799L147.7018 321.4018L147.7018 321.4018L145.3799 321.4018z" stroke="none" fill="#000000" fill-rule="winding" /><path transform="matrix(1 0 0 -1 0 841)" d="M150.0238 319.0799L152.3458 319.0799L152.3458 319.0799L152.3458 321.4018L152.3458 321.4018L150.0238 321.4018z" stroke="none" fill="#000000" fill-rule="winding" /><path transform="matrix(1 0 0 -1 0 841)" d="M154.6679 319.0799L156.9897 319.0799L156.9897 319.0799L156.9897 321.4018L156.9897 321.4018L154.6679 321.4018z" stroke="none" fill="#000000" fill-rule="winding" /><path transform="matrix(1 0 0 -1 0 841)" d="M159.3118 319.0799L161.6338 319.0799L161.6338 319.0799L161.6338 321.4018L161.6338 321.4018L159.3118 321.4018z" stroke="none" fill="#000000" fill-rule="winding" /><path transform="matrix(1 0 0 -1 0 841)" d="M161.6338 319.0799L163.9559 319.0799L163.9559 319.0799L163.9559 321.4018L163.9559 321.4018L161.6338 321.4018z" stroke="none" fill="#000000" fill-rule="winding" /><path transform="matrix(1 0 0 -1 0 841)" d="M166.2779 319.0799L168.5998 319.0799L168.5998 319.0799L168.5998 321.4018L168.5998 321.4018L166.2779 321.4018z" stroke="none" fill="#000000" fill-rule="winding" /><path transform="matrix(1 0 0 -1 0 841)" d="M168.5998 319.0799L170.9218 319.0799L170.9218 319.0799L170.9218 321.4018L170.9218 321.4018L168.5998 321.4018z" stroke="none" fill="#000000" fill-rule="winding" /><path transform="matrix(1 0 0 -1 0 841)" d="M180.2097 319.0799L182.5318 319.0799L182.5318 319.0799L182.5318 321.4018L182.5318 321.4018L180.2097 321.4018z" stroke="none" fill="#000000" fill-rule="winding" /><path transform="matrix(1 0 0 -1 0 841)" d="M182.5319 319.0799L184.8539 319.0799L184.8539 319.0799L184.8539 321.4018L184.8539 321.4018L182.5319 321.4018z" stroke="none" fill="#000000" fill-rule="winding" /><path transform="matrix(1 0 0 -1 0 841)" d="M184.854 319.0799L187.1758 319.0799L187.1758 319.0799L187.1758 321.4018L187.1758 321.4018L184.854 321.4018z" stroke="none" fill="#000000" fill-rule="winding" /><path transform="matrix(1 0 0 -1 0 841)" d="M187.1757 319.0799L189.4977 319.0799L189.4977 319.0799L189.4977 321.4018L189.4977 321.4018L187.1757 321.4018z" stroke="none" fill="#000000" fill-rule="winding" /><path transform="matrix(1 0 0 -1 0 841)" d="M189.4978 319.0799L191.8198 319.0799L191.8198 319.0799L191.8198 321.4018L191.8198 321.4018L189.4978 321.4018z" stroke="none" fill="#000000" fill-rule="winding" /><path transform="matrix(1 0 0 -1 0 841)" d="M191.8199 319.0799L194.1419 319.0799L194.1419 319.0799L194.1419 321.4018L194.1419 321.4018L191.8199 321.4018z" stroke="none" fill="#000000" fill-rule="winding" /><path transform="matrix(1 0 0 -1 0 841)" d="M198.7858 319.0799L201.1078 319.0799L201.1078 319.0799L201.1078 321.4018L201.1078 321.4018L198.7858 321.4018z" stroke="none" fill="#000000" fill-rule="winding" /><path transform="matrix(1 0 0 -1 0 841)" d="M201.1079 319.0799L203.43 319.0799L203.43 319.0799L203.43 321.4018L203.43 321.4018L201.1079 321.4018z" stroke="none" fill="#000000" fill-rule="winding" /><path transform="matrix(1 0 0 -1 0 841)" d="M136.0919 316.7578L138.4137 316.7578L138.4137 316.7578L138.4137 319.0799L138.4137 319.0799L136.0919 319.0799z" stroke="none" fill="#000000" fill-rule="winding" /><path transform="matrix(1 0 0 -1 0 841)" d="M140.7358 316.7578L143.0578 316.7578L143.0578 316.7578L143.0578 319.0799L143.0578 319.0799L140.7358 319.0799z" stroke="none" fill="#000000" fill-rule="winding" /><path transform="matrix(1 0 0 -1 0 841)" d="M143.0578 316.7578L145.3799 316.7578L145.3799 316.7578L145.3799 319.0799L145.3799 319.0799L143.0578 319.0799z" stroke="none" fill="#000000" fill-rule="winding" /><path transform="matrix(1 0 0 -1 0 841)" d="M145.3799 316.7578L147.7018 316.7578L147.7018 316.7578L147.7018 319.0799L147.7018 319.0799L145.3799 319.0799z" stroke="none" fill="#000000" fill-rule="winding" /><path transform="matrix(1 0 0 -1 0 841)" d="M150.0238 316.7578L152.3458 316.7578L152.3458 316.7578L152.3458 319.0799L152.3458 319.0799L150.0238 319.0799z" stroke="none" fill="#000000" fill-rule="winding" /><path transform="matrix(1 0 0 -1 0 841)" d="M161.6338 316.7578L163.9559 316.7578L163.9559 316.7578L163.9559 319.0799L163.9559 319.0799L161.6338 319.0799z" stroke="none" fill="#000000" fill-rule="winding" /><path transform="matrix(1 0 0 -1 0 841)" d="M163.9559 316.7578L166.2779 316.7578L166.2779 316.7578L166.2779 319.0799L166.2779 319.0799L163.9559 319.0799z" stroke="none" fill="#000000" fill-rule="winding" /><path transform="matrix(1 0 0 -1 0 841)" d="M166.2779 316.7578L168.5998 316.7578L168.5998 316.7578L168.5998 319.0799L168.5998 319.0799L166.2779 319.0799z" stroke="none" fill="#000000" fill-rule="winding" /><path transform="matrix(1 0 0 -1 0 841)" d="M168.5998 316.7578L170.9218 316.7578L170.9218 316.7578L170.9218 319.0799L170.9218 319.0799L168.5998 319.0799z" stroke="none" fill="#000000" fill-rule="winding" /><path transform="matrix(1 0 0 -1 0 841)" d="M177.8878 316.7578L180.2098 316.7578L180.2098 316.7578L180.2098 319.0799L180.2098 319.0799L177.8878 319.0799z" stroke="none" fill="#000000" fill-rule="winding" /><path transform="matrix(1 0 0 -1 0 841)" d="M182.5319 316.7578L184.8539 316.7578L184.8539 316.7578L184.8539 319.0799L184.8539 319.0799L182.5319 319.0799z" stroke="none" fill="#000000" fill-rule="winding" /><path transform="matrix(1 0 0 -1 0 841)" d="M184.854 316.7578L187.1758 316.7578L187.1758 316.7578L187.1758 319.0799L187.1758 319.0799L184.854 319.0799z" stroke="none" fill="#000000" fill-rule="winding" /><path transform="matrix(1 0 0 -1 0 841)" d="M189.4978 316.7578L191.8198 316.7578L191.8198 316.7578L191.8198 319.0799L191.8198 319.0799L189.4978 319.0799z" stroke="none" fill="#000000" fill-rule="winding" /><path transform="matrix(1 0 0 -1 0 841)" d="M194.142 316.7578L196.4641 316.7578L196.4641 316.7578L196.4641 319.0799L196.4641 319.0799L194.142 319.0799z" stroke="none" fill="#000000" fill-rule="winding" /><path transform="matrix(1 0 0 -1 0 841)" d="M196.4641 316.7578L198.786 316.7578L198.786 316.7578L198.786 319.0799L198.786 319.0799L196.4641 319.0799z" stroke="none" fill="#000000" fill-rule="winding" /><path transform="matrix(1 0 0 -1 0 841)" d="M198.7858 316.7578L201.1078 316.7578L201.1078 316.7578L201.1078 319.0799L201.1078 319.0799L198.7858 319.0799z" stroke="none" fill="#000000" fill-rule="winding" /><path transform="matrix(1 0 0 -1 0 841)" d="M136.0919 314.4358L138.4137 314.4358L138.4137 314.4358L138.4137 316.7578L138.4137 316.7578L136.0919 316.7578z" stroke="none" fill="#000000" fill-rule="winding" /><path transform="matrix(1 0 0 -1 0 841)" d="M140.7358 314.4358L143.0578 314.4358L143.0578 314.4358L143.0578 316.7578L143.0578 316.7578L140.7358 316.7578z" stroke="none" fill="#000000" fill-rule="winding" /><path transform="matrix(1 0 0 -1 0 841)" d="M143.0578 314.4358L145.3799 314.4358L145.3799 314.4358L145.3799 316.7578L145.3799 316.7578L143.0578 316.7578z" stroke="none" fill="#000000" fill-rule="winding" /><path transform="matrix(1 0 0 -1 0 841)" d="M145.3799 314.4358L147.7018 314.4358L147.7018 314.4358L147.7018 316.7578L147.7018 316.7578L145.3799 316.7578z" stroke="none" fill="#000000" fill-rule="winding" /><path transform="matrix(1 0 0 -1 0 841)" d="M150.0238 314.4358L152.3458 314.4358L152.3458 314.4358L152.3458 316.7578L152.3458 316.7578L150.0238 316.7578z" stroke="none" fill="#000000" fill-rule="winding" /><path transform="matrix(1 0 0 -1 0 841)" d="M166.2779 314.4358L168.5998 314.4358L168.5998 314.4358L168.5998 316.7578L168.5998 316.7578L166.2779 316.7578z" stroke="none" fill="#000000" fill-rule="winding" /><path transform="matrix(1 0 0 -1 0 841)" d="M177.8878 314.4358L180.2098 314.4358L180.2098 314.4358L180.2098 316.7578L180.2098 316.7578L177.8878 316.7578z" stroke="none" fill="#000000" fill-rule="winding" /><path transform="matrix(1 0 0 -1 0 841)" d="M189.4978 314.4358L191.8198 314.4358L191.8198 314.4358L191.8198 316.7578L191.8198 316.7578L189.4978 316.7578z" stroke="none" fill="#000000" fill-rule="winding" /><path transform="matrix(1 0 0 -1 0 841)" d="M194.142 314.4358L196.4641 314.4358L196.4641 314.4358L196.4641 316.7578L196.4641 316.7578L194.142 316.7578z" stroke="none" fill="#000000" fill-rule="winding" /><path transform="matrix(1 0 0 -1 0 841)" d="M198.7858 314.4358L201.1078 314.4358L201.1078 314.4358L201.1078 316.7578L201.1078 316.7578L198.7858 316.7578z" stroke="none" fill="#000000" fill-rule="winding" /><path transform="matrix(1 0 0 -1 0 841)" d="M201.1079 314.4358L203.43 314.4358L203.43 314.4358L203.43 316.7578L203.43 316.7578L201.1079 316.7578z" stroke="none" fill="#000000" fill-rule="winding" /><path transform="matrix(1 0 0 -1 0 841)" d="M136.0919 312.1137L138.4137 312.1137L138.4137 312.1137L138.4137 314.4358L138.4137 314.4358L136.0919 314.4358z" stroke="none" fill="#000000" fill-rule="winding" /><path transform="matrix(1 0 0 -1 0 841)" d="M150.0238 312.1137L152.3458 312.1137L152.3458 312.1137L152.3458 314.4358L152.3458 314.4358L150.0238 314.4358z" stroke="none" fill="#000000" fill-rule="winding" /><path transform="matrix(1 0 0 -1 0 841)" d="M166.2779 312.1137L168.5998 312.1137L168.5998 312.1137L168.5998 314.4358L168.5998 314.4358L166.2779 314.4358z" stroke="none" fill="#000000" fill-rule="winding" /><path transform="matrix(1 0 0 -1 0 841)" d="M168.5998 312.1137L170.9218 312.1137L170.9218 312.1137L170.9218 314.4358L170.9218 314.4358L168.5998 314.4358z" stroke="none" fill="#000000" fill-rule="winding" /><path transform="matrix(1 0 0 -1 0 841)" d="M170.9218 312.1137L173.2439 312.1137L173.2439 312.1137L173.2439 314.4358L173.2439 314.4358L170.9218 314.4358z" stroke="none" fill="#000000" fill-rule="winding" /><path transform="matrix(1 0 0 -1 0 841)" d="M175.5659 312.1137L177.8878 312.1137L177.8878 312.1137L177.8878 314.4358L177.8878 314.4358L175.5659 314.4358z" stroke="none" fill="#000000" fill-rule="winding" /><path transform="matrix(1 0 0 -1 0 841)" d="M180.2097 312.1137L182.5318 312.1137L182.5318 312.1137L182.5318 314.4358L182.5318 314.4358L180.2097 314.4358z" stroke="none" fill="#000000" fill-rule="winding" /><path transform="matrix(1 0 0 -1 0 841)" d="M182.5319 312.1137L184.8539 312.1137L184.8539 312.1137L184.8539 314.4358L184.8539 314.4358L182.5319 314.4358z" stroke="none" fill="#000000" fill-rule="winding" /><path transform="matrix(1 0 0 -1 0 841)" d="M189.4978 312.1137L191.8198 312.1137L191.8198 312.1137L191.8198 314.4358L191.8198 314.4358L189.4978 314.4358z" stroke="none" fill="#000000" fill-rule="winding" /><path transform="matrix(1 0 0 -1 0 841)" d="M194.142 312.1137L196.4641 312.1137L196.4641 312.1137L196.4641 314.4358L196.4641 314.4358L194.142 314.4358z" stroke="none" fill="#000000" fill-rule="winding" /><path transform="matrix(1 0 0 -1 0 841)" d="M198.7858 312.1137L201.1078 312.1137L201.1078 312.1137L201.1078 314.4358L201.1078 314.4358L198.7858 314.4358z" stroke="none" fill="#000000" fill-rule="winding" /><path transform="matrix(1 0 0 -1 0 841)" d="M201.1079 312.1137L203.43 312.1137L203.43 312.1137L203.43 314.4358L203.43 314.4358L201.1079 314.4358z" stroke="none" fill="#000000" fill-rule="winding" /><path transform="matrix(1 0 0 -1 0 841)" d="M136.0919 309.7919L138.4137 309.7919L138.4137 309.7919L138.4137 312.1137L138.4137 312.1137L136.0919 312.1137z" stroke="none" fill="#000000" fill-rule="winding" /><path transform="matrix(1 0 0 -1 0 841)" d="M138.4137 309.7919L140.7358 309.7919L140.7358 309.7919L140.7358 312.1137L140.7358 312.1137L138.4137 312.1137z" stroke="none" fill="#000000" fill-rule="winding" /><path transform="matrix(1 0 0 -1 0 841)" d="M140.7358 309.7919L143.0578 309.7919L143.0578 309.7919L143.0578 312.1137L143.0578 312.1137L140.7358 312.1137z" stroke="none" fill="#000000" fill-rule="winding" /><path transform="matrix(1 0 0 -1 0 841)" d="M143.0578 309.7919L145.3799 309.7919L145.3799 309.7919L145.3799 312.1137L145.3799 312.1137L143.0578 312.1137z" stroke="none" fill="#000000" fill-rule="winding" /><path transform="matrix(1 0 0 -1 0 841)" d="M145.3799 309.7919L147.7018 309.7919L147.7018 309.7919L147.7018 312.1137L147.7018 312.1137L145.3799 312.1137z" stroke="none" fill="#000000" fill-rule="winding" /><path transform="matrix(1 0 0 -1 0 841)" d="M147.7017 309.7919L150.0238 309.7919L150.0238 309.7919L150.0238 312.1137L150.0238 312.1137L147.7017 312.1137z" stroke="none" fill="#000000" fill-rule="winding" /><path transform="matrix(1 0 0 -1 0 841)" d="M150.0238 309.7919L152.3458 309.7919L152.3458 309.7919L152.3458 312.1137L152.3458 312.1137L150.0238 312.1137z" stroke="none" fill="#000000" fill-rule="winding" /><path transform="matrix(1 0 0 -1 0 841)" d="M159.3118 309.7919L161.6338 309.7919L161.6338 309.7919L161.6338 312.1137L161.6338 312.1137L159.3118 312.1137z" stroke="none" fill="#000000" fill-rule="winding" /><path transform="matrix(1 0 0 -1 0 841)" d="M166.2779 309.7919L168.5998 309.7919L168.5998 309.7919L168.5998 312.1137L168.5998 312.1137L166.2779 312.1137z" stroke="none" fill="#000000" fill-rule="winding" /><path transform="matrix(1 0 0 -1 0 841)" d="M182.5319 309.7919L184.8539 309.7919L184.8539 309.7919L184.8539 312.1137L184.8539 312.1137L182.5319 312.1137z" stroke="none" fill="#000000" fill-rule="winding" /><path transform="matrix(1 0 0 -1 0 841)" d="M191.8199 309.7919L194.1419 309.7919L194.1419 309.7919L194.1419 312.1137L194.1419 312.1137L191.8199 312.1137z" stroke="none" fill="#000000" fill-rule="winding" /><path transform="matrix(1 0 0 -1 0 841)" d="M198.7858 309.7919L201.1078 309.7919L201.1078 309.7919L201.1078 312.1137L201.1078 312.1137L198.7858 312.1137z" stroke="none" fill="#000000" fill-rule="winding" /></g><path transform="matrix(1 0 0 -1 0 841)" d="M124.8 174.03L486.44 174.03L486.44 174.03L486.44 289.94L486.44 289.94L124.8 289.94z" stroke="none" fill="#EBEBEB" fill-rule="winding" /></g></g></g></svg>