<svg xmlns="http://www.w3.org/2000/svg" xmlns:xlink="http://www.w3.org/1999/xlink" id="body_7" preserveAspectRatio="xMinYMin meet" viewBox="0 0 793 1121"><defs><clipPath id="1"><path d="M0 841L0 -0.8900146L0 -0.8900146L595.28 -0.8900146L595.28 -0.8900146L595.28 841L595.28 841L0 841z" /></clipPath><clipPath id="2"><path d="M82.5 595.28L2033.327 595.28L2033.327 595.28L2033.327 -2162.391L2033.327 -2162.391L82.5 -2162.391z" /></clipPath><clipPath id="3"><path d="M153.5941 123.9373L497.6742 123.9373L497.6742 123.9373L497.6742 377.2844L497.6742 377.2844L153.5941 377.2844z" /></clipPath><clipPath id="4"><path d="M133.77 450.6L595.074 450.6L595.074 450.6L595.074 -201.495L595.074 -201.495L133.77 -201.495z" /></clipPath></defs><g transform="matrix(1.333333 0 0 1.333333 0 0)"><g><g clip-path="url(#1)"><g clip-path="url(#2)"><g clip-path="url(#3)"><g transform="matrix(0.3927852 0 0 0.3927856 153.5941 123.9382)"><g transform="matrix(1 0 0 1 0 0)"><image x="0" y="0" xlink:href="img_07.png" width="876" height="190" /></g></g><g transform="matrix(0.3927852 0 0 0.3927856 153.5941 198.5665)"><g transform="matrix(1 0 0 1 0 0)"><image x="0" y="0" xlink:href="img_08.png" width="876" height="190" /></g></g><g transform="matrix(0.3927852 0 0 0.3927856 153.5941 273.1967)"><g transform="matrix(1 0 0 1 0 0)"><image x="0" y="0" xlink:href="img_09.png" width="876" height="190" /></g></g><g transform="matrix(0.3927852 0 0 0.3927844 153.5941 347.8256)"><g transform="matrix(1 0 0 1 0 0)"><image x="0" y="0" xlink:href="img_10.png" width="876" height="75" /></g></g></g></g><g clip-path="url(#4)"><path transform="matrix(1 0 0 -1 0 841)" d="M133.77 390.4L205.7522 390.4L205.7522 390.4L205.7522 462.3822L205.7522 462.3822L133.77 462.3822z" stroke="none" fill="#FFFFFF" fill-rule="winding" /><path transform="matrix(1 0 0 -1 0 841)" d="M136.0919 457.738L138.4137 457.738L138.4137 457.738L138.4137 460.06L138.4137 460.06L136.0919 460.06z" stroke="none" fill="#000000" fill-rule="winding" /><path transform="matrix(1 0 0 -1 0 841)" d="M138.4137 457.738L140.7358 457.738L140.7358 457.738L140.7358 460.06L140.7358 460.06L138.4137 460.06z" stroke="none" fill="#000000" fill-rule="winding" /><path transform="matrix(1 0 0 -1 0 841)" d="M140.7358 457.738L143.0578 457.738L143.0578 457.738L143.0578 460.06L143.0578 460.06L140.7358 460.06z" stroke="none" fill="#000000" fill-rule="winding" /><path transform="matrix(1 0 0 -1 0 841)" d="M143.0578 457.738L145.3799 457.738L145.3799 457.738L145.3799 460.06L145.3799 460.06L143.0578 460.06z" stroke="none" fill="#000000" fill-rule="winding" /><path transform="matrix(1 0 0 -1 0 841)" d="M145.3799 457.738L147.7018 457.738L147.7018 457.738L147.7018 460.06L147.7018 460.06L145.3799 460.06z" stroke="none" fill="#000000" fill-rule="winding" /><path transform="matrix(1 0 0 -1 0 841)" d="M147.7017 457.738L150.0238 457.738L150.0238 457.738L150.0238 460.06L150.0238 460.06L147.7017 460.06z" stroke="none" fill="#000000" fill-rule="winding" /><path transform="matrix(1 0 0 -1 0 841)" d="M150.0238 457.738L152.3458 457.738L152.3458 457.738L152.3458 460.06L152.3458 460.06L150.0238 460.06z" stroke="none" fill="#000000" fill-rule="winding" /><path transform="matrix(1 0 0 -1 0 841)" d="M154.6679 457.738L156.9897 457.738L156.9897 457.738L156.9897 460.06L156.9897 460.06L154.6679 460.06z" stroke="none" fill="#000000" fill-rule="winding" /><path transform="matrix(1 0 0 -1 0 841)" d="M161.6338 457.738L163.9559 457.738L163.9559 457.738L163.9559 460.06L163.9559 460.06L161.6338 460.06z" stroke="none" fill="#000000" fill-rule="winding" /><path transform="matrix(1 0 0 -1 0 841)" d="M166.2779 457.738L168.5998 457.738L168.5998 457.738L168.5998 460.06L168.5998 460.06L166.2779 460.06z" stroke="none" fill="#000000" fill-rule="winding" /><path transform="matrix(1 0 0 -1 0 841)" d="M168.5998 457.738L170.9218 457.738L170.9218 457.738L170.9218 460.06L170.9218 460.06L168.5998 460.06z" stroke="none" fill="#000000" fill-rule="winding" /><path transform="matrix(1 0 0 -1 0 841)" d="M170.9218 457.738L173.2439 457.738L173.2439 457.738L173.2439 460.06L173.2439 460.06L170.9218 460.06z" stroke="none" fill="#000000" fill-rule="winding" /><path transform="matrix(1 0 0 -1 0 841)" d="M173.2439 457.738L175.5659 457.738L175.5659 457.738L175.5659 460.06L175.5659 460.06L173.2439 460.06z" stroke="none" fill="#000000" fill-rule="winding" /><path transform="matrix(1 0 0 -1 0 841)" d="M187.1757 457.738L189.4977 457.738L189.4977 457.738L189.4977 460.06L189.4977 460.06L187.1757 460.06z" stroke="none" fill="#000000" fill-rule="winding" /><path transform="matrix(1 0 0 -1 0 841)" d="M189.4978 457.738L191.8198 457.738L191.8198 457.738L191.8198 460.06L191.8198 460.06L189.4978 460.06z" stroke="none" fill="#000000" fill-rule="winding" /><path transform="matrix(1 0 0 -1 0 841)" d="M191.8199 457.738L194.1419 457.738L194.1419 457.738L194.1419 460.06L194.1419 460.06L191.8199 460.06z" stroke="none" fill="#000000" fill-rule="winding" /><path transform="matrix(1 0 0 -1 0 841)" d="M194.142 457.738L196.4641 457.738L196.4641 457.738L196.4641 460.06L196.4641 460.06L194.142 460.06z" stroke="none" fill="#000000" fill-rule="winding" /><path transform="matrix(1 0 0 -1 0 841)" d="M196.4641 457.738L198.786 457.738L198.786 457.738L198.786 460.06L198.786 460.06L196.4641 460.06z" stroke="none" fill="#000000" fill-rule="winding" /><path transform="matrix(1 0 0 -1 0 841)" d="M198.7858 457.738L201.1078 457.738L201.1078 457.738L201.1078 460.06L201.1078 460.06L198.7858 460.06z" stroke="none" fill="#000000" fill-rule="winding" /><path transform="matrix(1 0 0 -1 0 841)" d="M201.1079 457.738L203.43 457.738L203.43 457.738L203.43 460.06L203.43 460.06L201.1079 460.06z" stroke="none" fill="#000000" fill-rule="winding" /><path transform="matrix(1 0 0 -1 0 841)" d="M136.0919 455.4158L138.4137 455.4158L138.4137 455.4158L138.4137 457.7379L138.4137 457.7379L136.0919 457.7379z" stroke="none" fill="#000000" fill-rule="winding" /><path transform="matrix(1 0 0 -1 0 841)" d="M150.0238 455.4158L152.3458 455.4158L152.3458 455.4158L152.3458 457.7379L152.3458 457.7379L150.0238 457.7379z" stroke="none" fill="#000000" fill-rule="winding" /><path transform="matrix(1 0 0 -1 0 841)" d="M154.6679 455.4158L156.9897 455.4158L156.9897 455.4158L156.9897 457.7379L156.9897 457.7379L154.6679 457.7379z" stroke="none" fill="#000000" fill-rule="winding" /><path transform="matrix(1 0 0 -1 0 841)" d="M156.9897 455.4158L159.3118 455.4158L159.3118 455.4158L159.3118 457.7379L159.3118 457.7379L156.9897 457.7379z" stroke="none" fill="#000000" fill-rule="winding" /><path transform="matrix(1 0 0 -1 0 841)" d="M166.2779 455.4158L168.5998 455.4158L168.5998 455.4158L168.5998 457.7379L168.5998 457.7379L166.2779 457.7379z" stroke="none" fill="#000000" fill-rule="winding" /><path transform="matrix(1 0 0 -1 0 841)" d="M168.5998 455.4158L170.9218 455.4158L170.9218 455.4158L170.9218 457.7379L170.9218 457.7379L168.5998 457.7379z" stroke="none" fill="#000000" fill-rule="winding" /><path transform="matrix(1 0 0 -1 0 841)" d="M170.9218 455.4158L173.2439 455.4158L173.2439 455.4158L173.2439 457.7379L173.2439 457.7379L170.9218 457.7379z" stroke="none" fill="#000000" fill-rule="winding" /><path transform="matrix(1 0 0 -1 0 841)" d="M177.8878 455.4158L180.2098 455.4158L180.2098 455.4158L180.2098 457.7379L180.2098 457.7379L177.8878 457.7379z" stroke="none" fill="#000000" fill-rule="winding" /><path transform="matrix(1 0 0 -1 0 841)" d="M182.5319 455.4158L184.8539 455.4158L184.8539 455.4158L184.8539 457.7379L184.8539 457.7379L182.5319 457.7379z" stroke="none" fill="#000000" fill-rule="winding" /><path transform="matrix(1 0 0 -1 0 841)" d="M187.1757 455.4158L189.4977 455.4158L189.4977 455.4158L189.4977 457.7379L189.4977 457.7379L187.1757 457.7379z" stroke="none" fill="#000000" fill-rule="winding" /><path transform="matrix(1 0 0 -1 0 841)" d="M201.1079 455.4158L203.43 455.4158L203.43 455.4158L203.43 457.7379L203.43 457.7379L201.1079 457.7379z" stroke="none" fill="#000000" fill-rule="winding" /><path transform="matrix(1 0 0 -1 0 841)" d="M136.0919 453.0942L138.4137 453.0942L138.4137 453.0942L138.4137 455.416L138.4137 455.416L136.0919 455.416z" stroke="none" fill="#000000" fill-rule="winding" /><path transform="matrix(1 0 0 -1 0 841)" d="M140.7358 453.0942L143.0578 453.0942L143.0578 453.0942L143.0578 455.416L143.0578 455.416L140.7358 455.416z" stroke="none" fill="#000000" fill-rule="winding" /><path transform="matrix(1 0 0 -1 0 841)" d="M143.0578 453.0942L145.3799 453.0942L145.3799 453.0942L145.3799 455.416L145.3799 455.416L143.0578 455.416z" stroke="none" fill="#000000" fill-rule="winding" /><path transform="matrix(1 0 0 -1 0 841)" d="M145.3799 453.0942L147.7018 453.0942L147.7018 453.0942L147.7018 455.416L147.7018 455.416L145.3799 455.416z" stroke="none" fill="#000000" fill-rule="winding" /><path transform="matrix(1 0 0 -1 0 841)" d="M150.0238 453.0942L152.3458 453.0942L152.3458 453.0942L152.3458 455.416L152.3458 455.416L150.0238 455.416z" stroke="none" fill="#000000" fill-rule="winding" /><path transform="matrix(1 0 0 -1 0 841)" d="M154.6679 453.0942L156.9897 453.0942L156.9897 453.0942L156.9897 455.416L156.9897 455.416L154.6679 455.416z" stroke="none" fill="#000000" fill-rule="winding" /><path transform="matrix(1 0 0 -1 0 841)" d="M161.6338 453.0942L163.9559 453.0942L163.9559 453.0942L163.9559 455.416L163.9559 455.416L161.6338 455.416z" stroke="none" fill="#000000" fill-rule="winding" /><path transform="matrix(1 0 0 -1 0 841)" d="M163.9559 453.0942L166.2779 453.0942L166.2779 453.0942L166.2779 455.416L166.2779 455.416L163.9559 455.416z" stroke="none" fill="#000000" fill-rule="winding" /><path transform="matrix(1 0 0 -1 0 841)" d="M166.2779 453.0942L168.5998 453.0942L168.5998 453.0942L168.5998 455.416L168.5998 455.416L166.2779 455.416z" stroke="none" fill="#000000" fill-rule="winding" /><path transform="matrix(1 0 0 -1 0 841)" d="M168.5998 453.0942L170.9218 453.0942L170.9218 453.0942L170.9218 455.416L170.9218 455.416L168.5998 455.416z" stroke="none" fill="#000000" fill-rule="winding" /><path transform="matrix(1 0 0 -1 0 841)" d="M173.2439 453.0942L175.5659 453.0942L175.5659 453.0942L175.5659 455.416L175.5659 455.416L173.2439 455.416z" stroke="none" fill="#000000" fill-rule="winding" /><path transform="matrix(1 0 0 -1 0 841)" d="M177.8878 453.0942L180.2098 453.0942L180.2098 453.0942L180.2098 455.416L180.2098 455.416L177.8878 455.416z" stroke="none" fill="#000000" fill-rule="winding" /><path transform="matrix(1 0 0 -1 0 841)" d="M187.1757 453.0942L189.4977 453.0942L189.4977 453.0942L189.4977 455.416L189.4977 455.416L187.1757 455.416z" stroke="none" fill="#000000" fill-rule="winding" /><path transform="matrix(1 0 0 -1 0 841)" d="M191.8199 453.0942L194.1419 453.0942L194.1419 453.0942L194.1419 455.416L194.1419 455.416L191.8199 455.416z" stroke="none" fill="#000000" fill-rule="winding" /><path transform="matrix(1 0 0 -1 0 841)" d="M194.142 453.0942L196.4641 453.0942L196.4641 453.0942L196.4641 455.416L196.4641 455.416L194.142 455.416z" stroke="none" fill="#000000" fill-rule="winding" /><path transform="matrix(1 0 0 -1 0 841)" d="M196.4641 453.0942L198.786 453.0942L198.786 453.0942L198.786 455.416L198.786 455.416L196.4641 455.416z" stroke="none" fill="#000000" fill-rule="winding" /><path transform="matrix(1 0 0 -1 0 841)" d="M201.1079 453.0942L203.43 453.0942L203.43 453.0942L203.43 455.416L203.43 455.416L201.1079 455.416z" stroke="none" fill="#000000" fill-rule="winding" /><path transform="matrix(1 0 0 -1 0 841)" d="M136.0919 450.7721L138.4137 450.7721L138.4137 450.7721L138.4137 453.0941L138.4137 453.0941L136.0919 453.0941z" stroke="none" fill="#000000" fill-rule="winding" /><path transform="matrix(1 0 0 -1 0 841)" d="M140.7358 450.7721L143.0578 450.7721L143.0578 450.7721L143.0578 453.0941L143.0578 453.0941L140.7358 453.0941z" stroke="none" fill="#000000" fill-rule="winding" /><path transform="matrix(1 0 0 -1 0 841)" d="M143.0578 450.7721L145.3799 450.7721L145.3799 450.7721L145.3799 453.0941L145.3799 453.0941L143.0578 453.0941z" stroke="none" fill="#000000" fill-rule="winding" /><path transform="matrix(1 0 0 -1 0 841)" d="M145.3799 450.7721L147.7018 450.7721L147.7018 450.7721L147.7018 453.0941L147.7018 453.0941L145.3799 453.0941z" stroke="none" fill="#000000" fill-rule="winding" /><path transform="matrix(1 0 0 -1 0 841)" d="M150.0238 450.7721L152.3458 450.7721L152.3458 450.7721L152.3458 453.0941L152.3458 453.0941L150.0238 453.0941z" stroke="none" fill="#000000" fill-rule="winding" /><path transform="matrix(1 0 0 -1 0 841)" d="M156.9897 450.7721L159.3118 450.7721L159.3118 450.7721L159.3118 453.0941L159.3118 453.0941L156.9897 453.0941z" stroke="none" fill="#000000" fill-rule="winding" /><path transform="matrix(1 0 0 -1 0 841)" d="M161.6338 450.7721L163.9559 450.7721L163.9559 450.7721L163.9559 453.0941L163.9559 453.0941L161.6338 453.0941z" stroke="none" fill="#000000" fill-rule="winding" /><path transform="matrix(1 0 0 -1 0 841)" d="M170.9218 450.7721L173.2439 450.7721L173.2439 450.7721L173.2439 453.0941L173.2439 453.0941L170.9218 453.0941z" stroke="none" fill="#000000" fill-rule="winding" /><path transform="matrix(1 0 0 -1 0 841)" d="M175.5659 450.7721L177.8878 450.7721L177.8878 450.7721L177.8878 453.0941L177.8878 453.0941L175.5659 453.0941z" stroke="none" fill="#000000" fill-rule="winding" /><path transform="matrix(1 0 0 -1 0 841)" d="M177.8878 450.7721L180.2098 450.7721L180.2098 450.7721L180.2098 453.0941L180.2098 453.0941L177.8878 453.0941z" stroke="none" fill="#000000" fill-rule="winding" /><path transform="matrix(1 0 0 -1 0 841)" d="M182.5319 450.7721L184.8539 450.7721L184.8539 450.7721L184.8539 453.0941L184.8539 453.0941L182.5319 453.0941z" stroke="none" fill="#000000" fill-rule="winding" /><path transform="matrix(1 0 0 -1 0 841)" d="M187.1757 450.7721L189.4977 450.7721L189.4977 450.7721L189.4977 453.0941L189.4977 453.0941L187.1757 453.0941z" stroke="none" fill="#000000" fill-rule="winding" /><path transform="matrix(1 0 0 -1 0 841)" d="M191.8199 450.7721L194.1419 450.7721L194.1419 450.7721L194.1419 453.0941L194.1419 453.0941L191.8199 453.0941z" stroke="none" fill="#000000" fill-rule="winding" /><path transform="matrix(1 0 0 -1 0 841)" d="M194.142 450.7721L196.4641 450.7721L196.4641 450.7721L196.4641 453.0941L196.4641 453.0941L194.142 453.0941z" stroke="none" fill="#000000" fill-rule="winding" /><path transform="matrix(1 0 0 -1 0 841)" d="M196.4641 450.7721L198.786 450.7721L198.786 450.7721L198.786 453.0941L198.786 453.0941L196.4641 453.0941z" stroke="none" fill="#000000" fill-rule="winding" /><path transform="matrix(1 0 0 -1 0 841)" d="M201.1079 450.7721L203.43 450.7721L203.43 450.7721L203.43 453.0941L203.43 453.0941L201.1079 453.0941z" stroke="none" fill="#000000" fill-rule="winding" /><path transform="matrix(1 0 0 -1 0 841)" d="M136.0919 448.4499L138.4137 448.4499L138.4137 448.4499L138.4137 450.772L138.4137 450.772L136.0919 450.772z" stroke="none" fill="#000000" fill-rule="winding" /><path transform="matrix(1 0 0 -1 0 841)" d="M140.7358 448.4499L143.0578 448.4499L143.0578 448.4499L143.0578 450.772L143.0578 450.772L140.7358 450.772z" stroke="none" fill="#000000" fill-rule="winding" /><path transform="matrix(1 0 0 -1 0 841)" d="M143.0578 448.4499L145.3799 448.4499L145.3799 448.4499L145.3799 450.772L145.3799 450.772L143.0578 450.772z" stroke="none" fill="#000000" fill-rule="winding" /><path transform="matrix(1 0 0 -1 0 841)" d="M145.3799 448.4499L147.7018 448.4499L147.7018 448.4499L147.7018 450.772L147.7018 450.772L145.3799 450.772z" stroke="none" fill="#000000" fill-rule="winding" /><path transform="matrix(1 0 0 -1 0 841)" d="M150.0238 448.4499L152.3458 448.4499L152.3458 448.4499L152.3458 450.772L152.3458 450.772L150.0238 450.772z" stroke="none" fill="#000000" fill-rule="winding" /><path transform="matrix(1 0 0 -1 0 841)" d="M156.9897 448.4499L159.3118 448.4499L159.3118 448.4499L159.3118 450.772L159.3118 450.772L156.9897 450.772z" stroke="none" fill="#000000" fill-rule="winding" /><path transform="matrix(1 0 0 -1 0 841)" d="M163.9559 448.4499L166.2779 448.4499L166.2779 448.4499L166.2779 450.772L166.2779 450.772L163.9559 450.772z" stroke="none" fill="#000000" fill-rule="winding" /><path transform="matrix(1 0 0 -1 0 841)" d="M166.2779 448.4499L168.5998 448.4499L168.5998 448.4499L168.5998 450.772L168.5998 450.772L166.2779 450.772z" stroke="none" fill="#000000" fill-rule="winding" /><path transform="matrix(1 0 0 -1 0 841)" d="M168.5998 448.4499L170.9218 448.4499L170.9218 448.4499L170.9218 450.772L170.9218 450.772L168.5998 450.772z" stroke="none" fill="#000000" fill-rule="winding" /><path transform="matrix(1 0 0 -1 0 841)" d="M170.9218 448.4499L173.2439 448.4499L173.2439 448.4499L173.2439 450.772L173.2439 450.772L170.9218 450.772z" stroke="none" fill="#000000" fill-rule="winding" /><path transform="matrix(1 0 0 -1 0 841)" d="M175.5659 448.4499L177.8878 448.4499L177.8878 448.4499L177.8878 450.772L177.8878 450.772L175.5659 450.772z" stroke="none" fill="#000000" fill-rule="winding" /><path transform="matrix(1 0 0 -1 0 841)" d="M177.8878 448.4499L180.2098 448.4499L180.2098 448.4499L180.2098 450.772L180.2098 450.772L177.8878 450.772z" stroke="none" fill="#000000" fill-rule="winding" /><path transform="matrix(1 0 0 -1 0 841)" d="M180.2097 448.4499L182.5318 448.4499L182.5318 448.4499L182.5318 450.772L182.5318 450.772L180.2097 450.772z" stroke="none" fill="#000000" fill-rule="winding" /><path transform="matrix(1 0 0 -1 0 841)" d="M187.1757 448.4499L189.4977 448.4499L189.4977 448.4499L189.4977 450.772L189.4977 450.772L187.1757 450.772z" stroke="none" fill="#000000" fill-rule="winding" /><path transform="matrix(1 0 0 -1 0 841)" d="M191.8199 448.4499L194.1419 448.4499L194.1419 448.4499L194.1419 450.772L194.1419 450.772L191.8199 450.772z" stroke="none" fill="#000000" fill-rule="winding" /><path transform="matrix(1 0 0 -1 0 841)" d="M194.142 448.4499L196.4641 448.4499L196.4641 448.4499L196.4641 450.772L196.4641 450.772L194.142 450.772z" stroke="none" fill="#000000" fill-rule="winding" /><path transform="matrix(1 0 0 -1 0 841)" d="M196.4641 448.4499L198.786 448.4499L198.786 448.4499L198.786 450.772L198.786 450.772L196.4641 450.772z" stroke="none" fill="#000000" fill-rule="winding" /><path transform="matrix(1 0 0 -1 0 841)" d="M201.1079 448.4499L203.43 448.4499L203.43 448.4499L203.43 450.772L203.43 450.772L201.1079 450.772z" stroke="none" fill="#000000" fill-rule="winding" /><path transform="matrix(1 0 0 -1 0 841)" d="M136.0919 446.1278L138.4137 446.1278L138.4137 446.1278L138.4137 448.4499L138.4137 448.4499L136.0919 448.4499z" stroke="none" fill="#000000" fill-rule="winding" /><path transform="matrix(1 0 0 -1 0 841)" d="M150.0238 446.1278L152.3458 446.1278L152.3458 446.1278L152.3458 448.4499L152.3458 448.4499L150.0238 448.4499z" stroke="none" fill="#000000" fill-rule="winding" /><path transform="matrix(1 0 0 -1 0 841)" d="M154.6679 446.1278L156.9897 446.1278L156.9897 446.1278L156.9897 448.4499L156.9897 448.4499L154.6679 448.4499z" stroke="none" fill="#000000" fill-rule="winding" /><path transform="matrix(1 0 0 -1 0 841)" d="M163.9559 446.1278L166.2779 446.1278L166.2779 446.1278L166.2779 448.4499L166.2779 448.4499L163.9559 448.4499z" stroke="none" fill="#000000" fill-rule="winding" /><path transform="matrix(1 0 0 -1 0 841)" d="M168.5998 446.1278L170.9218 446.1278L170.9218 446.1278L170.9218 448.4499L170.9218 448.4499L168.5998 448.4499z" stroke="none" fill="#000000" fill-rule="winding" /><path transform="matrix(1 0 0 -1 0 841)" d="M173.2439 446.1278L175.5659 446.1278L175.5659 446.1278L175.5659 448.4499L175.5659 448.4499L173.2439 448.4499z" stroke="none" fill="#000000" fill-rule="winding" /><path transform="matrix(1 0 0 -1 0 841)" d="M175.5659 446.1278L177.8878 446.1278L177.8878 446.1278L177.8878 448.4499L177.8878 448.4499L175.5659 448.4499z" stroke="none" fill="#000000" fill-rule="winding" /><path transform="matrix(1 0 0 -1 0 841)" d="M182.5319 446.1278L184.8539 446.1278L184.8539 446.1278L184.8539 448.4499L184.8539 448.4499L182.5319 448.4499z" stroke="none" fill="#000000" fill-rule="winding" /><path transform="matrix(1 0 0 -1 0 841)" d="M187.1757 446.1278L189.4977 446.1278L189.4977 446.1278L189.4977 448.4499L189.4977 448.4499L187.1757 448.4499z" stroke="none" fill="#000000" fill-rule="winding" /><path transform="matrix(1 0 0 -1 0 841)" d="M201.1079 446.1278L203.43 446.1278L203.43 446.1278L203.43 448.4499L203.43 448.4499L201.1079 448.4499z" stroke="none" fill="#000000" fill-rule="winding" /><path transform="matrix(1 0 0 -1 0 841)" d="M136.0919 443.8057L138.4137 443.8057L138.4137 443.8057L138.4137 446.1277L138.4137 446.1277L136.0919 446.1277z" stroke="none" fill="#000000" fill-rule="winding" /><path transform="matrix(1 0 0 -1 0 841)" d="M138.4137 443.8057L140.7358 443.8057L140.7358 443.8057L140.7358 446.1277L140.7358 446.1277L138.4137 446.1277z" stroke="none" fill="#000000" fill-rule="winding" /><path transform="matrix(1 0 0 -1 0 841)" d="M140.7358 443.8057L143.0578 443.8057L143.0578 443.8057L143.0578 446.1277L143.0578 446.1277L140.7358 446.1277z" stroke="none" fill="#000000" fill-rule="winding" /><path transform="matrix(1 0 0 -1 0 841)" d="M143.0578 443.8057L145.3799 443.8057L145.3799 443.8057L145.3799 446.1277L145.3799 446.1277L143.0578 446.1277z" stroke="none" fill="#000000" fill-rule="winding" /><path transform="matrix(1 0 0 -1 0 841)" d="M145.3799 443.8057L147.7018 443.8057L147.7018 443.8057L147.7018 446.1277L147.7018 446.1277L145.3799 446.1277z" stroke="none" fill="#000000" fill-rule="winding" /><path transform="matrix(1 0 0 -1 0 841)" d="M147.7017 443.8057L150.0238 443.8057L150.0238 443.8057L150.0238 446.1277L150.0238 446.1277L147.7017 446.1277z" stroke="none" fill="#000000" fill-rule="winding" /><path transform="matrix(1 0 0 -1 0 841)" d="M150.0238 443.8057L152.3458 443.8057L152.3458 443.8057L152.3458 446.1277L152.3458 446.1277L150.0238 446.1277z" stroke="none" fill="#000000" fill-rule="winding" /><path transform="matrix(1 0 0 -1 0 841)" d="M154.6679 443.8057L156.9897 443.8057L156.9897 443.8057L156.9897 446.1277L156.9897 446.1277L154.6679 446.1277z" stroke="none" fill="#000000" fill-rule="winding" /><path transform="matrix(1 0 0 -1 0 841)" d="M159.3118 443.8057L161.6338 443.8057L161.6338 443.8057L161.6338 446.1277L161.6338 446.1277L159.3118 446.1277z" stroke="none" fill="#000000" fill-rule="winding" /><path transform="matrix(1 0 0 -1 0 841)" d="M163.9559 443.8057L166.2779 443.8057L166.2779 443.8057L166.2779 446.1277L166.2779 446.1277L163.9559 446.1277z" stroke="none" fill="#000000" fill-rule="winding" /><path transform="matrix(1 0 0 -1 0 841)" d="M168.5998 443.8057L170.9218 443.8057L170.9218 443.8057L170.9218 446.1277L170.9218 446.1277L168.5998 446.1277z" stroke="none" fill="#000000" fill-rule="winding" /><path transform="matrix(1 0 0 -1 0 841)" d="M173.2439 443.8057L175.5659 443.8057L175.5659 443.8057L175.5659 446.1277L175.5659 446.1277L173.2439 446.1277z" stroke="none" fill="#000000" fill-rule="winding" /><path transform="matrix(1 0 0 -1 0 841)" d="M177.8878 443.8057L180.2098 443.8057L180.2098 443.8057L180.2098 446.1277L180.2098 446.1277L177.8878 446.1277z" stroke="none" fill="#000000" fill-rule="winding" /><path transform="matrix(1 0 0 -1 0 841)" d="M182.5319 443.8057L184.8539 443.8057L184.8539 443.8057L184.8539 446.1277L184.8539 446.1277L182.5319 446.1277z" stroke="none" fill="#000000" fill-rule="winding" /><path transform="matrix(1 0 0 -1 0 841)" d="M187.1757 443.8057L189.4977 443.8057L189.4977 443.8057L189.4977 446.1277L189.4977 446.1277L187.1757 446.1277z" stroke="none" fill="#000000" fill-rule="winding" /><path transform="matrix(1 0 0 -1 0 841)" d="M189.4978 443.8057L191.8198 443.8057L191.8198 443.8057L191.8198 446.1277L191.8198 446.1277L189.4978 446.1277z" stroke="none" fill="#000000" fill-rule="winding" /><path transform="matrix(1 0 0 -1 0 841)" d="M191.8199 443.8057L194.1419 443.8057L194.1419 443.8057L194.1419 446.1277L194.1419 446.1277L191.8199 446.1277z" stroke="none" fill="#000000" fill-rule="winding" /><path transform="matrix(1 0 0 -1 0 841)" d="M194.142 443.8057L196.4641 443.8057L196.4641 443.8057L196.4641 446.1277L196.4641 446.1277L194.142 446.1277z" stroke="none" fill="#000000" fill-rule="winding" /><path transform="matrix(1 0 0 -1 0 841)" d="M196.4641 443.8057L198.786 443.8057L198.786 443.8057L198.786 446.1277L198.786 446.1277L196.4641 446.1277z" stroke="none" fill="#000000" fill-rule="winding" /><path transform="matrix(1 0 0 -1 0 841)" d="M198.7858 443.8057L201.1078 443.8057L201.1078 443.8057L201.1078 446.1277L201.1078 446.1277L198.7858 446.1277z" stroke="none" fill="#000000" fill-rule="winding" /><path transform="matrix(1 0 0 -1 0 841)" d="M201.1079 443.8057L203.43 443.8057L203.43 443.8057L203.43 446.1277L203.43 446.1277L201.1079 446.1277z" stroke="none" fill="#000000" fill-rule="winding" /><path transform="matrix(1 0 0 -1 0 841)" d="M154.6679 441.484L156.9897 441.484L156.9897 441.484L156.9897 443.8059L156.9897 443.8059L154.6679 443.8059z" stroke="none" fill="#000000" fill-rule="winding" /><path transform="matrix(1 0 0 -1 0 841)" d="M156.9897 441.484L159.3118 441.484L159.3118 441.484L159.3118 443.8059L159.3118 443.8059L156.9897 443.8059z" stroke="none" fill="#000000" fill-rule="winding" /><path transform="matrix(1 0 0 -1 0 841)" d="M159.3118 441.484L161.6338 441.484L161.6338 441.484L161.6338 443.8059L161.6338 443.8059L159.3118 443.8059z" stroke="none" fill="#000000" fill-rule="winding" /><path transform="matrix(1 0 0 -1 0 841)" d="M161.6338 441.484L163.9559 441.484L163.9559 441.484L163.9559 443.8059L163.9559 443.8059L161.6338 443.8059z" stroke="none" fill="#000000" fill-rule="winding" /><path transform="matrix(1 0 0 -1 0 841)" d="M163.9559 441.484L166.2779 441.484L166.2779 441.484L166.2779 443.8059L166.2779 443.8059L163.9559 443.8059z" stroke="none" fill="#000000" fill-rule="winding" /><path transform="matrix(1 0 0 -1 0 841)" d="M170.9218 441.484L173.2439 441.484L173.2439 441.484L173.2439 443.8059L173.2439 443.8059L170.9218 443.8059z" stroke="none" fill="#000000" fill-rule="winding" /><path transform="matrix(1 0 0 -1 0 841)" d="M175.5659 441.484L177.8878 441.484L177.8878 441.484L177.8878 443.8059L177.8878 443.8059L175.5659 443.8059z" stroke="none" fill="#000000" fill-rule="winding" /><path transform="matrix(1 0 0 -1 0 841)" d="M177.8878 441.484L180.2098 441.484L180.2098 441.484L180.2098 443.8059L180.2098 443.8059L177.8878 443.8059z" stroke="none" fill="#000000" fill-rule="winding" /><path transform="matrix(1 0 0 -1 0 841)" d="M140.7358 439.1619L143.0578 439.1619L143.0578 439.1619L143.0578 441.4839L143.0578 441.4839L140.7358 441.4839z" stroke="none" fill="#000000" fill-rule="winding" /><path transform="matrix(1 0 0 -1 0 841)" d="M143.0578 439.1619L145.3799 439.1619L145.3799 439.1619L145.3799 441.4839L145.3799 441.4839L143.0578 441.4839z" stroke="none" fill="#000000" fill-rule="winding" /><path transform="matrix(1 0 0 -1 0 841)" d="M145.3799 439.1619L147.7018 439.1619L147.7018 439.1619L147.7018 441.4839L147.7018 441.4839L145.3799 441.4839z" stroke="none" fill="#000000" fill-rule="winding" /><path transform="matrix(1 0 0 -1 0 841)" d="M150.0238 439.1619L152.3458 439.1619L152.3458 439.1619L152.3458 441.4839L152.3458 441.4839L150.0238 441.4839z" stroke="none" fill="#000000" fill-rule="winding" /><path transform="matrix(1 0 0 -1 0 841)" d="M154.6679 439.1619L156.9897 439.1619L156.9897 439.1619L156.9897 441.4839L156.9897 441.4839L154.6679 441.4839z" stroke="none" fill="#000000" fill-rule="winding" /><path transform="matrix(1 0 0 -1 0 841)" d="M156.9897 439.1619L159.3118 439.1619L159.3118 439.1619L159.3118 441.4839L159.3118 441.4839L156.9897 441.4839z" stroke="none" fill="#000000" fill-rule="winding" /><path transform="matrix(1 0 0 -1 0 841)" d="M159.3118 439.1619L161.6338 439.1619L161.6338 439.1619L161.6338 441.4839L161.6338 441.4839L159.3118 441.4839z" stroke="none" fill="#000000" fill-rule="winding" /><path transform="matrix(1 0 0 -1 0 841)" d="M166.2779 439.1619L168.5998 439.1619L168.5998 439.1619L168.5998 441.4839L168.5998 441.4839L166.2779 441.4839z" stroke="none" fill="#000000" fill-rule="winding" /><path transform="matrix(1 0 0 -1 0 841)" d="M184.854 439.1619L187.1758 439.1619L187.1758 439.1619L187.1758 441.4839L187.1758 441.4839L184.854 441.4839z" stroke="none" fill="#000000" fill-rule="winding" /><path transform="matrix(1 0 0 -1 0 841)" d="M187.1757 439.1619L189.4977 439.1619L189.4977 439.1619L189.4977 441.4839L189.4977 441.4839L187.1757 441.4839z" stroke="none" fill="#000000" fill-rule="winding" /><path transform="matrix(1 0 0 -1 0 841)" d="M189.4978 439.1619L191.8198 439.1619L191.8198 439.1619L191.8198 441.4839L191.8198 441.4839L189.4978 441.4839z" stroke="none" fill="#000000" fill-rule="winding" /><path transform="matrix(1 0 0 -1 0 841)" d="M196.4641 439.1619L198.786 439.1619L198.786 439.1619L198.786 441.4839L198.786 441.4839L196.4641 441.4839z" stroke="none" fill="#000000" fill-rule="winding" /><path transform="matrix(1 0 0 -1 0 841)" d="M198.7858 439.1619L201.1078 439.1619L201.1078 439.1619L201.1078 441.4839L201.1078 441.4839L198.7858 441.4839z" stroke="none" fill="#000000" fill-rule="winding" /><path transform="matrix(1 0 0 -1 0 841)" d="M201.1079 439.1619L203.43 439.1619L203.43 439.1619L203.43 441.4839L203.43 441.4839L201.1079 441.4839z" stroke="none" fill="#000000" fill-rule="winding" /><path transform="matrix(1 0 0 -1 0 841)" d="M136.0919 436.8398L138.4137 436.8398L138.4137 436.8398L138.4137 439.1618L138.4137 439.1618L136.0919 439.1618z" stroke="none" fill="#000000" fill-rule="winding" /><path transform="matrix(1 0 0 -1 0 841)" d="M138.4137 436.8398L140.7358 436.8398L140.7358 436.8398L140.7358 439.1618L140.7358 439.1618L138.4137 439.1618z" stroke="none" fill="#000000" fill-rule="winding" /><path transform="matrix(1 0 0 -1 0 841)" d="M140.7358 436.8398L143.0578 436.8398L143.0578 436.8398L143.0578 439.1618L143.0578 439.1618L140.7358 439.1618z" stroke="none" fill="#000000" fill-rule="winding" /><path transform="matrix(1 0 0 -1 0 841)" d="M145.3799 436.8398L147.7018 436.8398L147.7018 436.8398L147.7018 439.1618L147.7018 439.1618L145.3799 439.1618z" stroke="none" fill="#000000" fill-rule="winding" /><path transform="matrix(1 0 0 -1 0 841)" d="M147.7017 436.8398L150.0238 436.8398L150.0238 436.8398L150.0238 439.1618L150.0238 439.1618L147.7017 439.1618z" stroke="none" fill="#000000" fill-rule="winding" /><path transform="matrix(1 0 0 -1 0 841)" d="M152.3458 436.8398L154.6679 436.8398L154.6679 436.8398L154.6679 439.1618L154.6679 439.1618L152.3458 439.1618z" stroke="none" fill="#000000" fill-rule="winding" /><path transform="matrix(1 0 0 -1 0 841)" d="M159.3118 436.8398L161.6338 436.8398L161.6338 436.8398L161.6338 439.1618L161.6338 439.1618L159.3118 439.1618z" stroke="none" fill="#000000" fill-rule="winding" /><path transform="matrix(1 0 0 -1 0 841)" d="M163.9559 436.8398L166.2779 436.8398L166.2779 436.8398L166.2779 439.1618L166.2779 439.1618L163.9559 439.1618z" stroke="none" fill="#000000" fill-rule="winding" /><path transform="matrix(1 0 0 -1 0 841)" d="M168.5998 436.8398L170.9218 436.8398L170.9218 436.8398L170.9218 439.1618L170.9218 439.1618L168.5998 439.1618z" stroke="none" fill="#000000" fill-rule="winding" /><path transform="matrix(1 0 0 -1 0 841)" d="M170.9218 436.8398L173.2439 436.8398L173.2439 436.8398L173.2439 439.1618L173.2439 439.1618L170.9218 439.1618z" stroke="none" fill="#000000" fill-rule="winding" /><path transform="matrix(1 0 0 -1 0 841)" d="M175.5659 436.8398L177.8878 436.8398L177.8878 436.8398L177.8878 439.1618L177.8878 439.1618L175.5659 439.1618z" stroke="none" fill="#000000" fill-rule="winding" /><path transform="matrix(1 0 0 -1 0 841)" d="M177.8878 436.8398L180.2098 436.8398L180.2098 436.8398L180.2098 439.1618L180.2098 439.1618L177.8878 439.1618z" stroke="none" fill="#000000" fill-rule="winding" /><path transform="matrix(1 0 0 -1 0 841)" d="M182.5319 436.8398L184.8539 436.8398L184.8539 436.8398L184.8539 439.1618L184.8539 439.1618L182.5319 439.1618z" stroke="none" fill="#000000" fill-rule="winding" /><path transform="matrix(1 0 0 -1 0 841)" d="M187.1757 436.8398L189.4977 436.8398L189.4977 436.8398L189.4977 439.1618L189.4977 439.1618L187.1757 439.1618z" stroke="none" fill="#000000" fill-rule="winding" /><path transform="matrix(1 0 0 -1 0 841)" d="M191.8199 436.8398L194.1419 436.8398L194.1419 436.8398L194.1419 439.1618L194.1419 439.1618L191.8199 439.1618z" stroke="none" fill="#000000" fill-rule="winding" /><path transform="matrix(1 0 0 -1 0 841)" d="M194.142 436.8398L196.4641 436.8398L196.4641 436.8398L196.4641 439.1618L196.4641 439.1618L194.142 439.1618z" stroke="none" fill="#000000" fill-rule="winding" /><path transform="matrix(1 0 0 -1 0 841)" d="M196.4641 436.8398L198.786 436.8398L198.786 436.8398L198.786 439.1618L198.786 439.1618L196.4641 439.1618z" stroke="none" fill="#000000" fill-rule="winding" /><path transform="matrix(1 0 0 -1 0 841)" d="M201.1079 436.8398L203.43 436.8398L203.43 436.8398L203.43 439.1618L203.43 439.1618L201.1079 439.1618z" stroke="none" fill="#000000" fill-rule="winding" /><path transform="matrix(1 0 0 -1 0 841)" d="M140.7358 434.5178L143.0578 434.5178L143.0578 434.5178L143.0578 436.8399L143.0578 436.8399L140.7358 436.8399z" stroke="none" fill="#000000" fill-rule="winding" /><path transform="matrix(1 0 0 -1 0 841)" d="M143.0578 434.5178L145.3799 434.5178L145.3799 434.5178L145.3799 436.8399L145.3799 436.8399L143.0578 436.8399z" stroke="none" fill="#000000" fill-rule="winding" /><path transform="matrix(1 0 0 -1 0 841)" d="M147.7017 434.5178L150.0238 434.5178L150.0238 434.5178L150.0238 436.8399L150.0238 436.8399L147.7017 436.8399z" stroke="none" fill="#000000" fill-rule="winding" /><path transform="matrix(1 0 0 -1 0 841)" d="M150.0238 434.5178L152.3458 434.5178L152.3458 434.5178L152.3458 436.8399L152.3458 436.8399L150.0238 436.8399z" stroke="none" fill="#000000" fill-rule="winding" /><path transform="matrix(1 0 0 -1 0 841)" d="M152.3458 434.5178L154.6679 434.5178L154.6679 434.5178L154.6679 436.8399L154.6679 436.8399L152.3458 436.8399z" stroke="none" fill="#000000" fill-rule="winding" /><path transform="matrix(1 0 0 -1 0 841)" d="M154.6679 434.5178L156.9897 434.5178L156.9897 434.5178L156.9897 436.8399L156.9897 436.8399L154.6679 436.8399z" stroke="none" fill="#000000" fill-rule="winding" /><path transform="matrix(1 0 0 -1 0 841)" d="M163.9559 434.5178L166.2779 434.5178L166.2779 434.5178L166.2779 436.8399L166.2779 436.8399L163.9559 436.8399z" stroke="none" fill="#000000" fill-rule="winding" /><path transform="matrix(1 0 0 -1 0 841)" d="M166.2779 434.5178L168.5998 434.5178L168.5998 434.5178L168.5998 436.8399L168.5998 436.8399L166.2779 436.8399z" stroke="none" fill="#000000" fill-rule="winding" /><path transform="matrix(1 0 0 -1 0 841)" d="M170.9218 434.5178L173.2439 434.5178L173.2439 434.5178L173.2439 436.8399L173.2439 436.8399L170.9218 436.8399z" stroke="none" fill="#000000" fill-rule="winding" /><path transform="matrix(1 0 0 -1 0 841)" d="M173.2439 434.5178L175.5659 434.5178L175.5659 434.5178L175.5659 436.8399L175.5659 436.8399L173.2439 436.8399z" stroke="none" fill="#000000" fill-rule="winding" /><path transform="matrix(1 0 0 -1 0 841)" d="M180.2097 434.5178L182.5318 434.5178L182.5318 434.5178L182.5318 436.8399L182.5318 436.8399L180.2097 436.8399z" stroke="none" fill="#000000" fill-rule="winding" /><path transform="matrix(1 0 0 -1 0 841)" d="M187.1757 434.5178L189.4977 434.5178L189.4977 434.5178L189.4977 436.8399L189.4977 436.8399L187.1757 436.8399z" stroke="none" fill="#000000" fill-rule="winding" /><path transform="matrix(1 0 0 -1 0 841)" d="M189.4978 434.5178L191.8198 434.5178L191.8198 434.5178L191.8198 436.8399L191.8198 436.8399L189.4978 436.8399z" stroke="none" fill="#000000" fill-rule="winding" /><path transform="matrix(1 0 0 -1 0 841)" d="M191.8199 434.5178L194.1419 434.5178L194.1419 434.5178L194.1419 436.8399L194.1419 436.8399L191.8199 436.8399z" stroke="none" fill="#000000" fill-rule="winding" /><path transform="matrix(1 0 0 -1 0 841)" d="M196.4641 434.5178L198.786 434.5178L198.786 434.5178L198.786 436.8399L198.786 436.8399L196.4641 436.8399z" stroke="none" fill="#000000" fill-rule="winding" /><path transform="matrix(1 0 0 -1 0 841)" d="M136.0919 432.196L138.4137 432.196L138.4137 432.196L138.4137 434.5179L138.4137 434.5179L136.0919 434.5179z" stroke="none" fill="#000000" fill-rule="winding" /><path transform="matrix(1 0 0 -1 0 841)" d="M138.4137 432.196L140.7358 432.196L140.7358 432.196L140.7358 434.5179L140.7358 434.5179L138.4137 434.5179z" stroke="none" fill="#000000" fill-rule="winding" /><path transform="matrix(1 0 0 -1 0 841)" d="M143.0578 432.196L145.3799 432.196L145.3799 432.196L145.3799 434.5179L145.3799 434.5179L143.0578 434.5179z" stroke="none" fill="#000000" fill-rule="winding" /><path transform="matrix(1 0 0 -1 0 841)" d="M147.7017 432.196L150.0238 432.196L150.0238 432.196L150.0238 434.5179L150.0238 434.5179L147.7017 434.5179z" stroke="none" fill="#000000" fill-rule="winding" /><path transform="matrix(1 0 0 -1 0 841)" d="M152.3458 432.196L154.6679 432.196L154.6679 432.196L154.6679 434.5179L154.6679 434.5179L152.3458 434.5179z" stroke="none" fill="#000000" fill-rule="winding" /><path transform="matrix(1 0 0 -1 0 841)" d="M159.3118 432.196L161.6338 432.196L161.6338 432.196L161.6338 434.5179L161.6338 434.5179L159.3118 434.5179z" stroke="none" fill="#000000" fill-rule="winding" /><path transform="matrix(1 0 0 -1 0 841)" d="M163.9559 432.196L166.2779 432.196L166.2779 432.196L166.2779 434.5179L166.2779 434.5179L163.9559 434.5179z" stroke="none" fill="#000000" fill-rule="winding" /><path transform="matrix(1 0 0 -1 0 841)" d="M166.2779 432.196L168.5998 432.196L168.5998 432.196L168.5998 434.5179L168.5998 434.5179L166.2779 434.5179z" stroke="none" fill="#000000" fill-rule="winding" /><path transform="matrix(1 0 0 -1 0 841)" d="M168.5998 432.196L170.9218 432.196L170.9218 432.196L170.9218 434.5179L170.9218 434.5179L168.5998 434.5179z" stroke="none" fill="#000000" fill-rule="winding" /><path transform="matrix(1 0 0 -1 0 841)" d="M177.8878 432.196L180.2098 432.196L180.2098 432.196L180.2098 434.5179L180.2098 434.5179L177.8878 434.5179z" stroke="none" fill="#000000" fill-rule="winding" /><path transform="matrix(1 0 0 -1 0 841)" d="M180.2097 432.196L182.5318 432.196L182.5318 432.196L182.5318 434.5179L182.5318 434.5179L180.2097 434.5179z" stroke="none" fill="#000000" fill-rule="winding" /><path transform="matrix(1 0 0 -1 0 841)" d="M182.5319 432.196L184.8539 432.196L184.8539 432.196L184.8539 434.5179L184.8539 434.5179L182.5319 434.5179z" stroke="none" fill="#000000" fill-rule="winding" /><path transform="matrix(1 0 0 -1 0 841)" d="M187.1757 432.196L189.4977 432.196L189.4977 432.196L189.4977 434.5179L189.4977 434.5179L187.1757 434.5179z" stroke="none" fill="#000000" fill-rule="winding" /><path transform="matrix(1 0 0 -1 0 841)" d="M189.4978 432.196L191.8198 432.196L191.8198 432.196L191.8198 434.5179L191.8198 434.5179L189.4978 434.5179z" stroke="none" fill="#000000" fill-rule="winding" /><path transform="matrix(1 0 0 -1 0 841)" d="M191.8199 432.196L194.1419 432.196L194.1419 432.196L194.1419 434.5179L194.1419 434.5179L191.8199 434.5179z" stroke="none" fill="#000000" fill-rule="winding" /><path transform="matrix(1 0 0 -1 0 841)" d="M198.7858 432.196L201.1078 432.196L201.1078 432.196L201.1078 434.5179L201.1078 434.5179L198.7858 434.5179z" stroke="none" fill="#000000" fill-rule="winding" /><path transform="matrix(1 0 0 -1 0 841)" d="M136.0919 429.8739L138.4137 429.8739L138.4137 429.8739L138.4137 432.196L138.4137 432.196L136.0919 432.196z" stroke="none" fill="#000000" fill-rule="winding" /><path transform="matrix(1 0 0 -1 0 841)" d="M140.7358 429.8739L143.0578 429.8739L143.0578 429.8739L143.0578 432.196L143.0578 432.196L140.7358 432.196z" stroke="none" fill="#000000" fill-rule="winding" /><path transform="matrix(1 0 0 -1 0 841)" d="M143.0578 429.8739L145.3799 429.8739L145.3799 429.8739L145.3799 432.196L145.3799 432.196L143.0578 432.196z" stroke="none" fill="#000000" fill-rule="winding" /><path transform="matrix(1 0 0 -1 0 841)" d="M147.7017 429.8739L150.0238 429.8739L150.0238 429.8739L150.0238 432.196L150.0238 432.196L147.7017 432.196z" stroke="none" fill="#000000" fill-rule="winding" /><path transform="matrix(1 0 0 -1 0 841)" d="M150.0238 429.8739L152.3458 429.8739L152.3458 429.8739L152.3458 432.196L152.3458 432.196L150.0238 432.196z" stroke="none" fill="#000000" fill-rule="winding" /><path transform="matrix(1 0 0 -1 0 841)" d="M152.3458 429.8739L154.6679 429.8739L154.6679 429.8739L154.6679 432.196L154.6679 432.196L152.3458 432.196z" stroke="none" fill="#000000" fill-rule="winding" /><path transform="matrix(1 0 0 -1 0 841)" d="M156.9897 429.8739L159.3118 429.8739L159.3118 429.8739L159.3118 432.196L159.3118 432.196L156.9897 432.196z" stroke="none" fill="#000000" fill-rule="winding" /><path transform="matrix(1 0 0 -1 0 841)" d="M163.9559 429.8739L166.2779 429.8739L166.2779 429.8739L166.2779 432.196L166.2779 432.196L163.9559 432.196z" stroke="none" fill="#000000" fill-rule="winding" /><path transform="matrix(1 0 0 -1 0 841)" d="M166.2779 429.8739L168.5998 429.8739L168.5998 429.8739L168.5998 432.196L168.5998 432.196L166.2779 432.196z" stroke="none" fill="#000000" fill-rule="winding" /><path transform="matrix(1 0 0 -1 0 841)" d="M168.5998 429.8739L170.9218 429.8739L170.9218 429.8739L170.9218 432.196L170.9218 432.196L168.5998 432.196z" stroke="none" fill="#000000" fill-rule="winding" /><path transform="matrix(1 0 0 -1 0 841)" d="M170.9218 429.8739L173.2439 429.8739L173.2439 429.8739L173.2439 432.196L173.2439 432.196L170.9218 432.196z" stroke="none" fill="#000000" fill-rule="winding" /><path transform="matrix(1 0 0 -1 0 841)" d="M177.8878 429.8739L180.2098 429.8739L180.2098 429.8739L180.2098 432.196L180.2098 432.196L177.8878 432.196z" stroke="none" fill="#000000" fill-rule="winding" /><path transform="matrix(1 0 0 -1 0 841)" d="M180.2097 429.8739L182.5318 429.8739L182.5318 429.8739L182.5318 432.196L182.5318 432.196L180.2097 432.196z" stroke="none" fill="#000000" fill-rule="winding" /><path transform="matrix(1 0 0 -1 0 841)" d="M182.5319 429.8739L184.8539 429.8739L184.8539 429.8739L184.8539 432.196L184.8539 432.196L182.5319 432.196z" stroke="none" fill="#000000" fill-rule="winding" /><path transform="matrix(1 0 0 -1 0 841)" d="M184.854 429.8739L187.1758 429.8739L187.1758 429.8739L187.1758 432.196L187.1758 432.196L184.854 432.196z" stroke="none" fill="#000000" fill-rule="winding" /><path transform="matrix(1 0 0 -1 0 841)" d="M196.4641 429.8739L198.786 429.8739L198.786 429.8739L198.786 432.196L198.786 432.196L196.4641 432.196z" stroke="none" fill="#000000" fill-rule="winding" /><path transform="matrix(1 0 0 -1 0 841)" d="M198.7858 429.8739L201.1078 429.8739L201.1078 429.8739L201.1078 432.196L201.1078 432.196L198.7858 432.196z" stroke="none" fill="#000000" fill-rule="winding" /><path transform="matrix(1 0 0 -1 0 841)" d="M201.1079 429.8739L203.43 429.8739L203.43 429.8739L203.43 432.196L203.43 432.196L201.1079 432.196z" stroke="none" fill="#000000" fill-rule="winding" /><path transform="matrix(1 0 0 -1 0 841)" d="M140.7358 427.5519L143.0578 427.5519L143.0578 427.5519L143.0578 429.8739L143.0578 429.8739L140.7358 429.8739z" stroke="none" fill="#000000" fill-rule="winding" /><path transform="matrix(1 0 0 -1 0 841)" d="M143.0578 427.5519L145.3799 427.5519L145.3799 427.5519L145.3799 429.8739L145.3799 429.8739L143.0578 429.8739z" stroke="none" fill="#000000" fill-rule="winding" /><path transform="matrix(1 0 0 -1 0 841)" d="M145.3799 427.5519L147.7018 427.5519L147.7018 427.5519L147.7018 429.8739L147.7018 429.8739L145.3799 429.8739z" stroke="none" fill="#000000" fill-rule="winding" /><path transform="matrix(1 0 0 -1 0 841)" d="M156.9897 427.5519L159.3118 427.5519L159.3118 427.5519L159.3118 429.8739L159.3118 429.8739L156.9897 429.8739z" stroke="none" fill="#000000" fill-rule="winding" /><path transform="matrix(1 0 0 -1 0 841)" d="M161.6338 427.5519L163.9559 427.5519L163.9559 427.5519L163.9559 429.8739L163.9559 429.8739L161.6338 429.8739z" stroke="none" fill="#000000" fill-rule="winding" /><path transform="matrix(1 0 0 -1 0 841)" d="M166.2779 427.5519L168.5998 427.5519L168.5998 427.5519L168.5998 429.8739L168.5998 429.8739L166.2779 429.8739z" stroke="none" fill="#000000" fill-rule="winding" /><path transform="matrix(1 0 0 -1 0 841)" d="M168.5998 427.5519L170.9218 427.5519L170.9218 427.5519L170.9218 429.8739L170.9218 429.8739L168.5998 429.8739z" stroke="none" fill="#000000" fill-rule="winding" /><path transform="matrix(1 0 0 -1 0 841)" d="M173.2439 427.5519L175.5659 427.5519L175.5659 427.5519L175.5659 429.8739L175.5659 429.8739L173.2439 429.8739z" stroke="none" fill="#000000" fill-rule="winding" /><path transform="matrix(1 0 0 -1 0 841)" d="M180.2097 427.5519L182.5318 427.5519L182.5318 427.5519L182.5318 429.8739L182.5318 429.8739L180.2097 429.8739z" stroke="none" fill="#000000" fill-rule="winding" /><path transform="matrix(1 0 0 -1 0 841)" d="M184.854 427.5519L187.1758 427.5519L187.1758 427.5519L187.1758 429.8739L187.1758 429.8739L184.854 429.8739z" stroke="none" fill="#000000" fill-rule="winding" /><path transform="matrix(1 0 0 -1 0 841)" d="M187.1757 427.5519L189.4977 427.5519L189.4977 427.5519L189.4977 429.8739L189.4977 429.8739L187.1757 429.8739z" stroke="none" fill="#000000" fill-rule="winding" /><path transform="matrix(1 0 0 -1 0 841)" d="M191.8199 427.5519L194.1419 427.5519L194.1419 427.5519L194.1419 429.8739L194.1419 429.8739L191.8199 429.8739z" stroke="none" fill="#000000" fill-rule="winding" /><path transform="matrix(1 0 0 -1 0 841)" d="M194.142 427.5519L196.4641 427.5519L196.4641 427.5519L196.4641 429.8739L196.4641 429.8739L194.142 429.8739z" stroke="none" fill="#000000" fill-rule="winding" /><path transform="matrix(1 0 0 -1 0 841)" d="M198.7858 427.5519L201.1078 427.5519L201.1078 427.5519L201.1078 429.8739L201.1078 429.8739L198.7858 429.8739z" stroke="none" fill="#000000" fill-rule="winding" /><path transform="matrix(1 0 0 -1 0 841)" d="M201.1079 427.5519L203.43 427.5519L203.43 427.5519L203.43 429.8739L203.43 429.8739L201.1079 429.8739z" stroke="none" fill="#000000" fill-rule="winding" /><path transform="matrix(1 0 0 -1 0 841)" d="M136.0919 425.2298L138.4137 425.2298L138.4137 425.2298L138.4137 427.5519L138.4137 427.5519L136.0919 427.5519z" stroke="none" fill="#000000" fill-rule="winding" /><path transform="matrix(1 0 0 -1 0 841)" d="M138.4137 425.2298L140.7358 425.2298L140.7358 425.2298L140.7358 427.5519L140.7358 427.5519L138.4137 427.5519z" stroke="none" fill="#000000" fill-rule="winding" /><path transform="matrix(1 0 0 -1 0 841)" d="M140.7358 425.2298L143.0578 425.2298L143.0578 425.2298L143.0578 427.5519L143.0578 427.5519L140.7358 427.5519z" stroke="none" fill="#000000" fill-rule="winding" /><path transform="matrix(1 0 0 -1 0 841)" d="M150.0238 425.2298L152.3458 425.2298L152.3458 425.2298L152.3458 427.5519L152.3458 427.5519L150.0238 427.5519z" stroke="none" fill="#000000" fill-rule="winding" /><path transform="matrix(1 0 0 -1 0 841)" d="M154.6679 425.2298L156.9897 425.2298L156.9897 425.2298L156.9897 427.5519L156.9897 427.5519L154.6679 427.5519z" stroke="none" fill="#000000" fill-rule="winding" /><path transform="matrix(1 0 0 -1 0 841)" d="M166.2779 425.2298L168.5998 425.2298L168.5998 425.2298L168.5998 427.5519L168.5998 427.5519L166.2779 427.5519z" stroke="none" fill="#000000" fill-rule="winding" /><path transform="matrix(1 0 0 -1 0 841)" d="M170.9218 425.2298L173.2439 425.2298L173.2439 425.2298L173.2439 427.5519L173.2439 427.5519L170.9218 427.5519z" stroke="none" fill="#000000" fill-rule="winding" /><path transform="matrix(1 0 0 -1 0 841)" d="M173.2439 425.2298L175.5659 425.2298L175.5659 425.2298L175.5659 427.5519L175.5659 427.5519L173.2439 427.5519z" stroke="none" fill="#000000" fill-rule="winding" /><path transform="matrix(1 0 0 -1 0 841)" d="M184.854 425.2298L187.1758 425.2298L187.1758 425.2298L187.1758 427.5519L187.1758 427.5519L184.854 427.5519z" stroke="none" fill="#000000" fill-rule="winding" /><path transform="matrix(1 0 0 -1 0 841)" d="M136.0919 422.9079L138.4137 422.9079L138.4137 422.9079L138.4137 425.2298L138.4137 425.2298L136.0919 425.2298z" stroke="none" fill="#000000" fill-rule="winding" /><path transform="matrix(1 0 0 -1 0 841)" d="M138.4137 422.9079L140.7358 422.9079L140.7358 422.9079L140.7358 425.2298L140.7358 425.2298L138.4137 425.2298z" stroke="none" fill="#000000" fill-rule="winding" /><path transform="matrix(1 0 0 -1 0 841)" d="M140.7358 422.9079L143.0578 422.9079L143.0578 422.9079L143.0578 425.2298L143.0578 425.2298L140.7358 425.2298z" stroke="none" fill="#000000" fill-rule="winding" /><path transform="matrix(1 0 0 -1 0 841)" d="M143.0578 422.9079L145.3799 422.9079L145.3799 422.9079L145.3799 425.2298L145.3799 425.2298L143.0578 425.2298z" stroke="none" fill="#000000" fill-rule="winding" /><path transform="matrix(1 0 0 -1 0 841)" d="M145.3799 422.9079L147.7018 422.9079L147.7018 422.9079L147.7018 425.2298L147.7018 425.2298L145.3799 425.2298z" stroke="none" fill="#000000" fill-rule="winding" /><path transform="matrix(1 0 0 -1 0 841)" d="M147.7017 422.9079L150.0238 422.9079L150.0238 422.9079L150.0238 425.2298L150.0238 425.2298L147.7017 425.2298z" stroke="none" fill="#000000" fill-rule="winding" /><path transform="matrix(1 0 0 -1 0 841)" d="M159.3118 422.9079L161.6338 422.9079L161.6338 422.9079L161.6338 425.2298L161.6338 425.2298L159.3118 425.2298z" stroke="none" fill="#000000" fill-rule="winding" /><path transform="matrix(1 0 0 -1 0 841)" d="M170.9218 422.9079L173.2439 422.9079L173.2439 422.9079L173.2439 425.2298L173.2439 425.2298L170.9218 425.2298z" stroke="none" fill="#000000" fill-rule="winding" /><path transform="matrix(1 0 0 -1 0 841)" d="M175.5659 422.9079L177.8878 422.9079L177.8878 422.9079L177.8878 425.2298L177.8878 425.2298L175.5659 425.2298z" stroke="none" fill="#000000" fill-rule="winding" /><path transform="matrix(1 0 0 -1 0 841)" d="M180.2097 422.9079L182.5318 422.9079L182.5318 422.9079L182.5318 425.2298L182.5318 425.2298L180.2097 425.2298z" stroke="none" fill="#000000" fill-rule="winding" /><path transform="matrix(1 0 0 -1 0 841)" d="M184.854 422.9079L187.1758 422.9079L187.1758 422.9079L187.1758 425.2298L187.1758 425.2298L184.854 425.2298z" stroke="none" fill="#000000" fill-rule="winding" /><path transform="matrix(1 0 0 -1 0 841)" d="M187.1757 422.9079L189.4977 422.9079L189.4977 422.9079L189.4977 425.2298L189.4977 425.2298L187.1757 425.2298z" stroke="none" fill="#000000" fill-rule="winding" /><path transform="matrix(1 0 0 -1 0 841)" d="M194.142 422.9079L196.4641 422.9079L196.4641 422.9079L196.4641 425.2298L196.4641 425.2298L194.142 425.2298z" stroke="none" fill="#000000" fill-rule="winding" /><path transform="matrix(1 0 0 -1 0 841)" d="M201.1079 422.9079L203.43 422.9079L203.43 422.9079L203.43 425.2298L203.43 425.2298L201.1079 425.2298z" stroke="none" fill="#000000" fill-rule="winding" /><path transform="matrix(1 0 0 -1 0 841)" d="M145.3799 420.5859L147.7018 420.5859L147.7018 420.5859L147.7018 422.908L147.7018 422.908L145.3799 422.908z" stroke="none" fill="#000000" fill-rule="winding" /><path transform="matrix(1 0 0 -1 0 841)" d="M150.0238 420.5859L152.3458 420.5859L152.3458 420.5859L152.3458 422.908L152.3458 422.908L150.0238 422.908z" stroke="none" fill="#000000" fill-rule="winding" /><path transform="matrix(1 0 0 -1 0 841)" d="M152.3458 420.5859L154.6679 420.5859L154.6679 420.5859L154.6679 422.908L154.6679 422.908L152.3458 422.908z" stroke="none" fill="#000000" fill-rule="winding" /><path transform="matrix(1 0 0 -1 0 841)" d="M156.9897 420.5859L159.3118 420.5859L159.3118 420.5859L159.3118 422.908L159.3118 422.908L156.9897 422.908z" stroke="none" fill="#000000" fill-rule="winding" /><path transform="matrix(1 0 0 -1 0 841)" d="M166.2779 420.5859L168.5998 420.5859L168.5998 420.5859L168.5998 422.908L168.5998 422.908L166.2779 422.908z" stroke="none" fill="#000000" fill-rule="winding" /><path transform="matrix(1 0 0 -1 0 841)" d="M170.9218 420.5859L173.2439 420.5859L173.2439 420.5859L173.2439 422.908L173.2439 422.908L170.9218 422.908z" stroke="none" fill="#000000" fill-rule="winding" /><path transform="matrix(1 0 0 -1 0 841)" d="M173.2439 420.5859L175.5659 420.5859L175.5659 420.5859L175.5659 422.908L175.5659 422.908L173.2439 422.908z" stroke="none" fill="#000000" fill-rule="winding" /><path transform="matrix(1 0 0 -1 0 841)" d="M175.5659 420.5859L177.8878 420.5859L177.8878 420.5859L177.8878 422.908L177.8878 422.908L175.5659 422.908z" stroke="none" fill="#000000" fill-rule="winding" /><path transform="matrix(1 0 0 -1 0 841)" d="M177.8878 420.5859L180.2098 420.5859L180.2098 420.5859L180.2098 422.908L180.2098 422.908L177.8878 422.908z" stroke="none" fill="#000000" fill-rule="winding" /><path transform="matrix(1 0 0 -1 0 841)" d="M189.4978 420.5859L191.8198 420.5859L191.8198 420.5859L191.8198 422.908L191.8198 422.908L189.4978 422.908z" stroke="none" fill="#000000" fill-rule="winding" /><path transform="matrix(1 0 0 -1 0 841)" d="M191.8199 420.5859L194.1419 420.5859L194.1419 420.5859L194.1419 422.908L194.1419 422.908L191.8199 422.908z" stroke="none" fill="#000000" fill-rule="winding" /><path transform="matrix(1 0 0 -1 0 841)" d="M194.142 420.5859L196.4641 420.5859L196.4641 420.5859L196.4641 422.908L196.4641 422.908L194.142 422.908z" stroke="none" fill="#000000" fill-rule="winding" /><path transform="matrix(1 0 0 -1 0 841)" d="M196.4641 420.5859L198.786 420.5859L198.786 420.5859L198.786 422.908L198.786 422.908L196.4641 422.908z" stroke="none" fill="#000000" fill-rule="winding" /><path transform="matrix(1 0 0 -1 0 841)" d="M198.7858 420.5859L201.1078 420.5859L201.1078 420.5859L201.1078 422.908L201.1078 422.908L198.7858 422.908z" stroke="none" fill="#000000" fill-rule="winding" /><path transform="matrix(1 0 0 -1 0 841)" d="M136.0919 418.2639L138.4137 418.2639L138.4137 418.2639L138.4137 420.5859L138.4137 420.5859L136.0919 420.5859z" stroke="none" fill="#000000" fill-rule="winding" /><path transform="matrix(1 0 0 -1 0 841)" d="M140.7358 418.2639L143.0578 418.2639L143.0578 418.2639L143.0578 420.5859L143.0578 420.5859L140.7358 420.5859z" stroke="none" fill="#000000" fill-rule="winding" /><path transform="matrix(1 0 0 -1 0 841)" d="M143.0578 418.2639L145.3799 418.2639L145.3799 418.2639L145.3799 420.5859L145.3799 420.5859L143.0578 420.5859z" stroke="none" fill="#000000" fill-rule="winding" /><path transform="matrix(1 0 0 -1 0 841)" d="M145.3799 418.2639L147.7018 418.2639L147.7018 418.2639L147.7018 420.5859L147.7018 420.5859L145.3799 420.5859z" stroke="none" fill="#000000" fill-rule="winding" /><path transform="matrix(1 0 0 -1 0 841)" d="M147.7017 418.2639L150.0238 418.2639L150.0238 418.2639L150.0238 420.5859L150.0238 420.5859L147.7017 420.5859z" stroke="none" fill="#000000" fill-rule="winding" /><path transform="matrix(1 0 0 -1 0 841)" d="M154.6679 418.2639L156.9897 418.2639L156.9897 418.2639L156.9897 420.5859L156.9897 420.5859L154.6679 420.5859z" stroke="none" fill="#000000" fill-rule="winding" /><path transform="matrix(1 0 0 -1 0 841)" d="M156.9897 418.2639L159.3118 418.2639L159.3118 418.2639L159.3118 420.5859L159.3118 420.5859L156.9897 420.5859z" stroke="none" fill="#000000" fill-rule="winding" /><path transform="matrix(1 0 0 -1 0 841)" d="M161.6338 418.2639L163.9559 418.2639L163.9559 418.2639L163.9559 420.5859L163.9559 420.5859L161.6338 420.5859z" stroke="none" fill="#000000" fill-rule="winding" /><path transform="matrix(1 0 0 -1 0 841)" d="M166.2779 418.2639L168.5998 418.2639L168.5998 418.2639L168.5998 420.5859L168.5998 420.5859L166.2779 420.5859z" stroke="none" fill="#000000" fill-rule="winding" /><path transform="matrix(1 0 0 -1 0 841)" d="M170.9218 418.2639L173.2439 418.2639L173.2439 418.2639L173.2439 420.5859L173.2439 420.5859L170.9218 420.5859z" stroke="none" fill="#000000" fill-rule="winding" /><path transform="matrix(1 0 0 -1 0 841)" d="M184.854 418.2639L187.1758 418.2639L187.1758 418.2639L187.1758 420.5859L187.1758 420.5859L184.854 420.5859z" stroke="none" fill="#000000" fill-rule="winding" /><path transform="matrix(1 0 0 -1 0 841)" d="M189.4978 418.2639L191.8198 418.2639L191.8198 418.2639L191.8198 420.5859L191.8198 420.5859L189.4978 420.5859z" stroke="none" fill="#000000" fill-rule="winding" /><path transform="matrix(1 0 0 -1 0 841)" d="M191.8199 418.2639L194.1419 418.2639L194.1419 418.2639L194.1419 420.5859L194.1419 420.5859L191.8199 420.5859z" stroke="none" fill="#000000" fill-rule="winding" /><path transform="matrix(1 0 0 -1 0 841)" d="M194.142 418.2639L196.4641 418.2639L196.4641 418.2639L196.4641 420.5859L196.4641 420.5859L194.142 420.5859z" stroke="none" fill="#000000" fill-rule="winding" /><path transform="matrix(1 0 0 -1 0 841)" d="M196.4641 418.2639L198.786 418.2639L198.786 418.2639L198.786 420.5859L198.786 420.5859L196.4641 420.5859z" stroke="none" fill="#000000" fill-rule="winding" /><path transform="matrix(1 0 0 -1 0 841)" d="M198.7858 418.2639L201.1078 418.2639L201.1078 418.2639L201.1078 420.5859L201.1078 420.5859L198.7858 420.5859z" stroke="none" fill="#000000" fill-rule="winding" /><path transform="matrix(1 0 0 -1 0 841)" d="M201.1079 418.2639L203.43 418.2639L203.43 418.2639L203.43 420.5859L203.43 420.5859L201.1079 420.5859z" stroke="none" fill="#000000" fill-rule="winding" /><path transform="matrix(1 0 0 -1 0 841)" d="M136.0919 415.9418L138.4137 415.9418L138.4137 415.9418L138.4137 418.2639L138.4137 418.2639L136.0919 418.2639z" stroke="none" fill="#000000" fill-rule="winding" /><path transform="matrix(1 0 0 -1 0 841)" d="M143.0578 415.9418L145.3799 415.9418L145.3799 415.9418L145.3799 418.2639L145.3799 418.2639L143.0578 418.2639z" stroke="none" fill="#000000" fill-rule="winding" /><path transform="matrix(1 0 0 -1 0 841)" d="M147.7017 415.9418L150.0238 415.9418L150.0238 415.9418L150.0238 418.2639L150.0238 418.2639L147.7017 418.2639z" stroke="none" fill="#000000" fill-rule="winding" /><path transform="matrix(1 0 0 -1 0 841)" d="M150.0238 415.9418L152.3458 415.9418L152.3458 415.9418L152.3458 418.2639L152.3458 418.2639L150.0238 418.2639z" stroke="none" fill="#000000" fill-rule="winding" /><path transform="matrix(1 0 0 -1 0 841)" d="M152.3458 415.9418L154.6679 415.9418L154.6679 415.9418L154.6679 418.2639L154.6679 418.2639L152.3458 418.2639z" stroke="none" fill="#000000" fill-rule="winding" /><path transform="matrix(1 0 0 -1 0 841)" d="M154.6679 415.9418L156.9897 415.9418L156.9897 415.9418L156.9897 418.2639L156.9897 418.2639L154.6679 418.2639z" stroke="none" fill="#000000" fill-rule="winding" /><path transform="matrix(1 0 0 -1 0 841)" d="M156.9897 415.9418L159.3118 415.9418L159.3118 415.9418L159.3118 418.2639L159.3118 418.2639L156.9897 418.2639z" stroke="none" fill="#000000" fill-rule="winding" /><path transform="matrix(1 0 0 -1 0 841)" d="M159.3118 415.9418L161.6338 415.9418L161.6338 415.9418L161.6338 418.2639L161.6338 418.2639L159.3118 418.2639z" stroke="none" fill="#000000" fill-rule="winding" /><path transform="matrix(1 0 0 -1 0 841)" d="M161.6338 415.9418L163.9559 415.9418L163.9559 415.9418L163.9559 418.2639L163.9559 418.2639L161.6338 418.2639z" stroke="none" fill="#000000" fill-rule="winding" /><path transform="matrix(1 0 0 -1 0 841)" d="M163.9559 415.9418L166.2779 415.9418L166.2779 415.9418L166.2779 418.2639L166.2779 418.2639L163.9559 418.2639z" stroke="none" fill="#000000" fill-rule="winding" /><path transform="matrix(1 0 0 -1 0 841)" d="M170.9218 415.9418L173.2439 415.9418L173.2439 415.9418L173.2439 418.2639L173.2439 418.2639L170.9218 418.2639z" stroke="none" fill="#000000" fill-rule="winding" /><path transform="matrix(1 0 0 -1 0 841)" d="M173.2439 415.9418L175.5659 415.9418L175.5659 415.9418L175.5659 418.2639L175.5659 418.2639L173.2439 418.2639z" stroke="none" fill="#000000" fill-rule="winding" /><path transform="matrix(1 0 0 -1 0 841)" d="M175.5659 415.9418L177.8878 415.9418L177.8878 415.9418L177.8878 418.2639L177.8878 418.2639L175.5659 418.2639z" stroke="none" fill="#000000" fill-rule="winding" /><path transform="matrix(1 0 0 -1 0 841)" d="M182.5319 415.9418L184.8539 415.9418L184.8539 415.9418L184.8539 418.2639L184.8539 418.2639L182.5319 418.2639z" stroke="none" fill="#000000" fill-rule="winding" /><path transform="matrix(1 0 0 -1 0 841)" d="M187.1757 415.9418L189.4977 415.9418L189.4977 415.9418L189.4977 418.2639L189.4977 418.2639L187.1757 418.2639z" stroke="none" fill="#000000" fill-rule="winding" /><path transform="matrix(1 0 0 -1 0 841)" d="M189.4978 415.9418L191.8198 415.9418L191.8198 415.9418L191.8198 418.2639L191.8198 418.2639L189.4978 418.2639z" stroke="none" fill="#000000" fill-rule="winding" /><path transform="matrix(1 0 0 -1 0 841)" d="M191.8199 415.9418L194.1419 415.9418L194.1419 415.9418L194.1419 418.2639L194.1419 418.2639L191.8199 418.2639z" stroke="none" fill="#000000" fill-rule="winding" /><path transform="matrix(1 0 0 -1 0 841)" d="M194.142 415.9418L196.4641 415.9418L196.4641 415.9418L196.4641 418.2639L196.4641 418.2639L194.142 418.2639z" stroke="none" fill="#000000" fill-rule="winding" /><path transform="matrix(1 0 0 -1 0 841)" d="M196.4641 415.9418L198.786 415.9418L198.786 415.9418L198.786 418.2639L198.786 418.2639L196.4641 418.2639z" stroke="none" fill="#000000" fill-rule="winding" /><path transform="matrix(1 0 0 -1 0 841)" d="M136.0919 413.6198L138.4137 413.6198L138.4137 413.6198L138.4137 415.9418L138.4137 415.9418L136.0919 415.9418z" stroke="none" fill="#000000" fill-rule="winding" /><path transform="matrix(1 0 0 -1 0 841)" d="M143.0578 413.6198L145.3799 413.6198L145.3799 413.6198L145.3799 415.9418L145.3799 415.9418L143.0578 415.9418z" stroke="none" fill="#000000" fill-rule="winding" /><path transform="matrix(1 0 0 -1 0 841)" d="M145.3799 413.6198L147.7018 413.6198L147.7018 413.6198L147.7018 415.9418L147.7018 415.9418L145.3799 415.9418z" stroke="none" fill="#000000" fill-rule="winding" /><path transform="matrix(1 0 0 -1 0 841)" d="M147.7017 413.6198L150.0238 413.6198L150.0238 413.6198L150.0238 415.9418L150.0238 415.9418L147.7017 415.9418z" stroke="none" fill="#000000" fill-rule="winding" /><path transform="matrix(1 0 0 -1 0 841)" d="M154.6679 413.6198L156.9897 413.6198L156.9897 413.6198L156.9897 415.9418L156.9897 415.9418L154.6679 415.9418z" stroke="none" fill="#000000" fill-rule="winding" /><path transform="matrix(1 0 0 -1 0 841)" d="M156.9897 413.6198L159.3118 413.6198L159.3118 413.6198L159.3118 415.9418L159.3118 415.9418L156.9897 415.9418z" stroke="none" fill="#000000" fill-rule="winding" /><path transform="matrix(1 0 0 -1 0 841)" d="M159.3118 413.6198L161.6338 413.6198L161.6338 413.6198L161.6338 415.9418L161.6338 415.9418L159.3118 415.9418z" stroke="none" fill="#000000" fill-rule="winding" /><path transform="matrix(1 0 0 -1 0 841)" d="M161.6338 413.6198L163.9559 413.6198L163.9559 413.6198L163.9559 415.9418L163.9559 415.9418L161.6338 415.9418z" stroke="none" fill="#000000" fill-rule="winding" /><path transform="matrix(1 0 0 -1 0 841)" d="M166.2779 413.6198L168.5998 413.6198L168.5998 413.6198L168.5998 415.9418L168.5998 415.9418L166.2779 415.9418z" stroke="none" fill="#000000" fill-rule="winding" /><path transform="matrix(1 0 0 -1 0 841)" d="M175.5659 413.6198L177.8878 413.6198L177.8878 413.6198L177.8878 415.9418L177.8878 415.9418L175.5659 415.9418z" stroke="none" fill="#000000" fill-rule="winding" /><path transform="matrix(1 0 0 -1 0 841)" d="M187.1757 413.6198L189.4977 413.6198L189.4977 413.6198L189.4977 415.9418L189.4977 415.9418L187.1757 415.9418z" stroke="none" fill="#000000" fill-rule="winding" /><path transform="matrix(1 0 0 -1 0 841)" d="M189.4978 413.6198L191.8198 413.6198L191.8198 413.6198L191.8198 415.9418L191.8198 415.9418L189.4978 415.9418z" stroke="none" fill="#000000" fill-rule="winding" /><path transform="matrix(1 0 0 -1 0 841)" d="M191.8199 413.6198L194.1419 413.6198L194.1419 413.6198L194.1419 415.9418L194.1419 415.9418L191.8199 415.9418z" stroke="none" fill="#000000" fill-rule="winding" /><path transform="matrix(1 0 0 -1 0 841)" d="M194.142 413.6198L196.4641 413.6198L196.4641 413.6198L196.4641 415.9418L196.4641 415.9418L194.142 415.9418z" stroke="none" fill="#000000" fill-rule="winding" /><path transform="matrix(1 0 0 -1 0 841)" d="M136.0919 411.2979L138.4137 411.2979L138.4137 411.2979L138.4137 413.6198L138.4137 413.6198L136.0919 413.6198z" stroke="none" fill="#000000" fill-rule="winding" /><path transform="matrix(1 0 0 -1 0 841)" d="M150.0238 411.2979L152.3458 411.2979L152.3458 411.2979L152.3458 413.6198L152.3458 413.6198L150.0238 413.6198z" stroke="none" fill="#000000" fill-rule="winding" /><path transform="matrix(1 0 0 -1 0 841)" d="M152.3458 411.2979L154.6679 411.2979L154.6679 411.2979L154.6679 413.6198L154.6679 413.6198L152.3458 413.6198z" stroke="none" fill="#000000" fill-rule="winding" /><path transform="matrix(1 0 0 -1 0 841)" d="M154.6679 411.2979L156.9897 411.2979L156.9897 411.2979L156.9897 413.6198L156.9897 413.6198L154.6679 413.6198z" stroke="none" fill="#000000" fill-rule="winding" /><path transform="matrix(1 0 0 -1 0 841)" d="M177.8878 411.2979L180.2098 411.2979L180.2098 411.2979L180.2098 413.6198L180.2098 413.6198L177.8878 413.6198z" stroke="none" fill="#000000" fill-rule="winding" /><path transform="matrix(1 0 0 -1 0 841)" d="M180.2097 411.2979L182.5318 411.2979L182.5318 411.2979L182.5318 413.6198L182.5318 413.6198L180.2097 413.6198z" stroke="none" fill="#000000" fill-rule="winding" /><path transform="matrix(1 0 0 -1 0 841)" d="M182.5319 411.2979L184.8539 411.2979L184.8539 411.2979L184.8539 413.6198L184.8539 413.6198L182.5319 413.6198z" stroke="none" fill="#000000" fill-rule="winding" /><path transform="matrix(1 0 0 -1 0 841)" d="M184.854 411.2979L187.1758 411.2979L187.1758 411.2979L187.1758 413.6198L187.1758 413.6198L184.854 413.6198z" stroke="none" fill="#000000" fill-rule="winding" /><path transform="matrix(1 0 0 -1 0 841)" d="M187.1757 411.2979L189.4977 411.2979L189.4977 411.2979L189.4977 413.6198L189.4977 413.6198L187.1757 413.6198z" stroke="none" fill="#000000" fill-rule="winding" /><path transform="matrix(1 0 0 -1 0 841)" d="M189.4978 411.2979L191.8198 411.2979L191.8198 411.2979L191.8198 413.6198L191.8198 413.6198L189.4978 413.6198z" stroke="none" fill="#000000" fill-rule="winding" /><path transform="matrix(1 0 0 -1 0 841)" d="M191.8199 411.2979L194.1419 411.2979L194.1419 411.2979L194.1419 413.6198L194.1419 413.6198L191.8199 413.6198z" stroke="none" fill="#000000" fill-rule="winding" /><path transform="matrix(1 0 0 -1 0 841)" d="M154.6679 408.9759L156.9897 408.9759L156.9897 408.9759L156.9897 411.2979L156.9897 411.2979L154.6679 411.2979z" stroke="none" fill="#000000" fill-rule="winding" /><path transform="matrix(1 0 0 -1 0 841)" d="M156.9897 408.9759L159.3118 408.9759L159.3118 408.9759L159.3118 411.2979L159.3118 411.2979L156.9897 411.2979z" stroke="none" fill="#000000" fill-rule="winding" /><path transform="matrix(1 0 0 -1 0 841)" d="M159.3118 408.9759L161.6338 408.9759L161.6338 408.9759L161.6338 411.2979L161.6338 411.2979L159.3118 411.2979z" stroke="none" fill="#000000" fill-rule="winding" /><path transform="matrix(1 0 0 -1 0 841)" d="M168.5998 408.9759L170.9218 408.9759L170.9218 408.9759L170.9218 411.2979L170.9218 411.2979L168.5998 411.2979z" stroke="none" fill="#000000" fill-rule="winding" /><path transform="matrix(1 0 0 -1 0 841)" d="M180.2097 408.9759L182.5318 408.9759L182.5318 408.9759L182.5318 411.2979L182.5318 411.2979L180.2097 411.2979z" stroke="none" fill="#000000" fill-rule="winding" /><path transform="matrix(1 0 0 -1 0 841)" d="M182.5319 408.9759L184.8539 408.9759L184.8539 408.9759L184.8539 411.2979L184.8539 411.2979L182.5319 411.2979z" stroke="none" fill="#000000" fill-rule="winding" /><path transform="matrix(1 0 0 -1 0 841)" d="M191.8199 408.9759L194.1419 408.9759L194.1419 408.9759L194.1419 411.2979L194.1419 411.2979L191.8199 411.2979z" stroke="none" fill="#000000" fill-rule="winding" /><path transform="matrix(1 0 0 -1 0 841)" d="M194.142 408.9759L196.4641 408.9759L196.4641 408.9759L196.4641 411.2979L196.4641 411.2979L194.142 411.2979z" stroke="none" fill="#000000" fill-rule="winding" /><path transform="matrix(1 0 0 -1 0 841)" d="M198.7858 408.9759L201.1078 408.9759L201.1078 408.9759L201.1078 411.2979L201.1078 411.2979L198.7858 411.2979z" stroke="none" fill="#000000" fill-rule="winding" /><path transform="matrix(1 0 0 -1 0 841)" d="M201.1079 408.9759L203.43 408.9759L203.43 408.9759L203.43 411.2979L203.43 411.2979L201.1079 411.2979z" stroke="none" fill="#000000" fill-rule="winding" /><path transform="matrix(1 0 0 -1 0 841)" d="M136.0919 406.6538L138.4137 406.6538L138.4137 406.6538L138.4137 408.9759L138.4137 408.9759L136.0919 408.9759z" stroke="none" fill="#000000" fill-rule="winding" /><path transform="matrix(1 0 0 -1 0 841)" d="M138.4137 406.6538L140.7358 406.6538L140.7358 406.6538L140.7358 408.9759L140.7358 408.9759L138.4137 408.9759z" stroke="none" fill="#000000" fill-rule="winding" /><path transform="matrix(1 0 0 -1 0 841)" d="M140.7358 406.6538L143.0578 406.6538L143.0578 406.6538L143.0578 408.9759L143.0578 408.9759L140.7358 408.9759z" stroke="none" fill="#000000" fill-rule="winding" /><path transform="matrix(1 0 0 -1 0 841)" d="M143.0578 406.6538L145.3799 406.6538L145.3799 406.6538L145.3799 408.9759L145.3799 408.9759L143.0578 408.9759z" stroke="none" fill="#000000" fill-rule="winding" /><path transform="matrix(1 0 0 -1 0 841)" d="M145.3799 406.6538L147.7018 406.6538L147.7018 406.6538L147.7018 408.9759L147.7018 408.9759L145.3799 408.9759z" stroke="none" fill="#000000" fill-rule="winding" /><path transform="matrix(1 0 0 -1 0 841)" d="M147.7017 406.6538L150.0238 406.6538L150.0238 406.6538L150.0238 408.9759L150.0238 408.9759L147.7017 408.9759z" stroke="none" fill="#000000" fill-rule="winding" /><path transform="matrix(1 0 0 -1 0 841)" d="M150.0238 406.6538L152.3458 406.6538L152.3458 406.6538L152.3458 408.9759L152.3458 408.9759L150.0238 408.9759z" stroke="none" fill="#000000" fill-rule="winding" /><path transform="matrix(1 0 0 -1 0 841)" d="M156.9897 406.6538L159.3118 406.6538L159.3118 406.6538L159.3118 408.9759L159.3118 408.9759L156.9897 408.9759z" stroke="none" fill="#000000" fill-rule="winding" /><path transform="matrix(1 0 0 -1 0 841)" d="M161.6338 406.6538L163.9559 406.6538L163.9559 406.6538L163.9559 408.9759L163.9559 408.9759L161.6338 408.9759z" stroke="none" fill="#000000" fill-rule="winding" /><path transform="matrix(1 0 0 -1 0 841)" d="M168.5998 406.6538L170.9218 406.6538L170.9218 406.6538L170.9218 408.9759L170.9218 408.9759L168.5998 408.9759z" stroke="none" fill="#000000" fill-rule="winding" /><path transform="matrix(1 0 0 -1 0 841)" d="M170.9218 406.6538L173.2439 406.6538L173.2439 406.6538L173.2439 408.9759L173.2439 408.9759L170.9218 408.9759z" stroke="none" fill="#000000" fill-rule="winding" /><path transform="matrix(1 0 0 -1 0 841)" d="M173.2439 406.6538L175.5659 406.6538L175.5659 406.6538L175.5659 408.9759L175.5659 408.9759L173.2439 408.9759z" stroke="none" fill="#000000" fill-rule="winding" /><path transform="matrix(1 0 0 -1 0 841)" d="M175.5659 406.6538L177.8878 406.6538L177.8878 406.6538L177.8878 408.9759L177.8878 408.9759L175.5659 408.9759z" stroke="none" fill="#000000" fill-rule="winding" /><path transform="matrix(1 0 0 -1 0 841)" d="M180.2097 406.6538L182.5318 406.6538L182.5318 406.6538L182.5318 408.9759L182.5318 408.9759L180.2097 408.9759z" stroke="none" fill="#000000" fill-rule="winding" /><path transform="matrix(1 0 0 -1 0 841)" d="M182.5319 406.6538L184.8539 406.6538L184.8539 406.6538L184.8539 408.9759L184.8539 408.9759L182.5319 408.9759z" stroke="none" fill="#000000" fill-rule="winding" /><path transform="matrix(1 0 0 -1 0 841)" d="M187.1757 406.6538L189.4977 406.6538L189.4977 406.6538L189.4977 408.9759L189.4977 408.9759L187.1757 408.9759z" stroke="none" fill="#000000" fill-rule="winding" /><path transform="matrix(1 0 0 -1 0 841)" d="M191.8199 406.6538L194.1419 406.6538L194.1419 406.6538L194.1419 408.9759L194.1419 408.9759L191.8199 408.9759z" stroke="none" fill="#000000" fill-rule="winding" /><path transform="matrix(1 0 0 -1 0 841)" d="M136.0919 404.3318L138.4137 404.3318L138.4137 404.3318L138.4137 406.6538L138.4137 406.6538L136.0919 406.6538z" stroke="none" fill="#000000" fill-rule="winding" /><path transform="matrix(1 0 0 -1 0 841)" d="M150.0238 404.3318L152.3458 404.3318L152.3458 404.3318L152.3458 406.6538L152.3458 406.6538L150.0238 406.6538z" stroke="none" fill="#000000" fill-rule="winding" /><path transform="matrix(1 0 0 -1 0 841)" d="M159.3118 404.3318L161.6338 404.3318L161.6338 404.3318L161.6338 406.6538L161.6338 406.6538L159.3118 406.6538z" stroke="none" fill="#000000" fill-rule="winding" /><path transform="matrix(1 0 0 -1 0 841)" d="M161.6338 404.3318L163.9559 404.3318L163.9559 404.3318L163.9559 406.6538L163.9559 406.6538L161.6338 406.6538z" stroke="none" fill="#000000" fill-rule="winding" /><path transform="matrix(1 0 0 -1 0 841)" d="M163.9559 404.3318L166.2779 404.3318L166.2779 404.3318L166.2779 406.6538L166.2779 406.6538L163.9559 406.6538z" stroke="none" fill="#000000" fill-rule="winding" /><path transform="matrix(1 0 0 -1 0 841)" d="M166.2779 404.3318L168.5998 404.3318L168.5998 404.3318L168.5998 406.6538L168.5998 406.6538L166.2779 406.6538z" stroke="none" fill="#000000" fill-rule="winding" /><path transform="matrix(1 0 0 -1 0 841)" d="M173.2439 404.3318L175.5659 404.3318L175.5659 404.3318L175.5659 406.6538L175.5659 406.6538L173.2439 406.6538z" stroke="none" fill="#000000" fill-rule="winding" /><path transform="matrix(1 0 0 -1 0 841)" d="M180.2097 404.3318L182.5318 404.3318L182.5318 404.3318L182.5318 406.6538L182.5318 406.6538L180.2097 406.6538z" stroke="none" fill="#000000" fill-rule="winding" /><path transform="matrix(1 0 0 -1 0 841)" d="M182.5319 404.3318L184.8539 404.3318L184.8539 404.3318L184.8539 406.6538L184.8539 406.6538L182.5319 406.6538z" stroke="none" fill="#000000" fill-rule="winding" /><path transform="matrix(1 0 0 -1 0 841)" d="M191.8199 404.3318L194.1419 404.3318L194.1419 404.3318L194.1419 406.6538L194.1419 406.6538L191.8199 406.6538z" stroke="none" fill="#000000" fill-rule="winding" /><path transform="matrix(1 0 0 -1 0 841)" d="M194.142 404.3318L196.4641 404.3318L196.4641 404.3318L196.4641 406.6538L196.4641 406.6538L194.142 406.6538z" stroke="none" fill="#000000" fill-rule="winding" /><path transform="matrix(1 0 0 -1 0 841)" d="M198.7858 404.3318L201.1078 404.3318L201.1078 404.3318L201.1078 406.6538L201.1078 406.6538L198.7858 406.6538z" stroke="none" fill="#000000" fill-rule="winding" /><path transform="matrix(1 0 0 -1 0 841)" d="M201.1079 404.3318L203.43 404.3318L203.43 404.3318L203.43 406.6538L203.43 406.6538L201.1079 406.6538z" stroke="none" fill="#000000" fill-rule="winding" /><path transform="matrix(1 0 0 -1 0 841)" d="M136.0919 402.0099L138.4137 402.0099L138.4137 402.0099L138.4137 404.3318L138.4137 404.3318L136.0919 404.3318z" stroke="none" fill="#000000" fill-rule="winding" /><path transform="matrix(1 0 0 -1 0 841)" d="M140.7358 402.0099L143.0578 402.0099L143.0578 402.0099L143.0578 404.3318L143.0578 404.3318L140.7358 404.3318z" stroke="none" fill="#000000" fill-rule="winding" /><path transform="matrix(1 0 0 -1 0 841)" d="M143.0578 402.0099L145.3799 402.0099L145.3799 402.0099L145.3799 404.3318L145.3799 404.3318L143.0578 404.3318z" stroke="none" fill="#000000" fill-rule="winding" /><path transform="matrix(1 0 0 -1 0 841)" d="M145.3799 402.0099L147.7018 402.0099L147.7018 402.0099L147.7018 404.3318L147.7018 404.3318L145.3799 404.3318z" stroke="none" fill="#000000" fill-rule="winding" /><path transform="matrix(1 0 0 -1 0 841)" d="M150.0238 402.0099L152.3458 402.0099L152.3458 402.0099L152.3458 404.3318L152.3458 404.3318L150.0238 404.3318z" stroke="none" fill="#000000" fill-rule="winding" /><path transform="matrix(1 0 0 -1 0 841)" d="M154.6679 402.0099L156.9897 402.0099L156.9897 402.0099L156.9897 404.3318L156.9897 404.3318L154.6679 404.3318z" stroke="none" fill="#000000" fill-rule="winding" /><path transform="matrix(1 0 0 -1 0 841)" d="M156.9897 402.0099L159.3118 402.0099L159.3118 402.0099L159.3118 404.3318L159.3118 404.3318L156.9897 404.3318z" stroke="none" fill="#000000" fill-rule="winding" /><path transform="matrix(1 0 0 -1 0 841)" d="M159.3118 402.0099L161.6338 402.0099L161.6338 402.0099L161.6338 404.3318L161.6338 404.3318L159.3118 404.3318z" stroke="none" fill="#000000" fill-rule="winding" /><path transform="matrix(1 0 0 -1 0 841)" d="M161.6338 402.0099L163.9559 402.0099L163.9559 402.0099L163.9559 404.3318L163.9559 404.3318L161.6338 404.3318z" stroke="none" fill="#000000" fill-rule="winding" /><path transform="matrix(1 0 0 -1 0 841)" d="M166.2779 402.0099L168.5998 402.0099L168.5998 402.0099L168.5998 404.3318L168.5998 404.3318L166.2779 404.3318z" stroke="none" fill="#000000" fill-rule="winding" /><path transform="matrix(1 0 0 -1 0 841)" d="M168.5998 402.0099L170.9218 402.0099L170.9218 402.0099L170.9218 404.3318L170.9218 404.3318L168.5998 404.3318z" stroke="none" fill="#000000" fill-rule="winding" /><path transform="matrix(1 0 0 -1 0 841)" d="M170.9218 402.0099L173.2439 402.0099L173.2439 402.0099L173.2439 404.3318L173.2439 404.3318L170.9218 404.3318z" stroke="none" fill="#000000" fill-rule="winding" /><path transform="matrix(1 0 0 -1 0 841)" d="M173.2439 402.0099L175.5659 402.0099L175.5659 402.0099L175.5659 404.3318L175.5659 404.3318L173.2439 404.3318z" stroke="none" fill="#000000" fill-rule="winding" /><path transform="matrix(1 0 0 -1 0 841)" d="M177.8878 402.0099L180.2098 402.0099L180.2098 402.0099L180.2098 404.3318L180.2098 404.3318L177.8878 404.3318z" stroke="none" fill="#000000" fill-rule="winding" /><path transform="matrix(1 0 0 -1 0 841)" d="M182.5319 402.0099L184.8539 402.0099L184.8539 402.0099L184.8539 404.3318L184.8539 404.3318L182.5319 404.3318z" stroke="none" fill="#000000" fill-rule="winding" /><path transform="matrix(1 0 0 -1 0 841)" d="M184.854 402.0099L187.1758 402.0099L187.1758 402.0099L187.1758 404.3318L187.1758 404.3318L184.854 404.3318z" stroke="none" fill="#000000" fill-rule="winding" /><path transform="matrix(1 0 0 -1 0 841)" d="M187.1757 402.0099L189.4977 402.0099L189.4977 402.0099L189.4977 404.3318L189.4977 404.3318L187.1757 404.3318z" stroke="none" fill="#000000" fill-rule="winding" /><path transform="matrix(1 0 0 -1 0 841)" d="M189.4978 402.0099L191.8198 402.0099L191.8198 402.0099L191.8198 404.3318L191.8198 404.3318L189.4978 404.3318z" stroke="none" fill="#000000" fill-rule="winding" /><path transform="matrix(1 0 0 -1 0 841)" d="M191.8199 402.0099L194.1419 402.0099L194.1419 402.0099L194.1419 404.3318L194.1419 404.3318L191.8199 404.3318z" stroke="none" fill="#000000" fill-rule="winding" /><path transform="matrix(1 0 0 -1 0 841)" d="M194.142 402.0099L196.4641 402.0099L196.4641 402.0099L196.4641 404.3318L196.4641 404.3318L194.142 404.3318z" stroke="none" fill="#000000" fill-rule="winding" /><path transform="matrix(1 0 0 -1 0 841)" d="M196.4641 402.0099L198.786 402.0099L198.786 402.0099L198.786 404.3318L198.786 404.3318L196.4641 404.3318z" stroke="none" fill="#000000" fill-rule="winding" /><path transform="matrix(1 0 0 -1 0 841)" d="M201.1079 402.0099L203.43 402.0099L203.43 402.0099L203.43 404.3318L203.43 404.3318L201.1079 404.3318z" stroke="none" fill="#000000" fill-rule="winding" /><path transform="matrix(1 0 0 -1 0 841)" d="M136.0919 399.6878L138.4137 399.6878L138.4137 399.6878L138.4137 402.0099L138.4137 402.0099L136.0919 402.0099z" stroke="none" fill="#000000" fill-rule="winding" /><path transform="matrix(1 0 0 -1 0 841)" d="M140.7358 399.6878L143.0578 399.6878L143.0578 399.6878L143.0578 402.0099L143.0578 402.0099L140.7358 402.0099z" stroke="none" fill="#000000" fill-rule="winding" /><path transform="matrix(1 0 0 -1 0 841)" d="M143.0578 399.6878L145.3799 399.6878L145.3799 399.6878L145.3799 402.0099L145.3799 402.0099L143.0578 402.0099z" stroke="none" fill="#000000" fill-rule="winding" /><path transform="matrix(1 0 0 -1 0 841)" d="M145.3799 399.6878L147.7018 399.6878L147.7018 399.6878L147.7018 402.0099L147.7018 402.0099L145.3799 402.0099z" stroke="none" fill="#000000" fill-rule="winding" /><path transform="matrix(1 0 0 -1 0 841)" d="M150.0238 399.6878L152.3458 399.6878L152.3458 399.6878L152.3458 402.0099L152.3458 402.0099L150.0238 402.0099z" stroke="none" fill="#000000" fill-rule="winding" /><path transform="matrix(1 0 0 -1 0 841)" d="M154.6679 399.6878L156.9897 399.6878L156.9897 399.6878L156.9897 402.0099L156.9897 402.0099L154.6679 402.0099z" stroke="none" fill="#000000" fill-rule="winding" /><path transform="matrix(1 0 0 -1 0 841)" d="M156.9897 399.6878L159.3118 399.6878L159.3118 399.6878L159.3118 402.0099L159.3118 402.0099L156.9897 402.0099z" stroke="none" fill="#000000" fill-rule="winding" /><path transform="matrix(1 0 0 -1 0 841)" d="M159.3118 399.6878L161.6338 399.6878L161.6338 399.6878L161.6338 402.0099L161.6338 402.0099L159.3118 402.0099z" stroke="none" fill="#000000" fill-rule="winding" /><path transform="matrix(1 0 0 -1 0 841)" d="M163.9559 399.6878L166.2779 399.6878L166.2779 399.6878L166.2779 402.0099L166.2779 402.0099L163.9559 402.0099z" stroke="none" fill="#000000" fill-rule="winding" /><path transform="matrix(1 0 0 -1 0 841)" d="M168.5998 399.6878L170.9218 399.6878L170.9218 399.6878L170.9218 402.0099L170.9218 402.0099L168.5998 402.0099z" stroke="none" fill="#000000" fill-rule="winding" /><path transform="matrix(1 0 0 -1 0 841)" d="M170.9218 399.6878L173.2439 399.6878L173.2439 399.6878L173.2439 402.0099L173.2439 402.0099L170.9218 402.0099z" stroke="none" fill="#000000" fill-rule="winding" /><path transform="matrix(1 0 0 -1 0 841)" d="M173.2439 399.6878L175.5659 399.6878L175.5659 399.6878L175.5659 402.0099L175.5659 402.0099L173.2439 402.0099z" stroke="none" fill="#000000" fill-rule="winding" /><path transform="matrix(1 0 0 -1 0 841)" d="M177.8878 399.6878L180.2098 399.6878L180.2098 399.6878L180.2098 402.0099L180.2098 402.0099L177.8878 402.0099z" stroke="none" fill="#000000" fill-rule="winding" /><path transform="matrix(1 0 0 -1 0 841)" d="M180.2097 399.6878L182.5318 399.6878L182.5318 399.6878L182.5318 402.0099L182.5318 402.0099L180.2097 402.0099z" stroke="none" fill="#000000" fill-rule="winding" /><path transform="matrix(1 0 0 -1 0 841)" d="M189.4978 399.6878L191.8198 399.6878L191.8198 399.6878L191.8198 402.0099L191.8198 402.0099L189.4978 402.0099z" stroke="none" fill="#000000" fill-rule="winding" /><path transform="matrix(1 0 0 -1 0 841)" d="M136.0919 397.3658L138.4137 397.3658L138.4137 397.3658L138.4137 399.6879L138.4137 399.6879L136.0919 399.6879z" stroke="none" fill="#000000" fill-rule="winding" /><path transform="matrix(1 0 0 -1 0 841)" d="M140.7358 397.3658L143.0578 397.3658L143.0578 397.3658L143.0578 399.6879L143.0578 399.6879L140.7358 399.6879z" stroke="none" fill="#000000" fill-rule="winding" /><path transform="matrix(1 0 0 -1 0 841)" d="M143.0578 397.3658L145.3799 397.3658L145.3799 397.3658L145.3799 399.6879L145.3799 399.6879L143.0578 399.6879z" stroke="none" fill="#000000" fill-rule="winding" /><path transform="matrix(1 0 0 -1 0 841)" d="M145.3799 397.3658L147.7018 397.3658L147.7018 397.3658L147.7018 399.6879L147.7018 399.6879L145.3799 399.6879z" stroke="none" fill="#000000" fill-rule="winding" /><path transform="matrix(1 0 0 -1 0 841)" d="M150.0238 397.3658L152.3458 397.3658L152.3458 397.3658L152.3458 399.6879L152.3458 399.6879L150.0238 399.6879z" stroke="none" fill="#000000" fill-rule="winding" /><path transform="matrix(1 0 0 -1 0 841)" d="M154.6679 397.3658L156.9897 397.3658L156.9897 397.3658L156.9897 399.6879L156.9897 399.6879L154.6679 399.6879z" stroke="none" fill="#000000" fill-rule="winding" /><path transform="matrix(1 0 0 -1 0 841)" d="M159.3118 397.3658L161.6338 397.3658L161.6338 397.3658L161.6338 399.6879L161.6338 399.6879L159.3118 399.6879z" stroke="none" fill="#000000" fill-rule="winding" /><path transform="matrix(1 0 0 -1 0 841)" d="M161.6338 397.3658L163.9559 397.3658L163.9559 397.3658L163.9559 399.6879L163.9559 399.6879L161.6338 399.6879z" stroke="none" fill="#000000" fill-rule="winding" /><path transform="matrix(1 0 0 -1 0 841)" d="M163.9559 397.3658L166.2779 397.3658L166.2779 397.3658L166.2779 399.6879L166.2779 399.6879L163.9559 399.6879z" stroke="none" fill="#000000" fill-rule="winding" /><path transform="matrix(1 0 0 -1 0 841)" d="M166.2779 397.3658L168.5998 397.3658L168.5998 397.3658L168.5998 399.6879L168.5998 399.6879L166.2779 399.6879z" stroke="none" fill="#000000" fill-rule="winding" /><path transform="matrix(1 0 0 -1 0 841)" d="M170.9218 397.3658L173.2439 397.3658L173.2439 397.3658L173.2439 399.6879L173.2439 399.6879L170.9218 399.6879z" stroke="none" fill="#000000" fill-rule="winding" /><path transform="matrix(1 0 0 -1 0 841)" d="M175.5659 397.3658L177.8878 397.3658L177.8878 397.3658L177.8878 399.6879L177.8878 399.6879L175.5659 399.6879z" stroke="none" fill="#000000" fill-rule="winding" /><path transform="matrix(1 0 0 -1 0 841)" d="M187.1757 397.3658L189.4977 397.3658L189.4977 397.3658L189.4977 399.6879L189.4977 399.6879L187.1757 399.6879z" stroke="none" fill="#000000" fill-rule="winding" /><path transform="matrix(1 0 0 -1 0 841)" d="M191.8199 397.3658L194.1419 397.3658L194.1419 397.3658L194.1419 399.6879L194.1419 399.6879L191.8199 399.6879z" stroke="none" fill="#000000" fill-rule="winding" /><path transform="matrix(1 0 0 -1 0 841)" d="M194.142 397.3658L196.4641 397.3658L196.4641 397.3658L196.4641 399.6879L196.4641 399.6879L194.142 399.6879z" stroke="none" fill="#000000" fill-rule="winding" /><path transform="matrix(1 0 0 -1 0 841)" d="M196.4641 397.3658L198.786 397.3658L198.786 397.3658L198.786 399.6879L198.786 399.6879L196.4641 399.6879z" stroke="none" fill="#000000" fill-rule="winding" /><path transform="matrix(1 0 0 -1 0 841)" d="M198.7858 397.3658L201.1078 397.3658L201.1078 397.3658L201.1078 399.6879L201.1078 399.6879L198.7858 399.6879z" stroke="none" fill="#000000" fill-rule="winding" /><path transform="matrix(1 0 0 -1 0 841)" d="M136.0919 395.0438L138.4137 395.0438L138.4137 395.0438L138.4137 397.3658L138.4137 397.3658L136.0919 397.3658z" stroke="none" fill="#000000" fill-rule="winding" /><path transform="matrix(1 0 0 -1 0 841)" d="M150.0238 395.0438L152.3458 395.0438L152.3458 395.0438L152.3458 397.3658L152.3458 397.3658L150.0238 397.3658z" stroke="none" fill="#000000" fill-rule="winding" /><path transform="matrix(1 0 0 -1 0 841)" d="M159.3118 395.0438L161.6338 395.0438L161.6338 395.0438L161.6338 397.3658L161.6338 397.3658L159.3118 397.3658z" stroke="none" fill="#000000" fill-rule="winding" /><path transform="matrix(1 0 0 -1 0 841)" d="M161.6338 395.0438L163.9559 395.0438L163.9559 395.0438L163.9559 397.3658L163.9559 397.3658L161.6338 397.3658z" stroke="none" fill="#000000" fill-rule="winding" /><path transform="matrix(1 0 0 -1 0 841)" d="M166.2779 395.0438L168.5998 395.0438L168.5998 395.0438L168.5998 397.3658L168.5998 397.3658L166.2779 397.3658z" stroke="none" fill="#000000" fill-rule="winding" /><path transform="matrix(1 0 0 -1 0 841)" d="M168.5998 395.0438L170.9218 395.0438L170.9218 395.0438L170.9218 397.3658L170.9218 397.3658L168.5998 397.3658z" stroke="none" fill="#000000" fill-rule="winding" /><path transform="matrix(1 0 0 -1 0 841)" d="M173.2439 395.0438L175.5659 395.0438L175.5659 395.0438L175.5659 397.3658L175.5659 397.3658L173.2439 397.3658z" stroke="none" fill="#000000" fill-rule="winding" /><path transform="matrix(1 0 0 -1 0 841)" d="M177.8878 395.0438L180.2098 395.0438L180.2098 395.0438L180.2098 397.3658L180.2098 397.3658L177.8878 397.3658z" stroke="none" fill="#000000" fill-rule="winding" /><path transform="matrix(1 0 0 -1 0 841)" d="M187.1757 395.0438L189.4977 395.0438L189.4977 395.0438L189.4977 397.3658L189.4977 397.3658L187.1757 397.3658z" stroke="none" fill="#000000" fill-rule="winding" /><path transform="matrix(1 0 0 -1 0 841)" d="M191.8199 395.0438L194.1419 395.0438L194.1419 395.0438L194.1419 397.3658L194.1419 397.3658L191.8199 397.3658z" stroke="none" fill="#000000" fill-rule="winding" /><path transform="matrix(1 0 0 -1 0 841)" d="M194.142 395.0438L196.4641 395.0438L196.4641 395.0438L196.4641 397.3658L196.4641 397.3658L194.142 397.3658z" stroke="none" fill="#000000" fill-rule="winding" /><path transform="matrix(1 0 0 -1 0 841)" d="M198.7858 395.0438L201.1078 395.0438L201.1078 395.0438L201.1078 397.3658L201.1078 397.3658L198.7858 397.3658z" stroke="none" fill="#000000" fill-rule="winding" /><path transform="matrix(1 0 0 -1 0 841)" d="M136.0919 392.7219L138.4137 392.7219L138.4137 392.7219L138.4137 395.0438L138.4137 395.0438L136.0919 395.0438z" stroke="none" fill="#000000" fill-rule="winding" /><path transform="matrix(1 0 0 -1 0 841)" d="M138.4137 392.7219L140.7358 392.7219L140.7358 392.7219L140.7358 395.0438L140.7358 395.0438L138.4137 395.0438z" stroke="none" fill="#000000" fill-rule="winding" /><path transform="matrix(1 0 0 -1 0 841)" d="M140.7358 392.7219L143.0578 392.7219L143.0578 392.7219L143.0578 395.0438L143.0578 395.0438L140.7358 395.0438z" stroke="none" fill="#000000" fill-rule="winding" /><path transform="matrix(1 0 0 -1 0 841)" d="M143.0578 392.7219L145.3799 392.7219L145.3799 392.7219L145.3799 395.0438L145.3799 395.0438L143.0578 395.0438z" stroke="none" fill="#000000" fill-rule="winding" /><path transform="matrix(1 0 0 -1 0 841)" d="M145.3799 392.7219L147.7018 392.7219L147.7018 392.7219L147.7018 395.0438L147.7018 395.0438L145.3799 395.0438z" stroke="none" fill="#000000" fill-rule="winding" /><path transform="matrix(1 0 0 -1 0 841)" d="M147.7017 392.7219L150.0238 392.7219L150.0238 392.7219L150.0238 395.0438L150.0238 395.0438L147.7017 395.0438z" stroke="none" fill="#000000" fill-rule="winding" /><path transform="matrix(1 0 0 -1 0 841)" d="M150.0238 392.7219L152.3458 392.7219L152.3458 392.7219L152.3458 395.0438L152.3458 395.0438L150.0238 395.0438z" stroke="none" fill="#000000" fill-rule="winding" /><path transform="matrix(1 0 0 -1 0 841)" d="M156.9897 392.7219L159.3118 392.7219L159.3118 392.7219L159.3118 395.0438L159.3118 395.0438L156.9897 395.0438z" stroke="none" fill="#000000" fill-rule="winding" /><path transform="matrix(1 0 0 -1 0 841)" d="M159.3118 392.7219L161.6338 392.7219L161.6338 392.7219L161.6338 395.0438L161.6338 395.0438L159.3118 395.0438z" stroke="none" fill="#000000" fill-rule="winding" /><path transform="matrix(1 0 0 -1 0 841)" d="M161.6338 392.7219L163.9559 392.7219L163.9559 392.7219L163.9559 395.0438L163.9559 395.0438L161.6338 395.0438z" stroke="none" fill="#000000" fill-rule="winding" /><path transform="matrix(1 0 0 -1 0 841)" d="M168.5998 392.7219L170.9218 392.7219L170.9218 392.7219L170.9218 395.0438L170.9218 395.0438L168.5998 395.0438z" stroke="none" fill="#000000" fill-rule="winding" /><path transform="matrix(1 0 0 -1 0 841)" d="M180.2097 392.7219L182.5318 392.7219L182.5318 392.7219L182.5318 395.0438L182.5318 395.0438L180.2097 395.0438z" stroke="none" fill="#000000" fill-rule="winding" /><path transform="matrix(1 0 0 -1 0 841)" d="M191.8199 392.7219L194.1419 392.7219L194.1419 392.7219L194.1419 395.0438L194.1419 395.0438L191.8199 395.0438z" stroke="none" fill="#000000" fill-rule="winding" /><path transform="matrix(1 0 0 -1 0 841)" d="M196.4641 392.7219L198.786 392.7219L198.786 392.7219L198.786 395.0438L198.786 395.0438L196.4641 395.0438z" stroke="none" fill="#000000" fill-rule="winding" /></g><path transform="matrix(1 0 0 -1 0 841)" d="M124.8 169.14L486.44 169.14L486.44 169.14L486.44 376.05L486.44 376.05L124.8 376.05z" stroke="none" fill="#EBEBEB" fill-rule="winding" /></g></g></g></svg>