<svg xmlns="http://www.w3.org/2000/svg" xmlns:xlink="http://www.w3.org/1999/xlink" id="body_8" preserveAspectRatio="xMinYMin meet" viewBox="0 0 793 1121"><defs><clipPath id="1"><path d="M0 841L0 -0.8900146L0 -0.8900146L595.276 -0.8900146L595.276 -0.8900146L595.276 841L595.276 841L0 841z" /></clipPath></defs><g transform="matrix(1.333333 0 0 1.333333 0 0)"><g><g clip-path="url(#1)"><path transform="matrix(1 0 0 -1 0 841)" d="M86.4 780.197L508.876 780.197" stroke="#000000" stroke-width="0.398" fill="none" /><path transform="matrix(1 0 0 -1 0 841)" d="M300.344 370.925L339.83 370.925" stroke="#000000" stroke-width="0.436" fill="none" /><path transform="matrix(1 0 0 -1 0 841)" d="M269.745 338.93L274.839 338.93" stroke="#000000" stroke-width="0.436" fill="none" /><path transform="matrix(1 0 0 -1 0 841)" d="M307.693 338.93L316.455 338.93" stroke="#000000" stroke-width="0.436" fill="none" /><path transform="matrix(1 0 0 -1 0 841)" d="M262.775 296.948L269.011 296.948" stroke="#000000" stroke-width="0.436" fill="none" /><path transform="matrix(1 0 0 -1 0 841)" d="M253.372 268.603L278.413 268.603" stroke="#000000" stroke-width="0.436" fill="none" /><path transform="matrix(1 0 0 -1 0 841)" d="M163.84 231.418L172.079 231.418" stroke="#000000" stroke-width="0.436" fill="none" /><path transform="matrix(1 0 0 -1 0 841)" d="M187.804 231.418L215.001 231.418" stroke="#000000" stroke-width="0.436" fill="none" /><path transform="matrix(1 0 0 -1 0 841)" d="M412.301 195.273L421.063 195.273" stroke="#000000" stroke-width="0.436" fill="none" /><path transform="matrix(1 0 0 -1 0 841)" d="M278.513 151.961L307.107 151.961" stroke="#000000" stroke-width="0.436" fill="none" /><path transform="matrix(1 0 0 -1 0 841)" d="M279.49 106.436L327.665 106.436" stroke="#000000" stroke-width="0.436" fill="none" /></g></g></g></svg>