<svg xmlns="http://www.w3.org/2000/svg" xmlns:xlink="http://www.w3.org/1999/xlink" id="body_14" preserveAspectRatio="xMinYMin meet" viewBox="0 0 793 1121"><defs><clipPath id="1"><path d="M0 841L0 -0.8900146L0 -0.8900146L595.276 -0.8900146L595.276 -0.8900146L595.276 841L595.276 841L0 841z" /></clipPath></defs><g transform="matrix(1.333333 0 0 1.333333 0 0)"><g><g clip-path="url(#1)"><path transform="matrix(1 0 0 -1 0 841)" d="M86.4 780.197L508.876 780.197" stroke="#000000" stroke-width="0.398" fill="none" /><path transform="matrix(1 0 0 -1 0 841)" d="M130.727 747.258L149.725 747.258" stroke="#000000" stroke-width="0.436" fill="none" /><path transform="matrix(1 0 0 -1 0 841)" d="M254.211 681.085L286.665 681.085" stroke="#000000" stroke-width="0.436" fill="none" /><path transform="matrix(1 0 0 -1 0 841)" d="M370.683 681.085L403.137 681.085" stroke="#000000" stroke-width="0.436" fill="none" /><path transform="matrix(1 0 0 -1 0 841)" d="M249.254 617.318L276.976 617.318" stroke="#000000" stroke-width="0.436" fill="none" /><path transform="matrix(1 0 0 -1 0 841)" d="M356.036 617.318L379.819 617.318" stroke="#000000" stroke-width="0.436" fill="none" /><path transform="matrix(1 0 0 -1 0 841)" d="M276.339 585.597L300.122 585.597" stroke="#000000" stroke-width="0.436" fill="none" /><path transform="matrix(1 0 0 -1 0 841)" d="M249.254 553.186L273.037 553.186" stroke="#000000" stroke-width="0.436" fill="none" /><path transform="matrix(1 0 0 -1 0 841)" d="M232.192 522.929L248.058 522.929" stroke="#000000" stroke-width="0.436" fill="none" /><path transform="matrix(1 0 0 -1 0 841)" d="M280.549 456.852L365.845 456.852" stroke="#000000" stroke-width="0.436" fill="none" /><path transform="matrix(1 0 0 -1 0 841)" d="M381.569 456.852L454.511 456.852" stroke="#000000" stroke-width="0.436" fill="none" /><path transform="matrix(1 0 0 -1 0 841)" d="M294.646 387.685L345.439 387.685" stroke="#000000" stroke-width="0.436" fill="none" /></g></g></g></svg>