<svg xmlns="http://www.w3.org/2000/svg" xmlns:xlink="http://www.w3.org/1999/xlink" id="body_1" preserveAspectRatio="xMinYMin meet" viewBox="0 0 793 1121"><defs><clipPath id="1"><path d="M0 841L0 -0.8900146L0 -0.8900146L595.276 -0.8900146L595.276 -0.8900146L595.276 841L595.276 841L0 841z" /></clipPath></defs><g transform="matrix(1.333333 0 0 1.333333 0 0)"><g><g clip-path="url(#1)"><path transform="matrix(1 0 0 -1 0 841)" d="M104.143 749.58L204.693 749.58" stroke="#000000" stroke-width="0.498" fill="none" /><path transform="matrix(1 0 0 -1 0 841)" d="M104.143 732.045L204.693 732.045" stroke="#000000" stroke-width="0.498" fill="none" /><path transform="matrix(1 0 0 -1 0 841)" d="M104.143 714.511L204.693 714.511" stroke="#000000" stroke-width="0.498" fill="none" /><path transform="matrix(1 0 0 -1 0 841)" d="M104.143 696.977L204.693 696.977" stroke="#000000" stroke-width="0.498" fill="none" /><path transform="matrix(1 0 0 -1 0 841)" d="M408.326 749.58L508.876 749.58" stroke="#000000" stroke-width="0.498" fill="none" /><path transform="matrix(1 0 0 -1 0 841)" d="M408.326 732.045L508.876 732.045" stroke="#000000" stroke-width="0.498" fill="none" /><path transform="matrix(1 0 0 -1 0 841)" d="M408.326 714.511L508.876 714.511" stroke="#000000" stroke-width="0.498" fill="none" /><path transform="matrix(1 0 0 -1 0 841)" d="M408.326 696.977L508.876 696.977" stroke="#000000" stroke-width="0.498" fill="none" /><path transform="matrix(1 0 0 -1 0 841)" d="M86.4 680.877L508.876 680.877" stroke="#000000" stroke-width="0.498" fill="none" /></g></g></g></svg>