<svg xmlns="http://www.w3.org/2000/svg" xmlns:xlink="http://www.w3.org/1999/xlink" id="body_11" preserveAspectRatio="xMinYMin meet" viewBox="0 0 793 1121"><defs><clipPath id="1"><path d="M0 841L0 -0.8900146L0 -0.8900146L595.276 -0.8900146L595.276 -0.8900146L595.276 841L595.276 841L0 841z" /></clipPath><clipPath id="2"><path d="M212.5981 435.05L382.6758 435.05L382.6758 435.05L382.6758 299.9881L382.6758 299.9881L212.5981 299.9881z" /></clipPath><clipPath id="3"><path d="M206.9827 294.3331L395.7936 294.3331L395.7936 294.3331L395.7936 435.9414L395.7936 435.9414L206.9827 435.9414L206.9827 435.9414L206.9827 294.3331z" /></clipPath><clipPath id="4"><path d="M206.9827 294.3331L395.7936 294.3331L395.7936 294.3331L395.7936 435.9414L395.7936 435.9414L206.9827 435.9414L206.9827 435.9414L206.9827 294.3331z" /></clipPath></defs><g transform="matrix(1.333333 0 0 1.333333 0 0)"><g><g clip-path="url(#1)"><path transform="matrix(1 0 0 -1 0 841)" d="M86.4 780.197L508.876 780.197" stroke="#000000" stroke-width="0.398" fill="none" /><g clip-path="url(#2)"><g clip-path="url(#3)"><path transform="matrix(1 0 0 -1 0 841)" d="M206.9827 546.6669L395.7936 546.6669L395.7936 546.6669L395.7936 405.0586L395.7936 405.0586L206.9827 405.0586z" stroke="none" fill="#FFFFFF" fill-rule="winding" /></g><g clip-path="url(#4)"><path transform="matrix(1 0 0 -1 0 841)" d="M206.9827 546.6669L395.7936 546.6669L395.7936 546.6669L395.7936 405.0586L395.7936 405.0586L206.9827 405.0586z" stroke="none" fill="#FFFFFF" fill-rule="winding" /></g><path transform="matrix(1 0 0 -1 0 841)" d="M231.5955 420.5681L377.924 420.5681L377.924 420.5681L377.924 536.2148L377.924 536.2148L231.5955 536.2148z" stroke="none" fill="#FFFFFF" fill-rule="winding" /><path transform="matrix(1 0 0 -1 0 841)" d="M231.5955 420.5681L377.924 420.5681" stroke="#262626" stroke-width="0.3371625" stroke-linecap="square" fill="none" /><path transform="matrix(1 0 0 -1 0 841)" d="M231.5955 536.2148L377.924 536.2148" stroke="#262626" stroke-width="0.3371625" stroke-linecap="square" fill="none" /><path transform="matrix(1 0 0 -1 0 841)" d="M231.5955 420.5681L231.5955 422.0314" stroke="#262626" stroke-width="0.3371625" stroke-linecap="square" fill="none" /><path transform="matrix(1 0 0 -1 0 841)" d="M231.5955 536.2148L231.5955 534.7515" stroke="#262626" stroke-width="0.3371625" stroke-linecap="square" fill="none" /><path transform="matrix(1 0 0 -1 0 841)" d="M249.8866 420.5681L249.8866 422.0314" stroke="#262626" stroke-width="0.3371625" stroke-linecap="square" fill="none" /><path transform="matrix(1 0 0 -1 0 841)" d="M249.8866 536.2148L249.8866 534.7515" stroke="#262626" stroke-width="0.3371625" stroke-linecap="square" fill="none" /><path transform="matrix(1 0 0 -1 0 841)" d="M268.1776 420.5681L268.1776 422.0314" stroke="#262626" stroke-width="0.3371625" stroke-linecap="square" fill="none" /><path transform="matrix(1 0 0 -1 0 841)" d="M268.1776 536.2148L268.1776 534.7515" stroke="#262626" stroke-width="0.3371625" stroke-linecap="square" fill="none" /><path transform="matrix(1 0 0 -1 0 841)" d="M286.4687 420.5681L286.4687 422.0314" stroke="#262626" stroke-width="0.3371625" stroke-linecap="square" fill="none" /><path transform="matrix(1 0 0 -1 0 841)" d="M286.4687 536.2148L286.4687 534.7515" stroke="#262626" stroke-width="0.3371625" stroke-linecap="square" fill="none" /><path transform="matrix(1 0 0 -1 0 841)" d="M304.7598 420.5681L304.7598 422.0314" stroke="#262626" stroke-width="0.3371625" stroke-linecap="square" fill="none" /><path transform="matrix(1 0 0 -1 0 841)" d="M304.7598 536.2148L304.7598 534.7515" stroke="#262626" stroke-width="0.3371625" stroke-linecap="square" fill="none" /><path transform="matrix(1 0 0 -1 0 841)" d="M323.0508 420.5681L323.0508 422.0314" stroke="#262626" stroke-width="0.3371625" stroke-linecap="square" fill="none" /><path transform="matrix(1 0 0 -1 0 841)" d="M323.0508 536.2148L323.0508 534.7515" stroke="#262626" stroke-width="0.3371625" stroke-linecap="square" fill="none" /><path transform="matrix(1 0 0 -1 0 841)" d="M341.3419 420.5681L341.3419 422.0314" stroke="#262626" stroke-width="0.3371625" stroke-linecap="square" fill="none" /><path transform="matrix(1 0 0 -1 0 841)" d="M341.3419 536.2148L341.3419 534.7515" stroke="#262626" stroke-width="0.3371625" stroke-linecap="square" fill="none" /><path transform="matrix(1 0 0 -1 0 841)" d="M359.633 420.5681L359.633 422.0314" stroke="#262626" stroke-width="0.3371625" stroke-linecap="square" fill="none" /><path transform="matrix(1 0 0 -1 0 841)" d="M359.633 536.2148L359.633 534.7515" stroke="#262626" stroke-width="0.3371625" stroke-linecap="square" fill="none" /><path transform="matrix(1 0 0 -1 0 841)" d="M377.924 420.5681L377.924 422.0314" stroke="#262626" stroke-width="0.3371625" stroke-linecap="square" fill="none" /><path transform="matrix(1 0 0 -1 0 841)" d="M377.924 536.2148L377.924 534.7515" stroke="#262626" stroke-width="0.3371625" stroke-linecap="square" fill="none" /><path transform="matrix(1 0 0 -1 0 841)" d="M221.1435 464.7894L217.5233 464.7894L217.5233 464.7894L217.5233 466.155C 217.5233 466.3954 217.5348 466.5789 217.5578 466.7057C 217.5875 466.8835 217.6439 467.0325 217.727 467.1527C 217.8102 467.2729 217.9266 467.3696 218.0764 467.4429C 218.2262 467.5161 218.3909 467.5528 218.5703 467.5528C 219.186 467.5528 219.6717 467.221 219.6717 466.197L219.6717 466.197L219.6717 465.2685L219.6717 465.2685L221.1435 465.2685zM219.2445 465.2685L219.2445 466.2044C 219.2445 466.8234 219.0033 467.0589 218.5851 467.0589C 218.2822 467.0589 218.0517 466.8918 217.9826 466.6415C 217.9612 466.5609 217.9505 466.4119 217.9505 466.1945L217.9505 466.1945L217.9505 465.2685z" stroke="none" fill="#262626" fill-rule="evenodd" /><path transform="matrix(1 0 0 -1 0 841)" d="M220.82 469.8173C 221.0999 469.488 221.2028 469.2007 221.2028 468.8517C 221.2028 468.2755 220.89 467.9553 220.452 467.9553C 220.3236 467.9553 220.2063 467.9845 220.1001 468.043C 219.994 468.1014 219.9088 468.178 219.8446 468.2726C 219.7803 468.3673 219.7318 468.4739 219.6989 468.5924C 219.6758 468.6797 219.6536 468.8114 219.6322 468.9875C 219.5894 469.3464 219.5383 469.6107 219.4791 469.7802C 219.4182 469.7819 219.3795 469.7827 219.363 469.7827C 219.1819 469.7827 219.0543 469.7407 218.9803 469.6568C 218.8798 469.5432 218.8296 469.3744 218.8296 469.1505C 218.8296 468.7324 218.9564 468.562 219.3284 468.4665L219.3284 468.4665L219.2692 468.0319C 219.0831 468.0714 218.9329 468.1364 218.8185 468.227C 218.7041 468.3175 218.616 468.4484 218.5543 468.6196C 218.4925 468.7908 218.4617 468.9892 218.4617 469.2147C 218.4617 469.4386 218.488 469.6205 218.5407 469.7605C 218.5934 469.9004 218.6596 470.0033 218.7395 470.0692C 218.8193 470.135 218.9202 470.1811 219.042 470.2075C 219.1177 470.2223 219.2544 470.2297 219.4519 470.2297L219.4519 470.2297L220.0446 470.2297C 220.871 470.2297 220.9426 470.2585 221.1435 470.3704L221.1435 470.3704L221.1435 469.9062C 221.0513 469.8601 220.9435 469.8304 220.82 469.8173zM219.8273 469.7802C 219.8931 469.6189 219.9491 469.3769 219.9952 469.0542C 220.0215 468.8715 220.0512 468.7422 220.0841 468.6665C 220.117 468.5908 220.1652 468.5323 220.2286 468.4912C 220.2919 468.45 220.3623 468.4294 220.4397 468.4294C 220.6768 468.4294 220.8546 468.6122 220.8546 468.9579C 220.8546 469.3004 220.6949 469.5835 220.4348 469.7086C 220.3343 469.7564 220.1862 469.7802 219.9903 469.7802z" stroke="none" fill="#262626" fill-rule="evenodd" /><path transform="matrix(1 0 0 -1 0 841)" d="M221.1435 470.9129L218.5209 470.9129L218.5209 470.9129L218.5209 471.313L218.5209 471.313L218.9185 471.313C 218.5464 471.5172 218.4617 471.6735 218.4617 471.881C 218.4617 472.0308 218.5094 472.1831 218.6049 472.3378L218.6049 472.3378L219.0173 472.1847C 218.9531 472.076 218.921 471.9674 218.921 471.8587C 218.921 471.6645 219.0445 471.4974 219.2519 471.4315C 219.4099 471.3821 219.5828 471.3575 219.7705 471.3575L219.7705 471.3575L221.1435 471.3575z" stroke="none" fill="#262626" fill-rule="evenodd" /><path transform="matrix(1 0 0 -1 0 841)" d="M220.82 474.3134C 221.0999 473.9841 221.2028 473.6968 221.2028 473.3478C 221.2028 472.7716 220.89 472.4514 220.452 472.4514C 220.3236 472.4514 220.2063 472.4806 220.1001 472.539C 219.994 472.5975 219.9088 472.674 219.8446 472.7687C 219.7803 472.8634 219.7318 472.97 219.6989 473.0885C 219.6758 473.1758 219.6536 473.3075 219.6322 473.4836C 219.5894 473.8425 219.5383 474.1067 219.4791 474.2763C 219.4182 474.278 219.3795 474.2788 219.363 474.2788C 219.1819 474.2788 219.0543 474.2368 218.9803 474.1528C 218.8798 474.0392 218.8296 473.8705 218.8296 473.6466C 218.8296 473.2284 218.9564 473.058 219.3284 472.9626L219.3284 472.9626L219.2692 472.5279C 219.0831 472.5674 218.9329 472.6325 218.8185 472.723C 218.7041 472.8136 218.616 472.9444 218.5543 473.1157C 218.4925 473.2869 218.4617 473.4853 218.4617 473.7108C 218.4617 473.9347 218.488 474.1166 218.5407 474.2565C 218.5934 474.3965 218.6596 474.4994 218.7395 474.5652C 218.8193 474.6311 218.9202 474.6772 219.042 474.7035C 219.1177 474.7183 219.2544 474.7257 219.4519 474.7257L219.4519 474.7257L220.0446 474.7257C 220.871 474.7257 220.9426 474.7545 221.1435 474.8665L221.1435 474.8665L221.1435 474.4023C 221.0513 474.3561 220.9435 474.3265 220.82 474.3134zM219.8273 474.2763C 219.8931 474.115 219.9491 473.873 219.9952 473.5503C 220.0215 473.3676 220.0512 473.2383 220.0841 473.1626C 220.117 473.0869 220.1652 473.0284 220.2286 472.9872C 220.2919 472.9461 220.3623 472.9255 220.4397 472.9255C 220.6768 472.9255 220.8546 473.1082 220.8546 473.454C 220.8546 473.7964 220.6949 474.0796 220.4348 474.2047C 220.3343 474.2524 220.1862 474.2763 219.9903 474.2763z" stroke="none" fill="#262626" fill-rule="evenodd" /><path transform="matrix(1 0 0 -1 0 841)" d="M221.1435 475.4139L218.5209 475.4139L218.5209 475.4139L218.5209 475.8115L218.5209 475.8115L218.8889 475.8115C 218.6321 475.9762 218.4617 476.2577 218.4617 476.6067C 218.4617 476.9952 218.6312 477.2455 218.921 477.3475C 218.6148 477.555 218.4617 477.825 218.4617 478.1575C 218.4617 478.6777 218.744 478.9675 219.3433 478.9675L219.3433 478.9675L221.1435 478.9675L221.1435 478.9675L221.1435 478.5255L221.1435 478.5255L219.4914 478.5255C 219.3136 478.5255 219.1856 478.511 219.1074 478.4822C 219.0292 478.4534 218.9663 478.4012 218.9185 478.3254C 218.8708 478.2497 218.8469 478.1608 218.8469 478.0587C 218.8469 477.6899 219.0798 477.4167 219.6198 477.4167L219.6198 477.4167L221.1435 477.4167L221.1435 477.4167L221.1435 476.9722L221.1435 476.9722L219.4396 476.9722C 219.0445 476.9722 218.8469 476.8372 218.8469 476.5079C 218.8469 476.3828 218.8798 476.2672 218.9457 476.1609C 219.0115 476.0548 219.1078 475.9778 219.2346 475.9301C 219.3614 475.8823 219.5441 475.8585 219.7828 475.8585L219.7828 475.8585L221.1435 475.8585z" stroke="none" fill="#262626" fill-rule="evenodd" /><path transform="matrix(1 0 0 -1 0 841)" d="M220.2989 481.4221L220.3557 481.8814C 220.8924 481.7365 221.2028 481.3373 221.2028 480.7282C 221.2028 479.961 220.7072 479.4786 219.8544 479.4786C 218.972 479.4786 218.4617 479.9791 218.4617 480.7035C 218.4617 481.4048 218.9613 481.8962 219.8273 481.8962C 219.8536 481.8962 219.8931 481.8954 219.9458 481.8937L219.9458 481.8937L219.9458 479.9379C 220.522 479.9709 220.8373 480.2927 220.8373 480.7306C 220.8373 481.0566 220.6743 481.2871 220.2989 481.4221zM219.5803 479.9626L219.5803 481.427C 219.3597 481.4073 219.1943 481.3513 219.084 481.2591C 218.9128 481.1175 218.8271 480.934 218.8271 480.7084C 218.8271 480.3001 219.1227 479.9923 219.5803 479.9626z" stroke="none" fill="#262626" fill-rule="evenodd" /><path transform="matrix(1 0 0 -1 0 841)" d="M220.7459 483.4092L221.1385 483.4734C 221.1649 483.3483 221.1781 483.2364 221.1781 483.1376C 221.1781 482.9763 221.1525 482.8511 221.1015 482.7622C 221.0505 482.6733 220.9834 482.6108 220.9003 482.5746C 220.8171 482.5383 220.6422 482.5202 220.3755 482.5202L220.3755 482.5202L218.8667 482.5202L218.8667 482.5202L218.8667 482.1942L218.8667 482.1942L218.5209 482.1942L218.5209 482.1942L218.5209 482.5202L218.5209 482.5202L217.8715 482.5202L217.8715 482.5202L217.6048 482.9622L217.6048 482.9622L218.5209 482.9622L218.5209 482.9622L218.5209 483.4092L218.5209 483.4092L218.8667 483.4092L218.8667 483.4092L218.8667 482.9622L218.8667 482.9622L220.4002 482.9622C 220.5269 482.9622 220.6084 482.9701 220.6447 482.9857C 220.6809 483.0013 220.7097 483.0269 220.7311 483.0623C 220.7525 483.0977 220.7632 483.1483 220.7632 483.2141C 220.7632 483.2635 220.7574 483.3286 220.7459 483.4092z" stroke="none" fill="#262626" fill-rule="evenodd" /><path transform="matrix(1 0 0 -1 0 841)" d="M220.2989 485.64L220.3557 486.0993C 220.8924 485.9544 221.2028 485.5552 221.2028 484.9461C 221.2028 484.1789 220.7072 483.6965 219.8544 483.6965C 218.972 483.6965 218.4617 484.197 218.4617 484.9214C 218.4617 485.6227 218.9613 486.1141 219.8273 486.1141C 219.8536 486.1141 219.8931 486.1133 219.9458 486.1116L219.9458 486.1116L219.9458 484.1559C 220.522 484.1888 220.8373 484.5106 220.8373 484.9485C 220.8373 485.2745 220.6743 485.505 220.2989 485.64zM219.5803 484.1805L219.5803 485.6449C 219.3597 485.6252 219.1943 485.5692 219.084 485.477C 218.9128 485.3354 218.8271 485.1519 218.8271 484.9263C 218.8271 484.518 219.1227 484.2102 219.5803 484.1805z" stroke="none" fill="#262626" fill-rule="evenodd" /><path transform="matrix(1 0 0 -1 0 841)" d="M221.1435 486.6517L218.5209 486.6517L218.5209 486.6517L218.5209 487.0517L218.5209 487.0517L218.9185 487.0517C 218.5464 487.2559 218.4617 487.4123 218.4617 487.6197C 218.4617 487.7695 218.5094 487.9218 218.6049 488.0766L218.6049 488.0766L219.0173 487.9235C 218.9531 487.8148 218.921 487.7061 218.921 487.5975C 218.921 487.4032 219.0445 487.2361 219.2519 487.1703C 219.4099 487.1209 219.5828 487.0962 219.7705 487.0962L219.7705 487.0962L221.1435 487.0962z" stroke="none" fill="#262626" fill-rule="evenodd" /><path transform="matrix(1 0 0 -1 0 841)" d="" stroke="none" fill="#262626" fill-rule="evenodd" /><path transform="matrix(1 0 0 -1 0 841)" d="M222.0942 489.8272C 222.0745 489.8272 222.0613 489.8288 222.0547 489.8321L222.0547 489.8321L220.0347 490.3334C 219.8536 490.3812 219.6762 490.4631 219.5025 490.5791C 219.3289 490.6952 219.1864 490.8355 219.0753 491.0002C 218.9642 491.1648 218.9086 491.3385 218.9086 491.5212C 218.9086 491.6678 218.9469 491.7957 219.0235 491.9052C 219.1 492.0147 219.2004 492.097 219.3247 492.1522C 219.449 492.2073 219.5853 492.2349 219.7334 492.2349C 219.8964 492.2349 220.0652 492.2016 220.2397 492.1349C 220.4142 492.0682 220.5739 491.976 220.7188 491.8583C 220.8636 491.7406 220.9801 491.6052 221.0682 491.4521C 221.1563 491.299 221.2003 491.1385 221.2003 490.9706C 221.2003 490.773 221.0727 490.5853 220.8817 490.4865L220.8817 490.4865L222.0745 490.1877C 222.17 490.168 222.235 490.0791 222.235 489.9803C 222.235 489.898 222.1798 489.8272 222.0942 489.8272zM221.0669 490.9804C 221.0669 491.1599 220.9752 491.3159 220.7916 491.4484C 220.608 491.5809 220.3924 491.6822 220.1446 491.7521C 219.8968 491.8221 219.6873 491.8571 219.5161 491.8571C 219.2593 491.8571 219.0395 491.7484 219.0395 491.5114C 219.0395 491.3648 219.0951 491.2356 219.2062 491.1237C 219.3173 491.0117 219.4478 490.922 219.5976 490.8545C 219.7474 490.787 219.9038 490.7318 220.0668 490.689L220.0668 490.689L220.6323 490.5508C 220.876 490.5935 221.0669 490.7499 221.0669 490.9804z" stroke="none" fill="#262626" fill-rule="evenodd" /><path transform="matrix(1 0 0 -1 0 841)" d="M231.5955 420.5681L231.5955 536.2148" stroke="#262626" stroke-width="0.3371625" stroke-linecap="square" fill="none" /><path transform="matrix(1 0 0 -1 0 841)" d="M377.924 420.5681L377.924 536.2148" stroke="#262626" stroke-width="0.3371625" stroke-linecap="square" fill="none" /><path transform="matrix(1 0 0 -1 0 841)" d="M231.5955 420.5681L233.0588 420.5681" stroke="#262626" stroke-width="0.3371625" stroke-linecap="square" fill="none" /><path transform="matrix(1 0 0 -1 0 841)" d="M377.924 420.5681L376.4608 420.5681" stroke="#262626" stroke-width="0.3371625" stroke-linecap="square" fill="none" /><path transform="matrix(1 0 0 -1 0 841)" d="M231.5955 432.1328L233.0588 432.1328" stroke="#262626" stroke-width="0.3371625" stroke-linecap="square" fill="none" /><path transform="matrix(1 0 0 -1 0 841)" d="M377.924 432.1328L376.4608 432.1328" stroke="#262626" stroke-width="0.3371625" stroke-linecap="square" fill="none" /><path transform="matrix(1 0 0 -1 0 841)" d="M231.5955 443.6974L233.0588 443.6974" stroke="#262626" stroke-width="0.3371625" stroke-linecap="square" fill="none" /><path transform="matrix(1 0 0 -1 0 841)" d="M377.924 443.6974L376.4608 443.6974" stroke="#262626" stroke-width="0.3371625" stroke-linecap="square" fill="none" /><path transform="matrix(1 0 0 -1 0 841)" d="M231.5955 455.2621L233.0588 455.2621" stroke="#262626" stroke-width="0.3371625" stroke-linecap="square" fill="none" /><path transform="matrix(1 0 0 -1 0 841)" d="M377.924 455.2621L376.4608 455.2621" stroke="#262626" stroke-width="0.3371625" stroke-linecap="square" fill="none" /><path transform="matrix(1 0 0 -1 0 841)" d="M231.5955 466.8268L233.0588 466.8268" stroke="#262626" stroke-width="0.3371625" stroke-linecap="square" fill="none" /><path transform="matrix(1 0 0 -1 0 841)" d="M377.924 466.8268L376.4608 466.8268" stroke="#262626" stroke-width="0.3371625" stroke-linecap="square" fill="none" /><path transform="matrix(1 0 0 -1 0 841)" d="M231.5955 478.3914L233.0588 478.3914" stroke="#262626" stroke-width="0.3371625" stroke-linecap="square" fill="none" /><path transform="matrix(1 0 0 -1 0 841)" d="M377.924 478.3914L376.4608 478.3914" stroke="#262626" stroke-width="0.3371625" stroke-linecap="square" fill="none" /><path transform="matrix(1 0 0 -1 0 841)" d="M231.5955 489.9561L233.0588 489.9561" stroke="#262626" stroke-width="0.3371625" stroke-linecap="square" fill="none" /><path transform="matrix(1 0 0 -1 0 841)" d="M377.924 489.9561L376.4608 489.9561" stroke="#262626" stroke-width="0.3371625" stroke-linecap="square" fill="none" /><path transform="matrix(1 0 0 -1 0 841)" d="M231.5955 501.5208L233.0588 501.5208" stroke="#262626" stroke-width="0.3371625" stroke-linecap="square" fill="none" /><path transform="matrix(1 0 0 -1 0 841)" d="M377.924 501.5208L376.4608 501.5208" stroke="#262626" stroke-width="0.3371625" stroke-linecap="square" fill="none" /><path transform="matrix(1 0 0 -1 0 841)" d="M231.5955 513.0855L233.0588 513.0855" stroke="#262626" stroke-width="0.3371625" stroke-linecap="square" fill="none" /><path transform="matrix(1 0 0 -1 0 841)" d="M377.924 513.0855L376.4608 513.0855" stroke="#262626" stroke-width="0.3371625" stroke-linecap="square" fill="none" /><path transform="matrix(1 0 0 -1 0 841)" d="M231.5955 524.6501L233.0588 524.6501" stroke="#262626" stroke-width="0.3371625" stroke-linecap="square" fill="none" /><path transform="matrix(1 0 0 -1 0 841)" d="M377.924 524.6501L376.4608 524.6501" stroke="#262626" stroke-width="0.3371625" stroke-linecap="square" fill="none" /><path transform="matrix(1 0 0 -1 0 841)" d="M231.5955 536.2148L233.0588 536.2148" stroke="#262626" stroke-width="0.3371625" stroke-linecap="square" fill="none" /><path transform="matrix(1 0 0 -1 0 841)" d="M377.924 536.2148L376.4608 536.2148" stroke="#262626" stroke-width="0.3371625" stroke-linecap="square" fill="none" /><path transform="matrix(1 0 0 -1 0 841)" d="M240.8675 442.9894L242.2161 442.9894L242.2161 442.9894L241.8211 443.943z" stroke="none" fill="#0072BD" fill-rule="winding" /><path transform="matrix(1 0 0 -1 0 841)" d="M240.8675 442.9894L241.8211 443.943L241.8211 443.943L240.8675 444.338z" stroke="none" fill="#0072BD" fill-rule="winding" /><path transform="matrix(1 0 0 -1 0 841)" d="M240.8675 442.9894L240.8675 444.338L240.8675 444.338L239.9138 443.943z" stroke="none" fill="#0072BD" fill-rule="winding" /><path transform="matrix(1 0 0 -1 0 841)" d="M240.8675 442.9894L239.9138 443.943L239.9138 443.943L239.5188 442.9894z" stroke="none" fill="#0072BD" fill-rule="winding" /><path transform="matrix(1 0 0 -1 0 841)" d="M240.8675 442.9894L239.5188 442.9894L239.5188 442.9894L239.9138 442.0358z" stroke="none" fill="#0072BD" fill-rule="winding" /><path transform="matrix(1 0 0 -1 0 841)" d="M240.8675 442.9894L239.9138 442.0358L239.9138 442.0358L240.8675 441.6407z" stroke="none" fill="#0072BD" fill-rule="winding" /><path transform="matrix(1 0 0 -1 0 841)" d="M240.8675 442.9894L240.8675 441.6407L240.8675 441.6407L241.8211 442.0358z" stroke="none" fill="#0072BD" fill-rule="winding" /><path transform="matrix(1 0 0 -1 0 841)" d="M240.8675 442.9894L241.8211 442.0358L241.8211 442.0358L242.2161 442.9894z" stroke="none" fill="#0072BD" fill-rule="winding" /><path transform="matrix(1 0 0 -1 0 841)" d="M242.2161 442.9894L241.9586 443.7821L241.9586 443.7821L241.2842 444.272L241.2842 444.272L240.4507 444.272L240.4507 444.272L239.7764 443.7821L239.7764 443.7821L239.5188 442.9894L239.5188 442.9894L239.7764 442.1967L239.7764 442.1967L240.4507 441.7068L240.4507 441.7068L241.2842 441.7068L241.2842 441.7068L241.9586 442.1967L241.9586 442.1967L242.2161 442.9894" stroke="#0072BD" stroke-width="0.3371625" stroke-linecap="square" fill="none" /><path transform="matrix(1 0 0 -1 0 841)" d="M249.9709 438.6063L251.3195 438.6063L251.3195 438.6063L250.9245 439.5599z" stroke="none" fill="#0072BD" fill-rule="winding" /><path transform="matrix(1 0 0 -1 0 841)" d="M249.9709 438.6063L250.9245 439.5599L250.9245 439.5599L249.9709 439.9549z" stroke="none" fill="#0072BD" fill-rule="winding" /><path transform="matrix(1 0 0 -1 0 841)" d="M249.9709 438.6063L249.9709 439.9549L249.9709 439.9549L249.0172 439.5599z" stroke="none" fill="#0072BD" fill-rule="winding" /><path transform="matrix(1 0 0 -1 0 841)" d="M249.9709 438.6063L249.0172 439.5599L249.0172 439.5599L248.6222 438.6063z" stroke="none" fill="#0072BD" fill-rule="winding" /><path transform="matrix(1 0 0 -1 0 841)" d="M249.9709 438.6063L248.6222 438.6063L248.6222 438.6063L249.0172 437.6526z" stroke="none" fill="#0072BD" fill-rule="winding" /><path transform="matrix(1 0 0 -1 0 841)" d="M249.9709 438.6063L249.0172 437.6526L249.0172 437.6526L249.9709 437.2576z" stroke="none" fill="#0072BD" fill-rule="winding" /><path transform="matrix(1 0 0 -1 0 841)" d="M249.9709 438.6063L249.9709 437.2576L249.9709 437.2576L250.9245 437.6526z" stroke="none" fill="#0072BD" fill-rule="winding" /><path transform="matrix(1 0 0 -1 0 841)" d="M249.9709 438.6063L250.9245 437.6526L250.9245 437.6526L251.3195 438.6063z" stroke="none" fill="#0072BD" fill-rule="winding" /><path transform="matrix(1 0 0 -1 0 841)" d="M251.3195 438.6063L251.062 439.399L251.062 439.399L250.3876 439.8889L250.3876 439.8889L249.5541 439.8889L249.5541 439.8889L248.8798 439.399L248.8798 439.399L248.6222 438.6063L248.6222 438.6063L248.8798 437.8136L248.8798 437.8136L249.5541 437.3236L249.5541 437.3236L250.3876 437.3236L250.3876 437.3236L251.062 437.8136L251.062 437.8136L251.3195 438.6063" stroke="#0072BD" stroke-width="0.3371625" stroke-linecap="square" fill="none" /><path transform="matrix(1 0 0 -1 0 841)" d="M259.0743 499.2955L260.4229 499.2955L260.4229 499.2955L260.0279 500.2492z" stroke="none" fill="#0072BD" fill-rule="winding" /><path transform="matrix(1 0 0 -1 0 841)" d="M259.0743 499.2955L260.0279 500.2492L260.0279 500.2492L259.0743 500.6442z" stroke="none" fill="#0072BD" fill-rule="winding" /><path transform="matrix(1 0 0 -1 0 841)" d="M259.0743 499.2955L259.0743 500.6442L259.0743 500.6442L258.1206 500.2492z" stroke="none" fill="#0072BD" fill-rule="winding" /><path transform="matrix(1 0 0 -1 0 841)" d="M259.0743 499.2955L258.1206 500.2492L258.1206 500.2492L257.7256 499.2955z" stroke="none" fill="#0072BD" fill-rule="winding" /><path transform="matrix(1 0 0 -1 0 841)" d="M259.0743 499.2955L257.7256 499.2955L257.7256 499.2955L258.1206 498.3419z" stroke="none" fill="#0072BD" fill-rule="winding" /><path transform="matrix(1 0 0 -1 0 841)" d="M259.0743 499.2955L258.1206 498.3419L258.1206 498.3419L259.0743 497.9469z" stroke="none" fill="#0072BD" fill-rule="winding" /><path transform="matrix(1 0 0 -1 0 841)" d="M259.0743 499.2955L259.0743 497.9469L259.0743 497.9469L260.0279 498.3419z" stroke="none" fill="#0072BD" fill-rule="winding" /><path transform="matrix(1 0 0 -1 0 841)" d="M259.0743 499.2955L260.0279 498.3419L260.0279 498.3419L260.4229 499.2955z" stroke="none" fill="#0072BD" fill-rule="winding" /><path transform="matrix(1 0 0 -1 0 841)" d="M260.4229 499.2955L260.1653 500.0883L260.1653 500.0883L259.491 500.5782L259.491 500.5782L258.6575 500.5782L258.6575 500.5782L257.9832 500.0883L257.9832 500.0883L257.7256 499.2955L257.7256 499.2955L257.9832 498.5028L257.9832 498.5028L258.6575 498.0129L258.6575 498.0129L259.491 498.0129L259.491 498.0129L260.1653 498.5028L260.1653 498.5028L260.4229 499.2955" stroke="#0072BD" stroke-width="0.3371625" stroke-linecap="square" fill="none" /><path transform="matrix(1 0 0 -1 0 841)" d="M268.1776 484.4604L269.5263 484.4604L269.5263 484.4604L269.1313 485.414z" stroke="none" fill="#0072BD" fill-rule="winding" /><path transform="matrix(1 0 0 -1 0 841)" d="M268.1776 484.4604L269.1313 485.414L269.1313 485.414L268.1776 485.809z" stroke="none" fill="#0072BD" fill-rule="winding" /><path transform="matrix(1 0 0 -1 0 841)" d="M268.1776 484.4604L268.1776 485.809L268.1776 485.809L267.224 485.414z" stroke="none" fill="#0072BD" fill-rule="winding" /><path transform="matrix(1 0 0 -1 0 841)" d="M268.1776 484.4604L267.224 485.414L267.224 485.414L266.829 484.4604z" stroke="none" fill="#0072BD" fill-rule="winding" /><path transform="matrix(1 0 0 -1 0 841)" d="M268.1776 484.4604L266.829 484.4604L266.829 484.4604L267.224 483.5067z" stroke="none" fill="#0072BD" fill-rule="winding" /><path transform="matrix(1 0 0 -1 0 841)" d="M268.1776 484.4604L267.224 483.5067L267.224 483.5067L268.1776 483.1117z" stroke="none" fill="#0072BD" fill-rule="winding" /><path transform="matrix(1 0 0 -1 0 841)" d="M268.1776 484.4604L268.1776 483.1117L268.1776 483.1117L269.1313 483.5067z" stroke="none" fill="#0072BD" fill-rule="winding" /><path transform="matrix(1 0 0 -1 0 841)" d="M268.1776 484.4604L269.1313 483.5067L269.1313 483.5067L269.5263 484.4604z" stroke="none" fill="#0072BD" fill-rule="winding" /><path transform="matrix(1 0 0 -1 0 841)" d="M269.5263 484.4604L269.2687 485.2531L269.2687 485.2531L268.5944 485.743L268.5944 485.743L267.7609 485.743L267.7609 485.743L267.0866 485.2531L267.0866 485.2531L266.829 484.4604L266.829 484.4604L267.0866 483.6677L267.0866 483.6677L267.7609 483.1777L267.7609 483.1777L268.5944 483.1777L268.5944 483.1777L269.2687 483.6677L269.2687 483.6677L269.5263 484.4604" stroke="#0072BD" stroke-width="0.3371625" stroke-linecap="square" fill="none" /><path transform="matrix(1 0 0 -1 0 841)" d="M277.281 442.9894L278.6297 442.9894L278.6297 442.9894L278.2347 443.943z" stroke="none" fill="#0072BD" fill-rule="winding" /><path transform="matrix(1 0 0 -1 0 841)" d="M277.281 442.9894L278.2347 443.943L278.2347 443.943L277.281 444.338z" stroke="none" fill="#0072BD" fill-rule="winding" /><path transform="matrix(1 0 0 -1 0 841)" d="M277.281 442.9894L277.281 444.338L277.281 444.338L276.3274 443.943z" stroke="none" fill="#0072BD" fill-rule="winding" /><path transform="matrix(1 0 0 -1 0 841)" d="M277.281 442.9894L276.3274 443.943L276.3274 443.943L275.9324 442.9894z" stroke="none" fill="#0072BD" fill-rule="winding" /><path transform="matrix(1 0 0 -1 0 841)" d="M277.281 442.9894L275.9324 442.9894L275.9324 442.9894L276.3274 442.0358z" stroke="none" fill="#0072BD" fill-rule="winding" /><path transform="matrix(1 0 0 -1 0 841)" d="M277.281 442.9894L276.3274 442.0358L276.3274 442.0358L277.281 441.6407z" stroke="none" fill="#0072BD" fill-rule="winding" /><path transform="matrix(1 0 0 -1 0 841)" d="M277.281 442.9894L277.281 441.6407L277.281 441.6407L278.2347 442.0358z" stroke="none" fill="#0072BD" fill-rule="winding" /><path transform="matrix(1 0 0 -1 0 841)" d="M277.281 442.9894L278.2347 442.0358L278.2347 442.0358L278.6297 442.9894z" stroke="none" fill="#0072BD" fill-rule="winding" /><path transform="matrix(1 0 0 -1 0 841)" d="M278.6297 442.9894L278.3721 443.7821L278.3721 443.7821L277.6978 444.272L277.6978 444.272L276.8643 444.272L276.8643 444.272L276.1899 443.7821L276.1899 443.7821L275.9324 442.9894L275.9324 442.9894L276.1899 442.1967L276.1899 442.1967L276.8643 441.7068L276.8643 441.7068L277.6978 441.7068L277.6978 441.7068L278.3721 442.1967L278.3721 442.1967L278.6297 442.9894" stroke="#0072BD" stroke-width="0.3371625" stroke-linecap="square" fill="none" /><path transform="matrix(1 0 0 -1 0 841)" d="M286.3844 431.5259L287.7331 431.5259L287.7331 431.5259L287.3381 432.4795z" stroke="none" fill="#0072BD" fill-rule="winding" /><path transform="matrix(1 0 0 -1 0 841)" d="M286.3844 431.5259L287.3381 432.4795L287.3381 432.4795L286.3844 432.8745z" stroke="none" fill="#0072BD" fill-rule="winding" /><path transform="matrix(1 0 0 -1 0 841)" d="M286.3844 431.5259L286.3844 432.8745L286.3844 432.8745L285.4308 432.4795z" stroke="none" fill="#0072BD" fill-rule="winding" /><path transform="matrix(1 0 0 -1 0 841)" d="M286.3844 431.5259L285.4308 432.4795L285.4308 432.4795L285.0358 431.5259z" stroke="none" fill="#0072BD" fill-rule="winding" /><path transform="matrix(1 0 0 -1 0 841)" d="M286.3844 431.5259L285.0358 431.5259L285.0358 431.5259L285.4308 430.5722z" stroke="none" fill="#0072BD" fill-rule="winding" /><path transform="matrix(1 0 0 -1 0 841)" d="M286.3844 431.5259L285.4308 430.5722L285.4308 430.5722L286.3844 430.1772z" stroke="none" fill="#0072BD" fill-rule="winding" /><path transform="matrix(1 0 0 -1 0 841)" d="M286.3844 431.5259L286.3844 430.1772L286.3844 430.1772L287.3381 430.5722z" stroke="none" fill="#0072BD" fill-rule="winding" /><path transform="matrix(1 0 0 -1 0 841)" d="M286.3844 431.5259L287.3381 430.5722L287.3381 430.5722L287.7331 431.5259z" stroke="none" fill="#0072BD" fill-rule="winding" /><path transform="matrix(1 0 0 -1 0 841)" d="M287.7331 431.5259L287.4755 432.3186L287.4755 432.3186L286.8012 432.8085L286.8012 432.8085L285.9677 432.8085L285.9677 432.8085L285.2933 432.3186L285.2933 432.3186L285.0358 431.5259L285.0358 431.5259L285.2933 430.7332L285.2933 430.7332L285.9677 430.2432L285.9677 430.2432L286.8012 430.2432L286.8012 430.2432L287.4755 430.7332L287.4755 430.7332L287.7331 431.5259" stroke="#0072BD" stroke-width="0.3371625" stroke-linecap="square" fill="none" /><path transform="matrix(1 0 0 -1 0 841)" d="M295.4878 455.1273L296.8365 455.1273L296.8365 455.1273L296.4415 456.0809z" stroke="none" fill="#0072BD" fill-rule="winding" /><path transform="matrix(1 0 0 -1 0 841)" d="M295.4878 455.1273L296.4415 456.0809L296.4415 456.0809L295.4878 456.4759z" stroke="none" fill="#0072BD" fill-rule="winding" /><path transform="matrix(1 0 0 -1 0 841)" d="M295.4878 455.1273L295.4878 456.4759L295.4878 456.4759L294.5342 456.0809z" stroke="none" fill="#0072BD" fill-rule="winding" /><path transform="matrix(1 0 0 -1 0 841)" d="M295.4878 455.1273L294.5342 456.0809L294.5342 456.0809L294.1392 455.1273z" stroke="none" fill="#0072BD" fill-rule="winding" /><path transform="matrix(1 0 0 -1 0 841)" d="M295.4878 455.1273L294.1392 455.1273L294.1392 455.1273L294.5342 454.1736z" stroke="none" fill="#0072BD" fill-rule="winding" /><path transform="matrix(1 0 0 -1 0 841)" d="M295.4878 455.1273L294.5342 454.1736L294.5342 454.1736L295.4878 453.7786z" stroke="none" fill="#0072BD" fill-rule="winding" /><path transform="matrix(1 0 0 -1 0 841)" d="M295.4878 455.1273L295.4878 453.7786L295.4878 453.7786L296.4415 454.1736z" stroke="none" fill="#0072BD" fill-rule="winding" /><path transform="matrix(1 0 0 -1 0 841)" d="M295.4878 455.1273L296.4415 454.1736L296.4415 454.1736L296.8365 455.1273z" stroke="none" fill="#0072BD" fill-rule="winding" /><path transform="matrix(1 0 0 -1 0 841)" d="M296.8365 455.1273L296.5789 455.92L296.5789 455.92L295.9046 456.4099L295.9046 456.4099L295.071 456.4099L295.071 456.4099L294.3967 455.92L294.3967 455.92L294.1392 455.1273L294.1392 455.1273L294.3967 454.3345L294.3967 454.3345L295.071 453.8446L295.071 453.8446L295.9046 453.8446L295.9046 453.8446L296.5789 454.3345L296.5789 454.3345L296.8365 455.1273" stroke="#0072BD" stroke-width="0.3371625" stroke-linecap="square" fill="none" /><path transform="matrix(1 0 0 -1 0 841)" d="M304.9283 462.2076L306.277 462.2076L306.277 462.2076L305.882 463.1613z" stroke="none" fill="#0072BD" fill-rule="winding" /><path transform="matrix(1 0 0 -1 0 841)" d="M304.9283 462.2076L305.882 463.1613L305.882 463.1613L304.9283 463.5563z" stroke="none" fill="#0072BD" fill-rule="winding" /><path transform="matrix(1 0 0 -1 0 841)" d="M304.9283 462.2076L304.9283 463.5563L304.9283 463.5563L303.9747 463.1613z" stroke="none" fill="#0072BD" fill-rule="winding" /><path transform="matrix(1 0 0 -1 0 841)" d="M304.9283 462.2076L303.9747 463.1613L303.9747 463.1613L303.5797 462.2076z" stroke="none" fill="#0072BD" fill-rule="winding" /><path transform="matrix(1 0 0 -1 0 841)" d="M304.9283 462.2076L303.5797 462.2076L303.5797 462.2076L303.9747 461.254z" stroke="none" fill="#0072BD" fill-rule="winding" /><path transform="matrix(1 0 0 -1 0 841)" d="M304.9283 462.2076L303.9747 461.254L303.9747 461.254L304.9283 460.859z" stroke="none" fill="#0072BD" fill-rule="winding" /><path transform="matrix(1 0 0 -1 0 841)" d="M304.9283 462.2076L304.9283 460.859L304.9283 460.859L305.882 461.254z" stroke="none" fill="#0072BD" fill-rule="winding" /><path transform="matrix(1 0 0 -1 0 841)" d="M304.9283 462.2076L305.882 461.254L305.882 461.254L306.277 462.2076z" stroke="none" fill="#0072BD" fill-rule="winding" /><path transform="matrix(1 0 0 -1 0 841)" d="M306.277 462.2076L306.0194 463.0004L306.0194 463.0004L305.3451 463.4903L305.3451 463.4903L304.5116 463.4903L304.5116 463.4903L303.8373 463.0004L303.8373 463.0004L303.5797 462.2076L303.5797 462.2076L303.8373 461.4149L303.8373 461.4149L304.5116 460.925L304.5116 460.925L305.3451 460.925L305.3451 460.925L306.0194 461.4149L306.0194 461.4149L306.277 462.2076" stroke="#0072BD" stroke-width="0.3371625" stroke-linecap="square" fill="none" /><path transform="matrix(1 0 0 -1 0 841)" d="M314.0317 506.3759L315.3804 506.3759L315.3804 506.3759L314.9854 507.3296z" stroke="none" fill="#0072BD" fill-rule="winding" /><path transform="matrix(1 0 0 -1 0 841)" d="M314.0317 506.3759L314.9854 507.3296L314.9854 507.3296L314.0317 507.7246z" stroke="none" fill="#0072BD" fill-rule="winding" /><path transform="matrix(1 0 0 -1 0 841)" d="M314.0317 506.3759L314.0317 507.7246L314.0317 507.7246L313.0781 507.3296z" stroke="none" fill="#0072BD" fill-rule="winding" /><path transform="matrix(1 0 0 -1 0 841)" d="M314.0317 506.3759L313.0781 507.3296L313.0781 507.3296L312.6831 506.3759z" stroke="none" fill="#0072BD" fill-rule="winding" /><path transform="matrix(1 0 0 -1 0 841)" d="M314.0317 506.3759L312.6831 506.3759L312.6831 506.3759L313.0781 505.4223z" stroke="none" fill="#0072BD" fill-rule="winding" /><path transform="matrix(1 0 0 -1 0 841)" d="M314.0317 506.3759L313.0781 505.4223L313.0781 505.4223L314.0317 505.0273z" stroke="none" fill="#0072BD" fill-rule="winding" /><path transform="matrix(1 0 0 -1 0 841)" d="M314.0317 506.3759L314.0317 505.0273L314.0317 505.0273L314.9854 505.4223z" stroke="none" fill="#0072BD" fill-rule="winding" /><path transform="matrix(1 0 0 -1 0 841)" d="M314.0317 506.3759L314.9854 505.4223L314.9854 505.4223L315.3804 506.3759z" stroke="none" fill="#0072BD" fill-rule="winding" /><path transform="matrix(1 0 0 -1 0 841)" d="M315.3804 506.3759L315.1228 507.1687L315.1228 507.1687L314.4485 507.6586L314.4485 507.6586L313.615 507.6586L313.615 507.6586L312.9407 507.1687L312.9407 507.1687L312.6831 506.3759L312.6831 506.3759L312.9407 505.5832L312.9407 505.5832L313.615 505.0933L313.615 505.0933L314.4485 505.0933L314.4485 505.0933L315.1228 505.5832L315.1228 505.5832L315.3804 506.3759" stroke="#0072BD" stroke-width="0.3371625" stroke-linecap="square" fill="none" /><path transform="matrix(1 0 0 -1 0 841)" d="M323.1351 514.805L324.4838 514.805L324.4838 514.805L324.0888 515.7587z" stroke="none" fill="#0072BD" fill-rule="winding" /><path transform="matrix(1 0 0 -1 0 841)" d="M323.1351 514.805L324.0888 515.7587L324.0888 515.7587L323.1351 516.1537z" stroke="none" fill="#0072BD" fill-rule="winding" /><path transform="matrix(1 0 0 -1 0 841)" d="M323.1351 514.805L323.1351 516.1537L323.1351 516.1537L322.1815 515.7587z" stroke="none" fill="#0072BD" fill-rule="winding" /><path transform="matrix(1 0 0 -1 0 841)" d="M323.1351 514.805L322.1815 515.7587L322.1815 515.7587L321.7865 514.805z" stroke="none" fill="#0072BD" fill-rule="winding" /><path transform="matrix(1 0 0 -1 0 841)" d="M323.1351 514.805L321.7865 514.805L321.7865 514.805L322.1815 513.8514z" stroke="none" fill="#0072BD" fill-rule="winding" /><path transform="matrix(1 0 0 -1 0 841)" d="M323.1351 514.805L322.1815 513.8514L322.1815 513.8514L323.1351 513.4564z" stroke="none" fill="#0072BD" fill-rule="winding" /><path transform="matrix(1 0 0 -1 0 841)" d="M323.1351 514.805L323.1351 513.4564L323.1351 513.4564L324.0888 513.8514z" stroke="none" fill="#0072BD" fill-rule="winding" /><path transform="matrix(1 0 0 -1 0 841)" d="M323.1351 514.805L324.0888 513.8514L324.0888 513.8514L324.4838 514.805z" stroke="none" fill="#0072BD" fill-rule="winding" /><path transform="matrix(1 0 0 -1 0 841)" d="M324.4838 514.805L324.2262 515.5977L324.2262 515.5977L323.5519 516.0876L323.5519 516.0876L322.7184 516.0876L322.7184 516.0876L322.0441 515.5977L322.0441 515.5977L321.7865 514.805L321.7865 514.805L322.0441 514.0123L322.0441 514.0123L322.7184 513.5223L322.7184 513.5223L323.5519 513.5223L323.5519 513.5223L324.2262 514.0123L324.2262 514.0123L324.4838 514.805" stroke="#0072BD" stroke-width="0.3371625" stroke-linecap="square" fill="none" /><path transform="matrix(1 0 0 -1 0 841)" d="M332.2385 524.5827L333.5872 524.5827L333.5872 524.5827L333.1922 525.5364z" stroke="none" fill="#0072BD" fill-rule="winding" /><path transform="matrix(1 0 0 -1 0 841)" d="M332.2385 524.5827L333.1922 525.5364L333.1922 525.5364L332.2385 525.9314z" stroke="none" fill="#0072BD" fill-rule="winding" /><path transform="matrix(1 0 0 -1 0 841)" d="M332.2385 524.5827L332.2385 525.9314L332.2385 525.9314L331.2849 525.5364z" stroke="none" fill="#0072BD" fill-rule="winding" /><path transform="matrix(1 0 0 -1 0 841)" d="M332.2385 524.5827L331.2849 525.5364L331.2849 525.5364L330.8899 524.5827z" stroke="none" fill="#0072BD" fill-rule="winding" /><path transform="matrix(1 0 0 -1 0 841)" d="M332.2385 524.5827L330.8899 524.5827L330.8899 524.5827L331.2849 523.6291z" stroke="none" fill="#0072BD" fill-rule="winding" /><path transform="matrix(1 0 0 -1 0 841)" d="M332.2385 524.5827L331.2849 523.6291L331.2849 523.6291L332.2385 523.2341z" stroke="none" fill="#0072BD" fill-rule="winding" /><path transform="matrix(1 0 0 -1 0 841)" d="M332.2385 524.5827L332.2385 523.2341L332.2385 523.2341L333.1922 523.6291z" stroke="none" fill="#0072BD" fill-rule="winding" /><path transform="matrix(1 0 0 -1 0 841)" d="M332.2385 524.5827L333.1922 523.6291L333.1922 523.6291L333.5872 524.5827z" stroke="none" fill="#0072BD" fill-rule="winding" /><path transform="matrix(1 0 0 -1 0 841)" d="M333.5872 524.5827L333.3296 525.3754L333.3296 525.3754L332.6553 525.8654L332.6553 525.8654L331.8218 525.8654L331.8218 525.8654L331.1475 525.3754L331.1475 525.3754L330.8899 524.5827L330.8899 524.5827L331.1475 523.79L331.1475 523.79L331.8218 523.3001L331.8218 523.3001L332.6553 523.3001L332.6553 523.3001L333.3296 523.79L333.3296 523.79L333.5872 524.5827" stroke="#0072BD" stroke-width="0.3371625" stroke-linecap="square" fill="none" /><path transform="matrix(1 0 0 -1 0 841)" d="M341.3419 529.6401L342.6906 529.6401L342.6906 529.6401L342.2955 530.5938z" stroke="none" fill="#0072BD" fill-rule="winding" /><path transform="matrix(1 0 0 -1 0 841)" d="M341.3419 529.6401L342.2955 530.5938L342.2955 530.5938L341.3419 530.9888z" stroke="none" fill="#0072BD" fill-rule="winding" /><path transform="matrix(1 0 0 -1 0 841)" d="M341.3419 529.6401L341.3419 530.9888L341.3419 530.9888L340.3883 530.5938z" stroke="none" fill="#0072BD" fill-rule="winding" /><path transform="matrix(1 0 0 -1 0 841)" d="M341.3419 529.6401L340.3883 530.5938L340.3883 530.5938L339.9933 529.6401z" stroke="none" fill="#0072BD" fill-rule="winding" /><path transform="matrix(1 0 0 -1 0 841)" d="M341.3419 529.6401L339.9933 529.6401L339.9933 529.6401L340.3883 528.6865z" stroke="none" fill="#0072BD" fill-rule="winding" /><path transform="matrix(1 0 0 -1 0 841)" d="M341.3419 529.6401L340.3883 528.6865L340.3883 528.6865L341.3419 528.2915z" stroke="none" fill="#0072BD" fill-rule="winding" /><path transform="matrix(1 0 0 -1 0 841)" d="M341.3419 529.6401L341.3419 528.2915L341.3419 528.2915L342.2955 528.6865z" stroke="none" fill="#0072BD" fill-rule="winding" /><path transform="matrix(1 0 0 -1 0 841)" d="M341.3419 529.6401L342.2955 528.6865L342.2955 528.6865L342.6906 529.6401z" stroke="none" fill="#0072BD" fill-rule="winding" /><path transform="matrix(1 0 0 -1 0 841)" d="M342.6906 529.6401L342.433 530.4329L342.433 530.4329L341.7587 530.9228L341.7587 530.9228L340.9252 530.9228L340.9252 530.9228L340.2509 530.4329L340.2509 530.4329L339.9933 529.6401L339.9933 529.6401L340.2509 528.8475L340.2509 528.8475L340.9252 528.3575L340.9252 528.3575L341.7587 528.3575L341.7587 528.3575L342.433 528.8475L342.433 528.8475L342.6906 529.6401" stroke="#0072BD" stroke-width="0.3371625" stroke-linecap="square" fill="none" /><path transform="matrix(1 0 0 -1 0 841)" d="M350.4453 532.3375L351.7939 532.3375L351.7939 532.3375L351.3989 533.2911z" stroke="none" fill="#0072BD" fill-rule="winding" /><path transform="matrix(1 0 0 -1 0 841)" d="M350.4453 532.3375L351.3989 533.2911L351.3989 533.2911L350.4453 533.6861z" stroke="none" fill="#0072BD" fill-rule="winding" /><path transform="matrix(1 0 0 -1 0 841)" d="M350.4453 532.3375L350.4453 533.6861L350.4453 533.6861L349.4916 533.2911z" stroke="none" fill="#0072BD" fill-rule="winding" /><path transform="matrix(1 0 0 -1 0 841)" d="M350.4453 532.3375L349.4916 533.2911L349.4916 533.2911L349.0966 532.3375z" stroke="none" fill="#0072BD" fill-rule="winding" /><path transform="matrix(1 0 0 -1 0 841)" d="M350.4453 532.3375L349.0966 532.3375L349.0966 532.3375L349.4916 531.3839z" stroke="none" fill="#0072BD" fill-rule="winding" /><path transform="matrix(1 0 0 -1 0 841)" d="M350.4453 532.3375L349.4916 531.3839L349.4916 531.3839L350.4453 530.9888z" stroke="none" fill="#0072BD" fill-rule="winding" /><path transform="matrix(1 0 0 -1 0 841)" d="M350.4453 532.3375L350.4453 530.9888L350.4453 530.9888L351.3989 531.3839z" stroke="none" fill="#0072BD" fill-rule="winding" /><path transform="matrix(1 0 0 -1 0 841)" d="M350.4453 532.3375L351.3989 531.3839L351.3989 531.3839L351.7939 532.3375z" stroke="none" fill="#0072BD" fill-rule="winding" /><path transform="matrix(1 0 0 -1 0 841)" d="M351.7939 532.3375L351.5364 533.1302L351.5364 533.1302L350.8621 533.6201L350.8621 533.6201L350.0286 533.6201L350.0286 533.6201L349.3542 533.1302L349.3542 533.1302L349.0966 532.3375L349.0966 532.3375L349.3542 531.5447L349.3542 531.5447L350.0286 531.0548L350.0286 531.0548L350.8621 531.0548L350.8621 531.0548L351.5364 531.5447L351.5364 531.5447L351.7939 532.3375" stroke="#0072BD" stroke-width="0.3371625" stroke-linecap="square" fill="none" /><path transform="matrix(1 0 0 -1 0 841)" d="M240.7411 420.5681L240.7411 442.9342" stroke="#0072BD" stroke-width="0.3371625" stroke-linecap="square" fill="none" /><path transform="matrix(1 0 0 -1 0 841)" d="M249.8866 420.5681L249.8866 438.7477" stroke="#0072BD" stroke-width="0.3371625" stroke-linecap="square" fill="none" /><path transform="matrix(1 0 0 -1 0 841)" d="M259.0321 420.5681L259.0321 499.3466" stroke="#0072BD" stroke-width="0.3371625" stroke-linecap="square" fill="none" /><path transform="matrix(1 0 0 -1 0 841)" d="M268.1776 420.5681L268.1776 484.6248" stroke="#0072BD" stroke-width="0.3371625" stroke-linecap="square" fill="none" /><path transform="matrix(1 0 0 -1 0 841)" d="M277.3232 420.5681L277.3232 443.0151" stroke="#0072BD" stroke-width="0.3371625" stroke-linecap="square" fill="none" /><path transform="matrix(1 0 0 -1 0 841)" d="M286.4687 420.5681L286.4687 431.4967" stroke="#0072BD" stroke-width="0.3371625" stroke-linecap="square" fill="none" /><path transform="matrix(1 0 0 -1 0 841)" d="M295.6143 420.5681L295.6143 455.2159" stroke="#0072BD" stroke-width="0.3371625" stroke-linecap="square" fill="none" /><path transform="matrix(1 0 0 -1 0 841)" d="M304.7598 420.5681L304.7598 462.2587" stroke="#0072BD" stroke-width="0.3371625" stroke-linecap="square" fill="none" /><path transform="matrix(1 0 0 -1 0 841)" d="M313.9053 420.5681L313.9053 506.2276" stroke="#0072BD" stroke-width="0.3371625" stroke-linecap="square" fill="none" /><path transform="matrix(1 0 0 -1 0 841)" d="M323.0508 420.5681L323.0508 514.8665" stroke="#0072BD" stroke-width="0.3371625" stroke-linecap="square" fill="none" /><path transform="matrix(1 0 0 -1 0 841)" d="M332.1964 420.5681L332.1964 524.6501" stroke="#0072BD" stroke-width="0.3371625" stroke-linecap="square" fill="none" /><path transform="matrix(1 0 0 -1 0 841)" d="M341.3419 420.5681L341.3419 529.6461" stroke="#0072BD" stroke-width="0.3371625" stroke-linecap="square" fill="none" /><path transform="matrix(1 0 0 -1 0 841)" d="M350.4874 420.5681L350.4874 532.3869" stroke="#0072BD" stroke-width="0.3371625" stroke-linecap="square" fill="none" /><path transform="matrix(1 0 0 -1 0 841)" d="M231.5955 420.5681L377.924 420.5681" stroke="#262626" stroke-width="0.3371625" stroke-linecap="square" fill="none" /></g></g></g></g></svg>