<svg xmlns="http://www.w3.org/2000/svg" xmlns:xlink="http://www.w3.org/1999/xlink" id="body_16" preserveAspectRatio="xMinYMin meet" viewBox="0 0 793 1121"><defs><clipPath id="1"><path d="M0 841L0 -0.8900146L0 -0.8900146L595.276 -0.8900146L595.276 -0.8900146L595.276 841L595.276 841L0 841z" /></clipPath><clipPath id="2"><path d="M127.559 428.5L467.7257 428.5L467.7257 428.5L467.7257 246.9927L467.7257 246.9927L127.559 246.9927z" /></clipPath><clipPath id="3"><path d="M125.9888 429.242L467.7466 429.242L467.7466 429.242L467.7466 246.8173L467.7466 246.8173L125.9888 246.8173z" /></clipPath><clipPath id="4"><path d="M125.8533 429.2113L467.7305 429.2113L467.7305 429.2113L467.7305 246.5941L467.7305 246.5941L125.8533 246.5941z" /></clipPath><clipPath id="5"><path d="M125.8533 429.2151L467.7259 429.2151L467.7259 429.2151L467.7259 246.5934L467.7259 246.5934L125.8533 246.5934z" /></clipPath><clipPath id="6"><path d="M125.8533 429.2152L426.5483 429.2152L426.5483 429.2152L426.5483 260.7448L426.5483 260.7448L125.8533 260.7448z" /></clipPath><clipPath id="7"><path d="M126.2895 428.4979L274.8183 428.4979L274.8183 428.4979L274.8183 261.1844L274.8183 261.1844L126.2895 261.1844z" /></clipPath><clipPath id="8"><path d="M126.2895 428.5003L274.8125 428.5003L274.8125 428.5003L274.8125 261.184L274.8125 261.184L126.2895 261.184z" /></clipPath><clipPath id="9"><path d="M126.2895 428.5003L274.8125 428.5003L274.8125 428.5003L274.8125 261.184L274.8125 261.184L126.2895 261.184z" /></clipPath><clipPath id="10"><path d="M126.2895 428.5003L274.8125 428.5003L274.8125 428.5003L274.8125 261.184L274.8125 261.184L126.2895 261.184z" /></clipPath><clipPath id="11"><path d="M126.2895 428.5003L274.8125 428.5003L274.8125 428.5003L274.8125 261.184L274.8125 261.184L126.2895 261.184z" /></clipPath><clipPath id="12"><path d="M126.2895 428.5004L274.8125 428.5004L274.8125 428.5004L274.8125 261.1841L274.8125 261.1841L126.2895 261.1841z" /></clipPath><clipPath id="13"><path d="M126.2895 428.5004L274.8125 428.5004L274.8125 428.5004L274.8125 261.1841L274.8125 261.1841L126.2895 261.1841z" /></clipPath><clipPath id="14"><path d="M126.2895 428.5004L274.8125 428.5004L274.8125 428.5004L274.8125 261.1841L274.8125 261.1841L126.2895 261.1841z" /></clipPath><clipPath id="15"><path d="M126.2895 428.5004L274.8125 428.5004L274.8125 428.5004L274.8125 261.1841L274.8125 261.1841L126.2895 261.1841z" /></clipPath><clipPath id="16"><path d="M126.2895 428.5004L274.8125 428.5004L274.8125 428.5004L274.8125 261.1841L274.8125 261.1841L126.2895 261.1841z" /></clipPath><clipPath id="17"><path d="M126.2895 428.5004L274.8125 428.5004L274.8125 428.5004L274.8125 261.1841L274.8125 261.1841L126.2895 261.1841z" /></clipPath><clipPath id="18"><path d="M125.8533 246.5941L467.7259 246.5941L467.7259 246.5941L467.7259 429.2151L467.7259 429.2151L125.8533 429.2151" /></clipPath><clipPath id="19"><path d="M125.8533 246.5941L467.7259 246.5941L467.7259 246.5941L467.7259 429.2151L467.7259 429.2151L125.8533 429.2151" /></clipPath><clipPath id="20"><path d="M125.8533 246.5941L467.7259 246.5941L467.7259 246.5941L467.7259 429.2152L467.7259 429.2152L125.8533 429.2152" /></clipPath><clipPath id="21"><path d="M125.8533 246.5941L467.7259 246.5941L467.7259 246.5941L467.7259 429.2152L467.7259 429.2152L125.8533 429.2152" /></clipPath><clipPath id="22"><path d="M125.8533 429.2152L467.7259 429.2152L467.7259 429.2152L467.7259 246.5934L467.7259 246.5934L125.8533 246.5934z" /></clipPath><clipPath id="23"><path d="M125.8533 429.2152L467.7259 429.2152L467.7259 429.2152L467.7259 246.5934L467.7259 246.5934L125.8533 246.5934z" /></clipPath><clipPath id="24"><path d="M125.8533 429.2152L467.7259 429.2152L467.7259 429.2152L467.7259 246.5934L467.7259 246.5934L125.8533 246.5934z" /></clipPath><clipPath id="25"><path d="M125.8533 429.2152L467.7259 429.2152L467.7259 429.2152L467.7259 246.5934L467.7259 246.5934L125.8533 246.5934z" /></clipPath><clipPath id="26"><path d="M125.8533 429.2152L467.7259 429.2152L467.7259 429.2152L467.7259 246.5934L467.7259 246.5934L125.8533 246.5934z" /></clipPath><clipPath id="27"><path d="M125.8533 429.2152L467.7259 429.2152L467.7259 429.2152L467.7259 246.5934L467.7259 246.5934L125.8533 246.5934z" /></clipPath><clipPath id="28"><path d="M125.8533 246.5941L467.7259 246.5941L467.7259 246.5941L467.7259 429.2151L467.7259 429.2151L125.8533 429.2151" /></clipPath><clipPath id="29"><path d="M125.8533 246.5941L467.7259 246.5941L467.7259 246.5941L467.7259 429.2151L467.7259 429.2151L125.8533 429.2151" /></clipPath><clipPath id="30"><path d="M125.8533 246.5941L467.7259 246.5941L467.7259 246.5941L467.7259 429.2151L467.7259 429.2151L125.8533 429.2151" /></clipPath><clipPath id="31"><path d="M125.8533 246.5941L467.7259 246.5941L467.7259 246.5941L467.7259 429.2151L467.7259 429.2151L125.8533 429.2151" /></clipPath><clipPath id="32"><path d="M125.8533 429.2152L467.7259 429.2152L467.7259 429.2152L467.7259 246.5934L467.7259 246.5934L125.8533 246.5934z" /></clipPath><clipPath id="33"><path d="M125.8533 429.2152L467.7259 429.2152L467.7259 429.2152L467.7259 246.5934L467.7259 246.5934L125.8533 246.5934z" /></clipPath><clipPath id="34"><path d="M125.8533 429.2152L467.7259 429.2152L467.7259 429.2152L467.7259 246.5934L467.7259 246.5934L125.8533 246.5934z" /></clipPath><clipPath id="35"><path d="M125.8533 429.2152L467.7259 429.2152L467.7259 429.2152L467.7259 246.5934L467.7259 246.5934L125.8533 246.5934z" /></clipPath><clipPath id="36"><path d="M125.8533 429.2152L467.7259 429.2152L467.7259 429.2152L467.7259 246.5934L467.7259 246.5934L125.8533 246.5934z" /></clipPath><clipPath id="37"><path d="M125.8533 246.5941L467.7259 246.5941L467.7259 246.5941L467.7259 429.2152L467.7259 429.2152L125.8533 429.2152" /></clipPath><clipPath id="38"><path d="M125.8533 246.5941L467.7259 246.5941L467.7259 246.5941L467.7259 429.2152L467.7259 429.2152L125.8533 429.2152" /></clipPath><clipPath id="39"><path d="M125.8533 246.5941L467.7259 246.5941L467.7259 246.5941L467.7259 429.2152L467.7259 429.2152L125.8533 429.2152" /></clipPath><clipPath id="40"><path d="M125.8533 246.5941L467.7259 246.5941L467.7259 246.5941L467.7259 429.2152L467.7259 429.2152L125.8533 429.2152" /></clipPath><clipPath id="41"><path d="M125.8533 246.5941L467.7259 246.5941L467.7259 246.5941L467.7259 429.2152L467.7259 429.2152L125.8533 429.2152" /></clipPath><clipPath id="42"><path d="M125.8533 246.5941L467.7259 246.5941L467.7259 246.5941L467.7259 429.2152L467.7259 429.2152L125.8533 429.2152" /></clipPath><clipPath id="43"><path d="M125.8533 246.5941L467.7259 246.5941L467.7259 246.5941L467.7259 429.2152L467.7259 429.2152L125.8533 429.2152" /></clipPath><clipPath id="44"><path d="M125.8533 246.5941L467.7259 246.5941L467.7259 246.5941L467.7259 429.2152L467.7259 429.2152L125.8533 429.2152" /></clipPath><clipPath id="45"><path d="M125.8533 246.5941L467.7259 246.5941L467.7259 246.5941L467.7259 429.2152L467.7259 429.2152L125.8533 429.2152" /></clipPath><clipPath id="46"><path d="M125.8533 246.5941L467.7259 246.5941L467.7259 246.5941L467.7259 429.2152L467.7259 429.2152L125.8533 429.2152" /></clipPath><clipPath id="47"><path d="M125.8533 246.5941L467.7259 246.5941L467.7259 246.5941L467.7259 429.2152L467.7259 429.2152L125.8533 429.2152" /></clipPath><clipPath id="48"><path d="M125.8533 246.5941L467.7259 246.5941L467.7259 246.5941L467.7259 429.2152L467.7259 429.2152L125.8533 429.2152" /></clipPath><clipPath id="49"><path d="M125.8533 246.5941L467.7259 246.5941L467.7259 246.5941L467.7259 429.2152L467.7259 429.2152L125.8533 429.2152" /></clipPath><clipPath id="50"><path d="M125.8533 246.5941L467.7259 246.5941L467.7259 246.5941L467.7259 429.2152L467.7259 429.2152L125.8533 429.2152" /></clipPath><clipPath id="51"><path d="M125.8533 246.5941L467.7259 246.5941L467.7259 246.5941L467.7259 429.2152L467.7259 429.2152L125.8533 429.2152" /></clipPath><clipPath id="52"><path d="M125.8533 246.5941L467.7259 246.5941L467.7259 246.5941L467.7259 429.2152L467.7259 429.2152L125.8533 429.2152" /></clipPath><clipPath id="53"><path d="M125.8533 246.5941L467.7259 246.5941L467.7259 246.5941L467.7259 429.2152L467.7259 429.2152L125.8533 429.2152" /></clipPath><clipPath id="54"><path d="M125.8533 246.5941L467.7259 246.5941L467.7259 246.5941L467.7259 429.2152L467.7259 429.2152L125.8533 429.2152" /></clipPath><clipPath id="55"><path d="M125.8533 246.5941L467.7259 246.5941L467.7259 246.5941L467.7259 429.2152L467.7259 429.2152L125.8533 429.2152" /></clipPath><clipPath id="56"><path d="M125.8533 246.5941L467.7259 246.5941L467.7259 246.5941L467.7259 429.2152L467.7259 429.2152L125.8533 429.2152" /></clipPath><clipPath id="57"><path d="M125.8533 246.5941L467.7259 246.5941L467.7259 246.5941L467.7259 429.2152L467.7259 429.2152L125.8533 429.2152" /></clipPath><clipPath id="58"><path d="M125.8533 246.5941L467.7259 246.5941L467.7259 246.5941L467.7259 429.2152L467.7259 429.2152L125.8533 429.2152" /></clipPath><clipPath id="59"><path d="M125.8533 246.5941L467.7259 246.5941L467.7259 246.5941L467.7259 429.2152L467.7259 429.2152L125.8533 429.2152" /></clipPath><clipPath id="60"><path d="M125.8533 246.5941L467.7259 246.5941L467.7259 246.5941L467.7259 429.2152L467.7259 429.2152L125.8533 429.2152" /></clipPath><clipPath id="61"><path d="M125.8533 246.5941L467.7259 246.5941L467.7259 246.5941L467.7259 429.2152L467.7259 429.2152L125.8533 429.2152" /></clipPath><clipPath id="62"><path d="M125.8533 246.5941L467.7259 246.5941L467.7259 246.5941L467.7259 429.2152L467.7259 429.2152L125.8533 429.2152" /></clipPath><clipPath id="63"><path d="M125.8533 246.5941L467.7259 246.5941L467.7259 246.5941L467.7259 429.2152L467.7259 429.2152L125.8533 429.2152" /></clipPath><clipPath id="64"><path d="M125.8533 246.5941L467.7259 246.5941L467.7259 246.5941L467.7259 429.2152L467.7259 429.2152L125.8533 429.2152" /></clipPath><clipPath id="65"><path d="M125.8533 246.5941L467.7259 246.5941L467.7259 246.5941L467.7259 429.2152L467.7259 429.2152L125.8533 429.2152" /></clipPath><clipPath id="66"><path d="M125.8533 246.5941L467.7259 246.5941L467.7259 246.5941L467.7259 429.2152L467.7259 429.2152L125.8533 429.2152" /></clipPath><clipPath id="67"><path d="M125.8533 246.5941L467.7259 246.5941L467.7259 246.5941L467.7259 429.2152L467.7259 429.2152L125.8533 429.2152" /></clipPath><clipPath id="68"><path d="M125.8533 429.2152L467.7259 429.2152L467.7259 429.2152L467.7259 246.5934L467.7259 246.5934L125.8533 246.5934z" /></clipPath><pattern patternTransform="matrix(1 0 0 -1 0 396.74)" id="17523" x="0" y="0" width="32" height="32" patternUnits="userSpaceOnUse"><image x="0" y="0" width="32" height="32" xlink:href="img_20.png" /></pattern><pattern patternTransform="matrix(1 0 0 -1 0 396.74)" id="17751" x="0" y="0" width="32" height="32" patternUnits="userSpaceOnUse"><image x="0" y="0" width="32" height="32" xlink:href="img_21.png" /></pattern><clipPath id="69"><path d="M125.8533 429.2152L467.7259 429.2152L467.7259 429.2152L467.7259 246.5934L467.7259 246.5934L125.8533 246.5934z" /></clipPath><clipPath id="70"><path d="M125.8533 429.2152L467.7259 429.2152L467.7259 429.2152L467.7259 246.5934L467.7259 246.5934L125.8533 246.5934z" /></clipPath><clipPath id="71"><path d="M125.8533 429.2152L467.7259 429.2152L467.7259 429.2152L467.7259 246.5934L467.7259 246.5934L125.8533 246.5934z" /></clipPath><clipPath id="72"><path d="M125.8533 429.2152L467.7259 429.2152L467.7259 429.2152L467.7259 246.5934L467.7259 246.5934L125.8533 246.5934z" /></clipPath><clipPath id="73"><path d="M125.8533 429.2152L467.7259 429.2152L467.7259 429.2152L467.7259 246.5934L467.7259 246.5934L125.8533 246.5934z" /></clipPath><clipPath id="74"><path d="M125.8533 429.2152L467.7259 429.2152L467.7259 429.2152L467.7259 246.5934L467.7259 246.5934L125.8533 246.5934z" /></clipPath></defs><g transform="matrix(1.333333 0 0 1.333333 0 0)"><g><g clip-path="url(#1)"><path transform="matrix(1 0 0 -1 0 841)" d="M86.4 780.197L508.876 780.197" stroke="#000000" stroke-width="0.398" fill="none" /><g><g clip-path="url(#2)"><g clip-path="url(#3)"><g clip-path="url(#4)"><g clip-path="url(#5)"><g clip-path="url(#6)"><g clip-path="url(#7)"><g clip-path="url(#8)"><g transform="matrix(0.2219637 0 0 0.2227513 181.3867 388.4052)"><g transform="matrix(1 0 0 1 0 0)"><image x="0" y="0" xlink:href="img_16.png" width="416" height="180" /></g></g></g><g clip-path="url(#9)"><g transform="matrix(0.221914 0 0 0.222718 181.3867 261.8347)"><g transform="matrix(1 0 0 1 0 0)"><image x="0" y="0" xlink:href="img_17.png" width="421" height="181" /></g></g></g><g clip-path="url(#10)"><g transform="matrix(0.221914 0 0 0.222718 181.3867 346.143)"><g transform="matrix(1 0 0 1 0 0)"><image x="0" y="0" xlink:href="img_18.png" width="421" height="181" /></g></g></g><g clip-path="url(#11)"><g transform="matrix(0.2219238 0 0 0.222718 181.3867 304.0972)"><g transform="matrix(1 0 0 1 0 0)"><image x="0" y="0" xlink:href="img_19.png" width="420" height="181" /></g></g></g><g clip-path="url(#12)"></g><g clip-path="url(#13)"></g><g clip-path="url(#14)"></g><g clip-path="url(#15)"></g><g clip-path="url(#16)"></g><g clip-path="url(#17)"></g></g><path transform="matrix(1 0 0 -1 0 841)" d="M340.6028 561.7479C 340.6028 568.7065 327.0714 574.3438 310.3801 574.3438C 293.6888 574.3438 280.1575 568.7065 280.1575 561.7479C 280.1575 554.7932 293.6888 549.156 310.3801 549.156C 327.0714 549.156 340.6028 554.7932 340.6028 561.7479z" stroke="none" fill="#FFFFFF" fill-rule="evenodd" /><path transform="matrix(1 0 0 -1 0 841)" d="M340.6028 561.7479C 340.6028 568.7065 327.0714 574.3438 310.3801 574.3438C 293.6888 574.3438 280.1575 568.7065 280.1575 561.7479C 280.1575 554.7932 293.6888 549.156 310.3801 549.156C 327.0714 549.156 340.6028 554.7932 340.6028 561.7479z" stroke="#000000" stroke-width="0.09305243" stroke-linecap="round" fill="none" /><path transform="matrix(1 0 0 -1 0 841)" d="M340.6028 520.1317C 340.6028 527.0864 327.0714 532.7274 310.3801 532.7274C 293.6888 532.7274 280.1575 527.0864 280.1575 520.1317C 280.1575 513.1731 293.6888 507.5359 310.3801 507.5359C 327.0714 507.5359 340.6028 513.1731 340.6028 520.1317z" stroke="none" fill="#FFFFFF" fill-rule="evenodd" /><path transform="matrix(1 0 0 -1 0 841)" d="M340.6028 520.1317C 340.6028 527.0864 327.0714 532.7274 310.3801 532.7274C 293.6888 532.7274 280.1575 527.0864 280.1575 520.1317C 280.1575 513.1731 293.6888 507.5359 310.3801 507.5359C 327.0714 507.5359 340.6028 513.1731 340.6028 520.1317z" stroke="#000000" stroke-width="0.09305243" stroke-linecap="round" fill="none" /><path transform="matrix(1 0 0 -1 0 841)" d="M340.6028 431.9643C 340.6028 438.9206 327.0714 444.5597 310.3801 444.5597C 293.6888 444.5597 280.1575 438.9206 280.1575 431.9643C 280.1575 425.0081 293.6888 419.3693 310.3801 419.3693C 327.0714 419.3693 340.6028 425.0081 340.6028 431.9643z" stroke="none" fill="#FFFFFF" fill-rule="evenodd" /><path transform="matrix(1 0 0 -1 0 841)" d="M340.6028 431.9643C 340.6028 438.9206 327.0714 444.5597 310.3801 444.5597C 293.6888 444.5597 280.1575 438.9206 280.1575 431.9643C 280.1575 425.0081 293.6888 419.3693 310.3801 419.3693C 327.0714 419.3693 340.6028 425.0081 340.6028 431.9643z" stroke="#000000" stroke-width="0.09305243" stroke-linecap="round" fill="none" /><path transform="matrix(1 0 0 -1 0 841)" d="M340.6028 473.5814C 340.6028 480.54 327.0714 486.1772 310.3801 486.1772C 293.6888 486.1772 280.1575 480.54 280.1575 473.5814C 280.1575 466.6267 293.6888 460.9895 310.3801 460.9895C 327.0714 460.9895 340.6028 466.6267 340.6028 473.5814z" stroke="none" fill="#FFFFFF" fill-rule="evenodd" /><path transform="matrix(1 0 0 -1 0 841)" d="M340.6028 473.5814C 340.6028 480.54 327.0714 486.1772 310.3801 486.1772C 293.6888 486.1772 280.1575 480.54 280.1575 473.5814C 280.1575 466.6267 293.6888 460.9895 310.3801 460.9895C 327.0714 460.9895 340.6028 466.6267 340.6028 473.5814z" stroke="#000000" stroke-width="0.09305243" stroke-linecap="round" fill="none" /><path transform="matrix(1 0 0 -1 0 841)" d="M425.7806 473.5814C 425.7806 480.54 412.2493 486.1772 395.5541 486.1772C 378.8629 486.1772 365.3315 480.54 365.3315 473.5814C 365.3315 466.6267 378.8629 460.9895 395.5541 460.9895C 412.2493 460.9895 425.7806 466.6267 425.7806 473.5814z" stroke="none" fill="#FFFFFF" fill-rule="evenodd" /><path transform="matrix(1 0 0 -1 0 841)" d="M425.7806 473.5814C 425.7806 480.54 412.2493 486.1772 395.5541 486.1772C 378.8629 486.1772 365.3315 480.54 365.3315 473.5814C 365.3315 466.6267 378.8629 460.9895 395.5541 460.9895C 412.2493 460.9895 425.7806 466.6267 425.7806 473.5814z" stroke="#000000" stroke-width="0.09305243" stroke-linecap="round" fill="none" /></g></g><path transform="matrix(1 0 0 -1 0 841)" d="M343.6783 474.5268L358.728 474.5268L358.728 474.5268L358.728 476.8605L358.728 476.8605L363.4017 472.1978L363.4017 472.1978L358.728 467.5396L358.728 467.5396L358.728 469.8687L358.728 469.8687L343.6783 469.8687z" stroke="none" fill="#FFFFFF" fill-rule="evenodd" /><path transform="matrix(1 0 0 -1 0 841)" d="M344.195 469.8687L343.6736 470.3842L343.6736 470.3842L359.2448 470.3842L359.2448 470.3842L359.2448 467.5396L359.2448 467.5396L358.3589 467.9032L358.3589 467.9032L363.0326 472.566L363.0326 472.566L363.0326 471.8341L363.0326 471.8341L358.3589 476.4923L358.3589 476.4923L359.2448 476.8605L359.2448 476.8605L359.2448 474.0113L359.2448 474.0113L343.6736 474.0113L343.6736 474.0113L344.195 474.5268zM343.1569 475.047L358.728 475.047L358.728 475.047L358.2067 474.5268L358.2067 474.5268L358.2067 478.1079L358.2067 478.1079L364.1353 472.1978L364.1353 472.1978L358.2067 466.2876L358.2067 466.2876L358.2067 469.8687L358.2067 469.8687L358.728 469.3485L358.728 469.3485L343.1569 469.3485z" stroke="none" fill="#000000" fill-rule="winding" /><g clip-path="url(#18)"><path transform="matrix(1 0 0 -1 0 841)" d="M347.4384 509.3297L359.8814 500.8419L359.8814 500.8419L361.224 502.8027L361.224 502.8027L362.4697 496.2021L362.4697 496.2021L355.8537 494.9593L355.8537 494.9593L357.1963 496.9201L357.1963 496.9201L344.7532 505.408z" stroke="none" fill="#FFFFFF" fill-rule="evenodd" /></g><g clip-path="url(#19)"><path transform="matrix(1 0 0 -1 0 841)" d="M345.1316 505.1456L345.0116 505.7854L345.0116 505.7854L357.8376 497.0398L357.8376 497.0398L356.2321 494.7015L356.2321 494.7015L355.7661 495.4104L355.7661 495.4104L362.3867 496.6532L362.3867 496.6532L362.0176 496.1146L362.0176 496.1146L360.7719 502.7198L360.7719 502.7198L361.607 502.545L361.607 502.545L360.0014 500.2021L360.0014 500.2021L347.18 508.9476L347.18 508.9476L347.8213 509.0673zM347.3185 509.9695L360.1444 501.2239L360.1444 501.2239L359.5031 501.0996L359.5031 501.0996L361.4732 503.981L361.4732 503.981L363.0095 495.8339L363.0095 495.8339L354.8433 494.3011L354.8433 494.3011L356.8134 497.1779L356.8134 497.1779L356.9333 496.5381L356.9333 496.5381L344.1119 505.2883z" stroke="none" fill="#000000" fill-rule="winding" /></g><g clip-path="url(#20)"><path transform="matrix(1 0 0 -1 0 841)" d="M347.4384 435.2863L359.8814 443.7727L359.8814 443.7727L361.224 441.8119L361.224 441.8119L362.4697 448.4143L362.4697 448.4143L355.8537 449.6553L355.8537 449.6553L357.1963 447.6944L357.1963 447.6944L344.7532 439.208z" stroke="none" fill="#FFFFFF" fill-rule="evenodd" /></g><g clip-path="url(#21)"><path transform="matrix(1 0 0 -1 0 841)" d="M345.1316 439.4676L345.0116 438.8278L345.0116 438.8278L357.8376 447.5739L357.8376 447.5739L356.2321 449.9149L356.2321 449.9149L355.7661 449.2028L355.7661 449.2028L362.3867 447.9619L362.3867 447.9619L362.0176 448.499L362.0176 448.499L360.7719 441.897L360.7719 441.897L361.607 442.0715L361.607 442.0715L360.0014 444.4125L360.0014 444.4125L347.18 435.666L347.18 435.666L347.8213 435.5459zM347.3185 434.6465L360.1444 443.3925L360.1444 443.3925L359.5031 443.5131L359.5031 443.5131L361.4732 440.6349L361.4732 440.6349L363.0095 448.7816L363.0095 448.7816L354.8433 450.3126L354.8433 450.3126L356.8134 447.4344L356.8134 447.4344L356.9333 448.0742L356.9333 448.0742L344.1119 439.3281z" stroke="none" fill="#000000" fill-rule="winding" /></g><path transform="matrix(1 0 0 -1 0 841)" d="M359.5954 529.6793L383.8171 529.6793L383.8171 529.6793L383.8171 532.0958L383.8171 532.0958L359.5954 532.0958z" stroke="none" fill="#8FAADC" fill-rule="evenodd" /><path transform="matrix(1 0 0 -1 0 841)" d="M383.2958 532.0958L383.8171 531.5757L383.8171 531.5757L359.5908 531.5757L359.5908 531.5757L360.1122 532.0958L360.1122 532.0958L360.1122 529.6793L360.1122 529.6793L359.5908 530.1948L359.5908 530.1948L383.8171 530.1948L383.8171 530.1948L383.2958 529.6793zM384.3339 529.1592L359.0741 529.1592L359.0741 529.1592L359.0741 532.6113L359.0741 532.6113L384.3339 532.6113z" stroke="none" fill="#000000" fill-rule="winding" /><g clip-path="url(#22)"></g><g clip-path="url(#23)"></g><g clip-path="url(#24)"></g><g clip-path="url(#25)"></g><g clip-path="url(#26)"></g><g clip-path="url(#27)"></g><path transform="matrix(1 0 0 -1 0 841)" d="M370.3222 589.918C 370.3222 590.9675 371.0927 591.819 372.0523 591.819C 373.0073 591.819 373.7824 590.9675 373.7824 589.918C 373.7824 588.8685 373.0073 588.0216 372.0523 588.0216C 371.0927 588.0216 370.3222 588.8685 370.3222 589.918z" stroke="none" fill="#000000" fill-rule="evenodd" /><path transform="matrix(1 0 0 -1 0 841)" d="M370.3222 589.918C 370.3222 590.9675 371.0927 591.819 372.0523 591.819C 373.0073 591.819 373.7824 590.9675 373.7824 589.918C 373.7824 588.8685 373.0073 588.0216 372.0523 588.0216C 371.0927 588.0216 370.3222 588.8685 370.3222 589.918z" stroke="#000000" stroke-width="0.3463709" fill="none" /><path transform="matrix(1 0 0 -1 0 841)" d="M369.9762 571.7962C 369.9762 572.749 370.825 573.5223 371.877 573.5223C 372.9289 573.5223 373.7824 572.749 373.7824 571.7962C 373.7824 570.8434 372.9289 570.0701 371.877 570.0701C 370.825 570.0701 369.9762 570.8434 369.9762 571.7962z" stroke="none" fill="#70AD47" fill-rule="evenodd" /><path transform="matrix(1 0 0 -1 0 841)" d="M369.9762 571.7962C 369.9762 572.749 370.825 573.5223 371.877 573.5223C 372.9289 573.5223 373.7824 572.749 373.7824 571.7962C 373.7824 570.8434 372.9289 570.0701 371.877 570.0701C 370.825 570.0701 369.9762 570.8434 369.9762 571.7962z" stroke="#507E32" stroke-width="0.3463709" fill="none" /><g clip-path="url(#28)"><path transform="matrix(1 0 0 -1 0 841)" d="M372.223 547.6307L376.5506 545.472L376.5506 545.472L376.5506 539.7736L376.5506 539.7736L372.223 537.6194L372.223 537.6194L367.9 539.7736L367.9 539.7736L367.9 545.472z" stroke="none" fill="#A5A5A5" fill-rule="evenodd" /></g><g clip-path="url(#29)"><path transform="matrix(1 0 0 -1 0 841)" d="M372.223 547.6307L376.5506 545.472L376.5506 545.472L376.5506 539.7736L376.5506 539.7736L372.223 537.6194L372.223 537.6194L367.9 539.7736L367.9 539.7736L367.9 545.472z" stroke="#787878" stroke-width="0.3463709" fill="none" /></g><g clip-path="url(#30)"><path transform="matrix(1 0 0 -1 0 841)" d="M371.3603 551.4282L373.4364 551.4282L373.4364 551.4282L373.4364 557.2969L373.4364 557.2969L371.3603 557.2969z" stroke="none" fill="#A5A5A5" fill-rule="evenodd" /></g><g clip-path="url(#31)"><path transform="matrix(1 0 0 -1 0 841)" d="M371.3603 551.4282L373.4364 551.4282L373.4364 551.4282L373.4364 557.2969L373.4364 557.2969L371.3603 557.2969z" stroke="#787878" stroke-width="0.3463709" fill="none" /></g><g clip-path="url(#32)"></g><g clip-path="url(#33)"></g><g clip-path="url(#34)"></g><g clip-path="url(#35)"></g><g clip-path="url(#36)"></g><g clip-path="url(#37)"><path transform="matrix(1 0 0 -1 0 841)" d="M359.7661 529.7484L359.7661 532.2661L359.7661 532.2661L360.4582 532.2661L360.4582 532.2661L360.4582 529.7484z" stroke="none" fill="#000000" fill-rule="winding" /></g><g clip-path="url(#38)"><path transform="matrix(1 0 0 -1 0 841)" d="M360.4582 529.7484L360.4582 532.2661L360.4582 532.2661L361.1502 532.2661L361.1502 532.2661L361.1502 529.7484z" stroke="none" fill="#000000" fill-rule="winding" /></g><g clip-path="url(#39)"><path transform="matrix(1 0 0 -1 0 841)" d="M361.1502 529.7484L361.1502 532.2661L361.1502 532.2661L361.8423 532.2661L361.8423 532.2661L361.8423 529.7484z" stroke="none" fill="#000000" fill-rule="winding" /></g><g clip-path="url(#40)"><path transform="matrix(1 0 0 -1 0 841)" d="M361.8423 529.7484L361.8423 532.2661L361.8423 532.2661L362.5343 532.2661L362.5343 532.2661L362.5343 529.7484z" stroke="none" fill="#000000" fill-rule="winding" /></g><g clip-path="url(#41)"><path transform="matrix(1 0 0 -1 0 841)" d="M362.5343 529.7484L362.5343 532.2661L362.5343 532.2661L363.2263 532.2661L363.2263 532.2661L363.2263 529.7484z" stroke="none" fill="#000000" fill-rule="winding" /></g><g clip-path="url(#42)"><path transform="matrix(1 0 0 -1 0 841)" d="M363.2263 529.624L363.2679 532.2708L363.2679 532.2708L363.96 532.2615L363.96 532.2615L363.9184 529.6149z" stroke="none" fill="#000000" fill-rule="winding" /></g><g clip-path="url(#43)"><path transform="matrix(1 0 0 -1 0 841)" d="M363.9184 529.7484L363.9184 532.2661L363.9184 532.2661L364.6105 532.2661L364.6105 532.2661L364.6105 529.7484z" stroke="none" fill="#000000" fill-rule="winding" /></g><g clip-path="url(#44)"><path transform="matrix(1 0 0 -1 0 841)" d="M364.6105 529.7484L364.6105 532.2661L364.6105 532.2661L365.3025 532.2661L365.3025 532.2661L365.3025 529.7484z" stroke="none" fill="#000000" fill-rule="winding" /></g><g clip-path="url(#45)"><path transform="matrix(1 0 0 -1 0 841)" d="M365.3025 529.7484L365.3025 532.2661L365.3025 532.2661L365.9946 532.2661L365.9946 532.2661L365.9946 529.7484z" stroke="none" fill="#000000" fill-rule="winding" /></g><g clip-path="url(#46)"><path transform="matrix(1 0 0 -1 0 841)" d="M365.9946 529.7484L365.9946 532.2661L365.9946 532.2661L366.6866 532.2661L366.6866 532.2661L366.6866 529.7484z" stroke="none" fill="#000000" fill-rule="winding" /></g><g clip-path="url(#47)"><path transform="matrix(1 0 0 -1 0 841)" d="M366.6866 529.7484L366.6866 532.2661L366.6866 532.2661L367.3787 532.2661L367.3787 532.2661L367.3787 529.7484z" stroke="none" fill="#000000" fill-rule="winding" /></g><g clip-path="url(#48)"><path transform="matrix(1 0 0 -1 0 841)" d="M367.3787 529.9693L367.4202 532.616L367.4202 532.616L368.1122 532.6068L368.1122 532.6068L368.0707 529.9601z" stroke="none" fill="#000000" fill-rule="winding" /></g><g clip-path="url(#49)"><path transform="matrix(1 0 0 -1 0 841)" d="M368.0707 530.0936L368.0707 532.6113L368.0707 532.6113L368.7628 532.6113L368.7628 532.6113L368.7628 530.0936z" stroke="none" fill="#000000" fill-rule="winding" /></g><g clip-path="url(#50)"><path transform="matrix(1 0 0 -1 0 841)" d="M368.7628 530.0936L368.7628 532.6113L368.7628 532.6113L369.4548 532.6113L369.4548 532.6113L369.4548 530.0936z" stroke="none" fill="#000000" fill-rule="winding" /></g><g clip-path="url(#51)"><path transform="matrix(1 0 0 -1 0 841)" d="M369.4548 530.0936L369.4548 532.6113L369.4548 532.6113L370.1469 532.6113L370.1469 532.6113L370.1469 530.0936z" stroke="none" fill="#000000" fill-rule="winding" /></g><g clip-path="url(#52)"><path transform="matrix(1 0 0 -1 0 841)" d="M381.9117 529.7484L381.9117 532.2661L381.9117 532.2661L382.6038 532.2661L382.6038 532.2661L382.6038 529.7484z" stroke="none" fill="#000000" fill-rule="winding" /></g><g clip-path="url(#53)"><path transform="matrix(1 0 0 -1 0 841)" d="M382.6038 529.7484L382.6038 532.2661L382.6038 532.2661L383.2958 532.2661L383.2958 532.2661L383.2958 529.7484z" stroke="none" fill="#000000" fill-rule="winding" /></g><g clip-path="url(#54)"><path transform="matrix(1 0 0 -1 0 841)" d="M377.7594 529.7484L377.7594 532.2661L377.7594 532.2661L378.4514 532.2661L378.4514 532.2661L378.4514 529.7484z" stroke="none" fill="#000000" fill-rule="winding" /></g><g clip-path="url(#55)"><path transform="matrix(1 0 0 -1 0 841)" d="M378.4514 529.7484L378.4514 532.2661L378.4514 532.2661L379.1435 532.2661L379.1435 532.2661L379.1435 529.7484z" stroke="none" fill="#000000" fill-rule="winding" /></g><g clip-path="url(#56)"><path transform="matrix(1 0 0 -1 0 841)" d="M379.1435 529.624L379.185 532.2708L379.185 532.2708L379.8771 532.2615L379.8771 532.2615L379.8356 529.6149z" stroke="none" fill="#000000" fill-rule="winding" /></g><g clip-path="url(#57)"><path transform="matrix(1 0 0 -1 0 841)" d="M379.8356 529.7484L379.8356 532.2661L379.8356 532.2661L380.5276 532.2661L380.5276 532.2661L380.5276 529.7484z" stroke="none" fill="#000000" fill-rule="winding" /></g><g clip-path="url(#58)"><path transform="matrix(1 0 0 -1 0 841)" d="M380.5276 529.7484L380.5276 532.2661L380.5276 532.2661L381.2197 532.2661L381.2197 532.2661L381.2197 529.7484z" stroke="none" fill="#000000" fill-rule="winding" /></g><g clip-path="url(#59)"><path transform="matrix(1 0 0 -1 0 841)" d="M381.2197 529.7484L381.2197 532.2661L381.2197 532.2661L381.9117 532.2661L381.9117 532.2661L381.9117 529.7484z" stroke="none" fill="#000000" fill-rule="winding" /></g><g clip-path="url(#60)"><path transform="matrix(1 0 0 -1 0 841)" d="M373.6071 529.7484L373.6071 532.2661L373.6071 532.2661L374.2992 532.2661L374.2992 532.2661L374.2992 529.7484z" stroke="none" fill="#000000" fill-rule="winding" /></g><g clip-path="url(#61)"><path transform="matrix(1 0 0 -1 0 841)" d="M374.2992 529.7484L374.2992 532.2661L374.2992 532.2661L374.9912 532.2661L374.9912 532.2661L374.9912 529.7484z" stroke="none" fill="#000000" fill-rule="winding" /></g><g clip-path="url(#62)"><path transform="matrix(1 0 0 -1 0 841)" d="M374.9912 529.624L375.0327 532.2708L375.0327 532.2708L375.7248 532.2615L375.7248 532.2615L375.6833 529.6149z" stroke="none" fill="#000000" fill-rule="winding" /></g><g clip-path="url(#63)"><path transform="matrix(1 0 0 -1 0 841)" d="M375.6833 529.7484L375.6833 532.2661L375.6833 532.2661L376.3753 532.2661L376.3753 532.2661L376.3753 529.7484z" stroke="none" fill="#000000" fill-rule="winding" /></g><g clip-path="url(#64)"><path transform="matrix(1 0 0 -1 0 841)" d="M376.3753 529.7484L376.3753 532.2661L376.3753 532.2661L377.0674 532.2661L377.0674 532.2661L377.0674 529.7484z" stroke="none" fill="#000000" fill-rule="winding" /></g><g clip-path="url(#65)"><path transform="matrix(1 0 0 -1 0 841)" d="M377.0674 529.7484L377.0674 532.2661L377.0674 532.2661L377.7594 532.2661L377.7594 532.2661L377.7594 529.7484z" stroke="none" fill="#000000" fill-rule="winding" /></g><g clip-path="url(#66)"><path transform="matrix(1 0 0 -1 0 841)" d="M367.2079 528.6436L376.8967 528.6436L376.8967 528.6436L376.8967 533.1315L376.8967 533.1315L367.2079 533.1315z" stroke="none" fill="#8FAADC" fill-rule="evenodd" /></g><g clip-path="url(#67)"><path transform="matrix(1 0 0 -1 0 841)" d="M376.892 529.1592L376.3753 528.6436L376.3753 528.6436L376.3753 533.1315L376.3753 533.1315L376.892 532.6113L376.892 532.6113L367.2033 532.6113L367.2033 532.6113L367.7247 533.1315L367.7247 533.1315L367.7247 528.6436L367.7247 528.6436L367.2033 529.1592zM366.6866 528.1235L366.6866 533.647L366.6866 533.647L377.4134 533.647L377.4134 533.647L377.4134 528.1235z" stroke="none" fill="#000000" fill-rule="winding" /></g><g clip-path="url(#68)"></g><path transform="matrix(1 0 0 -1 0 841)" d="M369.9762 580.772C 369.9762 581.9135 370.9035 582.8433 372.0523 582.8433C 373.1965 582.8433 374.1284 581.9135 374.1284 580.772C 374.1284 579.6259 373.1965 578.7006 372.0523 578.7006C 370.9035 578.7006 369.9762 579.6259 369.9762 580.772z" stroke="none" fill="url(#17523)" /><path transform="matrix(1 0 0 -1 0 841)" d="M369.9762 580.772C 369.9762 581.9135 370.9035 582.8433 372.0523 582.8433C 373.1965 582.8433 374.1284 581.9135 374.1284 580.772C 374.1284 579.6259 373.1965 578.7006 372.0523 578.7006C 370.9035 578.7006 369.9762 579.6259 369.9762 580.772z" stroke="#000000" stroke-width="0.3463709" fill="none" /><path transform="matrix(1 0 0 -1 0 841)" d="M369.9762 562.8205C 369.9762 563.962 370.825 564.8918 371.877 564.8918C 372.9289 564.8918 373.7824 563.962 373.7824 562.8205C 373.7824 561.6743 372.9289 560.7491 371.877 560.7491C 370.825 560.7491 369.9762 561.6743 369.9762 562.8205z" stroke="none" fill="url(#17751)" /><path transform="matrix(1 0 0 -1 0 841)" d="M369.9762 562.8205C 369.9762 563.962 370.825 564.8918 371.877 564.8918C 372.9289 564.8918 373.7824 563.962 373.7824 562.8205C 373.7824 561.6743 372.9289 560.7491 371.877 560.7491C 370.825 560.7491 369.9762 561.6743 369.9762 562.8205z" stroke="#507E32" stroke-width="0.3463709" fill="none" /><g clip-path="url(#69)"></g><g clip-path="url(#70)"></g><g clip-path="url(#71)"></g><g clip-path="url(#72)"></g><g clip-path="url(#73)"></g><g clip-path="url(#74)"></g><path transform="matrix(1 0 0 -1 0 841)" d="M266.8607 571.7962L267.0176 529.7667" stroke="#000000" stroke-width="0.3463709" stroke-dasharray="8,2.999933" fill="none" /><path transform="matrix(1 0 0 -1 0 841)" d="M231.0356 542.1072L230.5281 415.8622" stroke="#000000" stroke-width="0.3463709" stroke-dasharray="8,3.000067" fill="none" /><path transform="matrix(1 0 0 -1 0 841)" d="M266.5147 524.8462L266.5931 489.873" stroke="#000000" stroke-width="0.3463709" stroke-dasharray="8,2.999933" fill="none" /><path transform="matrix(1 0 0 -1 0 841)" d="M266.8607 481.3484L266.9391 446.3766" stroke="#000000" stroke-width="0.3463709" stroke-dasharray="8,2.999933" fill="none" /><path transform="matrix(1 0 0 -1 0 841)" d="M244.0231 465.123L244.0231 427.5179" stroke="#000000" stroke-width="0.3463709" stroke-dasharray="8,2.999933" fill="none" /><path transform="matrix(1 0 0 -1 0 841)" d="M244.0231 507.2399L244.0231 470.9503" stroke="#000000" stroke-width="0.3463709" stroke-dasharray="8,2.999933" fill="none" /><path transform="matrix(1 0 0 -1 0 841)" d="M244.0231 553.1543L244.0231 512.1237" stroke="#000000" stroke-width="0.3463709" stroke-dasharray="8,2.999933" fill="none" /><path transform="matrix(1 0 0 -1 0 841)" d="M187.9671 542.4525L187.9671 504.8464" stroke="#000000" stroke-width="0.3463709" stroke-dasharray="8,2.999933" fill="none" /><path transform="matrix(1 0 0 -1 0 841)" d="M187.9671 499.9903L187.9671 462.3843" stroke="#000000" stroke-width="0.3463709" stroke-dasharray="8,2.999933" fill="none" /><path transform="matrix(1 0 0 -1 0 841)" d="M188.3131 457.5263L188.3131 419.923" stroke="#000000" stroke-width="0.3463709" stroke-dasharray="8,2.999933" fill="none" /><path transform="matrix(1 0 0 -1 0 841)" d="M202.071 557.2969L201.808 516.7634" stroke="#000000" stroke-width="0.3463709" stroke-dasharray="8,3.000067" fill="none" /><path transform="matrix(1 0 0 -1 0 841)" d="M201.808 499.9903L201.808 472.1425" stroke="#000000" stroke-width="0.3463709" stroke-dasharray="8,2.999933" fill="none" /><path transform="matrix(1 0 0 -1 0 841)" d="M201.808 456.4907L201.808 428.6438" stroke="#000000" stroke-width="0.3463709" stroke-dasharray="8,2.999933" fill="none" /><path transform="matrix(1 0 0 -1 0 841)" d="M224.2997 456.4907L224.2997 448.5566" stroke="#000000" stroke-width="0.3463709" stroke-dasharray="8,2.999933" fill="none" /><path transform="matrix(1 0 0 -1 0 841)" d="M224.9917 499.6451L224.9917 491.7096" stroke="#000000" stroke-width="0.3463709" stroke-dasharray="8,2.999933" fill="none" /><path transform="matrix(1 0 0 -1 0 841)" d="M224.9917 573.5223L224.9917 534.494" stroke="#000000" stroke-width="0.3463709" stroke-dasharray="8,2.999933" fill="none" /></g></g></g></g><path transform="matrix(1 0 0 -1 0 841)" d="M86.4 190.907L510.084 190.907" stroke="#000000" stroke-width="0.873" fill="none" /><path transform="matrix(1 0 0 -1 0 841)" d="M86.4 171.717L510.084 171.717" stroke="#000000" stroke-width="0.545" fill="none" /><path transform="matrix(1 0 0 -1 0 841)" d="M86.4 152.527L510.084 152.527" stroke="#000000" stroke-width="0.873" fill="none" /></g></g></g></svg>