<svg xmlns="http://www.w3.org/2000/svg" xmlns:xlink="http://www.w3.org/1999/xlink" id="body_4" preserveAspectRatio="xMinYMin meet" viewBox="0 0 793 1121"><defs><clipPath id="1"><path d="M0 841L0 -0.8900146L0 -0.8900146L595.276 -0.8900146L595.276 -0.8900146L595.276 841L595.276 841L0 841z" /></clipPath><clipPath id="2"><path d="M170.076 255.593L425.2008 255.593L425.2008 255.593L425.2008 85.50879L425.2008 85.50879L170.076 85.50879z" /></clipPath></defs><g transform="matrix(1.333333 0 0 1.333333 0 0)"><g><g clip-path="url(#1)"><path transform="matrix(1 0 0 -1 0 841)" d="M86.4 780.197L508.876 780.197" stroke="#000000" stroke-width="0.398" fill="none" /><g clip-path="url(#2)"><path transform="matrix(1 0 0 -1 0 841)" d="M170.076 585.407L425.2008 585.407L425.2008 585.407L425.2008 755.4912L425.2008 755.4912L170.076 755.4912z" stroke="none" fill="#FFFFFF" fill-rule="winding" /><path transform="matrix(1 0 0 -1 0 841)" d="M170.076 585.407L425.2008 585.407L425.2008 585.407L425.2008 755.4912L425.2008 755.4912L170.076 755.4912z" stroke="none" fill="#FFFFFF" fill-rule="winding" /><path transform="matrix(1 0 0 -1 0 841)" d="M203.3333 604.0353L401.0551 604.0353L401.0551 604.0353L401.0551 742.9374L401.0551 742.9374L203.3333 742.9374z" stroke="none" fill="#FFFFFF" fill-rule="winding" /><path transform="matrix(1 0 0 -1 0 841)" d="M203.3333 604.0353L401.0551 604.0353" stroke="#262626" stroke-width="0.45558" stroke-linecap="square" fill="none" /><path transform="matrix(1 0 0 -1 0 841)" d="M203.3333 742.9374L401.0551 742.9374" stroke="#262626" stroke-width="0.45558" stroke-linecap="square" fill="none" /><path transform="matrix(1 0 0 -1 0 841)" d="M223.1055 604.0353L223.1055 605.7928" stroke="#262626" stroke-width="0.45558" stroke-linecap="square" fill="none" /><path transform="matrix(1 0 0 -1 0 841)" d="M223.1055 742.9374L223.1055 741.1799" stroke="#262626" stroke-width="0.45558" stroke-linecap="square" fill="none" /><path transform="matrix(1 0 0 -1 0 841)" d="M242.8777 604.0353L242.8777 605.7928" stroke="#262626" stroke-width="0.45558" stroke-linecap="square" fill="none" /><path transform="matrix(1 0 0 -1 0 841)" d="M242.8777 742.9374L242.8777 741.1799" stroke="#262626" stroke-width="0.45558" stroke-linecap="square" fill="none" /><path transform="matrix(1 0 0 -1 0 841)" d="M262.6498 604.0353L262.6498 605.7928" stroke="#262626" stroke-width="0.45558" stroke-linecap="square" fill="none" /><path transform="matrix(1 0 0 -1 0 841)" d="M262.6498 742.9374L262.6498 741.1799" stroke="#262626" stroke-width="0.45558" stroke-linecap="square" fill="none" /><path transform="matrix(1 0 0 -1 0 841)" d="M282.422 604.0353L282.422 605.7928" stroke="#262626" stroke-width="0.45558" stroke-linecap="square" fill="none" /><path transform="matrix(1 0 0 -1 0 841)" d="M282.422 742.9374L282.422 741.1799" stroke="#262626" stroke-width="0.45558" stroke-linecap="square" fill="none" /><path transform="matrix(1 0 0 -1 0 841)" d="M302.1942 604.0353L302.1942 605.7928" stroke="#262626" stroke-width="0.45558" stroke-linecap="square" fill="none" /><path transform="matrix(1 0 0 -1 0 841)" d="M302.1942 742.9374L302.1942 741.1799" stroke="#262626" stroke-width="0.45558" stroke-linecap="square" fill="none" /><path transform="matrix(1 0 0 -1 0 841)" d="M321.9664 604.0353L321.9664 605.7928" stroke="#262626" stroke-width="0.45558" stroke-linecap="square" fill="none" /><path transform="matrix(1 0 0 -1 0 841)" d="M321.9664 742.9374L321.9664 741.1799" stroke="#262626" stroke-width="0.45558" stroke-linecap="square" fill="none" /><path transform="matrix(1 0 0 -1 0 841)" d="M341.7385 604.0353L341.7385 605.7928" stroke="#262626" stroke-width="0.45558" stroke-linecap="square" fill="none" /><path transform="matrix(1 0 0 -1 0 841)" d="M341.7385 742.9374L341.7385 741.1799" stroke="#262626" stroke-width="0.45558" stroke-linecap="square" fill="none" /><path transform="matrix(1 0 0 -1 0 841)" d="M203.3333 604.0353L203.3333 742.9374" stroke="#262626" stroke-width="0.45558" stroke-linecap="square" fill="none" /><path transform="matrix(1 0 0 -1 0 841)" d="M401.0551 604.0353L401.0551 742.9374" stroke="#262626" stroke-width="0.45558" stroke-linecap="square" fill="none" /><path transform="matrix(1 0 0 -1 0 841)" d="M203.3333 604.0353L205.3106 604.0353" stroke="#262626" stroke-width="0.45558" stroke-linecap="square" fill="none" /><path transform="matrix(1 0 0 -1 0 841)" d="M401.0551 604.0353L399.0778 604.0353" stroke="#262626" stroke-width="0.45558" stroke-linecap="square" fill="none" /><path transform="matrix(1 0 0 -1 0 841)" d="M203.3333 617.9255L205.3106 617.9255" stroke="#262626" stroke-width="0.45558" stroke-linecap="square" fill="none" /><path transform="matrix(1 0 0 -1 0 841)" d="M401.0551 617.9255L399.0778 617.9255" stroke="#262626" stroke-width="0.45558" stroke-linecap="square" fill="none" /><path transform="matrix(1 0 0 -1 0 841)" d="M203.3333 631.8157L205.3106 631.8157" stroke="#262626" stroke-width="0.45558" stroke-linecap="square" fill="none" /><path transform="matrix(1 0 0 -1 0 841)" d="M401.0551 631.8157L399.0778 631.8157" stroke="#262626" stroke-width="0.45558" stroke-linecap="square" fill="none" /><path transform="matrix(1 0 0 -1 0 841)" d="M203.3333 645.7059L205.3106 645.7059" stroke="#262626" stroke-width="0.45558" stroke-linecap="square" fill="none" /><path transform="matrix(1 0 0 -1 0 841)" d="M401.0551 645.7059L399.0778 645.7059" stroke="#262626" stroke-width="0.45558" stroke-linecap="square" fill="none" /><path transform="matrix(1 0 0 -1 0 841)" d="M203.3333 659.5961L205.3106 659.5961" stroke="#262626" stroke-width="0.45558" stroke-linecap="square" fill="none" /><path transform="matrix(1 0 0 -1 0 841)" d="M401.0551 659.5961L399.0778 659.5961" stroke="#262626" stroke-width="0.45558" stroke-linecap="square" fill="none" /><path transform="matrix(1 0 0 -1 0 841)" d="M203.3333 673.4863L205.3106 673.4863" stroke="#262626" stroke-width="0.45558" stroke-linecap="square" fill="none" /><path transform="matrix(1 0 0 -1 0 841)" d="M401.0551 673.4863L399.0778 673.4863" stroke="#262626" stroke-width="0.45558" stroke-linecap="square" fill="none" /><path transform="matrix(1 0 0 -1 0 841)" d="M203.3333 687.3765L205.3106 687.3765" stroke="#262626" stroke-width="0.45558" stroke-linecap="square" fill="none" /><path transform="matrix(1 0 0 -1 0 841)" d="M401.0551 687.3765L399.0778 687.3765" stroke="#262626" stroke-width="0.45558" stroke-linecap="square" fill="none" /><path transform="matrix(1 0 0 -1 0 841)" d="M203.3333 701.2668L205.3106 701.2668" stroke="#262626" stroke-width="0.45558" stroke-linecap="square" fill="none" /><path transform="matrix(1 0 0 -1 0 841)" d="M401.0551 701.2668L399.0778 701.2668" stroke="#262626" stroke-width="0.45558" stroke-linecap="square" fill="none" /><path transform="matrix(1 0 0 -1 0 841)" d="M203.3333 715.157L205.3106 715.157" stroke="#262626" stroke-width="0.45558" stroke-linecap="square" fill="none" /><path transform="matrix(1 0 0 -1 0 841)" d="M401.0551 715.157L399.0778 715.157" stroke="#262626" stroke-width="0.45558" stroke-linecap="square" fill="none" /><path transform="matrix(1 0 0 -1 0 841)" d="M203.3333 729.0472L205.3106 729.0472" stroke="#262626" stroke-width="0.45558" stroke-linecap="square" fill="none" /><path transform="matrix(1 0 0 -1 0 841)" d="M401.0551 729.0472L399.0778 729.0472" stroke="#262626" stroke-width="0.45558" stroke-linecap="square" fill="none" /><path transform="matrix(1 0 0 -1 0 841)" d="M203.3333 742.9374L205.3106 742.9374" stroke="#262626" stroke-width="0.45558" stroke-linecap="square" fill="none" /><path transform="matrix(1 0 0 -1 0 841)" d="M401.0551 742.9374L399.0778 742.9374" stroke="#262626" stroke-width="0.45558" stroke-linecap="square" fill="none" /><path transform="matrix(1 0 0 -1 0 841)" d="M215.1967 604.0353L231.0143 604.0353L231.0143 604.0353L231.0143 604.0353L231.0143 604.0353L215.1967 604.0353z" stroke="none" fill="#352A86" fill-rule="winding" /><path transform="matrix(1 0 0 -1 0 841)" d="M234.9688 604.0353L250.7864 604.0353L250.7864 604.0353L250.7864 620.7035L250.7864 620.7035L234.9688 620.7035z" stroke="none" fill="#352A86" fill-rule="winding" /><path transform="matrix(1 0 0 -1 0 841)" d="M254.741 604.0353L270.5586 604.0353L270.5586 604.0353L270.5586 695.7107L270.5586 695.7107L254.741 695.7107z" stroke="none" fill="#352A86" fill-rule="winding" /><path transform="matrix(1 0 0 -1 0 841)" d="M274.5132 604.0353L290.3308 604.0353L290.3308 604.0353L290.3308 681.8204L290.3308 681.8204L274.5132 681.8204z" stroke="none" fill="#352A86" fill-rule="winding" /><path transform="matrix(1 0 0 -1 0 841)" d="M294.2853 604.0353L310.103 604.0353L310.103 604.0353L310.103 634.5937L310.103 634.5937L294.2853 634.5937z" stroke="none" fill="#352A86" fill-rule="winding" /><path transform="matrix(1 0 0 -1 0 841)" d="M314.0575 604.0353L329.8751 604.0353L329.8751 604.0353L329.8751 634.5937L329.8751 634.5937L314.0575 634.5937z" stroke="none" fill="#352A86" fill-rule="winding" /><path transform="matrix(1 0 0 -1 0 841)" d="M333.8297 604.0353L349.6473 604.0353L349.6473 604.0353L349.6473 634.5937L349.6473 634.5937L333.8297 634.5937z" stroke="none" fill="#352A86" fill-rule="winding" /><path transform="matrix(1 0 0 -1 0 841)" d="M215.1967 604.0353L231.0144 604.0353L231.0144 604.0353L215.1967 604.0353" stroke="#000000" stroke-width="0.45558" stroke-linecap="square" fill="none" /><path transform="matrix(1 0 0 -1 0 841)" d="M234.9688 604.0353L234.9688 620.7035L234.9688 620.7035L250.7866 620.7035L250.7866 620.7035L250.7866 604.0353L250.7866 604.0353L234.9688 604.0353" stroke="#000000" stroke-width="0.45558" stroke-linecap="square" fill="none" /><path transform="matrix(1 0 0 -1 0 841)" d="M254.741 604.0353L254.741 695.7107L254.741 695.7107L270.5587 695.7107L270.5587 695.7107L270.5587 604.0353L270.5587 604.0353L254.741 604.0353" stroke="#000000" stroke-width="0.45558" stroke-linecap="square" fill="none" /><path transform="matrix(1 0 0 -1 0 841)" d="M274.5132 604.0353L274.5132 681.8204L274.5132 681.8204L290.3309 681.8204L290.3309 681.8204L290.3309 604.0353L290.3309 604.0353L274.5132 604.0353" stroke="#000000" stroke-width="0.45558" stroke-linecap="square" fill="none" /><path transform="matrix(1 0 0 -1 0 841)" d="M294.2853 604.0353L294.2853 634.5937L294.2853 634.5937L310.1031 634.5937L310.1031 634.5937L310.1031 604.0353L310.1031 604.0353L294.2853 604.0353" stroke="#000000" stroke-width="0.45558" stroke-linecap="square" fill="none" /><path transform="matrix(1 0 0 -1 0 841)" d="M314.0575 604.0353L314.0575 634.5937L314.0575 634.5937L329.8752 634.5937L329.8752 634.5937L329.8752 604.0353L329.8752 604.0353L314.0575 604.0353" stroke="#000000" stroke-width="0.45558" stroke-linecap="square" fill="none" /><path transform="matrix(1 0 0 -1 0 841)" d="M333.8297 604.0353L333.8297 634.5937L333.8297 634.5937L349.6474 634.5937L349.6474 634.5937L349.6474 604.0353L349.6474 604.0353L333.8297 604.0353" stroke="#000000" stroke-width="0.45558" stroke-linecap="square" fill="none" /><path transform="matrix(1 0 0 -1 0 841)" d="M223.1055 653.6113L224.9027 655.9531L224.9027 655.9531L226.7006 658.283L226.7006 658.283L228.4978 660.5778L228.4978 660.5778L230.2953 662.8142L230.2953 662.8142L232.0926 664.973L232.0926 664.973L233.8906 667.035L233.8906 667.035L235.688 668.9853L235.688 668.9853L237.4854 670.8098L237.4854 670.8098L239.2829 672.4966L239.2829 672.4966L241.0803 674.036L241.0803 674.036L242.8777 675.4199L242.8777 675.4199L244.6751 676.6423L244.6751 676.6423L246.4725 677.6979L246.4725 677.6979L248.2699 678.5851L248.2699 678.5851L250.0674 679.3005L250.0674 679.3005L251.8648 679.8459L251.8648 679.8459L253.6628 680.2211L253.6628 680.2211L255.4602 680.4296L255.4602 680.4296L257.2576 680.4749L257.2576 680.4749L259.055 680.361L259.055 680.361L260.8524 680.0937L260.8524 680.0937L262.6498 679.679L262.6498 679.679L264.4473 679.124L264.4473 679.124L266.2447 678.4355L266.2447 678.4355L268.0421 677.6223L268.0421 677.6223L269.8395 676.6926L269.8395 676.6926L271.6369 675.6548L271.6369 675.6548L273.435 674.5187L273.435 674.5187L275.2324 673.2925L275.2324 673.2925L277.0298 671.9853L277.0298 671.9853L278.8272 670.6068L278.8272 670.6068L280.6246 669.1656L280.6246 669.1656L282.422 667.6711L282.422 667.6711L284.2195 666.1322L284.2195 666.1322L286.0168 664.5566L286.0168 664.5566L287.8143 662.9536L287.8143 662.9536L289.6117 661.3299L289.6117 661.3299L291.4091 659.6938L291.4091 659.6938L293.2071 658.0524L293.2071 658.0524L295.0045 656.4126L295.0045 656.4126L296.8019 654.7798L296.8019 654.7798L298.5994 653.161L298.5994 653.161L300.3968 651.5606L300.3968 651.5606L302.1942 649.9839L302.1942 649.9839L303.9916 648.4354L303.9916 648.4354L305.789 646.9186L305.789 646.9186L307.5864 645.4381L307.5864 645.4381L309.3839 643.9954L309.3839 643.9954L311.1813 642.5942L311.1813 642.5942L312.9793 641.2357L312.9793 641.2357L314.7767 639.923L314.7767 639.923L316.5741 638.656L316.5741 638.656L318.3716 637.4366L318.3716 637.4366L320.1689 636.265L320.1689 636.265L321.9664 635.142L321.9664 635.142L323.7638 634.0672L323.7638 634.0672L325.5612 633.0407L325.5612 633.0407L327.3586 632.0623L327.3586 632.0623L329.156 631.1308L329.156 631.1308L330.9534 630.2456L330.9534 630.2456L332.7515 629.4061L332.7515 629.4061L334.5489 628.6112L334.5489 628.6112L336.3463 627.8593L336.3463 627.8593L338.1437 627.1494L338.1437 627.1494L339.9411 626.4803L339.9411 626.4803L341.7385 625.8505L341.7385 625.8505L343.5359 625.2585L343.5359 625.2585L345.3334 624.7033L345.3334 624.7033L347.1308 624.1834L347.1308 624.1834L348.9282 623.697L348.9282 623.697L350.7256 623.2427L350.7256 623.2427L352.5237 622.8194L352.5237 622.8194L354.321 622.4258L354.321 622.4258L356.1185 622.0601L356.1185 622.0601L357.9159 621.7211L357.9159 621.7211L359.7133 621.4073L359.7133 621.4073L361.5107 621.1173L361.5107 621.1173L363.3081 620.8496L363.3081 620.8496L365.1055 620.6031L365.1055 620.6031L366.903 620.3755L366.903 620.3755L368.7004 620.166L368.7004 620.166L370.4978 619.9727L370.4978 619.9727L372.2958 619.7939L372.2958 619.7939L374.0932 619.6284L374.0932 619.6284L375.8906 619.4745L375.8906 619.4745L377.688 619.3306L377.688 619.3306L379.4855 619.1958L379.4855 619.1958L381.2829 619.0682L381.2829 619.0682L383.0803 618.9471L383.0803 618.9471L384.8777 618.8322L384.8777 618.8322L386.6751 618.723L386.6751 618.723L388.4725 618.6192L388.4725 618.6192L390.27 618.5228L390.27 618.5228L392.068 618.4349L392.068 618.4349L393.8654 618.3591L393.8654 618.3591L395.6628 618.3001L395.6628 618.3001L397.4602 618.2636L397.4602 618.2636L399.2576 618.2579L399.2576 618.2579L401.0551 618.2935" stroke="#FF0000" stroke-width="1.215032" stroke-linecap="square" fill="none" /><path transform="matrix(1 0 0 -1 0 841)" d="M203.3333 604.0353L401.0551 604.0353" stroke="#262626" stroke-width="0.45558" stroke-linecap="square" fill="none" /></g><path transform="matrix(1 0 0 -1 0 841)" d="M303.326 383.215L347.396 383.215" stroke="#000000" stroke-width="0.436" fill="none" /><path transform="matrix(1 0 0 -1 0 841)" d="M313.434 299.492L325.434 299.492" stroke="#000000" stroke-width="0.436" fill="none" /><path transform="matrix(1 0 0 -1 0 841)" d="M281.978 218.341L315.722 218.341" stroke="#000000" stroke-width="0.436" fill="none" /><path transform="matrix(1 0 0 -1 0 841)" d="M86.4 125.216L486.515 125.216" stroke="#000000" stroke-width="0.873" fill="none" /><path transform="matrix(1 0 0 -1 0 841)" d="M86.4 106.026L486.515 106.026" stroke="#000000" stroke-width="0.545" fill="none" /><path transform="matrix(1 0 0 -1 0 841)" d="M86.4 86.836L486.515 86.836" stroke="#000000" stroke-width="0.873" fill="none" /></g></g></g></svg>