<svg xmlns="http://www.w3.org/2000/svg" xmlns:xlink="http://www.w3.org/1999/xlink" id="body_5" preserveAspectRatio="xMinYMin meet" viewBox="0 0 793 1121"><defs><clipPath id="1"><path d="M0 841L0 -0.8900146L0 -0.8900146L595.276 -0.8900146L595.276 -0.8900146L595.276 841L595.276 841L0 841z" /></clipPath></defs><g transform="matrix(1.333333 0 0 1.333333 0 0)"><g><g clip-path="url(#1)"><path transform="matrix(1 0 0 -1 0 841)" d="M86.4 780.197L508.876 780.197" stroke="#000000" stroke-width="0.398" fill="none" /><path transform="matrix(1 0 0 -1 0 841)" d="M260.457 720.39L312.474 720.39" stroke="#000000" stroke-width="0.436" fill="none" /><path transform="matrix(1 0 0 -1 0 841)" d="M110.322 558.604L484.954 558.604" stroke="#000000" stroke-width="0.873" fill="none" /><path transform="matrix(1 0 0 -1 0 841)" d="M110.322 539.414L484.954 539.414" stroke="#000000" stroke-width="0.545" fill="none" /><path transform="matrix(1 0 0 -1 0 841)" d="M110.322 438.929L484.954 438.929" stroke="#000000" stroke-width="0.873" fill="none" /><path transform="matrix(1 0 0 -1 0 841)" d="M236.922 358.938L291.09 358.938" stroke="#000000" stroke-width="0.436" fill="none" /><path transform="matrix(1 0 0 -1 0 841)" d="M325.601 358.938L342.757 358.938" stroke="#000000" stroke-width="0.436" fill="none" /></g></g></g></svg>