<svg xmlns="http://www.w3.org/2000/svg" xmlns:xlink="http://www.w3.org/1999/xlink" id="body_19" preserveAspectRatio="xMinYMin meet" viewBox="0 0 793 1121"><defs><clipPath id="1"><path d="M0 841L0 -0.8900146L0 -0.8900146L595.276 -0.8900146L595.276 -0.8900146L595.276 841L595.276 841L0 841z" /></clipPath><clipPath id="2"><path d="M109.841 572.551L279.92 572.551L279.92 572.551L279.92 444.9918L279.92 444.9918L109.841 444.9918z" /></clipPath><clipPath id="3"><path d="M315.355 572.551L485.434 572.551L485.434 572.551L485.434 444.9918L485.434 444.9918L315.355 444.9918z" /></clipPath></defs><g transform="matrix(1.333333 0 0 1.333333 0 0)"><g><g clip-path="url(#1)"><path transform="matrix(1 0 0 -1 0 841)" d="M86.4 780.197L508.876 780.197" stroke="#000000" stroke-width="0.398" fill="none" /><g clip-path="url(#2)"><path transform="matrix(1 0 0 -1 0 841)" d="M109.841 268.449L279.92 268.449L279.92 268.449L279.92 396.0082L279.92 396.0082L109.841 396.0082z" stroke="none" fill="#FFFFFF" fill-rule="winding" /><path transform="matrix(1 0 0 -1 0 841)" d="M109.841 268.449L279.92 268.449L279.92 268.449L279.92 396.0082L279.92 396.0082L109.841 396.0082z" stroke="none" fill="#FFFFFF" fill-rule="winding" /><path transform="matrix(1 0 0 -1 0 841)" d="M132.012 282.7235L263.8232 282.7235L263.8232 282.7235L263.8232 386.5932L263.8232 386.5932L132.012 386.5932z" stroke="none" fill="#FFFFFF" fill-rule="winding" /><path transform="matrix(1 0 0 -1 0 841)" d="M132.012 282.7235L263.8232 282.7235" stroke="#262626" stroke-width="0.3037125" stroke-linecap="square" fill="none" /><path transform="matrix(1 0 0 -1 0 841)" d="M132.012 386.5932L263.8232 386.5932" stroke="#262626" stroke-width="0.3037125" stroke-linecap="square" fill="none" /><path transform="matrix(1 0 0 -1 0 841)" d="M132.012 282.7235L132.012 284.0417" stroke="#262626" stroke-width="0.3037125" stroke-linecap="square" fill="none" /><path transform="matrix(1 0 0 -1 0 841)" d="M132.012 386.5932L132.012 385.2751" stroke="#262626" stroke-width="0.3037125" stroke-linecap="square" fill="none" /><path transform="matrix(1 0 0 -1 0 841)" d="M145.1931 282.7235L145.1931 284.0417" stroke="#262626" stroke-width="0.3037125" stroke-linecap="square" fill="none" /><path transform="matrix(1 0 0 -1 0 841)" d="M145.1931 386.5932L145.1931 385.2751" stroke="#262626" stroke-width="0.3037125" stroke-linecap="square" fill="none" /><path transform="matrix(1 0 0 -1 0 841)" d="M158.3743 282.7235L158.3743 284.0417" stroke="#262626" stroke-width="0.3037125" stroke-linecap="square" fill="none" /><path transform="matrix(1 0 0 -1 0 841)" d="M158.3743 386.5932L158.3743 385.2751" stroke="#262626" stroke-width="0.3037125" stroke-linecap="square" fill="none" /><path transform="matrix(1 0 0 -1 0 841)" d="M171.5554 282.7235L171.5554 284.0417" stroke="#262626" stroke-width="0.3037125" stroke-linecap="square" fill="none" /><path transform="matrix(1 0 0 -1 0 841)" d="M171.5554 386.5932L171.5554 385.2751" stroke="#262626" stroke-width="0.3037125" stroke-linecap="square" fill="none" /><path transform="matrix(1 0 0 -1 0 841)" d="M184.7365 282.7235L184.7365 284.0417" stroke="#262626" stroke-width="0.3037125" stroke-linecap="square" fill="none" /><path transform="matrix(1 0 0 -1 0 841)" d="M184.7365 386.5932L184.7365 385.2751" stroke="#262626" stroke-width="0.3037125" stroke-linecap="square" fill="none" /><path transform="matrix(1 0 0 -1 0 841)" d="M197.9176 282.7235L197.9176 284.0417" stroke="#262626" stroke-width="0.3037125" stroke-linecap="square" fill="none" /><path transform="matrix(1 0 0 -1 0 841)" d="M197.9176 386.5932L197.9176 385.2751" stroke="#262626" stroke-width="0.3037125" stroke-linecap="square" fill="none" /><path transform="matrix(1 0 0 -1 0 841)" d="M211.0988 282.7235L211.0988 284.0417" stroke="#262626" stroke-width="0.3037125" stroke-linecap="square" fill="none" /><path transform="matrix(1 0 0 -1 0 841)" d="M211.0988 386.5932L211.0988 385.2751" stroke="#262626" stroke-width="0.3037125" stroke-linecap="square" fill="none" /><path transform="matrix(1 0 0 -1 0 841)" d="M224.2799 282.7235L224.2799 284.0417" stroke="#262626" stroke-width="0.3037125" stroke-linecap="square" fill="none" /><path transform="matrix(1 0 0 -1 0 841)" d="M224.2799 386.5932L224.2799 385.2751" stroke="#262626" stroke-width="0.3037125" stroke-linecap="square" fill="none" /><path transform="matrix(1 0 0 -1 0 841)" d="M237.461 282.7235L237.461 284.0417" stroke="#262626" stroke-width="0.3037125" stroke-linecap="square" fill="none" /><path transform="matrix(1 0 0 -1 0 841)" d="M237.461 386.5932L237.461 385.2751" stroke="#262626" stroke-width="0.3037125" stroke-linecap="square" fill="none" /><path transform="matrix(1 0 0 -1 0 841)" d="M250.6421 282.7235L250.6421 284.0417" stroke="#262626" stroke-width="0.3037125" stroke-linecap="square" fill="none" /><path transform="matrix(1 0 0 -1 0 841)" d="M250.6421 386.5932L250.6421 385.2751" stroke="#262626" stroke-width="0.3037125" stroke-linecap="square" fill="none" /><path transform="matrix(1 0 0 -1 0 841)" d="M263.8232 282.7235L263.8232 284.0417" stroke="#262626" stroke-width="0.3037125" stroke-linecap="square" fill="none" /><path transform="matrix(1 0 0 -1 0 841)" d="M263.8232 386.5932L263.8232 385.2751" stroke="#262626" stroke-width="0.3037125" stroke-linecap="square" fill="none" /><path transform="matrix(1 0 0 -1 0 841)" d="M132.012 282.7235L132.012 386.5932" stroke="#262626" stroke-width="0.3037125" stroke-linecap="square" fill="none" /><path transform="matrix(1 0 0 -1 0 841)" d="M263.8232 282.7235L263.8232 386.5932" stroke="#262626" stroke-width="0.3037125" stroke-linecap="square" fill="none" /><path transform="matrix(1 0 0 -1 0 841)" d="M132.012 282.7235L133.3302 282.7235" stroke="#262626" stroke-width="0.3037125" stroke-linecap="square" fill="none" /><path transform="matrix(1 0 0 -1 0 841)" d="M263.8232 282.7235L262.5051 282.7235" stroke="#262626" stroke-width="0.3037125" stroke-linecap="square" fill="none" /><path transform="matrix(1 0 0 -1 0 841)" d="M132.012 303.4974L133.3302 303.4974" stroke="#262626" stroke-width="0.3037125" stroke-linecap="square" fill="none" /><path transform="matrix(1 0 0 -1 0 841)" d="M263.8232 303.4974L262.5051 303.4974" stroke="#262626" stroke-width="0.3037125" stroke-linecap="square" fill="none" /><path transform="matrix(1 0 0 -1 0 841)" d="M132.012 324.2714L133.3302 324.2714" stroke="#262626" stroke-width="0.3037125" stroke-linecap="square" fill="none" /><path transform="matrix(1 0 0 -1 0 841)" d="M263.8232 324.2714L262.5051 324.2714" stroke="#262626" stroke-width="0.3037125" stroke-linecap="square" fill="none" /><path transform="matrix(1 0 0 -1 0 841)" d="M132.012 345.0453L133.3302 345.0453" stroke="#262626" stroke-width="0.3037125" stroke-linecap="square" fill="none" /><path transform="matrix(1 0 0 -1 0 841)" d="M263.8232 345.0453L262.5051 345.0453" stroke="#262626" stroke-width="0.3037125" stroke-linecap="square" fill="none" /><path transform="matrix(1 0 0 -1 0 841)" d="M132.012 365.8192L133.3302 365.8192" stroke="#262626" stroke-width="0.3037125" stroke-linecap="square" fill="none" /><path transform="matrix(1 0 0 -1 0 841)" d="M263.8232 365.8192L262.5051 365.8192" stroke="#262626" stroke-width="0.3037125" stroke-linecap="square" fill="none" /><path transform="matrix(1 0 0 -1 0 841)" d="M132.012 386.5932L133.3302 386.5932" stroke="#262626" stroke-width="0.3037125" stroke-linecap="square" fill="none" /><path transform="matrix(1 0 0 -1 0 841)" d="M263.8232 386.5932L262.5051 386.5932" stroke="#262626" stroke-width="0.3037125" stroke-linecap="square" fill="none" /><path transform="matrix(1 0 0 -1 0 841)" d="M132.012 282.7235L145.1931 303.0194L145.1931 303.0194L158.3743 317.2102L158.3743 317.2102L171.5554 327.2615L171.5554 327.2615L184.7365 334.4716L184.7365 334.4716L197.9176 339.7068L197.9176 339.7068L211.0988 343.5526L211.0988 343.5526L224.2799 346.4088L224.2799 346.4088L237.461 348.5518L237.461 348.5518L250.6421 350.1756L250.6421 350.1756L263.8232 351.4176" stroke="#0072BD" stroke-width="0.3037125" stroke-linecap="square" fill="none" /><path transform="matrix(1 0 0 -1 0 841)" d="M132.012 282.7235L145.1931 304.6348L145.1931 304.6348L158.3743 319.9744L158.3743 319.9744L171.5554 330.8502L171.5554 330.8502L184.7365 338.6572L184.7365 338.6572L197.9176 344.3297L197.9176 344.3297L211.0988 348.4983L211.0988 348.4983L224.2799 351.5962L224.2799 351.5962L237.461 353.9218L237.461 353.9218L250.6421 355.6841L250.6421 355.6841L263.8232 357.0322" stroke="#D95319" stroke-width="0.3037125" stroke-linecap="square" fill="none" /><path transform="matrix(1 0 0 -1 0 841)" d="M132.012 282.7235L145.1931 306.2694L145.1931 306.2694L158.3743 322.7739L158.3743 322.7739L171.5554 334.4862L171.5554 334.4862L184.7365 342.9007L184.7365 342.9007L197.9176 349.0175L197.9176 349.0175L211.0988 353.516L211.0988 353.516L224.2799 356.8593L224.2799 356.8593L237.461 359.3704L237.461 359.3704L250.6421 361.2745L250.6421 361.2745L263.8232 362.7311" stroke="#EDB120" stroke-width="0.3037125" stroke-linecap="square" fill="none" /><path transform="matrix(1 0 0 -1 0 841)" d="M132.012 282.7235L145.1931 307.9198L145.1931 307.9198L158.3743 325.602L158.3743 325.602L171.5554 338.1616L171.5554 338.1616L184.7365 347.1911L184.7365 347.1911L197.9176 353.7598L197.9176 353.7598L211.0988 358.5921L211.0988 358.5921L224.2799 362.186L224.2799 362.186L237.461 364.8858L237.461 364.8858L250.6421 366.9332L250.6421 366.9332L263.8232 368.5004" stroke="#7E2F8E" stroke-width="0.3037125" stroke-linecap="square" fill="none" /><path transform="matrix(1 0 0 -1 0 841)" d="M132.012 282.7235L145.1931 309.5814L145.1931 309.5814L158.3743 328.4517L158.3743 328.4517L171.5554 341.8676L171.5554 341.8676L184.7365 351.5196L184.7365 351.5196L197.9176 358.5447L197.9176 358.5447L211.0988 363.7155L211.0988 363.7155L224.2799 367.5625L224.2799 367.5625L237.461 370.4535L237.461 370.4535L250.6421 372.6471L250.6421 372.6471L263.8232 374.3264" stroke="#77AC30" stroke-width="0.3037125" stroke-linecap="square" fill="none" /><path transform="matrix(1 0 0 -1 0 841)" d="M132.012 282.7235L145.1931 311.2514L145.1931 311.2514L158.3743 331.3179L158.3743 331.3179L171.5554 345.5964L171.5554 345.5964L184.7365 355.8757L184.7365 355.8757L197.9176 363.362L197.9176 363.362L211.0988 368.875L211.0988 368.875L224.2799 372.9775L224.2799 372.9775L237.461 376.0624L237.461 376.0624L250.6421 378.403L250.6421 378.403L263.8232 380.1962" stroke="#4DBEEE" stroke-width="0.3037125" stroke-linecap="square" fill="none" /><path transform="matrix(1 0 0 -1 0 841)" d="M132.012 282.7235L145.1931 312.9263L145.1931 312.9263L158.3743 334.1938L158.3743 334.1938L171.5554 349.3398L171.5554 349.3398L184.7365 360.2512L184.7365 360.2512L197.9176 368.2015L197.9176 368.2015L211.0988 374.0591L211.0988 374.0591L224.2799 378.42L224.2799 378.42L237.461 381.6993L237.461 381.6993L250.6421 384.1894L250.6421 384.1894L263.8232 386.0963" stroke="#A2142F" stroke-width="0.3037125" stroke-linecap="square" fill="none" /><path transform="matrix(1 0 0 -1 0 841)" d="M226.4666 289.7089L256.8378 289.7089L256.8378 289.7089L256.8378 333.1398L256.8378 333.1398L226.4666 333.1398z" stroke="none" fill="#FFFFFF" fill-rule="winding" /><path transform="matrix(1 0 0 -1 0 841)" d="M228.8963 329.4272L241.0448 329.4272" stroke="#0072BD" stroke-width="0.3037125" stroke-linecap="square" fill="none" /><path transform="matrix(1 0 0 -1 0 841)" d="M228.8963 323.4266L241.0448 323.4266" stroke="#D95319" stroke-width="0.3037125" stroke-linecap="square" fill="none" /><path transform="matrix(1 0 0 -1 0 841)" d="M228.8963 317.4253L241.0448 317.4253" stroke="#EDB120" stroke-width="0.3037125" stroke-linecap="square" fill="none" /><path transform="matrix(1 0 0 -1 0 841)" d="M228.8963 311.4243L241.0448 311.4243" stroke="#7E2F8E" stroke-width="0.3037125" stroke-linecap="square" fill="none" /><path transform="matrix(1 0 0 -1 0 841)" d="M228.8963 305.4233L241.0448 305.4233" stroke="#77AC30" stroke-width="0.3037125" stroke-linecap="square" fill="none" /><path transform="matrix(1 0 0 -1 0 841)" d="M228.8963 299.4221L241.0448 299.4221" stroke="#4DBEEE" stroke-width="0.3037125" stroke-linecap="square" fill="none" /><path transform="matrix(1 0 0 -1 0 841)" d="M228.8963 293.4214L241.0448 293.4214" stroke="#A2142F" stroke-width="0.3037125" stroke-linecap="square" fill="none" /><path transform="matrix(1 0 0 -1 0 841)" d="M226.4666 289.7089L226.4666 333.1398L226.4666 333.1398L256.8378 333.1398L256.8378 333.1398L256.8378 289.7089L256.8378 289.7089L226.4666 289.7089" stroke="#FFFFFF" stroke-width="0.3037125" stroke-linecap="square" fill="none" /></g><g clip-path="url(#3)"><path transform="matrix(1 0 0 -1 0 841)" d="M315.355 268.449L485.434 268.449L485.434 268.449L485.434 396.0082L485.434 396.0082L315.355 396.0082z" stroke="none" fill="#FFFFFF" fill-rule="winding" /><path transform="matrix(1 0 0 -1 0 841)" d="M315.355 268.449L485.434 268.449L485.434 268.449L485.434 396.0082L485.434 396.0082L315.355 396.0082z" stroke="none" fill="#FFFFFF" fill-rule="winding" /><path transform="matrix(1 0 0 -1 0 841)" d="M337.526 282.7235L469.3372 282.7235L469.3372 282.7235L469.3372 386.5932L469.3372 386.5932L337.526 386.5932z" stroke="none" fill="#FFFFFF" fill-rule="winding" /><path transform="matrix(1 0 0 -1 0 841)" d="M337.526 282.7235L469.3372 282.7235" stroke="#262626" stroke-width="0.3037125" stroke-linecap="square" fill="none" /><path transform="matrix(1 0 0 -1 0 841)" d="M337.526 386.5932L469.3372 386.5932" stroke="#262626" stroke-width="0.3037125" stroke-linecap="square" fill="none" /><path transform="matrix(1 0 0 -1 0 841)" d="M337.526 282.7235L337.526 284.0417" stroke="#262626" stroke-width="0.3037125" stroke-linecap="square" fill="none" /><path transform="matrix(1 0 0 -1 0 841)" d="M337.526 386.5932L337.526 385.2751" stroke="#262626" stroke-width="0.3037125" stroke-linecap="square" fill="none" /><path transform="matrix(1 0 0 -1 0 841)" d="M350.7072 282.7235L350.7072 284.0417" stroke="#262626" stroke-width="0.3037125" stroke-linecap="square" fill="none" /><path transform="matrix(1 0 0 -1 0 841)" d="M350.7072 386.5932L350.7072 385.2751" stroke="#262626" stroke-width="0.3037125" stroke-linecap="square" fill="none" /><path transform="matrix(1 0 0 -1 0 841)" d="M363.8883 282.7235L363.8883 284.0417" stroke="#262626" stroke-width="0.3037125" stroke-linecap="square" fill="none" /><path transform="matrix(1 0 0 -1 0 841)" d="M363.8883 386.5932L363.8883 385.2751" stroke="#262626" stroke-width="0.3037125" stroke-linecap="square" fill="none" /><path transform="matrix(1 0 0 -1 0 841)" d="M377.0694 282.7235L377.0694 284.0417" stroke="#262626" stroke-width="0.3037125" stroke-linecap="square" fill="none" /><path transform="matrix(1 0 0 -1 0 841)" d="M377.0694 386.5932L377.0694 385.2751" stroke="#262626" stroke-width="0.3037125" stroke-linecap="square" fill="none" /><path transform="matrix(1 0 0 -1 0 841)" d="M390.2505 282.7235L390.2505 284.0417" stroke="#262626" stroke-width="0.3037125" stroke-linecap="square" fill="none" /><path transform="matrix(1 0 0 -1 0 841)" d="M390.2505 386.5932L390.2505 385.2751" stroke="#262626" stroke-width="0.3037125" stroke-linecap="square" fill="none" /><path transform="matrix(1 0 0 -1 0 841)" d="M403.4316 282.7235L403.4316 284.0417" stroke="#262626" stroke-width="0.3037125" stroke-linecap="square" fill="none" /><path transform="matrix(1 0 0 -1 0 841)" d="M403.4316 386.5932L403.4316 385.2751" stroke="#262626" stroke-width="0.3037125" stroke-linecap="square" fill="none" /><path transform="matrix(1 0 0 -1 0 841)" d="M416.6128 282.7235L416.6128 284.0417" stroke="#262626" stroke-width="0.3037125" stroke-linecap="square" fill="none" /><path transform="matrix(1 0 0 -1 0 841)" d="M416.6128 386.5932L416.6128 385.2751" stroke="#262626" stroke-width="0.3037125" stroke-linecap="square" fill="none" /><path transform="matrix(1 0 0 -1 0 841)" d="M429.7939 282.7235L429.7939 284.0417" stroke="#262626" stroke-width="0.3037125" stroke-linecap="square" fill="none" /><path transform="matrix(1 0 0 -1 0 841)" d="M429.7939 386.5932L429.7939 385.2751" stroke="#262626" stroke-width="0.3037125" stroke-linecap="square" fill="none" /><path transform="matrix(1 0 0 -1 0 841)" d="M442.975 282.7235L442.975 284.0417" stroke="#262626" stroke-width="0.3037125" stroke-linecap="square" fill="none" /><path transform="matrix(1 0 0 -1 0 841)" d="M442.975 386.5932L442.975 385.2751" stroke="#262626" stroke-width="0.3037125" stroke-linecap="square" fill="none" /><path transform="matrix(1 0 0 -1 0 841)" d="M456.1561 282.7235L456.1561 284.0417" stroke="#262626" stroke-width="0.3037125" stroke-linecap="square" fill="none" /><path transform="matrix(1 0 0 -1 0 841)" d="M456.1561 386.5932L456.1561 385.2751" stroke="#262626" stroke-width="0.3037125" stroke-linecap="square" fill="none" /><path transform="matrix(1 0 0 -1 0 841)" d="M469.3372 282.7235L469.3372 284.0417" stroke="#262626" stroke-width="0.3037125" stroke-linecap="square" fill="none" /><path transform="matrix(1 0 0 -1 0 841)" d="M469.3372 386.5932L469.3372 385.2751" stroke="#262626" stroke-width="0.3037125" stroke-linecap="square" fill="none" /><path transform="matrix(1 0 0 -1 0 841)" d="M337.526 282.7235L337.526 386.5932" stroke="#262626" stroke-width="0.3037125" stroke-linecap="square" fill="none" /><path transform="matrix(1 0 0 -1 0 841)" d="M469.3372 282.7235L469.3372 386.5932" stroke="#262626" stroke-width="0.3037125" stroke-linecap="square" fill="none" /><path transform="matrix(1 0 0 -1 0 841)" d="M337.526 282.7235L338.8442 282.7235" stroke="#262626" stroke-width="0.3037125" stroke-linecap="square" fill="none" /><path transform="matrix(1 0 0 -1 0 841)" d="M469.3372 282.7235L468.0191 282.7235" stroke="#262626" stroke-width="0.3037125" stroke-linecap="square" fill="none" /><path transform="matrix(1 0 0 -1 0 841)" d="M337.526 295.7072L338.8442 295.7072" stroke="#262626" stroke-width="0.3037125" stroke-linecap="square" fill="none" /><path transform="matrix(1 0 0 -1 0 841)" d="M469.3372 295.7072L468.0191 295.7072" stroke="#262626" stroke-width="0.3037125" stroke-linecap="square" fill="none" /><path transform="matrix(1 0 0 -1 0 841)" d="M337.526 308.6909L338.8442 308.6909" stroke="#262626" stroke-width="0.3037125" stroke-linecap="square" fill="none" /><path transform="matrix(1 0 0 -1 0 841)" d="M469.3372 308.6909L468.0191 308.6909" stroke="#262626" stroke-width="0.3037125" stroke-linecap="square" fill="none" /><path transform="matrix(1 0 0 -1 0 841)" d="M337.526 321.6748L338.8442 321.6748" stroke="#262626" stroke-width="0.3037125" stroke-linecap="square" fill="none" /><path transform="matrix(1 0 0 -1 0 841)" d="M469.3372 321.6748L468.0191 321.6748" stroke="#262626" stroke-width="0.3037125" stroke-linecap="square" fill="none" /><path transform="matrix(1 0 0 -1 0 841)" d="M337.526 334.6583L338.8442 334.6583" stroke="#262626" stroke-width="0.3037125" stroke-linecap="square" fill="none" /><path transform="matrix(1 0 0 -1 0 841)" d="M469.3372 334.6583L468.0191 334.6583" stroke="#262626" stroke-width="0.3037125" stroke-linecap="square" fill="none" /><path transform="matrix(1 0 0 -1 0 841)" d="M337.526 347.6422L338.8442 347.6422" stroke="#262626" stroke-width="0.3037125" stroke-linecap="square" fill="none" /><path transform="matrix(1 0 0 -1 0 841)" d="M469.3372 347.6422L468.0191 347.6422" stroke="#262626" stroke-width="0.3037125" stroke-linecap="square" fill="none" /><path transform="matrix(1 0 0 -1 0 841)" d="M337.526 360.6257L338.8442 360.6257" stroke="#262626" stroke-width="0.3037125" stroke-linecap="square" fill="none" /><path transform="matrix(1 0 0 -1 0 841)" d="M469.3372 360.6257L468.0191 360.6257" stroke="#262626" stroke-width="0.3037125" stroke-linecap="square" fill="none" /><path transform="matrix(1 0 0 -1 0 841)" d="M337.526 373.6096L338.8442 373.6096" stroke="#262626" stroke-width="0.3037125" stroke-linecap="square" fill="none" /><path transform="matrix(1 0 0 -1 0 841)" d="M469.3372 373.6096L468.0191 373.6096" stroke="#262626" stroke-width="0.3037125" stroke-linecap="square" fill="none" /><path transform="matrix(1 0 0 -1 0 841)" d="M337.526 386.5932L338.8442 386.5932" stroke="#262626" stroke-width="0.3037125" stroke-linecap="square" fill="none" /><path transform="matrix(1 0 0 -1 0 841)" d="M469.3372 386.5932L468.0191 386.5932" stroke="#262626" stroke-width="0.3037125" stroke-linecap="square" fill="none" /><path transform="matrix(1 0 0 -1 0 841)" d="M337.526 282.7235L350.7072 291.0112L350.7072 291.0112L363.8883 299.7749L363.8883 299.7749L377.0694 308.9821L377.0694 308.9821L390.2505 318.5936L390.2505 318.5936L403.4316 328.5606L403.4316 328.5606L416.6128 338.8285L416.6128 338.8285L429.7939 349.3329L429.7939 349.3329L442.975 360.0062L442.975 360.0062L456.1561 370.775L456.1561 370.775L469.3372 381.5637" stroke="#0072BD" stroke-width="0.3037125" stroke-linecap="square" fill="none" /><path transform="matrix(1 0 0 -1 0 841)" d="M337.526 282.7235L350.7072 291.0066L350.7072 291.0066L363.8883 299.7539L363.8883 299.7539L377.0694 308.9305L377.0694 308.9305L390.2505 318.4923L390.2505 318.4923L403.4316 328.3881L403.4316 328.3881L416.6128 338.5572L416.6128 338.5572L429.7939 348.9336L429.7939 348.9336L442.975 359.4457L442.975 359.4457L456.1561 370.0173L456.1561 370.0173L469.3372 380.5716" stroke="#D95319" stroke-width="0.3037125" stroke-linecap="square" fill="none" /><path transform="matrix(1 0 0 -1 0 841)" d="M337.526 282.7235L350.7072 291.003L350.7072 291.003L363.8883 299.735L363.8883 299.735L377.0694 308.8813L377.0694 308.8813L390.2505 318.3947L390.2505 318.3947L403.4316 328.2188L403.4316 328.2188L416.6128 338.2907L416.6128 338.2907L429.7939 348.5408L429.7939 348.5408L442.975 358.8938L442.975 358.8938L456.1561 369.2714L456.1561 369.2714L469.3372 379.596" stroke="#EDB120" stroke-width="0.3037125" stroke-linecap="square" fill="none" /><path transform="matrix(1 0 0 -1 0 841)" d="M337.526 282.7235L350.7072 291.0003L350.7072 291.0003L363.8883 299.7183L363.8883 299.7183L377.0694 308.8355L377.0694 308.8355L390.2505 318.3008L390.2505 318.3008L403.4316 328.0548L403.4316 328.0548L416.6128 338.0308L416.6128 338.0308L429.7939 348.1557L429.7939 348.1557L442.975 358.3516L442.975 358.3516L456.1561 368.5397L456.1561 368.5397L469.3372 378.6395" stroke="#7E2F8E" stroke-width="0.3037125" stroke-linecap="square" fill="none" /><path transform="matrix(1 0 0 -1 0 841)" d="M337.526 282.7235L350.7072 290.999L350.7072 290.999L363.8883 299.7037L363.8883 299.7037L377.0694 308.7926L377.0694 308.7926L390.2505 318.2109L390.2505 318.2109L403.4316 327.8961L403.4316 327.8961L416.6128 337.7776L416.6128 337.7776L429.7939 347.7795L429.7939 347.7795L442.975 357.8215L442.975 357.8215L456.1561 367.8229L456.1561 367.8229L469.3372 377.7045" stroke="#77AC30" stroke-width="0.3037125" stroke-linecap="square" fill="none" /><path transform="matrix(1 0 0 -1 0 841)" d="M337.526 282.7235L350.7072 290.9987L350.7072 290.9987L363.8883 299.6918L363.8883 299.6918L377.0694 308.7537L377.0694 308.7537L390.2505 318.1266L390.2505 318.1266L403.4316 327.7438L403.4316 327.7438L416.6128 337.5327L416.6128 337.5327L429.7939 347.4135L429.7939 347.4135L442.975 357.3047L442.975 357.3047L456.1561 367.1244L456.1561 367.1244L469.3372 376.793" stroke="#4DBEEE" stroke-width="0.3037125" stroke-linecap="square" fill="none" /><path transform="matrix(1 0 0 -1 0 841)" d="M337.526 282.7235L350.7072 291.0003L350.7072 291.0003L363.8883 299.6828L363.8883 299.6828L377.0694 308.7192L377.0694 308.7192L390.2505 318.0477L390.2505 318.0477L403.4316 327.5992L403.4316 327.5992L416.6128 337.2962L416.6128 337.2962L429.7939 347.0587L429.7939 347.0587L442.975 356.8026L442.975 356.8026L456.1561 366.4449L456.1561 366.4449L469.3372 375.9069" stroke="#A2142F" stroke-width="0.3037125" stroke-linecap="square" fill="none" /><path transform="matrix(1 0 0 -1 0 841)" d="M344.2077 338.9103L374.5789 338.9103L374.5789 338.9103L374.5789 382.3412L374.5789 382.3412L344.2077 382.3412z" stroke="none" fill="#FFFFFF" fill-rule="winding" /><path transform="matrix(1 0 0 -1 0 841)" d="M346.6374 378.6286L358.7859 378.6286" stroke="#0072BD" stroke-width="0.3037125" stroke-linecap="square" fill="none" /><path transform="matrix(1 0 0 -1 0 841)" d="M346.6374 372.6281L358.7859 372.6281" stroke="#D95319" stroke-width="0.3037125" stroke-linecap="square" fill="none" /><path transform="matrix(1 0 0 -1 0 841)" d="M346.6374 366.6267L358.7859 366.6267" stroke="#EDB120" stroke-width="0.3037125" stroke-linecap="square" fill="none" /><path transform="matrix(1 0 0 -1 0 841)" d="M346.6374 360.6257L358.7859 360.6257" stroke="#7E2F8E" stroke-width="0.3037125" stroke-linecap="square" fill="none" /><path transform="matrix(1 0 0 -1 0 841)" d="M346.6374 354.6248L358.7859 354.6248" stroke="#77AC30" stroke-width="0.3037125" stroke-linecap="square" fill="none" /><path transform="matrix(1 0 0 -1 0 841)" d="M346.6374 348.6234L358.7859 348.6234" stroke="#4DBEEE" stroke-width="0.3037125" stroke-linecap="square" fill="none" /><path transform="matrix(1 0 0 -1 0 841)" d="M346.6374 342.6229L358.7859 342.6229" stroke="#A2142F" stroke-width="0.3037125" stroke-linecap="square" fill="none" /><path transform="matrix(1 0 0 -1 0 841)" d="M344.2077 338.9103L344.2077 382.3412L344.2077 382.3412L374.5789 382.3412L374.5789 382.3412L374.5789 338.9103L374.5789 338.9103L344.2077 338.9103" stroke="#FFFFFF" stroke-width="0.3037125" stroke-linecap="square" fill="none" /></g></g></g></g></svg>