<svg xmlns="http://www.w3.org/2000/svg" xmlns:xlink="http://www.w3.org/1999/xlink" id="body_12" preserveAspectRatio="xMinYMin meet" viewBox="0 0 793 1121"><defs><clipPath id="1"><path d="M0 841L0 -0.8900146L0 -0.8900146L595.276 -0.8900146L595.276 -0.8900146L595.276 841L595.276 841L0 841z" /></clipPath></defs><g transform="matrix(1.333333 0 0 1.333333 0 0)"><g><g clip-path="url(#1)"><path transform="matrix(1 0 0 -1 0 841)" d="M86.4 780.197L508.876 780.197" stroke="#000000" stroke-width="0.398" fill="none" /><path transform="matrix(1 0 0 -1 0 841)" d="M105.37 733.409L489.906 733.409" stroke="#000000" stroke-width="0.873" fill="none" /><path transform="matrix(1 0 0 -1 0 841)" d="M105.37 714.219L489.906 714.219" stroke="#000000" stroke-width="0.545" fill="none" /><path transform="matrix(1 0 0 -1 0 841)" d="M105.37 654.382L489.906 654.382" stroke="#000000" stroke-width="0.873" fill="none" /><path transform="matrix(1 0 0 -1 0 841)" d="M86.4 624.299L482.554 624.299" stroke="#000000" stroke-width="0.873" fill="none" /><path transform="matrix(1 0 0 -1 0 841)" d="M86.4 605.109L482.554 605.109" stroke="#000000" stroke-width="0.545" fill="none" /><path transform="matrix(1 0 0 -1 0 841)" d="M86.4 558.82L482.554 558.82" stroke="#000000" stroke-width="0.873" fill="none" /><path transform="matrix(1 0 0 -1 0 841)" d="M118.239 429.416L477.036 429.416" stroke="#000000" stroke-width="0.873" fill="none" /><path transform="matrix(1 0 0 -1 0 841)" d="M118.239 410.226L477.036 410.226" stroke="#000000" stroke-width="0.545" fill="none" /><path transform="matrix(1 0 0 -1 0 841)" d="M118.239 323.29L477.036 323.29" stroke="#000000" stroke-width="0.873" fill="none" /><path transform="matrix(1 0 0 -1 0 841)" d="M86.4 281.252L493.533 281.252" stroke="#000000" stroke-width="0.873" fill="none" /><path transform="matrix(1 0 0 -1 0 841)" d="M86.4 262.062L493.533 262.062" stroke="#000000" stroke-width="0.545" fill="none" /><path transform="matrix(1 0 0 -1 0 841)" d="M86.4 215.774L493.533 215.774" stroke="#000000" stroke-width="0.873" fill="none" /><path transform="matrix(1 0 0 -1 0 841)" d="M86.4 180.51L494.925 180.51" stroke="#000000" stroke-width="0.873" fill="none" /><path transform="matrix(1 0 0 -1 0 841)" d="M86.4 161.32L494.925 161.32" stroke="#000000" stroke-width="0.545" fill="none" /><path transform="matrix(1 0 0 -1 0 841)" d="M86.4 142.13L494.925 142.13" stroke="#000000" stroke-width="0.873" fill="none" /></g></g></g></svg>