<svg xmlns="http://www.w3.org/2000/svg" xmlns:xlink="http://www.w3.org/1999/xlink" id="body_6" preserveAspectRatio="xMinYMin meet" viewBox="0 0 793 1121"><defs><clipPath id="1"><path d="M0 841L0 -0.8900146L0 -0.8900146L595.276 -0.8900146L595.276 -0.8900146L595.276 841L595.276 841L0 841z" /></clipPath></defs><g transform="matrix(1.333333 0 0 1.333333 0 0)"><g><g clip-path="url(#1)"><path transform="matrix(1 0 0 -1 0 841)" d="M86.4 780.197L508.876 780.197" stroke="#000000" stroke-width="0.398" fill="none" /><path transform="matrix(1 0 0 -1 0 841)" d="M97.149 590.281L498.127 590.281" stroke="#000000" stroke-width="0.873" fill="none" /><path transform="matrix(1 0 0 -1 0 841)" d="M97.149 571.091L498.127 571.091" stroke="#000000" stroke-width="0.545" fill="none" /><path transform="matrix(1 0 0 -1 0 841)" d="M97.149 375.761L498.127 375.761" stroke="#000000" stroke-width="0.873" fill="none" /></g></g></g></svg>