<svg xmlns="http://www.w3.org/2000/svg" xmlns:xlink="http://www.w3.org/1999/xlink" id="body_18" preserveAspectRatio="xMinYMin meet" viewBox="0 0 793 1121"><defs><clipPath id="1"><path d="M0 841L0 -0.8900146L0 -0.8900146L595.276 -0.8900146L595.276 -0.8900146L595.276 841L595.276 841L0 841z" /></clipPath><clipPath id="2"><path d="M109.841 588.221L279.92 588.221L279.92 588.221L279.92 460.6617L279.92 460.6617L109.841 460.6617z" /></clipPath><clipPath id="3"><path d="M315.355 588.221L485.434 588.221L485.434 588.221L485.434 460.6617L485.434 460.6617L315.355 460.6617z" /></clipPath></defs><g transform="matrix(1.333333 0 0 1.333333 0 0)"><g><g clip-path="url(#1)"><path transform="matrix(1 0 0 -1 0 841)" d="M86.4 780.197L508.876 780.197" stroke="#000000" stroke-width="0.398" fill="none" /><path transform="matrix(1 0 0 -1 0 841)" d="M87.595 665.553L98.709 665.553" stroke="#000000" stroke-width="0.436" fill="none" /><path transform="matrix(1 0 0 -1 0 841)" d="M373.062 665.553L383.177 665.553" stroke="#000000" stroke-width="0.436" fill="none" /><path transform="matrix(1 0 0 -1 0 841)" d="M245.552 622.082L259.868 622.082" stroke="#000000" stroke-width="0.436" fill="none" /><path transform="matrix(1 0 0 -1 0 841)" d="M262.259 622.082L267.484 622.082" stroke="#000000" stroke-width="0.436" fill="none" /><path transform="matrix(1 0 0 -1 0 841)" d="M286.844 622.082L297.747 622.082" stroke="#000000" stroke-width="0.436" fill="none" /><path transform="matrix(1 0 0 -1 0 841)" d="M300.138 622.082L305.363 622.082" stroke="#000000" stroke-width="0.436" fill="none" /><g clip-path="url(#2)"><path transform="matrix(1 0 0 -1 0 841)" d="M109.841 252.779L279.92 252.779L279.92 252.779L279.92 380.3383L279.92 380.3383L109.841 380.3383z" stroke="none" fill="#FFFFFF" fill-rule="winding" /><path transform="matrix(1 0 0 -1 0 841)" d="M109.841 252.779L279.92 252.779L279.92 252.779L279.92 380.3383L279.92 380.3383L109.841 380.3383z" stroke="none" fill="#FFFFFF" fill-rule="winding" /><path transform="matrix(1 0 0 -1 0 841)" d="M132.012 266.7498L263.8232 266.7498L263.8232 266.7498L263.8232 370.9232L263.8232 370.9232L132.012 370.9232z" stroke="none" fill="#FFFFFF" fill-rule="winding" /><path transform="matrix(1 0 0 -1 0 841)" d="M132.012 266.7498L263.8232 266.7498" stroke="#262626" stroke-width="0.3037125" stroke-linecap="square" fill="none" /><path transform="matrix(1 0 0 -1 0 841)" d="M132.012 370.9232L263.8232 370.9232" stroke="#262626" stroke-width="0.3037125" stroke-linecap="square" fill="none" /><path transform="matrix(1 0 0 -1 0 841)" d="M132.012 266.7498L132.012 268.0679" stroke="#262626" stroke-width="0.3037125" stroke-linecap="square" fill="none" /><path transform="matrix(1 0 0 -1 0 841)" d="M132.012 370.9232L132.012 369.605" stroke="#262626" stroke-width="0.3037125" stroke-linecap="square" fill="none" /><path transform="matrix(1 0 0 -1 0 841)" d="M145.1931 266.7498L145.1931 268.0679" stroke="#262626" stroke-width="0.3037125" stroke-linecap="square" fill="none" /><path transform="matrix(1 0 0 -1 0 841)" d="M145.1931 370.9232L145.1931 369.605" stroke="#262626" stroke-width="0.3037125" stroke-linecap="square" fill="none" /><path transform="matrix(1 0 0 -1 0 841)" d="M158.3743 266.7498L158.3743 268.0679" stroke="#262626" stroke-width="0.3037125" stroke-linecap="square" fill="none" /><path transform="matrix(1 0 0 -1 0 841)" d="M158.3743 370.9232L158.3743 369.605" stroke="#262626" stroke-width="0.3037125" stroke-linecap="square" fill="none" /><path transform="matrix(1 0 0 -1 0 841)" d="M171.5554 266.7498L171.5554 268.0679" stroke="#262626" stroke-width="0.3037125" stroke-linecap="square" fill="none" /><path transform="matrix(1 0 0 -1 0 841)" d="M171.5554 370.9232L171.5554 369.605" stroke="#262626" stroke-width="0.3037125" stroke-linecap="square" fill="none" /><path transform="matrix(1 0 0 -1 0 841)" d="M184.7365 266.7498L184.7365 268.0679" stroke="#262626" stroke-width="0.3037125" stroke-linecap="square" fill="none" /><path transform="matrix(1 0 0 -1 0 841)" d="M184.7365 370.9232L184.7365 369.605" stroke="#262626" stroke-width="0.3037125" stroke-linecap="square" fill="none" /><path transform="matrix(1 0 0 -1 0 841)" d="M197.9176 266.7498L197.9176 268.0679" stroke="#262626" stroke-width="0.3037125" stroke-linecap="square" fill="none" /><path transform="matrix(1 0 0 -1 0 841)" d="M197.9176 370.9232L197.9176 369.605" stroke="#262626" stroke-width="0.3037125" stroke-linecap="square" fill="none" /><path transform="matrix(1 0 0 -1 0 841)" d="M211.0988 266.7498L211.0988 268.0679" stroke="#262626" stroke-width="0.3037125" stroke-linecap="square" fill="none" /><path transform="matrix(1 0 0 -1 0 841)" d="M211.0988 370.9232L211.0988 369.605" stroke="#262626" stroke-width="0.3037125" stroke-linecap="square" fill="none" /><path transform="matrix(1 0 0 -1 0 841)" d="M224.2799 266.7498L224.2799 268.0679" stroke="#262626" stroke-width="0.3037125" stroke-linecap="square" fill="none" /><path transform="matrix(1 0 0 -1 0 841)" d="M224.2799 370.9232L224.2799 369.605" stroke="#262626" stroke-width="0.3037125" stroke-linecap="square" fill="none" /><path transform="matrix(1 0 0 -1 0 841)" d="M237.461 266.7498L237.461 268.0679" stroke="#262626" stroke-width="0.3037125" stroke-linecap="square" fill="none" /><path transform="matrix(1 0 0 -1 0 841)" d="M237.461 370.9232L237.461 369.605" stroke="#262626" stroke-width="0.3037125" stroke-linecap="square" fill="none" /><path transform="matrix(1 0 0 -1 0 841)" d="M250.6421 266.7498L250.6421 268.0679" stroke="#262626" stroke-width="0.3037125" stroke-linecap="square" fill="none" /><path transform="matrix(1 0 0 -1 0 841)" d="M250.6421 370.9232L250.6421 369.605" stroke="#262626" stroke-width="0.3037125" stroke-linecap="square" fill="none" /><path transform="matrix(1 0 0 -1 0 841)" d="M263.8232 266.7498L263.8232 268.0679" stroke="#262626" stroke-width="0.3037125" stroke-linecap="square" fill="none" /><path transform="matrix(1 0 0 -1 0 841)" d="M263.8232 370.9232L263.8232 369.605" stroke="#262626" stroke-width="0.3037125" stroke-linecap="square" fill="none" /><path transform="matrix(1 0 0 -1 0 841)" d="M132.012 266.7498L132.012 370.9232" stroke="#262626" stroke-width="0.3037125" stroke-linecap="square" fill="none" /><path transform="matrix(1 0 0 -1 0 841)" d="M263.8232 266.7498L263.8232 370.9232" stroke="#262626" stroke-width="0.3037125" stroke-linecap="square" fill="none" /><path transform="matrix(1 0 0 -1 0 841)" d="M132.012 266.7498L133.3302 266.7498" stroke="#262626" stroke-width="0.3037125" stroke-linecap="square" fill="none" /><path transform="matrix(1 0 0 -1 0 841)" d="M263.8232 266.7498L262.5051 266.7498" stroke="#262626" stroke-width="0.3037125" stroke-linecap="square" fill="none" /><path transform="matrix(1 0 0 -1 0 841)" d="M132.012 278.3246L133.3302 278.3246" stroke="#262626" stroke-width="0.3037125" stroke-linecap="square" fill="none" /><path transform="matrix(1 0 0 -1 0 841)" d="M263.8232 278.3246L262.5051 278.3246" stroke="#262626" stroke-width="0.3037125" stroke-linecap="square" fill="none" /><path transform="matrix(1 0 0 -1 0 841)" d="M132.012 289.8993L133.3302 289.8993" stroke="#262626" stroke-width="0.3037125" stroke-linecap="square" fill="none" /><path transform="matrix(1 0 0 -1 0 841)" d="M263.8232 289.8993L262.5051 289.8993" stroke="#262626" stroke-width="0.3037125" stroke-linecap="square" fill="none" /><path transform="matrix(1 0 0 -1 0 841)" d="M132.012 301.4742L133.3302 301.4742" stroke="#262626" stroke-width="0.3037125" stroke-linecap="square" fill="none" /><path transform="matrix(1 0 0 -1 0 841)" d="M263.8232 301.4742L262.5051 301.4742" stroke="#262626" stroke-width="0.3037125" stroke-linecap="square" fill="none" /><path transform="matrix(1 0 0 -1 0 841)" d="M132.012 313.0489L133.3302 313.0489" stroke="#262626" stroke-width="0.3037125" stroke-linecap="square" fill="none" /><path transform="matrix(1 0 0 -1 0 841)" d="M263.8232 313.0489L262.5051 313.0489" stroke="#262626" stroke-width="0.3037125" stroke-linecap="square" fill="none" /><path transform="matrix(1 0 0 -1 0 841)" d="M132.012 324.624L133.3302 324.624" stroke="#262626" stroke-width="0.3037125" stroke-linecap="square" fill="none" /><path transform="matrix(1 0 0 -1 0 841)" d="M263.8232 324.624L262.5051 324.624" stroke="#262626" stroke-width="0.3037125" stroke-linecap="square" fill="none" /><path transform="matrix(1 0 0 -1 0 841)" d="M132.012 336.1987L133.3302 336.1987" stroke="#262626" stroke-width="0.3037125" stroke-linecap="square" fill="none" /><path transform="matrix(1 0 0 -1 0 841)" d="M263.8232 336.1987L262.5051 336.1987" stroke="#262626" stroke-width="0.3037125" stroke-linecap="square" fill="none" /><path transform="matrix(1 0 0 -1 0 841)" d="M132.012 347.7738L133.3302 347.7738" stroke="#262626" stroke-width="0.3037125" stroke-linecap="square" fill="none" /><path transform="matrix(1 0 0 -1 0 841)" d="M263.8232 347.7738L262.5051 347.7738" stroke="#262626" stroke-width="0.3037125" stroke-linecap="square" fill="none" /><path transform="matrix(1 0 0 -1 0 841)" d="M132.012 359.3485L133.3302 359.3485" stroke="#262626" stroke-width="0.3037125" stroke-linecap="square" fill="none" /><path transform="matrix(1 0 0 -1 0 841)" d="M263.8232 359.3485L262.5051 359.3485" stroke="#262626" stroke-width="0.3037125" stroke-linecap="square" fill="none" /><path transform="matrix(1 0 0 -1 0 841)" d="M132.012 370.9232L133.3302 370.9232" stroke="#262626" stroke-width="0.3037125" stroke-linecap="square" fill="none" /><path transform="matrix(1 0 0 -1 0 841)" d="M263.8232 370.9232L262.5051 370.9232" stroke="#262626" stroke-width="0.3037125" stroke-linecap="square" fill="none" /><path transform="matrix(1 0 0 -1 0 841)" d="M132.012 266.7498L145.1931 270.3032L145.1931 270.3032L158.3743 274.1096L158.3743 274.1096L171.5554 278.2067L171.5554 278.2067L184.7365 282.6395L184.7365 282.6395L197.9176 287.4633L197.9176 287.4633L211.0988 292.7482L211.0988 292.7482L224.2799 298.5817L224.2799 298.5817L237.461 305.0775L237.461 305.0775L250.6421 312.3844L250.6421 312.3844L263.8232 320.7013" stroke="#0072BD" stroke-width="0.3037125" stroke-linecap="square" fill="none" /><path transform="matrix(1 0 0 -1 0 841)" d="M132.012 266.7498L145.1931 270.3685L145.1931 270.3685L158.3743 274.2436L158.3743 274.2436L171.5554 278.4127L171.5554 278.4127L184.7365 282.9206L184.7365 282.9206L197.9176 287.8241L197.9176 287.8241L211.0988 293.1925L211.0988 293.1925L224.2799 299.1142L224.2799 299.1142L237.461 305.7036L237.461 305.7036L250.6421 313.1101L250.6421 313.1101L263.8232 321.5338" stroke="#D95319" stroke-width="0.3037125" stroke-linecap="square" fill="none" /><path transform="matrix(1 0 0 -1 0 841)" d="M132.012 266.7498L145.1931 270.4633L145.1931 270.4633L158.3743 274.4383L158.3743 274.4383L171.5554 278.7124L171.5554 278.7124L184.7365 283.3312L184.7365 283.3312L197.9176 288.3513L197.9176 288.3513L211.0988 293.8434L211.0988 293.8434L224.2799 299.8961L224.2799 299.8961L237.461 306.6244L237.461 306.6244L250.6421 314.1791L250.6421 314.1791L263.8232 322.7625" stroke="#EDB120" stroke-width="0.3037125" stroke-linecap="square" fill="none" /><path transform="matrix(1 0 0 -1 0 841)" d="M132.012 266.7498L145.1931 270.602L145.1931 270.602L158.3743 274.7235L158.3743 274.7235L171.5554 279.1528L171.5554 279.1528L184.7365 283.9359L184.7365 283.9359L197.9176 289.1307L197.9176 289.1307L211.0988 294.8071L211.0988 294.8071L224.2799 301.0567L224.2799 301.0567L237.461 307.9955L237.461 307.9955L250.6421 315.7755L250.6421 315.7755L263.8232 324.6017" stroke="#7E2F8E" stroke-width="0.3037125" stroke-linecap="square" fill="none" /><path transform="matrix(1 0 0 -1 0 841)" d="M132.012 266.7498L145.1931 270.8044L145.1931 270.8044L158.3743 275.1419L158.3743 275.1419L171.5554 279.8015L171.5554 279.8015L184.7365 284.8303L184.7365 284.8303L197.9176 290.2875L197.9176 290.2875L211.0988 296.2447L211.0988 296.2447L224.2799 302.7948L224.2799 302.7948L237.461 310.0555L237.461 310.0555L250.6421 318.1833L250.6421 318.1833L263.8232 327.3866" stroke="#77AC30" stroke-width="0.3037125" stroke-linecap="square" fill="none" /><path transform="matrix(1 0 0 -1 0 841)" d="M132.012 266.7498L145.1931 271.0971L145.1931 271.0971L158.3743 275.7503L158.3743 275.7503L171.5554 280.7506L171.5554 280.7506L184.7365 286.147L184.7365 286.147L197.9176 292.0002L197.9176 292.0002L211.0988 298.3853L211.0988 298.3853L224.2799 305.3982L224.2799 305.3982L237.461 313.1603L237.461 313.1603L250.6421 321.8327L250.6421 321.8327L263.8232 331.6309" stroke="#4DBEEE" stroke-width="0.3037125" stroke-linecap="square" fill="none" /><path transform="matrix(1 0 0 -1 0 841)" d="M132.012 266.7498L145.1931 271.5092L145.1931 271.5092L158.3743 276.6141L158.3743 276.6141L171.5554 282.1088L171.5554 282.1088L184.7365 288.0467L184.7365 288.0467L197.9176 294.4933L197.9176 294.4933L211.0988 301.5289L211.0988 301.5289L224.2799 309.2545L224.2799 309.2545L237.461 317.799L237.461 317.799L250.6421 327.3323L250.6421 327.3323L263.8232 338.0817" stroke="#A2142F" stroke-width="0.3037125" stroke-linecap="square" fill="none" /><path transform="matrix(1 0 0 -1 0 841)" d="M132.012 266.7498L145.1931 272.0598L145.1931 272.0598L158.3743 277.7805L158.3743 277.7805L171.5554 283.9643L171.5554 283.9643L184.7365 290.673L184.7365 290.673L197.9176 297.9815L197.9176 297.9815L211.0988 305.9813L211.0988 305.9813L224.2799 314.7866L224.2799 314.7866L237.461 324.5402L237.461 324.5402L250.6421 335.4289L250.6421 335.4289L263.8232 347.7009" stroke="#0072BD" stroke-width="0.3037125" stroke-linecap="square" fill="none" /><path transform="matrix(1 0 0 -1 0 841)" d="M132.012 266.7498L145.1931 272.7362L145.1931 272.7362L158.3743 279.2324L158.3743 279.2324L171.5554 286.3065L171.5554 286.3065L184.7365 294.0385L184.7365 294.0385L197.9176 302.5239L197.9176 302.5239L211.0988 311.8778L211.0988 311.8778L224.2799 322.2421L224.2799 322.2421L237.461 333.7921L237.461 333.7921L250.6421 346.7521L250.6421 346.7521L263.8232 361.4141" stroke="#D95319" stroke-width="0.3037125" stroke-linecap="square" fill="none" /><path transform="matrix(1 0 0 -1 0 841)" d="M140.8197 310.7881L186.6803 310.7881L186.6803 310.7881L186.6803 365.76L186.6803 365.76L140.8197 365.76z" stroke="none" fill="#FFFFFF" fill-rule="winding" /><path transform="matrix(1 0 0 -1 0 841)" d="M143.2494 362.0786L155.3979 362.0786" stroke="#0072BD" stroke-width="0.3037125" stroke-linecap="square" fill="none" /><path transform="matrix(1 0 0 -1 0 841)" d="M143.2494 356.1271L155.3979 356.1271" stroke="#D95319" stroke-width="0.3037125" stroke-linecap="square" fill="none" /><path transform="matrix(1 0 0 -1 0 841)" d="M143.2494 350.1764L155.3979 350.1764" stroke="#EDB120" stroke-width="0.3037125" stroke-linecap="square" fill="none" /><path transform="matrix(1 0 0 -1 0 841)" d="M143.2494 344.2248L155.3979 344.2248" stroke="#7E2F8E" stroke-width="0.3037125" stroke-linecap="square" fill="none" /><path transform="matrix(1 0 0 -1 0 841)" d="M143.2494 338.2741L155.3979 338.2741" stroke="#77AC30" stroke-width="0.3037125" stroke-linecap="square" fill="none" /><path transform="matrix(1 0 0 -1 0 841)" d="M143.2494 332.3233L155.3979 332.3233" stroke="#4DBEEE" stroke-width="0.3037125" stroke-linecap="square" fill="none" /><path transform="matrix(1 0 0 -1 0 841)" d="M143.2494 326.3718L155.3979 326.3718" stroke="#A2142F" stroke-width="0.3037125" stroke-linecap="square" fill="none" /><path transform="matrix(1 0 0 -1 0 841)" d="M143.2494 320.4211L155.3979 320.4211" stroke="#0072BD" stroke-width="0.3037125" stroke-linecap="square" fill="none" /><path transform="matrix(1 0 0 -1 0 841)" d="M143.2494 314.4695L155.3979 314.4695" stroke="#D95319" stroke-width="0.3037125" stroke-linecap="square" fill="none" /><path transform="matrix(1 0 0 -1 0 841)" d="M140.8197 310.7881L140.8197 365.76L140.8197 365.76L186.6803 365.76L186.6803 365.76L186.6803 310.7881L186.6803 310.7881L140.8197 310.7881" stroke="#FFFFFF" stroke-width="0.3037125" stroke-linecap="square" fill="none" /></g><g clip-path="url(#3)"><path transform="matrix(1 0 0 -1 0 841)" d="M315.355 252.779L485.434 252.779L485.434 252.779L485.434 380.3383L485.434 380.3383L315.355 380.3383z" stroke="none" fill="#FFFFFF" fill-rule="winding" /><path transform="matrix(1 0 0 -1 0 841)" d="M315.355 252.779L485.434 252.779L485.434 252.779L485.434 380.3383L485.434 380.3383L315.355 380.3383z" stroke="none" fill="#FFFFFF" fill-rule="winding" /><path transform="matrix(1 0 0 -1 0 841)" d="M337.526 266.7498L469.3372 266.7498L469.3372 266.7498L469.3372 370.9232L469.3372 370.9232L337.526 370.9232z" stroke="none" fill="#FFFFFF" fill-rule="winding" /><path transform="matrix(1 0 0 -1 0 841)" d="M337.526 266.7498L469.3372 266.7498" stroke="#262626" stroke-width="0.3037125" stroke-linecap="square" fill="none" /><path transform="matrix(1 0 0 -1 0 841)" d="M337.526 370.9232L469.3372 370.9232" stroke="#262626" stroke-width="0.3037125" stroke-linecap="square" fill="none" /><path transform="matrix(1 0 0 -1 0 841)" d="M337.526 266.7498L337.526 268.0679" stroke="#262626" stroke-width="0.3037125" stroke-linecap="square" fill="none" /><path transform="matrix(1 0 0 -1 0 841)" d="M337.526 370.9232L337.526 369.605" stroke="#262626" stroke-width="0.3037125" stroke-linecap="square" fill="none" /><path transform="matrix(1 0 0 -1 0 841)" d="M350.7072 266.7498L350.7072 268.0679" stroke="#262626" stroke-width="0.3037125" stroke-linecap="square" fill="none" /><path transform="matrix(1 0 0 -1 0 841)" d="M350.7072 370.9232L350.7072 369.605" stroke="#262626" stroke-width="0.3037125" stroke-linecap="square" fill="none" /><path transform="matrix(1 0 0 -1 0 841)" d="M363.8883 266.7498L363.8883 268.0679" stroke="#262626" stroke-width="0.3037125" stroke-linecap="square" fill="none" /><path transform="matrix(1 0 0 -1 0 841)" d="M363.8883 370.9232L363.8883 369.605" stroke="#262626" stroke-width="0.3037125" stroke-linecap="square" fill="none" /><path transform="matrix(1 0 0 -1 0 841)" d="M377.0694 266.7498L377.0694 268.0679" stroke="#262626" stroke-width="0.3037125" stroke-linecap="square" fill="none" /><path transform="matrix(1 0 0 -1 0 841)" d="M377.0694 370.9232L377.0694 369.605" stroke="#262626" stroke-width="0.3037125" stroke-linecap="square" fill="none" /><path transform="matrix(1 0 0 -1 0 841)" d="M390.2505 266.7498L390.2505 268.0679" stroke="#262626" stroke-width="0.3037125" stroke-linecap="square" fill="none" /><path transform="matrix(1 0 0 -1 0 841)" d="M390.2505 370.9232L390.2505 369.605" stroke="#262626" stroke-width="0.3037125" stroke-linecap="square" fill="none" /><path transform="matrix(1 0 0 -1 0 841)" d="M403.4316 266.7498L403.4316 268.0679" stroke="#262626" stroke-width="0.3037125" stroke-linecap="square" fill="none" /><path transform="matrix(1 0 0 -1 0 841)" d="M403.4316 370.9232L403.4316 369.605" stroke="#262626" stroke-width="0.3037125" stroke-linecap="square" fill="none" /><path transform="matrix(1 0 0 -1 0 841)" d="M416.6128 266.7498L416.6128 268.0679" stroke="#262626" stroke-width="0.3037125" stroke-linecap="square" fill="none" /><path transform="matrix(1 0 0 -1 0 841)" d="M416.6128 370.9232L416.6128 369.605" stroke="#262626" stroke-width="0.3037125" stroke-linecap="square" fill="none" /><path transform="matrix(1 0 0 -1 0 841)" d="M429.7939 266.7498L429.7939 268.0679" stroke="#262626" stroke-width="0.3037125" stroke-linecap="square" fill="none" /><path transform="matrix(1 0 0 -1 0 841)" d="M429.7939 370.9232L429.7939 369.605" stroke="#262626" stroke-width="0.3037125" stroke-linecap="square" fill="none" /><path transform="matrix(1 0 0 -1 0 841)" d="M442.975 266.7498L442.975 268.0679" stroke="#262626" stroke-width="0.3037125" stroke-linecap="square" fill="none" /><path transform="matrix(1 0 0 -1 0 841)" d="M442.975 370.9232L442.975 369.605" stroke="#262626" stroke-width="0.3037125" stroke-linecap="square" fill="none" /><path transform="matrix(1 0 0 -1 0 841)" d="M456.1561 266.7498L456.1561 268.0679" stroke="#262626" stroke-width="0.3037125" stroke-linecap="square" fill="none" /><path transform="matrix(1 0 0 -1 0 841)" d="M456.1561 370.9232L456.1561 369.605" stroke="#262626" stroke-width="0.3037125" stroke-linecap="square" fill="none" /><path transform="matrix(1 0 0 -1 0 841)" d="M469.3372 266.7498L469.3372 268.0679" stroke="#262626" stroke-width="0.3037125" stroke-linecap="square" fill="none" /><path transform="matrix(1 0 0 -1 0 841)" d="M469.3372 370.9232L469.3372 369.605" stroke="#262626" stroke-width="0.3037125" stroke-linecap="square" fill="none" /><path transform="matrix(1 0 0 -1 0 841)" d="M337.526 266.7498L337.526 370.9232" stroke="#262626" stroke-width="0.3037125" stroke-linecap="square" fill="none" /><path transform="matrix(1 0 0 -1 0 841)" d="M469.3372 266.7498L469.3372 370.9232" stroke="#262626" stroke-width="0.3037125" stroke-linecap="square" fill="none" /><path transform="matrix(1 0 0 -1 0 841)" d="M337.526 266.7498L338.8442 266.7498" stroke="#262626" stroke-width="0.3037125" stroke-linecap="square" fill="none" /><path transform="matrix(1 0 0 -1 0 841)" d="M469.3372 266.7498L468.0191 266.7498" stroke="#262626" stroke-width="0.3037125" stroke-linecap="square" fill="none" /><path transform="matrix(1 0 0 -1 0 841)" d="M337.526 284.1122L338.8442 284.1122" stroke="#262626" stroke-width="0.3037125" stroke-linecap="square" fill="none" /><path transform="matrix(1 0 0 -1 0 841)" d="M469.3372 284.1122L468.0191 284.1122" stroke="#262626" stroke-width="0.3037125" stroke-linecap="square" fill="none" /><path transform="matrix(1 0 0 -1 0 841)" d="M337.526 301.4742L338.8442 301.4742" stroke="#262626" stroke-width="0.3037125" stroke-linecap="square" fill="none" /><path transform="matrix(1 0 0 -1 0 841)" d="M469.3372 301.4742L468.0191 301.4742" stroke="#262626" stroke-width="0.3037125" stroke-linecap="square" fill="none" /><path transform="matrix(1 0 0 -1 0 841)" d="M337.526 318.8365L338.8442 318.8365" stroke="#262626" stroke-width="0.3037125" stroke-linecap="square" fill="none" /><path transform="matrix(1 0 0 -1 0 841)" d="M469.3372 318.8365L468.0191 318.8365" stroke="#262626" stroke-width="0.3037125" stroke-linecap="square" fill="none" /><path transform="matrix(1 0 0 -1 0 841)" d="M337.526 336.1987L338.8442 336.1987" stroke="#262626" stroke-width="0.3037125" stroke-linecap="square" fill="none" /><path transform="matrix(1 0 0 -1 0 841)" d="M469.3372 336.1987L468.0191 336.1987" stroke="#262626" stroke-width="0.3037125" stroke-linecap="square" fill="none" /><path transform="matrix(1 0 0 -1 0 841)" d="M337.526 353.5609L338.8442 353.5609" stroke="#262626" stroke-width="0.3037125" stroke-linecap="square" fill="none" /><path transform="matrix(1 0 0 -1 0 841)" d="M469.3372 353.5609L468.0191 353.5609" stroke="#262626" stroke-width="0.3037125" stroke-linecap="square" fill="none" /><path transform="matrix(1 0 0 -1 0 841)" d="M337.526 370.9232L338.8442 370.9232" stroke="#262626" stroke-width="0.3037125" stroke-linecap="square" fill="none" /><path transform="matrix(1 0 0 -1 0 841)" d="M469.3372 370.9232L468.0191 370.9232" stroke="#262626" stroke-width="0.3037125" stroke-linecap="square" fill="none" /><path transform="matrix(1 0 0 -1 0 841)" d="M337.526 266.7498L350.7072 272.0799L350.7072 272.0799L363.8883 277.7897L363.8883 277.7897L377.0694 283.935L377.0694 283.935L390.2505 290.5842L390.2505 290.5842L403.4316 297.8204L403.4316 297.8204L416.6128 305.7473L416.6128 305.7473L429.7939 314.4978L429.7939 314.4978L442.975 324.2418L442.975 324.2418L456.1561 335.2017L456.1561 335.2017L469.3372 347.6774" stroke="#0072BD" stroke-width="0.3037125" stroke-linecap="square" fill="none" /><path transform="matrix(1 0 0 -1 0 841)" d="M337.526 266.7498L350.7072 272.0885L350.7072 272.0885L363.8883 277.8046L363.8883 277.8046L377.0694 283.9542L377.0694 283.9542L390.2505 290.6046L390.2505 290.6046L403.4316 297.8398L403.4316 297.8398L416.6128 305.7639L416.6128 305.7639L429.7939 314.5092L429.7939 314.5092L442.975 324.2454L442.975 324.2454L456.1561 335.1956L456.1561 335.1956L469.3372 347.6592" stroke="#D95319" stroke-width="0.3037125" stroke-linecap="square" fill="none" /><path transform="matrix(1 0 0 -1 0 841)" d="M337.526 266.7498L350.7072 272.1206L350.7072 272.1206L363.8883 277.8672L363.8883 277.8672L377.0694 284.0445L377.0694 284.0445L390.2505 290.7213L390.2505 290.7213L403.4316 297.9807L403.4316 297.9807L416.6128 305.9279L416.6128 305.9279L429.7939 314.6946L429.7939 314.6946L442.975 324.4511L442.975 324.4511L456.1561 335.4208L456.1561 335.4208L469.3372 347.9034" stroke="#EDB120" stroke-width="0.3037125" stroke-linecap="square" fill="none" /><path transform="matrix(1 0 0 -1 0 841)" d="M337.526 266.7498L350.7072 272.1783L350.7072 272.1783L363.8883 277.9805L363.8883 277.9805L377.0694 284.212L377.0694 284.212L390.2505 290.9414L390.2505 290.9414L403.4316 298.2524L403.4316 298.2524L416.6128 306.2498L416.6128 306.2498L429.7939 315.0664L429.7939 315.0664L442.975 324.8727L442.975 324.8727L456.1561 335.8922L456.1561 335.8922L469.3372 348.4261" stroke="#7E2F8E" stroke-width="0.3037125" stroke-linecap="square" fill="none" /><path transform="matrix(1 0 0 -1 0 841)" d="M337.526 266.7498L350.7072 272.2648L350.7072 272.2648L363.8883 278.1518L363.8883 278.1518L377.0694 284.4665L377.0694 284.4665L390.2505 291.2779L390.2505 291.2779L403.4316 298.6704L403.4316 298.6704L416.6128 306.7483L416.6128 306.7483L429.7939 315.6459L429.7939 315.6459L442.975 325.5339L442.975 325.5339L456.1561 336.6373L456.1561 336.6373L469.3372 349.2579" stroke="#77AC30" stroke-width="0.3037125" stroke-linecap="square" fill="none" /><path transform="matrix(1 0 0 -1 0 841)" d="M337.526 266.7498L350.7072 272.3856L350.7072 272.3856L363.8883 278.3908L363.8883 278.3908L377.0694 284.8231L377.0694 284.8231L390.2505 291.7512L390.2505 291.7512L403.4316 299.2596L403.4316 299.2596L416.6128 307.4537L416.6128 307.4537L429.7939 316.4687L429.7939 316.4687L442.975 326.4763L442.975 326.4763L456.1561 337.7015L456.1561 337.7015L469.3372 350.4497" stroke="#4DBEEE" stroke-width="0.3037125" stroke-linecap="square" fill="none" /><path transform="matrix(1 0 0 -1 0 841)" d="M337.526 266.7498L350.7072 272.548L350.7072 272.548L363.8883 278.7145L363.8883 278.7145L377.0694 285.3063L377.0694 285.3063L390.2505 292.3931L390.2505 292.3931L403.4316 300.0605L403.4316 300.0605L416.6128 308.4147L416.6128 308.4147L429.7939 317.5905L429.7939 317.5905L442.975 327.7624L442.975 327.7624L456.1561 339.1573L456.1561 339.1573L469.3372 352.0817" stroke="#A2142F" stroke-width="0.3037125" stroke-linecap="square" fill="none" /><path transform="matrix(1 0 0 -1 0 841)" d="M337.526 266.7498L350.7072 272.7654L350.7072 272.7654L363.8883 279.1476L363.8883 279.1476L377.0694 285.9539L377.0694 285.9539L390.2505 293.2546L390.2505 293.2546L403.4316 301.1357L403.4316 301.1357L416.6128 309.7048L416.6128 309.7048L429.7939 319.0993L429.7939 319.0993L442.975 329.4935L442.975 329.4935L456.1561 341.1184L456.1561 341.1184L469.3372 354.2826" stroke="#0072BD" stroke-width="0.3037125" stroke-linecap="square" fill="none" /><path transform="matrix(1 0 0 -1 0 841)" d="M337.526 266.7498L350.7072 273.0581L350.7072 273.0581L363.8883 279.7308L363.8883 279.7308L377.0694 286.8258L377.0694 286.8258L390.2505 294.4147L390.2505 294.4147L403.4316 302.585L403.4316 302.585L416.6128 311.4453L416.6128 311.4453L429.7939 321.1346L429.7939 321.1346L442.975 331.8305L442.975 331.8305L456.1561 343.7664L456.1561 343.7664L469.3372 357.2557" stroke="#D95319" stroke-width="0.3037125" stroke-linecap="square" fill="none" /><path transform="matrix(1 0 0 -1 0 841)" d="M346.6374 311.3955L392.498 311.3955L392.498 311.3955L392.498 366.3675L392.498 366.3675L346.6374 366.3675z" stroke="none" fill="#FFFFFF" fill-rule="winding" /><path transform="matrix(1 0 0 -1 0 841)" d="M349.0671 362.6861L361.2156 362.6861" stroke="#0072BD" stroke-width="0.3037125" stroke-linecap="square" fill="none" /><path transform="matrix(1 0 0 -1 0 841)" d="M349.0671 356.7345L361.2156 356.7345" stroke="#D95319" stroke-width="0.3037125" stroke-linecap="square" fill="none" /><path transform="matrix(1 0 0 -1 0 841)" d="M349.0671 350.7838L361.2156 350.7838" stroke="#EDB120" stroke-width="0.3037125" stroke-linecap="square" fill="none" /><path transform="matrix(1 0 0 -1 0 841)" d="M349.0671 344.8322L361.2156 344.8322" stroke="#7E2F8E" stroke-width="0.3037125" stroke-linecap="square" fill="none" /><path transform="matrix(1 0 0 -1 0 841)" d="M349.0671 338.8815L361.2156 338.8815" stroke="#77AC30" stroke-width="0.3037125" stroke-linecap="square" fill="none" /><path transform="matrix(1 0 0 -1 0 841)" d="M349.0671 332.9308L361.2156 332.9308" stroke="#4DBEEE" stroke-width="0.3037125" stroke-linecap="square" fill="none" /><path transform="matrix(1 0 0 -1 0 841)" d="M349.0671 326.9792L361.2156 326.9792" stroke="#A2142F" stroke-width="0.3037125" stroke-linecap="square" fill="none" /><path transform="matrix(1 0 0 -1 0 841)" d="M349.0671 321.0285L361.2156 321.0285" stroke="#0072BD" stroke-width="0.3037125" stroke-linecap="square" fill="none" /><path transform="matrix(1 0 0 -1 0 841)" d="M349.0671 315.0769L361.2156 315.0769" stroke="#D95319" stroke-width="0.3037125" stroke-linecap="square" fill="none" /><path transform="matrix(1 0 0 -1 0 841)" d="M346.6374 311.3955L346.6374 366.3675L346.6374 366.3675L392.498 366.3675L392.498 366.3675L392.498 311.3955L392.498 311.3955L346.6374 311.3955" stroke="#FFFFFF" stroke-width="0.3037125" stroke-linecap="square" fill="none" /></g><path transform="matrix(1 0 0 -1 0 841)" d="M323.989 206.141L337.707 206.141" stroke="#000000" stroke-width="0.436" fill="none" /><path transform="matrix(1 0 0 -1 0 841)" d="M340.098 206.141L346.759 206.141" stroke="#000000" stroke-width="0.436" fill="none" /></g></g></g></svg>